<svg width="817" height="680" viewBox="0 0 817 680" fill="none" xmlns="http://www.w3.org/2000/svg">
<path fill-rule="evenodd" clip-rule="evenodd" d="M463.646 322.115C548.468 397.606 589.663 229.98 635.433 335.193C681.203 440.406 754.317 402.956 785.227 452.888C816.137 502.82 805.437 492.713 816.137 568.799C826.836 644.885 736.893 633.72 612.846 638.346C488.798 642.972 548.046 622.552 408.105 623.248C268.163 623.944 403.865 625.012 234.201 627.874C64.5374 630.736 363.19 608.626 396.477 452.888C429.764 297.15 240.146 546.21 342.385 506.979C444.625 467.747 307.315 415.606 372.106 335.192C436.897 254.779 241.921 426.732 331.091 357.315C420.262 287.898 378.825 246.623 463.646 322.115Z" fill="#94BBFF"/>
<path fill-rule="evenodd" clip-rule="evenodd" d="M392.573 327.015C312.885 400.542 308.997 186.615 229.958 307.383C150.918 428.152 82.6103 382.768 47.2808 439.391C11.9513 496.014 -1.29736 477.871 1.18939 547.852C5.46205 668.092 16.408 631.593 134.933 638.346C253.459 645.1 237.768 638.346 381.617 638.346C525.466 638.346 370.323 638.362 547.46 638.346C724.596 638.33 823.266 672.393 788.794 517.085C754.322 361.778 789.497 508.791 691.197 468.035C592.898 427.28 475.969 391.733 412.716 310.713C349.463 229.694 644.977 484.983 558.636 414.464C472.295 343.946 472.26 253.489 392.573 327.015Z" fill="#94BBFF"/>
<path d="M100.326 569.445C101.686 566.145 106.36 566.145 107.721 569.445L137.78 642.333C138.866 644.965 136.93 647.858 134.082 647.858H73.9651C71.1171 647.858 69.1814 644.965 70.2672 642.333L100.326 569.445Z" fill="#F2F4FA"/>
<rect x="145.632" y="642.508" width="8.91301" height="83.2186" transform="rotate(89.6681 145.632 642.508)" fill="#C4C4C4"/>
<path d="M117.309 592.682L121.422 602.681L105.806 602.681L86.6084 602.681L90.761 592.682L117.309 592.682Z" fill="#3175ED"/>
<rect x="220.529" y="-9.25391" width="4.75535" height="274.2" fill="#C4C4C4"/>
<rect x="597.391" y="-10.1636" width="4.75535" height="298.398" fill="#C4C4C4"/>
<rect x="510.606" y="560.478" width="9.51069" height="83.2186" fill="#C4C4C4"/>
<rect x="358.435" y="556.912" width="9.51069" height="83.2186" fill="#C4C4C4"/>
<rect x="168.133" y="244.248" width="486.291" height="261.97" rx="35" transform="rotate(4.1447 168.133 244.248)" fill="#E6D4FF"/>
<path d="M266.806 410.396L295.662 367.821L292.231 412.354L266.806 410.396ZM290.724 431.924L288.848 456.27L314.736 458.265L316.611 433.918L329.555 434.915L331.062 415.345L318.119 414.348L323.187 348.551L287.746 345.821L240.349 413.783L239.257 427.959L290.724 431.924Z" fill="#C7A8F4"/>
<path d="M393.509 468.208C423.094 470.487 445.488 447.411 448.111 413.356C450.734 379.302 432.139 353.068 402.554 350.789C373.122 348.522 350.729 371.598 348.105 405.653C345.482 439.707 364.077 465.941 393.509 468.208ZM400.844 372.979C415.329 374.095 423.696 390.24 422.07 411.35C420.443 432.461 409.703 447.134 395.218 446.018C380.733 444.903 372.367 428.758 373.993 407.647C375.619 386.536 386.36 371.863 400.844 372.979Z" fill="#C7A8F4"/>
<path d="M486.357 427.308L515.213 384.734L511.783 429.267L486.357 427.308ZM510.275 448.836L508.4 473.183L534.287 475.177L536.163 450.83L549.106 451.827L550.614 432.258L537.67 431.261L542.739 365.463L507.297 362.733L459.9 430.695L458.808 444.872L510.275 448.836Z" fill="#C7A8F4"/>
<path d="M163.227 278.847C164.774 259.692 181.476 245.367 200.643 246.756L617.967 276.997C637.31 278.399 651.825 295.262 650.333 314.599L649.294 328.06V328.06C649.294 329.765 647.847 331.111 646.147 330.987L167.574 296.308C164.589 296.091 162.277 293.606 162.277 290.612V290.612L163.227 278.847Z" fill="#C7A8F4"/>
<path d="M222.387 632.015C233.296 632.015 242.139 622.956 242.139 611.781C242.139 600.606 233.296 591.547 222.387 591.547C211.478 591.547 202.635 600.606 202.635 611.781C202.635 622.956 211.478 632.015 222.387 632.015Z" fill="#F2F4FA"/>
<path d="M269.947 586.113C271.768 586.111 273.515 586.847 274.804 588.16C276.094 589.473 276.821 591.256 276.826 593.116V593.116C276.826 599.113 248.68 622.38 222.874 622.38C197.069 622.38 166.663 599.872 166.663 593.116C166.663 591.252 167.388 589.464 168.678 588.146C169.968 586.828 171.717 586.087 173.542 586.087L269.947 586.113Z" fill="#F2F4FA"/>
<path d="M163.715 548.334L162.035 549.363L134.196 506.252C131.869 502.649 131.094 498.301 132.042 494.166C132.99 490.031 135.583 486.447 139.25 484.202L140.93 483.173L168.769 526.284C171.096 529.887 171.871 534.234 170.923 538.369C169.975 542.505 167.382 546.089 163.715 548.334V548.334Z" fill="#F2F4FA"/>
<path d="M168.497 542.59C157.772 524.808 146.85 506.338 133.659 489.853C135.109 487.194 138.116 484.755 140.927 483.041L167.832 524.465C169.587 527.172 171.076 529.95 171.193 533.136C171.31 536.321 170.05 539.8 168.497 542.59Z" fill="#B8C3FD"/>
<path d="M264.943 515.909C263.332 514.949 261.498 514.45 259.634 514.466C257.77 514.481 255.945 515.01 254.349 515.998C232.716 529.377 212.164 527.944 186.977 515.548C174.819 509.565 154.137 561.667 154.137 574.444C155.571 623.244 289.352 620.044 289.352 574.444C289.346 574.444 285.136 528.033 264.943 515.909Z" fill="#F2F4FA"/>
<path d="M236.074 583.839C226.416 579.231 216.756 579.231 207.093 583.839C202.856 583.839 199.423 580.51 199.423 576.395V548.246C199.423 544.131 202.856 540.802 207.093 540.802H236.074C240.312 540.802 243.745 544.131 243.745 548.246V576.395C243.745 580.51 240.312 583.839 236.074 583.839Z" fill="#F1F3FF" stroke="#C7C9F4" stroke-width="5" stroke-miterlimit="10"/>
<path d="M203.384 547.868H203.17C202.697 547.868 202.314 548.24 202.314 548.698V558.601C202.314 559.059 202.697 559.43 203.17 559.43H203.384C203.857 559.43 204.241 559.059 204.241 558.601V548.698C204.241 548.24 203.857 547.868 203.384 547.868Z" fill="#DCE1FE"/>
<path d="M203.384 560.714H203.17C202.697 560.714 202.314 561.09 202.314 561.553V565.015C202.314 565.478 202.697 565.853 203.17 565.853H203.384C203.857 565.853 204.241 565.478 204.241 565.015V561.553C204.241 561.09 203.857 560.714 203.384 560.714Z" fill="#DCE1FE"/>
<path d="M239.177 559.752H238.999C238.605 559.752 238.285 560.127 238.285 560.59V564.052C238.285 564.515 238.605 564.891 238.999 564.891H239.177C239.571 564.891 239.891 564.515 239.891 564.052V560.59C239.891 560.127 239.571 559.752 239.177 559.752Z" fill="#DCE1FE"/>
<path d="M153.407 574.001C153.407 561.208 174.121 509.068 186.294 515.061C192.601 518.232 200.482 521.588 203.292 522.28C204.616 522.609 189.119 523.034 177.088 535.269C163.714 548.86 153.407 574.001 153.407 574.001Z" fill="#B8C3FD"/>
<path d="M304.611 483.912L303.094 482.671L269.531 521.849C266.725 525.123 265.35 529.339 265.708 533.569C266.066 537.799 268.126 541.697 271.437 544.405L272.954 545.645L306.518 506.467C309.323 503.193 310.698 498.977 310.34 494.747C309.983 490.517 307.922 486.619 304.611 483.912V483.912Z" fill="#F2F4FA"/>
<path d="M309.419 488.312C313.318 493.997 312.049 500.389 307.508 505.69L275.833 542.658L275.376 542.266C272.572 539.816 314.135 498.693 309.419 488.312Z" fill="#B8C3FD"/>
<path d="M203.92 618.848C207.553 629.687 220.291 635.097 230.256 630.199C219.668 630.065 210.482 627.101 203.92 618.848Z" fill="#B1B9E4"/>
<path d="M236.999 620.351C215.862 627.402 180.624 615.125 169.554 598.293C196.093 619.553 237.272 620.962 236.999 620.351Z" fill="#B1B9E4"/>
<path d="M231.22 561.678H222.227V570.671H231.22V561.678Z" fill="#FCB614"/>
<path d="M222.226 561.678H213.555V570.671H222.226V561.678Z" fill="#EF4E63"/>
<path d="M222.226 552.364H213.555V561.678H222.226V552.364Z" fill="#63CCF5"/>
<path d="M362.596 511.892L385.183 511.892L354.274 566.308L332.28 566.308L362.596 511.892Z" fill="#3175ED"/>
<path d="M202.02 509.004H201.322C199.741 509.004 198.459 510.315 198.459 511.932V516.353C198.459 517.97 199.741 519.282 201.322 519.282H202.02C203.601 519.282 204.883 517.97 204.883 516.353V511.932C204.883 510.315 203.601 509.004 202.02 509.004Z" fill="#F2F4FA"/>
<path d="M242.81 509.326H242.111C240.53 509.326 239.249 510.637 239.249 512.255V516.675C239.249 518.293 240.53 519.604 242.111 519.604H242.81C244.391 519.604 245.672 518.293 245.672 516.675V512.255C245.672 510.637 244.391 509.326 242.81 509.326Z" fill="#F2F4FA"/>
<path d="M245.668 513.821V517.514C245.685 517.791 245.648 518.069 245.558 518.329C245.468 518.589 245.328 518.825 245.147 519.023C244.966 519.22 244.748 519.373 244.508 519.473C244.268 519.572 244.011 519.615 243.755 519.599H241.818C243.79 518.993 245.012 516.946 245.668 513.821Z" fill="#B8C3FD"/>
<path d="M198.465 513.18V517.074C198.444 517.361 198.479 517.648 198.566 517.919C198.653 518.19 198.791 518.437 198.97 518.646C199.15 518.854 199.368 519.018 199.609 519.128C199.851 519.237 200.11 519.289 200.372 519.281H202.313C200.354 518.658 199.114 516.464 198.465 513.18Z" fill="#B1B9E4"/>
<rect x="166.984" y="467.029" width="109.842" height="21.1976" rx="10.5988" fill="#B8C3FD"/>
<path d="M222.362 514.241C216.329 514.261 185.467 513.669 176.918 496.073V496.073C176.209 494.626 175.977 493.003 175.977 491.392V463.398C175.977 461.785 176.208 460.166 176.918 458.717V458.717C185.712 440.651 218.211 440.692 222.158 440.692C226.207 440.692 258.46 440.733 267.214 458.717V458.717C267.922 460.163 268.154 461.787 268.154 463.398V491.391C268.154 493.005 267.923 494.624 267.214 496.073V496.073C258.89 513.199 229.377 514.22 222.362 514.241Z" fill="#F2F4FA"/>
<path d="M222.153 504.927C217.108 504.942 191.3 504.505 184.151 491.519V491.519C183.563 490.46 183.364 489.238 183.364 488.027V467.444C183.364 466.23 183.562 465.012 184.151 463.951V463.951C191.505 450.618 218.681 450.648 221.982 450.648C225.368 450.648 252.339 450.679 259.659 463.951V463.951C260.247 465.01 260.446 466.232 260.446 467.443V488.026C260.446 489.24 260.248 490.458 259.659 491.519V491.519C252.699 504.158 228.019 504.912 222.153 504.927Z" fill="#FFFFFD"/>
<path d="M245.445 439.929C244.59 438.237 242.688 437.339 240.722 436.838H203.41C201.444 437.339 199.542 438.237 198.687 439.929C195.417 446.382 207.214 464.78 222.066 464.78C236.918 464.78 248.714 446.382 245.445 439.929Z" fill="#B8C3FD"/>
<rect x="208.596" y="471.837" width="7.15204" height="14.9001" rx="3.57602" fill="#231F20"/>
<rect x="227.663" y="476.07" width="7.13302" height="10.6995" rx="3.56651" fill="#231F20"/>
<rect x="238.244" y="478.179" width="2.07069" height="10.6995" rx="1.03535" transform="rotate(114.793 238.244 478.179)" fill="#231F20"/>
<path d="M207.754 470.8C207.251 471.257 206.444 470.914 206.425 470.235V470.235C206.419 470.019 206.501 469.81 206.652 469.656L208.146 468.134C210.205 466.038 213.58 466.031 215.647 468.119L216.875 469.36C217.026 469.513 217.114 469.718 217.12 469.933V469.933C217.14 470.638 216.339 471.058 215.77 470.639L212.907 468.534C212.048 467.902 210.864 467.965 210.077 468.682L207.754 470.8Z" fill="#231F20"/>
<path d="M182.487 274.562C182.487 270.623 185.681 267.429 189.62 267.429V267.429C193.56 267.429 196.753 270.623 196.753 274.562V274.562C196.753 278.502 193.56 281.695 189.62 281.695V281.695C185.681 281.695 182.487 278.502 182.487 274.562V274.562Z" fill="#5DB097"/>
<path d="M207.453 276.345C207.453 272.405 210.646 269.212 214.586 269.212V269.212C218.525 269.212 221.719 272.405 221.719 276.345V276.345C221.719 280.284 218.525 283.478 214.586 283.478V283.478C210.646 283.478 207.453 280.284 207.453 276.345V276.345Z" fill="#FEDF68"/>
<path d="M233.013 278.129C233.013 274.189 236.206 270.996 240.146 270.996V270.996C244.085 270.996 247.279 274.189 247.279 278.129V278.129C247.279 282.068 244.085 285.262 240.146 285.262V285.262C236.206 285.262 233.013 282.068 233.013 278.129V278.129Z" fill="#F3748A"/>
<path d="M164.654 291.8L649.699 327.465" stroke="#C7A8F4"/>
<rect x="313.259" y="511.891" width="242.523" height="54.6865" rx="5" fill="#C7A8F4"/>
<path d="M155.403 445.293C157.636 444.063 158.344 441.617 157.161 439.472C155.979 437.326 153.533 436.618 151.3 437.849C149.067 439.08 148.359 441.525 149.542 443.671C150.724 445.817 153.17 446.524 155.403 445.293ZM152.994 433.776C151.208 430.535 151.73 428.478 153.346 425.817C155.422 422.332 156.468 418.844 154.344 414.99C151.351 409.561 144.299 408.366 137.818 411.939C131.031 415.679 128.492 422.674 131.137 428.923L138.425 426.505C137.009 423.004 137.783 419.437 140.717 417.82C143.257 416.42 146.173 417.153 147.452 419.474C148.611 421.576 147.555 423.7 146.455 425.847C144.651 429.411 144.393 432.465 146.951 437.106L152.994 433.776Z" fill="#F4D155"/>
<path d="M201.334 404.52C205.921 404.686 209.276 401.565 209.435 397.158C209.594 392.751 206.473 389.396 201.886 389.23C197.299 389.065 193.944 392.186 193.785 396.593C193.626 401 196.747 404.355 201.334 404.52ZM208.27 384.507C208.511 377.852 211.22 375.158 216.177 372.545C222.606 369.085 227.449 364.666 227.735 356.752C228.137 345.599 218.353 337.23 205.041 336.75C191.1 336.247 180.709 344.697 179.011 356.794L192.501 359.802C193.554 353.086 198.05 348.295 204.076 348.513C209.293 348.701 213.117 352.531 212.945 357.298C212.789 361.616 209.194 363.917 205.509 366.216C199.426 370.049 196.203 374.526 195.859 384.059L208.27 384.507Z" fill="#F4D155"/>
<path d="M654.324 571.823C655.685 568.523 660.359 568.523 661.719 571.823L691.778 644.71C692.864 647.343 690.928 650.235 688.08 650.235H627.963C625.115 650.235 623.18 647.343 624.265 644.71L654.324 571.823Z" fill="#F2F4FA"/>
<rect x="699.63" y="643.696" width="8.91301" height="83.2186" transform="rotate(89.6681 699.63 643.696)" fill="#C4C4C4"/>
<path d="M672.441 594.355L676.939 604.361L659.922 604.336L639 604.305L643.51 594.312L672.441 594.355Z" fill="#3175ED"/>
<path d="M678.921 612.407L683.067 622.312L661.041 622.313L633.056 622.3L637.112 612.407L678.921 612.407Z" fill="#3175ED"/>
<path d="M124.923 611.218L129.069 621.124L107.042 621.124L79.0578 621.111L83.1137 611.218L124.923 611.218Z" fill="#3175ED"/>
<ellipse cx="120.667" cy="188.966" rx="55.8753" ry="55.2809" fill="#F4D155"/>
<path d="M178.92 188.966C178.92 219.497 154.549 241.869 123.045 244.247C92.1857 244.247 153.955 219.497 153.955 188.966C153.955 158.435 92.1856 133.685 123.045 133.685C153.904 133.685 178.92 158.435 178.92 188.966Z" fill="#F9B668"/>
<ellipse cx="421.443" cy="167.567" rx="40.4204" ry="41.0149" fill="#E6D4FF"/>
<ellipse cx="693.686" cy="267.43" rx="40.4204" ry="41.0149" fill="#E6D4FF"/>
<ellipse cx="77.869" cy="299.528" rx="40.4204" ry="41.0149" fill="#E6D4FF"/>
<ellipse cx="453.541" cy="192.533" rx="40.4204" ry="33.8818" fill="#E6D4FF"/>
<ellipse cx="725.785" cy="292.395" rx="40.4204" ry="33.8818" fill="#E6D4FF"/>
<ellipse cx="109.968" cy="324.494" rx="40.4204" ry="33.8818" fill="#E6D4FF"/>
<ellipse cx="386.967" cy="188.372" rx="40.4204" ry="29.7209" fill="#E6D4FF"/>
<ellipse cx="659.21" cy="288.234" rx="40.4204" ry="29.7209" fill="#E6D4FF"/>
<ellipse cx="43.3927" cy="320.333" rx="40.4204" ry="29.7209" fill="#E6D4FF"/>
<path d="M346.287 532.829L346.383 551.089L351.733 551.061L351.679 540.79C351.667 538.472 353.37 536.786 355.474 536.775C357.578 536.764 358.87 538.327 358.882 540.538L358.937 551.023L364.287 550.995L364.227 539.583C364.204 535.196 361.405 532.036 357.304 532.058C354.914 532.07 352.781 533.294 351.507 535.263L351.494 532.802L346.287 532.829Z" fill="#E6D4FF"/>
<path d="M377.742 531.95C371.75 531.982 367.634 535.998 367.665 541.847C367.696 547.66 371.854 551.669 377.846 551.637C383.873 551.606 387.989 547.554 387.958 541.74C387.927 535.891 383.769 531.919 377.742 531.95ZM377.821 546.93C375.039 546.944 373.066 544.815 373.05 541.819C373.035 538.823 374.985 536.673 377.767 536.658C380.584 536.643 382.557 538.773 382.573 541.769C382.589 544.764 380.638 546.915 377.821 546.93Z" fill="#E6D4FF"/>
<path d="M392.463 544.927C392.483 548.814 394.852 551.548 398.489 551.529C399.631 551.523 401.056 551.301 402.16 550.939L402.137 546.623C401.532 546.805 400.748 546.916 400.249 546.919C398.751 546.926 397.818 545.897 397.81 544.363L397.769 536.624L401.906 536.602L401.885 532.537L397.748 532.558L397.724 527.958L393.23 527.981L392.648 532.585L389.83 532.6L389.852 536.666L392.419 536.652L392.463 544.927Z" fill="#E6D4FF"/>
<path d="M423.867 530.46C423.86 529.14 424.783 528.208 426.174 528.2C426.78 528.197 427.387 528.301 427.958 528.441L427.935 524.054C426.863 523.703 425.614 523.496 424.366 523.502C420.835 523.521 418.495 526.172 418.516 530.167L418.528 532.449L415.96 532.463L415.981 536.528L418.549 536.515L418.624 550.709L423.974 550.681L423.899 536.487L428 536.465L427.979 532.4L423.878 532.421L423.867 530.46Z" fill="#E6D4FF"/>
<path d="M440.016 531.623C434.024 531.654 429.908 535.671 429.939 541.52C429.969 547.333 434.128 551.341 440.119 551.31C446.147 551.278 450.263 547.226 450.232 541.413C450.201 535.564 446.043 531.591 440.016 531.623ZM440.095 546.602C437.313 546.617 435.34 544.487 435.324 541.491C435.308 538.495 437.259 536.345 440.041 536.331C442.858 536.316 444.831 538.445 444.847 541.441C444.862 544.437 442.912 546.587 440.095 546.602Z" fill="#E6D4FF"/>
<path d="M471.62 550.431L471.524 532.171L466.175 532.199L466.229 542.47C466.241 544.788 464.538 546.473 462.434 546.485C460.329 546.496 459.037 544.933 459.026 542.722L458.971 532.237L453.621 532.265L453.681 543.677C453.704 548.064 456.502 551.224 460.604 551.202C462.993 551.189 465.127 549.966 466.4 547.962L466.413 550.458L471.62 550.431Z" fill="#E6D4FF"/>
<path d="M476.163 532.146L476.259 550.406L481.609 550.378L481.555 540.107C481.543 537.789 483.246 536.103 485.35 536.092C487.454 536.081 488.747 537.644 488.758 539.855L488.813 550.34L494.163 550.312L494.103 538.9C494.08 534.513 491.281 531.353 487.18 531.375C484.79 531.387 482.657 532.611 481.383 534.58L481.37 532.119L476.163 532.146Z" fill="#E6D4FF"/>
<path d="M507.679 536.082C510.461 536.067 512.47 538.197 512.485 541.086C512.5 543.974 510.514 546.125 507.732 546.139C504.986 546.154 502.942 544.06 502.927 541.136C502.911 538.247 504.897 536.097 507.679 536.082ZM497.577 541.164C497.607 546.942 501.231 550.988 506.295 550.962C508.863 550.948 510.961 549.832 512.379 548.005L512.39 550.216L517.668 550.189L517.529 523.726L512.18 523.754L512.234 534.168C510.798 532.321 508.688 531.262 506.192 531.275C501.127 531.302 497.547 535.386 497.577 541.164Z" fill="#E6D4FF"/>
</svg>
