<svg width="320" height="378" viewBox="0 0 320 378" fill="none" xmlns="http://www.w3.org/2000/svg">
<path fill-rule="evenodd" clip-rule="evenodd" d="M180.015 248.723C210.497 275.852 225.302 215.613 241.75 253.423C258.199 291.233 284.474 277.775 295.582 295.719C306.69 313.663 302.845 310.031 306.69 337.374C310.535 364.717 278.212 360.705 233.633 362.367C189.054 364.03 210.346 356.692 160.055 356.942C109.764 357.192 158.532 357.575 97.5593 358.604C36.5871 359.632 143.914 351.687 155.877 295.719C167.839 239.752 99.6956 329.256 136.438 315.158C173.179 301.059 123.834 282.321 147.118 253.423C170.402 224.524 100.334 286.32 132.379 261.373C164.424 236.427 149.533 221.594 180.015 248.723Z" fill="#94BBFF"/>
<path fill-rule="evenodd" clip-rule="evenodd" d="M154.473 250.484C125.836 276.907 124.439 200.028 96.0343 243.429C67.6299 286.829 43.082 270.52 30.3856 290.869C17.6893 311.217 12.9281 304.697 13.8217 329.846C15.3572 373.057 19.2909 359.94 61.8854 362.367C104.48 364.794 98.841 362.367 150.536 362.367C202.231 362.367 146.477 362.373 210.135 362.367C273.793 362.361 309.252 374.603 296.864 318.79C284.475 262.977 297.116 315.809 261.79 301.162C226.464 286.516 184.443 273.742 161.712 244.626C138.981 215.51 245.18 307.253 214.152 281.911C183.123 256.569 183.111 224.061 154.473 250.484Z" fill="#94BBFF"/>
<path d="M47.0794 343.35C48.4403 340.05 53.1142 340.05 54.4751 343.35L61.4486 360.26C62.5344 362.893 60.5988 365.785 57.7507 365.785H43.8038C40.9557 365.785 39.0201 362.893 40.1059 360.26L47.0794 343.35Z" fill="#F2F4FA"/>
<rect x="65.7299" y="363.863" width="3.20307" height="29.9063" transform="rotate(89.6681 65.7299 363.863)" fill="#C4C4C4"/>
<path d="M55.5516 345.957L57.0298 349.55L51.4179 349.55L44.5187 349.55L46.011 345.957L55.5516 345.957Z" fill="#3175ED"/>
<rect x="92.646" y="0.41983" width="1.70893" height="264.16" fill="#C4C4C4"/>
<rect x="228.079" y="-0.688232" width="1.70893" height="247.24" fill="#C4C4C4"/>
<rect x="196.891" y="334.384" width="3.41786" height="29.9063" fill="#C4C4C4"/>
<rect x="142.205" y="333.102" width="3.41786" height="29.9063" fill="#C4C4C4"/>
<rect x="73.8162" y="220.74" width="174.759" height="94.1442" rx="10" transform="rotate(4.1447 73.8162 220.74)" fill="#E6D4FF"/>
<path d="M109.277 280.448L119.646 265.148L118.414 281.152L109.277 280.448ZM117.872 288.185L117.198 296.934L126.501 297.651L127.175 288.902L131.827 289.26L132.368 282.227L127.717 281.869L129.538 258.223L116.802 257.242L99.7687 281.666L99.3762 286.76L117.872 288.185Z" fill="#C7A8F4"/>
<path d="M154.81 301.224C165.442 302.043 173.49 293.75 174.432 281.512C175.375 269.274 168.693 259.847 158.06 259.028C147.483 258.213 139.436 266.506 138.493 278.744C137.55 290.982 144.233 300.409 154.81 301.224ZM157.446 267.002C162.651 267.403 165.658 273.205 165.074 280.791C164.489 288.378 160.629 293.651 155.424 293.25C150.219 292.849 147.212 287.047 147.796 279.46C148.381 271.874 152.241 266.601 157.446 267.002Z" fill="#C7A8F4"/>
<path d="M188.177 286.526L198.547 271.226L197.314 287.23L188.177 286.526ZM196.772 294.263L196.098 303.012L205.401 303.729L206.075 294.979L210.727 295.338L211.269 288.305L206.617 287.947L208.439 264.301L195.702 263.32L178.669 287.743L178.277 292.838L196.772 294.263Z" fill="#C7A8F4"/>
<path d="M72.2591 230.625C72.7011 225.152 77.4731 221.06 82.9494 221.456L238.057 232.696C243.583 233.097 247.731 237.915 247.304 243.44L246.732 250.86C246.732 251.472 246.211 251.956 245.6 251.912L73.6156 239.449C72.5426 239.371 71.7117 238.478 71.7118 237.402L72.2591 230.625Z" fill="#C7A8F4"/>
<path d="M93.3135 360.092C97.2338 360.092 100.412 356.836 100.412 352.82C100.412 348.805 97.2338 345.549 93.3135 345.549C89.3931 345.549 86.2151 348.805 86.2151 352.82C86.2151 356.836 89.3931 360.092 93.3135 360.092Z" fill="#F2F4FA"/>
<path d="M110.405 343.596C111.06 343.595 111.687 343.86 112.151 344.332C112.614 344.804 112.876 345.444 112.877 346.112C112.877 348.268 102.762 356.629 93.4887 356.629C84.2149 356.629 73.288 348.54 73.288 346.112C73.288 345.443 73.5484 344.8 74.012 344.327C74.4756 343.853 75.1043 343.587 75.7599 343.587L110.405 343.596Z" fill="#F2F4FA"/>
<path d="M72.2285 330.019L71.6246 330.389L61.62 314.896C60.7838 313.601 60.5055 312.039 60.8461 310.553C61.1867 309.067 62.1185 307.779 63.4363 306.972L64.0402 306.602L74.0448 322.095C74.881 323.39 75.1593 324.952 74.8187 326.438C74.4781 327.924 73.5463 329.212 72.2285 330.019Z" fill="#F2F4FA"/>
<path d="M73.9468 327.955C70.0928 321.565 66.1678 314.927 61.4273 309.003C61.9483 308.047 63.029 307.171 64.039 306.555L73.7078 321.441C74.3386 322.414 74.8737 323.412 74.9157 324.557C74.9577 325.702 74.5051 326.952 73.9468 327.955Z" fill="#B8C3FD"/>
<path d="M108.607 318.367C108.028 318.022 107.369 317.842 106.699 317.848C106.029 317.854 105.373 318.044 104.8 318.399C97.0253 323.207 89.6396 322.692 80.588 318.237C76.2188 316.087 68.7865 334.811 68.7865 339.403C69.3018 356.94 117.379 355.79 117.379 339.403C117.376 339.403 115.864 322.724 108.607 318.367Z" fill="#F2F4FA"/>
<path d="M98.2324 342.779C94.7615 341.123 91.2899 341.123 87.8175 342.779C86.2947 342.779 85.0609 341.582 85.0609 340.104V329.988C85.0609 328.509 86.2947 327.312 87.8175 327.312H98.2324C99.7552 327.312 100.989 328.509 100.989 329.988V340.104C100.989 341.582 99.7552 342.779 98.2324 342.779Z" fill="#F1F3FF" stroke="#C7C9F4" stroke-width="5" stroke-miterlimit="10"/>
<path d="M86.4846 329.852H86.4076C86.2377 329.852 86.0999 329.985 86.0999 330.15V333.709C86.0999 333.873 86.2377 334.007 86.4076 334.007H86.4846C86.6546 334.007 86.7924 333.873 86.7924 333.709V330.15C86.7924 329.985 86.6546 329.852 86.4846 329.852Z" fill="#DCE1FE"/>
<path d="M86.4846 334.469H86.4076C86.2377 334.469 86.0999 334.603 86.0999 334.77V336.014C86.0999 336.18 86.2377 336.315 86.4076 336.315H86.4846C86.6546 336.315 86.7924 336.18 86.7924 336.014V334.77C86.7924 334.603 86.6546 334.469 86.4846 334.469Z" fill="#DCE1FE"/>
<path d="M99.3475 334.122H99.2833C99.1417 334.122 99.0269 334.257 99.0269 334.424V335.668C99.0269 335.834 99.1417 335.969 99.2833 335.969H99.3475C99.4891 335.969 99.604 335.834 99.604 335.668V334.424C99.604 334.257 99.4891 334.122 99.3475 334.122Z" fill="#DCE1FE"/>
<path d="M68.524 339.243C68.524 334.646 75.9681 315.908 80.3429 318.062C82.6092 319.202 85.4415 320.408 86.4512 320.656C86.9272 320.775 81.3581 320.927 77.0344 325.324C72.2282 330.208 68.524 339.243 68.524 339.243Z" fill="#B8C3FD"/>
<path d="M122.862 306.868L122.317 306.422L110.255 320.502C109.247 321.678 108.753 323.193 108.882 324.713C109.01 326.234 109.751 327.634 110.941 328.607L111.486 329.053L123.548 314.974C124.556 313.797 125.05 312.282 124.921 310.762C124.793 309.242 124.052 307.841 122.862 306.868Z" fill="#F2F4FA"/>
<path d="M124.59 308.449C125.991 310.492 125.535 312.789 123.903 314.694L112.521 327.98L112.356 327.839C111.349 326.958 126.285 312.18 124.59 308.449Z" fill="#B8C3FD"/>
<path d="M86.6769 355.36C87.9826 359.255 92.5603 361.199 96.1414 359.439C92.3363 359.391 89.0352 358.325 86.6769 355.36Z" fill="#B1B9E4"/>
<path d="M98.5646 355.9C90.9684 358.434 78.3051 354.022 74.3267 347.973C83.8642 355.613 98.6625 356.119 98.5646 355.9Z" fill="#B1B9E4"/>
<path d="M96.4876 334.815H93.2559V338.047H96.4876V334.815Z" fill="#FCB614"/>
<path d="M93.2558 334.815H90.1394V338.047H93.2558V334.815Z" fill="#EF4E63"/>
<path d="M93.2558 331.468H90.1394V334.815H93.2558V331.468Z" fill="#63CCF5"/>
<path d="M143.7 316.923L151.818 316.923L140.71 336.479L132.806 336.479L143.7 316.923Z" fill="#3175ED"/>
<path d="M85.9943 315.886H85.7433C85.1752 315.886 84.7146 316.357 84.7146 316.938V318.527C84.7146 319.108 85.1752 319.579 85.7433 319.579H85.9943C86.5625 319.579 87.023 319.108 87.023 318.527V316.938C87.023 316.357 86.5625 315.886 85.9943 315.886Z" fill="#F2F4FA"/>
<path d="M100.653 316.001H100.402C99.8337 316.001 99.3732 316.472 99.3732 317.054V318.642C99.3732 319.224 99.8337 319.695 100.402 319.695H100.653C101.221 319.695 101.682 319.224 101.682 318.642V317.054C101.682 316.472 101.221 316.001 100.653 316.001Z" fill="#F2F4FA"/>
<path d="M101.68 317.617V318.944C101.686 319.044 101.673 319.143 101.64 319.237C101.608 319.33 101.558 319.415 101.493 319.486C101.428 319.557 101.349 319.612 101.263 319.648C101.177 319.684 101.085 319.699 100.992 319.693H100.296C101.005 319.476 101.444 318.74 101.68 317.617Z" fill="#B8C3FD"/>
<path d="M84.7167 317.386V318.786C84.7092 318.889 84.7216 318.992 84.7528 319.089C84.7841 319.187 84.8337 319.276 84.8983 319.351C84.963 319.425 85.0412 319.484 85.128 319.524C85.2147 319.563 85.308 319.582 85.4018 319.579H86.0996C85.3955 319.355 84.95 318.567 84.7167 317.386Z" fill="#B1B9E4"/>
<rect x="73.4034" y="300.801" width="39.4739" height="7.61777" rx="3.80889" fill="#B8C3FD"/>
<path d="M93.3047 317.768C91.1365 317.775 80.0456 317.562 76.9733 311.239C76.7187 310.719 76.6353 310.135 76.6353 309.556V299.496C76.6353 298.917 76.7183 298.335 76.9733 297.814C80.1338 291.322 91.8127 291.336 93.2312 291.336C94.6865 291.336 106.277 291.351 109.423 297.814C109.678 298.334 109.761 298.917 109.761 299.496V309.556C109.761 310.136 109.678 310.718 109.423 311.239C106.432 317.393 95.8257 317.76 93.3047 317.768Z" fill="#F2F4FA"/>
<path d="M93.2294 314.42C91.4163 314.426 82.1416 314.269 79.5725 309.602C79.3613 309.222 79.2898 308.782 79.2898 308.347V300.95C79.2898 300.514 79.3608 300.076 79.5725 299.695C82.2154 294.904 91.9817 294.914 93.168 294.914C94.3849 294.914 104.077 294.925 106.708 299.695C106.919 300.076 106.991 300.515 106.991 300.95V308.347C106.991 308.783 106.92 309.221 106.708 309.602C104.207 314.144 95.3376 314.415 93.2294 314.42Z" fill="#FFFFFD"/>
<path d="M101.6 291.062C101.293 290.454 100.609 290.131 99.9027 289.951H86.4938C85.7872 290.131 85.1037 290.454 84.7965 291.062C83.6215 293.381 87.8608 299.993 93.1982 299.993C98.5357 299.993 102.775 293.381 101.6 291.062Z" fill="#B8C3FD"/>
<rect x="88.3573" y="302.529" width="2.57023" height="5.35465" rx="1.28512" fill="#231F20"/>
<rect x="95.2094" y="304.05" width="2.5634" height="3.8451" rx="1.2817" fill="#231F20"/>
<rect x="99.0122" y="304.808" width="0.744145" height="3.8451" rx="0.372073" transform="rotate(114.793 99.0122 304.808)" fill="#231F20"/>
<path d="M88.0547 302.156C87.8742 302.321 87.5839 302.197 87.5771 301.953C87.5749 301.876 87.6044 301.801 87.6588 301.745L88.1958 301.198C88.9356 300.445 90.1487 300.443 90.8914 301.193L91.3326 301.639C91.387 301.694 91.4185 301.767 91.4206 301.845C91.4277 302.098 91.1399 302.249 90.9355 302.099L89.9066 301.342C89.5981 301.115 89.1725 301.138 88.8896 301.395L88.0547 302.156Z" fill="#231F20"/>
<path d="M78.9749 231.634C78.9749 230.218 80.1225 229.071 81.5383 229.071C82.954 229.071 84.1016 230.218 84.1016 231.634C84.1016 233.05 82.954 234.197 81.5383 234.197C80.1225 234.197 78.9749 233.05 78.9749 231.634Z" fill="#5DB097"/>
<path d="M87.9468 232.275C87.9468 230.859 89.0944 229.712 90.5102 229.712C91.9259 229.712 93.0736 230.859 93.0736 232.275C93.0736 233.691 91.9259 234.838 90.5102 234.838C89.0944 234.838 87.9468 233.691 87.9468 232.275Z" fill="#FEDF68"/>
<path d="M97.1321 232.916C97.1321 231.5 98.2798 230.352 99.6955 230.352C101.111 230.352 102.259 231.5 102.259 232.916C102.259 234.331 101.111 235.479 99.6955 235.479C98.2798 235.479 97.1321 234.331 97.1321 232.916Z" fill="#F3748A"/>
<path d="M72.566 237.829L246.877 250.646" stroke="#C7A8F4"/>
<rect x="125.97" y="316.923" width="87.1555" height="19.6527" rx="5" fill="#C7A8F4"/>
<path d="M70.537 295.364C71.4911 294.838 71.7934 293.793 71.2881 292.876C70.7829 291.96 69.7382 291.657 68.7841 292.183C67.83 292.709 67.5277 293.754 68.0329 294.671C68.5382 295.587 69.5829 295.89 70.537 295.364ZM69.5078 290.443C68.7448 289.058 68.9676 288.179 69.6582 287.043C70.545 285.554 70.992 284.064 70.0846 282.417C68.806 280.097 65.7929 279.587 63.0241 281.113C60.1244 282.712 59.0396 285.7 60.1697 288.37L63.2833 287.337C62.6784 285.841 63.0092 284.317 64.2627 283.626C65.3478 283.028 66.5937 283.341 67.1402 284.333C67.6351 285.231 67.1839 286.138 66.714 287.056C65.9433 288.578 65.8331 289.883 66.9261 291.866L69.5078 290.443Z" fill="#F4D155"/>
<path d="M85.5521 283.188C87.5118 283.258 88.9451 281.925 89.0131 280.042C89.081 278.159 87.7476 276.726 85.7879 276.655C83.8282 276.584 82.3949 277.918 82.3269 279.801C82.259 281.683 83.5924 283.117 85.5521 283.188ZM88.5156 274.637C88.6183 271.794 89.7756 270.643 91.8936 269.527C94.6403 268.048 96.7092 266.161 96.8313 262.779C97.0033 258.014 92.8231 254.439 87.1361 254.234C81.18 254.019 76.7404 257.629 76.0151 262.797L81.7786 264.083C82.2285 261.213 84.1492 259.166 86.7238 259.259C88.9525 259.34 90.5863 260.976 90.5128 263.013C90.4462 264.857 88.9102 265.841 87.3357 266.823C84.7371 268.46 83.3599 270.373 83.2128 274.446L88.5156 274.637Z" fill="#F4D155"/>
<path d="M246.17 344.205C247.531 340.905 252.205 340.905 253.566 344.205L260.539 361.115C261.625 363.748 259.689 366.64 256.841 366.64H242.895C240.046 366.64 238.111 363.748 239.197 361.115L246.17 344.205Z" fill="#F2F4FA"/>
<rect x="264.821" y="364.29" width="3.20307" height="29.9063" transform="rotate(89.6681 264.821 364.29)" fill="#C4C4C4"/>
<path d="M255.05 346.558L256.666 350.154L250.551 350.145L243.032 350.134L244.653 346.543L255.05 346.558Z" fill="#3175ED"/>
<path d="M257.379 353.045L258.869 356.605L250.953 356.605L240.896 356.6L242.354 353.045L257.379 353.045Z" fill="#3175ED"/>
<path d="M58.2879 352.618L59.7779 356.178L51.8621 356.178L41.8053 356.173L43.2629 352.618L58.2879 352.618Z" fill="#3175ED"/>
<ellipse cx="56.7584" cy="200.873" rx="20.0799" ry="19.8663" fill="#F4D155"/>
<path d="M77.6928 200.873C77.6928 211.845 68.9345 219.885 57.6129 220.74C46.5231 220.74 68.7211 211.845 68.7211 200.873C68.7211 189.901 46.523 181.007 57.6129 181.007C68.7027 181.007 77.6928 189.901 77.6928 200.873Z" fill="#F9B668"/>
<ellipse cx="154.848" cy="173.183" rx="14.5259" ry="14.7395" fill="#E6D4FF"/>
<ellipse cx="28" cy="116.5" rx="26" ry="26.5" fill="#E6D4FF"/>
<ellipse cx="275.916" cy="225.74" rx="14.5259" ry="14.7395" fill="#E6D4FF"/>
<ellipse cx="41.3782" cy="240.606" rx="14.5259" ry="14.7395" fill="#E6D4FF"/>
<ellipse cx="166.384" cy="182.155" rx="14.5259" ry="12.1761" fill="#E6D4FF"/>
<ellipse cx="49" cy="132.5" rx="26" ry="21.5" fill="#E6D4FF"/>
<ellipse cx="287.451" cy="234.711" rx="14.5259" ry="12.1761" fill="#E6D4FF"/>
<ellipse cx="52.9134" cy="249.578" rx="14.5259" ry="12.1761" fill="#E6D4FF"/>
<ellipse cx="142.459" cy="180.66" rx="14.5259" ry="10.6808" fill="#E6D4FF"/>
<ellipse cx="6" cy="130" rx="26" ry="19" fill="#E6D4FF"/>
<ellipse cx="263.526" cy="233.216" rx="14.5259" ry="10.6808" fill="#E6D4FF"/>
<ellipse cx="28.9883" cy="248.083" rx="14.5259" ry="10.6808" fill="#E6D4FF"/>
<ellipse cx="305" cy="37.5" rx="26" ry="26.5" fill="#E6D4FF"/>
<ellipse cx="225.5" cy="108" rx="17.5" ry="18" fill="#E6D4FF"/>
<ellipse cx="326" cy="53.5" rx="26" ry="21.5" fill="#E6D4FF"/>
<ellipse cx="239.5" cy="118.5" rx="17.5" ry="14.5" fill="#E6D4FF"/>
<ellipse cx="283" cy="51" rx="26" ry="19" fill="#E6D4FF"/>
<ellipse cx="210.5" cy="117" rx="17.5" ry="13" fill="#E6D4FF"/>
<path d="M137.84 324.448L137.874 331.01L139.797 331L139.777 327.308C139.773 326.475 140.385 325.87 141.141 325.866C141.897 325.862 142.362 326.423 142.366 327.218L142.386 330.986L144.308 330.976L144.287 326.875C144.278 325.298 143.273 324.163 141.799 324.17C140.94 324.175 140.173 324.615 139.716 325.322L139.711 324.438L137.84 324.448Z" fill="#E6D4FF"/>
<path d="M149.144 324.132C146.99 324.143 145.511 325.586 145.522 327.688C145.533 329.778 147.028 331.218 149.181 331.207C151.347 331.195 152.826 329.739 152.815 327.65C152.804 325.548 151.31 324.12 149.144 324.132ZM149.172 329.515C148.172 329.52 147.463 328.755 147.458 327.678C147.452 326.602 148.153 325.829 149.152 325.824C150.165 325.818 150.874 326.584 150.88 327.66C150.885 328.737 150.184 329.51 149.172 329.515Z" fill="#E6D4FF"/>
<path d="M154.434 328.795C154.441 330.192 155.292 331.175 156.6 331.168C157.01 331.165 157.522 331.086 157.919 330.956L157.911 329.405C157.693 329.47 157.411 329.51 157.232 329.511C156.693 329.514 156.358 329.144 156.355 328.593L156.341 325.811L157.827 325.804L157.82 324.343L156.333 324.35L156.324 322.697L154.709 322.705L154.5 324.36L153.488 324.365L153.495 325.826L154.418 325.822L154.434 328.795Z" fill="#E6D4FF"/>
<path d="M165.72 323.596C165.717 323.122 166.049 322.787 166.549 322.784C166.766 322.783 166.984 322.82 167.19 322.871L167.182 321.294C166.796 321.168 166.347 321.093 165.899 321.096C164.63 321.102 163.789 322.055 163.797 323.491L163.801 324.311L162.878 324.316L162.886 325.777L163.809 325.772L163.835 330.873L165.758 330.863L165.731 325.762L167.205 325.754L167.197 324.293L165.723 324.301L165.72 323.596Z" fill="#E6D4FF"/>
<path d="M171.523 324.014C169.37 324.025 167.891 325.469 167.902 327.571C167.913 329.66 169.407 331.1 171.56 331.089C173.726 331.078 175.205 329.621 175.194 327.532C175.183 325.43 173.689 324.003 171.523 324.014ZM171.551 329.397C170.552 329.402 169.843 328.637 169.837 327.561C169.831 326.484 170.532 325.711 171.532 325.706C172.544 325.701 173.253 326.466 173.259 327.543C173.265 328.619 172.564 329.392 171.551 329.397Z" fill="#E6D4FF"/>
<path d="M182.881 330.773L182.846 324.211L180.924 324.221L180.943 327.912C180.947 328.745 180.335 329.351 179.579 329.355C178.823 329.359 178.359 328.797 178.355 328.003L178.335 324.235L176.412 324.245L176.434 328.346C176.442 329.923 177.448 331.058 178.922 331.05C179.78 331.046 180.547 330.606 181.005 329.886L181.009 330.783L182.881 330.773Z" fill="#E6D4FF"/>
<path d="M184.513 324.202L184.548 330.764L186.47 330.754L186.451 327.063C186.447 326.23 187.059 325.624 187.815 325.62C188.571 325.616 189.035 326.178 189.04 326.972L189.059 330.741L190.982 330.731L190.96 326.629C190.952 325.053 189.946 323.917 188.472 323.925C187.614 323.929 186.847 324.369 186.389 325.077L186.385 324.192L184.513 324.202Z" fill="#E6D4FF"/>
<path d="M195.839 325.617C196.839 325.611 197.561 326.377 197.566 327.415C197.572 328.453 196.858 329.226 195.858 329.231C194.871 329.236 194.137 328.484 194.131 327.433C194.126 326.395 194.839 325.622 195.839 325.617ZM192.209 327.443C192.22 329.519 193.522 330.973 195.342 330.964C196.265 330.959 197.019 330.558 197.528 329.901L197.532 330.696L199.429 330.686L199.379 321.176L197.457 321.186L197.476 324.929C196.96 324.265 196.202 323.884 195.305 323.889C193.485 323.899 192.198 325.367 192.209 327.443Z" fill="#E6D4FF"/>
</svg>
