<svg width="184" height="56" viewBox="0 0 184 56" fill="none" xmlns="http://www.w3.org/2000/svg">
  <path d="M27.6399 55.2191C30.8274 55.2191 33.4126 52.6559 33.4126 49.5012C33.4126 46.3465 30.8274 43.7832 27.6399 43.7832C24.4524 43.7832 21.8672 46.3465 21.8672 49.5012C21.8672 52.6559 24.4524 55.2191 27.6399 55.2191Z" fill="#F2F4FA"/>
  <path
    d="M41.5385 42.2329C41.8038 42.2331 42.0663 42.2844 42.3103 42.3838C42.5543 42.4832 42.7748 42.6285 42.9586 42.8112C43.3371 43.1884 43.5486 43.6905 43.5488 44.213C43.5488 45.9104 35.3243 52.4926 27.7825 52.4926C20.2407 52.4926 11.3574 46.1211 11.3574 44.213C11.3555 43.6895 11.5665 43.1857 11.946 42.808C12.1295 42.6246 12.3498 42.4785 12.5938 42.3783C12.8378 42.278 13.1005 42.2258 13.3661 42.2247L41.5385 42.2329Z"
    fill="#F2F4FA"/>
  <path
    d="M17.6608 27.7469L18.0406 28.1651L7.01532 38.0115C6.56594 38.4175 6.03467 38.7319 5.45389 38.9355C4.8731 39.1391 4.25498 39.2277 3.6372 39.1957C3.01941 39.1638 2.41491 39.012 1.86056 38.7497C1.3062 38.4874 0.813598 38.12 0.412783 37.67L0.0380859 37.2485L11.06 27.4022C11.5092 26.996 12.0404 26.6816 12.6211 26.478C13.2019 26.2744 13.82 26.186 14.4377 26.2181C15.0554 26.2502 15.6598 26.4022 16.2139 26.6647C16.7681 26.9273 17.2604 27.295 17.6608 27.7453V27.7469Z"
    fill="#F2F4FA"/>
  <path d="M15.7681 26.6916C11.1844 30.5406 6.41262 34.4794 2.32517 38.9542C1.48681 38.6781 0.63476 37.9576 0 37.2584L10.5822 27.7535C11.2656 27.1377 12.1122 26.7117 13.0305 26.5217C13.9419 26.3354 14.8896 26.3943 15.7681 26.6916Z" fill="#B8C3FD"/>
  <path
    d="M40.0771 22.3705C39.6096 22.0991 39.0721 21.9577 38.5251 21.962C37.978 21.9663 37.443 22.1163 36.9803 22.395C30.6584 26.1803 24.6615 25.7751 17.2925 22.2692C13.7406 20.575 7.69922 35.316 7.69922 38.9314C8.1184 52.7378 47.222 51.8376 47.222 38.9314C47.2066 38.9314 45.9782 25.8013 40.0771 22.3705Z"
    fill="#F2F4FA"/>
  <path
    d="M54.5368 17.0101L55.0005 17.3368L46.4269 29.3413C46.0797 29.8333 45.6329 30.254 45.1128 30.5787C44.5927 30.9033 44.0099 31.1253 43.3986 31.2315C42.7917 31.3336 42.1693 31.3166 41.5696 31.1815C40.9698 31.0464 40.4051 30.796 39.91 30.4457L39.4463 30.1189L48.0198 18.1145C48.367 17.6224 48.8138 17.2017 49.3339 16.8771C49.854 16.5525 50.4369 16.3305 51.0482 16.2243C51.6551 16.1222 52.2774 16.1392 52.8772 16.2743C53.477 16.4094 54.0417 16.6598 54.5368 17.0101Z"
    fill="#F2F4FA"/>
  <path
    d="M31.6402 41.5891C28.8171 40.2821 25.9941 40.2821 23.171 41.5891C22.5814 41.5935 22.0141 41.3741 21.5938 40.9792C21.1735 40.5843 20.9347 40.0462 20.9297 39.4833V31.5189C20.9313 31.2396 20.9905 30.9633 21.1041 30.7059C21.2176 30.4485 21.3832 30.215 21.5914 30.0188C21.7996 29.8226 22.0463 29.6675 22.3174 29.5624C22.5884 29.4574 22.8785 29.4044 23.171 29.4066H31.6402C31.9323 29.4051 32.2218 29.4585 32.4923 29.5638C32.7627 29.6692 33.0088 29.8244 33.2165 30.0205C33.4241 30.2167 33.5893 30.45 33.7025 30.7071C33.8157 30.9642 33.8748 31.24 33.8764 31.5189V39.4833C33.8714 40.0454 33.6332 40.5827 33.2141 40.9775C32.7949 41.3722 32.2289 41.5921 31.6402 41.5891Z"
    fill="#F1F3FF"/>
  <path
    fill-rule="evenodd"
    clip-rule="evenodd"
    d="M23.1677 29.815C22.9315 29.8132 22.6972 29.856 22.4782 29.9408C22.2593 30.0257 22.0601 30.1509 21.8919 30.3094C21.7237 30.4679 21.59 30.6565 21.4983 30.8644C21.4067 31.072 21.3588 31.2948 21.3574 31.5201V39.4814C21.3619 39.9356 21.5548 40.3695 21.8938 40.6881C22.2117 40.9867 22.6336 41.161 23.077 41.1792C25.9564 39.8743 28.8543 39.8742 31.7337 41.1789C32.1761 41.1598 32.5969 40.985 32.9137 40.6866C33.2519 40.3682 33.4442 39.9349 33.4487 39.4815V31.52C33.4472 31.2951 33.3995 31.0727 33.3082 30.8654C33.2168 30.6577 33.0834 30.4693 32.9157 30.3108C32.7479 30.1524 32.5492 30.0271 32.3307 29.942C32.1123 29.8569 31.8784 29.8137 31.6425 29.815L31.6402 29.815H23.1694L23.1677 29.815ZM31.6402 41.5891L31.4536 41.9566C28.7484 40.7042 26.0628 40.7042 23.3576 41.9566L23.2708 41.9968L23.1743 41.9975C22.4713 42.0027 21.7949 41.7411 21.2938 41.2703C20.7927 40.7995 20.5079 40.1579 20.502 39.4867L20.502 39.485V31.5167C20.5038 31.1837 20.5745 30.8543 20.7099 30.5474C20.8453 30.2404 21.0427 29.962 21.2909 29.7281C21.5392 29.4941 21.8333 29.3092 22.1565 29.184C22.4791 29.0589 22.8244 28.9958 23.1726 28.9981H31.6391C31.9869 28.9965 32.3317 29.0602 32.6538 29.1856C32.9763 29.3112 33.2697 29.4963 33.5173 29.7301C33.7649 29.964 33.9618 30.2422 34.0968 30.5487C34.2318 30.8553 34.3023 31.1842 34.3041 31.5167L34.3041 31.5189L34.3041 39.485L34.3041 39.4867C34.2982 40.1569 34.0142 40.7976 33.5144 41.2682C33.0146 41.7389 32.3398 42.0011 31.6379 41.9975L31.6402 41.5891Z"
    fill="#C7C9F4"/>
  <path
    d="M22.0868 31.4111H22.0252C21.9926 31.4109 21.9603 31.4168 21.9301 31.4285C21.8999 31.4402 21.8725 31.4575 21.8493 31.4794C21.8261 31.5012 21.8076 31.5272 21.7949 31.5559C21.7823 31.5845 21.7756 31.6153 21.7754 31.6464V34.4482C21.7754 34.4794 21.7819 34.5102 21.7945 34.539C21.8071 34.5677 21.8255 34.5938 21.8488 34.6157C21.872 34.6376 21.8996 34.6549 21.9299 34.6665C21.9601 34.6781 21.9925 34.6839 22.0252 34.6835H22.0868C22.1195 34.6839 22.152 34.6781 22.1824 34.6665C22.2128 34.6549 22.2404 34.6377 22.2638 34.6158C22.2872 34.5939 22.3058 34.5679 22.3186 34.5391C22.3314 34.5103 22.3381 34.4794 22.3383 34.4482V31.6464C22.3374 31.5834 22.3104 31.5233 22.2633 31.4793C22.2162 31.4352 22.1527 31.4107 22.0868 31.4111Z"
    fill="#DCE1FE"/>
  <path
    d="M22.0868 35.0463H22.0252C21.9589 35.0463 21.8954 35.0714 21.8486 35.1161C21.8017 35.1609 21.7754 35.2215 21.7754 35.2848V36.265C21.7754 36.2963 21.7819 36.3272 21.7944 36.356C21.807 36.3849 21.8254 36.4111 21.8487 36.4331C21.8719 36.4551 21.8994 36.4725 21.9297 36.4843C21.96 36.4961 21.9925 36.5021 22.0252 36.5019H22.0868C22.1196 36.5021 22.1521 36.4962 22.1825 36.4844C22.2129 36.4726 22.2406 36.4552 22.2639 36.4332C22.2873 36.4112 22.3059 36.385 22.3186 36.3562C22.3314 36.3273 22.3381 36.2963 22.3383 36.265V35.2848C22.3383 35.2533 22.3318 35.2222 22.3191 35.1931C22.3065 35.1641 22.2879 35.1377 22.2645 35.1156C22.2411 35.0934 22.2134 35.0758 22.1829 35.064C22.1524 35.0521 22.1197 35.0461 22.0868 35.0463Z"
    fill="#DCE1FE"/>
  <path
    d="M32.5477 36.6833H32.4946C32.4342 36.6895 32.3787 36.7179 32.3398 36.7624C32.3009 36.8069 32.2815 36.864 32.2859 36.9219V39.8021C32.2811 39.8602 32.3002 39.9178 32.3392 39.9626C32.3782 40.0075 32.4339 40.036 32.4946 40.0423H32.5477C32.6083 40.036 32.6641 40.0075 32.7031 39.9626C32.7421 39.9178 32.7612 39.8602 32.7564 39.8021V36.9219C32.7607 36.864 32.7414 36.8069 32.7025 36.7624C32.6635 36.7179 32.608 36.6895 32.5477 36.6833Z"
    fill="#DCE1FE"/>
  <path
    d="M32.5476 34.7736H32.4946C32.4341 34.7794 32.3783 34.8076 32.3393 34.8522C32.3003 34.8967 32.2811 34.9542 32.2859 35.0121V35.9923C32.2811 36.0501 32.3003 36.1073 32.3394 36.1516C32.3785 36.1959 32.4342 36.2238 32.4946 36.2292H32.5476C32.6081 36.2238 32.6638 36.1959 32.7029 36.1516C32.7419 36.1073 32.7611 36.0501 32.7564 35.9923V35.0121C32.7612 34.9542 32.742 34.8967 32.703 34.8522C32.664 34.8076 32.6082 34.7794 32.5476 34.7736Z"
    fill="#DCE1FE"/>
  <path d="M7.69922 38.9541C7.69922 35.3354 13.7491 20.5847 17.3062 22.2789C19.1489 23.1758 21.3987 24.0188 22.22 24.2148C22.6067 24.3079 18.0795 24.4288 14.5635 27.8906C10.6557 31.7347 7.69922 38.9541 7.69922 38.9541Z" fill="#B8C3FD"/>
  <path d="M52.9347 16.0102C51.0372 15.3568 49.3263 16.1605 48.1662 17.7861L40.0752 29.1142L40.2206 29.2122C41.1223 29.8036 49.6496 15.4695 52.9347 16.0102Z" fill="#B8C3FD"/>
  <path d="M22.2422 51.4944C23.303 54.5609 27.0328 56.0916 29.9414 54.7046C26.8463 54.667 24.1619 53.829 22.2422 51.4944Z" fill="#B1B9E4"/>
  <path d="M31.9112 51.9192C25.7347 53.914 15.4366 50.4407 12.2012 45.6785C19.9569 51.6938 31.9951 52.0924 31.9112 51.9192Z" fill="#B1B9E4"/>
  <path d="M2.25293 38.8952C2.25293 38.8952 5.00755 39.851 6.94434 37.9542C5.50573 38.6866 3.87856 39.013 2.25293 38.8952Z" fill="#B8C3FD"/>
  <path d="M30.2218 35.319H27.5938V37.8643H30.2218V35.319Z" fill="#FCB614"/>
  <path d="M27.5945 35.319H25.0605V37.8643H27.5945V35.319Z" fill="#EF4E63"/>
  <path d="M27.5945 32.684H25.0605V35.3191H27.5945V32.684Z" fill="#63CCF5"/>
  <path
    d="M21.6878 20.4214H21.4842C21.2582 20.4261 21.0434 20.516 20.8866 20.6716C20.7298 20.8271 20.6439 21.0355 20.6476 21.2513V22.5011C20.6444 22.7166 20.7305 22.9246 20.8872 23.0798C21.0439 23.235 21.2585 23.3247 21.4842 23.3294H21.6878C21.9135 23.3247 22.1281 23.235 22.2848 23.0798C22.4416 22.9246 22.5277 22.7166 22.5245 22.5011V21.2513C22.5281 21.0355 22.4422 20.8271 22.2854 20.6716C22.1287 20.516 21.9138 20.4261 21.6878 20.4214Z"
    fill="#F2F4FA"/>
  <path
    d="M33.6077 20.5078H33.4041C33.1784 20.5125 32.9638 20.6022 32.8071 20.7574C32.6504 20.9126 32.5643 21.1206 32.5675 21.3361V22.5875C32.5643 22.8031 32.6504 23.0111 32.8071 23.1662C32.9638 23.3214 33.1784 23.4111 33.4041 23.4158H33.6077C33.8334 23.4111 34.048 23.3214 34.2047 23.1662C34.3614 23.0111 34.4476 22.8031 34.4444 22.5875V21.3361C34.4476 21.1206 34.3614 20.9126 34.2047 20.7574C34.048 20.6022 33.8334 20.5125 33.6077 20.5078Z"
    fill="#F2F4FA"/>
  <path
    d="M34.4434 21.7806V22.8246C34.4487 22.9025 34.4383 22.9807 34.4126 23.0549C34.3858 23.1276 34.3445 23.1948 34.2912 23.2526C34.2397 23.3074 34.1759 23.3504 34.1047 23.3784C34.0358 23.4073 33.9606 23.4196 33.8857 23.4143H33.3193C33.8959 23.2428 34.2535 22.6645 34.4434 21.7806Z"
    fill="#B8C3FD"/>
  <path
    d="M20.6497 21.5992V22.7085C20.6447 22.789 20.6545 22.8698 20.6788 22.9471C20.7039 23.0226 20.7446 23.0926 20.7986 23.1529C20.8495 23.2111 20.9131 23.258 20.9851 23.2901C21.0545 23.3212 21.1308 23.3358 21.2075 23.3326H21.7755C21.2023 23.148 20.8396 22.5272 20.6497 21.5992Z"
    fill="#B1B9E4"/>
  <path
    d="M14.5221 8.54115H40.4754C40.8766 8.53749 41.2746 8.60942 41.6466 8.75284C42.0186 8.89626 42.3574 9.10835 42.6435 9.37695C42.9295 9.64555 43.1573 9.9654 43.3137 10.3182C43.4702 10.6709 43.5522 11.0497 43.5551 11.4328V11.6485C43.552 12.0314 43.4698 12.41 43.3132 12.7626C43.1567 13.1152 42.9289 13.4348 42.6429 13.7033C42.3568 13.9717 42.0181 14.1836 41.6462 14.3269C41.2743 14.4703 40.8764 14.5421 40.4754 14.5385H14.5221C14.121 14.5421 13.7232 14.4703 13.3513 14.3269C12.9793 14.1836 12.6407 13.9717 12.3546 13.7033C12.0686 13.4348 11.8408 13.1152 11.6842 12.7626C11.5277 12.41 11.4455 12.0314 11.4424 11.6485V11.4361C11.4448 11.0527 11.5265 10.6736 11.6828 10.3204C11.839 9.96728 12.0667 9.64705 12.3528 9.3781C12.6389 9.10915 12.9778 8.89678 13.3501 8.75316C13.7223 8.60953 14.1206 8.53749 14.5221 8.54115Z"
    fill="#B8C3FD"/>
  <path
    d="M27.6332 21.8916C25.8692 21.8916 16.8543 21.7282 14.3529 16.752C14.1582 16.3368 14.0641 15.885 14.0774 15.4303V7.51499C14.0641 7.06027 14.1582 6.60852 14.3529 6.19332C16.9193 1.08146 26.4202 1.0929 27.5733 1.0929C28.7573 1.0929 38.1812 1.10597 40.7476 6.19332C40.9401 6.60894 41.0314 7.06083 41.0145 7.51499V15.4368C41.0287 15.8916 40.9345 16.3435 40.7391 16.7585C38.3078 21.6041 29.6829 21.8916 27.6332 21.8916Z"
    fill="#F2F4FA"/>
  <path
    d="M27.5722 19.2629C26.0974 19.2629 18.5555 19.1436 16.4665 15.4694C16.3058 15.166 16.227 14.8291 16.2372 14.4892V8.65852C16.2273 8.31869 16.3061 7.98184 16.4665 7.6783C18.6171 3.90607 26.561 3.92078 27.5226 3.92078C28.4841 3.92078 36.3938 3.92078 38.5325 7.6783C38.6941 7.98148 38.7735 8.31849 38.7635 8.65852V14.4843C38.7737 14.8244 38.6943 15.1614 38.5325 15.4645C36.4982 19.0456 29.2866 19.2596 27.5722 19.2629Z"
    fill="#FFFFFD"/>
  <path d="M34.3784 0.874032C34.1286 0.395357 33.5726 0.142132 32.9994 0H22.0956C21.5207 0.142132 20.9646 0.395357 20.7148 0.874032C19.7601 2.70052 23.206 7.89897 27.5466 7.89897C31.8873 7.89897 35.3348 2.70052 34.3784 0.874032Z" fill="#B8C3FD"/>
  <path
    d="M24.5695 9.90189H24.7406C24.8655 9.90103 24.9894 9.92367 25.1051 9.96853C25.2209 10.0134 25.3263 10.0796 25.4152 10.1633C25.5042 10.2471 25.575 10.3467 25.6237 10.4566C25.6723 10.5665 25.6978 10.6844 25.6987 10.8037V13.2167C25.6964 13.4573 25.5943 13.6872 25.4146 13.856C25.235 14.0248 24.9926 14.1186 24.7406 14.1169H24.5695C24.4446 14.1179 24.3208 14.0955 24.205 14.0508C24.0893 14.0061 23.9839 13.9401 23.8949 13.8565C23.8059 13.7729 23.735 13.6733 23.6864 13.5635C23.6377 13.4538 23.6122 13.3359 23.6113 13.2167V10.8037C23.612 10.6843 23.6373 10.5663 23.6859 10.4563C23.7345 10.3464 23.8053 10.2466 23.8943 10.1628C23.9833 10.079 24.0888 10.0129 24.2046 9.96809C24.3205 9.92331 24.4445 9.90082 24.5695 9.90189Z"
    fill="#231F20"/>
  <path
    d="M30.1417 9.90188H30.3128C30.4377 9.90102 30.5616 9.92366 30.6774 9.96852C30.7931 10.0134 30.8985 10.0796 30.9875 10.1633C31.0765 10.247 31.1473 10.3467 31.1959 10.4566C31.2446 10.5664 31.27 10.6844 31.2709 10.8037V13.2167C31.2687 13.4573 31.1665 13.6872 30.9869 13.856C30.8072 14.0248 30.5648 14.1186 30.3128 14.1168H30.1417C29.8897 14.1186 29.6473 14.0248 29.4677 13.856C29.288 13.6872 29.1859 13.4573 29.1836 13.2167V10.8037C29.1845 10.6844 29.21 10.5664 29.2586 10.4566C29.3073 10.3467 29.3781 10.247 29.467 10.1633C29.556 10.0796 29.6614 10.0134 29.7772 9.96852C29.8929 9.92366 30.0168 9.90102 30.1417 9.90188Z"
    fill="#231F20"/>
  <path
    d="M82.7382 17.66V12.62H65.4582V17.66H71.2182V32.96H65.4582V38H82.7382V32.96H76.9782V17.66H82.7382ZM107.977 12.62H85.621V17.66H93.937V38H99.697V17.66H107.977V12.62ZM110.502 38H128.61V32.96H116.262V27.812H126.81V22.772H116.262V17.66H128.61V12.62H110.502V38ZM130.04 25.292C130.04 32.708 135.008 38.36 143.072 38.36C150.164 38.36 154.844 34.472 155.6 28.172H149.84C149.264 31.52 146.6 33.32 143.144 33.32C138.716 33.32 135.8 30.548 135.8 25.292C135.8 20.072 138.716 17.3 143.144 17.3C146.6 17.3 149.264 19.064 149.84 22.412H155.6C154.844 16.148 150.164 12.26 143.072 12.26C135.008 12.26 130.04 17.912 130.04 25.292ZM177.346 12.62V23.132H164.602V12.62H158.842V38H164.602V28.172H177.346V38H183.106V12.62H177.346Z"
    fill="black"/>
</svg>