<svg width="187" height="55" viewBox="0 0 187 55" fill="none" xmlns="http://www.w3.org/2000/svg">
<path d="M28.4675 19.6334C18.2616 19.8663 13.5005 14.2881 14.2552 10.7964V8.48268C14.2552 5.62865 16.236 3.31489 18.679 3.31489H38.2561C40.6991 3.31489 42.6799 5.62865 42.6799 8.48268V10.7964C42.678 13.6505 42.678 19.307 28.4675 19.6334Z" fill="#F2F4FA"/>
<path d="M37.8534 4.33435H18.8987C17.9427 3.67 18.6024 1.86404 21.0975 1.88123C22.6442 1.88123 25.1654 1.88122 27.8673 1.85641H28.2736H28.4804H28.8829C31.5886 1.87359 34.1098 1.89077 35.6565 1.88123C38.1497 1.86404 38.815 3.67 37.8534 4.33435Z" fill="#F2F4FA"/>
<path d="M22.8735 0.0409164H22.0629C21.5411 0.0409164 21.1182 0.474253 21.1182 1.0088V3.08585C21.1182 3.6204 21.5411 4.05373 22.0629 4.05373H22.8735C23.3953 4.05373 23.8183 3.6204 23.8183 3.08585V1.0088C23.8183 0.474253 23.3953 0.0409164 22.8735 0.0409164Z" fill="#F2F4FA"/>
<path d="M34.4861 0.021801H34.1935C33.5287 0.021801 32.9897 0.573942 32.9897 1.25505V2.79947C32.9897 3.48057 33.5287 4.03271 34.1935 4.03271H34.4861C35.1509 4.03271 35.6899 3.48057 35.6899 2.79947V1.25505C35.6899 0.573942 35.1509 0.021801 34.4861 0.021801Z" fill="#F2F4FA"/>
<path d="M22.3351 17.3521H22.1245C21.648 17.3521 21.2617 17.7479 21.2617 18.236V19.5705C21.2617 20.0586 21.648 20.4543 22.1245 20.4543H22.3351C22.8115 20.4543 23.1978 20.0586 23.1978 19.5705V18.236C23.1978 17.7479 22.8115 17.3521 22.3351 17.3521Z" fill="#F2F4FA"/>
<path d="M34.6319 17.4838H34.4214C33.9449 17.4838 33.5586 17.8796 33.5586 18.3677V19.7022C33.5586 20.1903 33.9449 20.586 34.4214 20.586H34.6319C35.1084 20.586 35.4947 20.1903 35.4947 19.7022V18.3677C35.4947 17.8796 35.1084 17.4838 34.6319 17.4838Z" fill="#F2F4FA"/>
<path d="M28.4809 54.3685C31.7587 54.3685 34.4159 51.6463 34.4159 48.2882C34.4159 44.9302 31.7587 42.2079 28.4809 42.2079C25.2031 42.2079 22.5459 44.9302 22.5459 48.2882C22.5459 51.6463 25.2031 54.3685 28.4809 54.3685Z" fill="#F2F4FA"/>
<path d="M42.7805 40.5814C43.3284 40.5809 43.8542 40.8031 44.2423 41.1993C44.6304 41.5956 44.8493 42.1334 44.8508 42.6947C44.8508 44.5045 36.3796 51.526 28.6129 51.526C20.8461 51.526 11.6948 44.7336 11.6948 42.6947C11.6948 42.1322 11.9129 41.5927 12.3012 41.195C12.6894 40.7972 13.216 40.5738 13.7651 40.5738L42.7805 40.5814Z" fill="#F2F4FA"/>
<path d="M18.1928 25.1769L18.5844 25.6223L7.23083 36.099C6.28195 36.9746 5.03242 37.4282 3.75711 37.3599C2.48181 37.2917 1.2852 36.7072 0.430529 35.7351L0.0389361 35.2897L11.3925 24.813C12.3413 23.9374 13.5909 23.4838 14.8662 23.552C16.1415 23.6203 17.3381 24.2047 18.1928 25.1769Z" fill="#F2F4FA"/>
<path d="M16.2677 24.0892C11.5383 28.1708 6.61516 32.3459 2.39823 37.0898C1.5336 36.7978 0.654062 36.0341 0 35.2915L10.9178 25.2156C11.6315 24.5579 12.5034 24.107 13.4436 23.909C14.3839 23.711 15.3587 23.7732 16.2677 24.0892Z" fill="#B8C3FD"/>
<path d="M41.2992 19.4692C40.8133 19.18 40.2605 19.0298 39.6986 19.0345C39.1367 19.0392 38.5864 19.1986 38.1053 19.496C31.5833 23.526 25.3874 23.0945 17.7939 19.3604C14.1286 17.5583 7.89355 33.2526 7.89355 37.1012C8.32587 51.8009 48.6578 50.8368 48.6578 37.1012C48.656 37.1012 47.387 23.1212 41.2992 19.4692Z" fill="#F2F4FA"/>
<path d="M45.2218 10.2658C45.2219 10.3789 45.2003 10.4909 45.1581 10.5954C45.1159 10.6999 45.0539 10.7948 44.9758 10.8748C44.8983 10.9549 44.8059 11.0185 44.7042 11.0617C44.6025 11.105 44.4934 11.1271 44.3832 11.1268H43.936V11.2871C43.9365 11.3999 43.9153 11.5117 43.8736 11.6162C43.8319 11.7206 43.7706 11.8156 43.6931 11.8957C43.6155 11.9758 43.5234 12.0395 43.4218 12.0832C43.3203 12.1268 43.2113 12.1495 43.1012 12.15H42.7285V8.38919H43.1012C43.3241 8.38919 43.5379 8.4799 43.6955 8.64136C43.8531 8.80283 43.9416 9.02182 43.9416 9.25017V9.40862H44.3888C44.6096 9.41112 44.8206 9.50235 44.9764 9.66267C45.1322 9.82299 45.2203 10.0396 45.2218 10.2658Z" fill="#F2F4FA"/>
<path d="M11.7393 10.2658C11.7391 10.3789 11.7608 10.4909 11.803 10.5954C11.8452 10.6999 11.9071 10.7948 11.9852 10.8748C12.0628 10.9549 12.1551 11.0184 12.2568 11.0617C12.3585 11.105 12.4677 11.1271 12.5778 11.1268H13.025V11.2871C13.025 11.4001 13.0468 11.512 13.089 11.6163C13.1313 11.7207 13.1932 11.8155 13.2713 11.8953C13.3493 11.9751 13.442 12.0383 13.544 12.0814C13.6459 12.1244 13.7551 12.1464 13.8654 12.1462H14.2381V8.38537H13.8654C13.6425 8.38537 13.4288 8.47608 13.2712 8.63754C13.1136 8.79901 13.025 9.018 13.025 9.24635V9.4048H12.5778C12.3554 9.40581 12.1424 9.4969 11.9853 9.65821C11.8282 9.81951 11.7397 10.0379 11.7393 10.2658Z" fill="#F2F4FA"/>
<path d="M56.1803 13.7535L56.6577 14.1L47.8258 26.8744C47.0877 27.942 45.9658 28.6655 44.707 28.8857C43.4482 29.1059 42.1556 28.8048 41.1134 28.0486L40.636 27.7021L49.4679 14.9277C50.206 13.8601 51.3279 13.1366 52.5867 12.9164C53.8455 12.6962 55.1382 12.9973 56.1803 13.7535Z" fill="#F2F4FA"/>
<path d="M28.4115 19.6506C26.6563 19.7008 24.9012 19.549 23.179 19.1982V19.4807C23.1847 19.6146 23.1639 19.7483 23.1179 19.8738C23.0718 19.9992 23.0014 20.1138 22.911 20.2106C22.8205 20.3075 22.7119 20.3845 22.5916 20.4372C22.4712 20.4898 22.3418 20.517 22.2109 20.517C22.0801 20.517 21.9507 20.4898 21.8303 20.4372C21.71 20.3845 21.6014 20.3075 21.5109 20.2106C21.4205 20.1138 21.3501 19.9992 21.304 19.8738C21.258 19.7483 21.2372 19.6146 21.2429 19.4807V18.6808C16.9086 17.251 14.5607 14.5019 14.2085 12.1653H13.901C13.6755 12.1683 13.458 12.0796 13.2962 11.9185C13.1344 11.7575 13.0417 11.5372 13.0382 11.3062V11.1458H12.5817C12.3547 11.147 12.1365 11.0564 11.9742 10.8938C11.8943 10.815 11.8309 10.7204 11.7876 10.6157C11.7444 10.511 11.7223 10.3985 11.7227 10.2849C11.7256 10.0541 11.8177 9.834 11.9787 9.67264C12.1397 9.51128 12.3565 9.42183 12.5817 9.42387H13.0382V9.26733C13.0395 9.15268 13.0628 9.03941 13.1068 8.93402C13.1509 8.82863 13.2148 8.73319 13.295 8.65319C13.3752 8.57319 13.47 8.5102 13.574 8.46784C13.678 8.42548 13.7891 8.40458 13.901 8.40635H14.2401C14.2811 5.66304 16.1502 3.44282 18.4869 3.33782C18.6341 2.62956 19.4782 1.89076 21.0789 1.8984H21.0994V1.44214C21.1124 1.08421 21.2603 0.74537 21.5121 0.496847C21.7639 0.248324 22.0999 0.10947 22.4495 0.10947C22.7991 0.10947 23.1351 0.248324 23.3869 0.496847C23.6386 0.74537 23.7865 1.08421 23.7995 1.44214V1.8984C25.0182 1.8984 26.4083 1.88313 27.8506 1.87549H28.8662C30.7836 1.88885 31.5383 1.89649 32.9899 1.8984C33.0384 3.04383 20.6298 9.23106 18.9639 11.1955C16.5657 14.0228 22.8324 18.1692 28.4115 19.6506Z" fill="#B8C3FD"/>
<path d="M37.2274 14.458L19.5789 14.6814C17.4713 14.7081 16.5005 12.1996 17.4583 10.1302C19.0478 6.69395 18.8503 4.70663 21.9305 4.72954L35.6528 4.83262C37.982 4.8498 38.0044 6.68249 39.443 10.1608C40.2647 12.1366 39.1877 14.4409 37.2274 14.458Z" fill="#FFFFFD"/>
<path d="M32.638 39.8904C29.7285 38.5006 26.8185 38.5006 23.9078 39.8904C22.6314 39.8904 21.5972 38.8862 21.5972 37.6454V29.1558C21.5972 27.9149 22.6314 26.9108 23.9078 26.9108H32.638C33.9144 26.9108 34.9486 27.9149 34.9486 29.1558V37.6454C34.9486 38.8862 33.9144 39.8904 32.638 39.8904Z" fill="#F1F3FF" stroke="#C7C9F4" stroke-width="5" stroke-miterlimit="10"/>
<path d="M26.5464 11.5945C26.5464 12.4173 27.3887 13.0836 28.4284 13.0836C29.4682 13.0836 30.3086 12.4173 30.3086 11.5945C30.3064 11.5496 30.2918 11.5062 30.2666 11.4694C30.2413 11.4325 30.2064 11.4038 30.1659 11.3864C30.1254 11.3691 30.0809 11.3638 30.0376 11.3712C29.9942 11.3787 29.9538 11.3985 29.921 11.4284C28.9707 12.2417 26.9489 11.7129 26.6377 11.564C26.5725 11.5258 26.5464 11.5773 26.5464 11.5945Z" fill="#F6A8B1"/>
<path d="M32.6527 9.7561C33.1251 9.7561 33.508 9.37746 33.508 8.91039C33.508 8.44331 33.1251 8.06468 32.6527 8.06468C32.1803 8.06468 31.7974 8.44331 31.7974 8.91039C31.7974 9.37746 32.1803 9.7561 32.6527 9.7561Z" fill="#231F20"/>
<path d="M24.992 9.89299C25.4644 9.89299 25.8473 9.51436 25.8473 9.04728C25.8473 8.58021 25.4644 8.20158 24.992 8.20158C24.5197 8.20158 24.1367 8.58021 24.1367 9.04728C24.1367 9.51436 24.5197 9.89299 24.992 9.89299Z" fill="#231F20"/>
<path d="M25.0036 8.12772C25.2411 8.14345 25.463 8.25452 25.621 8.4368C25.779 8.61908 25.8605 8.85787 25.8478 9.10133C25.3092 8.33771 24.7483 8.31289 24.1595 9.10133C24.1467 8.85787 24.2282 8.61908 24.3863 8.4368C24.5443 8.25452 24.7662 8.14345 25.0036 8.12772Z" fill="black"/>
<path d="M32.6528 8.00552C32.8904 8.02076 33.1126 8.13169 33.2707 8.31408C33.4288 8.49648 33.5102 8.73555 33.4969 8.97913C32.9565 8.21551 32.3956 8.19069 31.8086 8.97913C31.7949 8.73543 31.876 8.49608 32.0343 8.31356C32.1925 8.13105 32.4149 8.02027 32.6528 8.00552Z" fill="black"/>
<path d="M36.2471 5.52554H34.3036C34.1677 5.52554 34.0576 5.63836 34.0576 5.77753V5.84053C34.0576 5.9797 34.1677 6.09252 34.3036 6.09252H36.2471C36.383 6.09252 36.4931 5.9797 36.4931 5.84053V5.77753C36.4931 5.63836 36.383 5.52554 36.2471 5.52554Z" fill="#DCE1FE"/>
<path d="M28.1823 5.35761H21.0883C20.9524 5.35761 20.8423 5.47044 20.8423 5.60961V5.67261C20.8423 5.81178 20.9524 5.9246 21.0883 5.9246H28.1823C28.3182 5.9246 28.4283 5.81178 28.4283 5.67261V5.60961C28.4283 5.47044 28.3182 5.35761 28.1823 5.35761Z" fill="#DCE1FE"/>
<path d="M33.9757 13.4519H31.8607C31.7249 13.4519 31.6147 13.5648 31.6147 13.7039V13.7669C31.6147 13.9061 31.7249 14.0189 31.8607 14.0189H33.9757C34.1116 14.0189 34.2217 13.9061 34.2217 13.7669V13.7039C34.2217 13.5648 34.1116 13.4519 33.9757 13.4519Z" fill="#DCE1FE"/>
<path d="M33.3775 5.52554H32.8036C32.6677 5.52554 32.5576 5.63836 32.5576 5.77753V5.84053C32.5576 5.9797 32.6677 6.09252 32.8036 6.09252H33.3775C33.5134 6.09252 33.6235 5.9797 33.6235 5.84053V5.77753C33.6235 5.63836 33.5134 5.52554 33.3775 5.52554Z" fill="#DCE1FE"/>
<path d="M22.7596 29.0431H22.6981C22.5623 29.0431 22.4521 29.1559 22.4521 29.2951V32.3038C22.4521 32.443 22.5623 32.5558 22.6981 32.5558H22.7596C22.8955 32.5558 23.0056 32.443 23.0056 32.3038V29.2951C23.0056 29.1559 22.8955 29.0431 22.7596 29.0431Z" fill="#DCE1FE"/>
<path d="M22.7596 32.9757H22.6981C22.5623 32.9757 22.4521 33.0886 22.4521 33.2277V34.2682C22.4521 34.4073 22.5623 34.5202 22.6981 34.5202H22.7596C22.8955 34.5202 23.0056 34.4073 23.0056 34.2682V33.2277C23.0056 33.0886 22.8955 32.9757 22.7596 32.9757Z" fill="#DCE1FE"/>
<path d="M33.5252 34.7322H33.4637C33.3279 34.7322 33.2178 34.845 33.2178 34.9842V37.9928C33.2178 38.132 33.3279 38.2448 33.4637 38.2448H33.5252C33.6611 38.2448 33.7712 38.132 33.7712 37.9928V34.9842C33.7712 34.845 33.6611 34.7322 33.5252 34.7322Z" fill="#DCE1FE"/>
<path d="M33.5252 32.6875H33.4637C33.3279 32.6875 33.2178 32.8003 33.2178 32.9395V33.9799C33.2178 34.1191 33.3279 34.2319 33.4637 34.2319H33.5252C33.6611 34.2319 33.7712 34.1191 33.7712 33.9799V32.9395C33.7712 32.8003 33.6611 32.6875 33.5252 32.6875Z" fill="#DCE1FE"/>
<path d="M39.2194 11.2413C39.4058 12.4249 38.8877 13.3565 37.848 13.7689C37.6355 13.8529 37.4194 13.5016 37.6355 13.4023C38.489 13.0091 38.9194 12.2836 38.8468 11.163C38.83 10.8938 39.1766 10.974 39.2194 11.2413Z" fill="#DCE1FE"/>
<path d="M39.1696 10.4897L38.9565 9.76592C38.9304 9.67709 38.8389 9.62679 38.7522 9.65358L38.7147 9.66515C38.628 9.69194 38.5789 9.78567 38.6051 9.8745L38.8181 10.5983C38.8442 10.6871 38.9357 10.7374 39.0224 10.7106L39.0599 10.6991C39.1466 10.6723 39.1957 10.5785 39.1696 10.4897Z" fill="#DCE1FE"/>
<path d="M7.90137 37.0899C7.90137 33.2393 14.1382 17.545 17.8036 19.3491C19.7024 20.3036 22.0205 21.2009 22.8665 21.4089C23.2653 21.5082 18.5993 21.6361 14.9768 25.3187C10.9499 29.4098 7.90137 37.0899 7.90137 37.0899Z" fill="#B8C3FD"/>
<path opacity="0.46" d="M29.0792 4.78306L21.9329 4.72961C18.8508 4.7067 19.0484 6.6902 17.4607 10.1303C16.5029 12.2016 17.4738 14.712 19.5813 14.6815L24.8697 14.6147C20.349 13.2401 18.7689 6.05258 29.0792 4.78306Z" fill="#B1B9E4"/>
<path d="M54.4965 12.675C52.5436 11.9763 50.7808 12.8354 49.5863 14.5631L41.2568 26.613L41.4059 26.7161C42.3339 27.3442 51.1144 12.0985 54.4965 12.675Z" fill="#B8C3FD"/>
<path d="M42.729 12.15V8.3892C42.729 8.3892 43.7353 8.22503 43.8936 9.03255C43.9346 9.24255 43.9384 8.5992 43.3924 8.90847C42.7793 9.24828 42.729 12.15 42.729 12.15Z" fill="#B8C3FD"/>
<path d="M43.9365 9.40485V11.123C44.0496 10.6765 44.1312 10.2222 44.1806 9.76375C44.1955 9.44685 44.0949 9.41821 43.9365 9.40485Z" fill="#B8C3FD"/>
<path d="M30.8887 19.517C35.9945 19.3261 40.8841 17.3636 41.9351 14.7444C39.7474 16.7794 35.2864 19.0608 30.8887 19.517Z" fill="#B8C3FD"/>
<path d="M34.8725 0.0084694C33.7545 0.0924675 33.2234 0.814088 33.0259 1.89079C32.9271 1.91943 32.7277 0.0409232 33.8067 0.0084694C34.457 -0.0106211 34.8725 0.0084694 34.8725 0.0084694Z" fill="#B8C3FD"/>
<path d="M35.4952 18.8508V19.9561C35.5006 20.039 35.4888 20.1222 35.4604 20.2001C35.4321 20.2779 35.3879 20.3487 35.3308 20.4078C35.2737 20.4668 35.205 20.5127 35.1293 20.5425C35.0535 20.5722 34.9725 20.5852 34.8915 20.5804H34.2803C34.9027 20.399 35.2884 19.7862 35.4952 18.8508Z" fill="#B8C3FD"/>
<path d="M14.2389 12.1501V8.38925C14.2389 8.38925 13.2327 8.22508 13.0743 9.03069C13.0333 9.24069 13.0296 8.59925 13.5756 8.90852C14.183 9.25596 14.2389 12.1501 14.2389 12.1501Z" fill="#B1B9E4"/>
<path d="M13.0258 9.4125V11.1306C12.9118 10.6837 12.8303 10.2287 12.7817 9.76949C12.7668 9.4545 12.8674 9.42586 13.0258 9.4125Z" fill="#B1B9E4"/>
<path d="M21.2621 18.6503V19.7958C21.2555 19.8799 21.2664 19.9646 21.2939 20.0442C21.3213 20.1239 21.3649 20.1967 21.4217 20.2579C21.4785 20.3191 21.5472 20.3674 21.6234 20.3996C21.6996 20.4318 21.7816 20.4472 21.864 20.4448H22.4771C21.8584 20.2616 21.4671 19.6163 21.2621 18.6503Z" fill="#B1B9E4"/>
<path d="M22.8741 0.0409744C21.7951 0.124973 21.2883 0.84659 21.1001 1.92329C21.0032 1.95193 20.8131 0.0734283 21.8455 0.0409744C22.4734 0.021884 22.8741 0.0409744 22.8741 0.0409744Z" fill="#B1B9E4"/>
<path d="M22.9502 50.4417C24.0366 53.6737 27.8454 55.2869 30.825 53.8264C27.6591 53.7864 24.9124 52.9025 22.9502 50.4417Z" fill="#B1B9E4"/>
<path d="M32.8359 50.919C26.4779 53.059 15.8788 49.3325 12.5488 44.2239C20.5317 50.6765 32.9179 51.1041 32.8359 50.919Z" fill="#B1B9E4"/>
<path d="M2.34814 37.0632C2.34814 37.0632 5.19359 38.0616 7.19305 36.0819C5.69337 36.8487 4.01982 37.1877 2.34814 37.0632Z" fill="#B8C3FD"/>
<path d="M31.0321 33.754H28.5693V36.3015H31.0321V33.754Z" fill="#FCB614"/>
<path d="M28.5741 33.754H26.1113V36.3015H28.5741V33.754Z" fill="#EF4E63"/>
<path d="M28.5741 31.2066H26.1113V33.7541H28.5741V31.2066Z" fill="#63CCF5"/>
<path d="M83.7377 20.66V15.62H66.4577V20.66H72.2177V35.96H66.4577V41H83.7377V35.96H77.9777V20.66H83.7377ZM108.977 15.62H86.6205V20.66H94.9365V41H100.697V20.66H108.977V15.62ZM111.501 41H129.609V35.96H117.261V30.812H127.809V25.772H117.261V20.66H129.609V15.62H111.501V41ZM131.04 28.292C131.04 35.708 136.008 41.36 144.072 41.36C151.164 41.36 155.844 37.472 156.6 31.172H150.84C150.264 34.52 147.6 36.32 144.144 36.32C139.716 36.32 136.8 33.548 136.8 28.292C136.8 23.072 139.716 20.3 144.144 20.3C147.6 20.3 150.264 22.064 150.84 25.412H156.6C155.844 19.148 151.164 15.26 144.072 15.26C136.008 15.26 131.04 20.912 131.04 28.292ZM178.345 15.62V26.132H165.601V15.62H159.841V41H165.601V31.172H178.345V41H184.105V15.62H178.345Z" fill="black"/>
</svg>
