<svg width="144" height="37" viewBox="0 0 144 37" fill="none" xmlns="http://www.w3.org/2000/svg">
<path d="M17.5853 12.1283C11.2806 12.2722 8.33946 8.82629 8.80567 6.66935V5.24003C8.80567 3.47697 10.0293 2.04765 11.5384 2.04765H23.6321C25.1412 2.04765 26.3649 3.47697 26.3649 5.24003V6.66935C26.3637 8.43241 26.3637 11.9267 17.5853 12.1283Z" fill="#F2F4FA"/>
<path d="M23.3839 2.67742H11.6747C11.0841 2.26702 11.4916 1.1514 13.033 1.16201C13.9884 1.16201 15.5459 1.16201 17.215 1.14668H17.4659H17.5937H17.8424C19.5138 1.1573 21.0713 1.16791 22.0267 1.16201C23.5669 1.1514 23.9778 2.26702 23.3839 2.67742Z" fill="#F2F4FA"/>
<path d="M14.1298 0.0253296H13.629C13.3067 0.0253296 13.0454 0.293021 13.0454 0.623236V1.90632C13.0454 2.23653 13.3067 2.50423 13.629 2.50423H14.1298C14.4521 2.50423 14.7134 2.23653 14.7134 1.90632V0.623236C14.7134 0.293021 14.4521 0.0253296 14.1298 0.0253296Z" fill="#F2F4FA"/>
<path d="M21.3037 0.0133362H21.123C20.7123 0.0133362 20.3794 0.354418 20.3794 0.775166V1.72922C20.3794 2.14997 20.7123 2.49105 21.123 2.49105H21.3037C21.7144 2.49105 22.0474 2.14997 22.0474 1.72922V0.775166C22.0474 0.354418 21.7144 0.0133362 21.3037 0.0133362Z" fill="#F2F4FA"/>
<path d="M13.7973 10.7191H13.6672C13.3729 10.7191 13.1343 10.9636 13.1343 11.2651V12.0895C13.1343 12.391 13.3729 12.6355 13.6672 12.6355H13.7973C14.0917 12.6355 14.3303 12.391 14.3303 12.0895V11.2651C14.3303 10.9636 14.0917 10.7191 13.7973 10.7191Z" fill="#F2F4FA"/>
<path d="M21.394 10.8005H21.2639C20.9696 10.8005 20.731 11.045 20.731 11.3465V12.1709C20.731 12.4724 20.9696 12.7169 21.2639 12.7169H21.394C21.6884 12.7169 21.927 12.4724 21.927 12.1709V11.3465C21.927 11.045 21.6884 10.8005 21.394 10.8005Z" fill="#F2F4FA"/>
<path d="M17.5936 33.5858C19.6184 33.5858 21.2599 31.9042 21.2599 29.8298C21.2599 27.7553 19.6184 26.0737 17.5936 26.0737C15.5687 26.0737 13.9272 27.7553 13.9272 29.8298C13.9272 31.9042 15.5687 33.5858 17.5936 33.5858Z" fill="#F2F4FA"/>
<path d="M26.4276 25.0688C26.7661 25.0685 27.0909 25.2058 27.3306 25.4506C27.5704 25.6953 27.7056 26.0276 27.7065 26.3743C27.7065 27.4923 22.4735 31.8298 17.6756 31.8298C12.8778 31.8298 7.22461 27.6338 7.22461 26.3743C7.22461 26.0268 7.35935 25.6936 7.59919 25.4479C7.83903 25.2022 8.16432 25.0641 8.50351 25.0641L26.4276 25.0688Z" fill="#F2F4FA"/>
<path d="M11.2383 15.5529L11.4802 15.828L4.4666 22.2999C3.88043 22.8408 3.10854 23.121 2.32073 23.0789C1.53292 23.0367 0.793719 22.6757 0.26575 22.0751L0.0238454 21.8L7.03743 15.3281C7.62359 14.7872 8.39548 14.507 9.18329 14.5491C9.9711 14.5913 10.7103 14.9523 11.2383 15.5529Z" fill="#F2F4FA"/>
<path d="M10.0493 14.8809C7.12774 17.4022 4.08648 19.9814 1.48149 22.9119C0.947372 22.7315 0.404043 22.2598 0 21.801L6.74442 15.5767C7.18532 15.1704 7.72388 14.8918 8.30473 14.7695C8.88558 14.6473 9.48774 14.6857 10.0493 14.8809Z" fill="#B8C3FD"/>
<path d="M25.5121 12.0269C25.212 11.8482 24.8705 11.7554 24.5234 11.7583C24.1763 11.7612 23.8363 11.8597 23.5391 12.0434C19.5102 14.5329 15.6827 14.2664 10.9919 11.9596C8.72763 10.8464 4.87598 20.5414 4.87598 22.9189C5.14304 31.9996 30.0579 31.404 30.0579 22.9189C30.0567 22.9189 29.2728 14.2829 25.5121 12.0269Z" fill="#F2F4FA"/>
<path d="M27.9357 6.34158C27.9358 6.41145 27.9224 6.48065 27.8963 6.5452C27.8703 6.60976 27.832 6.66841 27.7838 6.71778C27.7359 6.76729 27.6788 6.80654 27.616 6.83326C27.5531 6.85999 27.4857 6.87365 27.4177 6.87345H27.1414V6.97251C27.1417 7.0422 27.1286 7.11127 27.1029 7.17578C27.0771 7.24028 27.0392 7.29896 26.9913 7.34845C26.9435 7.39795 26.8865 7.4373 26.8238 7.46426C26.7611 7.49121 26.6938 7.50525 26.6257 7.50556H26.3955V5.18233H26.6257C26.7634 5.18233 26.8955 5.23836 26.9928 5.33811C27.0902 5.43785 27.1449 5.57313 27.1449 5.71419V5.81208H27.4212C27.5576 5.81362 27.6879 5.86998 27.7841 5.96901C27.8804 6.06805 27.9348 6.20184 27.9357 6.34158Z" fill="#F2F4FA"/>
<path d="M7.25147 6.34155C7.25137 6.41141 7.26475 6.48061 7.29082 6.54517C7.3169 6.60972 7.35516 6.66837 7.40341 6.71775C7.45131 6.76725 7.50834 6.8065 7.57119 6.83323C7.63403 6.85995 7.70143 6.87361 7.76947 6.87341H8.04574V6.97247C8.04574 7.04226 8.05917 7.11137 8.08528 7.17583C8.11138 7.2403 8.14964 7.29885 8.19786 7.34814C8.24609 7.39744 8.30333 7.4365 8.36631 7.4631C8.42929 7.4897 8.49677 7.50332 8.56489 7.50316H8.79511V5.17993H8.56489C8.4272 5.17993 8.29516 5.23597 8.1978 5.33571C8.10043 5.43546 8.04574 5.57074 8.04574 5.7118V5.80968H7.76947C7.63207 5.8103 7.5005 5.86658 7.40345 5.96622C7.3064 6.06586 7.25177 6.20079 7.25147 6.34155Z" fill="#F2F4FA"/>
<path d="M34.7051 8.49602L35.0001 8.71005L29.5442 16.6014C29.0883 17.2609 28.3952 17.7078 27.6176 17.8439C26.84 17.9799 26.0414 17.7939 25.3977 17.3267L25.1027 17.1127L30.5586 9.22139C31.0145 8.56187 31.7076 8.11493 32.4852 7.9789C33.2628 7.84286 34.0614 8.02888 34.7051 8.49602Z" fill="#F2F4FA"/>
<path d="M17.5511 12.139C16.4669 12.1699 15.3826 12.0762 14.3188 11.8595V12.034C14.3223 12.1167 14.3095 12.1993 14.281 12.2768C14.2526 12.3543 14.2091 12.4251 14.1532 12.4849C14.0973 12.5447 14.0302 12.5923 13.9559 12.6249C13.8816 12.6574 13.8016 12.6742 13.7208 12.6742C13.64 12.6742 13.56 12.6574 13.4857 12.6249C13.4113 12.5923 13.3442 12.5447 13.2883 12.4849C13.2325 12.4251 13.189 12.3543 13.1605 12.2768C13.1321 12.1993 13.1192 12.1167 13.1228 12.034V11.5399C10.4453 10.6566 8.99486 8.9584 8.7773 7.51493H8.58736C8.44803 7.51683 8.31367 7.46201 8.21375 7.36252C8.11383 7.26302 8.05652 7.12698 8.0544 6.98425V6.88519H7.77237C7.63216 6.88589 7.49734 6.82996 7.3971 6.72952C7.34776 6.6808 7.30855 6.62236 7.28184 6.5577C7.25513 6.49305 7.24148 6.42352 7.2417 6.35332C7.24352 6.21079 7.30039 6.07481 7.39984 5.97513C7.49929 5.87545 7.63324 5.82019 7.77237 5.82145H8.0544V5.72475C8.05515 5.65393 8.06954 5.58396 8.09676 5.51885C8.12398 5.45374 8.16349 5.39479 8.21301 5.34537C8.26254 5.29595 8.3211 5.25704 8.38534 5.23087C8.44958 5.2047 8.51824 5.19179 8.58736 5.19288H8.79687C8.82219 3.49822 9.97677 2.12669 11.4203 2.06183C11.5112 1.62431 12.0327 1.16792 13.0215 1.17264H13.0341V0.890783C13.0422 0.669674 13.1335 0.460359 13.2891 0.306835C13.4446 0.153312 13.6522 0.0675354 13.8681 0.0675354C14.0841 0.0675354 14.2917 0.153312 14.4472 0.306835C14.6027 0.460359 14.6941 0.669674 14.7021 0.890783V1.17264C15.4549 1.17264 16.3137 1.1632 17.2047 1.15848H17.832C19.0165 1.16674 19.4827 1.17146 20.3794 1.17264C20.4094 1.88022 12.7441 5.70234 11.715 6.91585C10.2335 8.6624 14.1047 11.2238 17.5511 12.139Z" fill="#B8C3FD"/>
<path d="M22.9969 8.93127L12.0946 9.06925C10.7927 9.08576 10.193 7.53615 10.7847 6.25779C11.7666 4.13504 11.6445 2.90739 13.5473 2.92154L22.0242 2.98522C23.4631 2.99583 23.4769 4.12797 24.3656 6.27666C24.8732 7.49724 24.2079 8.92066 22.9969 8.93127Z" fill="#FFFFFD"/>
<path d="M20.1617 24.642C18.3644 23.7834 16.5667 23.7834 14.7687 24.642C13.9802 24.642 13.3413 24.0216 13.3413 23.2551V18.0107C13.3413 17.2442 13.9802 16.6239 14.7687 16.6239H20.1617C20.9502 16.6239 21.5891 17.2442 21.5891 18.0107V23.2551C21.5891 24.0216 20.9502 24.642 20.1617 24.642Z" fill="#F1F3FF" stroke="#C7C9F4" stroke-width="5" stroke-miterlimit="10"/>
<path d="M16.3989 7.16257C16.3989 7.67085 16.9192 8.08243 17.5616 8.08243C18.2039 8.08243 18.723 7.67085 18.723 7.16257C18.7217 7.1348 18.7127 7.108 18.6971 7.08526C18.6814 7.06252 18.6599 7.04476 18.6349 7.03403C18.6098 7.0233 18.5823 7.02005 18.5556 7.02464C18.5288 7.02923 18.5039 7.04148 18.4836 7.05997C17.8965 7.56235 16.6476 7.23568 16.4553 7.1437C16.415 7.12011 16.3989 7.15195 16.3989 7.16257Z" fill="#F6A8B1"/>
<path d="M20.1714 6.02686C20.4632 6.02686 20.6998 5.79296 20.6998 5.50443C20.6998 5.21589 20.4632 4.98199 20.1714 4.98199C19.8796 4.98199 19.6431 5.21589 19.6431 5.50443C19.6431 5.79296 19.8796 6.02686 20.1714 6.02686Z" fill="#F9F7F2"/>
<path d="M15.439 6.11145C15.7308 6.11145 15.9674 5.87755 15.9674 5.58902C15.9674 5.30049 15.7308 5.06659 15.439 5.06659C15.1472 5.06659 14.9106 5.30049 14.9106 5.58902C14.9106 5.87755 15.1472 6.11145 15.439 6.11145Z" fill="#F9F7F2"/>
<path d="M15.4461 5.02109C15.5928 5.03081 15.7298 5.09942 15.8275 5.21202C15.9251 5.32463 15.9754 5.47214 15.9675 5.62253C15.6349 5.15081 15.2884 5.13548 14.9246 5.62253C14.9167 5.47214 14.9671 5.32463 15.0647 5.21202C15.1623 5.09942 15.2994 5.03081 15.4461 5.02109Z" fill="#F9F7F2"/>
<path d="M20.1713 4.9455C20.3181 4.95491 20.4554 5.02344 20.553 5.13611C20.6507 5.24879 20.701 5.39647 20.6928 5.54694C20.3589 5.07522 20.0125 5.05989 19.6499 5.54694C19.6414 5.39639 19.6915 5.24854 19.7892 5.13579C19.887 5.02304 20.0244 4.95461 20.1713 4.9455Z" fill="#F9F7F2"/>
<path d="M22.3911 3.41356H21.1905C21.1066 3.41356 21.0386 3.48325 21.0386 3.56923V3.60814C21.0386 3.69412 21.1066 3.76381 21.1905 3.76381H22.3911C22.4751 3.76381 22.5431 3.69412 22.5431 3.60814V3.56923C22.5431 3.48325 22.4751 3.41356 22.3911 3.41356Z" fill="#DCE1FE"/>
<path d="M17.4093 3.30966H13.0269C12.943 3.30966 12.875 3.37936 12.875 3.46533V3.50425C12.875 3.59022 12.943 3.65992 13.0269 3.65992H17.4093C17.4932 3.65992 17.5612 3.59022 17.5612 3.50425V3.46533C17.5612 3.37936 17.4932 3.30966 17.4093 3.30966Z" fill="#DCE1FE"/>
<path d="M20.9883 8.30995H19.6817C19.5978 8.30995 19.5298 8.37965 19.5298 8.46562V8.50454C19.5298 8.59051 19.5978 8.6602 19.6817 8.6602H20.9883C21.0722 8.6602 21.1402 8.59051 21.1402 8.50454V8.46562C21.1402 8.37965 21.0722 8.30995 20.9883 8.30995Z" fill="#DCE1FE"/>
<path d="M20.6188 3.41356H20.2642C20.1803 3.41356 20.1123 3.48325 20.1123 3.56923V3.60814C20.1123 3.69412 20.1803 3.76381 20.2642 3.76381H20.6188C20.7027 3.76381 20.7707 3.69412 20.7707 3.60814V3.56923C20.7707 3.48325 20.7027 3.41356 20.6188 3.41356Z" fill="#DCE1FE"/>
<path d="M14.0596 17.9414H14.0216C13.9377 17.9414 13.8696 18.0111 13.8696 18.097V19.9556C13.8696 20.0416 13.9377 20.1113 14.0216 20.1113H14.0596C14.1435 20.1113 14.2115 20.0416 14.2115 19.9556V18.097C14.2115 18.0111 14.1435 17.9414 14.0596 17.9414Z" fill="#DCE1FE"/>
<path d="M14.0596 20.3707H14.0216C13.9377 20.3707 13.8696 20.4404 13.8696 20.5263V21.1691C13.8696 21.255 13.9377 21.3247 14.0216 21.3247H14.0596C14.1435 21.3247 14.2115 21.255 14.2115 21.1691V20.5263C14.2115 20.4404 14.1435 20.3707 14.0596 20.3707Z" fill="#DCE1FE"/>
<path d="M20.71 21.4556H20.672C20.588 21.4556 20.52 21.5253 20.52 21.6113V23.4699C20.52 23.5559 20.588 23.6255 20.672 23.6255H20.71C20.7939 23.6255 20.8619 23.5559 20.8619 23.4699V21.6113C20.8619 21.5253 20.7939 21.4556 20.71 21.4556Z" fill="#DCE1FE"/>
<path d="M20.71 20.1927H20.672C20.588 20.1927 20.52 20.2624 20.52 20.3483V20.9911C20.52 21.077 20.588 21.1467 20.672 21.1467H20.71C20.7939 21.1467 20.8619 21.077 20.8619 20.9911V20.3483C20.8619 20.2624 20.7939 20.1927 20.71 20.1927Z" fill="#DCE1FE"/>
<path d="M24.2277 6.94453C24.3428 7.6757 24.0228 8.2512 23.3804 8.50593C23.2492 8.55781 23.1157 8.34082 23.2492 8.2795C23.7764 8.03656 24.0423 7.58843 23.9974 6.89618C23.9871 6.72989 24.2012 6.77943 24.2277 6.94453Z" fill="#DCE1FE"/>
<path d="M24.1965 6.48013L24.0649 6.03302C24.0487 5.97814 23.9922 5.94707 23.9387 5.96362L23.9155 5.97077C23.862 5.98731 23.8316 6.04521 23.8478 6.10009L23.9794 6.5472C23.9955 6.60208 24.052 6.63315 24.1056 6.6166L24.1288 6.60945C24.1823 6.59291 24.2126 6.53501 24.1965 6.48013Z" fill="#DCE1FE"/>
<path d="M4.88135 22.912C4.88135 20.5334 8.73415 10.8383 10.9984 11.9528C12.1714 12.5424 13.6034 13.0967 14.126 13.2252C14.3723 13.2865 11.4899 13.3656 9.25215 15.6404C6.76458 18.1677 4.88135 22.912 4.88135 22.912Z" fill="#B8C3FD"/>
<path opacity="0.46" d="M17.9638 2.95482L13.5493 2.9218C11.6453 2.90765 11.7674 4.13294 10.7866 6.25805C10.1949 7.53759 10.7947 9.08838 12.0966 9.06951L15.3635 9.02823C12.5709 8.17914 11.5947 3.73906 17.9638 2.95482Z" fill="#B1B9E4"/>
<path d="M33.665 7.82989C32.4587 7.39826 31.3697 7.92895 30.6318 8.99622L25.4863 16.44L25.5784 16.5037C26.1517 16.8917 31.5758 7.47374 33.665 7.82989Z" fill="#B8C3FD"/>
<path d="M26.396 7.5057V5.18247C26.396 5.18247 27.0176 5.08105 27.1154 5.5799C27.1408 5.70962 27.1431 5.31219 26.8058 5.50324C26.4271 5.71316 26.396 7.5057 26.396 7.5057Z" fill="#B8C3FD"/>
<path d="M27.1421 5.80977V6.87114C27.212 6.59532 27.2624 6.31471 27.2929 6.03148C27.3021 5.83571 27.2399 5.81802 27.1421 5.80977Z" fill="#B8C3FD"/>
<path d="M19.0815 12.0565C22.2356 11.9386 25.2562 10.7262 25.9054 9.10823C24.554 10.3654 21.7982 11.7746 19.0815 12.0565Z" fill="#B8C3FD"/>
<path d="M21.5427 0.00524135C20.852 0.0571307 20.524 0.502908 20.4019 1.16804C20.3409 1.18572 20.2178 0.0252895 20.8843 0.00524135C21.286 -0.00655169 21.5427 0.00524135 21.5427 0.00524135Z" fill="#B8C3FD"/>
<path d="M21.9273 11.6449V12.3277C21.9306 12.379 21.9233 12.4303 21.9058 12.4784C21.8883 12.5265 21.861 12.5703 21.8257 12.6068C21.7904 12.6432 21.748 12.6716 21.7012 12.69C21.6544 12.7084 21.6044 12.7163 21.5543 12.7134H21.1768C21.5612 12.6013 21.7995 12.2228 21.9273 11.6449Z" fill="#B8C3FD"/>
<path d="M8.79683 7.50567V5.18244C8.79683 5.18244 8.17523 5.08102 8.07738 5.57868C8.05206 5.70841 8.04976 5.31216 8.38704 5.50321C8.7623 5.71784 8.79683 7.50567 8.79683 7.50567Z" fill="#B1B9E4"/>
<path d="M8.04672 5.81471V6.87609C7.9763 6.59999 7.92589 6.31895 7.89592 6.03524C7.88671 5.84066 7.94887 5.82297 8.04672 5.81471Z" fill="#B1B9E4"/>
<path d="M13.1349 11.5213V12.2289C13.1309 12.2809 13.1376 12.3332 13.1545 12.3824C13.1715 12.4315 13.1984 12.4765 13.2335 12.5143C13.2686 12.5522 13.311 12.582 13.3581 12.6019C13.4052 12.6218 13.4558 12.6313 13.5068 12.6298H13.8855C13.5033 12.5166 13.2616 12.118 13.1349 11.5213Z" fill="#B1B9E4"/>
<path d="M14.1309 0.025383C13.4644 0.0772723 13.1513 0.523048 13.035 1.18818C12.9751 1.20586 12.8577 0.0454311 13.4954 0.025383C13.8834 0.0135899 14.1309 0.025383 14.1309 0.025383Z" fill="#B1B9E4"/>
<path d="M14.1777 31.1601C14.8488 33.1566 17.2017 34.1532 19.0424 33.251C17.0866 33.2262 15.3899 32.6802 14.1777 31.1601Z" fill="#B1B9E4"/>
<path d="M20.2847 31.455C16.3571 32.777 9.80949 30.475 7.75244 27.3192C12.6838 31.3053 20.3353 31.5694 20.2847 31.455Z" fill="#B1B9E4"/>
<path d="M1.45068 22.8957C1.45068 22.8957 3.20844 23.5124 4.4436 22.2895C3.51718 22.7632 2.48335 22.9726 1.45068 22.8957Z" fill="#B8C3FD"/>
<path d="M19.1698 20.8514H17.6484V22.4251H19.1698V20.8514Z" fill="#FCB614"/>
<path d="M17.6513 20.8514H16.1299V22.4251H17.6513V20.8514Z" fill="#EF4E63"/>
<path d="M17.6518 19.2776H16.1304V20.8513H17.6518V19.2776Z" fill="#63CCF5"/>
<path d="M49.0877 7.64V29H54.1277V7.64H49.0877ZM63.4601 29H68.5001V11.84H74.9201V7.64H57.0401V11.84H63.4601V29ZM82.7172 19.85H91.6572V16.25H82.7172V11.69H92.8572V7.64H77.8572V29H93.1572V24.95H82.7172V19.85ZM107.518 25.43C103.738 25.43 101.038 22.49 101.038 18.32C101.038 14.15 103.708 11.21 107.518 11.21C110.278 11.21 112.678 13.1 113.278 15.74L118.018 15.2C117.238 10.37 112.798 6.89 107.398 6.89C100.798 6.89 95.9981 11.69 95.9981 18.32C95.9981 24.95 100.798 29.75 107.398 29.75C112.858 29.75 117.298 26.36 118.018 21.65L113.308 21.02C112.648 23.57 110.218 25.43 107.518 25.43ZM126.9 29V19.97H135.72V29H140.76V7.64H135.72V15.89H126.9V7.64H121.86V29H126.9Z" fill="#F9F7F2"/>
</svg>
