<svg width="66" height="69" viewBox="0 0 66 69" fill="none" xmlns="http://www.w3.org/2000/svg">
  <path d="M33.0255 68.1473C36.8345 68.1473 39.9222 64.9842 39.9222 61.0824C39.9222 57.1806 36.8345 54.0176 33.0255 54.0176C29.2166 54.0176 26.1289 57.1806 26.1289 61.0824C26.1289 64.9842 29.2166 68.1473 33.0255 68.1473Z" fill="#F2F4FA"/>
  <path
    d="M49.6315 52.1202C50.2671 52.1196 50.877 52.3767 51.3273 52.8351C51.7776 53.2936 52.0315 53.9158 52.0332 54.5653C52.0332 56.6592 42.2058 64.7832 33.1956 64.7832C24.1854 64.7832 13.569 56.9243 13.569 54.5653C13.569 53.9145 13.822 53.2903 14.2724 52.8301C14.7228 52.3699 15.3337 52.1113 15.9707 52.1113L49.6315 52.1202Z"
    fill="#F2F4FA"/>
  <path
    d="M21.1012 34.2424L21.5554 34.759L8.38702 46.9104C7.28646 47.926 5.83719 48.452 4.35803 48.3729C2.87888 48.2937 1.49099 47.6158 0.499703 46.4883L0.0455147 45.9717L13.2139 33.8204C14.3144 32.8048 15.7637 32.2787 17.2429 32.3579C18.722 32.4371 20.1099 33.1149 21.1012 34.2424Z"
    fill="#F2F4FA"/>
  <path d="M18.8396 32.9403C13.3625 37.6916 7.66101 42.5517 2.77738 48.074C1.77606 47.734 0.757469 46.8451 0 45.9806L12.6439 34.2515C13.4705 33.486 14.4801 32.961 15.5691 32.7306C16.658 32.5001 17.7869 32.5725 18.8396 32.9403Z" fill="#B8C3FD"/>
  <path
    d="M47.8844 27.6075C47.3217 27.2722 46.6815 27.0982 46.0307 27.1036C45.38 27.1091 44.7426 27.2938 44.1854 27.6385C36.6319 32.3099 29.4562 31.8097 20.6618 27.4814C16.4168 25.3925 9.19568 43.5844 9.19568 48.0455C9.69636 65.0845 56.4068 63.967 56.4068 48.0455C56.4047 48.0455 54.935 31.8407 47.8844 27.6075Z"
    fill="#F2F4FA"/>
  <path
    d="M65.1605 20.993L65.7143 21.3949L55.4706 36.2112C54.6145 37.4495 53.3133 38.2886 51.8533 38.544C50.3932 38.7994 48.894 38.4502 47.6853 37.5731L47.1315 37.1713L57.3751 22.355C58.2313 21.1167 59.5325 20.2775 60.9925 20.0221C62.4526 19.7667 63.9518 20.116 65.1605 20.993Z"
    fill="#F2F4FA"/>
  <path
    d="M37.8046 51.3261C34.4324 49.7172 31.0594 49.7172 27.6857 51.3261C26.2062 51.3261 25.0074 50.1636 25.0074 48.727V38.8985C25.0074 37.4619 26.2062 36.2993 27.6857 36.2993H37.8046C39.2841 36.2993 40.4828 37.4619 40.4828 38.8985V48.727C40.4828 50.1636 39.2841 51.3261 37.8046 51.3261Z"
    fill="#F1F3FF"
    stroke="#C7C9F4"
    stroke-width="5"
    stroke-miterlimit="10"/>
  <path
    d="M26.3904 38.7661H26.3156C26.1505 38.7661 26.0166 38.8958 26.0166 39.0557V42.5136C26.0166 42.6735 26.1505 42.8032 26.3156 42.8032H26.3904C26.5556 42.8032 26.6894 42.6735 26.6894 42.5136V39.0557C26.6894 38.8958 26.5556 38.7661 26.3904 38.7661Z"
    fill="#DCE1FE"/>
  <path
    d="M26.3904 43.252H26.3156C26.1505 43.252 26.0166 43.383 26.0166 43.5447V44.7534C26.0166 44.9151 26.1505 45.0462 26.3156 45.0462H26.3904C26.5556 45.0462 26.6894 44.9151 26.6894 44.7534V43.5447C26.6894 43.383 26.5556 43.252 26.3904 43.252Z"
    fill="#DCE1FE"/>
  <path
    d="M38.8879 45.2705H38.8256C38.688 45.2705 38.5764 45.4038 38.5764 45.5682V49.122C38.5764 49.2864 38.688 49.4197 38.8256 49.4197H38.8879C39.0255 49.4197 39.1371 49.2864 39.1371 49.122V45.5682C39.1371 45.4038 39.0255 45.2705 38.8879 45.2705Z"
    fill="#DCE1FE"/>
  <path
    d="M38.8879 42.9155H38.8256C38.688 42.9155 38.5764 43.0466 38.5764 43.2083V44.417C38.5764 44.5787 38.688 44.7098 38.8256 44.7098H38.8879C39.0255 44.7098 39.1371 44.5787 39.1371 44.417V43.2083C39.1371 43.0466 39.0255 42.9155 38.8879 42.9155Z"
    fill="#DCE1FE"/>
  <path d="M9.19568 48.0741C9.19568 43.6075 16.4281 25.4022 20.6786 27.4949C22.8805 28.6022 25.5687 29.643 26.5497 29.8844C27.0121 29.9995 21.6013 30.1479 17.4005 34.4196C12.7309 39.1653 9.19568 48.0741 9.19568 48.0741Z" fill="#B8C3FD"/>
  <path d="M63.2472 19.7605C60.9811 18.9498 58.9355 19.9466 57.5495 21.9513L47.8839 35.9333L48.0569 36.0529C49.1337 36.7817 59.3226 19.0916 63.2472 19.7605Z" fill="#B8C3FD"/>
  <path d="M26.5775 63.5493C27.8461 67.3338 32.2937 69.2227 35.773 67.5127C32.0761 67.4657 28.8688 66.4307 26.5775 63.5493Z" fill="#B1B9E4"/>
  <path d="M38.127 64.0744C30.7467 66.5363 18.4434 62.2494 14.578 56.3726C23.8445 63.7955 38.2222 64.2874 38.127 64.0744Z" fill="#B1B9E4"/>
  <path d="M2.69141 48.0005C2.69141 48.0005 5.98446 49.181 8.29843 46.8403C6.56285 47.7469 4.62604 48.1477 2.69141 48.0005Z" fill="#B8C3FD"/>
  <path d="M36.1094 43.5884H32.9695V46.7283H36.1094V43.5884Z" fill="#FCB614"/>
  <path d="M32.969 43.5884H29.9412V46.7283H32.969V43.5884Z" fill="#EF4E63"/>
  <path d="M32.969 40.3364H29.9412V43.5885H32.969V40.3364Z" fill="#63CCF5"/>
  <path
    d="M25.9145 25.1973H25.6706C25.1186 25.1973 24.6711 25.655 24.6711 26.2197V27.7633C24.6711 28.328 25.1186 28.7858 25.6706 28.7858H25.9145C26.4665 28.7858 26.914 28.328 26.914 27.7633V26.2197C26.914 25.655 26.4665 25.1973 25.9145 25.1973Z"
    fill="#F2F4FA"/>
  <path
    d="M40.1562 25.3096H39.9123C39.3603 25.3096 38.9128 25.7673 38.9128 26.332V27.8756C38.9128 28.4403 39.3603 28.8981 39.9123 28.8981H40.1562C40.7082 28.8981 41.1557 28.4403 41.1557 27.8756V26.332C41.1557 25.7673 40.7082 25.3096 40.1562 25.3096Z"
    fill="#F2F4FA"/>
  <path
    d="M41.1538 26.8794V28.1687C41.1598 28.2654 41.1467 28.3624 41.1154 28.4532C41.084 28.544 41.0351 28.6266 40.9719 28.6955C40.9088 28.7643 40.8327 28.8179 40.7489 28.8526C40.6651 28.8873 40.5754 28.9024 40.4858 28.8968H39.8096C40.4982 28.6853 40.925 27.9705 41.1538 26.8794Z"
    fill="#B8C3FD"/>
  <path
    d="M24.6732 26.6553V28.0151C24.6659 28.115 24.6779 28.2156 24.7083 28.3101C24.7387 28.4046 24.7869 28.491 24.8497 28.5637C24.9125 28.6364 24.9885 28.6938 25.0728 28.732C25.157 28.7702 25.2477 28.7885 25.3388 28.7857H26.0168C25.3327 28.5681 24.8999 27.802 24.6732 26.6553Z"
    fill="#B1B9E4"/>
  <rect x="13.6813" y="10.541" width="38.3521" height="7.40127" rx="3.70064" fill="#B8C3FD"/>
  <path
    d="M33.0171 27.0257C30.9105 27.0329 20.1348 26.8262 17.1499 20.6823C16.9025 20.1772 16.8214 19.6103 16.8214 19.0479V9.27385C16.8214 8.71046 16.9021 8.14516 17.1499 7.6392C20.2205 1.33145 31.5675 1.3457 32.9457 1.3457C34.3596 1.3457 45.6209 1.35996 48.6773 7.6392C48.9247 8.14433 49.0057 8.71119 49.0057 9.27367V19.0477C49.0057 19.6111 48.9251 20.1764 48.6773 20.6823C45.7709 26.6622 35.4665 27.0186 33.0171 27.0257Z"
    fill="#F2F4FA"/>
  <path
    d="M32.944 23.7739C31.1824 23.7792 22.1713 23.6266 19.6752 19.0925C19.4699 18.7227 19.4005 18.2961 19.4005 17.8731V10.6864C19.4005 10.2626 19.4695 9.83739 19.6752 9.46681C22.243 4.81175 31.7317 4.82227 32.8842 4.82227C34.0666 4.82227 43.4837 4.83279 46.0396 9.46681C46.2448 9.83664 46.3142 10.2633 46.3142 10.6863V17.8729C46.3142 18.2968 46.2452 18.722 46.0396 19.0925C43.6091 23.5056 34.9922 23.7686 32.944 23.7739Z"
    fill="#FFFFFD"/>
  <path d="M41.0762 1.07916C40.7778 0.48854 40.1137 0.175 39.4272 0H26.3994C25.7129 0.175 25.0489 0.48854 24.7504 1.07916C23.6088 3.33228 27.7275 9.75623 32.9133 9.75623C38.0991 9.75623 42.2178 3.33228 41.0762 1.07916Z" fill="#B8C3FD"/>
  <rect x="28.2101" y="12.2202" width="2.49719" height="5.20247" rx="1.24859" fill="#231F20"/>
  <rect x="34.8693" y="12.2202" width="2.49719" height="5.20247" rx="1.24859" fill="#231F20"/>
</svg>