<svg width="144" height="39" viewBox="0 0 144 39" fill="none" xmlns="http://www.w3.org/2000/svg">
  <path d="M17.5896 36.2961C19.6183 36.2961 21.2629 34.6114 21.2629 32.5333C21.2629 30.4552 19.6183 28.7705 17.5896 28.7705C15.561 28.7705 13.9164 30.4552 13.9164 32.5333C13.9164 34.6114 15.561 36.2961 17.5896 36.2961Z" fill="#F2F4FA"/>
  <path
    d="M26.434 27.7596C26.7726 27.7593 27.0974 27.8962 27.3372 28.1404C27.5771 28.3846 27.7123 28.716 27.7132 29.0619C27.7132 30.1771 22.4791 34.504 17.6802 34.504C12.8812 34.504 7.22687 30.3183 7.22687 29.0619C7.22687 28.7152 7.36164 28.3828 7.60153 28.1377C7.84142 27.8926 8.16678 27.7549 8.50604 27.7549L26.434 27.7596Z"
    fill="#F2F4FA"/>
  <path
    d="M11.2388 18.2379L11.4807 18.513L4.4671 24.9849C3.88094 25.5258 3.10905 25.806 2.32124 25.7639C1.53343 25.7217 0.794232 25.3607 0.266264 24.7601L0.0243601 24.485L7.03792 18.0131C7.62408 17.4722 8.39597 17.192 9.18378 17.2342C9.97159 17.2763 10.7108 17.6374 11.2388 18.2379Z"
    fill="#F2F4FA"/>
  <path d="M10.0341 17.5443C7.11698 20.0748 4.08031 22.6634 1.47926 25.6046C0.945942 25.4235 0.403434 24.9501 0 24.4897L6.73424 18.2426C7.17447 17.8349 7.71223 17.5553 8.2922 17.4326C8.87217 17.3098 9.47342 17.3484 10.0341 17.5443Z" fill="#B8C3FD"/>
  <path
    d="M25.5037 14.7045C25.204 14.5259 24.863 14.4332 24.5164 14.4361C24.1698 14.439 23.8303 14.5374 23.5335 14.721C19.5105 17.209 15.6887 16.9426 11.0047 14.6373C8.74377 13.5247 4.89777 23.2139 4.89777 25.5899C5.16443 34.665 30.0428 34.0698 30.0428 25.5899C30.0416 25.5899 29.2589 16.9591 25.5037 14.7045Z"
    fill="#F2F4FA"/>
  <path
    d="M34.7049 11.1813L34.9999 11.3953L29.5441 19.2866C29.0881 19.9461 28.395 20.393 27.6174 20.5291C26.8398 20.6651 26.0413 20.4791 25.3975 20.012L25.1026 19.7979L30.5584 11.9066C31.0144 11.2471 31.7074 10.8002 32.485 10.6642C33.2627 10.5281 34.0612 10.7141 34.7049 11.1813Z"
    fill="#F2F4FA"/>
  <path
    d="M20.135 27.3369C18.3389 26.4799 16.5424 26.4799 14.7455 27.3369C13.9575 27.3369 13.3191 26.7177 13.3191 25.9526V20.7178C13.3191 19.9527 13.9575 19.3335 14.7455 19.3335H20.135C20.923 19.3335 21.5614 19.9527 21.5614 20.7178V25.9526C21.5614 26.7177 20.923 27.3369 20.135 27.3369Z"
    fill="#F1F3FF"
    stroke="#C7C9F4"
    stroke-width="5"
    stroke-miterlimit="10"/>
  <path
    d="M14.0557 20.6475H14.0159C13.9279 20.6475 13.8566 20.7165 13.8566 20.8017V22.6434C13.8566 22.7286 13.9279 22.7976 14.0159 22.7976H14.0557C14.1437 22.7976 14.215 22.7286 14.215 22.6434V20.8017C14.215 20.7165 14.1437 20.6475 14.0557 20.6475Z"
    fill="#DCE1FE"/>
  <path
    d="M14.0557 23.0366H14.0159C13.9279 23.0366 13.8566 23.1064 13.8566 23.1925V23.8363C13.8566 23.9224 13.9279 23.9923 14.0159 23.9923H14.0557C14.1437 23.9923 14.215 23.9224 14.215 23.8363V23.1925C14.215 23.1064 14.1437 23.0366 14.0557 23.0366Z"
    fill="#DCE1FE"/>
  <path
    d="M20.7121 24.1118H20.6789C20.6056 24.1118 20.5462 24.1828 20.5462 24.2703V26.1632C20.5462 26.2507 20.6056 26.3217 20.6789 26.3217H20.7121C20.7854 26.3217 20.8448 26.2507 20.8448 26.1632V24.2703C20.8448 24.1828 20.7854 24.1118 20.7121 24.1118Z"
    fill="#DCE1FE"/>
  <path
    d="M20.7121 22.8574H20.6789C20.6056 22.8574 20.5462 22.9272 20.5462 23.0133V23.6571C20.5462 23.7432 20.6056 23.8131 20.6789 23.8131H20.7121C20.7854 23.8131 20.8448 23.7432 20.8448 23.6571V23.0133C20.8448 22.9272 20.7854 22.8574 20.7121 22.8574Z"
    fill="#DCE1FE"/>
  <path d="M4.89777 25.6047C4.89777 23.2257 8.74983 13.5294 11.0137 14.644C12.1864 15.2337 13.6181 15.7881 14.1407 15.9166C14.3869 15.978 11.5051 16.057 9.26774 18.3322C6.78064 20.8597 4.89777 25.6047 4.89777 25.6047Z" fill="#B8C3FD"/>
  <path d="M33.6859 10.525C32.4789 10.0932 31.3895 10.6241 30.6512 11.6918L25.5033 19.1387L25.5954 19.2024C26.169 19.5906 31.5956 10.1687 33.6859 10.525Z" fill="#B8C3FD"/>
  <path d="M14.1555 33.8472C14.8311 35.8628 17.1999 36.8689 19.0531 35.9581C17.0841 35.9331 15.3758 35.3818 14.1555 33.8472Z" fill="#B1B9E4"/>
  <path d="M20.3068 34.1265C16.376 35.4377 9.82312 33.1545 7.7644 30.0244C12.6998 33.9779 20.3575 34.2399 20.3068 34.1265Z" fill="#B1B9E4"/>
  <path d="M1.43347 25.5657C1.43347 25.5657 3.18737 26.1944 4.41982 24.9478C3.49543 25.4306 2.46387 25.6441 1.43347 25.5657Z" fill="#B8C3FD"/>
  <path d="M19.2323 23.2158H17.5599V24.8882H19.2323V23.2158Z" fill="#FCB614"/>
  <path d="M17.5594 23.2158H15.9468V24.8882H17.5594V23.2158Z" fill="#EF4E63"/>
  <path d="M17.5594 21.4839H15.9468V23.216H17.5594V21.4839Z" fill="#63CCF5"/>
  <path
    d="M13.8022 13.4204H13.6723C13.3783 13.4204 13.14 13.6642 13.14 13.965V14.7871C13.14 15.0879 13.3783 15.3317 13.6723 15.3317H13.8022C14.0962 15.3317 14.3345 15.0879 14.3345 14.7871V13.965C14.3345 13.6642 14.0962 13.4204 13.8022 13.4204Z"
    fill="#F2F4FA"/>
  <path
    d="M21.3874 13.48H21.2575C20.9635 13.48 20.7252 13.7238 20.7252 14.0245V14.8467C20.7252 15.1474 20.9635 15.3912 21.2575 15.3912H21.3874C21.6814 15.3912 21.9198 15.1474 21.9198 14.8467V14.0245C21.9198 13.7238 21.6814 13.48 21.3874 13.48Z"
    fill="#F2F4FA"/>
  <path
    d="M21.9189 14.3164V15.0031C21.9221 15.0546 21.9151 15.1062 21.8984 15.1546C21.8817 15.203 21.8557 15.247 21.822 15.2837C21.7884 15.3203 21.7479 15.3489 21.7033 15.3673C21.6586 15.3858 21.6108 15.3939 21.5631 15.3909H21.2029C21.5697 15.2782 21.797 14.8975 21.9189 14.3164Z"
    fill="#B8C3FD"/>
  <path
    d="M13.1411 14.1968V14.921C13.1372 14.9743 13.1436 15.0278 13.1597 15.0781C13.1759 15.1285 13.2016 15.1745 13.235 15.2132C13.2685 15.252 13.309 15.2825 13.3539 15.3029C13.3987 15.3232 13.447 15.333 13.4956 15.3314H13.8567C13.4923 15.2156 13.2618 14.8076 13.1411 14.1968Z"
    fill="#B1B9E4"/>
  <rect x="7.28674" y="5.61426" width="20.4266" height="3.94197" rx="1.97099" fill="#B8C3FD"/>
  <path
    d="M17.5852 14.3942C16.4632 14.398 10.724 14.2879 9.13418 11.0156C9.0024 10.7466 8.95923 10.4447 8.95923 10.1451V4.93939C8.95923 4.63932 9.00219 4.33824 9.13418 4.06876C10.7696 0.709205 16.8131 0.716797 17.5472 0.716797C18.3002 0.716797 24.2981 0.72439 25.9259 4.06876C26.0577 4.3378 26.1008 4.63971 26.1008 4.93929V10.145C26.1008 10.4451 26.0579 10.7462 25.9259 11.0156C24.3779 14.2006 18.8897 14.3904 17.5852 14.3942Z"
    fill="#F2F4FA"/>
  <path
    d="M17.5462 12.6621C16.6079 12.6649 11.8086 12.5837 10.4791 10.1688C10.3698 9.97184 10.3328 9.74461 10.3328 9.51933V5.69165C10.3328 5.46592 10.3696 5.23945 10.4791 5.04208C11.8467 2.56276 16.9005 2.56836 17.5144 2.56836C18.1441 2.56836 23.1597 2.57396 24.521 5.04208C24.6303 5.23905 24.6673 5.46629 24.6673 5.69157V9.51924C24.6673 9.74497 24.6305 9.97144 24.521 10.1688C23.2265 12.5193 18.6371 12.6593 17.5462 12.6621Z"
    fill="#FFFFFD"/>
  <path d="M21.8774 0.574771C21.7185 0.2602 21.3648 0.0932061 20.9992 0H14.0604C13.6948 0.0932061 13.3411 0.2602 13.1822 0.574771C12.5741 1.7748 14.7678 5.19624 17.5298 5.19624C20.2918 5.19624 22.4855 1.7748 21.8774 0.574771Z" fill="#B8C3FD"/>
  <rect x="15.0249" y="6.50879" width="1.33002" height="2.77088" rx="0.66501" fill="#231F20"/>
  <rect x="18.5717" y="6.50879" width="1.33002" height="2.77088" rx="0.66501" fill="#231F20"/>
  <path
    d="M49.0877 9.64V31H54.1277V9.64H49.0877ZM63.4601 31H68.5001V13.84H74.9201V9.64H57.0401V13.84H63.4601V31ZM82.7172 21.85H91.6572V18.25H82.7172V13.69H92.8572V9.64H77.8572V31H93.1572V26.95H82.7172V21.85ZM107.518 27.43C103.738 27.43 101.038 24.49 101.038 20.32C101.038 16.15 103.708 13.21 107.518 13.21C110.278 13.21 112.678 15.1 113.278 17.74L118.018 17.2C117.238 12.37 112.798 8.89 107.398 8.89C100.798 8.89 95.9981 13.69 95.9981 20.32C95.9981 26.95 100.798 31.75 107.398 31.75C112.858 31.75 117.298 28.36 118.018 23.65L113.308 23.02C112.648 25.57 110.218 27.43 107.518 27.43ZM126.9 31V21.97H135.72V31H140.76V9.64H135.72V17.89H126.9V9.64H121.86V31H126.9Z"
    fill="#F9F7F2"/>
</svg>