<svg width="1440" height="1198" viewBox="0 0 1440 1198" fill="none" xmlns="http://www.w3.org/2000/svg">
<path d="M1067.96 39.9949L1077.8 28.1567L975.732 -71.4323C969.745 -77.2701 961.863 -80.2927 953.818 -79.8356C945.774 -79.3786 938.227 -75.4802 932.836 -68.9966L923 -57.1682L1025.07 42.4208C1031.05 48.2575 1038.93 51.2801 1046.98 50.8241C1055.02 50.3693 1062.57 46.4741 1067.96 39.9949Z" fill="#FEDF68"/>
<path d="M1057.39 41.9796C1018.32 6.42221 947.839 -64.5676 942.208 -69.1427C936.577 -73.7177 931.528 -65.0951 923 -55.6188L1013.2 32.1631C1028.55 50.1113 1041.07 54.1837 1057.39 41.9796Z" fill="#E8C143"/>
<path d="M1265.07 83.0906C1261.04 85.6094 1256.45 86.9161 1251.78 86.872C1247.11 86.8279 1242.54 85.4351 1238.55 82.8389C1184.42 47.7662 1132.94 51.5337 1069.87 84.0316C1039.47 99.7154 987.642 -36.8939 987.642 -70.4222C991.243 -198.354 1326.16 -189.98 1326.16 -70.4222C1326.16 -70.3964 1315.67 51.3078 1265.07 83.0906Z" fill="#FEDF68"/>
<path d="M989.343 -72.3005C989.343 -38.458 1040.28 99.5389 1070.22 83.7209C1085.74 75.3741 1104.67 67.4466 1111.63 65.6074C1114.88 64.7448 1076.77 63.603 1047.22 31.2314C1014.22 -4.7806 989.343 -72.3005 989.343 -72.3005Z" fill="#E8C143"/>
<path opacity="0.8" d="M1203.68 73.3983C1208.72 69.0119 1217.11 73.8355 1217.29 80.4489C1217.29 83.3957 1217.29 88.7676 1217.29 88.7676C1215.77 80.4489 1212.21 75.4985 1203.68 73.3983Z" fill="#FFF9E1"/>
<path d="M1191.94 -95.039C1168.58 -83.056 1145.22 -83.056 1121.86 -95.039C1111.62 -95.039 1103.32 -86.3435 1103.32 -75.6979V-2.60493C1103.36 8.06626 1111.69 16.7617 1121.86 16.7617L1191.94 16.7617C1202.19 16.7617 1210.49 8.06624 1210.49 -2.58049V-75.6851C1210.53 -86.3436 1202.24 -95.039 1191.94 -95.039Z" fill="#FFF9E1" stroke="#E8C143" stroke-width="5" stroke-miterlimit="10"/>
<path d="M1108.36 100.139H1103.37C1100.52 100.139 1098.21 97.3985 1098.21 94.0175V77.8359C1098.21 74.4549 1100.52 71.7148 1103.37 71.7148H1108.36C1111.21 71.7148 1113.52 74.4549 1113.52 77.8359V94.0175C1113.52 97.3985 1111.21 100.139 1108.36 100.139Z" fill="#E8C143"/>
<path d="M1211.56 98.2422H1206.01C1202.85 98.2422 1200.28 95.6847 1200.28 92.5291V77.4263C1200.28 74.2707 1202.85 71.7132 1206.01 71.7132H1211.56C1214.73 71.7132 1217.29 74.2707 1217.29 77.4263V92.5291C1217.29 95.6847 1214.73 98.2422 1211.56 98.2422Z" fill="#FEDF68"/>
<path opacity="0.8" d="M1103.32 73.3977C1107.1 69.0127 1113.39 73.8348 1113.52 80.448C1113.52 83.3959 1113.52 88.7676 1113.52 88.7676C1112.38 80.4903 1109.71 75.5268 1103.32 73.3977Z" fill="#FFF9E1"/>
<path d="M1274.45 219.518H1039.35C1028.64 219.518 1019.96 209.799 1019.96 197.81V182.482C1019.96 170.494 1028.64 160.775 1039.35 160.775H1274.45C1285.16 160.775 1293.84 170.494 1293.84 182.482V197.81C1293.84 209.799 1285.16 219.518 1274.45 219.518Z" fill="#E8C143"/>
<path d="M1158.49 88.7694C1143.57 88.7133 1067.25 90.3458 1046.11 138.854C1044.35 142.84 1043.78 147.32 1043.78 151.765V228.922C1043.78 233.374 1044.35 237.842 1046.11 241.835C1067.85 291.638 1148.22 291.525 1157.98 291.525C1167.99 291.525 1247.75 291.413 1269.4 241.835C1271.15 237.849 1271.73 233.368 1271.73 228.923V151.768C1271.73 147.315 1271.16 142.847 1269.4 138.854C1248.82 91.6393 1175.83 88.8255 1158.49 88.7694Z" fill="#FEDF68"/>
<path d="M1158.38 115.298C1145.68 115.258 1080.75 116.447 1062.77 151.808C1061.29 154.691 1060.79 158.023 1060.79 161.326V217.36C1060.79 220.67 1061.29 223.99 1062.77 226.879C1081.27 263.184 1149.64 263.102 1157.95 263.102C1166.47 263.102 1234.32 263.019 1252.74 226.879C1254.22 223.996 1254.72 220.665 1254.72 217.362V161.327C1254.72 158.017 1254.22 154.697 1252.74 151.808C1235.22 117.391 1173.13 115.34 1158.38 115.298Z" fill="#FFFFFD"/>
<path d="M1215.93 292.616C1213.8 297.204 1209.07 299.64 1204.17 301H1111.33C1106.44 299.64 1101.71 297.204 1099.58 292.616C1091.44 275.111 1120.8 225.203 1157.75 225.203C1194.71 225.203 1224.06 275.111 1215.93 292.616Z" fill="#E8C143"/>
<path d="M1134.97 204.359H1129.5C1126.31 204.359 1123.73 201.439 1123.73 197.836V171.089C1123.73 167.486 1126.31 164.566 1129.5 164.566H1134.97C1138.16 164.566 1140.74 167.486 1140.74 171.089V197.836C1140.74 201.439 1138.16 204.359 1134.97 204.359Z" fill="#231F20"/>
<path d="M1184.31 204.359H1178.83C1175.64 204.359 1173.06 201.439 1173.06 197.836V171.089C1173.06 167.486 1175.64 164.566 1178.83 164.566H1184.31C1187.49 164.566 1190.07 167.486 1190.07 171.089V197.836C1190.07 201.439 1187.49 204.359 1184.31 204.359Z" fill="#231F20"/>
<path d="M1373.23 -96.0455L1363.83 -106.409L1268.94 -0.638939C1263.11 5.86421 1259.83 14.6529 1259.82 23.7928C1259.81 32.9317 1263.08 41.6743 1268.9 48.0951L1278.29 58.4492L1373.17 -47.3213C1379.01 -53.8244 1382.29 -62.6098 1382.3 -71.7465C1382.31 -80.8843 1379.05 -89.6247 1373.23 -96.0455Z" fill="#FEDF68"/>
<path d="M1380.54 -81.7757C1387.39 -68.3537 1383.58 -54.4288 1373.32 -43.6013L1301.73 31.9199L1300.86 30.9775C1295.63 24.9457 1388.17 -57.6999 1380.54 -81.7757Z" fill="#FFF2C3"/>
<g clip-path="url(#clip0)">
<path d="M429.197 52.8284C403.969 52.8602 383.544 73.7469 383.576 99.4809C383.608 125.215 404.087 146.05 429.315 146.018C454.544 145.987 474.969 125.1 474.937 99.366C474.905 73.632 454.426 52.7967 429.197 52.8284Z" fill="#4E6AFA"/>
<path d="M471.773 82.8613C463.386 58.1039 434.055 45.7907 411.139 57.0095C435.522 57.2889 456.67 64.0173 471.773 82.8613Z" fill="#7188FB"/>
<path d="M319.287 158.598C317.192 158.6 315.117 158.182 313.181 157.364C311.245 156.548 309.485 155.35 308.005 153.838C306.523 152.327 305.348 150.532 304.549 148.557C303.748 146.582 303.338 144.465 303.341 142.328C303.324 128.463 368.432 74.5828 428.201 74.5076C487.97 74.4325 558.459 126.499 558.479 142.007C558.481 146.317 556.806 150.45 553.821 153.5C550.837 156.549 546.787 158.266 542.562 158.271L319.287 158.598Z" fill="#B8C3FD"/>
<path d="M330.899 320.356C334.641 322.566 338.896 323.709 343.219 323.664C347.543 323.621 351.776 322.391 355.473 320.107C405.597 289.165 453.297 292.413 511.773 320.955C539.946 334.706 587.841 214.414 587.803 184.936C584.283 72.3579 273.981 80.0891 274.113 185.33C274.113 185.33 283.956 292.431 330.899 320.356Z" fill="#4E6AFA"/>
<path d="M235.768 365.738C229.824 362.11 227.881 354.391 231.398 348.38L289.303 249.419C293.252 242.668 299.676 237.802 307.158 235.892C314.641 233.981 322.571 235.183 329.202 239.231C335.14 242.856 337.082 250.568 333.569 256.573L275.658 355.546C271.708 362.294 265.288 367.16 257.807 369.071C250.327 370.982 242.399 369.784 235.768 365.738Z" fill="#4E6AFA"/>
<path d="M397.341 163.796C419.745 174.413 442.138 174.384 464.521 163.711C474.342 163.699 482.314 171.397 482.326 180.921L482.408 245.942C482.419 255.443 474.467 263.184 464.646 263.196L397.466 263.281C387.645 263.293 379.674 255.595 379.662 246.071L379.58 181.027C379.534 171.526 387.52 163.808 397.341 163.796Z" fill="#F1F3FF" stroke="#2C3C8C" stroke-width="5" stroke-miterlimit="10"/>
<path d="M445.88 243.518L420.585 243.55C420.258 243.551 419.936 243.474 419.644 243.324C419.352 243.175 419.098 242.957 418.903 242.688C418.709 242.42 418.58 242.109 418.524 241.781C418.47 241.452 418.492 241.114 418.589 240.796L425.24 219.075C425.336 218.757 425.358 218.42 425.304 218.091C425.25 217.763 425.122 217.452 424.928 217.184C424.735 216.915 424.484 216.695 424.192 216.544C423.902 216.392 423.581 216.311 423.254 216.309L417.071 216.316C416.722 216.317 416.379 216.227 416.073 216.057C415.767 215.886 415.507 215.64 415.319 215.341C415.13 215.042 415.018 214.699 414.993 214.344C414.968 213.989 415.031 213.633 415.175 213.309L428.461 183.757C428.641 183.363 428.933 183.033 429.301 182.814C429.669 182.595 430.094 182.496 430.519 182.531C430.943 182.565 431.347 182.731 431.676 183.007C432.006 183.284 432.243 183.655 432.359 184.074L439.713 210.808C439.837 211.255 440.099 211.646 440.462 211.926C440.824 212.206 441.265 212.357 441.719 212.356L445.841 212.351C446.394 212.351 446.924 212.574 447.316 212.972C447.706 213.37 447.927 213.911 447.928 214.475L447.962 241.391C447.962 241.67 447.908 241.946 447.804 242.204C447.7 242.462 447.546 242.696 447.354 242.893C447.16 243.092 446.931 243.248 446.678 243.355C446.425 243.463 446.154 243.518 445.88 243.518Z" fill="#4E6AFA"/>
<path d="M441.774 246.842L416.479 246.874C416.152 246.876 415.829 246.798 415.537 246.648C415.245 246.499 414.992 246.281 414.797 246.012C414.603 245.745 414.473 245.434 414.418 245.105C414.364 244.776 414.385 244.438 414.482 244.12L421.134 222.399C421.232 222.081 421.256 221.743 421.202 221.413C421.15 221.084 421.022 220.773 420.828 220.503C420.635 220.233 420.382 220.014 420.089 219.864C419.797 219.712 419.475 219.633 419.148 219.633L412.965 219.641C412.616 219.641 412.272 219.552 411.966 219.381C411.66 219.21 411.4 218.965 411.212 218.665C411.024 218.366 410.911 218.023 410.887 217.668C410.861 217.313 410.924 216.957 411.068 216.633L424.355 187.081C424.534 186.687 424.826 186.358 425.194 186.138C425.563 185.919 425.987 185.82 426.412 185.855C426.837 185.889 427.241 186.056 427.569 186.331C427.899 186.608 428.137 186.98 428.253 187.398L435.606 214.133C435.732 214.579 435.997 214.973 436.361 215.252C436.725 215.531 437.168 215.682 437.624 215.681L441.735 215.675C442.287 215.675 442.818 215.898 443.209 216.297C443.601 216.694 443.82 217.235 443.821 217.799L443.855 244.715C443.855 245.278 443.637 245.819 443.247 246.219C442.856 246.617 442.326 246.842 441.774 246.842Z" stroke="black" stroke-miterlimit="10"/>
<path d="M587.725 185.015C587.762 214.516 539.924 334.819 511.694 321.047C497.044 313.782 479.23 306.9 472.718 305.3C469.642 304.557 505.557 303.513 533.396 275.275C564.328 243.897 587.725 185.015 587.725 185.015Z" fill="#3B50BB"/>
<path d="M473.05 246.804L474.333 246.803C475.154 246.802 475.819 246.122 475.818 245.285L475.788 221.401C475.787 220.564 475.12 219.886 474.299 219.887L473.016 219.888C472.194 219.889 471.53 220.569 471.531 221.406L471.561 245.29C471.562 246.127 472.228 246.805 473.05 246.804Z" fill="#DCE1FE"/>
<path d="M473.013 216.671L474.296 216.67C475.117 216.669 475.782 215.99 475.781 215.152L475.77 206.352C475.769 205.515 475.102 204.837 474.281 204.838L472.998 204.839C472.176 204.84 471.512 205.52 471.513 206.357L471.524 215.157C471.525 215.995 472.191 216.672 473.013 216.671Z" fill="#DCE1FE"/>
<path d="M390.172 203.336L391.456 203.334C392.277 203.333 392.942 202.653 392.941 201.816L392.911 177.932C392.91 177.095 392.243 176.417 391.422 176.418L390.138 176.42C389.317 176.421 388.653 177.1 388.654 177.937L388.684 201.821C388.685 202.658 389.351 203.337 390.172 203.336Z" fill="#DCE1FE"/>
<path d="M390.191 218.994L391.475 218.992C392.296 218.991 392.962 218.311 392.96 217.473L392.949 208.674C392.948 207.836 392.282 207.158 391.461 207.159L390.177 207.161C389.356 207.162 388.691 207.842 388.692 208.68L388.704 217.479C388.705 218.317 389.37 218.995 390.191 218.994Z" fill="#DCE1FE"/>
<path d="M481.593 313.929C477.364 310.488 470.33 314.276 470.191 319.503C470.194 321.801 470.199 326.028 470.199 326.028C471.475 319.501 474.443 315.581 481.593 313.929Z" fill="#B8C3FD"/>
<path d="M242.515 368.777C257.909 372.95 270.918 365.336 279.055 351.43L335 254.426L331.5 251C323.998 246.766 268.863 371.165 242.515 368.777Z" fill="#3B50BB"/>
<path d="M386.965 313.014C382.737 309.573 375.703 313.361 375.563 318.577C375.566 320.874 375.571 325.102 375.571 325.102C376.836 318.576 379.816 314.689 386.965 313.014Z" fill="#B8C3FD"/>
<path d="M395.715 79.3054C444.629 62.8849 526.227 91.2953 551.898 130.414C490.399 81.0354 395.093 77.8812 395.715 79.3054Z" fill="#7188FB"/>
<path d="M458.822 180.847L466.221 180.838L466.211 173.222L458.812 173.231L458.822 180.847Z" fill="#FCB614"/>
<path d="M466.209 180.837L473.608 180.828L473.599 173.212L466.2 173.221L466.209 180.837Z" fill="#EF4E63"/>
<path d="M466.219 188.455L473.618 188.445L473.609 180.828L466.21 180.838L466.219 188.455Z" fill="#63CCF5"/>
<path d="M475.426 336.383L479.886 336.378C482.766 336.374 485.098 333.989 485.094 331.052L485.078 317.921C485.074 314.984 482.736 312.605 479.856 312.609L475.396 312.614C472.516 312.618 470.185 315.003 470.189 317.94L470.205 331.071C470.209 334.008 472.546 336.387 475.426 336.383Z" fill="#4E6AFA"/>
<path d="M380.799 335.504L385.259 335.499C388.139 335.495 390.47 333.11 390.466 330.173L390.45 317.042C390.446 314.105 388.109 311.726 385.229 311.73L380.769 311.735C377.889 311.739 375.557 314.124 375.561 317.061L375.577 330.192C375.581 333.129 377.919 335.508 380.799 335.504Z" fill="#4E6AFA"/>
<path d="M323.606 436.07L538.063 435.801C549.108 435.787 558.051 426.821 558.037 415.775L558.025 405.686C558.011 394.641 549.045 385.698 538 385.711L323.543 385.981C312.497 385.995 303.554 394.961 303.568 406.006L303.581 416.095C303.594 427.141 312.56 436.084 323.606 436.07Z" fill="#3B50BB"/>
<path d="M429.635 324.377C443.612 324.312 515.108 325.621 534.964 367.175C536.612 370.595 537.153 374.42 537.158 378.216L537.241 444.397C537.246 448.2 536.718 452.016 535.075 455.446C514.757 498.16 439.472 498.158 430.328 498.17C420.947 498.181 346.231 498.179 325.898 455.709C324.251 452.288 323.71 448.464 323.705 444.667L323.622 378.487C323.617 374.684 324.146 370.868 325.787 367.438C345.02 326.944 413.384 324.446 429.635 324.377Z" fill="#4E6AFA"/>
<path d="M430.147 346.384C441.835 346.335 501.623 347.291 518.223 377.956C519.589 380.46 520.051 383.337 520.055 386.19L520.116 434.858C520.12 437.717 519.667 440.586 518.305 443.099C501.307 474.624 438.351 474.632 430.705 474.642C422.86 474.652 360.379 474.659 343.383 443.319C342.015 440.814 341.554 437.937 341.55 435.084L341.489 386.416C341.485 383.558 341.938 380.688 343.301 378.176C359.388 348.289 416.558 346.437 430.147 346.384Z" fill="#FFFFFD"/>
<path d="M376.384 500.039C378.369 504.034 382.778 506.151 387.334 507.329L473.77 507.22C478.324 506.03 482.727 503.903 484.702 499.903C492.257 484.645 464.875 441.205 430.469 441.248C396.063 441.291 368.791 484.801 376.384 500.039Z" fill="#3B50BB"/>
<path d="M451.319 424.546L455.415 424.541C458.859 424.537 461.647 421.741 461.643 418.297L461.614 395.561C461.61 392.117 458.815 389.328 455.371 389.333L451.274 389.338C447.83 389.342 445.042 392.138 445.046 395.582L445.075 418.318C445.079 421.762 447.875 424.551 451.319 424.546Z" fill="#231F20"/>
<path d="M407.137 424.603L411.233 424.598C414.677 424.593 417.465 421.798 417.461 418.354L417.432 395.617C417.428 392.173 414.632 389.385 411.188 389.389L407.092 389.394C403.648 389.399 400.86 392.194 400.864 395.638L400.893 418.375C400.897 421.819 403.692 424.607 407.137 424.603Z" fill="#231F20"/>
<path d="M512.272 241.722C506.954 246.208 506.207 254.23 510.58 259.906L581.26 351.644C583.65 354.748 586.592 357.338 589.918 359.263C593.245 361.188 596.89 362.413 600.646 362.867C604.402 363.32 608.195 362.994 611.809 361.906C615.423 360.818 618.786 358.991 621.707 356.527C627.021 352.046 627.767 344.031 623.398 338.361L552.696 246.595C547.869 240.334 540.899 236.304 533.319 235.39C525.739 234.477 518.168 236.755 512.272 241.722Z" fill="#4E6AFA"/>
<path d="M562.5 246.501C552.608 242.161 548.048 260.669 554.572 269.384C574.073 295.438 594.085 321.009 610.797 350.123C613.485 354.806 618.73 357.601 623.375 355.16C628.407 352.515 629.076 345.731 625.822 340.867L573.947 263.323C570.19 257.706 568.172 248.989 562.5 246.501Z" fill="#3B50BB"/>
</g>
<path d="M611.242 491.04C609.398 495.451 605.746 498.142 601.057 498.545C607.482 504.323 622.356 533.039 622.154 537.765C626.58 532.3 628.941 531.238 633.542 531.747C633.237 526.038 615.701 496.063 611.242 491.04Z" fill="#FFDD8F"/>
<path fill-rule="evenodd" clip-rule="evenodd" d="M1088.64 65.7724C1255.97 37.418 1363.94 226.432 1500.86 155.173C1650.72 77.178 1312.84 -51.8554 1463.54 -129.338C1670.78 -235.897 2112.48 -72.4619 2211.76 -210.354C2308.8 -345.137 1790.26 -288.596 1635.74 -368.523C1584.01 -395.281 1642.05 -456.226 1649.66 -501.109C1661.37 -570.194 1700.54 -640.876 1693.2 -707.375C1682.14 -807.504 1760.69 -964.432 1595.48 -991.812C1438.61 -1017.81 1279.95 -843.861 1099.79 -805.722C962.661 -776.695 830.313 -848.167 701.68 -802.607C568.263 -755.354 530.857 -656.933 462.268 -579.926C408.453 -519.506 430.25 -445.015 339.792 -396.299C179.513 -309.982 -111.954 -316.944 -220.578 -212.181C-304.845 -130.91 -90.8917 -81.3208 -67.7796 -3.21885C-43.4684 78.9349 -194.304 210.128 -81.8978 256.454C44.1227 308.392 283.293 207.641 456.497 212.853C572.995 216.359 633.625 309.776 754.613 281.626C906.746 246.229 934.616 91.8713 1088.64 65.7724Z" fill="url(#paint0_linear)"/>
<g clip-path="url(#clip1)">
<path d="M697.806 1198C670.27 1198 647.949 1175.18 647.949 1147.04C647.949 1118.9 670.27 1096.08 697.806 1096.08C725.341 1096.08 747.663 1118.9 747.663 1147.04C747.663 1175.18 725.341 1198 697.806 1198Z" fill="#F2748A"/>
<path d="M744.258 1165.09C735.137 1192.18 703.141 1205.69 678.113 1193.45C704.702 1193.11 727.774 1185.71 744.258 1165.09Z" fill="#E9B9BE"/>
<path d="M577.699 1082.47C573.089 1082.47 568.668 1084.34 565.409 1087.68C562.149 1091.01 560.317 1095.53 560.317 1100.24C560.317 1115.4 631.453 1174.24 696.7 1174.24C761.947 1174.24 838.773 1117.2 838.773 1100.24C838.773 1095.53 836.942 1091.01 833.682 1087.68C830.423 1084.34 826.001 1082.47 821.392 1082.47H577.699Z" fill="#F2DADB"/>
<path d="M590.151 905.545C594.232 903.123 598.875 901.867 603.594 901.909C608.313 901.951 612.933 903.29 616.972 905.784C671.722 939.556 723.779 935.938 787.564 904.64C818.295 889.562 870.733 1021.06 870.733 1053.3C867.045 1176.43 528.358 1168.4 528.358 1053.3C528.358 1053.3 538.979 936.151 590.151 905.545Z" fill="#F2748A"/>
<path d="M870.647 1053.21C870.647 1020.95 818.27 889.437 787.478 904.539C771.498 912.505 752.064 920.056 744.959 921.815C741.603 922.632 780.803 923.725 811.226 954.569C845.042 988.844 870.647 1053.21 870.647 1053.21Z" fill="#D16179"/>
<path d="M661.225 1169.09C714.622 1187.02 803.654 1155.8 831.619 1112.98C764.578 1167.07 660.536 1170.65 661.225 1169.09Z" fill="#E9B9BE"/>
<path d="M686.289 1011.95H714.13C715.065 1011.99 715.978 1011.65 716.669 1011C717.36 1010.36 717.773 1009.46 717.817 1008.5V993.001C717.775 992.044 717.364 991.142 716.673 990.493C715.982 989.846 715.067 989.505 714.13 989.546H686.289C685.352 989.508 684.439 989.85 683.748 990.498C683.057 991.145 682.645 992.045 682.601 993.001V1008.5C682.648 1009.46 683.063 1010.36 683.752 1011C684.443 1011.65 685.354 1011.99 686.289 1011.95Z" fill="#F2748A"/>
<path d="M662.884 1076.68C687.321 1065.04 711.766 1065.04 736.219 1076.68C746.926 1076.68 755.616 1068.25 755.616 1057.83V986.721C755.616 976.331 746.926 967.875 736.219 967.875H662.884C652.165 967.875 643.475 976.305 643.475 986.721V1057.86C643.475 1068.2 652.165 1076.68 662.884 1076.68Z" fill="#F2DADB" stroke="#D16179" stroke-width="5" stroke-miterlimit="10"/>
<path d="M745.401 985.791H746.803C747.699 985.791 748.425 986.534 748.425 987.45V1013.57C748.425 1014.49 747.699 1015.23 746.803 1015.23H745.401C744.505 1015.23 743.779 1014.49 743.779 1013.57V987.45C743.779 986.534 744.505 985.791 745.401 985.791Z" fill="#E9B9BE"/>
<path d="M745.401 1018.75H746.803C747.699 1018.75 748.425 1019.49 748.425 1020.41V1030.03C748.425 1030.95 747.699 1031.69 746.803 1031.69H745.401C744.505 1031.69 743.779 1030.95 743.779 1030.03V1020.41C743.779 1019.49 744.505 1018.75 745.401 1018.75Z" fill="#E9B9BE"/>
<path d="M655.004 1033.45H656.405C657.302 1033.45 658.028 1034.19 658.028 1035.11V1061.23C658.028 1062.14 657.302 1062.88 656.405 1062.88H655.004C654.108 1062.88 653.382 1062.14 653.382 1061.23V1035.11C653.382 1034.19 654.108 1033.45 655.004 1033.45Z" fill="#E9B9BE"/>
<path d="M655.004 1016.32H656.405C657.302 1016.32 658.028 1017.06 658.028 1017.98V1027.61C658.028 1028.52 657.302 1029.26 656.405 1029.26H655.004C654.108 1029.26 653.382 1028.52 653.382 1027.61V1017.98C653.382 1017.06 654.108 1016.32 655.004 1016.32Z" fill="#E9B9BE"/>
<path d="M729.962 1057.95H738.039V1066.28H729.962V1057.95Z" fill="#FDB714"/>
<path d="M738.026 1057.95H746.102V1066.28H738.026V1057.95Z" fill="#F04F63"/>
<path d="M738.026 1049.62H746.102V1057.95H738.026V1049.62Z" fill="#63CDF5"/>
<path d="M719.761 1020.27V993.756C719.68 991.987 718.917 990.323 717.638 989.129C716.36 987.934 714.669 987.307 712.938 987.385H687.874C686.146 987.307 684.457 987.933 683.178 989.124C681.899 990.316 681.134 991.977 681.052 993.744V1019.91C681.07 1021.07 681.401 1022.2 682.009 1023.18C682.616 1024.16 683.476 1024.95 684.494 1025.46L690.923 1028.89C691.963 1029.41 692.838 1030.22 693.446 1031.22C694.055 1032.23 694.373 1033.39 694.365 1034.58L693.934 1050.7C693.951 1051.59 694.142 1052.46 694.496 1053.28C694.849 1054.09 695.358 1054.82 695.993 1055.43C696.628 1056.04 697.375 1056.51 698.191 1056.82C699.007 1057.13 699.874 1057.27 700.745 1057.23C701.616 1057.27 702.486 1057.13 703.305 1056.82C704.122 1056.51 704.872 1056.04 705.508 1055.43C706.144 1054.82 706.653 1054.09 707.007 1053.27C707.361 1052.45 707.551 1051.58 707.566 1050.68L707.075 1034.73C707.062 1033.56 707.369 1032.41 707.962 1031.41C708.555 1030.4 709.41 1029.59 710.431 1029.06L716.417 1025.77C717.41 1025.25 718.247 1024.46 718.836 1023.49C719.426 1022.52 719.745 1021.41 719.761 1020.27Z" fill="#F2748A"/>
<path d="M718.432 1011.92L682.207 1012.23L682.28 1004.47C682.28 1004.47 685.821 1008.08 689.877 1000.7C694.573 992.135 697.4 1007.66 701.321 1004.47C705.242 1001.28 706.533 985.778 711.351 1003.22C714.461 1014.52 717.584 999.812 718.002 1005.88L718.432 1011.92Z" fill="#F2DADB"/>
<path d="M714.56 1018.52V991.998C714.474 990.231 713.709 988.571 712.431 987.378C711.154 986.184 709.467 985.556 707.738 985.627H682.662C680.933 985.552 679.246 986.181 677.969 987.375C676.693 988.569 675.932 990.231 675.852 991.998V1018.17C675.872 1019.32 676.204 1020.45 676.811 1021.43C677.419 1022.4 678.278 1023.19 679.294 1023.7L685.722 1027.14C686.762 1027.66 687.638 1028.47 688.247 1029.48C688.856 1030.49 689.174 1031.65 689.164 1032.83L688.721 1048.95C688.741 1049.84 688.933 1050.72 689.288 1051.53C689.643 1052.34 690.153 1053.08 690.788 1053.68C691.424 1054.29 692.172 1054.77 692.988 1055.07C693.805 1055.38 694.674 1055.52 695.544 1055.48C696.415 1055.52 697.286 1055.39 698.104 1055.08C698.922 1054.77 699.671 1054.29 700.307 1053.68C700.943 1053.07 701.453 1052.34 701.807 1051.52C702.16 1050.71 702.35 1049.83 702.366 1048.94L701.874 1032.98C701.86 1031.81 702.167 1030.66 702.757 1029.66C703.348 1028.66 704.2 1027.85 705.217 1027.32L711.204 1024.01C712.199 1023.49 713.036 1022.71 713.628 1021.74C714.218 1020.77 714.541 1019.66 714.56 1018.52Z" stroke="#171518" stroke-miterlimit="10"/>
<path d="M679.502 1004.29C680.855 1004.62 683.068 1004.17 685.735 999.876C690.86 991.583 692.619 1006.71 696.637 1003.65C700.657 1000.58 702.92 985.515 706.472 1002.54C708.77 1013.53 712.765 999.285 712.778 1005.19V1007.11C712.723 1008.22 712.245 1009.25 711.446 1010C710.647 1010.74 709.592 1011.13 708.512 1011.08L680.634 1011.02C680.351 1011.02 680.07 1010.98 679.798 1010.91C679.275 1010.69 678.812 1010.35 678.446 1009.92C678.082 1009.48 677.829 1008.96 677.708 1008.39C677.695 1008.28 677.695 1008.16 677.708 1008.04L677.917 1005.24C677.95 1005.07 678.019 1004.9 678.12 1004.76C678.22 1004.61 678.35 1004.49 678.499 1004.4C678.649 1004.31 678.816 1004.25 678.989 1004.23C679.162 1004.21 679.337 1004.23 679.502 1004.29Z" stroke="#171518" stroke-miterlimit="10"/>
<path d="M581.673 779.025H816.44C828.306 779.025 837.925 789.026 837.925 801.362V811.472C837.925 823.809 828.306 833.809 816.44 833.809H581.673C569.808 833.809 560.189 823.809 560.189 811.472V801.362C560.189 789.026 569.808 779.025 581.673 779.025Z" fill="#D16179"/>
<path d="M697.901 901.044C713.156 901.096 791.192 899.566 812.808 854.09C814.597 850.355 815.186 846.149 815.186 841.975V769.661C815.186 765.481 814.601 761.287 812.808 757.545C790.571 710.855 708.398 710.961 698.419 710.961C688.179 710.961 606.627 711.066 584.495 757.545C582.704 761.28 582.116 765.487 582.116 769.66V841.974C582.116 846.155 582.701 850.348 584.495 854.09C605.541 898.353 680.163 900.991 697.901 901.044Z" fill="#F2748A"/>
<path d="M698.43 876.972C711.187 877.011 776.443 875.882 794.519 842.322C796.003 839.587 796.508 836.419 796.508 833.28V780.115C796.508 776.968 796.007 773.812 794.519 771.072C775.924 736.616 707.208 736.693 698.862 736.693C690.3 736.693 622.104 736.771 603.595 771.072C602.11 773.806 601.605 776.974 601.605 780.114V833.279C601.605 836.425 602.107 839.581 603.595 842.322C621.195 874.987 683.598 876.933 698.43 876.972Z" fill="#FFFFFD"/>
<path d="M639.537 708.988C641.699 704.616 646.507 702.295 651.479 701H745.822C750.794 702.295 755.603 704.616 757.765 708.988C766.032 725.665 736.205 773.215 698.651 773.215C661.096 773.215 631.27 725.665 639.537 708.988Z" fill="#D16179"/>
<path d="M721.325 791.453H726.01C729.71 791.453 732.709 794.571 732.709 798.418V822.997C732.709 826.843 729.71 829.962 726.01 829.962H721.325C717.625 829.962 714.625 826.843 714.625 822.997V798.418C714.625 794.571 717.625 791.453 721.325 791.453Z" fill="#231F20"/>
<path d="M673.1 791.453H677.786C681.486 791.453 684.485 794.571 684.485 798.418V822.997C684.485 826.843 681.486 829.962 677.786 829.962H673.1C669.4 829.962 666.401 826.843 666.401 822.997V798.418C666.401 794.571 669.4 791.453 673.1 791.453Z" fill="#231F20"/>
<path d="M673.109 816.027H677.841C681.578 816.027 684.606 819.102 684.606 822.895V847.132C684.606 850.925 681.578 854 677.841 854H673.109C669.373 854 666.344 850.925 666.344 847.132V822.895C666.344 819.102 669.373 816.027 673.109 816.027Z" fill="white"/>
<path d="M721.45 816.027H726.182C729.918 816.027 732.947 819.102 732.947 822.895V847.132C732.947 850.925 729.918 854 726.182 854H721.45C717.714 854 714.685 850.925 714.685 847.132V822.895C714.685 819.102 717.714 816.027 721.45 816.027Z" fill="white"/>
<path d="M747.872 887.816H752.739C755.883 887.816 758.431 890.421 758.431 893.633V907.995C758.431 911.207 755.883 913.811 752.739 913.811H747.872C744.729 913.811 742.181 911.207 742.181 907.995V893.633C742.181 890.421 744.729 887.816 747.872 887.816Z" fill="#D16179"/>
<path d="M644.593 888.908H649.461C652.604 888.908 655.152 891.513 655.152 894.726V909.086C655.152 912.3 652.604 914.903 649.461 914.903H644.593C641.45 914.903 638.902 912.3 638.902 909.086V894.726C638.902 891.513 641.45 888.908 644.593 888.908Z" fill="#F2748A"/>
<path d="M754.633 912.404C750.024 916.174 742.341 912.04 742.181 906.323C742.181 903.811 742.181 899.188 742.181 899.188C743.583 906.286 746.828 910.545 754.633 912.404Z" fill="#F7A9B1"/>
<path d="M651.354 913.497C646.745 917.265 639.062 913.131 638.902 907.428C638.902 904.915 638.902 900.291 638.902 900.291C640.304 907.377 643.549 911.674 651.354 913.497Z" fill="#E9B9BE"/>
<path d="M679.479 849.291L668.698 839.157L567.505 950.761C561.283 957.623 557.969 966.699 558.293 975.992C558.616 985.284 562.551 994.032 569.23 1000.31L580 1010.43L681.194 898.831C687.413 891.969 690.728 882.896 690.406 873.607C690.085 864.316 686.154 855.57 679.479 849.291Z" fill="#F2748A"/>
<path d="M687.366 861.182C695.363 874.864 691.713 889.521 680.886 901.227L605.36 982.878L604.377 981.934C598.425 975.876 696.612 885.921 687.366 861.182Z" fill="#D16179"/>
<path d="M824.016 986.727L814.735 996.875L717.811 897.756C711.85 891.661 708.419 883.317 708.27 874.56C708.122 865.804 711.27 857.352 717.021 851.064L726.293 840.925L823.227 940.052C829.186 946.147 832.619 954.491 832.767 963.249C832.915 972.005 829.768 980.457 824.016 986.745L824.016 986.727Z" fill="#F2748A"/>
<path d="M829.714 978.051C792.896 938.605 719.907 867.948 715.116 862.223C710.324 856.499 718.245 850.487 726.695 840.7L817.174 931.341C835.419 946.61 840.274 959.713 829.714 978.051Z" fill="#D16179"/>
<path d="M483.242 700.04C481.398 704.451 477.746 707.142 473.057 707.545C479.482 713.323 494.356 742.039 494.154 746.765C498.58 741.3 500.941 740.238 505.542 740.747C505.237 735.038 487.701 705.063 483.242 700.04Z" fill="#FEECA4"/>
<path d="M915.242 713.04C913.398 717.451 909.746 720.142 905.057 720.545C911.482 726.323 926.356 755.039 926.154 759.765C930.58 754.3 932.941 753.238 937.542 753.747C937.237 748.038 919.701 718.063 915.242 713.04Z" fill="#FAC7D0"/>
</g>
<path d="M1023.51 854.222C1018.76 853.77 1015.1 851.081 1013.33 846.723C1009.71 854.574 986.707 877.3 982.133 878.51C988.666 881.114 990.38 883.054 991.26 887.599C996.621 885.613 1020.04 859.971 1023.51 854.222Z" fill="#FEECA4"/>
<path d="M1070.51 342.222C1065.76 341.77 1062.1 339.081 1060.33 334.723C1056.71 342.574 1033.71 365.3 1029.13 366.51C1035.67 369.114 1037.38 371.054 1038.26 375.599C1043.62 373.613 1067.04 347.971 1070.51 342.222Z" fill="#FEECA4"/>
<path d="M1371.51 680.222C1366.76 679.77 1363.1 677.081 1361.33 672.723C1357.71 680.574 1334.71 703.3 1330.13 704.51C1336.67 707.114 1338.38 709.054 1339.26 713.599C1344.62 711.613 1368.04 685.971 1371.51 680.222Z" fill="#FFDD8F"/>
<path d="M440.176 830.4C433.027 835.227 432.928 833.547 426.031 833.045C436.719 851.797 441.246 861.676 442.985 874.065C447.092 868.631 451.906 868.568 454.97 869.32C450.812 859.477 441.303 842.638 440.176 830.4Z" fill="#B1B9E4"/>
<path d="M1362.18 818.4C1355.03 823.227 1354.93 821.547 1348.03 821.045C1358.72 839.797 1363.25 849.676 1364.99 862.065C1369.09 856.631 1373.91 856.568 1376.97 857.32C1372.81 847.477 1363.3 830.638 1362.18 818.4Z" fill="#B1B9E4"/>
<path d="M1238.18 354.4C1231.03 359.227 1230.93 357.547 1224.03 357.045C1234.72 375.797 1239.25 385.676 1240.99 398.065C1245.09 392.631 1249.91 392.568 1252.97 393.32C1248.81 383.477 1239.3 366.638 1238.18 354.4Z" fill="#B1B9E4"/>
<path d="M147.889 1147.93C221.277 1147.93 280.77 1142.31 280.77 1135.36C280.77 1128.42 221.277 1122.8 147.889 1122.8C74.5014 1122.8 15.0088 1128.42 15.0088 1135.36C15.0088 1142.31 74.5014 1147.93 147.889 1147.93Z" fill="#ADCFBC"/>
<path d="M144.219 1091.75C171.573 1091.75 193.759 1068.55 193.759 1040C193.759 1011.45 171.573 988.252 144.219 988.252C116.865 988.252 94.6787 1011.45 94.6787 1040C94.6787 1068.55 116.85 1091.75 144.219 1091.75Z" fill="#F2F4FA"/>
<path d="M263.475 974.22C265.751 974.222 268.004 974.687 270.098 975.586C272.192 976.485 274.084 977.801 275.661 979.454C278.91 982.868 280.725 987.412 280.727 992.14C280.727 1007.5 210.146 1067.07 145.424 1067.07C80.7016 1067.07 4.46789 1009.41 4.46789 992.14C4.45113 987.403 6.26207 982.844 9.51882 979.425C11.0936 977.766 12.9845 976.443 15.0784 975.536C17.1723 974.629 19.4263 974.156 21.7056 974.146L263.475 974.22Z" fill="#F2F4FA"/>
<path d="M58.5588 843.117L61.8184 846.902L-32.7543 936.014C-36.6107 939.689 -41.1699 942.534 -46.1541 944.377C-51.1382 946.219 -56.4428 947.021 -61.7445 946.732C-67.0461 946.442 -72.2338 945.069 -76.9912 942.695C-81.7485 940.321 -85.9759 936.996 -89.4156 932.924L-92.6753 929.109L1.91214 839.997C5.76725 836.321 10.3258 833.476 15.3095 831.633C20.2932 829.791 25.5975 828.99 30.8986 829.281C36.1998 829.571 41.3865 830.947 46.1422 833.323C50.8979 835.699 55.1227 839.027 58.5588 843.102V843.117Z" fill="#F2F4FA"/>
<path d="M42.3178 833.568C2.98224 868.402 -37.9684 904.05 -73.0459 944.547C-80.2405 942.049 -87.5673 935.528 -93 929.2L-2.18615 843.178C3.67895 837.605 10.944 833.751 18.8251 832.03C26.6465 830.345 34.7788 830.877 42.3178 833.568Z" fill="#B8C3FD"/>
<path d="M250.935 794.457C246.923 792.002 242.311 790.721 237.616 790.761C232.921 790.8 228.33 792.157 224.359 794.679C170.032 828.937 118.569 825.27 55.4029 793.541C24.9065 778.208 -26.9536 911.617 -26.9536 944.352C-23.3563 1069.3 312.222 1061.16 312.222 944.352C312.119 944.337 301.562 825.507 250.935 794.457Z" fill="#F2F4FA"/>
<path d="M375.021 745.947L379 748.904L305.424 857.547C302.444 862 298.61 865.808 294.147 868.746C289.683 871.684 284.681 873.693 279.435 874.654C274.227 875.578 268.886 875.424 263.739 874.201C258.592 872.979 253.746 870.713 249.497 867.542L245.518 864.585L319.094 755.942C322.073 751.489 325.908 747.681 330.371 744.743C334.834 741.805 339.836 739.796 345.083 738.835C350.291 737.911 355.632 738.065 360.779 739.288C365.926 740.51 370.772 742.776 375.021 745.947Z" fill="#F2F4FA"/>
<path d="M178.533 968.396C154.306 956.568 130.079 956.568 105.852 968.396C100.792 968.436 95.924 966.45 92.3172 962.877C88.7104 959.303 86.6603 954.433 86.6177 949.338V877.259C86.6311 874.731 87.1396 872.23 88.1141 869.901C89.0886 867.571 90.5098 865.458 92.2965 863.682C94.0832 861.906 96.2002 860.503 98.5263 859.552C100.852 858.601 103.342 858.122 105.852 858.141H178.533C183.593 858.102 188.461 860.087 192.068 863.661C195.675 867.235 197.725 872.104 197.767 877.2V949.279C197.754 951.807 197.245 954.307 196.271 956.637C195.297 958.966 193.875 961.08 192.089 962.856C190.302 964.631 188.185 966.035 185.859 966.986C183.533 967.936 181.043 968.416 178.533 968.396Z" fill="#F1F3FF" stroke="#C7C9F4" stroke-width="5" stroke-miterlimit="10"/>
<path d="M96.5429 876.281H96.0143C95.7347 876.279 95.4574 876.333 95.1984 876.439C94.9393 876.545 94.7036 876.701 94.5046 876.899C94.3055 877.096 94.1471 877.332 94.0383 877.591C93.9295 877.85 93.8725 878.129 93.8706 878.41V903.767C93.8706 904.05 93.9262 904.329 94.0342 904.589C94.1423 904.849 94.3007 905.085 94.5002 905.284C94.6996 905.482 94.9362 905.638 95.1962 905.743C95.4561 905.848 95.7342 905.9 96.0143 905.897H96.5429C96.8238 905.9 97.1026 905.848 97.3633 905.743C97.6241 905.638 97.8615 905.482 98.0622 905.284C98.2628 905.086 98.4226 904.851 98.5323 904.59C98.642 904.33 98.6994 904.05 98.7013 903.767V878.41C98.6936 877.84 98.4623 877.297 98.0579 876.898C97.6536 876.499 97.109 876.277 96.5429 876.281Z" fill="#DCE1FE"/>
<path d="M96.543 909.18H96.0143C95.4458 909.18 94.9005 909.407 94.4985 909.812C94.0964 910.217 93.8706 910.766 93.8706 911.338V920.21C93.8706 920.493 93.9262 920.772 94.0341 921.034C94.142 921.295 94.3001 921.532 94.4994 921.731C94.6986 921.93 94.9351 922.088 95.1951 922.195C95.4551 922.302 95.7335 922.356 96.0143 922.354H96.543C97.1065 922.358 97.649 922.138 98.0529 921.742C98.4569 921.347 98.6898 920.807 98.7014 920.239V911.368C98.7053 911.081 98.6523 910.796 98.5454 910.529C98.4385 910.263 98.2798 910.021 98.0788 909.817C97.8778 909.613 97.6384 909.452 97.3747 909.343C97.1109 909.233 96.8282 909.178 96.543 909.18Z" fill="#DCE1FE"/>
<path d="M186.316 923.992H185.861C185.34 924.048 184.862 924.307 184.527 924.713C184.193 925.119 184.029 925.64 184.07 926.166V952.232C184.029 952.758 184.193 953.279 184.527 953.685C184.862 954.091 185.34 954.35 185.861 954.406H186.316C186.837 954.35 187.315 954.091 187.65 953.685C187.985 953.279 188.149 952.758 188.107 952.232V926.151C188.145 925.627 187.979 925.11 187.645 924.707C187.31 924.305 186.834 924.048 186.316 923.992Z" fill="#DCE1FE"/>
<path d="M186.316 906.707H185.861C185.341 906.76 184.863 907.015 184.528 907.418C184.193 907.822 184.029 908.341 184.07 908.866V917.737C184.029 918.26 184.194 918.777 184.529 919.179C184.864 919.58 185.343 919.832 185.861 919.881H186.316C186.834 919.832 187.313 919.58 187.648 919.179C187.983 918.777 188.148 918.26 188.107 917.737V908.866C188.148 908.341 187.984 907.822 187.649 907.418C187.314 907.015 186.836 906.76 186.316 906.707Z" fill="#DCE1FE"/>
<path d="M-26.9536 944.547C-26.9536 911.797 24.9947 778.284 55.5205 793.632C71.334 801.749 90.642 809.378 97.6898 811.152C101.008 811.995 62.1571 813.089 31.9837 844.42C-1.5668 879.21 -26.9536 944.547 -26.9536 944.547Z" fill="#B8C3FD"/>
<path d="M361.277 736.899C344.993 730.985 330.31 738.259 320.355 752.971L250.92 855.493L252.168 856.38C259.906 861.733 333.086 732.005 361.277 736.899Z" fill="#B8C3FD"/>
<path d="M97.8945 1058.04C106.998 1085.79 139.007 1099.65 163.967 1087.09C137.391 1086.75 114.354 1079.17 97.8945 1058.04Z" fill="#B1B9E4"/>
<path d="M180.926 1061.88C127.906 1079.94 39.5437 1048.58 11.7783 1005.4C78.2626 1059.84 181.528 1063.45 180.926 1061.88Z" fill="#B1B9E4"/>
<path d="M166.359 911.646H143.806V934.682H166.359V911.646Z" fill="#FCB614"/>
<path d="M143.807 911.646H122.047V934.682H143.807V911.646Z" fill="#EF4E63"/>
<path d="M143.807 887.797H122.047V911.646H143.807V887.797Z" fill="#63CCF5"/>
<path d="M93.1221 776.82H91.3601C89.4207 776.863 87.5769 777.677 86.2315 779.084C84.8862 780.492 84.1487 782.378 84.1802 784.331V795.642C84.1526 797.593 84.8919 799.475 86.2368 800.88C87.5817 802.284 89.4233 803.096 91.3601 803.138H93.1074C95.0443 803.096 96.8858 802.284 98.2307 800.88C99.5757 799.475 100.315 797.593 100.287 795.642V784.331C100.319 782.381 99.5834 780.496 98.2412 779.089C96.899 777.683 95.059 776.867 93.1221 776.82Z" fill="#F2F4FA"/>
<path d="M195.418 777.602H193.67C191.734 777.644 189.892 778.456 188.547 779.86C187.202 781.265 186.463 783.147 186.49 785.098V796.423C186.463 798.374 187.202 800.257 188.547 801.661C189.892 803.065 191.734 803.877 193.67 803.92H195.418C197.355 803.877 199.196 803.065 200.541 801.661C201.886 800.257 202.625 798.374 202.598 796.423V785.098C202.625 783.147 201.886 781.265 200.541 779.86C199.196 778.456 197.355 777.644 195.418 777.602Z" fill="#F2F4FA"/>
<path d="M202.579 789.121V798.569C202.625 799.275 202.535 799.982 202.315 800.654C202.085 801.312 201.731 801.919 201.272 802.443C200.829 802.936 200.282 803.325 199.672 803.581C199.081 803.842 198.436 803.953 197.793 803.907H192.933C197.881 802.354 200.935 797.12 202.579 789.121Z" fill="#B8C3FD"/>
<path d="M84.2063 787.48V797.52C84.1631 798.249 84.2476 798.979 84.4559 799.678C84.671 800.363 85.0205 800.996 85.4837 801.541C85.9204 802.068 86.4668 802.492 87.0841 802.783C87.6803 803.065 88.3352 803.197 88.9929 803.168H93.8676C88.9489 801.497 85.8361 795.879 84.2063 787.48Z" fill="#B1B9E4"/>
<path d="M31.629 669.3H254.339C257.785 669.267 261.203 669.919 264.397 671.219C267.592 672.519 270.5 674.441 272.956 676.875C275.411 679.309 277.365 682.207 278.706 685.403C280.047 688.599 280.748 692.03 280.769 695.5V697.452C280.74 700.916 280.033 704.341 278.689 707.53C277.345 710.719 275.39 713.611 272.935 716.038C270.48 718.466 267.575 720.383 264.384 721.679C261.193 722.975 257.78 723.625 254.339 723.592H31.629C28.1873 723.625 24.7729 722.975 21.5811 721.678C18.3894 720.381 15.483 718.463 13.0282 716.033C10.5734 713.604 8.61847 710.711 7.27516 707.52C5.93185 704.329 5.22657 700.903 5.19971 697.437V695.5C5.22081 692.03 5.92179 688.599 7.26252 685.403C8.60325 682.207 10.5574 679.309 13.0127 676.875C15.4681 674.441 18.3764 672.519 21.571 671.219C24.7656 669.919 28.1836 669.267 31.629 669.3Z" fill="#B8C3FD"/>
<path d="M144.218 790.126C129.08 790.126 51.716 788.648 30.2496 743.611C28.5791 739.854 27.7712 735.765 27.8857 731.65V660.014C27.7712 655.899 28.5791 651.81 30.2496 648.053C52.274 601.789 133.808 601.893 143.705 601.893C153.865 601.893 234.739 602.011 256.689 648.053C258.367 651.808 259.175 655.898 259.053 660.014V731.738C259.175 735.854 258.367 739.944 256.689 743.7C235.752 787.524 161.735 790.126 144.218 790.126Z" fill="#F2F4FA"/>
<path d="M143.618 766.337C130.962 766.337 66.2392 765.257 48.3114 732.005C46.9329 729.258 46.2567 726.209 46.3439 723.133V670.364C46.2592 667.289 46.9353 664.24 48.3114 661.493C66.7678 627.353 134.941 627.486 143.192 627.486C151.444 627.486 219.323 627.56 237.677 661.493C239.059 664.238 239.735 667.288 239.645 670.364V723.119C239.737 726.195 239.061 729.246 237.677 731.99C220.219 764.37 158.331 766.307 143.618 766.337Z" fill="#FFFFFD"/>
<path d="M202.026 599.91C199.883 595.578 195.111 593.286 190.192 592H96.6179C91.6844 593.286 86.9125 595.578 84.7688 599.91C76.5757 616.44 106.147 663.488 143.398 663.488C180.648 663.488 210.293 616.44 202.026 599.91Z" fill="#B8C3FD"/>
<path d="M117.787 681.614H119.256C120.328 681.606 121.391 681.811 122.384 682.217C123.378 682.623 124.282 683.222 125.045 683.98C125.809 684.737 126.417 685.639 126.834 686.634C127.252 687.628 127.47 688.696 127.478 689.775V711.613C127.459 713.791 126.582 715.872 125.04 717.399C123.499 718.927 121.418 719.776 119.256 719.76H117.787C116.716 719.77 115.653 719.567 114.66 719.162C113.667 718.758 112.762 718.16 111.998 717.404C111.235 716.647 110.627 715.746 110.209 714.753C109.791 713.759 109.573 712.692 109.565 711.613V689.775C109.571 688.695 109.788 687.627 110.205 686.631C110.622 685.636 111.229 684.733 111.993 683.975C112.757 683.217 113.662 682.618 114.656 682.213C115.651 681.807 116.715 681.604 117.787 681.614Z" fill="#231F20"/>
<path d="M165.67 681.613H167.138C168.21 681.606 169.273 681.811 170.267 682.217C171.26 682.623 172.164 683.222 172.928 683.979C173.691 684.737 174.299 685.639 174.717 686.634C175.134 687.628 175.353 688.696 175.36 689.775V711.613C175.341 713.791 174.464 715.872 172.923 717.399C171.381 718.927 169.301 719.776 167.138 719.76H165.67C163.507 719.776 161.427 718.927 159.885 717.399C158.343 715.872 157.467 713.791 157.447 711.613V689.775C157.455 688.696 157.674 687.628 158.091 686.634C158.508 685.639 159.116 684.737 159.88 683.979C160.643 683.222 161.548 682.623 162.541 682.217C163.534 681.811 164.598 681.606 165.67 681.613Z" fill="#231F20"/>
<path d="M735.251 367.829C730.54 368.642 726.309 367.005 723.452 363.266C722.026 371.789 705.785 399.753 701.689 402.121C708.677 402.921 710.839 404.342 712.881 408.498C717.533 405.175 733.408 374.288 735.251 367.829Z" fill="#FAC7D0"/>
<path d="M1356.06 262.829C1360.77 263.642 1365 262.005 1367.86 258.266C1369.29 266.789 1385.53 294.753 1389.62 297.121C1382.64 297.921 1380.47 299.342 1378.43 303.498C1373.78 300.175 1357.91 269.288 1356.06 262.829Z" fill="#FAC7D0"/>
<path d="M886.933 281.106C886.103 286.335 881.339 286.061 873.114 285.075L907.059 311.17C908.215 306.728 917.173 307.854 924.993 308.503C914.882 303.985 899.197 291.669 886.933 281.106Z" fill="#9ECFC0"/>
<path d="M625.933 600.106C625.103 605.335 620.339 605.061 612.114 604.075L646.059 630.17C647.215 625.728 656.173 626.854 663.993 627.503C653.882 622.985 638.197 610.669 625.933 600.106Z" fill="#9ECFC0"/>
<path d="M1371.93 542.106C1371.1 547.335 1366.34 547.061 1358.11 546.075L1392.06 572.17C1393.21 567.728 1402.17 568.854 1409.99 569.503C1399.88 564.985 1384.2 552.669 1371.93 542.106Z" fill="#9ECFC0"/>
<path d="M1125.93 860.106C1125.1 865.335 1120.34 865.061 1112.11 864.075L1146.06 890.17C1147.21 885.728 1156.17 886.854 1163.99 887.503C1153.88 882.985 1138.2 870.669 1125.93 860.106Z" fill="#9ECFC0"/>
<path d="M297.242 567.04C295.398 571.451 291.746 574.142 287.057 574.545C293.482 580.323 308.356 609.039 308.154 613.765C312.58 608.3 314.941 607.238 319.542 607.747C319.237 602.038 301.701 572.063 297.242 567.04Z" fill="#FEECA4"/>
<path d="M66.5215 518.218C61.7625 517.766 58.1085 515.077 56.3324 510.719C52.7217 518.57 29.7142 541.296 25.1405 542.506C31.6734 545.11 33.3876 547.05 34.2673 551.595C39.6287 549.609 63.0491 523.967 66.5215 518.218Z" fill="#FFDD8F"/>
<path d="M62.2509 385.829C57.54 386.642 53.3086 385.005 50.4517 381.266C49.0265 389.789 32.7854 417.753 28.6893 420.121C35.6765 420.921 37.8394 422.342 39.8805 426.498C44.5333 423.175 60.4079 392.288 62.2509 385.829Z" fill="#FAC7D0"/>
<path d="M441.342 575.04C443.185 579.451 446.838 582.142 451.526 582.545C445.101 588.323 430.228 617.039 430.43 621.765C426.004 616.3 423.643 615.238 419.041 615.747C419.347 610.038 436.882 580.063 441.342 575.04Z" fill="#FAC7D0"/>
<path d="M145.933 296.106C145.103 301.335 140.339 301.061 132.114 300.075L166.059 326.17C167.215 321.728 176.173 322.854 183.993 323.503C173.882 318.985 158.197 306.669 145.933 296.106Z" fill="#9ECFC0"/>
<path d="M192.176 491.4C185.027 496.227 184.928 494.547 178.031 494.045C188.719 512.797 193.246 522.676 194.985 535.065C199.092 529.631 203.906 529.568 206.97 530.32C202.812 520.477 193.303 503.638 192.176 491.4Z" fill="#B1B9E4"/>
<defs>
<linearGradient id="paint0_linear" x1="1610" y1="-107" x2="-42" y2="53.0006" gradientUnits="userSpaceOnUse">
<stop stop-color="#64C0C1"/>
<stop offset="1" stop-color="#B8C3FD"/>
</linearGradient>
<clipPath id="clip0">
<rect width="437" height="455" fill="white" transform="translate(649.572 507) rotate(179.928)"/>
</clipPath>
<clipPath id="clip1">
<rect width="492" height="497" fill="white" transform="matrix(-1 0 0 1 937 701)"/>
</clipPath>
</defs>
</svg>
