<svg width="24" height="24" viewBox="0 0 24 24" fill="none" xmlns="http://www.w3.org/2000/svg">
<path fill-rule="evenodd" clip-rule="evenodd" d="M20 23.2008V0.800798L4 0.800781V23.2008L12 16.8008L20 23.2008Z" fill="#151316"/>
<path d="M20 23.2008L19.6877 23.5912C19.8377 23.7113 20.0434 23.7347 20.2166 23.6514C20.3898 23.5682 20.5 23.393 20.5 23.2008H20ZM20 0.800798H20.5V0.300799L20 0.300798V0.800798ZM4 0.800781L4 0.300781L3.5 0.300781V0.800781H4ZM4 23.2008H3.5C3.5 23.393 3.61017 23.5682 3.78341 23.6514C3.95664 23.7347 4.16226 23.7113 4.31235 23.5912L4 23.2008ZM12 16.8008L12.3123 16.4104C12.1297 16.2643 11.8703 16.2643 11.6877 16.4104L12 16.8008ZM20.5 23.2008V0.800798H19.5V23.2008H20.5ZM3.5 0.800781V23.2008H4.5V0.800781H3.5ZM4.31235 23.5912L12.3123 17.1912L11.6877 16.4104L3.68765 22.8104L4.31235 23.5912ZM11.6877 17.1912L19.6877 23.5912L20.3123 22.8104L12.3123 16.4104L11.6877 17.1912ZM20 0.300798L4 0.300781L4 1.30078L20 1.3008L20 0.300798Z" fill="#151316"/>
</svg>
