<svg width="20" height="20" viewBox="0 0 20 20" fill="none" xmlns="http://www.w3.org/2000/svg">
<path d="M10 6.66667C8.15905 6.66667 6.66667 8.15905 6.66667 10C6.66667 11.841 8.15905 13.3333 10 13.3333C11.841 13.3333 13.3333 11.841 13.3333 10C13.3333 8.15905 11.841 6.66667 10 6.66667Z" fill="white"/>
<path fill-rule="evenodd" clip-rule="evenodd" d="M6 0C2.68629 0 0 2.68629 0 6V14C0 17.3137 2.68629 20 6 20H14C17.3137 20 20 17.3137 20 14V6C20 2.68629 17.3137 0 14 0H6ZM5.33333 10C5.33333 7.42267 7.42267 5.33333 10 5.33333C12.5773 5.33333 14.6667 7.42267 14.6667 10C14.6667 12.5773 12.5773 14.6667 10 14.6667C7.42267 14.6667 5.33333 12.5773 5.33333 10ZM14.6667 5.33333H16V4H14.6667V5.33333Z" fill="white"/>
</svg>
