<svg width="20" height="20" viewBox="0 0 20 20" fill="none" xmlns="http://www.w3.org/2000/svg">
<path fill-rule="evenodd" clip-rule="evenodd" d="M0 2C0 0.895431 0.89543 0 2 0H18C19.1046 0 20 0.89543 20 2V18C20 19.1046 19.1046 20 18 20H2C0.895431 20 0 19.1046 0 18V2ZM6.66667 6.66667H5.33333V5.33333H6.66667V6.66667ZM5.33333 14.6667V8H6.66667V14.6667H5.33333ZM11.3333 9.33333C10.2288 9.33333 9.33333 10.2288 9.33333 11.3333V14.6667H8V8H9.33333V8.66642C9.89044 8.24796 10.5829 8 11.3333 8C13.1743 8 14.6667 9.49238 14.6667 11.3333V14.6667H13.3333V11.3333C13.3333 10.2288 12.4379 9.33333 11.3333 9.33333Z" fill="white"/>
</svg>
