<svg width="24" height="24" viewBox="0 0 24 24" fill="none" xmlns="http://www.w3.org/2000/svg">
<path d="M20.2684 3.45149L20.4711 3.64072L20.7389 3.56901C21.543 3.35373 22.3257 2.88496 22.9425 2.19937C23.0231 2.1097 23.1496 2.07706 23.2636 2.11651L23.4267 1.64516L23.2636 2.11651C23.3776 2.15596 23.4569 2.25982 23.4648 2.38016C23.551 3.67981 23.4843 4.61169 23.2084 5.38946C22.9637 6.07926 22.5628 6.62379 22.0115 7.18406L21.868 7.33V7.53473V8.3C21.868 15.8107 15.7886 21.9 8.28847 21.9L8.21092 21.9C5.66516 21.9002 3.09027 21.8899 0.633474 20.2495L0.356922 20.6637L0.633473 20.2495C0.523563 20.1761 0.474622 20.0395 0.512965 19.913C0.551309 19.7865 0.667902 19.7 0.800062 19.7C3.64716 19.7 6.0717 18.487 7.50523 17.4711L8.23852 16.9514L7.41032 16.6024C4.4584 15.3583 2.42692 13.5036 1.42401 11.2207C0.281187 8.61933 0.502593 5.52422 2.12918 2.26601C2.18251 2.1592 2.29408 2.09417 2.4133 2.10042C2.53252 2.10667 2.63668 2.18301 2.67854 2.29481L3.1468 2.11949L2.67855 2.29481C3.41213 4.25405 6.10163 8.07828 11.1443 8.46797L11.6828 8.50959V7.96946V7.26576C11.6828 4.4132 13.9918 2.10001 16.841 2.10001C18.1658 2.10001 19.3707 2.61337 20.2684 3.45149Z" stroke="#64C0C1"/>
</svg>
