<svg width="24" height="24" viewBox="0 0 24 24" fill="none" xmlns="http://www.w3.org/2000/svg">
<path d="M23.1662 2.40039L23.6651 2.36731C23.6518 2.16674 23.5197 1.99364 23.3297 1.92789C23.1398 1.86215 22.9289 1.91655 22.7945 2.06599L23.1662 2.40039ZM22.0687 7.13464C22.0687 6.85849 21.8448 6.63464 21.5687 6.63464C21.2925 6.63464 21.0687 6.85849 21.0687 7.13464H22.0687ZM11.9835 7.26614H11.4835V7.26614L11.9835 7.26614ZM11.9835 8.80039L12.4835 8.80039V8.80039L11.9835 8.80039ZM0.800781 20.0004V19.5004C0.580514 19.5004 0.386192 19.6445 0.322287 19.8553C0.258382 20.0661 0.339948 20.2939 0.523135 20.4162L0.800781 20.0004ZM2.39831 2.40039L2.86657 2.22507C2.7968 2.03873 2.62319 1.91149 2.42449 1.90108C2.2258 1.89066 2.03983 1.99904 1.95096 2.17706L2.39831 2.40039ZM8.78843 16.8004L9.14226 17.1537C9.26462 17.0311 9.31486 16.854 9.27504 16.6854C9.23523 16.5169 9.11103 16.381 8.94677 16.3261L8.78843 16.8004ZM20.3465 3.9578L19.9756 4.29314L20.1558 4.49239L20.4213 4.45216L20.3465 3.9578ZM22.6673 2.43347C22.7508 3.69303 22.6771 4.49667 22.4551 5.12238C22.2369 5.73763 21.8575 6.2311 21.2227 6.83938L21.9146 7.5614C22.5999 6.90471 23.1045 6.28286 23.3976 5.4567C23.687 4.64099 23.752 3.67713 23.6651 2.36731L22.6673 2.43347ZM22.0687 8.30038V7.13464H21.0687V8.30038H22.0687ZM11.4835 7.26614L11.4835 8.80039L12.4835 8.80039L12.4835 7.26614L11.4835 7.26614ZM11.4835 8.80039L11.4835 9.60039L12.4835 9.60039L12.4835 8.80039L11.4835 8.80039ZM16.8417 1.90039C13.8817 1.90039 11.4835 4.30345 11.4835 7.26614H12.4835C12.4835 4.85428 14.4355 2.90039 16.8417 2.90039V1.90039ZM21.0687 8.30038C21.0687 15.3704 15.3464 21.1004 8.28919 21.1004V22.1004C15.9001 22.1004 22.0687 15.9212 22.0687 8.30038H21.0687ZM1.93006 2.57571C2.77297 4.82695 5.9519 9.30039 11.9835 9.30039V8.30039C6.51288 8.30039 3.62119 4.2405 2.86657 2.22507L1.93006 2.57571ZM1.95096 2.17706C0.305161 5.47375 0.0690007 8.63234 1.24162 11.3015C2.4125 13.9667 4.94421 16.0441 8.6301 17.2747L8.94677 16.3261C5.44377 15.1567 3.18289 13.2341 2.15716 10.8993C1.13318 8.56845 1.2964 5.72703 2.84566 2.62372L1.95096 2.17706ZM8.43461 16.4471C7.43312 17.4502 4.46466 19.5004 0.800781 19.5004V20.5004C4.80505 20.5004 8.01374 18.284 9.14226 17.1537L8.43461 16.4471ZM20.7173 3.62246C19.7617 2.56561 18.379 1.90039 16.8417 1.90039V2.90039C18.0844 2.90039 19.2014 3.43691 19.9756 4.29314L20.7173 3.62246ZM20.4213 4.45216C21.5668 4.27868 22.6919 3.67521 23.5379 2.73479L22.7945 2.06599C22.0973 2.841 21.1793 3.32597 20.2716 3.46344L20.4213 4.45216ZM0.523135 20.4162C3.06243 22.1117 5.72426 22.1004 8.28919 22.1004V21.1004C5.69122 21.1004 3.33172 21.0891 1.07843 19.5846L0.523135 20.4162Z" fill="#151316"/>
</svg>
