<svg width="20" height="20" viewBox="0 0 20 20" fill="none" xmlns="http://www.w3.org/2000/svg">
<path d="M19.9698 1.95657C19.9521 1.68915 19.7759 1.45834 19.5226 1.37068C19.2693 1.28302 18.9882 1.35555 18.809 1.55481C18.3482 2.06702 17.7657 2.4141 17.1747 2.57235C16.3526 1.80486 15.248 1.33401 14.0342 1.33401C11.4291 1.33401 9.31898 3.44885 9.31898 6.05547V6.64188C5.33065 6.33367 3.19784 3.30396 2.62233 1.76691C2.52931 1.51846 2.29783 1.34882 2.0329 1.33493C1.76797 1.32103 1.52002 1.46555 1.40153 1.7029C0.00589085 4.49849 -0.209143 7.20994 0.805198 9.51882C1.69376 11.5414 3.48074 13.1525 6.01344 14.2199C4.86239 15.0357 2.92505 16.0007 0.666718 16.0007C0.373028 16.0007 0.113933 16.1929 0.028726 16.4739C-0.056481 16.755 0.052274 17.0587 0.296523 17.2218C2.462 18.6677 4.73153 18.6675 6.84246 18.6674L6.90706 18.6673C13.3879 18.6673 18.64 13.4057 18.64 6.91733V6.27961C19.1245 5.78711 19.5018 5.28295 19.733 4.63119C19.991 3.90393 20.043 3.06065 19.9698 1.95657Z" fill="white"/>
</svg>
