<svg width="529" height="407" viewBox="0 0 529 407" fill="none" xmlns="http://www.w3.org/2000/svg">
<path d="M301.24 96.6694C326 111.299 353.49 120.999 357.46 139.849C361.46 158.539 342.28 186.559 333.96 209.849C325.64 233.139 328.36 251.619 323.66 269.069C318.77 286.519 306.3 302.739 289.85 308.909C273.4 315.079 252.6 311.199 235.61 304.859C218.8 298.689 205.42 290.229 186.61 285.289C167.61 280.529 143.22 279.289 138.34 268.189C133.45 256.909 148.1 235.759 144.12 212.139C140.12 188.699 117.36 162.959 115.19 139.699C112.84 116.429 131.1 95.6294 154.06 79.9394C176.84 64.2494 204.5 53.4994 229.27 58.0794C254.23 62.4694 276.47 81.9994 301.24 96.6694Z" fill="#FFDE4B"/>
<path d="M52.7201 310.069C47.2102 315.579 44.1148 323.052 44.1148 330.844C44.1148 338.636 47.2102 346.109 52.7201 351.619C58.2299 357.129 65.7029 360.225 73.4951 360.225C81.2872 360.225 88.7602 357.129 94.2701 351.619L99.9701 345.909L141.07 386.999L195.86 332.209L188.77 325.119H153.19V265.679C142.524 263.136 133.027 257.071 126.232 248.465C119.437 239.859 115.741 229.214 115.741 218.249C115.741 207.284 119.437 196.639 126.232 188.033C133.027 179.427 142.524 173.363 153.19 170.819V151.659L141.07 139.529L100 180.619L93.3501 173.999C90.6368 171.205 87.395 168.978 83.8131 167.448C80.2313 165.917 76.3809 165.115 72.486 165.086C68.5911 165.058 64.7294 165.804 61.1256 167.282C57.5217 168.759 54.2477 170.939 51.4938 173.693C48.74 176.448 46.5613 179.722 45.0846 183.326C43.6078 186.931 42.8625 190.793 42.892 194.687C42.9214 198.582 43.725 202.432 45.256 206.014C46.787 209.595 49.0149 212.837 51.8101 215.549L58.4301 222.169L17.3301 263.269L58.4301 304.359L52.7201 310.069Z" fill="#64C0C1"/>
<path d="M230.68 305.75V296.39C230.68 288.597 233.776 281.125 239.285 275.615C244.795 270.105 252.268 267.01 260.06 267.01C267.852 267.01 275.325 270.105 280.835 275.615C286.345 281.125 289.44 288.597 289.44 296.39V305.75H347.55V247.64H339.48C332.698 247.63 326.127 245.277 320.879 240.981C315.631 236.684 312.028 230.707 310.68 224.06C309.465 222.368 308.811 220.337 308.811 218.255C308.811 216.172 309.465 214.141 310.68 212.45C312.029 205.803 315.632 199.827 320.88 195.532C326.128 191.237 332.699 188.887 339.48 188.88H347.55V130.76H289.44V121.4C289.44 113.607 286.345 106.135 280.835 100.625C275.325 95.1149 267.852 92.0195 260.06 92.0195C252.268 92.0195 244.795 95.1149 239.285 100.625C233.776 106.135 230.68 113.607 230.68 121.4V130.76H172.57V188.88H164.5C160.642 188.88 156.821 189.639 153.257 191.116C149.692 192.592 146.454 194.757 143.725 197.485C140.997 200.213 138.833 203.452 137.357 207.016C135.88 210.581 135.12 214.401 135.12 218.26C135.12 222.118 135.88 225.938 137.357 229.503C138.833 233.067 140.997 236.306 143.725 239.034C146.454 241.762 149.692 243.927 153.257 245.403C156.821 246.88 160.642 247.64 164.5 247.64H172.57V305.75H230.68Z" fill="#64C0C1"/>
<path d="M317.38 340.999C322.482 341.091 327.495 339.661 331.782 336.893C336.069 334.125 339.434 330.143 341.45 325.455C343.465 320.767 344.04 315.585 343.1 310.57C342.16 305.554 339.748 300.932 336.172 297.292C332.596 293.652 328.017 291.159 323.019 290.131C318.021 289.102 312.83 289.585 308.107 291.518C303.384 293.45 299.344 296.745 296.5 300.982C293.656 305.219 292.139 310.207 292.14 315.309C292.109 318.654 292.738 321.971 293.99 325.073C295.243 328.174 297.093 330.998 299.437 333.384C301.781 335.769 304.572 337.67 307.651 338.976C310.729 340.283 314.035 340.971 317.38 340.999Z" fill="#F2F4FA"/>
<path d="M378.15 282.71C379.304 282.713 380.445 282.944 381.509 283.39C382.573 283.837 383.539 284.489 384.35 285.31C386.001 286.991 386.928 289.253 386.93 291.61C386.93 299.22 350.93 328.77 318 328.77C285.07 328.77 246.18 300.18 246.18 291.61C246.174 289.247 247.097 286.977 248.75 285.29C249.562 284.464 250.53 283.808 251.597 283.36C252.665 282.912 253.812 282.68 254.97 282.68L378.15 282.71Z" fill="#F2F4FA"/>
<path d="M273.739 217.701L275.399 219.581L227.209 263.771C225.23 265.598 222.904 267.01 220.37 267.924C217.836 268.837 215.145 269.234 212.454 269.091C209.764 268.947 207.13 268.266 204.708 267.088C202.285 265.91 200.123 264.258 198.349 262.231L196.689 260.351L244.879 216.161C246.859 214.334 249.184 212.922 251.719 212.008C254.253 211.094 256.944 210.698 259.634 210.841C262.324 210.985 264.958 211.666 267.381 212.844C269.804 214.022 271.966 215.673 273.739 217.701Z" fill="#F2F4FA"/>
<path d="M265.46 213C245.46 230.28 224.56 248 206.69 268C203.02 266.76 199.29 263.53 196.52 260.39L242.79 217.73C245.798 214.959 249.498 213.049 253.5 212.2C257.494 211.352 261.644 211.615 265.5 212.96L265.46 213Z" fill="#B8C3FD"/>
<path d="M371.75 193.569C369.699 192.352 367.354 191.719 364.97 191.739C362.585 191.758 360.251 192.429 358.22 193.679C330.57 210.679 304.31 208.849 272.13 193.109C256.6 185.509 230.13 251.669 230.13 267.899C231.96 329.899 402.9 325.799 402.9 267.899C402.93 267.899 397.55 208.999 371.75 193.569Z" fill="#F2F4FA"/>
<path d="M435 169.509L437 170.969L399.51 224.859C397.975 227.078 396.016 228.969 393.745 230.425C391.474 231.881 388.937 232.871 386.28 233.339C383.626 233.802 380.907 233.727 378.283 233.121C375.658 232.515 373.182 231.389 371 229.809L369 228.349L406.48 174.469C408.018 172.253 409.98 170.363 412.252 168.91C414.525 167.456 417.063 166.467 419.72 165.999C422.372 165.533 425.091 165.604 427.716 166.207C430.34 166.809 432.817 167.933 435 169.509Z" fill="#F2F4FA"/>
<path d="M334.871 279.829C322.517 273.969 310.184 273.969 297.871 279.829C296.605 279.853 295.347 279.627 294.169 279.165C292.991 278.702 291.916 278.012 291.004 277.133C290.093 276.255 289.364 275.205 288.859 274.044C288.354 272.884 288.083 271.635 288.061 270.369V234.629C288.084 233.365 288.356 232.117 288.862 230.958C289.368 229.798 290.097 228.75 291.008 227.872C291.919 226.995 292.994 226.305 294.171 225.843C295.349 225.381 296.606 225.156 297.871 225.179H334.871C337.423 225.134 339.889 226.104 341.727 227.876C343.564 229.648 344.623 232.077 344.671 234.629V270.369C344.648 271.634 344.377 272.882 343.873 274.042C343.368 275.202 342.64 276.251 341.73 277.13C340.82 278.008 339.746 278.699 338.569 279.162C337.392 279.625 336.135 279.852 334.871 279.829Z" fill="#F1F3FF" stroke="#C7C9F4" stroke-width="5" stroke-miterlimit="10"/>
<path d="M293.1 234.151H292.82C292.545 234.145 292.278 234.246 292.075 234.432C291.872 234.618 291.748 234.876 291.73 235.151V247.731C291.733 247.871 291.763 248.01 291.82 248.139C291.876 248.267 291.957 248.384 292.058 248.481C292.159 248.579 292.279 248.656 292.409 248.707C292.54 248.758 292.68 248.783 292.82 248.781H293.1C293.241 248.783 293.381 248.758 293.511 248.707C293.642 248.656 293.762 248.579 293.863 248.481C293.964 248.384 294.045 248.267 294.101 248.139C294.158 248.01 294.188 247.871 294.19 247.731V235.201C294.188 235.06 294.158 234.921 294.101 234.793C294.045 234.664 293.964 234.547 293.863 234.45C293.762 234.352 293.642 234.276 293.511 234.224C293.381 234.173 293.241 234.148 293.1 234.151Z" fill="#DCE1FE"/>
<path d="M293.1 250.461H292.82C292.679 250.46 292.538 250.486 292.406 250.539C292.275 250.592 292.155 250.671 292.054 250.77C291.953 250.87 291.872 250.988 291.816 251.118C291.761 251.249 291.732 251.389 291.73 251.531V255.921C291.732 256.063 291.761 256.203 291.816 256.334C291.872 256.464 291.953 256.582 292.054 256.682C292.155 256.781 292.275 256.86 292.406 256.913C292.538 256.966 292.679 256.992 292.82 256.991H293.1C293.242 256.992 293.383 256.966 293.515 256.913C293.646 256.86 293.766 256.781 293.867 256.682C293.968 256.582 294.049 256.464 294.104 256.334C294.16 256.203 294.189 256.063 294.19 255.921V251.531C294.189 251.389 294.16 251.249 294.104 251.118C294.049 250.988 293.968 250.87 293.867 250.77C293.766 250.671 293.646 250.592 293.515 250.539C293.383 250.486 293.242 250.46 293.1 250.461Z" fill="#DCE1FE"/>
<path d="M338.83 257.801H338.6C338.468 257.812 338.34 257.849 338.223 257.91C338.106 257.971 338.003 258.055 337.918 258.156C337.833 258.258 337.77 258.375 337.73 258.501C337.691 258.627 337.678 258.759 337.69 258.891V271.811C337.668 272.075 337.751 272.336 337.922 272.539C338.092 272.741 338.336 272.868 338.6 272.891H338.83C339.094 272.868 339.338 272.741 339.508 272.539C339.679 272.336 339.762 272.075 339.74 271.811V258.891C339.752 258.759 339.739 258.627 339.699 258.501C339.66 258.375 339.597 258.258 339.512 258.156C339.427 258.055 339.324 257.971 339.207 257.91C339.089 257.849 338.961 257.812 338.83 257.801Z" fill="#DCE1FE"/>
<path d="M338.83 249.24H338.6C338.34 249.263 338.099 249.387 337.929 249.585C337.759 249.783 337.673 250.04 337.69 250.3V254.7C337.673 254.961 337.759 255.217 337.929 255.415C338.099 255.614 338.34 255.737 338.6 255.76H338.83C339.09 255.737 339.33 255.614 339.5 255.415C339.67 255.217 339.756 254.961 339.74 254.7V250.3C339.756 250.04 339.67 249.783 339.5 249.585C339.33 249.387 339.09 249.263 338.83 249.24Z" fill="#DCE1FE"/>
<path d="M230.17 267.999C230.17 251.759 256.64 185.549 272.17 193.159C280.23 197.159 290.07 200.969 293.66 201.849C295.35 202.269 275.55 202.849 260.18 218.339C243.11 235.599 230.17 267.999 230.17 267.999Z" fill="#B8C3FD"/>
<path d="M428 165C419.71 162.05 412.22 165.68 407.15 173L371.78 223.85L372.41 224.28C376.32 226.93 413.61 162.6 428 165Z" fill="#B8C3FD"/>
<path d="M293.78 324.279C298.42 338.039 314.7 344.909 327.43 338.689C313.9 338.519 302.17 334.759 293.78 324.279Z" fill="#B1B9E4"/>
<path d="M336.05 326.189C309.05 335.139 264.05 319.549 249.87 298.189C283.78 325.169 336.39 326.999 336.05 326.189Z" fill="#B1B9E4"/>
<path d="M206.37 267.73C206.37 267.73 218.37 272.03 226.89 263.51C220.578 266.803 213.47 268.265 206.37 267.73Z" fill="#B8C3FD"/>
<path d="M328.66 251.689H317.17V263.099H328.66V251.689Z" fill="#FCB614"/>
<path d="M317.17 251.689H306.09V263.099H317.17V251.689Z" fill="#EF4E63"/>
<path d="M317.17 239.859H306.09V251.689H317.17V239.859Z" fill="#63CCF5"/>
<path d="M291.35 184.801H290.46C289.975 184.805 289.496 184.904 289.05 185.093C288.604 185.282 288.199 185.557 287.859 185.903C287.52 186.248 287.251 186.657 287.069 187.106C286.888 187.556 286.796 188.036 286.8 188.521V194.141C286.795 195.118 287.177 196.057 287.863 196.752C288.549 197.448 289.483 197.843 290.46 197.851H291.35C292.327 197.843 293.261 197.448 293.947 196.752C294.633 196.057 295.015 195.118 295.01 194.141V188.521C295.014 188.036 294.922 187.556 294.741 187.106C294.559 186.657 294.29 186.248 293.95 185.903C293.611 185.557 293.206 185.282 292.76 185.093C292.314 184.904 291.835 184.805 291.35 184.801Z" fill="#F2F4FA"/>
<path d="M343.47 185.211H342.58C342.095 185.215 341.616 185.314 341.17 185.503C340.724 185.692 340.319 185.967 339.98 186.313C339.64 186.658 339.371 187.067 339.189 187.517C339.008 187.966 338.916 188.446 338.92 188.931V194.541C338.916 195.026 339.008 195.506 339.189 195.955C339.371 196.405 339.64 196.814 339.98 197.159C340.319 197.504 340.724 197.78 341.17 197.969C341.616 198.158 342.095 198.257 342.58 198.261H343.47C343.955 198.257 344.434 198.158 344.88 197.969C345.326 197.78 345.731 197.504 346.07 197.159C346.41 196.814 346.679 196.405 346.861 195.955C347.042 195.506 347.134 195.026 347.13 194.541V188.931C347.134 188.446 347.042 187.966 346.861 187.517C346.679 187.067 346.41 186.658 346.07 186.313C345.731 185.967 345.326 185.692 344.88 185.503C344.434 185.314 343.955 185.215 343.47 185.211Z" fill="#F2F4FA"/>
<path d="M347.12 190.92V195.61C347.145 195.949 347.097 196.29 346.98 196.61C346.868 196.939 346.692 197.241 346.46 197.5C346.231 197.747 345.952 197.941 345.64 198.07C345.323 198.198 344.981 198.253 344.64 198.23H342.2C344.72 197.49 346.29 194.89 347.12 190.92Z" fill="#B8C3FD"/>
<path d="M286.811 190.109V195.049C286.783 195.411 286.828 195.775 286.941 196.119C287.049 196.461 287.226 196.778 287.46 197.049C287.686 197.306 287.962 197.513 288.27 197.659C288.584 197.8 288.927 197.865 289.27 197.849H291.751C289.221 197.059 287.641 194.279 286.811 190.109Z" fill="#B1B9E4"/>
<path d="M260.13 131.5H373.39C375.166 131.495 376.926 131.84 378.568 132.516C380.211 133.192 381.704 134.186 382.962 135.44C384.219 136.694 385.217 138.184 385.898 139.825C386.579 141.465 386.93 143.224 386.93 145C386.925 146.773 386.57 148.527 385.887 150.163C385.204 151.799 384.205 153.284 382.948 154.534C381.69 155.784 380.199 156.774 378.559 157.448C376.919 158.121 375.163 158.465 373.39 158.46H260.13C258.357 158.465 256.6 158.121 254.961 157.448C253.321 156.774 251.829 155.784 250.572 154.534C249.315 153.284 248.316 151.799 247.633 150.163C246.949 148.527 246.595 146.773 246.59 145C246.59 143.224 246.94 141.465 247.621 139.825C248.302 138.184 249.3 136.694 250.558 135.44C251.816 134.186 253.309 133.192 254.951 132.516C256.594 131.84 258.354 131.495 260.13 131.5Z" fill="#B8C3FD"/>
<path d="M317.34 191.451C309.64 191.451 270.2 190.731 259.28 168.381C258.428 166.519 258.018 164.487 258.08 162.441V126.891C258.018 124.845 258.428 122.812 259.28 120.951C270.52 98.0005 312 98.0605 317.08 98.0605C322.16 98.0605 363.47 98.0605 374.65 120.951C375.502 122.812 375.913 124.845 375.85 126.891V162.441C375.913 164.487 375.503 166.519 374.65 168.381C364 190.131 326.31 191.431 317.34 191.451Z" fill="#F2F4FA"/>
<path d="M317.081 179.63C310.631 179.63 277.661 179.09 268.521 162.63C267.814 161.263 267.47 159.738 267.521 158.2V132C267.471 130.459 267.815 128.931 268.521 127.56C277.921 110.64 312.641 110.67 316.861 110.67C321.081 110.67 355.651 110.67 365.001 127.56C365.705 128.931 366.05 130.459 366.001 132V158.14C366.051 159.678 365.707 161.203 365.001 162.57C356.111 178.65 324.571 179.61 317.081 179.63Z" fill="#FFFFFD"/>
<path d="M346.84 97.0899C345.75 94.9399 343.32 93.7999 340.84 93.1699H293.13C290.62 93.7999 288.19 94.9399 287.13 97.0899C282.96 105.29 298.03 128.65 317.01 128.65C335.99 128.65 351 105.29 346.84 97.0899Z" fill="#B8C3FD"/>
<path d="M304.32 137.609C304.918 137.607 305.511 137.722 306.065 137.949C306.618 138.176 307.122 138.51 307.546 138.931C307.971 139.353 308.308 139.854 308.539 140.407C308.769 140.959 308.888 141.551 308.89 142.149V151.999C308.888 152.598 308.769 153.19 308.539 153.742C308.308 154.294 307.971 154.796 307.546 155.217C307.122 155.639 306.618 155.973 306.065 156.2C305.511 156.427 304.918 156.542 304.32 156.539C303.722 156.541 303.13 156.424 302.578 156.197C302.025 155.969 301.523 155.635 301.099 155.214C300.676 154.792 300.34 154.291 300.11 153.74C299.88 153.188 299.761 152.597 299.76 151.999V142.159C299.76 141.561 299.878 140.969 300.107 140.416C300.336 139.863 300.672 139.361 301.096 138.939C301.52 138.516 302.022 138.181 302.575 137.953C303.129 137.725 303.721 137.608 304.32 137.609Z" fill="#231F20"/>
<path d="M328.69 137.609C329.288 137.607 329.881 137.722 330.435 137.949C330.989 138.176 331.492 138.51 331.917 138.931C332.341 139.353 332.679 139.854 332.909 140.407C333.139 140.959 333.259 141.551 333.26 142.149V151.999C333.259 152.598 333.139 153.19 332.909 153.742C332.679 154.294 332.341 154.796 331.917 155.217C331.492 155.639 330.989 155.973 330.435 156.2C329.881 156.427 329.288 156.542 328.69 156.539C327.482 156.542 326.323 156.066 325.466 155.214C324.61 154.363 324.125 153.207 324.12 151.999V142.159C324.121 141.561 324.241 140.968 324.471 140.415C324.701 139.862 325.038 139.36 325.463 138.938C325.887 138.515 326.391 138.181 326.944 137.953C327.498 137.725 328.091 137.608 328.69 137.609Z" fill="#231F20"/>
<path d="M452.87 151.29C452.87 151.29 471.69 144.51 484.42 160.96C497.15 177.41 512.94 149.83 512.94 149.83" stroke="#F3748A" stroke-width="6" stroke-linecap="round" stroke-linejoin="round"/>
<path d="M435.21 124.999C435.21 124.999 438.71 105.309 459.32 102.469C479.93 99.6292 463.89 72.1992 463.89 72.1992" stroke="#FFDE4B" stroke-width="6" stroke-linecap="round" stroke-linejoin="round"/>
<path d="M316.5 367C359.854 367 395 363.418 395 359C395 354.582 359.854 351 316.5 351C273.146 351 238 354.582 238 359C238 363.418 273.146 367 316.5 367Z" fill="#C7A8F4"/>
<path d="M456.5 303.869C466.673 303.869 474.92 295.622 474.92 285.449C474.92 275.276 466.673 267.029 456.5 267.029C446.327 267.029 438.08 275.276 438.08 285.449C438.08 295.622 446.327 303.869 456.5 303.869Z" fill="#4E6AFA"/>
<path d="M44 88C68.3005 88 88 68.3005 88 44C88 19.6995 68.3005 0 44 0C19.6995 0 0 19.6995 0 44C0 68.3005 19.6995 88 44 88Z" fill="#E9DCFB"/>
<path d="M196.5 407C203.956 407 210 400.956 210 393.5C210 386.044 203.956 380 196.5 380C189.044 380 183 386.044 183 393.5C183 400.956 189.044 407 196.5 407Z" fill="#B8C3FD"/>
<path d="M522.5 112C526.09 112 529 109.09 529 105.5C529 101.91 526.09 99 522.5 99C518.91 99 516 101.91 516 105.5C516 109.09 518.91 112 522.5 112Z" fill="#E9DCFB"/>
<path d="M348 63C362.912 63 375 50.9117 375 36C375 21.0883 362.912 9 348 9C333.088 9 321 21.0883 321 36C321 50.9117 333.088 63 348 63Z" fill="#5DB097"/>
<path d="M226.5 347C230.09 347 233 344.09 233 340.5C233 336.91 230.09 334 226.5 334C222.91 334 220 336.91 220 340.5C220 344.09 222.91 347 226.5 347Z" fill="#FAC7D0"/>
<path d="M141.5 58C145.09 58 148 55.0899 148 51.5C148 47.9101 145.09 45 141.5 45C137.91 45 135 47.9101 135 51.5C135 55.0899 137.91 58 141.5 58Z" fill="#FAC7D0"/>
</svg>
