<svg width="719" height="418" viewBox="0 0 719 418" fill="none" xmlns="http://www.w3.org/2000/svg">
<path d="M600.209 155.533C623.244 168.27 648.802 176.71 652.501 193.13C656.2 209.396 638.377 233.795 630.642 254.051C622.908 274.307 625.43 290.419 621.058 305.611C616.518 320.803 604.917 334.921 589.616 340.292C574.315 345.663 554.978 342.287 539.173 336.762C523.536 331.391 511.093 324.026 493.606 319.729C475.951 315.586 453.252 314.512 448.712 304.844C444.172 295.023 457.792 276.608 454.093 256.046C450.393 235.636 429.207 213.232 427.19 192.976C425.004 172.72 441.986 154.613 463.34 140.955C484.526 127.298 510.252 117.937 533.288 121.927C556.491 125.763 577.173 142.797 600.209 155.533Z" fill="#64C0C1"/>
<path fill-rule="evenodd" clip-rule="evenodd" d="M675.387 126.13C688.648 115.842 697 100.857 697 84.1729C697 53.1495 668.122 28 632.5 28C596.878 28 568 53.1495 568 84.1729C568 100.857 576.352 115.842 589.613 126.13V140.82C589.613 164.506 608.814 183.707 632.5 183.707C656.186 183.707 675.387 164.506 675.387 140.82V126.13Z" fill="#FEDF68"/>
<path d="M664.69 194.478C664.69 202.498 658.189 209 650.168 209H620.597C612.639 209 606.188 202.549 606.188 194.591C606.188 191.199 608.938 188.45 612.33 188.45H658.662C661.992 188.45 664.69 191.149 664.69 194.478Z" fill="#DAD2B6"/>
<path d="M613.501 179.36C623.658 159.6 631.762 93.9418 616.486 99.6326C597.392 106.746 622.174 134.41 631.112 128.087C640.05 121.764 666.05 81.0584 648.581 77.1064C634.606 73.9448 644.783 174.223 647.221 180.941" stroke="#F9F7F2" stroke-width="8"/>
<rect x="630" width="5" height="12" rx="2.5" fill="#FEDF68"/>
<rect x="695.664" y="39.0781" width="5" height="12" rx="2.5" transform="rotate(-126.495 695.664 39.0781)" fill="#FEDF68"/>
<rect width="5" height="12" rx="2.5" transform="matrix(0.594759 -0.803904 -0.803904 -0.594759 564.646 44.1562)" fill="#FEDF68"/>
<rect width="5" height="12" rx="2.5" transform="matrix(0.876207 -0.481935 -0.481935 -0.876207 588.783 24.9238)" fill="#FEDF68"/>
<rect x="676.381" y="24.9238" width="5" height="12" rx="2.5" transform="rotate(-151.188 676.381 24.9238)" fill="#FEDF68"/>
<rect x="707" y="79" width="5" height="12" rx="2.5" transform="rotate(-90 707 79)" fill="#FEDF68"/>
<rect x="555" y="74" width="5" height="12" rx="2.5" transform="rotate(90 555 74)" fill="#FEDF68"/>
<path d="M274.886 85.9077C286.186 108.007 266.7 123.218 237.47 115.831C224.321 130.858 202.169 130.725 189.188 115.414C158.833 123.836 138.352 108.133 150.51 85.3135C125.329 75.6828 124.523 56.8859 148.093 46.6713C142.191 27.9563 159.587 15.7438 185.225 21.249C198.365 -1.6324 228.285 -1.75193 241.588 20.9075C265.946 16.3619 282.326 28.0793 277.199 45.9609C303.018 56.1961 302.242 76.2566 274.886 85.9077Z" fill="#C7A8F4"/>
<ellipse cx="315.5" cy="112.5" rx="9.5" ry="8.5" fill="#C7A8F4"/>
<ellipse cx="347" cy="129.5" rx="6" ry="5.5" fill="#C7A8F4"/>
<path d="M111.62 168.596C120.387 185.485 105.271 197.11 82.5946 191.464C72.3946 202.948 55.2097 202.846 45.1401 191.146C21.5919 197.582 5.70369 185.582 15.135 168.142C-4.39938 160.782 -5.02434 146.417 13.2601 138.611C8.68147 124.308 22.1767 114.975 42.0654 119.182C52.2587 101.696 75.4693 101.604 85.7896 118.921C104.686 115.447 117.392 124.402 113.415 138.068C133.444 145.89 132.843 161.22 111.62 168.596Z" fill="#C7A8F4"/>
<ellipse rx="6.0393" ry="5.62056" transform="matrix(0.893606 -0.448853 0.688112 0.725605 152.116 164.715)" fill="#C7A8F4"/>
<ellipse rx="3.81429" ry="3.63683" transform="matrix(0.893606 -0.448853 0.688112 0.725605 177.746 163.882)" fill="#C7A8F4"/>
<path d="M170.75 69.25V64.05L195.05 54.95L196.75 59.65L176.65 66.65L196.75 73.25L195.05 77.95L170.75 69.25ZM219.496 38.3L224.146 40.05L207.896 84.45L203.246 82.7L219.496 38.3ZM256.662 69.25L232.362 77.95L230.662 73.25L250.762 66.65L230.662 59.65L232.362 54.95L256.662 64.05V69.25Z" fill="#F9F7F2"/>
<path d="M271.35 231.402C279.545 247.429 265.413 258.46 244.214 253.103C234.679 264 218.613 263.904 209.2 252.801C187.185 258.908 172.332 247.52 181.149 230.971C162.887 223.986 162.303 210.354 179.396 202.946C175.116 189.374 187.732 180.517 206.325 184.509C215.855 167.915 237.553 167.829 247.201 184.262C264.867 180.965 276.745 189.463 273.027 202.431C291.752 209.854 291.189 224.402 271.35 231.402Z" fill="#C7A8F4"/>
<ellipse cx="311.175" cy="226.005" rx="6.88964" ry="6.16441" transform="rotate(-48.8769 311.175 226.005)" fill="#C7A8F4"/>
<ellipse cx="335.487" cy="216.906" rx="4.35135" ry="3.98874" transform="rotate(-48.8769 335.487 216.906)" fill="#C7A8F4"/>
<path d="M226.8 199.3C230.167 199.3 232.8 200.017 234.7 201.45C236.6 202.85 237.85 204.833 238.45 207.4H241.1V210.85H238.9C238.933 211.05 238.95 211.25 238.95 211.45C238.95 211.617 238.95 211.783 238.95 211.95C238.95 212.283 238.933 212.617 238.9 212.95C238.9 213.25 238.883 213.533 238.85 213.8H241.1V217.25H238.15C237.383 219.583 235.933 221.533 233.8 223.1C231.7 224.633 228.683 225.4 224.75 225.4H223.8V235H216.35V217.25H213.5V213.8H216.35V210.85H213.5V207.4H216.35V199.3H226.8ZM226.45 205.3H223.8V207.4H230.65C229.883 206 228.483 205.3 226.45 205.3ZM231.45 210.85H223.8V213.8H231.45C231.483 213.533 231.5 213.283 231.5 213.05C231.5 212.783 231.5 212.5 231.5 212.2C231.5 211.967 231.5 211.75 231.5 211.55C231.5 211.317 231.483 211.083 231.45 210.85ZM230.35 217.25H223.8V219.4H224.6C225.967 219.4 227.133 219.233 228.1 218.9C229.067 218.567 229.817 218.017 230.35 217.25Z" fill="#F9F7F2"/>
<path d="M454.706 375.402C470.704 375.402 483.672 361.598 483.672 344.57C483.672 327.542 470.704 313.738 454.706 313.738C438.709 313.738 425.74 327.542 425.74 344.57C425.74 361.598 438.709 375.402 454.706 375.402Z" fill="#F2F4FA"/>
<path d="M524.453 305.457C527.122 305.454 529.684 306.576 531.575 308.577C533.466 310.577 534.533 313.293 534.54 316.127C534.54 325.266 493.265 360.72 455.422 360.72C417.579 360.72 372.99 326.422 372.99 316.127C372.99 313.287 374.053 310.563 375.945 308.555C377.836 306.546 380.402 305.418 383.077 305.418L524.453 305.457Z" fill="#F2F4FA"/>
<path d="M404.625 227.438L406.533 229.692L351.226 282.722C346.603 287.154 340.516 289.45 334.304 289.105C328.091 288.759 322.262 285.801 318.099 280.88L316.191 278.626L371.498 225.596C376.121 221.164 382.208 218.868 388.42 219.213C394.632 219.559 400.461 222.517 404.625 227.438Z" fill="#F2F4FA"/>
<path d="M395.126 221.755C372.123 242.49 348.176 263.7 327.665 287.8C323.459 286.316 319.181 282.437 316 278.664L369.104 227.477C372.576 224.136 376.817 221.845 381.39 220.839C385.963 219.834 390.705 220.15 395.126 221.755Z" fill="#B8C3FD"/>
<path d="M517.114 198.483C514.75 197.019 512.061 196.26 509.328 196.284C506.595 196.308 503.918 197.114 501.578 198.618C469.853 219.004 439.715 216.822 402.779 197.932C384.95 188.816 354.621 268.208 354.621 287.677C356.724 362.037 552.908 357.16 552.908 287.677C552.899 287.677 546.726 216.957 517.114 198.483Z" fill="#F2F4FA"/>
<path d="M589.674 169.616L592 171.37L548.977 236.03C545.381 241.434 539.916 245.096 533.784 246.211C527.652 247.325 521.355 245.801 516.278 241.974L513.952 240.22L556.976 175.559C560.571 170.155 566.036 166.493 572.169 165.379C578.301 164.264 584.598 165.788 589.674 169.616Z" fill="#F2F4FA"/>
<path d="M474.778 301.993C460.615 294.971 446.448 294.971 432.279 301.993C426.065 301.993 421.03 296.92 421.03 290.65V247.757C421.03 241.488 426.065 236.414 432.279 236.414H474.778C480.992 236.414 486.027 241.488 486.027 247.757V290.65C486.027 296.92 480.992 301.993 474.778 301.993Z" fill="#F1F3FF" stroke="#C7C9F4" stroke-width="5" stroke-miterlimit="10"/>
<path d="M426.839 247.18H426.526C425.832 247.18 425.27 247.746 425.27 248.444V263.534C425.27 264.232 425.832 264.798 426.526 264.798H426.839C427.533 264.798 428.095 264.232 428.095 263.534V248.444C428.095 247.746 427.533 247.18 426.839 247.18Z" fill="#DCE1FE"/>
<path d="M426.839 266.756H426.526C425.832 266.756 425.27 267.328 425.27 268.033V273.309C425.27 274.014 425.832 274.586 426.526 274.586H426.839C427.533 274.586 428.095 274.014 428.095 273.309V268.033C428.095 267.328 427.533 266.756 426.839 266.756Z" fill="#DCE1FE"/>
<path d="M479.329 275.564H479.067C478.489 275.564 478.021 276.146 478.021 276.863V292.373C478.021 293.09 478.489 293.672 479.067 293.672H479.329C479.907 293.672 480.375 293.09 480.375 292.373V276.863C480.375 276.146 479.907 275.564 479.329 275.564Z" fill="#DCE1FE"/>
<path d="M479.329 265.289H479.067C478.489 265.289 478.021 265.861 478.021 266.567V271.842C478.021 272.547 478.489 273.119 479.067 273.119H479.329C479.907 273.119 480.375 272.547 480.375 271.842V266.567C480.375 265.861 479.907 265.289 479.329 265.289Z" fill="#DCE1FE"/>
<path d="M354.621 287.8C354.621 268.307 384.997 188.857 402.849 197.99C412.097 202.822 423.388 207.364 427.508 208.417C429.45 208.92 406.725 209.568 389.081 228.21C369.469 248.92 354.621 287.8 354.621 287.8Z" fill="#B8C3FD"/>
<path d="M581.638 164.237C572.12 160.699 563.529 165.049 557.708 173.798L517.112 234.817L517.839 235.339C522.362 238.519 565.155 161.317 581.638 164.237Z" fill="#B8C3FD"/>
<path d="M427.625 355.336C432.953 371.852 451.633 380.095 466.246 372.632C450.719 372.428 437.248 367.911 427.625 355.336Z" fill="#B1B9E4"/>
<path d="M476.134 357.628C445.137 368.371 393.463 349.663 377.229 324.016C416.148 356.41 476.534 358.557 476.134 357.628Z" fill="#B1B9E4"/>
<path d="M327.304 287.481C327.304 287.481 341.135 292.633 350.853 282.418C343.564 286.374 335.429 288.123 327.304 287.481Z" fill="#B8C3FD"/>
<path d="M467.658 268.225H454.471V281.928H467.658V268.225Z" fill="#FCB614"/>
<path d="M454.471 268.225H441.754V281.928H454.471V268.225Z" fill="#EF4E63"/>
<path d="M454.471 254.031H441.754V268.224H454.471V254.031Z" fill="#63CCF5"/>
<path d="M424.84 187.965H423.816C421.498 187.965 419.618 189.963 419.618 192.427V199.163C419.618 201.628 421.498 203.625 423.816 203.625H424.84C427.159 203.625 429.038 201.628 429.038 199.163V192.427C429.038 189.963 427.159 187.965 424.84 187.965Z" fill="#F2F4FA"/>
<path d="M484.656 188.453H483.631C481.313 188.453 479.434 190.451 479.434 192.915V199.652C479.434 202.116 481.313 204.114 483.631 204.114H484.656C486.974 204.114 488.853 202.116 488.853 199.652V192.915C488.853 190.451 486.974 188.453 484.656 188.453Z" fill="#F2F4FA"/>
<path d="M488.847 195.305V200.931C488.872 201.353 488.817 201.777 488.685 202.173C488.554 202.569 488.348 202.93 488.083 203.23C487.818 203.531 487.498 203.765 487.146 203.916C486.794 204.067 486.418 204.133 486.041 204.109H483.201C486.093 203.186 487.886 200.066 488.847 195.305Z" fill="#B8C3FD"/>
<path d="M419.627 194.326V200.261C419.596 200.697 419.647 201.135 419.774 201.548C419.902 201.961 420.104 202.338 420.368 202.655C420.632 202.972 420.951 203.222 421.305 203.389C421.659 203.556 422.04 203.636 422.422 203.623H425.27C422.397 202.674 420.579 199.331 419.627 194.326Z" fill="#B1B9E4"/>
<rect x="373.461" y="124.004" width="161.079" height="32.3001" rx="16.15" fill="#B8C3FD"/>
<path d="M454.67 195.944C445.823 195.975 400.565 195.073 388.028 168.26C386.987 166.051 386.648 163.59 386.648 161.148V118.452C386.648 116.006 386.985 113.551 388.028 111.339C400.925 83.8108 448.582 83.873 454.37 83.873C460.309 83.873 507.606 83.9353 520.443 111.339C521.484 113.548 521.823 116.009 521.823 118.451V161.147C521.823 163.593 521.486 166.048 520.443 168.26C508.236 194.357 464.958 195.913 454.67 195.944Z" fill="#F2F4FA"/>
<path d="M454.364 181.752C446.965 181.775 409.119 181.109 398.635 161.322C397.771 159.704 397.481 157.854 397.481 156.019V124.618C397.481 122.78 397.769 120.936 398.635 119.314C409.42 98.999 449.273 99.0449 454.113 99.0449C459.079 99.0449 498.631 99.0908 509.365 119.314C510.23 120.932 510.519 122.782 510.519 124.617V156.019C510.519 157.857 510.231 159.701 509.365 161.322C499.158 180.581 462.966 181.729 454.364 181.752Z" fill="#FFFFFD"/>
<path d="M488.519 82.7096C487.266 80.1321 484.477 78.7637 481.594 78H426.877C423.994 78.7637 421.205 80.1321 419.951 82.7096C415.156 92.5425 432.455 120.577 454.235 120.577C476.015 120.577 493.314 92.5425 488.519 82.7096Z" fill="#B8C3FD"/>
<rect x="434.483" y="131.33" width="10.4882" height="22.7042" rx="5.24409" fill="#231F20"/>
<rect x="434.482" y="131.33" width="10.4882" height="22.7042" rx="5.24409" fill="#231F20"/>
<rect x="462.451" y="131.33" width="10.4882" height="22.7042" rx="5.24409" fill="#231F20"/>
<rect x="462.065" y="141.316" width="11.6494" height="23.278" rx="5.82468" fill="#FFFFFD"/>
<rect x="434.286" y="141.316" width="11.6494" height="23.278" rx="5.82468" fill="#FFFFFD"/>
<path d="M80.3584 129C77.6072 126.155 75.3594 123.835 75.3594 123.835L74.5508 123H75.6774C75.8825 122.999 76.0795 123.085 76.2256 123.238C76.2256 123.238 78.3656 125.504 81.0044 128.308L80.3584 129Z" fill="#F9F7F2"/>
<path d="M86.5577 183H48.7791C47.247 182.998 45.778 182.382 44.6946 181.287C43.6112 180.193 43.0018 178.708 43 177.16V128.84C43.0018 127.292 43.6112 125.807 44.6946 124.713C45.778 123.618 47.247 123.002 48.7791 123H74.9242C75.0305 122.999 75.1358 123.021 75.2339 123.062C75.332 123.104 75.4208 123.164 75.4951 123.241C75.5714 123.321 75.6315 123.415 75.6718 123.518C75.7122 123.621 75.732 123.731 75.7301 123.841L75.7368 138.254C75.7339 138.336 75.7634 138.416 75.8189 138.477C75.8743 138.538 75.9511 138.573 76.0327 138.577H89.9563C88.9201 137.498 86.4178 134.937 80.4703 128.932L81.1363 128.247C83.9735 131.036 86.2827 133.309 88.0001 135.004C89.08 136.07 89.9201 136.902 90.4967 137.478C91.6194 138.594 91.6194 138.594 91.6194 138.813L92 177.495C91.9992 178.954 91.4258 180.353 90.4054 181.385C89.3851 182.417 88.0013 182.998 86.5577 183ZM48.7791 123.962C47.4992 123.963 46.2722 124.478 45.3671 125.392C44.4621 126.307 43.953 127.547 43.9515 128.84V177.16C43.953 178.453 44.4621 179.693 45.3671 180.608C46.2722 181.522 47.4992 182.037 48.7791 182.038H86.5577C87.7483 182.037 88.8899 181.559 89.7318 180.708C90.5737 179.857 91.0473 178.703 91.0485 177.5L90.6765 139.538H76.0327C75.6988 139.535 75.38 139.398 75.1461 139.157C74.9123 138.916 74.7825 138.591 74.7853 138.254L74.7786 123.962H48.7791Z" fill="#F9F7F2"/>
<path d="M65.7158 163.846H50.8796C50.4882 163.846 50.1709 164.156 50.1709 164.538C50.1709 164.92 50.4882 165.23 50.8796 165.23H65.7158C66.1072 165.23 66.4246 164.92 66.4246 164.538C66.4246 164.156 66.1072 163.846 65.7158 163.846Z" fill="#F9F7F2"/>
<path d="M82.4433 169.154H50.8838C50.4901 169.154 50.1709 169.464 50.1709 169.847C50.1709 170.229 50.4901 170.539 50.8838 170.539H82.4433C82.8371 170.539 83.1563 170.229 83.1563 169.847C83.1563 169.464 82.8371 169.154 82.4433 169.154Z" fill="#F9F7F2"/>
<path d="M82.4433 172.615H50.8838C50.4901 172.615 50.1709 172.925 50.1709 173.308C50.1709 173.69 50.4901 174 50.8838 174H82.4433C82.8371 174 83.1563 173.69 83.1563 173.308C83.1563 172.925 82.8371 172.615 82.4433 172.615Z" fill="#F9F7F2"/>
<path d="M82.4433 175.846H50.8838C50.4901 175.846 50.1709 176.156 50.1709 176.538C50.1709 176.92 50.4901 177.23 50.8838 177.23H82.4433C82.8371 177.23 83.1563 176.92 83.1563 176.538C83.1563 176.156 82.8371 175.846 82.4433 175.846Z" fill="#F9F7F2"/>
<path d="M48.9756 158.882V136.846H55.9093C58.9634 136.846 61.1818 137.231 62.5644 138.002C63.9677 138.752 64.6693 140.169 64.6693 142.253C64.6693 143.149 64.5249 143.899 64.236 144.504C63.9677 145.108 63.5756 145.566 63.0597 145.879C62.5438 146.171 62.0382 146.379 61.543 146.504C61.0477 146.629 60.4596 146.712 59.7786 146.754V147.817C60.7072 147.838 61.512 147.921 62.193 148.067C62.8946 148.213 63.5756 148.463 64.236 148.817C64.8963 149.171 65.4019 149.703 65.7527 150.411C66.1035 151.12 66.2789 151.995 66.2789 153.037C66.2789 154.204 66.0416 155.183 65.567 155.975C65.113 156.746 64.432 157.34 63.524 157.756C62.616 158.173 61.6152 158.465 60.5215 158.632C59.4484 158.798 58.169 158.882 56.6832 158.882H48.9756ZM52.9687 145.66H56.3117C57.8388 145.66 58.9428 145.504 59.6238 145.191C60.3254 144.858 60.6762 144.129 60.6762 143.003C60.6762 142.503 60.604 142.086 60.4596 141.753C60.3151 141.399 60.1294 141.138 59.9024 140.972C59.696 140.784 59.3762 140.649 58.9428 140.565C58.5301 140.461 58.1483 140.399 57.7975 140.378C57.4467 140.357 56.9514 140.346 56.3117 140.346H52.9687V145.66ZM52.9687 155.381H57.0856C58.9428 155.381 60.2738 155.193 61.0786 154.818C61.8834 154.443 62.2859 153.599 62.2859 152.287C62.2859 150.995 61.8731 150.151 61.0477 149.755C60.2429 149.359 58.9222 149.161 57.0856 149.161H52.9687V155.381Z" fill="#F9F7F2"/>
<path d="M80.1328 143.191H84.5902L77.6255 158.257V162.914C77.6255 164.518 76.8104 165.289 75.1802 165.227L68.2155 164.977V161.476L73.6634 161.664V158.257L66.6678 143.191H71.1252L75.1183 153.255V155.225H76.1707V153.255L80.1328 143.191Z" fill="#F9F7F2"/>
<path d="M452.5 418C495.854 418 531 414.418 531 410C531 405.582 495.854 402 452.5 402C409.146 402 374 405.582 374 410C374 414.418 409.146 418 452.5 418Z" fill="#B8C3FD"/>
</svg>
