<svg width="565" height="484" viewBox="0 0 565 484" fill="none" xmlns="http://www.w3.org/2000/svg">
<path d="M276.315 406.099C256.005 423.468 229.032 438.113 214.964 426.96C201.159 415.779 199.996 378.828 186.41 358.685C172.685 338.688 146.412 335.381 127.94 320.874C109.469 306.368 98.6747 280.544 103.79 255.952C109.043 231.215 130.469 207.682 156.57 204.434C182.685 200.921 213.613 217.546 235.551 218.676C257.628 219.66 270.7 205.413 291.933 192.812C313.29 180.33 342.781 170.023 355.535 178.816C368.289 187.608 364.556 215.736 366.538 239.851C368.519 263.965 376.479 284.038 370.305 301.509C364.27 318.835 344.226 333.677 327.45 351.072C310.411 368.493 296.625 388.731 276.315 406.099Z" fill="#64C0C1"/>
<path d="M379.522 403.173C394.921 403.173 407.404 390.386 407.404 374.611C407.404 358.837 394.921 346.049 379.522 346.049C364.123 346.049 351.64 358.837 351.64 374.611C351.64 390.386 364.123 403.173 379.522 403.173Z" fill="#F2F4FA"/>
<path d="M446.658 338.377C449.228 338.375 451.694 339.415 453.514 341.268C455.335 343.121 456.361 345.637 456.368 348.263C456.368 356.728 416.637 389.573 380.21 389.573C343.783 389.573 300.862 357.8 300.862 348.263C300.862 345.632 301.885 343.108 303.706 341.248C305.527 339.387 307.997 338.342 310.572 338.342L446.658 338.377Z" fill="#F2F4FA"/>
<path d="M439.595 239.278C437.32 237.922 434.732 237.219 432.101 237.241C429.47 237.263 426.893 238.01 424.64 239.403C394.103 258.289 365.092 256.267 329.538 238.768C312.376 230.323 283.182 303.87 283.182 321.906C285.206 390.792 474.05 386.275 474.05 321.906C474.041 321.906 468.1 256.392 439.595 239.278Z" fill="#F2F4FA"/>
<path d="M495.368 327.391L493.358 329.292L442.14 277.524C437.86 273.197 435.497 267.401 435.573 261.409C435.649 255.417 438.156 249.721 442.544 245.573L444.554 243.673L495.772 295.441C500.053 299.767 502.415 305.564 502.339 311.556C502.264 317.548 499.756 323.244 495.368 327.391Z" fill="#F2F4FA"/>
<path d="M398.844 335.167C385.21 328.663 371.574 328.663 357.934 335.167C351.953 335.167 347.106 330.467 347.106 324.66V284.924C347.106 279.116 351.953 274.416 357.934 274.416H398.844C404.825 274.416 409.671 279.116 409.671 284.924V324.66C409.671 330.467 404.825 335.167 398.844 335.167Z" fill="#F1F3FF" stroke="#C7C9F4" stroke-width="5" stroke-miterlimit="10"/>
<path d="M352.698 284.391H352.396C351.728 284.391 351.187 284.915 351.187 285.562V299.541C351.187 300.188 351.728 300.712 352.396 300.712H352.698C353.365 300.712 353.907 300.188 353.907 299.541V285.562C353.907 284.915 353.365 284.391 352.698 284.391Z" fill="#DCE1FE"/>
<path d="M352.698 302.525H352.396C351.728 302.525 351.187 303.055 351.187 303.709V308.596C351.187 309.249 351.728 309.779 352.396 309.779H352.698C353.365 309.779 353.907 309.249 353.907 308.596V303.709C353.907 303.055 353.365 302.525 352.698 302.525Z" fill="#DCE1FE"/>
<path d="M403.223 310.686H402.971C402.415 310.686 401.964 311.224 401.964 311.889V326.257C401.964 326.921 402.415 327.46 402.971 327.46H403.223C403.78 327.46 404.231 326.921 404.231 326.257V311.889C404.231 311.224 403.78 310.686 403.223 310.686Z" fill="#DCE1FE"/>
<path d="M403.223 301.164H402.971C402.415 301.164 401.964 301.694 401.964 302.348V307.234C401.964 307.888 402.415 308.418 402.971 308.418H403.223C403.78 308.418 404.231 307.888 404.231 307.234V302.348C404.231 301.694 403.78 301.164 403.223 301.164Z" fill="#DCE1FE"/>
<path d="M493 328.674C489.5 328.674 472.5 307.174 472.5 307.174L454.5 280.174C469.167 294.34 498.6 322.674 499 322.674C499.4 322.674 496.5 328.674 493 328.674Z" fill="#B8C3FD"/>
<path d="M283.182 322.02C283.182 303.962 312.422 230.36 329.606 238.821C338.508 243.297 349.375 247.505 353.342 248.481C355.211 248.947 334.484 231.211 317.501 248.481C298.622 267.667 283.182 322.02 283.182 322.02Z" fill="#B8C3FD"/>
<path d="M353.453 384.584C358.582 399.884 376.563 407.521 390.629 400.607C375.683 400.417 362.716 396.233 353.453 384.584Z" fill="#B1B9E4"/>
<path d="M400.149 386.706C370.311 396.659 320.57 379.328 304.943 355.568C342.406 385.578 400.534 387.567 400.149 386.706Z" fill="#B1B9E4"/>
<path d="M391.99 303.885H379.296V316.579H391.99V303.885Z" fill="#FCB614"/>
<path d="M379.296 303.885H367.055V316.579H379.296V303.885Z" fill="#EF4E63"/>
<path d="M379.296 290.738H367.055V303.886H379.296V290.738Z" fill="#63CCF5"/>
<path d="M277.467 278.161C280.967 273.957 321.269 237.256 321.269 237.256C324.93 233.837 328.758 232.622 331.911 233.877C335.063 235.132 337.283 238.755 338.08 243.949L338.446 246.329L294.643 287.234C290.982 290.653 287.154 291.868 284.002 290.613C279.655 288.883 273.967 282.366 277.467 278.161Z" fill="#F2F4FA"/>
<path d="M277.467 278.161C280.967 273.957 321.269 237.256 321.269 237.256C324.93 233.837 328.758 232.622 331.911 233.877C335.063 235.132 337.283 238.755 338.08 243.949L338.446 246.329L294.643 287.234C290.982 290.653 287.154 291.868 284.002 290.613C279.655 288.883 273.967 282.366 277.467 278.161Z" stroke="black"/>
<path d="M295.501 286.501C291.501 291.001 288.501 291.501 286.501 291.501C284.501 291.501 281.001 289.334 280.501 288.501C295.668 275.168 327.701 248.201 332.501 247.001C337.301 245.801 337.834 246.834 337.501 247.501C325.001 259.001 298.883 282.696 295.501 286.501Z" fill="#B8C3FD"/>
<path d="M350.774 229.531H349.788C347.556 229.531 345.747 231.382 345.747 233.665V239.905C345.747 242.188 347.556 244.039 349.788 244.039H350.774C353.005 244.039 354.814 242.188 354.814 239.905V233.665C354.814 231.382 353.005 229.531 350.774 229.531Z" fill="#F2F4FA"/>
<path d="M408.351 229.984H407.365C405.133 229.984 403.324 231.835 403.324 234.118V240.359C403.324 242.642 405.133 244.492 407.365 244.492H408.351C410.583 244.492 412.392 242.642 412.392 240.359V234.118C412.392 231.835 410.583 229.984 408.351 229.984Z" fill="#F2F4FA"/>
<path d="M412.386 236.332V241.544C412.41 241.935 412.357 242.327 412.23 242.695C412.103 243.062 411.906 243.396 411.65 243.674C411.395 243.953 411.088 244.169 410.749 244.309C410.41 244.45 410.047 244.511 409.685 244.488H406.951C409.735 243.633 411.461 240.743 412.386 236.332Z" fill="#B8C3FD"/>
<path d="M345.755 235.426V240.923C345.726 241.327 345.774 241.734 345.897 242.116C346.02 242.498 346.215 242.848 346.469 243.141C346.723 243.435 347.03 243.667 347.371 243.822C347.711 243.976 348.078 244.05 348.446 244.039H351.188C348.421 243.159 346.672 240.062 345.755 235.426Z" fill="#B1B9E4"/>
<rect x="301.316" y="170.279" width="155.052" height="29.9224" rx="14.9612" fill="#B8C3FD"/>
<path d="M379.488 236.924C370.971 236.953 327.406 236.118 315.339 211.279C314.338 209.237 314.011 206.945 314.011 204.671V165.156C314.011 162.878 314.337 160.593 315.339 158.547C327.753 133.046 373.627 133.104 379.199 133.104C384.915 133.104 430.443 133.161 442.8 158.547C443.8 160.589 444.128 162.881 444.128 165.155V204.67C444.128 206.948 443.802 209.233 442.8 211.279C431.05 235.455 389.39 236.896 379.488 236.924Z" fill="#F2F4FA"/>
<path d="M379.193 223.775C372.071 223.796 335.64 223.18 325.549 204.849C324.719 203.354 324.438 201.629 324.438 199.919V170.864C324.438 169.151 324.717 167.432 325.549 165.934C335.93 147.114 374.292 147.156 378.951 147.156C383.732 147.156 421.804 147.199 432.137 165.934C432.966 167.429 433.247 169.154 433.247 170.864V199.918C433.247 201.632 432.968 203.351 432.137 204.849C422.311 222.691 387.474 223.754 379.193 223.775Z" fill="#FFFFFD"/>
<path d="M412.071 132.025C410.864 129.637 408.179 128.37 405.404 127.662H352.734C349.959 128.37 347.274 129.637 346.067 132.025C341.452 141.134 358.104 167.105 379.069 167.105C400.034 167.105 416.686 141.134 412.071 132.025Z" fill="#B8C3FD"/>
<rect x="361.001" y="173.672" width="10.0958" height="21.0329" rx="5.0479" fill="#231F20"/>
<rect x="392.001" y="176.672" width="10.0958" height="21.0329" rx="5.0479" fill="#231F20"/>
<path d="M385.311 448.541C422.708 448.541 453.024 445.452 453.024 441.641C453.024 437.83 422.708 434.74 385.311 434.74C347.915 434.74 317.599 437.83 317.599 441.641C317.599 445.452 347.915 448.541 385.311 448.541Z" fill="#C7A8F4"/>
<path d="M484.708 142.06C493.888 142.06 500.368 135.58 500.368 126.76C500.368 117.94 493.888 111.46 484.708 111.46C475.528 111.46 469.048 117.94 469.048 126.76C469.048 135.58 475.528 142.06 484.708 142.06ZM497.128 101.56C497.128 88.24 502.348 82.66 512.068 77.08C524.668 69.7 534.028 60.52 534.028 44.68C534.028 22.36 513.868 6.33999 487.228 6.33999C459.328 6.33999 439.168 23.98 436.648 48.28L463.828 53.32C465.448 39.82 474.088 29.92 486.148 29.92C496.588 29.92 504.508 37.3 504.508 46.84C504.508 55.48 497.488 60.34 490.288 65.2C478.408 73.3 472.288 82.48 472.288 101.56H497.128Z" fill="#FEDF68"/>
<path d="M115.613 429.593C127.921 429.593 137.899 419.546 137.899 407.152C137.899 394.758 127.921 384.711 115.613 384.711C103.306 384.711 93.3281 394.758 93.3281 407.152C93.3281 419.546 103.306 429.593 115.613 429.593Z" fill="#E9DCFB"/>
<path d="M542.285 267.882C554.593 267.882 564.571 257.835 564.571 245.441C564.571 233.047 554.593 223 542.285 223C529.977 223 520 233.047 520 245.441C520 257.835 529.977 267.882 542.285 267.882Z" fill="#E9DCFB"/>
<path d="M178.939 360.877C186.085 360.877 191.877 355.085 191.877 347.939C191.877 340.793 186.085 335 178.939 335C171.793 335 166 340.793 166 347.939C166 355.085 171.793 360.877 178.939 360.877Z" fill="#BDDED3"/>
<path d="M12.9387 163.877C20.0845 163.877 25.8774 158.085 25.8774 150.939C25.8774 143.793 20.0845 138 12.9387 138C5.79285 138 0 143.793 0 150.939C0 158.085 5.79285 163.877 12.9387 163.877Z" fill="#BDDED3"/>
<path d="M506.939 393.877C514.085 393.877 519.877 388.085 519.877 380.939C519.877 373.793 514.085 368 506.939 368C499.793 368 494 373.793 494 380.939C494 388.085 499.793 393.877 506.939 393.877Z" fill="#FAC7D0"/>
<path d="M233.066 483.043C240.211 483.043 246.004 477.251 246.004 470.105C246.004 462.959 240.211 457.166 233.066 457.166C225.92 457.166 220.127 462.959 220.127 470.105C220.127 477.251 225.92 483.043 233.066 483.043Z" fill="#B8C3FD"/>
<path d="M283.332 135.801C287.381 135.801 290.664 132.712 290.664 128.901C290.664 125.09 287.381 122 283.332 122C279.283 122 276 125.09 276 128.901C276 132.712 279.283 135.801 283.332 135.801Z" fill="#B8C3FD"/>
<path d="M392 171.672C396.578 170.441 401.388 169.672 406 169.672" stroke="#231F20" stroke-width="4" stroke-linecap="round" stroke-linejoin="round"/>
<path d="M373 167.672C372.25 166.198 371.576 165.532 370 164.723C368.808 164.112 366.908 163.672 365.6 163.672C362.841 163.672 359.245 163.869 358 166.566" stroke="#231F20" stroke-width="4" stroke-linecap="round" stroke-linejoin="round"/>
<path d="M351.617 247.074C361.098 247.755 369.308 241.002 369.955 231.99C370.603 222.979 363.442 215.122 353.962 214.44C344.481 213.759 336.271 220.512 335.623 229.524C334.976 238.535 342.137 246.392 351.617 247.074Z" fill="#B8C3FD"/>
<path d="M387.539 204.881C388.329 206.629 383.369 210.305 376.459 213.091C369.549 215.877 363.307 216.718 362.517 214.97C361.727 213.222 366.687 209.546 373.597 206.76C380.507 203.974 386.749 203.132 387.539 204.881Z" fill="#B8C3FD"/>
<ellipse rx="6.44077" ry="3.22255" transform="matrix(-0.137333 -0.990525 0.99304 -0.117782 338.026 210.653)" fill="#B8C3FD"/>
<path d="M373.858 220.688C374.452 222.003 373.846 223.507 372.504 224.048C371.162 224.589 369.593 223.962 368.999 222.647C368.405 221.333 369.011 219.829 370.352 219.288C371.694 218.747 373.263 219.374 373.858 220.688Z" fill="#B8C3FD"/>
<path d="M377.764 227.787C378.298 228.968 377.59 230.385 376.183 230.952C374.775 231.52 373.202 231.023 372.668 229.842C372.134 228.661 372.842 227.243 374.249 226.676C375.657 226.108 377.23 226.606 377.764 227.787Z" fill="#B8C3FD"/>
<ellipse rx="2.12307" ry="1.95646" transform="matrix(0.92744 -0.373971 0.411939 0.911211 373.832 237.663)" fill="#B8C3FD"/>
<path d="M350.788 245.142C360.268 245.823 368.479 239.07 369.126 230.059C369.774 221.047 362.613 213.19 353.133 212.509C343.652 211.828 335.442 218.581 334.794 227.592C334.147 236.603 341.307 244.461 350.788 245.142Z" fill="#F2F4FA"/>
<path d="M386.554 202.937C387.344 204.685 382.383 208.361 375.474 211.148C368.564 213.934 362.322 214.775 361.532 213.027C360.741 211.279 365.702 207.603 372.612 204.816C379.521 202.03 385.763 201.189 386.554 202.937Z" fill="#F2F4FA"/>
<ellipse rx="6.44077" ry="3.22255" transform="matrix(-0.137333 -0.990525 0.99304 -0.117782 337.196 208.723)" fill="#F2F4FA"/>
<path d="M373.028 218.757C373.622 220.071 373.016 221.575 371.674 222.116C370.332 222.657 368.763 222.03 368.169 220.716C367.574 219.401 368.18 217.897 369.522 217.356C370.864 216.815 372.433 217.442 373.028 218.757Z" fill="#F2F4FA"/>
<path d="M376.935 225.855C377.469 227.036 376.761 228.453 375.354 229.021C373.946 229.588 372.373 229.091 371.839 227.91C371.305 226.729 372.013 225.312 373.42 224.744C374.828 224.177 376.401 224.674 376.935 225.855Z" fill="#F2F4FA"/>
<ellipse rx="2.12307" ry="1.95646" transform="matrix(0.92744 -0.373971 0.411939 0.911211 373.003 235.731)" fill="#F2F4FA"/>
<path d="M171.482 211.993C183.354 232.279 180.584 264.218 167.262 288.244C153.808 312.414 129.934 328.815 106.323 328.671C82.845 328.383 59.6304 311.407 43.9342 285.798C28.2379 260.189 19.7963 225.804 31.4036 205.807C43.0109 185.953 74.4033 180.342 103.553 181.924C132.704 183.363 159.479 191.851 171.482 211.993Z" fill="#F5A64A"/>
<mask id="mask0" mask-type="alpha" maskUnits="userSpaceOnUse" x="100" y="146" width="143" height="101">
<rect x="103.692" y="149.672" width="136.308" height="94" rx="13" fill="#F2F4FA" stroke="#C7A8F4" stroke-width="6"/>
</mask>
<g mask="url(#mask0)">
<rect x="103.692" y="149.672" width="136.308" height="94" rx="13" fill="#F2F4FA" stroke="#C7A8F4" stroke-width="6"/>
<path d="M204.782 212.234L239.154 243.596" stroke="#DCE1FE" stroke-width="6" stroke-linecap="round" stroke-linejoin="round"/>
<path d="M138.317 213.596L55.3078 278.56" stroke="#DCE1FE" stroke-width="6" stroke-linecap="round" stroke-linejoin="round"/>
<line x1="87.202" y1="139.162" x2="172.056" y2="203.241" stroke="#C7A8F4" stroke-width="6" stroke-linecap="round" stroke-linejoin="round"/>
<line x1="242.5" y1="147.809" x2="172.213" y2="203.173" stroke="#C7A8F4" stroke-width="6" stroke-linecap="round" stroke-linejoin="round"/>
<rect x="103.692" y="149.672" width="136.308" height="94" rx="13" stroke="#C7A8F4" stroke-width="6"/>
</g>
<ellipse cx="232.5" cy="145" rx="20.5" ry="21" fill="#C7A8F4"/>
<path d="M231.24 156H236.16V134.64H231.96L226.08 139.05V144.03L231.24 140.19V156Z" fill="#F9F7F2"/>
</svg>
