<svg width="781" height="398" viewBox="0 0 781 398" fill="none" xmlns="http://www.w3.org/2000/svg">
<path fill-rule="evenodd" clip-rule="evenodd" d="M346.535 74.0002C370.481 73.894 378.038 109.36 398.304 122.148C417.452 134.23 447.521 127.517 460.637 145.998C473.59 164.252 466.384 190.056 462.095 212.041C458.321 231.389 453.997 253.976 437.483 264.682C420.522 275.677 393.356 253.495 377.95 266.59C356.868 284.508 371.055 329.198 346.535 341.983C326.99 352.174 308.914 320.805 288.155 313.411C261.549 303.935 212.928 320.271 207.554 292.483C201.048 258.844 253.725 242.916 268.549 212.041C275.218 198.15 263.625 181.363 268 166.585C272.972 149.792 283.709 135.951 295.029 122.606C310.568 104.287 322.547 74.1067 346.535 74.0002Z" fill="#C7A8F4"/>
<path d="M213.5 398C218.747 398 223 393.971 223 389C223 384.029 218.747 380 213.5 380C208.253 380 204 384.029 204 389C204 393.971 208.253 398 213.5 398Z" fill="#5DB097"/>
<path d="M771.5 232C776.747 232 781 227.971 781 223C781 218.029 776.747 214 771.5 214C766.253 214 762 218.029 762 223C762 227.971 766.253 232 771.5 232Z" fill="#5DB097"/>
<path d="M556.5 36C561.747 36 566 31.9706 566 27C566 22.0294 561.747 18 556.5 18C551.253 18 547 22.0294 547 27C547 31.9706 551.253 36 556.5 36Z" fill="#BDDED3"/>
<path d="M581.5 343C586.747 343 591 338.971 591 334C591 329.029 586.747 325 581.5 325C576.253 325 572 329.029 572 334C572 338.971 576.253 343 581.5 343Z" fill="#FEDF68"/>
<path d="M33.5 286C38.7467 286 43 281.971 43 277C43 272.029 38.7467 268 33.5 268C28.2533 268 24 272.029 24 277C24 281.971 28.2533 286 33.5 286Z" fill="#B8C3FD"/>
<path d="M135 291C152.121 291 166 277.792 166 261.5C166 245.208 152.121 232 135 232C117.879 232 104 245.208 104 261.5C104 277.792 117.879 291 135 291Z" fill="#E9DCFB"/>
<path d="M696 352C713.121 352 727 338.792 727 322.5C727 306.208 713.121 293 696 293C678.879 293 665 306.208 665 322.5C665 338.792 678.879 352 696 352Z" fill="#FAC7D0"/>
<path d="M385.686 315.897C356.753 305.607 324.858 296.093 307.316 277.065C289.546 258.231 286.356 229.884 293.647 205.031C300.709 180.178 318.479 159.014 344.906 153.384C371.561 147.753 407.328 157.849 428.971 148.336C450.614 139.016 458.132 109.891 468.612 105.62C479.091 101.154 492.533 121.735 500.506 137.851C508.708 153.966 511.442 165.81 531.034 175.712C550.627 185.615 587.305 193.575 610.087 212.797C632.869 232.019 642.21 262.503 621.478 270.852C600.747 279.395 550.399 265.803 519.415 275.123C488.66 284.249 477.041 316.286 458.588 326.77C440.134 337.255 414.391 326.188 385.686 315.897Z" fill="#64C0C1"/>
<path d="M443.517 312.509C458.916 312.509 471.399 299.722 471.399 283.947C471.399 268.173 458.916 255.385 443.517 255.385C428.118 255.385 415.635 268.173 415.635 283.947C415.635 299.722 428.118 312.509 443.517 312.509Z" fill="#F2F4FA"/>
<path d="M510.653 247.713C513.223 247.711 515.689 248.751 517.509 250.604C519.33 252.457 520.356 254.973 520.363 257.599C520.363 266.064 480.632 298.908 444.205 298.908C407.778 298.908 364.857 267.136 364.857 257.599C364.857 254.968 365.88 252.444 367.701 250.584C369.522 248.723 371.992 247.678 374.567 247.678L510.653 247.713Z" fill="#F2F4FA"/>
<path d="M503.59 148.614C501.315 147.258 498.727 146.555 496.096 146.577C493.465 146.599 490.888 147.346 488.635 148.739C458.098 167.625 429.087 165.603 393.533 148.104C376.371 139.659 347.177 213.206 347.177 231.242C349.201 300.128 538.045 295.61 538.045 231.242C538.036 231.242 532.095 165.728 503.59 148.614Z" fill="#F2F4FA"/>
<path d="M559.363 236.727L557.353 238.628L506.135 186.86C501.855 182.533 499.493 176.737 499.568 170.745C499.644 164.753 502.152 159.057 506.539 154.909L508.55 153.009L559.767 204.777C564.048 209.103 566.41 214.9 566.334 220.892C566.259 226.884 563.751 232.58 559.363 236.727Z" fill="#F2F4FA"/>
<path d="M462.839 244.503C449.205 237.998 435.569 237.998 421.929 244.503C415.948 244.503 411.102 239.803 411.102 233.995V194.26C411.102 188.452 415.948 183.752 421.929 183.752H462.839C468.82 183.752 473.667 188.452 473.667 194.26V233.995C473.667 239.803 468.82 244.503 462.839 244.503Z" fill="#F1F3FF" stroke="#C7C9F4" stroke-width="5" stroke-miterlimit="10"/>
<path d="M416.693 193.727H416.391C415.723 193.727 415.182 194.251 415.182 194.897V208.877C415.182 209.524 415.723 210.048 416.391 210.048H416.693C417.361 210.048 417.902 209.524 417.902 208.877V194.897C417.902 194.251 417.361 193.727 416.693 193.727Z" fill="#DCE1FE"/>
<path d="M416.693 211.861H416.391C415.723 211.861 415.182 212.391 415.182 213.045V217.932C415.182 218.585 415.723 219.115 416.391 219.115H416.693C417.361 219.115 417.902 218.585 417.902 217.932V213.045C417.902 212.391 417.361 211.861 416.693 211.861Z" fill="#DCE1FE"/>
<path d="M467.218 220.021H466.966C466.41 220.021 465.959 220.56 465.959 221.225V235.593C465.959 236.257 466.41 236.796 466.966 236.796H467.218C467.775 236.796 468.226 236.257 468.226 235.593V221.225C468.226 220.56 467.775 220.021 467.218 220.021Z" fill="#DCE1FE"/>
<path d="M467.218 210.502H466.966C466.41 210.502 465.959 211.032 465.959 211.686V216.572C465.959 217.226 466.41 217.756 466.966 217.756H467.218C467.775 217.756 468.226 217.226 468.226 216.572V211.686C468.226 211.032 467.775 210.502 467.218 210.502Z" fill="#DCE1FE"/>
<path d="M556.996 238.01C553.496 238.01 536.496 216.51 536.496 216.51L518.496 189.51C533.163 203.676 562.596 232.01 562.996 232.01C563.396 232.01 560.496 238.01 556.996 238.01Z" fill="#B8C3FD"/>
<path d="M417.449 293.922C422.578 309.222 440.559 316.859 454.625 309.945C439.679 309.755 426.712 305.571 417.449 293.922Z" fill="#B1B9E4"/>
<path d="M464.144 296.044C434.307 305.997 384.566 288.666 368.938 264.906C406.402 294.916 464.529 296.905 464.144 296.044Z" fill="#B1B9E4"/>
<path d="M455.985 213.221H443.291V225.915H455.985V213.221Z" fill="#FCB614"/>
<path d="M443.291 213.221H431.05V225.915H443.291V213.221Z" fill="#EF4E63"/>
<path d="M443.291 200.074H431.05V213.222H443.291V200.074Z" fill="#63CCF5"/>
<path d="M414.769 138.869H413.783C411.551 138.869 409.742 140.72 409.742 143.003V149.243C409.742 151.526 411.551 153.377 413.783 153.377H414.769C417.001 153.377 418.81 151.526 418.81 149.243V143.003C418.81 140.72 417.001 138.869 414.769 138.869Z" fill="#F2F4FA"/>
<path d="M472.346 139.322H471.36C469.128 139.322 467.319 141.173 467.319 143.456V149.696C467.319 151.979 469.128 153.83 471.36 153.83H472.346C474.578 153.83 476.387 151.979 476.387 149.696V143.456C476.387 141.173 474.578 139.322 472.346 139.322Z" fill="#F2F4FA"/>
<path d="M476.381 145.67V150.882C476.405 151.273 476.352 151.665 476.225 152.033C476.099 152.4 475.901 152.734 475.646 153.012C475.39 153.29 475.083 153.507 474.744 153.647C474.405 153.788 474.043 153.849 473.68 153.826H470.946C473.73 152.971 475.456 150.081 476.381 145.67Z" fill="#B8C3FD"/>
<path d="M409.751 144.764V150.261C409.721 150.665 409.769 151.072 409.892 151.454C410.015 151.836 410.21 152.185 410.464 152.479C410.718 152.773 411.025 153.005 411.366 153.16C411.707 153.314 412.073 153.388 412.442 153.377H415.183C412.417 152.497 410.667 149.4 409.751 144.764Z" fill="#B1B9E4"/>
<rect x="365.312" y="79.6172" width="155.052" height="29.9224" rx="14.9612" fill="#B8C3FD"/>
<path d="M443.483 146.262C434.966 146.291 391.402 145.455 379.334 120.617C378.334 118.575 378.006 116.283 378.006 114.009V74.4938C378.006 72.2161 378.332 69.9307 379.334 67.8852C391.748 42.3838 437.622 42.4414 443.194 42.4414C448.91 42.4414 494.438 42.499 506.795 67.8852C507.795 69.9273 508.123 72.2191 508.123 74.4931V114.008C508.123 116.286 507.797 118.571 506.795 120.617C495.045 144.793 453.385 146.233 443.483 146.262Z" fill="#F2F4FA"/>
<path d="M443.188 133.113C436.066 133.134 399.636 132.518 389.544 114.187C388.714 112.692 388.434 110.967 388.434 109.257V80.2021C388.434 78.4887 388.713 76.7696 389.544 75.2714C399.925 56.4516 438.287 56.4941 442.947 56.4941C447.727 56.4941 485.799 56.5367 496.132 75.2714C496.962 76.7666 497.242 78.4914 497.242 80.2015V109.256C497.242 110.97 496.963 112.689 496.132 114.187C486.306 132.029 451.469 133.092 443.188 133.113Z" fill="#FFFFFD"/>
<path d="M476.066 41.3629C474.859 38.9751 472.174 37.7075 469.399 37H416.729C413.954 37.7075 411.269 38.9751 410.063 41.3629C405.447 50.472 422.099 76.4431 443.064 76.4431C464.029 76.4431 480.681 50.472 476.066 41.3629Z" fill="#B8C3FD"/>
<rect x="424.051" y="86.4043" width="10.0958" height="21.0329" rx="5.0479" fill="#231F20"/>
<rect x="450.973" y="86.4043" width="10.0958" height="21.0329" rx="5.0479" fill="#231F20"/>
<path d="M419 178.911C419 174.542 422.394 171 426.58 171H544.065C548.251 171 551.644 174.542 551.644 178.911V252.089C551.644 256.458 548.251 260 544.065 260H426.58C422.394 260 419 256.458 419 252.089V178.911Z" fill="#140E16"/>
<path d="M477.771 207.646H487.292V217.641H477.771V207.646Z" fill="#63CCF5"/>
<path d="M477.771 217.643H487.292V227.637H477.771V217.643Z" fill="#EF4E63"/>
<path d="M487.292 217.643H496.813V227.637H487.292V217.643Z" fill="#FCB614"/>
<path d="M370.167 176.364L372.496 174L425.684 223.939C430.129 228.113 432.373 234.165 431.922 240.765C431.47 247.364 428.361 253.97 423.278 259.13L420.949 261.494L367.761 211.555C363.316 207.381 361.072 201.329 361.523 194.73C361.974 188.13 365.083 181.524 370.167 176.364Z" fill="#B8C3FD"/>
<path d="M371.991 173.673L374.32 171.309L425.326 219.199C429.589 223.201 431.657 229.089 431.077 235.568C430.497 242.046 427.315 248.584 422.232 253.744L419.903 256.108L368.897 208.218C364.634 204.216 362.566 198.328 363.146 191.849C363.726 185.371 366.907 178.832 371.991 173.673Z" fill="#F2F4FA"/>
<path fill-rule="evenodd" clip-rule="evenodd" d="M10 15C4.47715 15 0 19.4772 0 25V121.065C0 126.587 4.47717 131.065 10 131.065H248.27L293.716 154.942C298.924 157.679 305.241 154.787 303.777 150.337L290.864 111.107V25C290.864 19.4772 286.387 15 280.864 15H10Z" fill="#4E6AFA"/>
<path fill-rule="evenodd" clip-rule="evenodd" d="M690 0C695.523 0 700 4.47715 700 10V64C700 69.5229 695.523 74 690 74H621.888L590.467 87.8849C584.978 90.3104 578.694 87.8908 580.237 83.9464L589 61.5553V10C589 4.47715 593.477 0 599 0H690Z" fill="#4E6AFA"/>
<path fill-rule="evenodd" clip-rule="evenodd" d="M680 119C685.523 119 690 123.477 690 129V176C690 181.523 685.523 186 680 186H636.328C636.263 186.039 636.197 186.078 636.131 186.115L619.425 195.59C614.359 198.464 608.04 195.341 609.465 190.668L614.163 175.26C614.342 174.672 614.629 174.128 615 173.636V129C615 123.477 619.477 119 625 119H680Z" fill="#4E6AFA"/>
<path d="M42.1429 61.5714V46.7143C42.1429 44.6629 43.8058 43 45.8571 43H68.1429C70.1942 43 71.8571 44.6629 71.8571 46.7143V61.5714C71.8571 69.7768 65.2054 76.4286 57 76.4286C48.7946 76.4286 42.1429 69.7768 42.1429 61.5714Z" fill="#F9F7F2"/>
<path d="M44 95H70M57 95V76.4286M57 76.4286C65.2054 76.4286 71.8571 69.7768 71.8571 61.5714V46.7143C71.8571 44.6629 70.1942 43 68.1429 43H45.8571C43.8058 43 42.1429 44.6629 42.1429 46.7143V61.5714C42.1429 69.7768 48.7946 76.4286 57 76.4286ZM42.1429 50.4286H38.4286C34.3259 50.4286 31 53.7545 31 57.8571C31 61.9598 34.3259 65.2857 38.4286 65.2857H42.1429M71.8571 50.4286H75.5714C79.6741 50.4286 83 53.7545 83 57.8571C83 61.9598 79.6741 65.2857 75.5714 65.2857H71.8571" stroke="#F9F7F2" stroke-width="4"/>
<path d="M640.147 19.0828C640.819 16.3057 644.181 16.3057 644.853 19.0828L647.783 31.1846C648.042 32.2542 648.807 33.0516 649.744 33.2302L659.947 35.1734C662.684 35.6949 662.684 40.3052 659.947 40.8266L649.744 42.7698C648.807 42.9484 648.042 43.7458 647.783 44.8154L644.853 56.9172C644.181 59.6943 640.819 59.6943 640.147 56.9172L637.217 44.8154C636.958 43.7458 636.193 42.9484 635.256 42.7698L625.053 40.8266C622.316 40.3052 622.316 35.6949 625.053 35.1734L635.256 33.2302C636.193 33.0516 636.958 32.2542 637.217 31.1846L640.147 19.0828Z" fill="#F9F7F2"/>
<path d="M668.405 12.8362C669.198 13.0259 669.198 13.9741 668.405 14.1638L664.947 14.9901C664.642 15.0632 664.414 15.2788 664.363 15.5431L663.808 18.4209C663.659 19.193 662.341 19.193 662.192 18.4209L661.637 15.5431C661.586 15.2788 661.358 15.0632 661.053 14.9901L657.595 14.1638C656.802 13.9741 656.802 13.0259 657.595 12.8362L661.053 12.0099C661.358 11.9368 661.586 11.7212 661.637 11.4569L662.192 8.57912C662.341 7.80696 663.659 7.80696 663.808 8.57913L664.363 11.4569C664.414 11.7212 664.642 11.9368 664.947 12.0099L668.405 12.8362Z" fill="#F9F7F2"/>
<path d="M676.603 24.638C677.132 24.7414 677.132 25.2586 676.603 25.362L674.298 25.8128C674.094 25.8526 673.943 25.9702 673.909 26.1144L673.538 27.6841C673.439 28.1053 672.561 28.1053 672.462 27.6841L672.091 26.1144C672.057 25.9702 671.906 25.8526 671.702 25.8128L669.397 25.362C668.868 25.2586 668.868 24.7414 669.397 24.638L671.702 24.1872C671.906 24.1474 672.057 24.0298 672.091 23.8856L672.462 22.3159C672.561 21.8947 673.439 21.8947 673.538 22.3159L673.909 23.8856C673.943 24.0298 674.094 24.1474 674.298 24.1872L676.603 24.638Z" fill="#F9F7F2"/>
<path d="M111.228 89H113.256V86.024L116.22 80.456H114.048L112.236 84.248L110.34 80.456H108.204L111.228 86.024V89ZM121.027 89.3C123.823 89.3 125.755 87.44 125.755 84.728C125.755 82.028 123.823 80.156 121.027 80.156C118.219 80.156 116.299 82.028 116.299 84.728C116.299 87.44 118.219 89.3 121.027 89.3ZM121.027 81.884C122.623 81.884 123.739 83.06 123.739 84.728C123.739 86.396 122.623 87.572 121.027 87.572C119.431 87.56 118.315 86.396 118.315 84.728C118.315 83.06 119.431 81.884 121.027 81.884ZM132.844 85.412C132.844 86.672 132.124 87.572 131.044 87.572C129.892 87.548 129.232 86.516 129.232 85.412V80.456H127.204V85.46C127.204 87.728 128.776 89.3 131.044 89.3C133.3 89.3 134.872 87.728 134.872 85.46V80.456H132.844V85.412ZM137.202 82.136C137.202 82.568 136.842 83.168 136.35 83.576L137.226 83.888C137.898 83.408 138.378 82.424 138.378 81.536C138.378 80.684 137.934 80.12 137.274 80.12C136.698 80.12 136.266 80.54 136.266 81.128C136.266 81.728 136.65 82.136 137.202 82.136ZM143.667 81.98C144.615 81.98 145.335 82.472 145.335 83.336C145.335 84.128 144.615 84.656 143.667 84.656H141.867V81.98H143.667ZM141.867 86.072H143.607L145.287 89H147.543L145.479 85.808C146.595 85.448 147.351 84.488 147.351 83.336C147.351 81.632 145.971 80.456 143.991 80.456H139.851V89H141.867V86.072ZM151.029 85.34H154.605V83.9H151.029V82.076H155.085V80.456H149.085V89H155.205V87.38H151.029V85.34ZM163.982 82.184L165.326 86.144H162.638L163.982 82.184ZM162.242 87.584H165.722L166.19 89H168.302L165.446 80.456H162.518L159.65 89H161.774L162.242 87.584ZM175.08 89V87.272H171.504V80.456H169.488V89H175.08ZM178.452 82.892L180.804 89H182.316L184.68 82.892V89H186.648V80.456H183.96L181.56 86.732L179.136 80.456H176.484V89H178.452V82.892ZM192.921 89.3C195.717 89.3 197.649 87.44 197.649 84.728C197.649 82.028 195.717 80.156 192.921 80.156C190.113 80.156 188.193 82.028 188.193 84.728C188.193 87.44 190.113 89.3 192.921 89.3ZM192.921 81.884C194.517 81.884 195.633 83.06 195.633 84.728C195.633 86.396 194.517 87.572 192.921 87.572C191.325 87.56 190.209 86.396 190.209 84.728C190.209 83.06 191.325 81.884 192.921 81.884ZM206.191 86.336C206.191 84.368 204.475 84.008 202.819 83.816C201.739 83.672 200.887 83.552 200.887 82.748C200.887 82.124 201.511 81.68 202.459 81.68C203.491 81.68 204.247 82.28 204.235 83.12H205.987C205.987 81.404 204.487 80.156 202.411 80.156C200.347 80.156 198.919 81.308 198.919 82.976C198.919 84.968 200.551 85.328 202.243 85.544C203.299 85.676 204.223 85.796 204.223 86.6C204.223 87.284 203.611 87.776 202.627 87.776C201.475 87.776 200.647 87.116 200.647 86.192H198.835C198.835 87.992 200.395 89.3 202.567 89.3C204.739 89.3 206.191 88.088 206.191 86.336ZM209.338 89H211.354V82.136H213.922V80.456H206.77V82.136H209.338V89ZM220.553 89H222.569V82.136H225.137V80.456H217.985V82.136H220.553V89ZM228.316 89V85.388H231.844V89H233.86V80.456H231.844V83.756H228.316V80.456H226.3V89H228.316ZM237.736 85.34H241.312V83.9H237.736V82.076H241.792V80.456H235.792V89H241.912V87.38H237.736V85.34ZM247.261 81.98C248.209 81.98 248.929 82.472 248.929 83.336C248.929 84.128 248.209 84.656 247.261 84.656H245.461V81.98H247.261ZM245.461 86.072H247.201L248.881 89H251.137L249.073 85.808C250.189 85.448 250.945 84.488 250.945 83.336C250.945 81.632 249.565 80.456 247.585 80.456H243.445V89H245.461V86.072ZM254.623 85.34H258.199V83.9H254.623V82.076H258.679V80.456H252.679V89H258.799V87.38H254.623V85.34ZM261.231 89.192C261.843 89.192 262.275 88.772 262.275 88.172C262.275 87.584 261.843 87.164 261.231 87.164C260.631 87.164 260.187 87.584 260.187 88.172C260.187 88.772 260.631 89.192 261.231 89.192ZM262.179 80.456H260.307V82.76L260.763 86.156H261.699L262.179 82.76V80.456Z" fill="white"/>
<path fill-rule="evenodd" clip-rule="evenodd" d="M653.7 146.118C653.7 150.258 650.33 153.614 646.173 153.614C642.016 153.614 638.646 150.258 638.646 146.118C638.646 141.978 642.016 138.622 646.173 138.622C650.33 138.622 653.7 141.978 653.7 146.118ZM651.078 158.296C649.562 158.902 647.907 159.236 646.173 159.236C638.898 159.236 633 153.362 633 146.118C633 138.873 638.898 133 646.173 133C653.448 133 659.346 138.873 659.346 146.118C659.346 149.264 658.234 152.151 656.38 154.411L668.242 168.638C669.401 170.029 669.209 172.091 667.813 173.245C666.417 174.4 664.346 174.208 663.187 172.818L651.078 158.296Z" fill="#F9F7F2"/>
<ellipse cx="441.5" cy="348" rx="45.5" ry="8" fill="#2E898A"/>
<mask id="mask0" mask-type="alpha" maskUnits="userSpaceOnUse" x="100" y="49" width="173" height="20">
<rect x="100" y="49" width="173" height="20" rx="10" fill="#F9F7F2"/>
</mask>
<g mask="url(#mask0)">
<rect x="100" y="49" width="173" height="20" rx="10" fill="#F9F7F2"/>
<path d="M94 59H217" stroke="#4E6AFA" stroke-width="7" stroke-linecap="round" stroke-linejoin="round" stroke-dasharray="15 8"/>
</g>
</svg>
