<svg width="665" height="361" viewBox="0 0 665 361" fill="none" xmlns="http://www.w3.org/2000/svg">
<mask id="mask0" mask-type="alpha" maskUnits="userSpaceOnUse" x="262" y="230" width="133" height="131">
<ellipse cx="328.5" cy="295.5" rx="66.5" ry="65.5" fill="#C7A8F4"/>
</mask>
<g mask="url(#mask0)">
<ellipse cx="328.5" cy="295.5" rx="66.5" ry="65.5" fill="#C7A8F4"/>
<path d="M297.294 336.209L298.444 337.509L265.12 368.102C262.335 370.658 258.668 371.983 254.925 371.784C251.182 371.584 247.67 369.878 245.161 367.039L244.012 365.738L277.335 335.146C280.12 332.589 283.788 331.265 287.531 331.464C291.274 331.664 294.786 333.37 297.294 336.209Z" fill="#F2F4FA"/>
<path d="M291.571 332.931C277.711 344.892 263.283 357.128 250.925 371.031C248.391 370.175 245.813 367.937 243.896 365.761L275.892 336.232C277.984 334.304 280.539 332.983 283.295 332.402C286.05 331.822 288.907 332.005 291.571 332.931Z" fill="#B8C3FD"/>
<path d="M365.07 319.505C363.646 318.661 362.026 318.223 360.379 318.237C358.732 318.25 357.119 318.715 355.709 319.583C336.595 331.344 318.436 330.085 296.182 319.188C285.439 313.929 267.166 359.728 267.166 370.96C268.433 413.857 386.636 411.044 386.636 370.96C386.631 370.96 382.912 330.163 365.07 319.505Z" fill="#F2F4FA"/>
<path d="M408.518 373.344L407.597 374.669L373.655 350.163C370.818 348.115 368.895 345.002 368.31 341.509C367.725 338.016 368.525 334.43 370.535 331.538L371.455 330.213L405.398 354.719C408.234 356.767 410.157 359.88 410.742 363.373C411.327 366.866 410.527 370.452 408.518 373.344Z" fill="#F2F4FA"/>
<path d="M339.563 379.218C331.029 375.167 322.493 375.167 313.956 379.218C310.212 379.218 307.179 376.291 307.179 372.675V347.93C307.179 344.314 310.212 341.387 313.956 341.387H339.563C343.307 341.387 346.34 344.314 346.34 347.93V372.675C346.34 376.291 343.307 379.218 339.563 379.218Z" fill="#F1F3FF" stroke="#C7C9F4" stroke-width="5" stroke-miterlimit="10"/>
<path d="M310.678 347.598H310.489C310.071 347.598 309.732 347.924 309.732 348.327V357.032C309.732 357.435 310.071 357.761 310.489 357.761H310.678C311.096 357.761 311.435 357.435 311.435 357.032V348.327C311.435 347.924 311.096 347.598 310.678 347.598Z" fill="#DCE1FE"/>
<path d="M310.678 358.891H310.489C310.071 358.891 309.732 359.221 309.732 359.628V362.671C309.732 363.078 310.071 363.408 310.489 363.408H310.678C311.096 363.408 311.435 363.078 311.435 362.671V359.628C311.435 359.221 311.096 358.891 310.678 358.891Z" fill="#DCE1FE"/>
<path d="M342.305 358.045H342.147C341.799 358.045 341.517 358.375 341.517 358.782V361.825C341.517 362.232 341.799 362.562 342.147 362.562H342.305C342.653 362.562 342.935 362.232 342.935 361.825V358.782C342.935 358.375 342.653 358.045 342.305 358.045Z" fill="#DCE1FE"/>
<path d="M267.166 371.031C267.166 359.786 285.468 313.952 296.224 319.221C301.796 322.008 308.599 324.629 311.081 325.236C312.251 325.526 298.559 325.9 287.929 336.654C276.112 348.602 267.166 371.031 267.166 371.031Z" fill="#B8C3FD"/>
<path d="M410.537 368.871C412.364 363.454 410.118 358.564 405.602 355.251L374.101 332.146L373.832 332.56C372.19 335.134 412.045 359.489 410.537 368.871Z" fill="#B8C3FD"/>
<path d="M335.273 359.738H327.327V367.643H335.273V359.738Z" fill="#FCB614"/>
<path d="M327.327 359.738H319.665V367.643H327.327V359.738Z" fill="#EF4E63"/>
<path d="M327.327 351.551H319.665V359.738H327.327V351.551Z" fill="#63CCF5"/>
<path d="M309.474 313.438H308.856C307.459 313.438 306.327 314.59 306.327 316.012V319.898C306.327 321.319 307.459 322.472 308.856 322.472H309.474C310.87 322.472 312.003 321.319 312.003 319.898V316.012C312.003 314.59 310.87 313.438 309.474 313.438Z" fill="#F2F4FA"/>
<path d="M345.514 313.719H344.896C343.5 313.719 342.367 314.871 342.367 316.293V320.179C342.367 321.601 343.5 322.753 344.896 322.753H345.514C346.91 322.753 348.043 321.601 348.043 320.179V316.293C348.043 314.871 346.91 313.719 345.514 313.719Z" fill="#F2F4FA"/>
<path d="M348.039 317.672V320.918C348.055 321.161 348.021 321.405 347.942 321.634C347.863 321.863 347.739 322.071 347.579 322.244C347.419 322.417 347.227 322.552 347.015 322.64C346.803 322.727 346.576 322.765 346.349 322.751H344.638C346.38 322.218 347.46 320.419 348.039 317.672Z" fill="#B8C3FD"/>
<path d="M306.332 317.107V320.531C306.314 320.783 306.344 321.036 306.421 321.274C306.498 321.512 306.62 321.729 306.779 321.912C306.938 322.095 307.13 322.24 307.343 322.336C307.557 322.432 307.786 322.478 308.017 322.471H309.732C308.001 321.923 306.906 319.995 306.332 317.107Z" fill="#B1B9E4"/>
<rect x="278.518" y="276.539" width="97.0518" height="18.6334" rx="9.3167" fill="#B8C3FD"/>
<path d="M327.447 318.041C322.116 318.059 294.848 317.538 287.294 302.07C286.668 300.799 286.463 299.371 286.463 297.954V273.35C286.463 271.931 286.667 270.507 287.294 269.233C295.064 253.353 323.779 253.389 327.266 253.389C330.844 253.389 359.341 253.425 367.076 269.233C367.702 270.504 367.907 271.933 367.907 273.35V297.953C367.907 299.373 367.703 300.797 367.076 302.07C359.721 317.125 333.645 318.023 327.447 318.041Z" fill="#F2F4FA"/>
<path d="M327.263 309.853C322.805 309.866 300.002 309.482 293.685 298.067C293.166 297.137 292.99 296.062 292.99 294.996V276.906C292.99 275.838 293.165 274.766 293.685 273.834C300.183 262.114 324.195 262.141 327.111 262.141C330.104 262.141 353.934 262.167 360.402 273.834C360.921 274.764 361.097 275.84 361.097 276.905V294.995C361.097 296.063 360.922 297.135 360.402 298.067C354.251 309.178 332.446 309.84 327.263 309.853Z" fill="#FFFFFD"/>
<path d="M347.842 252.717C347.087 251.23 345.406 250.441 343.669 250H310.702C308.964 250.441 307.284 251.23 306.529 252.717C303.64 258.389 314.063 274.562 327.185 274.562C340.308 274.562 350.731 258.389 347.842 252.717Z" fill="#B8C3FD"/>
<rect x="315.284" y="280.766" width="6.31925" height="13.0977" rx="3.15963" fill="#231F20"/>
<rect x="332.136" y="280.766" width="6.31925" height="13.0977" rx="3.15963" fill="#231F20"/>
<rect x="331.902" y="286.525" width="7.01888" height="13.4287" rx="3.50944" fill="#FFFFFD"/>
<rect x="315.165" y="286.525" width="7.01888" height="13.4287" rx="3.50944" fill="#FFFFFD"/>
</g>
<mask id="mask1" mask-type="alpha" maskUnits="userSpaceOnUse" x="258" y="0" width="133" height="130">
<ellipse cx="324.854" cy="65" rx="66" ry="65" fill="#C4C4C4"/>
</mask>
<g mask="url(#mask1)">
<ellipse cx="324.854" cy="65" rx="66" ry="65" fill="#5DB097"/>
<path d="M293.32 102.301L296.593 105.765L262.654 134.907C260.663 136.615 258.042 137.5 255.367 137.366C252.693 137.232 250.183 136.092 248.39 134.194L245.12 130.733L279.059 101.591C281.049 99.8832 283.669 98.9987 286.343 99.1319C289.017 99.265 291.527 100.405 293.32 102.301Z" fill="#FEDF68"/>
<path d="M290.156 101.779C277.029 112.322 253.346 133.371 251.454 134.728C249.562 136.084 247.866 133.528 245 130.718L275.309 104.69C280.465 99.368 284.672 98.1605 290.156 101.779Z" fill="#E8C143"/>
<path d="M359.644 89.8415C358.296 89.0937 356.761 88.706 355.201 88.7191C353.64 88.7322 352.113 89.1456 350.778 89.916C332.682 100.325 315.473 99.2068 294.391 89.562C284.226 84.9072 266.9 125.451 266.9 135.401C268.104 173.37 380.067 170.884 380.067 135.401C380.067 135.394 376.56 99.2739 359.644 89.8415Z" fill="#FEDF68"/>
<path d="M266.928 135.361C266.928 125.418 284.242 84.8745 294.418 89.5218C299.692 91.974 306.126 94.3033 308.491 94.8436C309.598 95.0971 296.642 95.4325 286.599 104.943C275.384 115.524 266.928 135.361 266.928 135.361Z" fill="#E8C143"/>
<path opacity="0.8" d="M339.413 92.2868C340.938 93.4458 343.475 92.1713 343.53 90.4234C343.53 89.6445 343.53 88.2246 343.53 88.2246C343.068 90.4234 341.993 91.7315 339.413 92.2868Z" fill="#FFF9E1"/>
<path d="M335.586 142.6C327.507 139.004 319.428 139.004 311.349 142.6C307.807 142.6 304.934 139.991 304.934 136.797V114.869C304.949 111.667 307.83 109.059 311.349 109.059H335.586C339.132 109.059 342.002 111.667 342.002 114.861V136.793C342.017 139.991 339.148 142.6 335.586 142.6Z" fill="#FFF9E1" stroke="#E8C143" stroke-width="5" stroke-miterlimit="10"/>
<path opacity="0.8" d="M308.346 114.582H307.842C307.557 114.582 307.326 114.802 307.326 115.074V123.165C307.326 123.436 307.557 123.657 307.842 123.657H308.346C308.631 123.657 308.863 123.436 308.863 123.165V115.074C308.863 114.802 308.631 114.582 308.346 114.582Z" fill="#FEECA4"/>
<path opacity="0.8" d="M308.346 124.74H307.842C307.557 124.74 307.326 124.96 307.326 125.232V128.24C307.326 128.511 307.557 128.732 307.842 128.732H308.346C308.631 128.732 308.863 128.511 308.863 128.24V125.232C308.863 124.96 308.631 124.74 308.346 124.74Z" fill="#FEECA4"/>
<path opacity="0.8" d="M338.229 129.273H337.725C337.44 129.273 337.209 129.494 337.209 129.765V137.856C337.209 138.128 337.44 138.348 337.725 138.348H338.229C338.514 138.348 338.745 138.128 338.745 137.856V129.765C338.745 129.494 338.514 129.273 338.229 129.273Z" fill="#FEECA4"/>
<path opacity="0.8" d="M338.229 123.992H337.725C337.44 123.992 337.209 124.212 337.209 124.484V127.492C337.209 127.763 337.44 127.984 337.725 127.984H338.229C338.514 127.984 338.745 127.763 338.745 127.492V124.484C338.745 124.212 338.514 123.992 338.229 123.992Z" fill="#FEECA4"/>
<path d="M321.345 133.438C325.421 133.438 328.725 130.101 328.725 125.985C328.725 121.868 325.421 118.531 321.345 118.531C317.268 118.531 313.964 121.868 313.964 125.985C313.964 130.101 317.268 133.438 321.345 133.438Z" fill="#F6DD7A"/>
<path d="M323.338 132.798C327.723 132.798 331.278 129.209 331.278 124.782C331.278 120.355 327.723 116.766 323.338 116.766C318.953 116.766 315.398 120.355 315.398 124.782C315.398 129.209 318.953 132.798 323.338 132.798Z" stroke="black" stroke-miterlimit="10"/>
<path d="M323.48 131.237C327.038 131.237 329.922 128.323 329.922 124.73C329.922 121.136 327.038 118.223 323.48 118.223C319.922 118.223 317.037 121.136 317.037 124.73C317.037 128.323 319.922 131.237 323.48 131.237Z" stroke="black" stroke-miterlimit="10"/>
<path d="M321.662 118.447L320.063 119.207L319.414 117.817L321.013 117.057L321.662 118.447Z" fill="#161417"/>
<path d="M328.725 130.726L327.326 131.714L326.478 130.488L327.881 129.5L328.725 130.726Z" fill="#161417"/>
<path d="M327.639 119.772L326.278 118.889L327.029 117.711L328.389 118.594L327.639 119.772Z" fill="#161417"/>
<path d="M307.581 84.375H305.83C304.83 84.375 304.02 85.1475 304.02 86.1005V90.6621C304.02 91.615 304.83 92.3876 305.83 92.3876H307.581C308.581 92.3876 309.391 91.615 309.391 90.6621V86.1005C309.391 85.1475 308.581 84.375 307.581 84.375Z" fill="#E8C143"/>
<path d="M341.721 84.7148H339.969C338.97 84.7148 338.159 85.4874 338.159 86.4403V91.0019C338.159 91.9549 338.97 92.7274 339.969 92.7274H341.721C342.72 92.7274 343.531 91.9549 343.531 91.0019V86.4403C343.531 85.4874 342.72 84.7148 341.721 84.7148Z" fill="#FEDF68"/>
<path opacity="0.8" d="M305.274 91.945C306.799 93.104 309.336 91.8295 309.391 90.0816C309.391 89.3027 309.391 87.8828 309.391 87.8828C308.93 90.0704 307.855 91.3823 305.274 91.945Z" fill="#FFF9E1"/>
<rect x="277.749" y="49.7988" width="91.8037" height="17.2751" rx="8.63753" fill="#E8C143"/>
<path d="M324.033 88.2748C318.991 88.2914 293.197 87.809 286.052 73.4689C285.461 72.2917 285.266 70.9637 285.266 69.6463V46.8485C285.266 45.5288 285.46 44.2046 286.052 43.0254C293.402 28.3027 320.563 28.3359 323.863 28.3359C327.247 28.3359 354.203 28.3692 361.519 43.0254C362.111 44.2026 362.306 45.5306 362.306 46.848V69.6458C362.306 70.9655 362.112 72.2897 361.519 73.4689C354.562 87.4264 329.896 88.2582 324.033 88.2748Z" fill="#FEDF68"/>
<path d="M323.859 80.6855C319.642 80.6978 298.072 80.3418 292.097 69.7589C291.607 68.8972 291.439 67.897 291.439 66.9055V50.1456C291.439 49.1521 291.605 48.1553 292.097 47.2918C298.243 36.4266 320.957 36.4512 323.716 36.4512C326.546 36.4512 349.088 36.4757 355.206 47.2918C355.696 48.1535 355.863 49.1538 355.863 50.1452V66.9051C355.863 67.8987 355.697 68.8954 355.206 69.7589C349.388 80.0594 328.761 80.6733 323.859 80.6855Z" fill="#FFFFFD"/>
<path d="M343.325 27.7142C342.61 26.3356 341.021 25.6038 339.378 25.1953H308.193C306.55 25.6038 304.96 26.3356 304.246 27.7142C301.513 32.9731 311.372 47.967 323.785 47.967C336.198 47.967 346.058 32.9731 343.325 27.7142Z" fill="#E8C143"/>
<rect x="312.527" y="53.7188" width="5.97754" height="12.1429" rx="2.98877" fill="#231F20"/>
<rect x="328.468" y="53.7188" width="5.97754" height="12.1429" rx="2.98877" fill="#231F20"/>
<path d="M395.873 142.05L392.724 145.063L360.923 114.309C358.968 112.418 357.867 109.863 357.864 107.205C357.862 104.548 358.956 102.006 360.908 100.139L364.054 97.1288L395.855 127.883C397.81 129.773 398.911 132.328 398.914 134.985C398.917 137.641 397.824 140.183 395.873 142.05Z" fill="#FEDF68"/>
<path d="M398.13 138.565C400.399 134.569 399.137 130.424 395.737 127.2L372.02 104.717L371.733 104.997C369.999 106.793 400.657 131.398 398.13 138.565Z" fill="#FFF2C3"/>
</g>
<mask id="mask2" mask-type="alpha" maskUnits="userSpaceOnUse" x="0" y="127" width="133" height="130">
<ellipse cx="66.5" cy="192" rx="66.5" ry="65" fill="#C4C4C4"/>
</mask>
<g mask="url(#mask2)">
<ellipse cx="66.5" cy="192" rx="66.5" ry="65" fill="#64C0C1"/>
<path d="M34.1719 227.122L37.1538 230.319L3.79708 259.33C1.74576 261.114 -0.955537 262.038 -3.71254 261.899C-6.46955 261.76 -9.05643 260.569 -10.9041 258.588L-13.8833 255.395L19.4764 226.381C21.5277 224.597 24.229 223.673 26.986 223.812C29.743 223.951 32.3299 225.142 34.1776 227.123L34.1719 227.122Z" fill="#F2748A"/>
<path d="M30.7761 226.317C17.7562 236.901 -5.72156 258.038 -7.59881 259.404C-9.47606 260.769 -11.16 258.194 -14 255.378L16.0481 229.239C21.1763 223.906 25.3377 222.673 30.7761 226.317Z" fill="#D16179"/>
<path d="M99.6699 214.325C98.3324 213.575 96.8108 213.187 95.2644 213.2C93.7179 213.213 92.2036 213.627 90.8798 214.399C72.9372 224.855 55.8767 223.734 34.9732 214.045C24.9021 209.377 7.7168 250.088 7.7168 260.069C8.92533 298.188 119.921 295.703 119.921 260.069C119.921 260.069 116.44 223.8 99.6699 214.325Z" fill="#F2748A"/>
<path d="M7.74512 260.043C7.74512 250.054 24.9103 209.339 35.0015 214.015C40.2385 216.481 46.6074 218.819 48.9359 219.363C50.0356 219.616 37.189 219.955 27.2186 229.504C16.1363 240.115 7.74512 260.043 7.74512 260.043Z" fill="#D16179"/>
<path d="M68.164 247.267H59.0396C58.7331 247.279 58.434 247.174 58.2075 246.974C57.981 246.775 57.8457 246.497 57.8311 246.201V241.401C57.8446 241.104 57.9796 240.825 58.2061 240.625C58.4327 240.424 58.7325 240.318 59.0396 240.331H68.164C68.4708 240.319 68.77 240.425 68.9963 240.626C69.2227 240.826 69.3579 241.105 69.3725 241.401V246.201C69.3568 246.496 69.2212 246.774 68.9949 246.973C68.7687 247.173 68.4701 247.278 68.164 247.267Z" fill="#F2748A"/>
<path d="M75.8339 267.308C67.8254 263.704 59.8141 263.704 51.8002 267.308C48.2915 267.308 45.4434 264.698 45.4434 261.474V239.458C45.4434 236.241 48.2915 233.623 51.8002 233.623H75.8339C79.3467 233.623 82.1948 236.233 82.1948 239.458V261.482C82.1948 264.683 79.3467 267.308 75.8339 267.308Z" fill="#F2DADB" stroke="#D16179" stroke-width="5" stroke-miterlimit="10"/>
<path d="M48.7908 239.17H48.3316C48.0379 239.17 47.7998 239.4 47.7998 239.683V247.77C47.7998 248.054 48.0379 248.284 48.3316 248.284H48.7908C49.0845 248.284 49.3226 248.054 49.3226 247.77V239.683C49.3226 239.4 49.0845 239.17 48.7908 239.17Z" fill="#E9B9BE"/>
<path d="M48.7908 249.373H48.3316C48.0379 249.373 47.7998 249.603 47.7998 249.886V252.866C47.7998 253.15 48.0379 253.38 48.3316 253.38H48.7908C49.0845 253.38 49.3226 253.15 49.3226 252.866V249.886C49.3226 249.603 49.0845 249.373 48.7908 249.373Z" fill="#E9B9BE"/>
<path d="M78.4158 253.924H77.9566C77.6629 253.924 77.4248 254.154 77.4248 254.437V262.524C77.4248 262.808 77.6629 263.038 77.9566 263.038H78.4158C78.7095 263.038 78.9476 262.808 78.9476 262.524V254.437C78.9476 254.154 78.7095 253.924 78.4158 253.924Z" fill="#E9B9BE"/>
<path d="M78.4158 248.621H77.9566C77.6629 248.621 77.4248 248.851 77.4248 249.135V252.114C77.4248 252.398 77.6629 252.628 77.9566 252.628H78.4158C78.7095 252.628 78.9476 252.398 78.9476 252.114V249.135C78.9476 248.851 78.7095 248.621 78.4158 248.621Z" fill="#E9B9BE"/>
<path d="M57.1943 249.844V241.636C57.2205 241.089 57.4706 240.573 57.8897 240.204C58.3089 239.834 58.8629 239.64 59.4301 239.664H67.6441C68.2106 239.64 68.764 239.833 69.1831 240.202C69.6022 240.571 69.8527 241.085 69.8799 241.632V249.735C69.8739 250.093 69.7654 250.443 69.5664 250.746C69.3673 251.049 69.0854 251.292 68.7519 251.45L66.6451 252.512C66.3042 252.673 66.0174 252.924 65.8179 253.236C65.6183 253.548 65.514 253.908 65.5171 254.274L65.6581 259.265C65.6524 259.54 65.5898 259.811 65.474 260.063C65.3581 260.315 65.1913 260.541 64.9833 260.73C64.7754 260.918 64.5305 261.065 64.2632 261.16C63.9958 261.256 63.7112 261.299 63.4263 261.287C63.1407 261.3 62.8555 261.257 62.5873 261.161C62.3192 261.066 62.0737 260.919 61.8652 260.73C61.6568 260.541 61.4897 260.314 61.3738 260.061C61.258 259.809 61.1956 259.537 61.1905 259.261L61.3517 254.321C61.3558 253.958 61.255 253.602 61.0607 253.292C60.8664 252.982 60.5863 252.731 60.2519 252.567L58.2901 251.547C57.9644 251.386 57.6903 251.143 57.4972 250.842C57.3042 250.542 57.1995 250.197 57.1943 249.844Z" fill="#F2748A"/>
<path d="M57.6289 247.26L69.5007 247.354L69.4765 244.954C69.4765 244.954 68.3163 246.07 66.987 243.787C65.4481 241.134 64.5216 245.942 63.2365 244.954C61.9514 243.966 61.5284 239.166 59.9493 244.565C58.9301 248.065 57.9069 243.51 57.7699 245.389L57.6289 247.26Z" fill="#F2DADB"/>
<path d="M58.8984 249.302V241.091C58.9266 240.544 59.1774 240.03 59.5961 239.661C60.0148 239.292 60.5676 239.097 61.1342 239.119H69.3522C69.9187 239.096 70.4717 239.29 70.89 239.66C71.3083 240.03 71.5578 240.544 71.584 241.091V249.194C71.5773 249.551 71.4684 249.901 71.2694 250.203C71.0704 250.505 70.7889 250.748 70.456 250.905L68.3492 251.971C68.0083 252.132 67.7216 252.383 67.522 252.695C67.3224 253.007 67.2182 253.366 67.2212 253.733L67.3662 258.723C67.36 258.999 67.297 259.27 67.1807 259.522C67.0643 259.774 66.8972 260 66.6889 260.189C66.4806 260.377 66.2355 260.524 65.9679 260.619C65.7003 260.715 65.4156 260.758 65.1304 260.746V260.746C64.8449 260.759 64.5596 260.716 64.2914 260.62C64.0233 260.524 63.7778 260.378 63.5694 260.189C63.3609 260 63.1939 259.772 63.078 259.52C62.9621 259.268 62.8997 258.996 62.8946 258.72L63.0558 253.78C63.0603 253.418 62.9601 253.062 62.7665 252.752C62.573 252.442 62.2937 252.19 61.9601 252.025L59.9982 251.002C59.6724 250.842 59.3978 250.599 59.2041 250.3C59.0103 250 58.9047 249.655 58.8984 249.302V249.302Z" stroke="#171518" stroke-miterlimit="10"/>
<path d="M70.3874 244.896C69.9443 245.001 69.2192 244.861 68.345 243.531C66.6651 240.963 66.0891 245.647 64.7718 244.697C63.4545 243.748 62.7132 239.085 61.549 244.355C60.7957 247.759 59.4865 243.348 59.4824 245.176V245.771C59.5002 246.113 59.6571 246.434 59.919 246.664C60.1809 246.894 60.5264 247.015 60.8803 247L70.0168 246.981C70.1093 246.981 70.2015 246.97 70.2907 246.946C70.462 246.88 70.614 246.775 70.7334 246.639C70.8528 246.503 70.9359 246.342 70.9756 246.168C70.9796 246.132 70.9796 246.095 70.9756 246.059L70.9071 245.192C70.8962 245.137 70.8735 245.086 70.8406 245.041C70.8077 244.996 70.7653 244.959 70.7161 244.931C70.667 244.903 70.6123 244.885 70.5557 244.879C70.499 244.873 70.4416 244.879 70.3874 244.896V244.896Z" stroke="#171518" stroke-miterlimit="10"/>
<rect x="18.4688" y="175.156" width="91.0204" height="16.9607" rx="8.48034" fill="#D16179"/>
<path d="M64.3579 212.932C59.3584 212.948 33.7846 212.475 26.7005 198.396C26.1145 197.24 25.9209 195.935 25.9209 194.639V172.263C25.9209 170.965 26.1135 169.663 26.7005 168.506C33.9879 154.051 60.9176 154.084 64.1884 154.084C67.5441 154.084 94.2703 154.117 101.524 168.506C102.11 169.661 102.303 170.967 102.303 172.262V194.639C102.303 195.937 102.111 197.238 101.524 198.396C94.6262 212.099 70.1709 212.916 64.3579 212.932Z" fill="#F2748A"/>
<path d="M64.1845 205.48C60.0037 205.492 38.6179 205.143 32.6939 194.752C32.208 193.907 32.042 192.923 32.042 191.948V175.499C32.042 174.522 32.2069 173.541 32.6939 172.694C38.7879 162.027 61.3075 162.051 64.0427 162.051C66.8488 162.051 89.1983 162.075 95.264 172.694C95.7499 173.54 95.9159 174.523 95.9159 175.498V191.948C95.9159 192.925 95.751 193.905 95.264 194.752C89.4959 204.865 69.0455 205.468 64.1845 205.48Z" fill="#FFFFFD"/>
<path d="M83.4846 153.473C82.7763 152.12 81.2003 151.401 79.5711 151H48.6523C47.0232 151.401 45.4471 152.12 44.7388 153.473C42.0294 158.636 51.8044 173.357 64.1117 173.357C76.419 173.357 86.194 158.636 83.4846 153.473Z" fill="#D16179"/>
<rect x="52.9502" y="179.004" width="5.92653" height="11.9219" rx="2.96327" fill="#231F20"/>
<rect x="68.7549" y="179.004" width="5.92653" height="11.9219" rx="2.96327" fill="#231F20"/>
<path d="M47.9809 208.836H46.3857C45.3556 208.836 44.5205 209.642 44.5205 210.637V215.083C44.5205 216.078 45.3556 216.884 46.3857 216.884H47.9809C49.011 216.884 49.8461 216.078 49.8461 215.083V210.637C49.8461 209.642 49.011 208.836 47.9809 208.836Z" fill="#D16179"/>
<path d="M81.8276 209.176H80.2324C79.2023 209.176 78.3672 209.982 78.3672 210.977V215.423C78.3672 216.417 79.2023 217.224 80.2324 217.224H81.8276C82.8577 217.224 83.6928 216.417 83.6928 215.423V210.977C83.6928 209.982 82.8577 209.176 81.8276 209.176Z" fill="#F2748A"/>
<path d="M45.7656 216.449C47.2763 217.616 49.7941 216.337 49.8464 214.567C49.8464 213.789 49.8464 212.357 49.8464 212.357C49.3872 214.555 48.3237 215.874 45.7656 216.449Z" fill="#F7A9B1"/>
<path d="M79.6123 216.787C81.123 217.954 83.6407 216.675 83.6931 214.909C83.6931 214.131 83.6931 212.699 83.6931 212.699C83.2339 214.893 82.1704 216.223 79.6123 216.787Z" fill="#E9B9BE"/>
<path d="M137.821 269.287L134.41 272.551L99.9599 239.236C97.8417 237.188 96.6498 234.419 96.6467 231.541C96.6436 228.662 97.8295 225.908 99.9432 223.886L103.352 220.625L137.802 253.94C139.919 255.988 141.111 258.755 141.115 261.633C141.118 264.511 139.934 267.264 137.821 269.287Z" fill="#F2748A"/>
<path d="M140.265 265.514C142.723 261.185 141.356 256.694 137.673 253.202L111.98 228.847L111.67 229.15C109.791 231.095 143.002 257.749 140.265 265.514Z" fill="#E9B9BE"/>
</g>
<mask id="mask3" mask-type="alpha" maskUnits="userSpaceOnUse" x="531" y="127" width="134" height="131">
<ellipse cx="598.324" cy="192.5" rx="66.5" ry="65.5" fill="#C4C4C4"/>
</mask>
<g mask="url(#mask3)">
<ellipse cx="598.324" cy="192.5" rx="66.5" ry="65.5" fill="#F5A64A"/>
<path d="M569.629 222.055L572.391 225.135L541.489 253.083C540.549 253.934 539.45 254.592 538.256 255.017C537.062 255.442 535.797 255.627 534.532 255.56C533.267 255.494 532.027 255.179 530.883 254.631C529.74 254.084 528.715 253.316 527.867 252.371L525.107 249.294L556.015 221.341C557.915 219.624 560.416 218.735 562.969 218.869C565.522 219.003 567.917 220.149 569.629 222.055Z" fill="#4E6AFA"/>
<path d="M566.481 221.281C554.415 231.462 541.686 241.298 530.93 253.155C528.65 252.404 526.606 251.067 525 249.276L552.837 224.095C554.656 222.449 556.879 221.32 559.278 220.826C561.676 220.331 564.163 220.488 566.481 221.281Z" fill="#3B50BB"/>
<path d="M630.305 209.727C629.066 209.005 627.657 208.63 626.224 208.643C624.791 208.655 623.388 209.055 622.162 209.798C605.54 219.871 589.735 218.792 570.37 209.457C561.04 204.961 545.119 244.179 545.119 253.795C546.239 290.518 649.066 288.124 649.066 253.795C649.066 253.795 645.849 218.855 630.305 209.727Z" fill="#4E6AFA"/>
<path d="M664.633 260.15L661.654 263L631.574 233.911C629.725 232.122 628.684 229.705 628.681 227.192C628.679 224.678 629.714 222.274 631.56 220.508L634.536 217.66L664.616 246.749C666.465 248.538 667.506 250.954 667.509 253.467C667.512 255.98 666.478 258.384 664.633 260.15Z" fill="#4E6AFA"/>
<path d="M608.223 260.77C600.804 257.297 593.384 257.297 585.962 260.77C582.708 260.77 580.069 258.255 580.069 255.149V233.939C580.069 230.84 582.708 228.318 585.962 228.318H608.223C611.478 228.318 614.116 230.833 614.116 233.939V255.156C614.127 258.255 611.478 260.77 608.223 260.77Z" fill="#F1F3FF" stroke="#2C3C8C" stroke-width="5" stroke-miterlimit="10"/>
<path d="M592.172 234.744H600.554C600.662 234.744 600.769 234.769 600.866 234.818C600.963 234.867 601.047 234.938 601.111 235.026C601.175 235.113 601.218 235.215 601.236 235.322C601.254 235.429 601.247 235.54 601.214 235.643L599.001 242.726C598.969 242.829 598.962 242.939 598.98 243.047C598.998 243.154 599.04 243.255 599.104 243.343C599.168 243.431 599.251 243.502 599.347 243.552C599.444 243.602 599.55 243.628 599.658 243.629H601.707C601.823 243.629 601.936 243.658 602.038 243.714C602.139 243.77 602.225 243.85 602.287 243.948C602.35 244.046 602.387 244.157 602.395 244.273C602.403 244.389 602.382 244.505 602.334 244.611L597.919 254.245C597.86 254.373 597.763 254.481 597.641 254.552C597.519 254.624 597.378 254.656 597.237 254.644C597.096 254.633 596.963 254.578 596.854 254.488C596.745 254.398 596.666 254.277 596.628 254.14L594.202 245.417C594.161 245.271 594.074 245.143 593.954 245.052C593.834 244.96 593.688 244.911 593.538 244.911H592.172C591.989 244.911 591.813 244.838 591.684 244.707C591.554 244.578 591.481 244.401 591.481 244.217V235.437C591.481 235.346 591.499 235.256 591.534 235.172C591.569 235.088 591.62 235.012 591.684 234.947C591.748 234.883 591.824 234.832 591.908 234.797C591.991 234.762 592.081 234.744 592.172 234.744Z" fill="#4E6AFA"/>
<path d="M593.534 233.662H601.916C602.024 233.662 602.131 233.687 602.228 233.736C602.325 233.785 602.409 233.856 602.473 233.944C602.537 234.031 602.58 234.133 602.598 234.24C602.616 234.347 602.609 234.458 602.577 234.561L600.363 241.644C600.331 241.747 600.323 241.858 600.34 241.965C600.358 242.073 600.4 242.174 600.464 242.263C600.528 242.351 600.612 242.422 600.708 242.471C600.805 242.521 600.912 242.547 601.02 242.547H603.069C603.185 242.547 603.299 242.576 603.4 242.632C603.502 242.688 603.587 242.768 603.65 242.866C603.712 242.964 603.749 243.075 603.757 243.191C603.765 243.307 603.744 243.423 603.696 243.529L599.281 253.163C599.222 253.291 599.125 253.399 599.003 253.47C598.881 253.542 598.74 253.574 598.599 253.562C598.458 253.551 598.325 253.496 598.216 253.406C598.107 253.316 598.028 253.195 597.99 253.058L595.564 244.334C595.523 244.189 595.435 244.06 595.315 243.969C595.194 243.878 595.047 243.828 594.896 243.829H593.534C593.351 243.829 593.175 243.756 593.046 243.625C592.916 243.496 592.844 243.319 592.844 243.135V234.355C592.844 234.172 592.916 233.995 593.046 233.865C593.175 233.735 593.351 233.662 593.534 233.662Z" stroke="black" stroke-miterlimit="10"/>
<path d="M545.146 253.768C545.146 244.145 561.047 204.923 570.396 209.427C575.248 211.803 581.148 214.055 583.305 214.58C584.324 214.823 572.423 215.149 563.186 224.349C552.923 234.571 545.146 253.768 545.146 253.768Z" fill="#3B50BB"/>
<path d="M583.17 233.662H582.745C582.473 233.662 582.252 233.884 582.252 234.157V241.947C582.252 242.22 582.473 242.442 582.745 242.442H583.17C583.442 242.442 583.663 242.22 583.663 241.947V234.157C583.663 233.884 583.442 233.662 583.17 233.662Z" fill="#DCE1FE"/>
<path d="M583.17 243.49H582.745C582.473 243.49 582.252 243.711 582.252 243.985V246.855C582.252 247.128 582.473 247.35 582.745 247.35H583.17C583.442 247.35 583.663 247.128 583.663 246.855V243.985C583.663 243.711 583.442 243.49 583.17 243.49Z" fill="#DCE1FE"/>
<path d="M610.615 247.875H610.19C609.918 247.875 609.697 248.096 609.697 248.37V256.16C609.697 256.433 609.918 256.655 610.19 256.655H610.615C610.888 256.655 611.108 256.433 611.108 256.16V248.37C611.108 248.096 610.888 247.875 610.615 247.875Z" fill="#DCE1FE"/>
<path d="M610.615 242.768H610.19C609.918 242.768 609.697 242.989 609.697 243.262V246.133C609.697 246.406 609.918 246.627 610.19 246.627H610.615C610.888 246.627 611.108 246.406 611.108 246.133V243.262C611.108 242.989 610.888 242.768 610.615 242.768Z" fill="#DCE1FE"/>
<path d="M666.767 256.855C668.913 253.075 667.719 249.154 664.504 246.105L642.07 224.838L641.799 225.104C640.159 226.802 669.157 250.075 666.767 256.855Z" fill="#B8C3FD"/>
<path d="M580.367 211.762C581.767 212.886 584.099 211.654 584.148 209.949C584.148 209.199 584.148 207.82 584.148 207.82C583.722 209.949 582.737 211.226 580.367 211.762Z" fill="#B8C3FD"/>
<path d="M611.724 212.101C613.123 213.225 615.455 211.992 615.504 210.291C615.504 209.541 615.504 208.162 615.504 208.162C615.082 210.291 614.093 211.557 611.724 212.101Z" fill="#B8C3FD"/>
<path d="M587.858 255.182H585.406V257.666H587.858V255.182Z" fill="#FCB614"/>
<path d="M585.41 255.182H582.958V257.666H585.41V255.182Z" fill="#EF4E63"/>
<path d="M585.41 252.697H582.958V255.182H585.41V252.697Z" fill="#63CCF5"/>
<path d="M582.42 204.439H580.942C579.988 204.439 579.214 205.216 579.214 206.174V210.458C579.214 211.416 579.988 212.193 580.942 212.193H582.42C583.374 212.193 584.148 211.416 584.148 210.458V206.174C584.148 205.216 583.374 204.439 582.42 204.439Z" fill="#4E6AFA"/>
<path d="M613.776 204.766H612.298C611.344 204.766 610.57 205.543 610.57 206.501V210.784C610.57 211.742 611.344 212.519 612.298 212.519H613.776C614.73 212.519 615.504 211.742 615.504 210.784V206.501C615.504 205.543 614.73 204.766 613.776 204.766Z" fill="#4E6AFA"/>
<path d="M632.77 171.984H561.706C558.046 171.984 555.079 174.905 555.079 178.508V181.799C555.079 185.402 558.046 188.323 561.706 188.323H632.77C636.431 188.323 639.398 185.402 639.398 181.799V178.508C639.398 174.905 636.431 171.984 632.77 171.984Z" fill="#3B50BB"/>
<path d="M597.589 208.376C592.957 208.391 569.266 207.935 562.704 194.372C562.159 193.256 561.981 192.008 561.981 190.77V169.182C561.981 167.941 562.158 166.697 562.704 165.579C569.454 151.654 594.401 151.686 597.431 151.686C600.54 151.686 625.298 151.717 632.018 165.579C632.563 166.695 632.74 167.943 632.74 169.181V190.769C632.74 192.009 632.564 193.254 632.018 194.372C625.628 207.573 602.974 208.36 597.589 208.376Z" fill="#4E6AFA"/>
<path d="M597.428 201.196C593.555 201.208 573.744 200.871 568.256 190.862C567.804 190.044 567.652 189.106 567.652 188.175V172.3C567.652 171.367 567.803 170.432 568.256 169.612C573.902 159.336 594.763 159.359 597.297 159.359C599.896 159.359 620.601 159.383 626.22 169.612C626.671 170.43 626.823 171.369 626.823 172.299V188.175C626.823 189.107 626.672 190.043 626.22 190.862C620.876 200.604 601.931 201.184 597.428 201.196Z" fill="#FFFFFD"/>
<path d="M615.308 151.097C614.652 149.793 613.192 149.101 611.683 148.715H583.041C581.531 149.101 580.071 149.793 579.415 151.097C576.905 156.071 585.961 170.252 597.362 170.252C608.763 170.252 617.818 156.071 615.308 151.097Z" fill="#3B50BB"/>
<path d="M590.445 175.691H589.088C587.947 175.691 587.021 176.602 587.021 177.726V185.142C587.021 186.265 587.947 187.176 589.088 187.176H590.445C591.587 187.176 592.512 186.265 592.512 185.142V177.726C592.512 176.602 591.587 175.691 590.445 175.691Z" fill="#231F20"/>
<path d="M605.086 175.691H603.729C602.587 175.691 601.662 176.602 601.662 177.726V185.142C601.662 186.265 602.587 187.176 603.729 187.176H605.086C606.227 187.176 607.152 186.265 607.152 185.142V177.726C607.152 176.602 606.227 175.691 605.086 175.691Z" fill="#231F20"/>
</g>
<path d="M135 250L233.5 304.5" stroke="#C7A8F4" stroke-width="9" stroke-linecap="round" stroke-linejoin="round" stroke-dasharray="13 13"/>
<path d="M273.476 195.219L161 190.552" stroke="#C7A8F4" stroke-width="9" stroke-linecap="round" stroke-linejoin="round" stroke-dasharray="13 13"/>
<path d="M489.476 197.219L377 192.552" stroke="#C7A8F4" stroke-width="9" stroke-linecap="round" stroke-linejoin="round" stroke-dasharray="13 13"/>
<path d="M420 82L518.5 136.5" stroke="#C7A8F4" stroke-width="9" stroke-linecap="round" stroke-linejoin="round" stroke-dasharray="13 13"/>
<path d="M233.5 75L135 129.5" stroke="#C7A8F4" stroke-width="9" stroke-linecap="round" stroke-linejoin="round" stroke-dasharray="13 13"/>
<path d="M525.5 250L427 304.5" stroke="#C7A8F4" stroke-width="9" stroke-linecap="round" stroke-linejoin="round" stroke-dasharray="13 13"/>
<path d="M325.421 152L324.757 214.943" stroke="#C7A8F4" stroke-width="9" stroke-linecap="round" stroke-linejoin="round" stroke-dasharray="13 13"/>
</svg>
