<svg width="565" height="475" viewBox="0 0 565 475" fill="none" xmlns="http://www.w3.org/2000/svg">
<mask id="mask0" mask-type="alpha" maskUnits="userSpaceOnUse" x="80" y="22" width="360" height="360">
<circle cx="260" cy="202" r="180" fill="#4E6AFA"/>
</mask>
<g mask="url(#mask0)">
<circle cx="260" cy="202" r="180" fill="#4E6AFA"/>
<path d="M436.013 249.504C449.713 257.804 464.913 263.304 467.113 274.004C469.313 284.604 458.713 300.504 454.113 313.704C449.513 326.904 451.013 337.404 448.413 347.304C445.713 357.204 438.813 366.404 429.713 369.904C420.613 373.404 409.113 371.204 399.713 367.604C390.413 364.104 383.013 359.304 372.613 356.504C362.113 353.804 348.613 353.104 345.913 346.804C343.213 340.404 351.313 328.404 349.113 315.004C346.913 301.704 334.313 287.104 333.113 273.904C331.813 260.704 341.913 248.904 354.613 240.004C367.213 231.104 382.513 225.004 396.213 227.604C410.013 230.104 422.313 241.204 436.013 249.504Z" fill="#64C0C1"/>
<path d="M343.988 0.569574C357.188 2.16957 371.688 7.66957 372.488 18.0696C373.188 28.3696 360.288 43.6696 357.688 57.4696C355.188 71.2696 362.988 83.6696 364.088 97.2696C365.188 110.87 359.588 125.77 348.988 133.47C338.288 141.17 322.488 141.57 312.388 131.87C302.188 122.27 297.588 102.57 290.488 92.8696C283.288 83.1696 273.688 83.3696 261.888 79.4696C250.088 75.4696 236.288 67.1696 235.088 58.2696C233.888 49.3696 245.288 39.6696 253.288 29.1696C261.288 18.6696 265.788 7.26958 274.188 2.86958C282.488 -1.53042 294.688 0.969574 306.688 1.06957C318.788 1.26957 330.788 -1.03043 343.988 0.569574Z" fill="#64C0C1"/>
<path d="M295.5 378.5C218.7 397.3 151.5 350.333 127.5 324.5C123 323.333 113.3 316.9 110.5 300.5C107 280 127.5 304.5 159.5 306C191.5 307.5 152 345.709 211 345.5C270 345.291 268 362 295.5 378.5Z" fill="#64C0C1"/>
<path d="M116.516 77.2257C135.442 71.332 158.526 69.9575 165.99 83.6398C173.257 97.247 165.1 125.986 170.026 146.381C175.088 166.715 193.294 178.841 203.127 196.7C212.961 214.559 214.483 238.288 204.793 255.264C194.968 272.302 173.733 282.511 154.055 275.471C134.303 268.629 115.971 244.598 100.372 235.723C84.6367 226.909 71.7082 233.054 53.2753 234.957C34.781 236.724 10.9315 233.855 3.84361 222.461C-3.24429 211.068 6.30682 190.877 10.7452 171.676C15.1836 152.474 14.312 134.188 23.0341 123.054C31.6202 111.981 49.7386 107.926 66.1137 100.722C82.6861 93.5935 97.5897 83.1194 116.516 77.2257Z" fill="#64C0C1"/>
</g>
<mask id="mask1" mask-type="alpha" maskUnits="userSpaceOnUse" x="260" y="191" width="305" height="284">
<ellipse cx="412.5" cy="333" rx="152.5" ry="142" fill="#C7A8F4"/>
</mask>
<g mask="url(#mask1)">
<ellipse cx="412.5" cy="333" rx="152.5" ry="142" fill="#C7A8F4"/>
<path d="M488.37 468.52C491.218 468.517 493.951 469.67 495.968 471.723C497.986 473.777 499.123 476.565 499.131 479.475C499.131 488.857 455.1 525.256 414.73 525.256C374.361 525.256 326.795 490.045 326.795 479.475C326.795 476.559 327.929 473.763 329.947 471.701C331.965 469.639 334.702 468.48 337.556 468.48L488.37 468.52Z" fill="#F2F4FA"/>
<path d="M480.542 358.694C478.021 357.191 475.153 356.412 472.237 356.436C469.321 356.461 466.465 357.288 463.969 358.833C430.126 379.762 397.976 377.521 358.573 358.129C339.554 348.769 307.2 430.277 307.2 450.264C309.443 526.606 518.726 521.6 518.726 450.264C518.716 450.264 512.132 377.66 480.542 358.694Z" fill="#F2F4FA"/>
<path d="M557.947 329.057L560.428 330.858L514.533 397.241C510.697 402.789 504.867 406.549 498.325 407.693C491.784 408.837 485.066 407.273 479.651 403.343L477.17 401.543L523.066 335.159C526.901 329.611 532.731 325.851 539.273 324.707C545.814 323.563 552.532 325.127 557.947 329.057Z" fill="#F2F4FA"/>
<path d="M435.381 464.963C420.272 457.754 405.159 457.754 390.044 464.963C383.415 464.963 378.044 459.755 378.044 453.318V409.282C378.044 402.845 383.415 397.637 390.044 397.637H435.381C442.009 397.637 447.38 402.845 447.38 409.282V453.318C447.38 459.755 442.009 464.963 435.381 464.963Z" fill="#F1F3FF" stroke="#C7C9F4" stroke-width="5" stroke-miterlimit="10"/>
<path d="M384.24 408.689H383.905C383.165 408.689 382.565 409.27 382.565 409.987V425.48C382.565 426.196 383.165 426.777 383.905 426.777H384.24C384.98 426.777 385.58 426.196 385.58 425.48V409.987C385.58 409.27 384.98 408.689 384.24 408.689Z" fill="#DCE1FE"/>
<path d="M384.24 428.787H383.905C383.165 428.787 382.565 429.374 382.565 430.099V435.514C382.565 436.239 383.165 436.826 383.905 436.826H384.24C384.98 436.826 385.58 436.239 385.58 435.514V430.099C385.58 429.374 384.98 428.787 384.24 428.787Z" fill="#DCE1FE"/>
<path d="M440.234 437.83H439.954C439.338 437.83 438.838 438.427 438.838 439.164V455.087C438.838 455.823 439.338 456.42 439.954 456.42H440.234C440.85 456.42 441.35 455.823 441.35 455.087V439.164C441.35 438.427 440.85 437.83 440.234 437.83Z" fill="#DCE1FE"/>
<path d="M440.234 427.279H439.954C439.338 427.279 438.838 427.867 438.838 428.591V434.007C438.838 434.731 439.338 435.318 439.954 435.318H440.234C440.85 435.318 441.35 434.731 441.35 434.007V428.591C441.35 427.867 440.85 427.279 440.234 427.279Z" fill="#DCE1FE"/>
<path d="M548 325.243C538.117 321.677 529.197 326.061 523.152 334.879L481 396.377L481.754 396.904C486.451 400.109 530.885 322.3 548 325.243Z" fill="#B8C3FD"/>
<path d="M267.474 319.828L265 321.63L310.753 388.065C314.577 393.617 320.389 397.38 326.91 398.525C333.431 399.67 340.128 398.104 345.527 394.172L348 392.37L302.247 325.935C298.423 320.383 292.611 316.62 286.09 315.475C279.569 314.33 272.872 315.896 267.474 319.828Z" fill="#F2F4FA"/>
<path d="M277 316.243C286.883 312.677 295.803 317.061 301.848 325.879L344 387.377L343.246 387.904C338.549 391.109 294.115 313.3 277 316.243Z" fill="#B8C3FD"/>
<path d="M278.059 450.063C278.059 450.063 292.813 455.352 303.18 444.865C295.404 448.927 286.727 450.723 278.059 450.063Z" fill="#B8C3FD"/>
<path d="M427.785 430.295H413.717V444.363H427.785V430.295Z" fill="#FCB614"/>
<path d="M413.716 430.295H400.15V444.363H413.716V430.295Z" fill="#EF4E63"/>
<path d="M413.716 415.725H400.15V430.295H413.716V415.725Z" fill="#63CCF5"/>
<path d="M382.107 347.895H381.014C378.541 347.895 376.536 349.946 376.536 352.476V359.392C376.536 361.922 378.541 363.973 381.014 363.973H382.107C384.58 363.973 386.585 361.922 386.585 359.392V352.476C386.585 349.946 384.58 347.895 382.107 347.895Z" fill="#F2F4FA"/>
<path d="M445.917 348.396H444.824C442.351 348.396 440.346 350.447 440.346 352.977V359.893C440.346 362.423 442.351 364.474 444.824 364.474H445.917C448.39 364.474 450.394 362.423 450.394 359.893V352.977C450.394 350.447 448.39 348.396 445.917 348.396Z" fill="#F2F4FA"/>
<path d="M450.388 355.432V361.208C450.415 361.641 450.356 362.076 450.216 362.483C450.075 362.89 449.856 363.26 449.573 363.568C449.29 363.877 448.949 364.117 448.574 364.272C448.198 364.428 447.797 364.495 447.395 364.47H444.365C447.451 363.523 449.363 360.32 450.388 355.432Z" fill="#B8C3FD"/>
<path d="M376.545 354.426V360.518C376.513 360.966 376.566 361.416 376.703 361.84C376.839 362.264 377.055 362.651 377.336 362.977C377.617 363.302 377.958 363.559 378.336 363.73C378.713 363.902 379.119 363.984 379.528 363.971H382.565C379.5 362.996 377.561 359.564 376.545 354.426Z" fill="#B1B9E4"/>
<rect x="327.297" y="282.229" width="171.833" height="33.1608" rx="16.5804" fill="#B8C3FD"/>
<path d="M413.929 356.087C404.49 356.119 356.211 355.192 342.837 327.666C341.728 325.402 341.365 322.863 341.365 320.342V276.551C341.365 274.027 341.727 271.494 342.837 269.227C356.595 240.965 407.434 241.029 413.609 241.029C419.944 241.029 470.399 241.093 484.093 269.227C485.201 271.49 485.565 274.03 485.565 276.55V320.342C485.565 322.866 485.203 325.399 484.093 327.666C471.071 354.458 424.903 356.055 413.929 356.087Z" fill="#F2F4FA"/>
<path d="M413.601 341.517C405.709 341.54 365.335 340.857 354.152 320.542C353.232 318.885 352.921 316.974 352.921 315.079V282.879C352.921 280.98 353.23 279.075 354.152 277.415C365.656 256.558 408.17 256.605 413.334 256.605C418.631 256.605 460.824 256.653 472.275 277.415C473.195 279.072 473.506 280.984 473.506 282.879V315.078C473.506 316.977 473.197 318.882 472.275 320.542C461.386 340.315 422.778 341.493 413.601 341.517Z" fill="#FFFFFD"/>
<path d="M450.038 239.835C448.701 237.189 445.725 235.784 442.65 235H384.28C381.204 235.784 378.229 237.189 376.891 239.835C371.777 249.93 390.23 278.712 413.465 278.712C436.699 278.712 455.153 249.93 450.038 239.835Z" fill="#B8C3FD"/>
<rect x="392.394" y="289.752" width="11.1885" height="23.3093" rx="5.59423" fill="#231F20"/>
<rect x="422.229" y="289.752" width="11.1885" height="23.3093" rx="5.59423" fill="#231F20"/>
</g>
<path d="M376 64.4989C381.5 57.9995 450 23.4993 459 28.4992C501.5 45.9991 150.5 377.5 69.9997 371.5C64.1664 368.666 67.0998 352 121.5 318" stroke="#F4D155" stroke-width="9" stroke-dasharray="20 20"/>
<path fill-rule="evenodd" clip-rule="evenodd" d="M179 155C172.373 155 167 160.373 167 167V191C167 197.627 172.373 203 179 203H193.456C196.652 207.199 200.214 211 202.474 211C204.789 211 207.986 207.011 210.714 202.692C216.034 201.462 220 196.694 220 191V167C220 160.373 214.627 155 208 155H179Z" fill="#FEDF68"/>
<path fill-rule="evenodd" clip-rule="evenodd" d="M228 315C234.627 315 240 320.373 240 327V342.429C240 349.056 234.627 354.429 228 354.429H218.036C215.383 357.878 212.426 361 210.55 361C208.498 361 205.613 357.266 203.257 353.455C198.988 351.616 196 347.371 196 342.429V327C196 320.373 201.373 315 208 315H228Z" fill="#F3748A"/>
<path fill-rule="evenodd" clip-rule="evenodd" d="M328 0C334.627 0 340 5.37258 340 12V36C340 42.6274 334.627 48 328 48H313.544C310.348 52.1987 306.786 56 304.526 56C302.211 56 299.014 52.0108 296.286 47.6918C290.966 46.4619 287 41.6941 287 36V12C287 5.37258 292.373 0 299 0H328Z" fill="#F5A64A"/>
<path fill-rule="evenodd" clip-rule="evenodd" d="M126 71C132.627 71 138 76.3726 138 83V107C138 113.627 132.627 119 126 119H111.544C108.348 123.199 104.786 127 102.526 127C100.211 127 97.0143 123.011 94.2862 118.692C88.9659 117.462 85 112.694 85 107V83C85 76.3726 90.3726 71 97 71H126Z" fill="#C7A8F4"/>
<path d="M535.008 97.3535C536.331 97.6811 536.331 99.3189 535.008 99.6465L529.245 101.074C528.736 101.2 528.356 101.572 528.271 102.029L527.346 107C527.098 108.333 524.902 108.333 524.654 107L523.729 102.029C523.644 101.572 523.264 101.2 522.755 101.074L516.992 99.6465C515.669 99.3189 515.669 97.6811 516.992 97.3535L522.755 95.9261C523.264 95.8 523.644 95.4276 523.729 94.971L524.654 90.0003C524.902 88.6666 527.098 88.6666 527.346 90.0003L528.271 94.971C528.356 95.4276 528.736 95.8 529.245 95.9261L535.008 97.3535Z" fill="#F4D155"/>
<path d="M239.008 413.354C240.331 413.681 240.331 415.319 239.008 415.646L233.245 417.074C232.736 417.2 232.356 417.572 232.271 418.029L231.346 423C231.098 424.333 228.902 424.333 228.654 423L227.729 418.029C227.644 417.572 227.264 417.2 226.755 417.074L220.992 415.646C219.669 415.319 219.669 413.681 220.992 413.354L226.755 411.926C227.264 411.8 227.644 411.428 227.729 410.971L228.654 406C228.902 404.667 231.098 404.667 231.346 406L232.271 410.971C232.356 411.428 232.736 411.8 233.245 411.926L239.008 413.354Z" fill="#F4D155"/>
<path d="M67.0082 59.3535C68.3306 59.6811 68.3306 61.3189 67.0082 61.6465L61.2454 63.0739C60.7361 63.2 60.3564 63.5724 60.2714 64.029L59.346 68.9997C59.0977 70.3334 56.9023 70.3334 56.654 68.9997L55.7286 64.029C55.6436 63.5724 55.2639 63.2 54.7546 63.0739L48.9918 61.6465C47.6694 61.3189 47.6694 59.6811 48.9918 59.3535L54.7546 57.9261C55.2639 57.8 55.6436 57.4276 55.7286 56.971L56.654 52.0003C56.9023 50.6666 59.0977 50.6666 59.346 52.0003L60.2714 56.971C60.3564 57.4276 60.7361 57.8 61.2454 57.9261L67.0082 59.3535Z" fill="#F4D155"/>
<path d="M510.215 131.509C512.595 132.078 512.595 134.922 510.215 135.491L499.842 137.97C498.925 138.19 498.241 138.836 498.088 139.629L496.423 148.263C495.976 150.579 492.024 150.579 491.577 148.263L489.912 139.629C489.759 138.836 489.075 138.19 488.158 137.97L477.785 135.491C475.405 134.922 475.405 132.078 477.785 131.509L488.158 129.03C489.075 128.81 489.759 128.164 489.912 127.371L491.577 118.737C492.024 116.421 495.976 116.421 496.423 118.737L498.088 127.371C498.241 128.164 498.925 128.81 499.842 129.03L510.215 131.509Z" fill="#F4D155"/>
<path d="M34.2148 30.5087C36.5951 31.0776 36.5951 33.9224 34.2148 34.4913L23.8418 36.9704C22.925 37.1896 22.2414 37.8363 22.0884 38.6294L20.4228 47.2626C19.9758 49.5791 16.0242 49.5791 15.5772 47.2626L13.9116 38.6294C13.7586 37.8363 13.075 37.1896 12.1582 36.9704L1.78522 34.4913C-0.595078 33.9224 -0.595074 31.0776 1.78523 30.5087L12.1582 28.0296C13.075 27.8104 13.7586 27.1637 13.9116 26.3706L15.5772 17.7374C16.0242 15.4209 19.9758 15.4209 20.4228 17.7374L22.0884 26.3706C22.2414 27.1637 22.925 27.8104 23.8418 28.0296L34.2148 30.5087Z" fill="#F4D155"/>
</svg>
