<svg width="827" height="416" viewBox="0 0 827 416" fill="none" xmlns="http://www.w3.org/2000/svg">
<path d="M448.656 132.92C472.199 146.831 498.339 156.054 502.114 173.978C505.917 191.75 487.679 218.393 479.768 240.538C471.857 262.684 474.444 280.256 469.974 296.848C465.325 313.441 453.468 328.864 437.826 334.731C422.184 340.597 402.406 336.908 386.251 330.88C370.267 325.013 357.545 316.969 339.659 312.271C321.593 307.745 298.401 306.566 293.761 296.012C289.111 285.286 303.041 265.175 299.257 242.716C295.454 220.428 273.812 195.953 271.749 173.836C269.514 151.709 286.877 131.931 308.709 117.012C330.369 102.093 356.67 91.8714 380.223 96.2264C403.956 100.401 425.103 118.971 448.656 132.92Z" fill="#64C0C1"/>
<path fill-rule="evenodd" clip-rule="evenodd" d="M257.514 103.643C281.538 99.4357 295.568 131.238 315.954 144.628C339.485 160.084 371.008 164.194 385.989 188.031C403.236 215.476 423.882 257.629 401.991 281.534C376.963 308.864 328.573 275.975 293.777 288.725C271.7 296.814 267.629 328.594 246.337 338.567C214.138 353.649 172.112 380.856 144.257 358.757C116.457 336.702 147.301 289.87 140.947 254.957C135.481 224.921 91.5687 195.358 110.106 171.101C131.157 143.553 179.719 177.393 211.245 162.966C234.62 152.269 232.193 108.078 257.514 103.643Z" fill="#C7A8F4"/>
<path d="M463.498 366.647C477.017 366.647 487.976 355.42 487.976 341.571C487.976 327.723 477.017 316.496 463.498 316.496C449.979 316.496 439.02 327.723 439.02 341.571C439.02 355.42 449.979 366.647 463.498 366.647Z" fill="#F2F4FA"/>
<path d="M522.438 309.762C524.694 309.76 526.859 310.672 528.457 312.299C530.055 313.927 530.956 316.135 530.963 318.44C530.963 325.872 496.082 354.707 464.102 354.707C432.122 354.707 394.441 326.813 394.441 318.44C394.441 316.13 395.34 313.915 396.938 312.282C398.537 310.648 400.705 309.73 402.966 309.73L522.438 309.762Z" fill="#F2F4FA"/>
<path d="M516.236 222.76C514.239 221.57 511.967 220.952 509.657 220.971C507.347 220.99 505.085 221.646 503.107 222.87C476.298 239.45 450.829 237.675 419.615 222.312C404.548 214.898 378.918 279.466 378.918 295.3C380.695 355.777 546.485 351.81 546.485 295.3C546.477 295.3 541.261 237.785 516.236 222.76Z" fill="#F2F4FA"/>
<path d="M480.46 306.944C468.491 301.233 456.519 301.233 444.545 306.944C439.294 306.944 435.039 302.818 435.039 297.719V262.834C435.039 257.736 439.294 253.609 444.545 253.609H480.46C485.711 253.609 489.966 257.736 489.966 262.834V297.719C489.966 302.818 485.711 306.944 480.46 306.944Z" fill="#F1F3FF" stroke="#C7C9F4" stroke-width="5" stroke-miterlimit="10"/>
<path d="M439.948 262.365H439.682C439.096 262.365 438.621 262.825 438.621 263.393V275.666C438.621 276.234 439.096 276.694 439.682 276.694H439.948C440.534 276.694 441.009 276.234 441.009 275.666V263.393C441.009 262.825 440.534 262.365 439.948 262.365Z" fill="#DCE1FE"/>
<path d="M439.948 278.285H439.682C439.096 278.285 438.621 278.75 438.621 279.324V283.614C438.621 284.188 439.096 284.653 439.682 284.653H439.948C440.534 284.653 441.009 284.188 441.009 283.614V279.324C441.009 278.75 440.534 278.285 439.948 278.285Z" fill="#DCE1FE"/>
<path d="M484.306 285.451H484.085C483.596 285.451 483.2 285.924 483.2 286.508V299.121C483.2 299.705 483.596 300.178 484.085 300.178H484.306C484.794 300.178 485.19 299.705 485.19 299.121V286.508C485.19 285.924 484.794 285.451 484.306 285.451Z" fill="#DCE1FE"/>
<path d="M484.306 277.092H484.085C483.596 277.092 483.2 277.557 483.2 278.131V282.421C483.2 282.995 483.596 283.46 484.085 283.46H484.306C484.794 283.46 485.19 282.995 485.19 282.421V278.131C485.19 277.557 484.794 277.092 484.306 277.092Z" fill="#DCE1FE"/>
<path d="M378.918 295.401C378.918 279.548 404.588 214.932 419.674 222.36C427.49 226.29 437.031 229.984 440.513 230.84C442.154 231.249 422.949 231.776 408.04 246.937C391.465 263.781 378.918 295.401 378.918 295.401Z" fill="#B8C3FD"/>
<path d="M579.99 192.738L581.956 194.164L545.598 246.752C542.559 251.147 537.941 254.125 532.759 255.032C527.577 255.938 522.255 254.699 517.965 251.586L516 250.159L552.357 197.572C555.396 193.176 560.014 190.198 565.196 189.292C570.379 188.385 575.7 189.625 579.99 192.738Z" fill="#F2F4FA"/>
<path d="M579.99 192.738L581.956 194.164L545.598 246.752C542.559 251.147 537.941 254.125 532.759 255.032C527.577 255.938 522.255 254.699 517.965 251.586L516 250.159L552.357 197.572C555.396 193.176 560.014 190.198 565.196 189.292C570.379 188.385 575.7 189.625 579.99 192.738Z" fill="#F2F4FA"/>
<path d="M573.2 188.364C565.157 185.486 557.896 189.024 552.977 196.14L518.671 245.766L519.285 246.191C523.107 248.777 559.27 185.99 573.2 188.364Z" fill="#B8C3FD"/>
<path d="M365.737 187.354L367.539 185.727L411.456 232.188C415.127 236.071 417.084 241.206 416.898 246.463C416.711 251.721 414.396 256.67 410.462 260.222L408.66 261.85L364.743 215.389C361.072 211.506 359.115 206.371 359.301 201.113C359.488 195.856 361.803 190.907 365.737 187.354Z" fill="#F2F4FA"/>
<path d="M365.737 187.354L367.539 185.727L411.456 232.188C415.127 236.071 417.084 241.206 416.898 246.463C416.711 251.721 414.396 256.67 410.462 260.222L408.66 261.85L364.743 215.389C361.072 211.506 359.115 206.371 359.301 201.113C359.488 195.856 361.803 190.907 365.737 187.354Z" fill="#F2F4FA"/>
<path d="M360.051 193.092C355.57 200.364 357.528 208.2 363.47 214.487L404.915 258.327L405.457 257.814C408.779 254.611 354.843 206.227 360.051 193.092Z" fill="#B8C3FD"/>
<path d="M440.611 350.328C445.114 363.76 460.9 370.465 473.249 364.395C460.128 364.229 448.744 360.555 440.611 350.328Z" fill="#B1B9E4"/>
<path d="M481.606 352.19C455.411 360.928 411.743 345.712 398.023 324.854C430.913 351.2 481.944 352.946 481.606 352.19Z" fill="#B1B9E4"/>
<path d="M355.833 295.139C355.833 295.139 367.521 299.329 375.734 291.021C369.574 294.239 362.7 295.662 355.833 295.139Z" fill="#B8C3FD"/>
<path d="M474.443 279.48H463.299V290.625H474.443V279.48Z" fill="#FCB614"/>
<path d="M463.299 279.48H452.553V290.625H463.299V279.48Z" fill="#EF4E63"/>
<path d="M463.299 267.938H452.553V279.48H463.299V267.938Z" fill="#63CCF5"/>
<path d="M438.259 214.205H437.393C435.434 214.205 433.846 215.83 433.846 217.834V223.313C433.846 225.317 435.434 226.942 437.393 226.942H438.259C440.218 226.942 441.806 225.317 441.806 223.313V217.834C441.806 215.83 440.218 214.205 438.259 214.205Z" fill="#F2F4FA"/>
<path d="M488.808 214.604H487.942C485.983 214.604 484.395 216.228 484.395 218.232V223.711C484.395 225.715 485.983 227.34 487.942 227.34H488.808C490.767 227.34 492.355 225.715 492.355 223.711V218.232C492.355 216.228 490.767 214.604 488.808 214.604Z" fill="#F2F4FA"/>
<path d="M492.349 220.176V224.752C492.371 225.095 492.324 225.439 492.213 225.762C492.101 226.084 491.928 226.377 491.704 226.622C491.479 226.866 491.21 227.056 490.912 227.179C490.615 227.302 490.296 227.356 489.978 227.336H487.578C490.022 226.585 491.537 224.048 492.349 220.176Z" fill="#B8C3FD"/>
<path d="M433.853 219.379V224.205C433.827 224.56 433.87 224.917 433.978 225.252C434.085 225.588 434.256 225.895 434.479 226.153C434.702 226.411 434.972 226.614 435.271 226.75C435.57 226.886 435.892 226.95 436.216 226.94H438.622C436.194 226.168 434.658 223.449 433.853 219.379Z" fill="#B1B9E4"/>
<rect x="394.84" y="162.186" width="136.123" height="26.2694" rx="13.1347" fill="#B8C3FD"/>
<path d="M463.468 220.693C455.991 220.718 417.745 219.985 407.15 198.178C406.272 196.386 405.984 194.374 405.984 192.377V157.686C405.984 155.687 406.271 153.68 407.15 151.884C418.049 129.496 458.323 129.547 463.214 129.547C468.233 129.547 508.203 129.597 519.05 151.884C519.929 153.677 520.216 155.689 520.216 157.686V192.377C520.216 194.376 519.93 196.383 519.05 198.178C508.735 219.403 472.161 220.668 463.468 220.693Z" fill="#F2F4FA"/>
<path d="M463.208 209.152C456.956 209.17 424.973 208.629 416.114 192.536C415.385 191.224 415.139 189.709 415.139 188.208V162.7C415.139 161.196 415.384 159.687 416.114 158.372C425.227 141.849 458.906 141.887 462.997 141.887C467.193 141.887 500.617 141.924 509.689 158.372C510.417 159.684 510.664 161.199 510.664 162.7V188.207C510.664 189.712 510.419 191.221 509.689 192.536C501.062 208.2 470.478 209.133 463.208 209.152Z" fill="#FFFFFD"/>
<path d="M492.072 128.602C491.013 126.505 488.656 125.393 486.22 124.771H439.98C437.543 125.393 435.186 126.505 434.127 128.602C430.075 136.599 444.694 159.399 463.1 159.399C481.506 159.399 496.124 136.599 492.072 128.602Z" fill="#B8C3FD"/>
<rect x="446.408" y="168.145" width="8.86327" height="18.4652" rx="4.43164" fill="#231F20"/>
<path d="M470.043 172.576C470.043 170.129 472.027 168.145 474.475 168.145C476.922 168.145 478.906 170.129 478.906 172.576V182.178C478.906 184.626 476.922 186.61 474.475 186.61C472.027 186.61 470.043 184.626 470.043 182.178V172.576Z" fill="#231F20"/>
<rect x="469.717" y="176.266" width="9.84455" height="18.9318" rx="4.92228" fill="#FFFFFD"/>
<rect x="446.241" y="176.266" width="9.84455" height="18.9318" rx="4.92228" fill="#FFFFFD"/>
<path d="M623.658 203.388C623.658 203.388 637.907 190.787 654.933 200.852C671.959 210.917 676.225 181.001 676.225 181.001" stroke="#F3748A" stroke-width="6" stroke-linecap="round" stroke-linejoin="round"/>
<path d="M626 86.2054C626 86.2054 629.328 67.483 648.925 64.7825C668.522 62.0821 653.271 36 653.271 36" stroke="#FFDE4B" stroke-width="6" stroke-linecap="round" stroke-linejoin="round"/>
<path d="M463.167 389.966C504.391 389.966 537.809 386.56 537.809 382.359C537.809 378.158 504.391 374.752 463.167 374.752C421.943 374.752 388.524 378.158 388.524 382.359C388.524 386.56 421.943 389.966 463.167 389.966Z" fill="#C7A8F4"/>
<path d="M296.837 415.673C303.926 415.673 309.673 409.926 309.673 402.837C309.673 395.747 303.926 390 296.837 390C289.747 390 284 395.747 284 402.837C284 409.926 289.747 415.673 296.837 415.673Z" fill="#B8C3FD"/>
<path d="M470.837 64.6732C477.926 64.6732 483.673 58.9261 483.673 51.8366C483.673 44.7471 477.926 39 470.837 39C463.747 39 458 44.7471 458 51.8366C458 58.9261 463.747 64.6732 470.837 64.6732Z" fill="#B8C3FD"/>
<path d="M659.044 147.496C662.457 147.496 665.224 144.729 665.224 141.315C665.224 137.902 662.457 135.135 659.044 135.135C655.63 135.135 652.863 137.902 652.863 141.315C652.863 144.729 655.63 147.496 659.044 147.496Z" fill="#E9DCFB"/>
<path d="M277.086 68.9197C277.086 68.9197 271.782 50.6584 252.009 50.061C232.235 49.4637 244.622 21.9052 244.622 21.9052" stroke="#FFDE4B" stroke-width="6" stroke-linecap="round" stroke-linejoin="round"/>
<path d="M327.853 148.811C327.853 148.811 317.71 132.726 298.541 137.615C279.373 142.504 283.663 112.596 283.663 112.596" stroke="#4E6AFA" stroke-width="6" stroke-linecap="round" stroke-linejoin="round"/>
<path d="M771.008 249.856C771.008 249.856 753.774 241.818 740.301 256.303C726.828 270.788 714.25 243.316 714.25 243.316" stroke="#4E6AFA" stroke-width="6" stroke-linecap="round" stroke-linejoin="round"/>
<path d="M327.719 55.9993C327.719 55.9993 329.273 74.9517 348.529 79.4822C367.786 84.0128 350.15 108.546 350.15 108.546" stroke="#4E6AFA" stroke-width="6" stroke-linecap="round" stroke-linejoin="round"/>
<path d="M563.423 112.688C563.423 112.688 572.75 96.1168 559.334 81.5789C545.918 67.041 574.268 56.5931 574.268 56.5931" stroke="#4E6AFA" stroke-width="6" stroke-linecap="round" stroke-linejoin="round"/>
<path d="M197.394 113C197.394 113 213.486 123.132 208.611 142.304C203.735 161.476 233.64 157.165 233.64 157.165" stroke="#F3748A" stroke-width="6" stroke-linecap="round" stroke-linejoin="round"/>
<path d="M749.084 19.9408C749.084 19.9408 738.142 35.493 719.245 29.6419C700.348 23.7907 703.122 53.8772 703.122 53.8772" stroke="#F3748A" stroke-width="6" stroke-linecap="round" stroke-linejoin="round"/>
<path d="M362.181 370.361C365.594 370.361 368.361 367.594 368.361 364.181C368.361 360.767 365.594 358 362.181 358C358.767 358 356 360.767 356 364.181C356 367.594 358.767 370.361 362.181 370.361Z" fill="#FAC7D0"/>
<path d="M522.181 109.361C525.594 109.361 528.361 106.594 528.361 103.181C528.361 99.7671 525.594 97 522.181 97C518.767 97 516 99.7671 516 103.181C516 106.594 518.767 109.361 522.181 109.361Z" fill="#FAC7D0"/>
<path d="M296.767 96.1502C300.18 96.1502 302.947 93.3831 302.947 89.9697C302.947 86.5562 300.18 83.7891 296.767 83.7891C293.353 83.7891 290.586 86.5562 290.586 89.9697C290.586 93.3831 293.353 96.1502 296.767 96.1502Z" fill="#FAC7D0"/>
<mask id="mask0" mask-type="alpha" maskUnits="userSpaceOnUse" x="688" y="42" width="139" height="137">
<ellipse cx="757.5" cy="110.5" rx="69.5" ry="68.5" fill="#C4C4C4"/>
</mask>
<g mask="url(#mask0)">
<ellipse cx="757.5" cy="110.5" rx="69.5" ry="68.5" fill="#5DB097"/>
<path d="M725.295 159.036L721.378 162.177L693.649 124.078C692.024 121.843 691.318 119.017 691.686 116.221C692.053 113.425 693.465 110.887 695.61 109.167L699.523 106.029L727.252 144.128C728.877 146.362 729.583 149.188 729.216 151.983C728.849 154.779 727.439 157.315 725.295 159.036Z" fill="#FEDF68"/>
<path d="M726.112 155.761C716.152 141.086 696.054 114.44 694.79 112.338C693.525 110.237 696.355 108.674 699.55 105.905L724.316 139.929C729.468 145.794 730.379 150.312 726.112 155.761Z" fill="#E8C143"/>
<path d="M794.136 136.679C792.716 135.891 791.099 135.483 789.456 135.496C787.814 135.51 786.205 135.946 784.8 136.758C765.744 147.727 747.622 146.549 725.422 136.385C714.718 131.479 696.474 174.206 696.474 184.692C697.742 224.705 815.641 222.085 815.641 184.692C815.641 184.684 811.949 146.62 794.136 136.679Z" fill="#FEDF68"/>
<path d="M696.503 184.65C696.503 174.172 714.735 131.445 725.451 136.342C731.004 138.927 737.78 141.381 740.271 141.951C741.436 142.218 727.793 142.571 717.218 152.594C705.407 163.744 696.503 184.65 696.503 184.65Z" fill="#E8C143"/>
<path opacity="0.8" d="M772.832 139.256C774.438 140.477 777.109 139.134 777.167 137.292C777.167 136.471 777.167 134.975 777.167 134.975C776.681 137.292 775.549 138.67 772.832 139.256Z" fill="#FFF9E1"/>
<path d="M768.803 192.277C760.295 188.488 751.787 188.488 743.28 192.277C739.55 192.277 736.524 189.527 736.524 186.162V163.053C736.541 159.679 739.575 156.93 743.28 156.93H768.803C772.536 156.93 775.558 159.679 775.558 163.045V186.158C775.575 189.527 772.553 192.277 768.803 192.277Z" fill="#FFF9E1" stroke="#E8C143" stroke-width="5" stroke-miterlimit="10"/>
<path opacity="0.8" d="M740.118 162.75H739.587C739.287 162.75 739.044 162.982 739.044 163.268V171.795C739.044 172.081 739.287 172.313 739.587 172.313H740.118C740.418 172.313 740.662 172.081 740.662 171.795V163.268C740.662 162.982 740.418 162.75 740.118 162.75Z" fill="#FEECA4"/>
<path opacity="0.8" d="M740.118 173.457H739.587C739.287 173.457 739.044 173.689 739.044 173.975V177.145C739.044 177.431 739.287 177.663 739.587 177.663H740.118C740.418 177.663 740.662 177.431 740.662 177.145V173.975C740.662 173.689 740.418 173.457 740.118 173.457Z" fill="#FEECA4"/>
<path opacity="0.8" d="M771.586 178.232H771.055C770.755 178.232 770.512 178.465 770.512 178.751V187.277C770.512 187.564 770.755 187.796 771.055 187.796H771.586C771.886 187.796 772.13 187.564 772.13 187.277V178.751C772.13 178.465 771.886 178.232 771.586 178.232Z" fill="#FEECA4"/>
<path opacity="0.8" d="M771.586 172.666H771.055C770.755 172.666 770.512 172.898 770.512 173.184V176.354C770.512 176.64 770.755 176.872 771.055 176.872H771.586C771.886 176.872 772.13 176.64 772.13 176.354V173.184C772.13 172.898 771.886 172.666 771.586 172.666Z" fill="#FEECA4"/>
<path d="M753.806 182.624C758.099 182.624 761.578 179.107 761.578 174.769C761.578 170.431 758.099 166.914 753.806 166.914C749.514 166.914 746.034 170.431 746.034 174.769C746.034 179.107 749.514 182.624 753.806 182.624Z" fill="#F6DD7A"/>
<path d="M755.906 181.947C760.523 181.947 764.267 178.164 764.267 173.499C764.267 168.833 760.523 165.051 755.906 165.051C751.288 165.051 747.545 168.833 747.545 173.499C747.545 178.164 751.288 181.947 755.906 181.947Z" stroke="black" stroke-miterlimit="10"/>
<path d="M756.054 180.303C759.801 180.303 762.838 177.232 762.838 173.445C762.838 169.658 759.801 166.588 756.054 166.588C752.307 166.588 749.27 169.658 749.27 173.445C749.27 177.232 752.307 180.303 756.054 180.303Z" stroke="black" stroke-miterlimit="10"/>
<path d="M754.14 166.822L752.456 167.624L751.772 166.159L753.456 165.357L754.14 166.822Z" fill="#161417"/>
<path d="M761.578 179.765L760.104 180.806L759.211 179.513L760.689 178.473L761.578 179.765Z" fill="#161417"/>
<path d="M760.434 168.221L759.001 167.29L759.791 166.049L761.224 166.98L760.434 168.221Z" fill="#161417"/>
<path d="M739.311 130.918H737.467C736.414 130.918 735.561 131.732 735.561 132.736V137.544C735.561 138.548 736.414 139.362 737.467 139.362H739.311C740.363 139.362 741.217 138.548 741.217 137.544V132.736C741.217 131.732 740.363 130.918 739.311 130.918Z" fill="#E8C143"/>
<path d="M775.261 131.275H773.417C772.364 131.275 771.511 132.09 771.511 133.094V137.901C771.511 138.905 772.364 139.719 773.417 139.719H775.261C776.314 139.719 777.167 138.905 777.167 137.901V133.094C777.167 132.09 776.314 131.275 775.261 131.275Z" fill="#FEDF68"/>
<path opacity="0.8" d="M736.882 138.894C738.487 140.116 741.159 138.772 741.217 136.93C741.217 136.11 741.217 134.613 741.217 134.613C740.731 136.919 739.599 138.301 736.882 138.894Z" fill="#FFF9E1"/>
<rect x="707.897" y="94.4785" width="96.6721" height="18.2053" rx="9.10263" fill="#E8C143"/>
<path d="M756.636 135.028C751.326 135.045 724.164 134.537 716.64 119.425C716.018 118.184 715.812 116.785 715.812 115.396V91.3704C715.812 89.9798 716.017 88.5845 716.64 87.3417C724.38 71.8263 752.982 71.8613 756.456 71.8613C760.02 71.8613 788.406 71.8964 796.11 87.3417C796.733 88.5824 796.938 89.9817 796.938 91.37V115.396C796.938 116.786 796.734 118.182 796.11 119.425C788.784 134.134 762.81 135.01 756.636 135.028Z" fill="#FEDF68"/>
<path d="M756.452 127.028C752.011 127.041 729.298 126.666 723.006 115.513C722.489 114.605 722.313 113.551 722.313 112.507V94.8437C722.313 93.7968 722.488 92.7465 723.006 91.8365C729.478 80.3862 753.396 80.4121 756.301 80.4121C759.282 80.4121 783.019 80.438 789.461 91.8365C789.978 92.7446 790.154 93.7986 790.154 94.8433V112.506C790.154 113.553 789.979 114.603 789.461 115.513C783.335 126.368 761.615 127.015 756.452 127.028Z" fill="#FFFFFD"/>
<path d="M776.951 71.2053C776.199 69.7525 774.525 68.9812 772.794 68.5508H739.956C738.225 68.9812 736.552 69.7525 735.799 71.2053C732.922 76.7474 743.304 92.5486 756.375 92.5486C769.447 92.5486 779.829 76.7474 776.951 71.2053Z" fill="#E8C143"/>
<rect x="744.521" y="98.6094" width="6.29453" height="12.7968" rx="3.14727" fill="#231F20"/>
<rect x="761.306" y="98.6094" width="6.29453" height="12.7968" rx="3.14727" fill="#231F20"/>
<path d="M821.973 114.635L825.636 117.403L798.974 155.626C797.335 157.976 794.861 159.549 792.097 159.998C789.333 160.447 786.504 159.736 784.235 158.021L780.575 155.255L807.236 117.032C808.876 114.683 811.349 113.11 814.112 112.66C816.876 112.211 819.703 112.921 821.973 114.635Z" fill="#FEDF68"/>
<path d="M817.969 112.876C813.431 111.188 809.33 113.196 806.547 117.272L787.133 145.702L787.473 145.953C789.632 147.454 810.088 111.452 817.969 112.876Z" fill="#FFF2C3"/>
</g>
<mask id="mask1" mask-type="alpha" maskUnits="userSpaceOnUse" x="47" y="0" width="133" height="130">
<ellipse cx="113.5" cy="65" rx="66.5" ry="65" fill="#C4C4C4"/>
</mask>
<g mask="url(#mask1)">
<ellipse cx="113.5" cy="65" rx="66.5" ry="65" fill="#64C0C1"/>
<path d="M76.0982 111.822L72.2919 113.972L51.9041 74.7467C50.6503 72.3344 50.3848 69.4918 51.1659 66.8441C51.9471 64.1964 53.7109 61.9606 56.0694 60.6284L59.8722 58.4805L80.2619 97.7094C81.5156 100.122 81.7812 102.964 81 105.612C80.2189 108.26 78.455 110.495 76.0966 111.828L76.0982 111.822Z" fill="#F2748A"/>
<path d="M77.6754 108.709C70.4365 93.5718 55.3887 65.7952 54.5012 63.6504C53.6138 61.5055 56.5116 60.4718 59.9149 58.3706L78.2862 93.7067C82.2691 99.9417 82.4929 104.276 77.6754 108.709Z" fill="#D16179"/>
<path d="M146.671 87.325C145.333 86.5753 143.812 86.1865 142.265 86.1995C140.719 86.2125 139.205 86.6268 137.881 87.3989C119.938 97.8546 102.878 96.7343 81.9742 87.0449C71.9031 82.3772 54.7178 123.088 54.7178 133.069C55.9263 171.188 166.922 168.703 166.922 133.069C166.922 133.069 163.441 96.8005 146.671 87.325Z" fill="#F2748A"/>
<path d="M54.7451 133.043C54.7451 123.054 71.9103 82.3394 82.0015 87.0149C87.2385 89.481 93.6074 91.8188 95.9359 92.3634C97.0356 92.6162 84.189 92.9546 74.2186 102.504C63.1363 113.115 54.7451 133.043 54.7451 133.043Z" fill="#D16179"/>
<path d="M115.164 120.267H106.04C105.733 120.279 105.434 120.174 105.207 119.974C104.981 119.775 104.846 119.497 104.831 119.201V114.401C104.845 114.104 104.98 113.825 105.206 113.625C105.433 113.424 105.732 113.318 106.04 113.331H115.164C115.471 113.319 115.77 113.425 115.996 113.626C116.223 113.826 116.358 114.105 116.373 114.401V119.201C116.357 119.496 116.221 119.774 115.995 119.973C115.769 120.173 115.47 120.278 115.164 120.267Z" fill="#F2748A"/>
<path d="M122.834 140.308C114.825 136.704 106.814 136.704 98.8002 140.308C95.2915 140.308 92.4434 137.698 92.4434 134.474V112.458C92.4434 109.241 95.2915 106.623 98.8002 106.623H122.834C126.347 106.623 129.195 109.233 129.195 112.458V134.482C129.195 137.683 126.347 140.308 122.834 140.308Z" fill="#F2DADB" stroke="#D16179" stroke-width="5" stroke-miterlimit="10"/>
<path d="M95.7908 112.17H95.3316C95.0379 112.17 94.7998 112.4 94.7998 112.683V120.77C94.7998 121.054 95.0379 121.284 95.3316 121.284H95.7908C96.0845 121.284 96.3226 121.054 96.3226 120.77V112.683C96.3226 112.4 96.0845 112.17 95.7908 112.17Z" fill="#E9B9BE"/>
<path d="M95.7908 122.373H95.3316C95.0379 122.373 94.7998 122.603 94.7998 122.886V125.866C94.7998 126.15 95.0379 126.38 95.3316 126.38H95.7908C96.0845 126.38 96.3226 126.15 96.3226 125.866V122.886C96.3226 122.603 96.0845 122.373 95.7908 122.373Z" fill="#E9B9BE"/>
<path d="M125.416 126.924H124.957C124.663 126.924 124.425 127.154 124.425 127.437V135.524C124.425 135.808 124.663 136.038 124.957 136.038H125.416C125.709 136.038 125.948 135.808 125.948 135.524V127.437C125.948 127.154 125.709 126.924 125.416 126.924Z" fill="#E9B9BE"/>
<path d="M125.416 121.621H124.957C124.663 121.621 124.425 121.851 124.425 122.135V125.114C124.425 125.398 124.663 125.628 124.957 125.628H125.416C125.709 125.628 125.948 125.398 125.948 125.114V122.135C125.948 121.851 125.709 121.621 125.416 121.621Z" fill="#E9B9BE"/>
<path d="M104.194 122.844V114.636C104.22 114.089 104.471 113.573 104.89 113.204C105.309 112.834 105.863 112.64 106.43 112.664H114.644C115.211 112.64 115.764 112.833 116.183 113.202C116.602 113.571 116.853 114.085 116.88 114.632V122.735C116.874 123.093 116.765 123.443 116.566 123.746C116.367 124.049 116.085 124.292 115.752 124.45L113.645 125.512C113.304 125.673 113.017 125.924 112.818 126.236C112.618 126.548 112.514 126.908 112.517 127.274L112.658 132.265C112.652 132.54 112.59 132.811 112.474 133.063C112.358 133.315 112.191 133.541 111.983 133.73C111.775 133.918 111.531 134.065 111.263 134.16C110.996 134.256 110.711 134.299 110.426 134.287C110.141 134.3 109.855 134.257 109.587 134.161C109.319 134.066 109.074 133.919 108.865 133.73C108.657 133.541 108.49 133.314 108.374 133.061C108.258 132.809 108.196 132.537 108.191 132.261L108.352 127.321C108.356 126.958 108.255 126.602 108.061 126.292C107.866 125.982 107.586 125.731 107.252 125.567L105.29 124.547C104.964 124.386 104.69 124.143 104.497 123.842C104.304 123.542 104.199 123.197 104.194 122.844Z" fill="#F2748A"/>
<path d="M104.629 120.26L116.501 120.354L116.477 117.954C116.477 117.954 115.316 119.07 113.987 116.787C112.448 114.134 111.522 118.942 110.236 117.954C108.951 116.966 108.528 112.166 106.949 117.565C105.93 121.065 104.907 116.51 104.77 118.389L104.629 120.26Z" fill="#F2DADB"/>
<path d="M105.898 122.302V114.091C105.927 113.544 106.177 113.03 106.596 112.661C107.015 112.292 107.568 112.097 108.134 112.119H116.352C116.919 112.096 117.472 112.29 117.89 112.66C118.308 113.03 118.558 113.544 118.584 114.091V122.194C118.577 122.551 118.468 122.901 118.269 123.203C118.07 123.505 117.789 123.748 117.456 123.905L115.349 124.971C115.008 125.132 114.722 125.383 114.522 125.695C114.322 126.007 114.218 126.366 114.221 126.733L114.366 131.723C114.36 131.999 114.297 132.27 114.181 132.522C114.064 132.774 113.897 133 113.689 133.189C113.481 133.377 113.236 133.524 112.968 133.619C112.7 133.715 112.416 133.758 112.13 133.746V133.746C111.845 133.759 111.56 133.716 111.291 133.62C111.023 133.524 110.778 133.378 110.569 133.189C110.361 133 110.194 132.772 110.078 132.52C109.962 132.268 109.9 131.996 109.895 131.72L110.056 126.78C110.06 126.418 109.96 126.062 109.767 125.752C109.573 125.442 109.294 125.19 108.96 125.025L106.998 124.002C106.672 123.842 106.398 123.599 106.204 123.3C106.01 123 105.905 122.655 105.898 122.302V122.302Z" stroke="#171518" stroke-miterlimit="10"/>
<path d="M117.387 117.896C116.944 118.001 116.219 117.861 115.345 116.531C113.665 113.963 113.089 118.647 111.772 117.697C110.454 116.748 109.713 112.085 108.549 117.355C107.796 120.759 106.486 116.348 106.482 118.176V118.771C106.5 119.113 106.657 119.434 106.919 119.664C107.181 119.894 107.526 120.015 107.88 120L117.017 119.981C117.109 119.981 117.202 119.97 117.291 119.946C117.462 119.88 117.614 119.775 117.733 119.639C117.853 119.503 117.936 119.342 117.976 119.168C117.98 119.132 117.98 119.095 117.976 119.059L117.907 118.192C117.896 118.137 117.874 118.086 117.841 118.041C117.808 117.996 117.765 117.959 117.716 117.931C117.667 117.903 117.612 117.885 117.556 117.879C117.499 117.873 117.442 117.879 117.387 117.896V117.896Z" stroke="#171518" stroke-miterlimit="10"/>
<rect x="65.4697" y="48.1562" width="91.0204" height="16.9607" rx="8.48034" fill="#D16179"/>
<path d="M111.359 85.932C106.359 85.9484 80.7855 85.4747 73.7015 71.3956C73.1155 70.2405 72.9219 68.9348 72.9219 67.6395V45.2626C72.9219 43.9651 73.1145 42.6632 73.7015 41.5061C80.9889 27.0513 107.919 27.084 111.189 27.084C114.545 27.084 141.271 27.1167 148.525 41.5061C149.111 42.6612 149.304 43.9669 149.304 45.2622V67.6391C149.304 68.9366 149.112 70.2385 148.525 71.3956C141.627 85.0991 117.172 85.9157 111.359 85.932Z" fill="#F2748A"/>
<path d="M111.185 78.4801C107.005 78.4922 85.6189 78.1426 79.6949 67.7524C79.2089 66.907 79.043 65.9232 79.043 64.9481V48.4988C79.043 47.5216 79.2079 46.5414 79.6949 45.6942C85.7889 35.0267 108.308 35.0508 111.044 35.0508C113.85 35.0508 136.199 35.0749 142.265 45.6942C142.751 46.5396 142.917 47.5233 142.917 48.4984V64.9477C142.917 65.9249 142.752 66.9052 142.265 67.7524C136.497 77.8654 116.046 78.4681 111.185 78.4801Z" fill="#FFFFFD"/>
<path d="M130.486 26.473C129.777 25.1195 128.201 24.401 126.572 24H95.6533C94.0241 24.401 92.4481 25.1195 91.7398 26.473C89.0304 31.6362 98.8054 46.3573 111.113 46.3573C123.42 46.3573 133.195 31.6362 130.486 26.473Z" fill="#D16179"/>
<rect x="99.9512" y="52.0039" width="5.92653" height="11.9219" rx="2.96327" fill="#231F20"/>
<rect x="115.756" y="52.0039" width="5.92653" height="11.9219" rx="2.96327" fill="#231F20"/>
<path d="M94.9819 81.8359H93.3867C92.3565 81.8359 91.5215 82.6423 91.5215 83.6369V88.0829C91.5215 89.0776 92.3565 89.8839 93.3867 89.8839H94.9819C96.012 89.8839 96.8471 89.0776 96.8471 88.0829V83.6369C96.8471 82.6423 96.012 81.8359 94.9819 81.8359Z" fill="#D16179"/>
<path d="M128.829 82.1758H127.233C126.203 82.1758 125.368 82.9821 125.368 83.9767V88.4227C125.368 89.4174 126.203 90.2237 127.233 90.2237H128.829C129.859 90.2237 130.694 89.4174 130.694 88.4227V83.9767C130.694 82.9821 129.859 82.1758 128.829 82.1758Z" fill="#F2748A"/>
<path d="M92.7666 89.4495C94.2773 90.6164 96.795 89.3367 96.8474 87.5668C96.8474 86.7889 96.8474 85.3574 96.8474 85.3574C96.3882 87.5551 95.3247 88.8738 92.7666 89.4495Z" fill="#F7A9B1"/>
<path d="M126.613 89.7874C128.124 90.9543 130.642 89.6746 130.694 87.9086C130.694 87.1306 130.694 85.6992 130.694 85.6992C130.235 87.893 129.171 89.2233 126.613 89.7874Z" fill="#E9B9BE"/>
<path d="M173.124 64.1492L177.214 66.5077L154.906 108.922C153.534 111.53 151.211 113.451 148.449 114.262C145.687 115.073 142.712 114.707 140.177 113.246L136.09 110.89L158.399 68.4749C159.77 65.8677 162.092 63.9469 164.853 63.1358C167.614 62.3247 170.589 62.6891 173.124 64.1492Z" fill="#F2748A"/>
<path d="M168.816 62.8636C163.971 61.7188 160.045 64.2916 157.727 68.8066L141.56 100.302L141.939 100.515C144.333 101.772 160.595 62.4151 168.816 62.8636Z" fill="#E9B9BE"/>
</g>
<mask id="mask2" mask-type="alpha" maskUnits="userSpaceOnUse" x="598" y="251" width="109" height="108">
<ellipse cx="652.5" cy="304.68" rx="54.5" ry="53.6805" fill="#C4C4C4"/>
</mask>
<g mask="url(#mask2)">
<ellipse cx="652.5" cy="304.68" rx="54.5" ry="53.6805" fill="#F5A64A"/>
<path d="M626.543 335.744L623.922 337.895L602.149 311.59C601.486 310.789 600.987 309.866 600.682 308.873C600.377 307.88 600.271 306.837 600.371 305.804C600.47 304.771 600.773 303.767 601.262 302.85C601.751 301.934 602.417 301.122 603.221 300.462L605.84 298.313L627.616 324.623C628.954 326.24 629.592 328.32 629.391 330.405C629.189 332.491 628.165 334.411 626.543 335.744Z" fill="#4E6AFA"/>
<path d="M627.291 333.194C619.388 322.95 611.792 312.174 602.47 302.942C603.167 301.102 604.335 299.476 605.859 298.226L625.477 321.922C626.759 323.47 627.603 325.331 627.922 327.313C628.241 329.295 628.023 331.325 627.291 333.194Z" fill="#3B50BB"/>
<path d="M678.71 318.797C677.694 318.205 676.539 317.898 675.365 317.908C674.191 317.919 673.041 318.246 672.036 318.855C658.413 327.11 645.46 326.226 629.59 318.576C621.943 314.891 608.896 347.032 608.896 354.913C609.813 385.009 694.085 383.047 694.085 354.913C694.085 354.913 691.449 326.278 678.71 318.797Z" fill="#4E6AFA"/>
<path d="M660.613 360.629C654.532 357.783 648.451 357.783 642.368 360.629C639.701 360.629 637.539 358.568 637.539 356.022V338.64C637.539 336.1 639.701 334.033 642.368 334.033H660.613C663.28 334.033 665.442 336.094 665.442 338.64V356.028C665.451 358.568 663.28 360.629 660.613 360.629Z" fill="#F1F3FF" stroke="#2C3C8C" stroke-width="5" stroke-miterlimit="10"/>
<path d="M647.458 339.301H654.327C654.416 339.301 654.503 339.321 654.583 339.361C654.662 339.402 654.731 339.46 654.783 339.532C654.836 339.603 654.871 339.687 654.886 339.774C654.901 339.862 654.895 339.953 654.868 340.038L653.055 345.842C653.028 345.927 653.022 346.017 653.037 346.105C653.051 346.193 653.086 346.276 653.139 346.348C653.191 346.42 653.259 346.479 653.338 346.519C653.417 346.56 653.504 346.582 653.593 346.582H655.272C655.367 346.582 655.46 346.606 655.543 346.652C655.626 346.698 655.697 346.764 655.748 346.844C655.799 346.924 655.829 347.015 655.836 347.11C655.842 347.205 655.825 347.3 655.786 347.387L652.168 355.283C652.119 355.388 652.039 355.476 651.939 355.534C651.839 355.593 651.724 355.619 651.609 355.61C651.493 355.6 651.384 355.556 651.294 355.482C651.205 355.408 651.141 355.309 651.109 355.197L649.121 348.047C649.088 347.928 649.017 347.823 648.918 347.748C648.82 347.673 648.7 347.633 648.577 347.633H647.458C647.307 347.633 647.163 347.573 647.057 347.466C646.951 347.36 646.892 347.215 646.892 347.064V339.869C646.892 339.794 646.906 339.72 646.935 339.652C646.963 339.583 647.005 339.52 647.057 339.467C647.11 339.414 647.172 339.373 647.241 339.344C647.31 339.315 647.383 339.301 647.458 339.301Z" fill="#4E6AFA"/>
<path d="M648.573 338.412H655.443C655.532 338.412 655.619 338.433 655.699 338.473C655.778 338.513 655.847 338.571 655.899 338.643C655.952 338.715 655.987 338.798 656.002 338.886C656.017 338.974 656.011 339.064 655.984 339.149L654.171 344.953C654.144 345.038 654.137 345.129 654.152 345.217C654.166 345.305 654.2 345.388 654.253 345.461C654.305 345.533 654.374 345.591 654.453 345.632C654.533 345.672 654.62 345.693 654.709 345.694H656.388C656.483 345.694 656.576 345.718 656.659 345.763C656.742 345.809 656.813 345.875 656.864 345.955C656.915 346.035 656.945 346.127 656.952 346.222C656.959 346.317 656.941 346.412 656.902 346.498L653.284 354.394C653.235 354.499 653.155 354.587 653.056 354.646C652.955 354.704 652.84 354.731 652.725 354.721C652.609 354.712 652.5 354.667 652.411 354.593C652.321 354.519 652.257 354.42 652.225 354.308L650.237 347.158C650.203 347.039 650.132 346.934 650.033 346.859C649.934 346.784 649.814 346.744 649.69 346.744H648.573C648.424 346.744 648.28 346.684 648.173 346.577C648.067 346.471 648.008 346.326 648.008 346.176V338.98C648.008 338.83 648.067 338.685 648.173 338.578C648.28 338.472 648.424 338.412 648.573 338.412Z" stroke="black" stroke-miterlimit="10"/>
<path d="M608.917 354.892C608.917 347.005 621.949 314.86 629.611 318.552C633.587 320.499 638.423 322.345 640.191 322.775C641.026 322.974 631.272 323.241 623.702 330.781C615.291 339.159 608.917 354.892 608.917 354.892Z" fill="#3B50BB"/>
<path d="M640.08 338.412H639.732C639.509 338.412 639.328 338.594 639.328 338.817V345.202C639.328 345.426 639.509 345.608 639.732 345.608H640.08C640.304 345.608 640.484 345.426 640.484 345.202V338.817C640.484 338.594 640.304 338.412 640.08 338.412Z" fill="#DCE1FE"/>
<path d="M640.08 346.469H639.732C639.509 346.469 639.328 346.65 639.328 346.874V349.227C639.328 349.45 639.509 349.632 639.732 349.632H640.08C640.304 349.632 640.484 349.45 640.484 349.227V346.874C640.484 346.65 640.304 346.469 640.08 346.469Z" fill="#DCE1FE"/>
<path d="M662.573 350.061H662.224C662.001 350.061 661.82 350.242 661.82 350.466V356.851C661.82 357.075 662.001 357.256 662.224 357.256H662.573C662.796 357.256 662.976 357.075 662.976 356.851V350.466C662.976 350.242 662.796 350.061 662.573 350.061Z" fill="#DCE1FE"/>
<path d="M662.573 345.875H662.224C662.001 345.875 661.82 346.057 661.82 346.281V348.633C661.82 348.857 662.001 349.038 662.224 349.038H662.573C662.796 349.038 662.976 348.857 662.976 348.633V346.281C662.976 346.057 662.796 345.875 662.573 345.875Z" fill="#DCE1FE"/>
<path d="M704.021 302.184L706.828 304.065L688.862 333.276C687.758 335.072 686.007 336.332 683.996 336.778C681.985 337.224 679.878 336.82 678.139 335.655L675.334 333.776L693.3 304.565C694.405 302.769 696.155 301.51 698.165 301.063C700.176 300.617 702.282 301.02 704.021 302.184Z" fill="#4E6AFA"/>
<path d="M701.008 301.06C697.604 300.009 694.677 301.658 692.804 304.77L679.748 326.48L680.008 326.65C681.657 327.662 695.16 300.344 701.008 301.06Z" fill="#B8C3FD"/>
<path d="M637.783 320.465C638.93 321.386 640.842 320.376 640.882 318.979C640.882 318.364 640.882 317.234 640.882 317.234C640.533 318.979 639.725 320.026 637.783 320.465Z" fill="#B8C3FD"/>
<path d="M663.481 320.741C664.628 321.663 666.54 320.652 666.58 319.258C666.58 318.644 666.58 317.514 666.58 317.514C666.234 319.258 665.423 320.296 663.481 320.741Z" fill="#B8C3FD"/>
<path d="M643.921 356.051H641.912V358.087H643.921V356.051Z" fill="#FCB614"/>
<path d="M641.916 356.051H639.906V358.087H641.916V356.051Z" fill="#EF4E63"/>
<path d="M641.916 354.014H639.906V356.05H641.916V354.014Z" fill="#63CCF5"/>
<path d="M639.465 314.465H638.254C637.472 314.465 636.838 315.102 636.838 315.887V319.397C636.838 320.182 637.472 320.819 638.254 320.819H639.465C640.247 320.819 640.881 320.182 640.881 319.397V315.887C640.881 315.102 640.247 314.465 639.465 314.465Z" fill="#4E6AFA"/>
<path d="M665.163 314.732H663.952C663.17 314.732 662.536 315.369 662.536 316.154V319.665C662.536 320.45 663.17 321.087 663.952 321.087H665.163C665.945 321.087 666.58 320.45 666.58 319.665V316.154C666.58 315.369 665.945 314.732 665.163 314.732Z" fill="#4E6AFA"/>
<path d="M680.729 287.865H622.489C619.489 287.865 617.058 290.259 617.058 293.212V295.909C617.058 298.862 619.489 301.256 622.489 301.256H680.729C683.729 301.256 686.161 298.862 686.161 295.909V293.212C686.161 290.259 683.729 287.865 680.729 287.865Z" fill="#3B50BB"/>
<path d="M651.898 317.689C648.102 317.702 628.686 317.328 623.308 306.212C622.861 305.297 622.716 304.275 622.716 303.26V285.568C622.716 284.551 622.861 283.531 623.308 282.615C628.84 271.203 649.286 271.229 651.769 271.229C654.316 271.229 674.607 271.254 680.114 282.615C680.561 283.53 680.706 284.552 680.706 285.567V303.259C680.706 304.276 680.561 305.296 680.114 306.212C674.877 317.031 656.311 317.676 651.898 317.689Z" fill="#4E6AFA"/>
<path d="M651.766 311.807C648.592 311.816 632.356 311.54 627.858 303.337C627.488 302.667 627.363 301.898 627.363 301.135V288.125C627.363 287.361 627.487 286.594 627.858 285.922C632.485 277.5 649.582 277.52 651.658 277.52C653.789 277.52 670.757 277.539 675.362 285.922C675.732 286.592 675.857 287.362 675.857 288.124V301.135C675.857 301.899 675.733 302.666 675.362 303.337C670.983 311.321 655.457 311.797 651.766 311.807Z" fill="#FFFFFD"/>
<path d="M666.418 270.747C665.881 269.679 664.684 269.112 663.447 268.795H639.974C638.737 269.112 637.54 269.679 637.002 270.747C634.945 274.824 642.367 286.446 651.71 286.446C661.054 286.446 668.475 274.824 666.418 270.747Z" fill="#3B50BB"/>
<path d="M646.042 290.904H644.93C643.995 290.904 643.236 291.651 643.236 292.571V298.65C643.236 299.57 643.995 300.317 644.93 300.317H646.042C646.978 300.317 647.736 299.57 647.736 298.65V292.571C647.736 291.651 646.978 290.904 646.042 290.904Z" fill="#231F20"/>
<path d="M658.041 290.904H656.929C655.994 290.904 655.235 291.651 655.235 292.571V298.65C655.235 299.57 655.994 300.317 656.929 300.317H658.041C658.977 300.317 659.735 299.57 659.735 298.65V292.571C659.735 291.651 658.977 290.904 658.041 290.904Z" fill="#231F20"/>
</g>
<path d="M0 234C0 258.301 19.6995 278 44 278H315C339.301 278 359 258.301 359 234V226C359 201.699 339.301 182 315 182H44C19.6995 182 0 201.699 0 226V234Z" fill="#FEDF68"/>
<path d="M47.2 212.988H53.152L59.152 245.244H60.784L66.016 212.988H79.072L84.304 245.244H85.936L91.936 212.988H97.888L91.504 246.828H78.736L73.36 214.572H71.728L66.352 246.828H53.584L47.2 212.988ZM101.292 246.828V212.988H124.188V218.364H107.484V227.196H121.788V232.572H107.484V241.452H124.188V246.828H101.292ZM132.643 247.308C131.491 247.34 130.595 247.052 129.955 246.444C129.315 245.804 128.995 244.908 128.995 243.756V212.988H135.187V241.932L151.891 241.452V246.828L132.643 247.308ZM151.906 229.884C151.906 224.86 153.426 220.716 156.466 217.452C159.506 214.156 163.57 212.508 168.658 212.508C173.234 212.508 176.946 213.724 179.794 216.156C182.642 218.556 184.322 221.852 184.834 226.044H178.642C178.258 223.42 177.186 221.404 175.426 219.996C173.698 218.588 171.474 217.884 168.754 217.884C165.394 217.884 162.77 218.956 160.882 221.1C159.026 223.212 158.098 226.14 158.098 229.884C158.098 233.628 159.026 236.572 160.882 238.716C162.77 240.86 165.394 241.932 168.754 241.932C171.474 241.932 173.698 241.228 175.426 239.82C177.186 238.38 178.258 236.348 178.642 233.724H184.834C184.322 237.948 182.642 241.276 179.794 243.708C176.946 246.108 173.234 247.308 168.658 247.308C163.57 247.308 159.506 245.676 156.466 242.412C153.426 239.116 151.906 234.94 151.906 229.884ZM193.308 242.412C190.3 239.116 188.796 234.94 188.796 229.884C188.796 224.828 190.3 220.668 193.308 217.404C196.348 214.14 200.412 212.508 205.5 212.508C210.588 212.508 214.636 214.156 217.644 217.452C220.652 220.716 222.156 224.86 222.156 229.884C222.156 234.94 220.652 239.116 217.644 242.412C214.636 245.676 210.588 247.308 205.5 247.308C200.412 247.308 196.348 245.676 193.308 242.412ZM197.676 221.148C195.884 223.292 194.988 226.204 194.988 229.884C194.988 233.564 195.884 236.492 197.676 238.668C199.468 240.844 202.076 241.932 205.5 241.932C208.924 241.932 211.516 240.844 213.276 238.668C215.068 236.492 215.964 233.564 215.964 229.884C215.964 226.204 215.068 223.292 213.276 221.148C211.484 218.972 208.892 217.884 205.5 217.884C202.076 217.884 199.468 218.972 197.676 221.148ZM226.964 246.828V212.988H239.204L246.02 245.244H247.604L254.42 212.988H266.66V246.828H260.468V218.604L261.62 214.572H259.988L252.884 246.828H240.788L233.636 214.572H232.052L233.156 218.604V246.828H226.964ZM272.104 246.828V212.988H295V218.364H278.296V227.196H292.6V232.572H278.296V241.452H295V246.828H272.104ZM302.436 212.988H308.628L307.572 234.732H303.492L302.436 212.988ZM305.508 247.308C304.1 247.308 302.948 246.86 302.052 245.964C301.188 245.036 300.756 243.884 300.756 242.508C300.756 241.164 301.188 240.044 302.052 239.148C302.948 238.252 304.1 237.804 305.508 237.804C306.884 237.804 308.02 238.252 308.916 239.148C309.844 240.044 310.308 241.164 310.308 242.508C310.308 243.884 309.844 245.036 308.916 245.964C308.02 246.86 306.884 247.308 305.508 247.308Z" fill="white"/>
</svg>
