<svg width="794" height="708" viewBox="0 0 794 708" fill="none" xmlns="http://www.w3.org/2000/svg">
<path fill-rule="evenodd" clip-rule="evenodd" d="M216.385 170.673C273.585 146.812 326.956 219.672 387.378 233.458C415.093 239.782 442.697 224.448 470.803 228.721C504.543 233.852 535.428 245.259 565.91 260.604C618.285 286.971 711.033 291.988 712.896 350.597C714.798 410.434 599.396 402.895 572.127 456.195C543.485 512.178 614.461 602.81 564.393 640.859C517.945 676.158 452.223 615.31 402.165 585.36C367.652 564.711 346.695 529.931 323.766 496.889C307.315 473.183 305.769 442.574 287.551 420.198C255.951 381.385 193.52 368.184 179.792 320.052C165.442 269.736 168.092 190.818 216.385 170.673Z" fill="#F5A64A"/>
<path fill-rule="evenodd" clip-rule="evenodd" d="M152.046 361.617C173.462 365.191 187.591 386.722 208.964 390.546C238 395.742 276.17 365.049 295.583 387.302C314.308 408.766 282.366 440.984 277.443 469.044C273.987 488.743 277.719 508.648 270.991 527.477C263.371 548.805 255.058 571.634 236.278 584.25C216.954 597.232 191.331 602.295 168.897 596.063C147.556 590.134 140.622 561.969 120.756 552.158C93.632 538.762 48.412 556.815 34.7273 529.801C21.7222 504.129 64.9688 481.486 70.6674 453.283C76.4864 424.484 48.1425 388.909 67.6309 366.957C86.7474 345.424 123.655 356.879 152.046 361.617Z" fill="#64C0C1"/>
<path d="M369.269 707.229C430.087 707.229 479.389 702.566 479.389 696.814C479.389 691.062 430.087 686.399 369.269 686.399C308.452 686.399 259.149 691.062 259.149 696.814C259.149 702.566 308.452 707.229 369.269 707.229Z" fill="#FEECA4"/>
<path d="M366.227 660.67C388.896 660.67 407.282 641.445 407.282 617.785C407.282 594.124 388.896 574.899 366.227 574.899C343.559 574.899 325.173 594.124 325.173 617.785C325.173 641.445 343.546 660.67 366.227 660.67Z" fill="#F2F4FA"/>
<path d="M465.056 563.271C466.943 563.273 468.81 563.658 470.545 564.403C472.28 565.148 473.848 566.239 475.155 567.609C477.847 570.438 479.351 574.204 479.353 578.122C479.353 590.853 420.862 640.22 367.226 640.22C313.589 640.22 250.413 592.433 250.413 578.122C250.399 574.196 251.9 570.418 254.599 567.585C255.904 566.209 257.471 565.113 259.206 564.362C260.942 563.61 262.809 563.218 264.698 563.21L465.056 563.271Z" fill="#F2F4FA"/>
<path d="M295.24 454.624L297.941 457.76L219.568 531.609C216.372 534.654 212.593 537.012 208.463 538.539C204.333 540.066 199.937 540.73 195.543 540.491C191.149 540.251 186.85 539.113 182.908 537.146C178.965 535.178 175.462 532.423 172.611 529.048L169.91 525.887L248.296 452.038C251.491 448.992 255.269 446.634 259.399 445.107C263.529 443.58 267.925 442.917 272.318 443.158C276.711 443.398 281.009 444.538 284.95 446.507C288.891 448.477 292.393 451.234 295.24 454.611V454.624Z" fill="#F2F4FA"/>
<path d="M281.781 446.71C249.183 475.578 215.246 505.12 186.177 538.681C180.215 536.61 174.143 531.206 169.641 525.962L244.899 454.675C249.76 450.056 255.781 446.861 262.312 445.436C268.794 444.039 275.533 444.48 281.781 446.71V446.71Z" fill="#B8C3FD"/>
<path d="M454.665 414.299C451.34 412.264 447.517 411.203 443.627 411.235C439.736 411.268 435.932 412.392 432.641 414.482C387.619 442.872 344.971 439.834 292.624 413.539C267.351 400.833 224.374 511.391 224.374 538.519C227.355 642.068 505.454 635.317 505.454 538.519C505.369 538.507 496.62 440.03 454.665 414.299Z" fill="#F2F4FA"/>
<path d="M394.664 558.445C374.586 548.642 354.509 548.642 334.432 558.445C330.239 558.477 326.204 556.832 323.215 553.87C320.226 550.909 318.528 546.873 318.492 542.65V482.917C318.503 480.823 318.925 478.75 319.732 476.82C320.54 474.889 321.718 473.138 323.198 471.666C324.679 470.194 326.433 469.031 328.361 468.243C330.289 467.456 332.352 467.058 334.432 467.074H394.664C398.857 467.042 402.891 468.687 405.88 471.649C408.869 474.61 410.568 478.646 410.604 482.868V542.602C410.592 544.696 410.171 546.769 409.364 548.699C408.556 550.63 407.378 552.381 405.898 553.853C404.417 555.325 402.662 556.488 400.735 557.276C398.807 558.063 396.744 558.461 394.664 558.445V558.445Z" fill="#F1F3FF" stroke="#C7C9F4" stroke-width="5" stroke-miterlimit="10"/>
<path d="M326.718 482.109H326.279C326.048 482.107 325.818 482.151 325.603 482.239C325.389 482.327 325.193 482.457 325.028 482.62C324.863 482.784 324.732 482.979 324.642 483.194C324.552 483.409 324.505 483.64 324.503 483.873V504.887C324.503 505.121 324.549 505.352 324.639 505.568C324.728 505.783 324.859 505.979 325.025 506.143C325.19 506.307 325.386 506.437 325.601 506.524C325.817 506.611 326.047 506.655 326.279 506.651H326.718C326.95 506.655 327.181 506.611 327.397 506.524C327.613 506.437 327.81 506.308 327.977 506.144C328.143 505.98 328.275 505.784 328.366 505.569C328.457 505.353 328.505 505.121 328.506 504.887V483.873C328.5 483.401 328.308 482.95 327.973 482.62C327.638 482.289 327.187 482.105 326.718 482.109V482.109Z" fill="#DCE1FE"/>
<path d="M326.718 509.371H326.279C325.808 509.371 325.356 509.559 325.023 509.895C324.69 510.23 324.503 510.685 324.503 511.16V518.511C324.503 518.746 324.549 518.978 324.638 519.194C324.728 519.41 324.859 519.607 325.024 519.772C325.189 519.937 325.385 520.068 325.601 520.156C325.816 520.245 326.047 520.29 326.279 520.288H326.718C327.185 520.291 327.634 520.109 327.969 519.781C328.304 519.453 328.497 519.006 328.506 518.536V511.184C328.51 510.946 328.466 510.71 328.377 510.489C328.288 510.268 328.157 510.068 327.99 509.899C327.824 509.73 327.625 509.596 327.407 509.506C327.188 509.415 326.954 509.369 326.718 509.371Z" fill="#DCE1FE"/>
<path d="M401.114 521.646H400.737C400.305 521.692 399.909 521.907 399.631 522.243C399.354 522.579 399.218 523.011 399.252 523.447V545.049C399.218 545.485 399.354 545.917 399.631 546.253C399.909 546.589 400.305 546.804 400.737 546.85H401.114C401.545 546.804 401.942 546.589 402.219 546.253C402.496 545.917 402.632 545.485 402.598 545.049V523.435C402.629 523.001 402.492 522.572 402.215 522.239C401.938 521.905 401.543 521.692 401.114 521.646V521.646Z" fill="#DCE1FE"/>
<path d="M401.114 507.323H400.737C400.306 507.366 399.91 507.578 399.632 507.912C399.355 508.247 399.218 508.677 399.252 509.112V516.463C399.218 516.896 399.355 517.326 399.633 517.658C399.911 517.991 400.307 518.2 400.737 518.24H401.114C401.543 518.2 401.94 517.991 402.218 517.658C402.495 517.326 402.632 516.896 402.598 516.463V509.112C402.632 508.677 402.496 508.247 402.219 507.912C401.941 507.578 401.544 507.366 401.114 507.323V507.323Z" fill="#DCE1FE"/>
<path d="M224.374 538.68C224.374 511.54 267.424 400.896 292.722 413.614C305.826 420.341 321.827 426.664 327.668 428.134C330.418 428.833 298.221 429.739 273.216 455.703C245.412 484.534 224.374 538.68 224.374 538.68Z" fill="#B8C3FD"/>
<path d="M327.838 632.733C335.382 655.732 361.908 667.213 382.594 656.81C360.57 656.528 341.478 650.243 327.838 632.733Z" fill="#B1B9E4"/>
<path d="M396.647 635.918C352.708 650.879 279.481 624.891 256.472 589.112C311.568 634.227 397.146 637.217 396.647 635.918Z" fill="#B1B9E4"/>
<path d="M185.654 538.237C185.654 538.237 205.257 545.405 219.031 531.18C208.796 536.674 197.22 539.122 185.654 538.237V538.237Z" fill="#B8C3FD"/>
<path d="M384.575 511.416H365.885V530.506H384.575V511.416Z" fill="#FCB614"/>
<path d="M365.886 511.416H347.854V530.506H365.886V511.416Z" fill="#EF4E63"/>
<path d="M365.886 491.651H347.854V511.415H365.886V491.651Z" fill="#63CCF5"/>
<path d="M323.883 399.682H322.423C320.815 399.718 319.287 400.392 318.172 401.559C317.058 402.725 316.446 404.288 316.472 405.907V415.28C316.45 416.897 317.062 418.457 318.177 419.621C319.291 420.784 320.818 421.457 322.423 421.493H323.871C325.476 421.457 327.002 420.784 328.116 419.621C329.231 418.457 329.844 416.897 329.821 415.28V405.907C329.847 404.29 329.237 402.729 328.125 401.563C327.013 400.397 325.488 399.721 323.883 399.682V399.682Z" fill="#F2F4FA"/>
<path d="M408.657 400.331H407.209C405.603 400.367 404.077 401.039 402.963 402.203C401.848 403.367 401.236 404.927 401.258 406.543V415.929C401.236 417.546 401.848 419.106 402.963 420.269C404.077 421.433 405.603 422.106 407.209 422.141H408.657C410.262 422.106 411.788 421.433 412.902 420.269C414.017 419.106 414.63 417.546 414.607 415.929V406.543C414.63 404.927 414.017 403.367 412.902 402.203C411.788 401.039 410.262 400.367 408.657 400.331V400.331Z" fill="#F2F4FA"/>
<path d="M414.592 409.877V417.707C414.63 418.291 414.555 418.878 414.373 419.434C414.182 419.98 413.889 420.483 413.509 420.917C413.141 421.326 412.688 421.648 412.183 421.86C411.693 422.076 411.158 422.169 410.625 422.13H406.598C410.698 420.843 413.229 416.506 414.592 409.877Z" fill="#B8C3FD"/>
<path d="M316.494 408.517V416.836C316.459 417.44 316.529 418.046 316.701 418.625C316.88 419.192 317.169 419.717 317.553 420.169C317.915 420.606 318.368 420.957 318.879 421.199C319.373 421.432 319.916 421.541 320.461 421.517H324.501C320.425 420.133 317.845 415.476 316.494 408.517Z" fill="#B1B9E4"/>
<path d="M272.923 310.579H457.486C460.342 310.551 463.174 311.092 465.822 312.169C468.469 313.246 470.879 314.839 472.914 316.856C474.949 318.873 476.568 321.275 477.679 323.923C478.79 326.572 479.371 329.416 479.389 332.291V333.908C479.365 336.779 478.779 339.618 477.665 342.261C476.551 344.904 474.931 347.3 472.897 349.311C470.863 351.323 468.455 352.912 465.81 353.986C463.166 355.06 460.338 355.599 457.486 355.571H272.923C270.071 355.599 267.241 355.06 264.596 353.985C261.951 352.91 259.542 351.32 257.508 349.307C255.474 347.294 253.854 344.896 252.74 342.252C251.627 339.608 251.043 336.768 251.021 333.896V332.291C251.038 329.416 251.619 326.572 252.73 323.923C253.841 321.275 255.46 318.873 257.495 316.856C259.53 314.839 261.94 313.246 264.588 312.169C267.235 311.092 270.068 310.551 272.923 310.579V310.579Z" fill="#B8C3FD"/>
<path d="M366.227 410.709C353.682 410.709 289.569 409.484 271.779 372.161C270.395 369.047 269.725 365.659 269.82 362.249V302.883C269.725 299.473 270.395 296.085 271.779 292.971C290.031 254.631 357.6 254.717 365.801 254.717C374.221 254.717 441.242 254.815 459.434 292.971C460.824 296.083 461.493 299.472 461.393 302.883V362.322C461.493 365.733 460.824 369.123 459.434 372.235C442.082 408.553 380.743 410.709 366.227 410.709Z" fill="#F2F4FA"/>
<path d="M365.729 390.995C355.24 390.995 301.604 390.101 286.747 362.544C285.605 360.268 285.044 357.741 285.117 355.192V311.462C285.046 308.913 285.607 306.387 286.747 304.11C302.042 275.818 358.538 275.928 365.376 275.928C372.215 275.928 428.467 275.989 443.677 304.11C444.823 306.385 445.383 308.912 445.308 311.462V355.18C445.385 357.73 444.824 360.258 443.677 362.532C429.21 389.366 377.922 390.971 365.729 390.995Z" fill="#FFFFFD"/>
<path d="M414.133 253.075C412.357 249.485 408.402 247.586 404.326 246.52H326.78C322.691 247.586 318.737 249.485 316.96 253.075C310.17 266.774 334.677 305.762 365.547 305.762C396.417 305.762 420.984 266.774 414.133 253.075Z" fill="#B8C3FD"/>
<path d="M344.324 320.784H345.541C346.429 320.778 347.31 320.948 348.133 321.284C348.957 321.621 349.706 322.117 350.339 322.745C350.971 323.373 351.475 324.121 351.821 324.945C352.167 325.769 352.348 326.653 352.355 327.548V345.646C352.338 347.45 351.612 349.175 350.334 350.441C349.057 351.706 347.333 352.41 345.541 352.397H344.324C343.436 352.405 342.555 352.237 341.732 351.902C340.909 351.566 340.159 351.071 339.526 350.444C338.893 349.817 338.39 349.07 338.044 348.247C337.697 347.424 337.516 346.54 337.51 345.646V327.548C337.515 326.653 337.695 325.767 338.04 324.943C338.385 324.118 338.889 323.37 339.522 322.741C340.155 322.113 340.905 321.617 341.729 321.281C342.553 320.945 343.435 320.776 344.324 320.784V320.784Z" fill="#231F20"/>
<path d="M384.004 320.784H385.221C386.11 320.778 386.991 320.948 387.814 321.284C388.637 321.62 389.387 322.117 390.019 322.745C390.652 323.373 391.156 324.12 391.502 324.944C391.848 325.769 392.029 326.653 392.035 327.548V345.645C392.019 347.45 391.293 349.175 390.015 350.44C388.738 351.706 387.013 352.41 385.221 352.397H384.004C382.212 352.41 380.488 351.706 379.211 350.44C377.933 349.175 377.207 347.45 377.19 345.645V327.548C377.197 326.653 377.378 325.769 377.724 324.944C378.07 324.12 378.574 323.373 379.206 322.745C379.839 322.117 380.588 321.62 381.412 321.284C382.235 320.948 383.116 320.778 384.004 320.784V320.784Z" fill="#231F20"/>
<path d="M385.991 406.749L388.852 403.801L470.131 476.034C473.467 478.965 476.179 482.529 478.109 486.514C480.038 490.5 481.146 494.827 481.367 499.242C481.561 503.621 480.855 507.992 479.292 512.089C477.73 516.185 475.342 519.92 472.277 523.068L469.416 526.016L388.136 453.782C384.801 450.851 382.089 447.288 380.159 443.302C378.229 439.317 377.122 434.989 376.901 430.575C376.707 426.195 377.412 421.824 378.975 417.728C380.538 413.632 382.925 409.896 385.991 406.749V406.749Z" fill="#F2F4FA"/>
<path d="M377.066 417.06C370.44 429.796 374.824 442.649 385.831 452.423L462.53 520.591L463.395 519.662C468.631 513.885 369.987 439.69 377.066 417.06Z" fill="#B8C3FD"/>
<path d="M406.262 364.377H325.137V379.684H406.262V364.377Z" fill="#D9D9D9"/>
<path d="M338.913 368.969V375.092H345.036V368.969" stroke="#929292"/>
<path d="M352.688 368.969V375.092H360.342V368.969" stroke="#929292"/>
<path d="M367.995 368.969V375.092H375.648V368.969" stroke="#929292"/>
<path d="M383.303 368.969V375.092H389.425V368.969" stroke="#929292"/>
<path d="M352.688 375.092V368.969H345.035V375.092" stroke="#929292"/>
<path d="M338.913 375.092V368.969H331.26V375.092" stroke="#929292"/>
<path d="M367.995 375.092V368.969H360.342V375.092" stroke="#929292"/>
<path d="M383.303 375.092V368.969H375.649V375.092" stroke="#929292"/>
<path d="M389.425 368.873L401.67 367.438V375.092L389.425 374.135V368.873Z" fill="#929292"/>
<rect x="392.486" y="370.5" width="7.65336" height="1.53067" fill="#C8C8C8"/>
<path d="M259 247.5C259 294.72 217.362 333 166 333C114.638 333 73 294.72 73 247.5C73 200.28 114.638 162 166 162C217.362 162 259 200.28 259 247.5Z" fill="#FEDF68"/>
<path d="M650 451C650 486.346 618.884 515 580.5 515C542.116 515 511 486.346 511 451C511 415.654 542.116 387 580.5 387C618.884 387 650 415.654 650 451Z" fill="#F3748A"/>
<path fill-rule="evenodd" clip-rule="evenodd" d="M151.071 237.677C150.71 234.054 151.048 229.32 152.886 225.497C153.887 223.414 155.27 221.728 157.1 220.555C158.902 219.399 161.427 218.552 165.081 218.552C168.733 218.552 171.322 219.399 173.215 220.583C175.137 221.785 176.611 223.507 177.706 225.613C179.682 229.412 180.214 234.081 180.02 237.677H151.071ZM141.977 239.609C141.336 234.905 141.531 228.025 144.414 222.029C145.946 218.842 148.3 215.783 151.812 213.532C155.352 211.261 159.776 210 165.081 210C170.388 210 174.831 211.262 178.415 213.504C181.969 215.727 184.417 218.749 186.062 221.913C189.212 227.972 189.647 234.961 189.152 239.682C193.263 242.039 196 246.244 196 251.04V267.637C196 275.017 189.517 281 181.519 281H149.481C141.483 281 135 275.017 135 267.637V251.04C135 246.195 137.794 241.952 141.977 239.609Z" fill="#F9F7F2"/>
<g clip-path="url(#clip0)">
<path d="M576.747 445.269C569.268 442.21 560.36 444.008 554.688 450.39C547.494 458.483 548.225 470.906 556.318 478.1C564.411 485.294 576.834 484.563 584.028 476.47C589.7 470.089 590.442 461.031 586.527 453.962L595.981 443.326L605.762 452.02L614.455 442.24L604.675 433.546L609.022 428.656L599.242 419.963L576.747 445.269ZM574.248 467.777C571.857 470.466 567.701 470.711 565.011 468.32C562.322 465.929 562.077 461.773 564.468 459.083C566.858 456.394 571.015 456.149 573.705 458.54C576.394 460.931 576.639 465.087 574.248 467.777Z" fill="#F9F7F2"/>
</g>
<path fill-rule="evenodd" clip-rule="evenodd" d="M603 182C608.523 182 613 186.477 613 192V246C613 251.523 608.523 256 603 256H534.888L503.467 269.885C497.978 272.31 491.694 269.891 493.237 265.946L502 243.555V192C502 186.477 506.477 182 512 182H603Z" fill="#4E6AFA"/>
<circle cx="537" cy="220" r="6" fill="white"/>
<circle cx="581" cy="220" r="6" fill="white"/>
<circle cx="559.286" cy="220" r="6" fill="white"/>
<defs>
<clipPath id="clip0">
<rect width="78.5122" height="78.5122" fill="white" transform="translate(524.804 454.465) rotate(-48.3665)"/>
</clipPath>
</defs>
</svg>
