<svg width="740" height="652" viewBox="0 0 740 652" fill="none" xmlns="http://www.w3.org/2000/svg">
<path fill-rule="evenodd" clip-rule="evenodd" d="M243.385 84.673C300.585 60.8118 353.956 133.672 414.378 147.458C442.094 153.782 469.697 138.448 497.803 142.721C531.543 147.852 562.428 159.259 592.91 174.604C645.285 200.971 738.033 205.988 739.896 264.597C741.798 324.434 626.396 316.895 599.127 370.195C570.485 426.178 641.461 516.81 591.393 554.859C544.945 590.158 479.223 529.31 429.165 499.36C394.652 478.711 373.695 443.931 350.766 410.889C334.315 387.183 332.769 356.574 314.55 334.198C282.951 295.385 220.52 282.184 206.792 234.052C192.442 183.736 195.092 104.818 243.385 84.673Z" fill="#F5A64A"/>
<path fill-rule="evenodd" clip-rule="evenodd" d="M179.046 275.617C200.462 279.192 214.591 300.722 235.964 304.546C265 309.742 303.17 279.049 322.583 301.302C341.308 322.767 309.366 354.984 304.443 383.044C300.987 402.743 304.719 422.648 297.991 441.477C290.371 462.805 282.058 485.634 263.278 498.25C243.954 511.232 218.331 516.296 195.897 510.063C174.556 504.135 167.622 475.969 147.756 466.158C120.632 452.762 75.412 470.815 61.7273 443.801C48.7222 418.129 91.9688 395.486 97.6674 367.283C103.486 338.484 75.1425 302.909 94.6309 280.957C113.747 259.424 150.655 270.879 179.046 275.617Z" fill="#64C0C1"/>
<path d="M396.269 621.228C457.087 621.228 506.389 616.565 506.389 610.813C506.389 605.061 457.087 600.398 396.269 600.398C335.452 600.398 286.149 605.061 286.149 610.813C286.149 616.565 335.452 621.228 396.269 621.228Z" fill="#FEECA4"/>
<path d="M393.228 574.669C415.897 574.669 434.283 555.444 434.283 531.784C434.283 508.123 415.897 488.898 393.228 488.898C370.559 488.898 352.173 508.123 352.173 531.784C352.173 555.444 370.547 574.669 393.228 574.669Z" fill="#F2F4FA"/>
<path d="M492.057 477.27C493.944 477.272 495.811 477.657 497.546 478.402C499.281 479.147 500.849 480.238 502.156 481.608C504.848 484.437 506.352 488.203 506.354 492.121C506.354 504.852 447.863 554.219 394.227 554.219C340.59 554.219 277.414 506.432 277.414 492.121C277.4 488.195 278.901 484.417 281.6 481.583C282.905 480.208 284.472 479.112 286.207 478.36C287.943 477.609 289.81 477.217 291.699 477.209L492.057 477.27Z" fill="#F2F4FA"/>
<path d="M322.24 368.624L324.941 371.76L246.568 445.609C243.372 448.654 239.593 451.012 235.463 452.539C231.333 454.066 226.937 454.73 222.543 454.491C218.149 454.251 213.85 453.113 209.908 451.146C205.965 449.178 202.462 446.423 199.611 443.048L196.91 439.887L275.296 366.038C278.491 362.992 282.269 360.634 286.399 359.107C290.529 357.58 294.925 356.917 299.318 357.158C303.711 357.398 308.009 358.538 311.95 360.507C315.891 362.477 319.393 365.234 322.24 368.611V368.624Z" fill="#F2F4FA"/>
<path d="M308.781 360.71C276.183 389.578 242.247 419.119 213.177 452.68C207.215 450.609 201.143 445.206 196.641 439.962L271.9 368.674C276.76 364.056 282.781 360.861 289.312 359.435C295.794 358.039 302.533 358.48 308.781 360.71Z" fill="#B8C3FD"/>
<path d="M481.665 328.299C478.341 326.264 474.518 325.203 470.627 325.235C466.737 325.268 462.932 326.392 459.641 328.482C414.62 356.872 371.971 353.834 319.625 327.539C294.352 314.833 251.375 425.391 251.375 452.519C254.356 556.068 532.454 549.317 532.454 452.519C532.369 452.507 523.62 354.03 481.665 328.299Z" fill="#F2F4FA"/>
<path d="M421.665 472.445C401.587 462.642 381.51 462.642 361.433 472.445C357.24 472.477 353.205 470.832 350.216 467.87C347.227 464.909 345.529 460.873 345.493 456.651V396.918C345.504 394.823 345.926 392.751 346.733 390.82C347.541 388.889 348.719 387.138 350.199 385.666C351.68 384.195 353.434 383.032 355.362 382.244C357.29 381.456 359.353 381.059 361.433 381.075H421.665C425.858 381.042 429.892 382.687 432.881 385.649C435.87 388.611 437.569 392.646 437.605 396.869V456.602C437.593 458.697 437.172 460.769 436.365 462.699C435.557 464.63 434.379 466.381 432.898 467.853C431.418 469.325 429.663 470.488 427.736 471.276C425.808 472.064 423.745 472.461 421.665 472.445Z" fill="#F1F3FF" stroke="#C7C9F4" stroke-width="5" stroke-miterlimit="10"/>
<path d="M353.718 396.107H353.28C353.048 396.106 352.818 396.15 352.604 396.238C352.389 396.326 352.194 396.455 352.029 396.619C351.864 396.783 351.733 396.978 351.642 397.193C351.552 397.408 351.505 397.639 351.503 397.872V418.886C351.503 419.119 351.549 419.351 351.639 419.567C351.729 419.782 351.86 419.978 352.025 420.142C352.19 420.306 352.387 420.436 352.602 420.523C352.817 420.61 353.048 420.653 353.28 420.65H353.718C353.951 420.653 354.182 420.61 354.398 420.523C354.614 420.436 354.811 420.307 354.977 420.143C355.143 419.979 355.276 419.783 355.367 419.568C355.458 419.352 355.505 419.12 355.507 418.886V397.872C355.5 397.4 355.309 396.949 354.974 396.618C354.638 396.288 354.187 396.104 353.718 396.107Z" fill="#DCE1FE"/>
<path d="M353.718 423.371H353.28C352.809 423.371 352.357 423.56 352.024 423.895C351.691 424.231 351.503 424.686 351.503 425.16V432.512C351.503 432.746 351.549 432.978 351.639 433.195C351.728 433.411 351.859 433.607 352.024 433.772C352.19 433.938 352.386 434.068 352.601 434.157C352.817 434.245 353.047 434.29 353.28 434.289H353.718C354.185 434.292 354.635 434.11 354.969 433.782C355.304 433.454 355.497 433.007 355.507 432.536V425.185C355.51 424.947 355.466 424.71 355.377 424.49C355.289 424.269 355.157 424.068 354.991 423.899C354.824 423.73 354.626 423.597 354.407 423.506C354.189 423.415 353.954 423.369 353.718 423.371Z" fill="#DCE1FE"/>
<path d="M428.115 435.646H427.738C427.306 435.693 426.909 435.907 426.632 436.244C426.355 436.58 426.219 437.012 426.253 437.448V459.05C426.219 459.485 426.355 459.917 426.632 460.254C426.909 460.59 427.306 460.804 427.738 460.851H428.115C428.546 460.804 428.943 460.59 429.22 460.254C429.497 459.917 429.633 459.485 429.599 459.05V437.435C429.63 437.002 429.493 436.573 429.216 436.239C428.939 435.905 428.544 435.693 428.115 435.646Z" fill="#DCE1FE"/>
<path d="M428.115 421.322H427.738C427.307 421.366 426.911 421.577 426.633 421.912C426.356 422.246 426.219 422.677 426.253 423.111V430.463C426.219 430.896 426.356 431.325 426.634 431.658C426.912 431.99 427.308 432.199 427.738 432.24H428.115C428.544 432.199 428.941 431.99 429.219 431.658C429.496 431.325 429.633 430.896 429.599 430.463V423.111C429.633 422.677 429.497 422.246 429.219 421.912C428.942 421.577 428.545 421.366 428.115 421.322Z" fill="#DCE1FE"/>
<path d="M251.375 452.679C251.375 425.539 294.425 314.895 319.722 327.613C332.827 334.34 348.828 340.663 354.668 342.133C357.418 342.832 325.222 343.738 300.217 369.702C272.413 398.533 251.375 452.679 251.375 452.679Z" fill="#B8C3FD"/>
<path d="M354.838 546.732C362.382 569.731 388.909 581.212 409.594 570.809C387.57 570.528 368.479 564.242 354.838 546.732Z" fill="#B1B9E4"/>
<path d="M423.647 549.918C379.709 564.878 306.482 538.89 283.472 503.111C338.569 548.227 424.146 551.216 423.647 549.918Z" fill="#B1B9E4"/>
<path d="M212.655 452.237C212.655 452.237 232.258 459.405 246.032 445.18C235.797 450.674 224.22 453.122 212.655 452.237Z" fill="#B8C3FD"/>
<path d="M411.576 425.416H392.886V444.506H411.576V425.416Z" fill="#FCB614"/>
<path d="M392.886 425.416H374.854V444.506H392.886V425.416Z" fill="#EF4E63"/>
<path d="M392.886 405.65H374.854V425.414H392.886V405.65Z" fill="#63CCF5"/>
<path d="M350.883 313.682H349.423C347.816 313.717 346.288 314.392 345.173 315.558C344.058 316.724 343.447 318.287 343.473 319.906V329.28C343.45 330.896 344.063 332.456 345.177 333.62C346.292 334.784 347.818 335.456 349.423 335.492H350.871C352.476 335.456 354.002 334.784 355.117 333.62C356.231 332.456 356.844 330.896 356.821 329.28V319.906C356.847 318.29 356.238 316.728 355.126 315.562C354.013 314.396 352.488 313.72 350.883 313.682Z" fill="#F2F4FA"/>
<path d="M435.657 314.33H434.209C432.604 314.365 431.078 315.038 429.963 316.202C428.849 317.366 428.236 318.926 428.259 320.542V329.928C428.236 331.545 428.849 333.105 429.963 334.268C431.078 335.432 432.604 336.105 434.209 336.14H435.657C437.262 336.105 438.788 335.432 439.903 334.268C441.017 333.105 441.63 331.545 441.607 329.928V320.542C441.63 318.926 441.017 317.366 439.903 316.202C438.788 315.038 437.262 314.365 435.657 314.33Z" fill="#F2F4FA"/>
<path d="M441.592 323.877V331.707C441.63 332.291 441.555 332.878 441.373 333.434C441.182 333.98 440.889 334.483 440.509 334.917C440.141 335.326 439.688 335.648 439.183 335.86C438.693 336.076 438.158 336.169 437.625 336.13H433.598C437.698 334.843 440.229 330.506 441.592 323.877Z" fill="#B8C3FD"/>
<path d="M343.494 322.516V330.835C343.459 331.439 343.529 332.045 343.701 332.624C343.88 333.191 344.169 333.716 344.553 334.168C344.915 334.605 345.368 334.956 345.879 335.197C346.373 335.431 346.916 335.54 347.461 335.516H351.501C347.425 334.131 344.845 329.475 343.494 322.516Z" fill="#B1B9E4"/>
<path d="M299.923 224.579H484.487C487.342 224.552 490.175 225.092 492.822 226.169C495.469 227.246 497.88 228.839 499.914 230.856C501.949 232.873 503.569 235.275 504.68 237.924C505.791 240.573 506.372 243.416 506.389 246.291V247.909C506.365 250.78 505.78 253.618 504.666 256.261C503.552 258.904 501.931 261.3 499.897 263.312C497.863 265.324 495.455 266.912 492.811 267.986C490.167 269.061 487.338 269.599 484.487 269.572H299.923C297.071 269.599 294.242 269.06 291.597 267.985C288.952 266.91 286.543 265.321 284.509 263.308C282.474 261.294 280.854 258.897 279.741 256.253C278.628 253.608 278.043 250.769 278.021 247.896V246.291C278.038 243.416 278.619 240.573 279.73 237.924C280.842 235.275 282.461 232.873 284.496 230.856C286.531 228.839 288.941 227.246 291.588 226.169C294.236 225.092 297.068 224.552 299.923 224.579Z" fill="#B8C3FD"/>
<path d="M393.228 324.709C380.682 324.709 316.569 323.484 298.78 286.161C297.396 283.047 296.726 279.659 296.821 276.249V216.883C296.726 213.473 297.396 210.084 298.78 206.97C317.032 168.631 384.6 168.717 392.802 168.717C401.222 168.717 468.243 168.815 486.434 206.97C487.824 210.083 488.494 213.472 488.393 216.883V276.322C488.494 279.733 487.824 283.122 486.434 286.235C469.083 322.552 407.744 324.709 393.228 324.709Z" fill="#F2F4FA"/>
<path d="M392.73 304.995C382.241 304.995 328.605 304.101 313.748 276.544C312.606 274.268 312.045 271.741 312.118 269.192V225.461C312.047 222.912 312.608 220.386 313.748 218.109C329.043 189.817 385.539 189.928 392.377 189.928C399.216 189.928 455.468 189.989 470.678 218.109C471.823 220.384 472.384 222.912 472.309 225.461V269.18C472.386 271.729 471.825 274.257 470.678 276.531C456.211 303.365 404.923 304.97 392.73 304.995Z" fill="#FFFFFD"/>
<path d="M441.134 167.075C439.357 163.485 435.403 161.586 431.326 160.52H353.78C349.692 161.586 345.737 163.485 343.961 167.075C337.171 180.774 361.677 219.762 392.547 219.762C423.417 219.762 447.984 180.774 441.134 167.075Z" fill="#B8C3FD"/>
<path d="M371.324 234.783H372.541C373.429 234.777 374.31 234.947 375.133 235.283C375.957 235.62 376.706 236.116 377.339 236.744C377.971 237.372 378.475 238.12 378.821 238.944C379.167 239.768 379.348 240.652 379.355 241.547V259.645C379.338 261.449 378.612 263.174 377.334 264.44C376.057 265.705 374.333 266.409 372.541 266.396H371.324C370.436 266.404 369.555 266.236 368.732 265.901C367.909 265.566 367.159 265.07 366.526 264.443C365.893 263.816 365.39 263.07 365.044 262.246C364.697 261.423 364.516 260.539 364.51 259.645V241.547C364.515 240.652 364.695 239.767 365.04 238.942C365.385 238.117 365.889 237.369 366.522 236.741C367.155 236.112 367.905 235.616 368.729 235.28C369.553 234.944 370.435 234.775 371.324 234.783Z" fill="#231F20"/>
<path d="M411.004 234.783H412.221C413.11 234.777 413.991 234.947 414.814 235.283C415.637 235.62 416.387 236.116 417.019 236.744C417.652 237.372 418.156 238.12 418.502 238.944C418.848 239.768 419.029 240.652 419.035 241.547V259.645C419.019 261.449 418.293 263.174 417.015 264.44C415.738 265.705 414.013 266.409 412.221 266.396H411.004C409.212 266.409 407.488 265.705 406.211 264.44C404.933 263.174 404.207 261.449 404.19 259.645V241.547C404.197 240.652 404.378 239.768 404.724 238.944C405.07 238.12 405.574 237.372 406.206 236.744C406.839 236.116 407.588 235.62 408.412 235.283C409.235 234.947 410.116 234.777 411.004 234.783Z" fill="#231F20"/>
<path d="M412.992 320.748L415.853 317.8L497.132 390.034C500.468 392.965 503.18 396.528 505.11 400.514C507.039 404.499 508.147 408.827 508.368 413.241C508.562 417.62 507.856 421.992 506.293 426.088C504.731 430.184 502.343 433.92 499.278 437.067L496.416 440.015L415.137 367.782C411.802 364.851 409.09 361.287 407.16 357.301C405.23 353.316 404.123 348.988 403.902 344.574C403.708 340.195 404.413 335.824 405.976 331.727C407.539 327.631 409.926 323.895 412.992 320.748Z" fill="#F2F4FA"/>
<path d="M404.067 331.06C397.441 343.796 401.825 356.649 412.832 366.423L489.531 434.591L490.396 433.662C495.632 427.885 396.988 353.69 404.067 331.06Z" fill="#B8C3FD"/>
<path d="M433.263 278.377H352.137V293.684H433.263V278.377Z" fill="#D9D9D9"/>
<path d="M365.913 282.969V289.091H372.036V282.969" stroke="#929292"/>
<path d="M379.689 282.969V289.091H387.343V282.969" stroke="#929292"/>
<path d="M394.996 282.969V289.091H402.649V282.969" stroke="#929292"/>
<path d="M410.303 282.969V289.091H416.425V282.969" stroke="#929292"/>
<path d="M379.689 289.092V282.969H372.036V289.092" stroke="#929292"/>
<path d="M365.913 289.092V282.969H358.26V289.092" stroke="#929292"/>
<path d="M394.996 289.092V282.969H387.343V289.092" stroke="#929292"/>
<path d="M410.303 289.092V282.969H402.649V289.092" stroke="#929292"/>
<path d="M416.425 282.873L428.671 281.438V289.091L416.425 288.134V282.873Z" fill="#929292"/>
<rect x="419.487" y="284.5" width="7.65336" height="1.53067" fill="#C8C8C8"/>
<path d="M286 161.5C286 208.72 244.362 247 193 247C141.638 247 100 208.72 100 161.5C100 114.28 141.638 76 193 76C244.362 76 286 114.28 286 161.5Z" fill="#FEDF68"/>
<path d="M677 365C677 400.346 645.884 429 607.5 429C569.116 429 538 400.346 538 365C538 329.654 569.116 301 607.5 301C645.884 301 677 329.654 677 365Z" fill="#F3748A"/>
<path fill-rule="evenodd" clip-rule="evenodd" d="M178.071 151.677C177.71 148.054 178.048 143.32 179.886 139.497C180.887 137.414 182.27 135.728 184.1 134.555C185.902 133.399 188.427 132.552 192.081 132.552C195.733 132.552 198.322 133.399 200.215 134.583C202.137 135.785 203.611 137.507 204.706 139.613C206.682 143.412 207.214 148.081 207.02 151.677H178.071ZM168.977 153.609C168.336 148.905 168.531 142.025 171.414 136.029C172.946 132.842 175.3 129.783 178.812 127.532C182.352 125.261 186.776 124 192.081 124C197.388 124 201.831 125.262 205.415 127.504C208.969 129.727 211.417 132.749 213.062 135.913C216.212 141.972 216.647 148.961 216.152 153.682C220.263 156.039 223 160.244 223 165.04V181.637C223 189.017 216.517 195 208.519 195H176.481C168.483 195 162 189.017 162 181.637V165.04C162 160.195 164.794 155.952 168.977 153.609Z" fill="#F9F7F2"/>
<g clip-path="url(#clip0)">
<path d="M603.747 359.269C596.268 356.21 587.36 358.009 581.688 364.39C574.494 372.483 575.225 384.907 583.318 392.101C591.411 399.295 603.834 398.564 611.028 390.471C616.7 384.089 617.442 375.032 613.527 367.963L622.981 357.327L632.762 366.02L641.455 356.24L631.675 347.547L636.022 342.657L626.242 333.963L603.747 359.269ZM601.248 381.777C598.857 384.467 594.701 384.711 592.011 382.321C589.322 379.93 589.077 375.773 591.468 373.084C593.858 370.394 598.015 370.15 600.705 372.54C603.394 374.931 603.639 379.088 601.248 381.777Z" fill="#F9F7F2"/>
</g>
<path fill-rule="evenodd" clip-rule="evenodd" d="M630 96C635.523 96 640 100.477 640 106V160C640 165.523 635.523 170 630 170H561.888L530.467 183.885C524.978 186.31 518.694 183.891 520.237 179.946L529 157.555V106C529 100.477 533.477 96 539 96H630Z" fill="#4E6AFA"/>
<circle cx="564" cy="134" r="6" fill="white"/>
<circle cx="608" cy="134" r="6" fill="white"/>
<circle cx="586.286" cy="134" r="6" fill="white"/>
<path d="M646.645 474.347C643.301 478.452 639.319 475.821 632.703 470.837L648.944 510.453C652.174 507.193 659.355 512.667 665.79 517.157C659.317 508.17 651.943 489.642 646.645 474.347Z" fill="#9ECFC0"/>
<path d="M264.409 1.33837C262.019 6.06279 257.567 4.34338 250.039 0.887335L274.366 36.12C276.826 32.2451 285.01 36.0594 292.255 39.0713C284.013 31.6747 272.851 15.1486 264.409 1.33837Z" fill="#9ECFC0"/>
<path d="M246.146 564.737C241.066 563.247 241.946 558.556 243.974 550.525L213.758 580.859C218.016 582.572 215.755 591.314 214.112 598.986C219.885 589.536 234.104 575.552 246.146 564.737Z" fill="#9ECFC0"/>
<path d="M81.9029 491.055C81.5501 495.822 78.9374 499.531 74.6176 501.398C82.5412 504.845 105.74 527.376 107.044 531.923C109.513 525.338 111.416 523.584 115.942 522.61C113.845 517.291 87.7227 494.407 81.9029 491.055Z" fill="#FAC7D0"/>
<path d="M538.903 6.05504C538.55 10.8224 535.937 14.5314 531.618 16.3976C539.541 19.8446 562.74 42.3756 564.044 46.9231C566.513 40.3376 568.416 38.5835 572.942 37.6097C570.845 32.2907 544.723 9.40747 538.903 6.05504Z" fill="#FAC7D0"/>
<path d="M132.322 30.8936C127.548 31.1364 123.543 29.0052 121.154 24.9509C118.719 33.2416 99.2476 59.0617 94.8976 60.9218C101.739 62.5521 103.716 64.2226 105.245 68.5925C110.262 65.8504 129.719 37.085 132.322 30.8936Z" fill="#FAC7D0"/>
<path d="M734.487 335.442C726.204 333.033 727.432 331.882 723.407 326.26C715.827 346.469 711.128 356.267 702.717 365.527C709.52 365.209 712.648 368.87 714.029 371.706C718.937 362.214 725.8 344.135 734.487 335.442Z" fill="#B1B9E4"/>
<path d="M429.061 110.638C433.189 103.064 434.051 104.511 440.405 101.784C422.291 90.0478 413.728 83.3571 406.487 73.156C405.339 79.8692 401.093 82.1397 398.027 82.8811C406.245 89.7092 422.432 100.289 429.061 110.638Z" fill="#B1B9E4"/>
<path d="M84.5137 225.222C79.7547 224.77 76.1007 222.081 74.3246 217.723C70.7138 225.574 47.7064 248.3 43.1327 249.51C49.6656 252.114 51.3798 254.054 52.2595 258.599C57.6209 256.613 81.0412 230.971 84.5137 225.222Z" fill="#FEECA4"/>
<path d="M733.514 134.222C728.755 133.77 725.101 131.081 723.325 126.723C719.714 134.574 696.706 157.3 692.133 158.51C698.666 161.114 700.38 163.054 701.259 167.599C706.621 165.613 730.041 139.971 733.514 134.222Z" fill="#FEECA4"/>
<defs>
<clipPath id="clip0">
<rect width="78.5122" height="78.5122" fill="white" transform="translate(551.804 368.465) rotate(-48.3665)"/>
</clipPath>
</defs>
</svg>
