<svg width="189" height="194" viewBox="0 0 189 194" fill="none" xmlns="http://www.w3.org/2000/svg">
<path d="M75.1156 72.6016H73.1823C71.9339 72.6016 70.9219 73.6136 70.9219 74.862V80.4422C70.9219 81.6906 71.9339 82.7026 73.1823 82.7026H75.1156C76.364 82.7026 77.376 81.6906 77.376 80.4422V74.862C77.376 73.6136 76.364 72.6016 75.1156 72.6016Z" fill="#4E6AFA"/>
<path d="M116.135 73.0254H114.202C112.953 73.0254 111.941 74.0374 111.941 75.2858V80.866C111.941 82.1144 112.953 83.1264 114.202 83.1264H116.135C117.383 83.1264 118.396 82.1144 118.396 80.866V75.2858C118.396 74.0374 117.383 73.0254 116.135 73.0254Z" fill="#4E6AFA"/>
<path d="M94.9999 193.129C105.936 193.129 114.802 184.263 114.802 173.327C114.802 162.391 105.936 153.525 94.9999 153.525C84.0638 153.525 75.1982 162.391 75.1982 173.327C75.1982 184.263 84.0638 193.129 94.9999 193.129Z" fill="#4E6AFA"/>
<path d="M76.5605 180.344C80.183 190.87 92.8911 196.118 102.831 191.363C92.2613 191.231 83.0976 188.36 76.5605 180.344Z" fill="#7188FB"/>
<path d="M142.703 148.238C143.611 148.238 144.511 148.417 145.349 148.766C146.188 149.114 146.95 149.624 147.591 150.267C148.233 150.91 148.741 151.674 149.087 152.513C149.432 153.353 149.609 154.253 149.606 155.161C149.606 161.054 121.354 183.916 95.4446 183.916C69.5354 183.916 39.0078 161.752 39.0078 155.161C39.0091 153.33 39.7375 151.574 41.0329 150.279C42.3283 148.985 44.0846 148.258 45.916 148.258L142.703 148.238Z" fill="#B8C3FD"/>
<path d="M58.382 95.5515L61.9957 99.5636L21.5707 135.975C20.3398 137.085 18.9025 137.941 17.3407 138.495C15.779 139.049 14.1234 139.289 12.4685 139.203C10.8137 139.117 9.19204 138.706 7.69619 137.993C6.20035 137.28 4.85963 136.279 3.75062 135.048L0.140162 131.04L40.5725 94.6213C43.0581 92.3842 46.3303 91.2255 49.6698 91.3999C53.0094 91.5744 56.143 93.0676 58.382 95.5515Z" fill="#4E6AFA"/>
<path d="M54.2643 94.541C38.4805 107.806 21.8278 120.621 7.75762 136.068C4.77522 135.089 2.10079 133.347 0 131.015L36.4154 98.2075C38.795 96.0631 41.7038 94.5927 44.8415 93.9481C47.9792 93.3036 51.2321 93.5083 54.2643 94.541Z" fill="#3B50BB"/>
<path d="M137.758 79.4891C136.137 78.5481 134.293 78.0602 132.419 78.0766C130.544 78.0929 128.709 78.6128 127.105 79.5819C105.36 92.7049 84.6846 91.2989 59.3515 79.1376C47.1463 73.2791 26.3193 124.375 26.3193 136.902C27.784 184.747 162.3 181.627 162.3 136.902C162.3 136.902 158.091 91.3819 137.758 79.4891Z" fill="#4E6AFA"/>
<path d="M184.593 58.8826L189 62.0035L157.55 106.405C155.616 109.135 152.677 110.985 149.379 111.548C146.081 112.111 142.694 111.341 139.964 109.408L135.562 106.289L167.011 61.8883C168.944 59.1587 171.883 57.3087 175.18 56.745C178.477 56.1814 181.863 56.9502 184.593 58.8826Z" fill="#4E6AFA"/>
<path d="M108.87 145.988C99.1649 141.464 89.4577 141.464 79.7488 145.988C75.4917 145.988 72.04 142.712 72.04 138.665V111.032C72.04 106.995 75.4917 103.709 79.7488 103.709H108.87C113.128 103.709 116.579 106.985 116.579 111.032V138.674C116.594 142.712 113.128 145.988 108.87 145.988Z" fill="#F1F3FF" stroke="#2C3C8C" stroke-width="5" stroke-miterlimit="10"/>
<path d="M87.8729 112.082H98.8381C98.9798 112.082 99.1196 112.115 99.2462 112.179C99.3728 112.242 99.4826 112.335 99.5667 112.449C99.6508 112.563 99.707 112.695 99.7305 112.835C99.754 112.975 99.7443 113.118 99.7022 113.254L96.8071 122.481C96.7653 122.616 96.7556 122.759 96.7789 122.899C96.8021 123.038 96.8577 123.171 96.9412 123.285C97.0247 123.399 97.1337 123.492 97.2596 123.557C97.3855 123.622 97.5248 123.656 97.6664 123.657H100.347C100.498 123.658 100.647 123.696 100.779 123.768C100.912 123.841 101.024 123.946 101.106 124.073C101.188 124.2 101.236 124.346 101.247 124.497C101.257 124.648 101.23 124.799 101.167 124.937L95.3913 137.488C95.3136 137.656 95.1864 137.796 95.0269 137.889C94.8674 137.982 94.6832 138.024 94.4991 138.009C94.315 137.994 94.1399 137.923 93.9974 137.805C93.8549 137.688 93.7518 137.53 93.7021 137.352L90.5288 125.986C90.4755 125.797 90.3618 125.63 90.205 125.511C90.0481 125.392 89.8566 125.327 89.6597 125.327H87.8729C87.6334 125.327 87.4036 125.232 87.2343 125.063C87.0649 124.893 86.9697 124.663 86.9697 124.424V112.985C86.9697 112.867 86.9931 112.749 87.0385 112.64C87.0839 112.53 87.1504 112.43 87.2343 112.347C87.3181 112.263 87.4177 112.196 87.5273 112.151C87.6369 112.105 87.7543 112.082 87.8729 112.082Z" fill="#4E6AFA"/>
<path d="M89.6542 110.67H100.619C100.761 110.67 100.901 110.703 101.027 110.767C101.154 110.83 101.264 110.923 101.348 111.037C101.432 111.151 101.488 111.283 101.512 111.423C101.535 111.563 101.526 111.706 101.483 111.842L98.5884 121.069C98.5454 121.204 98.5349 121.347 98.5578 121.487C98.5806 121.628 98.6361 121.76 98.7198 121.875C98.8035 121.989 98.913 122.083 99.0394 122.147C99.1659 122.211 99.3057 122.245 99.4476 122.245H102.128C102.279 122.245 102.428 122.284 102.561 122.356C102.693 122.429 102.805 122.534 102.887 122.661C102.969 122.788 103.017 122.934 103.028 123.085C103.038 123.236 103.011 123.387 102.948 123.524L97.1726 136.076C97.0949 136.244 96.9677 136.383 96.8082 136.477C96.6486 136.57 96.4644 136.611 96.2803 136.597C96.0962 136.582 95.9212 136.511 95.7787 136.393C95.6362 136.276 95.5331 136.117 95.4834 135.94L92.31 124.574C92.2558 124.384 92.1412 124.217 91.9835 124.098C91.8258 123.979 91.6336 123.915 91.4361 123.915H89.6542C89.4146 123.915 89.1849 123.82 89.0155 123.65C88.8461 123.481 88.751 123.251 88.751 123.012V111.573C88.751 111.334 88.8461 111.104 89.0155 110.934C89.1849 110.765 89.4146 110.67 89.6542 110.67V110.67Z" stroke="black" stroke-miterlimit="10"/>
<path d="M26.3535 136.868C26.3535 124.331 47.156 73.2299 59.3857 79.0982C65.7324 82.1934 73.4509 85.1276 76.2728 85.8111C77.6056 86.1284 62.0366 86.5531 49.9535 98.5386C36.5278 111.857 26.3535 136.868 26.3535 136.868Z" fill="#3B50BB"/>
<path d="M76.0965 110.67H75.5399C75.184 110.67 74.8955 110.958 74.8955 111.314V121.464C74.8955 121.82 75.184 122.109 75.5399 122.109H76.0965C76.4524 122.109 76.7409 121.82 76.7409 121.464V111.314C76.7409 110.958 76.4524 110.67 76.0965 110.67Z" fill="#DCE1FE"/>
<path d="M76.0965 123.477H75.5399C75.184 123.477 74.8955 123.765 74.8955 124.121V127.861C74.8955 128.217 75.184 128.505 75.5399 128.505H76.0965C76.4524 128.505 76.7409 128.217 76.7409 127.861V124.121C76.7409 123.765 76.4524 123.477 76.0965 123.477Z" fill="#DCE1FE"/>
<path d="M112 129.188H111.443C111.087 129.188 110.799 129.476 110.799 129.832V139.982C110.799 140.338 111.087 140.626 111.443 140.626H112C112.356 140.626 112.644 140.338 112.644 139.982V129.832C112.644 129.476 112.356 129.188 112 129.188Z" fill="#DCE1FE"/>
<path d="M112 122.535H111.443C111.087 122.535 110.799 122.824 110.799 123.18V126.919C110.799 127.275 111.087 127.564 111.443 127.564H112C112.356 127.564 112.644 127.275 112.644 126.919V123.18C112.644 122.824 112.356 122.535 112 122.535Z" fill="#DCE1FE"/>
<path d="M181.779 57.3728C175.267 55.0977 169.389 57.8952 165.405 63.5193L137.621 102.752L138.109 103.093C141.209 105.134 170.473 55.4932 181.779 57.3728Z" fill="#B8C3FD"/>
<path d="M72.4307 82.1398C74.2614 83.6045 77.3127 81.9983 77.3762 79.7769C77.3762 78.8005 77.3762 77.0039 77.3762 77.0039C76.8197 79.7769 75.5308 81.4417 72.4307 82.1398Z" fill="#B8C3FD"/>
<path d="M113.449 82.5803C115.28 84.0449 118.331 82.4387 118.395 80.2222C118.395 79.2458 118.395 77.4492 118.395 77.4492C117.843 80.2222 116.549 81.8724 113.449 82.5803Z" fill="#B8C3FD"/>
<path d="M109.53 181.895C88.3172 188.847 52.9612 176.73 41.8545 160.092C68.4862 181.109 109.798 182.501 109.53 181.895Z" fill="#7188FB"/>
<path d="M82.229 138.709H79.0215V141.946H82.229V138.709Z" fill="#FCB614"/>
<path d="M79.0259 138.709H75.8184V141.946H79.0259V138.709Z" fill="#EF4E63"/>
<path d="M79.0259 135.471H75.8184V138.708H79.0259V135.471Z" fill="#63CCF5"/>
<rect x="39.3486" y="30.3184" width="110.304" height="21.2867" rx="10.6433" fill="#3B50BB"/>
<path d="M94.9601 77.7271C88.9014 77.7476 57.9095 77.1531 49.3246 59.4829C48.613 58.0301 48.3799 56.3998 48.3799 54.7821V26.6712C48.3799 25.0508 48.6119 23.4249 49.3246 21.9698C58.156 3.82814 90.7909 3.86914 94.7547 3.86914C98.8213 3.86914 131.21 3.91014 140 21.9698C140.712 23.4226 140.945 25.0529 140.945 26.6706V54.7815C140.945 56.4019 140.713 58.0278 140 59.4829C131.641 76.6816 102.005 77.7066 94.9601 77.7271Z" fill="#4E6AFA"/>
<path d="M94.749 68.3756C89.6825 68.3908 63.7659 67.952 56.5869 54.9116C55.9965 53.848 55.7969 52.6209 55.7969 51.4044V30.7349C55.7969 29.516 55.9954 28.2931 56.5869 27.2272C63.972 13.8389 91.2625 13.8691 94.5772 13.8691C97.9778 13.8691 125.062 13.8994 132.413 27.2272C133.003 28.2909 133.203 29.518 133.203 30.7345V51.4039C133.203 52.6229 133.005 53.8458 132.413 54.9116C125.423 67.6041 100.64 68.3605 94.749 68.3756Z" fill="#FFFFFD"/>
<path d="M118.139 3.10377C117.281 1.40508 115.371 0.503314 113.397 0H75.9274C73.9531 0.503314 72.0431 1.40508 71.1847 3.10377C67.9013 9.58393 79.7473 28.0597 94.6619 28.0597C109.577 28.0597 121.423 9.58393 118.139 3.10377Z" fill="#3B50BB"/>
<rect x="81.1357" y="35.1465" width="7.18212" height="14.9628" rx="3.59106" fill="#231F20"/>
<rect x="100.288" y="35.1465" width="7.18212" height="14.9628" rx="3.59106" fill="#231F20"/>
</svg>
