<svg width="189" height="196" viewBox="0 0 189 196" fill="none" xmlns="http://www.w3.org/2000/svg">
<path d="M75.1125 73.6719H73.1793C71.9309 73.6719 70.9189 74.6989 70.9189 75.9659V81.6292C70.9189 82.8961 71.9309 83.9231 73.1793 83.9231H75.1125C76.3608 83.9231 77.3728 82.8961 77.3728 81.6292V75.9659C77.3728 74.6989 76.3608 73.6719 75.1125 73.6719Z" fill="#D16179"/>
<path d="M116.131 74.1016H114.198C112.949 74.1016 111.938 75.1286 111.938 76.3956V82.0588C111.938 83.3258 112.949 84.3528 114.198 84.3528H116.131C117.379 84.3528 118.391 83.3258 118.391 82.0588V76.3956C118.391 75.1286 117.379 74.1016 116.131 74.1016Z" fill="#F2748A"/>
<path d="M94.9962 195.993C105.932 195.993 114.797 186.996 114.797 175.897C114.797 164.798 105.932 155.801 94.9962 155.801C84.0605 155.801 75.1953 164.798 75.1953 175.897C75.1953 186.996 84.0605 195.993 94.9962 195.993Z" fill="#F2748A"/>
<path d="M76.5479 183.016C80.1702 193.698 92.8778 199.024 102.817 194.198C92.2578 194.065 83.0945 191.146 76.5479 183.016Z" fill="#E9B9BE"/>
<path d="M142.697 150.434C144.528 150.434 146.284 151.172 147.578 152.486C148.873 153.799 149.6 155.581 149.6 157.44C149.6 163.42 121.349 186.623 95.4356 186.623C69.5225 186.623 39.0107 164.128 39.0107 157.44C39.0107 155.581 39.738 153.799 41.0326 152.486C42.3271 151.172 44.083 150.434 45.9137 150.434H142.697Z" fill="#F2DADB"/>
<path d="M58.3771 96.9618L61.9907 101.034L21.5672 137.987C19.0813 140.259 15.8077 141.437 12.4666 141.259C9.12549 141.082 5.99056 139.565 3.75145 137.042L0.141126 132.974L40.5683 96.0177C43.0542 93.7452 46.3278 92.568 49.6689 92.7452C53.0099 92.9223 56.1449 94.4392 58.384 96.9622L58.3771 96.9618Z" fill="#F2748A"/>
<path d="M54.2622 95.9371C38.4839 109.419 10.0323 136.343 7.75733 138.082C5.48237 139.821 3.44173 136.541 0 132.954L36.414 99.6581C42.6286 92.8652 47.6716 91.2945 54.2622 95.9371Z" fill="#D16179"/>
<path d="M137.752 80.6625C136.132 79.7075 134.288 79.2124 132.413 79.2289C130.539 79.2455 128.704 79.7731 127.1 80.7567C105.356 94.0749 84.6813 92.6479 59.3492 80.3058C47.1445 74.3601 26.3184 126.216 26.3184 138.93C27.7829 187.486 162.294 184.32 162.294 138.93C162.294 138.93 158.076 92.7322 137.752 80.6625Z" fill="#F2748A"/>
<path d="M184.586 59.7634L189 62.9365L157.552 107.998C155.618 110.769 152.679 112.647 149.381 113.218C146.083 113.79 142.697 113.008 139.966 111.046L135.552 107.873L167.001 62.811C168.934 60.0401 171.874 58.1623 175.171 57.5908C178.469 57.0192 181.856 57.8007 184.586 59.7634Z" fill="#F2748A"/>
<path d="M108.866 148.15C99.1609 143.559 89.4524 143.559 79.7407 148.15C75.4886 148.15 72.0371 144.825 72.0371 140.718V112.674C72.0371 108.577 75.4886 105.242 79.7407 105.242H108.866C113.123 105.242 116.575 108.567 116.575 112.674V140.728C116.575 144.805 113.123 148.15 108.866 148.15Z" fill="#F2DADB" stroke="#D16179" stroke-width="5" stroke-miterlimit="10"/>
<path d="M26.3525 138.894C26.3525 126.171 47.1542 74.3098 59.3834 80.2653C65.7298 83.4066 73.4481 86.3844 76.2698 87.078C77.6026 87.4001 62.0343 87.8311 49.9516 99.9949C36.5215 113.511 26.3525 138.894 26.3525 138.894Z" fill="#D16179"/>
<path d="M76.0945 112.309H75.538C75.1821 112.309 74.8936 112.601 74.8936 112.963V123.263C74.8936 123.625 75.1821 123.917 75.538 123.917H76.0945C76.4504 123.917 76.7389 123.625 76.7389 123.263V112.963C76.7389 112.601 76.4504 112.309 76.0945 112.309Z" fill="#E9B9BE"/>
<path d="M76.0945 125.303H75.538C75.1821 125.303 74.8936 125.596 74.8936 125.957V129.752C74.8936 130.113 75.1821 130.406 75.538 130.406H76.0945C76.4504 130.406 76.7389 130.113 76.7389 129.752V125.957C76.7389 125.596 76.4504 125.303 76.0945 125.303Z" fill="#E9B9BE"/>
<path d="M111.996 131.102H111.439C111.083 131.102 110.795 131.394 110.795 131.756V142.056C110.795 142.418 111.083 142.71 111.439 142.71H111.996C112.352 142.71 112.64 142.418 112.64 142.056V131.756C112.64 131.394 112.352 131.102 111.996 131.102Z" fill="#E9B9BE"/>
<path d="M111.996 124.348H111.439C111.083 124.348 110.795 124.64 110.795 125.002V128.797C110.795 129.158 111.083 129.451 111.439 129.451H111.996C112.352 129.451 112.64 129.158 112.64 128.797V125.002C112.64 124.64 112.352 124.348 111.996 124.348Z" fill="#E9B9BE"/>
<path d="M181.772 58.2166C175.259 55.9077 169.377 58.7468 165.398 64.4546L137.625 104.271C137.786 104.389 137.952 104.503 138.113 104.617C141.203 106.688 170.465 56.3091 181.772 58.2166Z" fill="#E9B9BE"/>
<path d="M72.4277 83.3666C74.2584 84.8531 77.3096 83.223 77.3731 80.9686C77.3731 79.9776 77.3731 78.1543 77.3731 78.1543C76.8166 80.9537 75.5277 82.6333 72.4277 83.3666Z" fill="#F7A9B1"/>
<path d="M113.445 83.7992C115.276 85.2856 118.327 83.6555 118.391 81.4061C118.391 80.4151 118.391 78.5918 118.391 78.5918C117.834 81.3862 116.545 83.0808 113.445 83.7992Z" fill="#E9B9BE"/>
<path d="M109.525 184.591C88.3183 191.661 52.9588 179.349 41.8525 162.463C68.4783 183.793 109.799 185.205 109.525 184.591Z" fill="#E9B9BE"/>
<path d="M82.226 140.762H79.0186V144.047H82.226V140.762Z" fill="#FDB714"/>
<path d="M79.0228 140.762H75.8154V144.047H79.0228V140.762Z" fill="#F04F63"/>
<path d="M79.0228 137.477H75.8154V140.762H79.0228V137.477Z" fill="#63CDF5"/>
<path d="M86.2773 125.903V115.448C86.309 114.751 86.6121 114.094 87.1201 113.623C87.6281 113.152 88.2994 112.905 88.9868 112.936H98.941C99.6275 112.905 100.298 113.152 100.806 113.622C101.314 114.092 101.617 114.747 101.65 115.443V125.764C101.643 126.221 101.512 126.666 101.27 127.052C101.029 127.438 100.688 127.748 100.283 127.949L97.7303 129.302C97.3172 129.507 96.9697 129.827 96.7278 130.224C96.486 130.621 96.3596 131.079 96.3633 131.546L96.5342 137.903C96.5274 138.254 96.4515 138.599 96.3111 138.92C96.1707 139.24 95.9685 139.529 95.7165 139.769C95.4645 140.009 95.1678 140.196 94.8437 140.318C94.5197 140.44 94.1749 140.495 93.8296 140.479C93.4835 140.495 93.1378 140.441 92.8129 140.319C92.488 140.197 92.1904 140.01 91.9378 139.769C91.6852 139.529 91.4827 139.239 91.3423 138.918C91.2019 138.596 91.1263 138.25 91.1202 137.898L91.3155 131.605C91.3204 131.144 91.1983 130.69 90.9628 130.295C90.7273 129.901 90.3879 129.58 89.9827 129.371L87.6052 128.073C87.2105 127.868 86.8784 127.557 86.6444 127.175C86.4105 126.792 86.2836 126.353 86.2773 125.903Z" fill="#F2748A"/>
<path d="M99.5709 122.623H88.5134C88.142 122.639 87.7795 122.505 87.505 122.251C87.2306 121.996 87.0666 121.642 87.0488 121.265V115.151C87.0653 114.773 87.2288 114.418 87.5034 114.162C87.778 113.907 88.1412 113.772 88.5134 113.788H99.5709C99.9427 113.774 100.305 113.908 100.58 114.164C100.854 114.419 101.018 114.774 101.035 115.151V121.265C101.016 121.641 100.852 121.995 100.578 122.249C100.304 122.503 99.9419 122.637 99.5709 122.623Z" fill="#F2748A"/>
<path d="M86.8047 122.614L101.192 122.733L101.162 119.676C101.162 119.676 99.7563 121.098 98.1453 118.19C96.2804 114.811 95.1576 120.935 93.6003 119.676C92.0429 118.418 91.5303 112.304 89.6166 119.181C88.3815 123.64 87.1415 117.838 86.9755 120.231L86.8047 122.614Z" fill="#F2DADB"/>
<path d="M88.3428 125.214V114.755C88.377 114.058 88.6808 113.403 89.1882 112.933C89.6956 112.462 90.3655 112.214 91.0522 112.243H101.011C101.698 112.213 102.368 112.461 102.875 112.932C103.382 113.402 103.684 114.058 103.716 114.755V125.075C103.708 125.531 103.576 125.976 103.335 126.361C103.093 126.745 102.752 127.055 102.349 127.255L99.7957 128.613C99.3826 128.818 99.0351 129.138 98.7933 129.535C98.5515 129.932 98.4251 130.391 98.4288 130.857L98.6045 137.214C98.597 137.565 98.5206 137.911 98.3796 138.232C98.2387 138.552 98.0361 138.841 97.7837 139.081C97.5313 139.321 97.2343 139.507 96.9099 139.629C96.5856 139.751 96.2406 139.806 95.8951 139.791V139.791C95.549 139.807 95.2032 139.752 94.8783 139.63C94.5534 139.508 94.2559 139.321 94.0033 139.081C93.7507 138.84 93.5482 138.55 93.4078 138.229C93.2673 137.908 93.1918 137.561 93.1856 137.209L93.3809 130.917C93.3863 130.456 93.2649 130.003 93.0304 129.608C92.7958 129.213 92.4573 128.892 92.053 128.682L89.6755 127.379C89.2807 127.175 88.948 126.866 88.7132 126.484C88.4784 126.103 88.3503 125.664 88.3428 125.214V125.214Z" stroke="#171518" stroke-miterlimit="10"/>
<path d="M102.266 119.601C101.729 119.734 100.85 119.556 99.7909 117.861C97.7552 114.591 97.0571 120.557 95.4607 119.348C93.8643 118.139 92.9661 112.198 91.5552 118.912C90.6423 123.247 89.0557 117.629 89.0508 119.957V120.715C89.0723 121.15 89.2625 121.559 89.5798 121.853C89.8972 122.146 90.316 122.3 90.7448 122.281L101.817 122.256C101.929 122.257 102.041 122.242 102.149 122.212C102.356 122.128 102.541 121.994 102.685 121.821C102.83 121.648 102.931 121.442 102.979 121.221C102.984 121.175 102.984 121.128 102.979 121.082L102.896 119.977C102.883 119.908 102.855 119.843 102.815 119.786C102.775 119.729 102.724 119.681 102.664 119.645C102.605 119.609 102.539 119.587 102.47 119.579C102.401 119.572 102.332 119.579 102.266 119.601V119.601Z" stroke="#171518" stroke-miterlimit="10"/>
<rect x="39.3477" y="30.7695" width="110.304" height="21.6041" rx="10.8021" fill="#D16179"/>
<path d="M94.9591 78.8871C88.9004 78.9079 57.9085 78.3046 49.3237 60.3709C48.6114 58.8952 48.3789 57.244 48.3789 55.6054V27.0644C48.3789 25.4231 48.6103 23.7764 49.3237 22.2983C58.155 3.88613 90.7899 3.92774 94.7537 3.92774C98.8202 3.92774 131.209 3.96935 139.999 22.2983C140.711 23.774 140.944 25.4252 140.944 27.0638V55.6049C140.944 57.2461 140.712 58.8928 139.999 60.3709C131.64 77.8261 102.004 78.8663 94.9591 78.8871Z" fill="#F2748A"/>
<path d="M94.7489 69.3955C89.6824 69.4109 63.7659 68.9656 56.5869 55.7308C55.9959 54.6501 55.7969 53.4079 55.7969 52.1763V31.1885C55.7969 29.9544 55.9948 28.7162 56.5869 27.6335C63.972 14.0455 91.2625 14.0762 94.5772 14.0762C97.9778 14.0762 125.062 14.1069 132.413 27.6335C133.004 28.7141 133.203 29.9563 133.203 31.188V52.1758C133.203 53.4099 133.005 54.648 132.413 55.7308C125.423 68.6125 100.64 69.3802 94.7489 69.3955Z" fill="#FFFFFD"/>
<path d="M118.138 3.15005C117.28 1.42604 115.37 0.51082 113.395 0H75.9264C73.9521 0.51082 72.0421 1.42604 71.1837 3.15005C67.9004 9.72686 79.7463 28.4782 94.6609 28.4782C109.576 28.4782 121.422 9.72686 118.138 3.15005Z" fill="#D16179"/>
<rect x="81.1348" y="35.6699" width="7.18211" height="15.1859" rx="3.59106" fill="#231F20"/>
<rect x="100.287" y="35.6699" width="7.18211" height="15.1859" rx="3.59106" fill="#231F20"/>
</svg>
