<svg width="189" height="191" viewBox="0 0 189 191" fill="none" xmlns="http://www.w3.org/2000/svg">
<path d="M75.1911 72.9238H73.0869C71.8858 72.9238 70.9121 73.8758 70.9121 75.05V80.6709C70.9121 81.8451 71.8858 82.797 73.0869 82.797H75.1911C76.3922 82.797 77.3659 81.8451 77.3659 80.6709V75.05C77.3659 73.8758 76.3922 72.9238 75.1911 72.9238Z" fill="#E8C143"/>
<path d="M116.21 73.3418H114.105C112.904 73.3418 111.931 74.2937 111.931 75.468V81.0888C111.931 82.2631 112.904 83.215 114.105 83.215H116.21C117.411 83.215 118.384 82.2631 118.384 81.0888V75.468C118.384 74.2937 117.411 73.3418 116.21 73.3418Z" fill="#FEDF68"/>
<path d="M94.9935 190.755C105.928 190.755 114.792 182.089 114.792 171.399C114.792 160.709 105.928 152.043 94.9935 152.043C84.0593 152.043 75.1953 160.709 75.1953 171.399C75.1953 182.089 84.0593 190.755 94.9935 190.755Z" fill="#FEDF68"/>
<path d="M76.5439 178.254C80.1889 188.545 92.871 193.679 102.815 189.027C92.251 188.899 83.087 186.088 76.5439 178.254Z" fill="#E8C143"/>
<path d="M142.692 146.867C144.523 146.867 146.279 147.578 147.574 148.844C148.869 150.11 149.597 151.827 149.597 153.618C149.597 159.376 121.344 181.731 95.4346 181.731C69.5255 181.731 39.0039 160.084 39.0039 153.618C39.0039 151.829 39.7301 150.113 41.0229 148.848C42.3158 147.582 44.0696 146.87 45.8992 146.867H142.692Z" fill="#FFF2C3"/>
<path d="M58.0563 95.0127L61.989 99.2813L21.2111 135.191C18.8191 137.295 15.67 138.385 12.4562 138.221C9.24241 138.056 6.22712 136.65 4.07332 134.312L0.143865 130.047L40.9217 94.1377C43.3131 92.0335 46.4613 90.9436 49.6743 91.1077C52.8873 91.2718 55.9022 92.6763 58.0563 95.0127Z" fill="#FEDF68"/>
<path d="M54.2559 94.3683C38.4831 107.36 10.0283 133.296 7.75487 134.968C5.48149 136.639 3.44296 133.489 0 130.027L36.4164 97.9548C42.6119 91.3972 47.6659 89.9093 54.2559 94.3683Z" fill="#E8C143"/>
<path d="M137.747 79.6608C136.126 78.7393 134.282 78.2616 132.407 78.2777C130.533 78.2939 128.697 78.8034 127.094 79.7526C105.351 92.5786 84.6746 91.201 59.3433 79.3164C47.1309 73.5807 26.3135 123.539 26.3135 135.8C27.7602 182.586 162.284 179.523 162.284 135.8C162.284 135.791 158.071 91.2836 137.747 79.6608Z" fill="#FEDF68"/>
<path d="M184.19 59.2552L189 62.5863L157.276 106.375C156.355 107.646 155.187 108.728 153.838 109.558C152.489 110.388 150.986 110.951 149.415 111.213C147.844 111.475 146.235 111.432 144.681 111.087C143.127 110.741 141.657 110.1 140.357 109.199L135.546 105.868L167.27 62.0798C169.13 59.5116 171.958 57.7712 175.131 57.2415C178.304 56.7118 181.563 57.4361 184.19 59.2552Z" fill="#FEDF68"/>
<path d="M108.84 144.668C99.1332 140.238 89.4259 140.238 79.7186 144.668C75.4631 144.668 72.0107 141.453 72.0107 137.518V110.497C72.0295 106.552 75.4913 103.338 79.7186 103.338H108.84C113.101 103.338 116.548 106.552 116.548 110.488V137.513C116.567 141.453 113.12 144.668 108.84 144.668Z" fill="#FFF9E1" stroke="#E8C143" stroke-width="5" stroke-miterlimit="10"/>
<path d="M26.3467 135.75C26.3467 123.498 47.15 73.5393 59.3765 79.2658C65.7129 82.2875 73.4442 85.1576 76.286 85.8235C77.6152 86.1357 62.0491 86.549 49.9824 98.2683C36.5065 111.306 26.3467 135.75 26.3467 135.75Z" fill="#E8C143"/>
<path opacity="0.8" d="M76.1117 110.143H75.5058C75.1633 110.143 74.8857 110.414 74.8857 110.749V120.718C74.8857 121.053 75.1633 121.325 75.5058 121.325H76.1117C76.4541 121.325 76.7317 121.053 76.7317 120.718V110.749C76.7317 110.414 76.4541 110.143 76.1117 110.143Z" fill="#FEECA4"/>
<path opacity="0.8" d="M76.1117 122.662H75.5058C75.1633 122.662 74.8857 122.934 74.8857 123.268V126.974C74.8857 127.309 75.1633 127.58 75.5058 127.58H76.1117C76.4541 127.58 76.7317 127.309 76.7317 126.974V123.268C76.7317 122.934 76.4541 122.662 76.1117 122.662Z" fill="#FEECA4"/>
<path opacity="0.8" d="M112.016 128.246H111.41C111.068 128.246 110.79 128.517 110.79 128.852V138.822C110.79 139.157 111.068 139.428 111.41 139.428H112.016C112.358 139.428 112.636 139.157 112.636 138.822V128.852C112.636 128.517 112.358 128.246 112.016 128.246Z" fill="#FEECA4"/>
<path opacity="0.8" d="M112.016 121.738H111.41C111.068 121.738 110.79 122.01 110.79 122.344V126.05C110.79 126.385 111.068 126.657 111.41 126.657H112.016C112.358 126.657 112.636 126.385 112.636 126.05V122.344C112.636 122.01 112.358 121.738 112.016 121.738Z" fill="#FEECA4"/>
<path opacity="0.8" d="M72.4189 82.2496C74.2508 83.6778 77.2992 82.1073 77.3649 79.9535C77.3649 78.9938 77.3649 77.2441 77.3649 77.2441C76.8107 79.9398 75.519 81.5562 72.4189 82.2496Z" fill="#FFF9E1"/>
<path opacity="0.8" d="M113.439 82.6715C115.271 84.0997 118.32 82.5291 118.385 80.3754C118.385 79.4156 118.385 77.666 118.385 77.666C117.831 80.3754 116.54 81.9873 113.439 82.6715Z" fill="#FFF9E1"/>
<path d="M109.521 179.774C88.3092 186.58 52.9449 174.727 41.8457 158.443C68.4734 179.003 109.779 180.362 109.521 179.774Z" fill="#E8C143"/>
<path d="M82.2171 137.555H79.0137V140.719H82.2171V137.555Z" fill="#FCB614"/>
<path d="M79.0091 137.555H75.8057V140.719H79.0091V137.555Z" fill="#EF4E63"/>
<path d="M79.0091 134.391H75.8057V137.555H79.0091V134.391Z" fill="#63CCF5"/>
<path d="M91.7294 133.379C96.6271 133.379 100.597 129.267 100.597 124.194C100.597 119.122 96.6271 115.01 91.7294 115.01C86.8317 115.01 82.8613 119.122 82.8613 124.194C82.8613 129.267 86.8317 133.379 91.7294 133.379Z" fill="#F6DD7A"/>
<path d="M94.1247 132.59C99.3934 132.59 103.664 128.167 103.664 122.712C103.664 117.256 99.3934 112.834 94.1247 112.834C88.8561 112.834 84.585 117.256 84.585 122.712C84.585 128.167 88.8561 132.59 94.1247 132.59Z" stroke="black" stroke-miterlimit="10"/>
<path d="M94.2935 130.665C98.5686 130.665 102.034 127.075 102.034 122.647C102.034 118.219 98.5686 114.629 94.2935 114.629C90.0184 114.629 86.5527 118.219 86.5527 122.647C86.5527 127.075 90.0184 130.665 94.2935 130.665Z" stroke="black" stroke-miterlimit="10"/>
<path d="M92.11 114.904L90.1889 115.841L89.4092 114.128L91.3303 113.191L92.11 114.904Z" fill="#161417"/>
<path d="M100.597 130.036L98.9157 131.253L97.8965 129.742L99.5827 128.525L100.597 130.036Z" fill="#161417"/>
<path d="M99.2918 116.539L97.6572 115.451L98.5591 114L100.194 115.088L99.2918 116.539Z" fill="#161417"/>
<rect x="39.3486" y="30.3184" width="110.303" height="21.2866" rx="10.6433" fill="#E8C143"/>
<path d="M94.959 77.7268C88.9003 77.7473 57.9085 77.1529 49.3237 59.4828C48.612 58.03 48.3789 56.3996 48.3789 54.7819V26.6711C48.3789 25.0507 48.6109 23.4249 49.3237 21.9697C58.155 3.82814 90.7898 3.86914 94.7536 3.86914C98.8201 3.86914 131.209 3.91014 139.999 21.9697C140.71 23.4225 140.944 25.0529 140.944 26.6706V54.7814C140.944 56.4018 140.712 58.0276 139.999 59.4828C131.64 76.6814 102.004 77.7063 94.959 77.7268Z" fill="#FEDF68"/>
<path d="M94.7499 68.3755C89.6833 68.3906 63.7669 67.9519 56.5879 54.9115C55.9975 53.8479 55.7979 52.6208 55.7979 51.4043V30.7349C55.7979 29.5159 55.9963 28.293 56.5879 27.2272C63.973 13.8389 91.2634 13.8691 94.5781 13.8691C97.9787 13.8691 125.063 13.8994 132.414 27.2272C133.004 28.2909 133.204 29.5179 133.204 30.7344V51.4038C133.204 52.6228 133.005 53.8457 132.414 54.9115C125.424 67.604 100.641 68.3604 94.7499 68.3755Z" fill="#FFFFFD"/>
<path d="M118.139 3.10376C117.281 1.40508 115.371 0.503312 113.396 0H75.9274C73.953 0.503312 72.0431 1.40508 71.1847 3.10376C67.9013 9.5839 79.7472 28.0597 94.6619 28.0597C109.577 28.0597 121.422 9.5839 118.139 3.10376Z" fill="#E8C143"/>
<rect x="81.1357" y="35.1465" width="7.1821" height="14.9627" rx="3.59105" fill="#231F20"/>
<rect x="100.287" y="35.1465" width="7.1821" height="14.9627" rx="3.59105" fill="#231F20"/>
</svg>
