<svg width="157" height="162" viewBox="0 0 157 162" fill="none" xmlns="http://www.w3.org/2000/svg">
<path d="M78.508 161.999C87.5626 161.999 94.9027 154.48 94.9027 145.205C94.9027 135.929 87.5626 128.41 78.508 128.41C69.4535 128.41 62.1133 135.929 62.1133 145.205C62.1133 154.48 69.4535 161.999 78.508 161.999Z" fill="#F2F4FA"/>
<path d="M117.984 123.9C119.495 123.899 120.945 124.51 122.015 125.6C123.086 126.689 123.689 128.169 123.693 129.713C123.693 134.69 100.331 154.003 78.9124 154.003C57.4932 154.003 32.2559 135.32 32.2559 129.713C32.2559 128.165 32.8574 126.682 33.9281 125.588C34.9988 124.494 36.451 123.879 37.9652 123.879L117.984 123.9Z" fill="#F2F4FA"/>
<path d="M50.1616 81.401L51.2413 82.629L19.9374 111.515C17.3212 113.93 13.876 115.18 10.3597 114.992C6.84345 114.804 3.54417 113.192 1.18767 110.512L0.107976 109.284L31.4118 80.3976C34.0281 77.9834 37.4733 76.7329 40.9895 76.921C44.5058 77.1092 47.8051 78.7207 50.1616 81.401Z" fill="#F2F4FA"/>
<path d="M44.7856 78.3045C31.7655 89.5991 18.2118 101.153 6.60241 114.28C4.22205 113.472 1.80066 111.359 0 109.304L30.0571 81.4213C32.0221 79.6016 34.4222 78.3536 37.0108 77.8058C39.5994 77.258 42.283 77.4301 44.7856 78.3045Z" fill="#B8C3FD"/>
<path d="M113.83 65.6298C112.493 64.8327 110.971 64.419 109.424 64.4319C107.877 64.4449 106.362 64.8841 105.037 65.7034C87.081 76.8082 70.0227 75.6193 49.1167 65.3299C39.0254 60.3641 21.8594 103.61 21.8594 114.215C23.0496 154.72 134.09 152.064 134.09 114.215C134.085 114.215 130.591 75.693 113.83 65.6298Z" fill="#F2F4FA"/>
<path d="M154.9 49.9044L156.217 50.8597L131.865 86.0812C129.83 89.0248 126.737 91.0196 123.266 91.6268C119.795 92.234 116.231 91.4037 113.358 89.3188L112.042 88.3635L136.393 53.142C138.428 50.1984 141.521 48.2035 144.992 47.5964C148.463 46.9892 152.027 47.8195 154.9 49.9044Z" fill="#F2F4FA"/>
<path d="M89.8688 122.013C81.8522 118.188 73.8339 118.188 65.814 122.013C62.2969 122.013 59.4473 119.249 59.4473 115.834V92.4697C59.4473 89.0546 62.2969 86.291 65.814 86.291H89.8688C93.3858 86.291 96.2354 89.0546 96.2354 92.4697V115.834C96.2354 119.249 93.3858 122.013 89.8688 122.013Z" fill="#F1F3FF" stroke="#C7C9F4" stroke-width="5" stroke-miterlimit="10"/>
<path d="M62.7353 92.1543H62.5576C62.165 92.1543 61.8467 92.4625 61.8467 92.8428V101.063C61.8467 101.443 62.165 101.751 62.5576 101.751H62.7353C63.1279 101.751 63.4462 101.443 63.4462 101.063V92.8428C63.4462 92.4625 63.1279 92.1543 62.7353 92.1543Z" fill="#DCE1FE"/>
<path d="M62.7353 102.818H62.5576C62.165 102.818 61.8467 103.13 61.8467 103.514V106.388C61.8467 106.772 62.165 107.084 62.5576 107.084H62.7353C63.1279 107.084 63.4462 106.772 63.4462 106.388V103.514C63.4462 103.13 63.1279 102.818 62.7353 102.818Z" fill="#DCE1FE"/>
<path d="M92.4446 107.617H92.2965C91.9693 107.617 91.7041 107.934 91.7041 108.325V116.773C91.7041 117.164 91.9693 117.481 92.2965 117.481H92.4446C92.7718 117.481 93.037 117.164 93.037 116.773V108.325C93.037 107.934 92.7718 107.617 92.4446 107.617Z" fill="#DCE1FE"/>
<path d="M92.4446 102.02H92.2965C91.9693 102.02 91.7041 102.331 91.7041 102.715V105.589C91.7041 105.973 91.9693 106.285 92.2965 106.285H92.4446C92.7718 106.285 93.037 105.973 93.037 105.589V102.715C93.037 102.331 92.7718 102.02 92.4446 102.02Z" fill="#DCE1FE"/>
<path d="M21.8594 114.28C21.8594 103.662 39.0524 60.3847 49.1566 65.3594C54.3911 67.9916 60.7813 70.4658 63.1135 71.0396C64.2127 71.3133 51.3501 71.666 41.364 81.8208C30.2633 93.1022 21.8594 114.28 21.8594 114.28Z" fill="#B8C3FD"/>
<path d="M150.352 46.9743C144.965 45.047 140.102 47.4166 136.807 52.1822L113.83 85.4203L114.241 85.7046C116.801 87.4371 141.022 45.384 150.352 46.9743Z" fill="#B8C3FD"/>
<path d="M63.1797 151.07C66.1953 160.067 76.7683 164.557 85.0393 160.492C76.251 160.38 68.6265 157.92 63.1797 151.07Z" fill="#B1B9E4"/>
<path d="M90.6362 152.317C73.0917 158.169 43.844 147.978 34.6553 134.008C56.6836 151.654 90.8624 152.823 90.6362 152.317Z" fill="#B1B9E4"/>
<path d="M6.39746 114.108C6.39746 114.108 14.2257 116.914 19.7265 111.35C15.6007 113.505 10.9965 114.457 6.39746 114.108Z" fill="#B8C3FD"/>
<path d="M85.8393 103.617H78.375V111.081H85.8393V103.617Z" fill="#FCB614"/>
<path d="M78.3744 103.617H71.1768V111.081H78.3744V103.617Z" fill="#EF4E63"/>
<path d="M78.3744 95.8867H71.1768V103.618H78.3744V95.8867Z" fill="#63CCF5"/>
<path d="M61.6042 59.8984H61.0243C59.7122 59.8984 58.6484 60.9866 58.6484 62.329V65.9985C58.6484 67.3408 59.7122 68.429 61.0243 68.429H61.6042C62.9163 68.429 63.9801 67.3408 63.9801 65.9985V62.329C63.9801 60.9866 62.9163 59.8984 61.6042 59.8984Z" fill="#F2F4FA"/>
<path d="M95.4606 60.166H94.8808C93.5686 60.166 92.5049 61.2542 92.5049 62.5966V66.266C92.5049 67.6084 93.5686 68.6966 94.8808 68.6966H95.4606C96.7728 68.6966 97.8365 67.6084 97.8365 66.266V62.5966C97.8365 61.2542 96.7728 60.166 95.4606 60.166Z" fill="#F2F4FA"/>
<path d="M97.8323 63.8984V66.9633C97.8466 67.1932 97.8154 67.4238 97.7408 67.6397C97.6663 67.8556 97.5501 68.0519 97.3999 68.2156C97.2497 68.3793 97.069 68.5066 96.8698 68.5891C96.6705 68.6717 96.4573 68.7075 96.2443 68.6942H94.6367C96.2737 68.1913 97.2883 66.4922 97.8323 63.8984Z" fill="#B8C3FD"/>
<path d="M58.6534 63.3652V66.5978C58.6361 66.8354 58.6645 67.0743 58.7368 67.2991C58.809 67.5238 58.9235 67.7292 59.0728 67.9021C59.2221 68.0749 59.4028 68.2112 59.6031 68.302C59.8035 68.3929 60.019 68.4364 60.2357 68.4296H61.8474C60.221 67.9124 59.1922 66.0914 58.6534 63.3652Z" fill="#B1B9E4"/>
<rect x="32.5234" y="25.0586" width="91.1707" height="17.5943" rx="8.79717" fill="#B8C3FD"/>
<path d="M78.4878 64.2459C73.48 64.2628 47.864 63.7715 40.7682 49.1664C40.18 47.9656 39.9873 46.618 39.9873 45.2809V22.046C39.9873 20.7067 40.179 19.3629 40.7682 18.1601C48.0677 3.16533 75.0418 3.19922 78.3181 3.19922C81.6792 3.19922 108.45 3.23311 115.715 18.1601C116.303 19.3609 116.496 20.7085 116.496 22.0456V45.2805C116.496 46.6198 116.304 47.9636 115.715 49.1664C108.806 63.3818 84.3104 64.229 78.4878 64.2459Z" fill="#F2F4FA"/>
<path d="M78.3147 56.5148C74.127 56.5273 52.7059 56.1647 46.7721 45.3862C46.2842 44.5071 46.1191 43.4929 46.1191 42.4874V25.4032C46.1191 24.3957 46.2832 23.3849 46.7721 22.5039C52.8762 11.4379 75.433 11.4629 78.1727 11.4629C80.9835 11.4629 103.37 11.4879 109.446 22.5039C109.934 23.3831 110.099 24.3973 110.099 25.4028V42.487C110.099 43.4945 109.935 44.5053 109.446 45.3862C103.668 55.8771 83.1838 56.5023 78.3147 56.5148Z" fill="#FFFFFD"/>
<path d="M97.647 2.56539C96.9375 1.16136 95.3589 0.41601 93.727 0H62.7572C61.1253 0.41601 59.5467 1.16136 58.8372 2.56539C56.1233 7.92152 65.9145 23.1925 78.2421 23.1925C90.5697 23.1925 100.361 7.92152 97.647 2.56539Z" fill="#B8C3FD"/>
<rect x="67.0625" y="29.0508" width="5.93633" height="12.3673" rx="2.96816" fill="#231F20"/>
<rect x="82.8926" y="29.0508" width="5.93633" height="12.3673" rx="2.96816" fill="#231F20"/>
</svg>
