<svg width="438" height="456" viewBox="0 0 438 456" fill="none" xmlns="http://www.w3.org/2000/svg">
<g clip-path="url(#clip0)">
<path d="M217.197 0.828447C191.969 0.860169 171.544 21.7469 171.576 47.4809C171.608 73.2148 192.087 94.0501 217.315 94.0184C242.544 93.9867 262.969 73.1 262.937 47.366C262.905 21.632 242.426 0.796724 217.197 0.828447Z" fill="#4E6AFA"/>
<path d="M259.773 30.8613C251.386 6.10385 222.055 -6.20928 199.139 5.00954C223.522 5.28888 244.67 12.0173 259.773 30.8613Z" fill="#7188FB"/>
<path d="M107.287 106.598C105.192 106.6 103.117 106.182 101.181 105.364C99.2449 104.548 97.4854 103.35 96.0045 101.838C94.5226 100.327 93.3484 98.5322 92.5489 96.5572C91.7484 94.5822 91.3377 92.4647 91.341 90.3277C91.3236 76.4627 156.432 22.5828 216.201 22.5076C275.97 22.4325 346.459 74.4989 346.479 90.0069C346.481 94.3169 344.806 98.45 341.821 101.5C338.837 104.549 334.787 106.266 330.562 106.271L107.287 106.598Z" fill="#B8C3FD"/>
<path d="M118.899 268.356C122.641 270.566 126.896 271.709 131.219 271.664C135.543 271.621 139.776 270.391 143.473 268.107C193.597 237.165 241.297 240.413 299.773 268.955C327.946 282.706 375.841 162.414 375.803 132.936C372.283 20.3579 61.9809 28.0891 62.1132 133.33C62.1132 133.33 71.9559 240.431 118.899 268.356Z" fill="#4E6AFA"/>
<path d="M23.7678 313.738C17.8244 310.11 15.8809 302.391 19.3976 296.38L77.3026 197.419C81.2525 190.668 87.6758 185.802 95.1583 183.892C102.641 181.981 110.571 183.183 117.202 187.231C123.14 190.856 125.082 198.568 121.569 204.573L63.658 303.546C59.708 310.294 53.2876 315.16 45.8072 317.071C38.3268 318.982 30.3991 317.784 23.7678 313.738Z" fill="#4E6AFA"/>
<path d="M185.341 111.796C207.745 122.413 230.138 122.384 252.521 111.711C262.342 111.699 270.314 119.397 270.326 128.921L270.408 193.942C270.419 203.443 262.467 211.184 252.646 211.196L185.466 211.281C175.645 211.293 167.674 203.595 167.662 194.071L167.58 129.027C167.534 119.526 175.52 111.808 185.341 111.796Z" fill="#F1F3FF" stroke="#2C3C8C" stroke-width="5" stroke-miterlimit="10"/>
<path d="M233.88 191.518L208.585 191.55C208.258 191.551 207.936 191.474 207.644 191.324C207.352 191.175 207.098 190.957 206.903 190.688C206.709 190.42 206.58 190.109 206.524 189.781C206.47 189.452 206.492 189.114 206.589 188.796L213.24 167.075C213.336 166.757 213.358 166.42 213.304 166.091C213.25 165.763 213.122 165.452 212.928 165.184C212.735 164.915 212.484 164.695 212.192 164.544C211.902 164.392 211.581 164.311 211.254 164.309L205.071 164.316C204.722 164.317 204.379 164.227 204.073 164.057C203.767 163.886 203.507 163.64 203.319 163.341C203.13 163.042 203.018 162.699 202.993 162.344C202.968 161.989 203.031 161.633 203.175 161.309L216.461 131.757C216.641 131.363 216.933 131.033 217.301 130.814C217.669 130.595 218.094 130.496 218.519 130.531C218.943 130.565 219.347 130.731 219.676 131.007C220.006 131.284 220.243 131.655 220.359 132.074L227.713 158.808C227.837 159.255 228.099 159.646 228.462 159.926C228.824 160.206 229.265 160.357 229.719 160.356L233.841 160.351C234.394 160.351 234.924 160.574 235.316 160.972C235.706 161.37 235.927 161.911 235.928 162.475L235.962 189.391C235.962 189.67 235.908 189.946 235.804 190.204C235.7 190.462 235.546 190.696 235.354 190.893C235.16 191.092 234.931 191.248 234.678 191.355C234.425 191.463 234.154 191.518 233.88 191.518Z" fill="#4E6AFA"/>
<path d="M229.774 194.842L204.479 194.874C204.152 194.876 203.829 194.798 203.537 194.648C203.245 194.499 202.992 194.281 202.797 194.012C202.603 193.745 202.473 193.434 202.418 193.105C202.364 192.776 202.385 192.438 202.482 192.12L209.134 170.399C209.232 170.081 209.256 169.743 209.202 169.413C209.15 169.084 209.022 168.773 208.828 168.503C208.635 168.233 208.382 168.014 208.089 167.864C207.797 167.712 207.475 167.633 207.148 167.633L200.965 167.641C200.616 167.641 200.272 167.552 199.966 167.381C199.66 167.21 199.4 166.965 199.212 166.665C199.024 166.366 198.911 166.023 198.887 165.668C198.861 165.313 198.924 164.957 199.068 164.633L212.355 135.081C212.534 134.687 212.826 134.358 213.194 134.138C213.563 133.919 213.987 133.82 214.412 133.855C214.837 133.889 215.241 134.056 215.569 134.331C215.899 134.608 216.137 134.98 216.253 135.398L223.606 162.133C223.732 162.579 223.997 162.973 224.361 163.252C224.725 163.531 225.168 163.682 225.624 163.681L229.735 163.675C230.287 163.675 230.818 163.898 231.209 164.297C231.601 164.694 231.82 165.235 231.821 165.799L231.855 192.715C231.855 193.278 231.637 193.819 231.247 194.219C230.856 194.617 230.326 194.842 229.774 194.842Z" stroke="black" stroke-miterlimit="10"/>
<path d="M375.725 133.015C375.762 162.516 327.924 282.819 299.694 269.047C285.044 261.782 267.23 254.9 260.718 253.3C257.642 252.557 293.557 251.513 321.396 223.275C352.328 191.897 375.725 133.015 375.725 133.015Z" fill="#3B50BB"/>
<path d="M261.05 194.804L262.333 194.803C263.154 194.802 263.819 194.122 263.818 193.285L263.788 169.401C263.787 168.564 263.12 167.886 262.299 167.887L261.016 167.888C260.194 167.889 259.53 168.569 259.531 169.406L259.561 193.29C259.562 194.127 260.228 194.805 261.05 194.804Z" fill="#DCE1FE"/>
<path d="M261.013 164.671L262.296 164.67C263.117 164.669 263.782 163.99 263.781 163.152L263.77 154.352C263.769 153.515 263.102 152.837 262.281 152.838L260.998 152.839C260.176 152.84 259.512 153.52 259.513 154.357L259.524 163.157C259.525 163.995 260.191 164.672 261.013 164.671Z" fill="#DCE1FE"/>
<path d="M178.172 151.336L179.456 151.334C180.277 151.333 180.942 150.653 180.941 149.816L180.911 125.932C180.91 125.095 180.243 124.417 179.422 124.418L178.138 124.42C177.317 124.421 176.653 125.1 176.654 125.937L176.684 149.821C176.685 150.658 177.351 151.337 178.172 151.336Z" fill="#DCE1FE"/>
<path d="M178.191 166.994L179.475 166.992C180.296 166.991 180.962 166.311 180.96 165.473L180.949 156.674C180.948 155.836 180.282 155.158 179.461 155.159L178.177 155.161C177.356 155.162 176.691 155.842 176.692 156.68L176.704 165.479C176.705 166.317 177.37 166.995 178.191 166.994Z" fill="#DCE1FE"/>
<path d="M269.593 261.929C265.364 258.488 258.33 262.276 258.191 267.503C258.194 269.801 258.199 274.028 258.199 274.028C259.475 267.501 262.443 263.581 269.593 261.929Z" fill="#B8C3FD"/>
<path d="M30.5153 316.777C45.9088 320.95 58.9181 313.336 67.0553 299.43L123 202.426L119.5 199C111.998 194.766 56.8635 319.165 30.5153 316.777Z" fill="#3B50BB"/>
<path d="M174.965 261.014C170.737 257.573 163.703 261.361 163.563 266.577C163.566 268.874 163.571 273.102 163.571 273.102C164.836 266.576 167.816 262.689 174.965 261.014Z" fill="#B8C3FD"/>
<path d="M183.715 27.3054C232.629 10.8849 314.227 39.2953 339.898 78.4141C278.399 29.0354 183.093 25.8812 183.715 27.3054Z" fill="#7188FB"/>
<path d="M246.822 128.847L254.221 128.838L254.211 121.222L246.812 121.231L246.822 128.847Z" fill="#FCB614"/>
<path d="M254.209 128.837L261.608 128.828L261.599 121.212L254.2 121.221L254.209 128.837Z" fill="#EF4E63"/>
<path d="M254.219 136.455L261.618 136.445L261.609 128.828L254.21 128.838L254.219 136.455Z" fill="#63CCF5"/>
<path d="M263.426 284.383L267.886 284.378C270.766 284.374 273.098 281.989 273.094 279.052L273.078 265.921C273.074 262.984 270.736 260.605 267.856 260.609L263.396 260.614C260.516 260.618 258.185 263.003 258.189 265.94L258.205 279.071C258.209 282.008 260.546 284.387 263.426 284.383Z" fill="#4E6AFA"/>
<path d="M168.799 283.504L173.259 283.499C176.139 283.495 178.47 281.11 178.466 278.173L178.45 265.042C178.446 262.105 176.109 259.726 173.229 259.73L168.769 259.735C165.889 259.739 163.557 262.124 163.561 265.061L163.577 278.192C163.581 281.129 165.919 283.508 168.799 283.504Z" fill="#4E6AFA"/>
<path d="M111.606 384.07L326.063 383.801C337.108 383.787 346.051 374.821 346.037 363.775L346.025 353.686C346.011 342.641 337.045 333.698 326 333.711L111.543 333.981C100.497 333.995 91.554 342.961 91.5679 354.006L91.5805 364.095C91.5944 375.141 100.56 384.084 111.606 384.07Z" fill="#3B50BB"/>
<path d="M217.635 272.377C231.612 272.312 303.108 273.621 322.964 315.175C324.612 318.595 325.153 322.42 325.158 326.216L325.241 392.397C325.246 396.2 324.718 400.016 323.075 403.446C302.757 446.16 227.472 446.158 218.328 446.17C208.947 446.181 134.231 446.179 113.898 403.709C112.251 400.288 111.71 396.464 111.705 392.667L111.622 326.487C111.617 322.684 112.146 318.868 113.787 315.438C133.02 274.944 201.384 272.446 217.635 272.377Z" fill="#4E6AFA"/>
<path d="M218.147 294.384C229.835 294.335 289.623 295.291 306.223 325.956C307.589 328.46 308.051 331.337 308.055 334.19L308.116 382.858C308.12 385.717 307.667 388.586 306.305 391.099C289.307 422.624 226.351 422.632 218.705 422.642C210.86 422.652 148.379 422.659 131.383 391.319C130.015 388.814 129.554 385.937 129.55 383.084L129.489 334.416C129.485 331.558 129.938 328.688 131.301 326.176C147.388 296.289 204.558 294.437 218.147 294.384Z" fill="#FFFFFD"/>
<path d="M164.384 448.039C166.369 452.034 170.778 454.151 175.334 455.329L261.77 455.22C266.324 454.03 270.727 451.903 272.702 447.903C280.257 432.645 252.875 389.205 218.469 389.248C184.063 389.291 156.791 432.801 164.384 448.039Z" fill="#3B50BB"/>
<path d="M239.319 372.546L243.415 372.541C246.859 372.537 249.647 369.741 249.643 366.297L249.614 343.561C249.61 340.117 246.815 337.328 243.371 337.333L239.274 337.338C235.83 337.342 233.042 340.138 233.046 343.582L233.075 366.318C233.079 369.762 235.875 372.551 239.319 372.546Z" fill="#231F20"/>
<path d="M195.137 372.603L199.233 372.598C202.677 372.593 205.465 369.798 205.461 366.354L205.432 343.617C205.428 340.173 202.632 337.385 199.188 337.389L195.092 337.394C191.648 337.399 188.86 340.194 188.864 343.638L188.893 366.375C188.897 369.819 191.692 372.607 195.137 372.603Z" fill="#231F20"/>
<path d="M300.272 189.722C294.954 194.208 294.207 202.23 298.58 207.906L369.26 299.644C371.65 302.748 374.592 305.338 377.918 307.263C381.245 309.188 384.89 310.413 388.646 310.867C392.402 311.32 396.195 310.994 399.809 309.906C403.423 308.818 406.786 306.991 409.707 304.527C415.021 300.046 415.767 292.031 411.398 286.361L340.696 194.595C335.869 188.334 328.899 184.304 321.319 183.39C313.739 182.477 306.168 184.755 300.272 189.722Z" fill="#4E6AFA"/>
<path d="M350.5 194.501C340.608 190.161 336.048 208.669 342.572 217.384C362.073 243.438 382.085 269.009 398.797 298.123C401.485 302.806 406.73 305.601 411.375 303.16C416.407 300.515 417.076 293.731 413.822 288.867L361.947 211.323C358.19 205.706 356.172 196.989 350.5 194.501Z" fill="#3B50BB"/>
</g>
<defs>
<clipPath id="clip0">
<rect width="437" height="455" fill="white" transform="translate(437.572 455) rotate(179.928)"/>
</clipPath>
</defs>
</svg>
