<svg width="1386" height="633" viewBox="0 0 1386 633" fill="none" xmlns="http://www.w3.org/2000/svg">
<path d="M587.242 233.04C585.398 237.451 581.746 240.142 577.057 240.545C583.482 246.323 598.356 275.039 598.154 279.765C602.58 274.3 604.941 273.238 609.542 273.747C609.237 268.038 591.701 238.063 587.242 233.04Z" fill="#FFDD8F"/>
<path d="M999.514 596.222C994.755 595.77 991.101 593.081 989.325 588.723C985.714 596.574 962.707 619.3 958.133 620.51C964.666 623.114 966.38 625.054 967.26 629.599C972.621 627.613 996.042 601.971 999.514 596.222Z" fill="#FEECA4"/>
<path d="M1046.51 84.2218C1041.76 83.7701 1038.1 81.081 1036.33 76.7234C1032.71 84.5737 1009.71 107.3 1005.13 108.51C1011.67 111.114 1013.38 113.054 1014.26 117.599C1019.62 115.613 1043.04 89.9707 1046.51 84.2218Z" fill="#FEECA4"/>
<path d="M1347.51 422.222C1342.76 421.77 1339.1 419.081 1337.33 414.723C1333.71 422.574 1310.71 445.3 1306.13 446.51C1312.67 449.114 1314.38 451.054 1315.26 455.599C1320.62 453.613 1344.04 427.971 1347.51 422.222Z" fill="#FFDD8F"/>
<path d="M416.176 572.4C409.027 577.227 408.928 575.547 402.031 575.045C412.719 593.797 417.246 603.676 418.985 616.065C423.092 610.631 427.906 610.568 430.97 611.32C426.812 601.477 417.303 584.638 416.176 572.4Z" fill="#B1B9E4"/>
<path d="M1338.18 560.4C1331.03 565.227 1330.93 563.547 1324.03 563.045C1334.72 581.797 1339.25 591.676 1340.99 604.065C1345.09 598.631 1349.91 598.568 1352.97 599.32C1348.81 589.477 1339.3 572.638 1338.18 560.4Z" fill="#B1B9E4"/>
<path d="M1214.18 96.3999C1207.03 101.227 1206.93 99.5468 1200.03 99.0454C1210.72 117.797 1215.25 127.676 1216.99 140.065C1221.09 134.631 1225.91 134.568 1228.97 135.32C1224.81 125.477 1215.3 108.638 1214.18 96.3999Z" fill="#B1B9E4"/>
<path d="M711.251 109.829C706.54 110.642 702.309 109.005 699.452 105.266C698.026 113.789 681.785 141.753 677.689 144.121C684.677 144.921 686.839 146.342 688.881 150.498C693.533 147.175 709.408 116.288 711.251 109.829Z" fill="#FAC7D0"/>
<path d="M1332.06 4.82928C1336.77 5.64169 1341 4.00518 1343.86 0.265936C1345.29 8.78852 1361.53 36.7535 1365.62 39.1208C1358.64 39.9205 1356.47 41.3425 1354.43 45.4979C1349.78 42.1751 1333.91 11.2877 1332.06 4.82928Z" fill="#FAC7D0"/>
<path d="M862.933 23.1057C862.103 28.3351 857.339 28.061 849.114 27.0752L883.059 53.1697C884.215 48.7278 893.173 49.8536 900.993 50.5031C890.882 45.9846 875.197 33.6686 862.933 23.1057Z" fill="#9ECFC0"/>
<path d="M601.933 342.106C601.103 347.335 596.339 347.061 588.114 346.075L622.059 372.17C623.215 367.728 632.173 368.854 639.993 369.503C629.882 364.985 614.197 352.669 601.933 342.106Z" fill="#9ECFC0"/>
<path d="M1347.93 284.106C1347.1 289.335 1342.34 289.061 1334.11 288.075L1368.06 314.17C1369.21 309.728 1378.17 310.854 1385.99 311.503C1375.88 306.985 1360.2 294.669 1347.93 284.106Z" fill="#9ECFC0"/>
<path d="M1101.93 602.106C1101.1 607.335 1096.34 607.061 1088.11 606.075L1122.06 632.17C1123.21 627.728 1132.17 628.854 1139.99 629.503C1129.88 624.985 1114.2 612.669 1101.93 602.106Z" fill="#9ECFC0"/>
<path d="M273.242 309.04C271.398 313.451 267.746 316.142 263.057 316.545C269.482 322.323 284.356 351.039 284.154 355.765C288.58 350.3 290.941 349.238 295.542 349.747C295.237 344.038 277.701 314.063 273.242 309.04Z" fill="#FEECA4"/>
<path d="M42.5215 260.218C37.7625 259.766 34.1085 257.077 32.3324 252.719C28.7217 260.57 5.71417 283.296 1.14055 284.506C7.67337 287.11 9.38758 289.05 10.2673 293.595C15.6287 291.609 39.0491 265.967 42.5215 260.218Z" fill="#FFDD8F"/>
<path d="M38.2509 127.829C33.54 128.642 29.3086 127.005 26.4517 123.266C25.0265 131.789 8.78538 159.753 4.68928 162.121C11.6765 162.921 13.8394 164.342 15.8805 168.498C20.5333 165.175 36.4079 134.288 38.2509 127.829Z" fill="#FAC7D0"/>
<path d="M417.342 317.04C419.185 321.451 422.838 324.142 427.526 324.545C421.101 330.323 406.228 359.039 406.43 363.765C402.004 358.3 399.643 357.238 395.041 357.747C395.347 352.038 412.882 322.063 417.342 317.04Z" fill="#FAC7D0"/>
<path d="M121.933 38.1057C121.103 43.3351 116.339 43.061 108.114 42.0752L142.059 68.1697C143.215 63.7278 152.173 64.8536 159.993 65.5031C149.882 60.9846 134.197 48.6686 121.933 38.1057Z" fill="#9ECFC0"/>
<path d="M168.176 233.4C161.027 238.227 160.928 236.547 154.031 236.045C164.719 254.797 169.246 264.676 170.985 277.065C175.092 271.631 179.906 271.568 182.97 272.32C178.812 262.477 169.303 245.638 168.176 233.4Z" fill="#B1B9E4"/>
</svg>
