<svg width="706" height="733" viewBox="0 0 706 733" fill="none" xmlns="http://www.w3.org/2000/svg">
<g clip-path="url(#clip0)">
<path fill-rule="evenodd" clip-rule="evenodd" d="M333.737 138.412C363.896 160.541 369.001 204.95 398.901 227.435C439.52 257.981 521.871 239.795 534.539 289.415C546.757 337.279 472.804 362.654 443.586 402.474C423.076 430.427 413.453 464.264 388.584 488.333C360.415 515.597 330.024 544.661 291.424 549.745C251.706 554.977 208.416 543.022 178.743 515.972C150.516 490.24 161.59 441.082 138.626 410.456C107.272 368.639 23.8384 361.717 23.648 309.126C23.4671 259.147 107.409 257.406 137.929 217.964C169.094 177.69 152.977 100.446 199.869 81.3944C245.866 62.7066 293.756 109.075 333.737 138.412Z" fill="#C7C9F4"/>
<path fill-rule="evenodd" clip-rule="evenodd" d="M630.94 242.697C635.236 296.341 565.842 315.49 540.293 359.488C528.574 379.67 533.593 406.799 523.36 427.959C511.074 453.363 494.65 474.436 475.286 493.907C442.015 527.361 415.254 600.144 369.569 582.597C322.927 564.681 357.225 474.543 322.827 435.348C286.697 394.179 199.246 421.678 182.242 369.146C166.468 320.411 229.639 287.451 265.104 257.019C289.555 236.039 321.565 230.524 352.719 222.863C375.072 217.367 399.072 226.07 420.835 218.724C458.583 205.981 484.176 160.181 524.704 164.805C567.072 169.639 627.313 197.406 630.94 242.697Z" fill="#64C0C1"/>
<path d="M294.364 273.758C298.616 278.682 297.139 286.954 291.066 292.233L215.56 357.871C209.487 363.15 201.117 363.438 196.865 358.513L79.8418 222.981C75.5898 218.057 77.0659 209.785 83.1389 204.506L158.645 138.868C164.718 133.589 173.088 133.301 177.34 138.226L294.364 273.758Z" fill="#A9D5C7"/>
<path fill-rule="evenodd" clip-rule="evenodd" d="M213.507 355.493L289.013 289.856C293.467 285.984 294.549 279.918 291.431 276.307L174.408 140.775C171.289 137.163 165.151 137.374 160.698 141.246L85.1919 206.883C80.7384 210.755 79.6559 216.821 82.7741 220.432L199.798 355.964C202.916 359.575 209.054 359.365 213.507 355.493ZM291.066 292.233C297.139 286.954 298.616 278.682 294.364 273.758L177.34 138.226C173.088 133.301 164.718 133.589 158.645 138.868L83.1389 204.506C77.0659 209.785 75.5898 218.057 79.8418 222.981L196.865 358.513C201.117 363.438 209.487 363.15 215.56 357.871L291.066 292.233Z" fill="#5DB097"/>
<path d="M272.644 269.412L178.088 159.901C164.182 173.931 153.156 167.499 149.381 162.53L108.094 198.421C116.711 208.402 106.037 223.344 101.116 226.813L194.954 335.493C209.065 323.614 221.285 329.913 225.631 334.548L267.508 298.144C257.519 288.967 266.77 275.165 272.644 269.412Z" fill="#64C0C1"/>
<path d="M162.82 272.52C174.421 285.955 195.093 287.05 208.992 274.966C222.892 262.883 224.761 242.194 213.16 228.759C201.56 215.323 180.886 214.23 166.985 226.315C153.083 238.399 151.22 259.084 162.82 272.52Z" fill="#96D6C1"/>
<path d="M165.401 270.276C176.086 282.651 194.883 283.871 207.392 272.997C219.9 262.124 221.367 243.288 210.682 230.913C199.997 218.538 181.201 217.317 168.691 228.192C156.181 239.067 154.716 257.901 165.401 270.276Z" fill="#70B9A2"/>
<mask id="mask0" mask-type="alpha" maskUnits="userSpaceOnUse" x="158" y="221" width="60" height="60">
<path d="M165.544 270.583C176.229 282.958 195.027 284.177 207.535 273.304C220.044 262.43 221.511 243.594 210.826 231.219C200.141 218.844 181.345 217.623 168.835 228.498C156.325 239.373 154.859 258.208 165.544 270.583Z" fill="#70B9A2"/>
</mask>
<g mask="url(#mask0)">
<path fill-rule="evenodd" clip-rule="evenodd" d="M173.596 255.664L187.073 244.365L187.978 245.472L174.261 256.972L167.29 259.991L161.375 264.95L160.471 263.843L166.626 258.683L173.596 255.664Z" fill="#9ECFC0"/>
<path fill-rule="evenodd" clip-rule="evenodd" d="M186.027 234.561L186.931 235.669L177.65 243.449L176.323 245.895L159.314 260.155L158.41 259.047L175.104 245.052L176.431 242.605L186.027 234.561Z" fill="#9ECFC0"/>
<path fill-rule="evenodd" clip-rule="evenodd" d="M180.237 246.137L191.938 236.328L192.843 237.435L180.898 247.448L176.59 249.296L160.264 262.983L159.359 261.875L175.929 247.985L180.237 246.137Z" fill="#9ECFC0"/>
<path fill-rule="evenodd" clip-rule="evenodd" d="M178.897 231.048L179.802 232.155L171.271 239.313L169.094 244.845L158.362 253.843L157.457 252.736L167.774 244.086L169.951 238.555L178.897 231.048Z" fill="#9ECFC0"/>
<path fill-rule="evenodd" clip-rule="evenodd" d="M189.887 225.747L190.791 226.854L178.3 237.327L174.503 244.553L159.101 257.464L158.197 256.357L173.274 243.719L177.07 236.493L189.887 225.747Z" fill="#9ECFC0"/>
<path fill-rule="evenodd" clip-rule="evenodd" d="M215.125 235.219L210.232 239.472L204.425 241.664L193.885 250.827L192.951 249.745L203.782 240.33L209.589 238.137L214.191 234.137L215.125 235.219Z" fill="#9ECFC0"/>
<path fill-rule="evenodd" clip-rule="evenodd" d="M204.506 251.083L218.91 238.562L217.976 237.48L203.224 250.304L202.185 252.561L194.197 259.505L195.131 260.587L203.466 253.341L204.506 251.083Z" fill="#9ECFC0"/>
<path fill-rule="evenodd" clip-rule="evenodd" d="M216.752 236.757L202.766 248.915L198.976 250.418L189.157 258.954L188.223 257.872L198.319 249.096L202.109 247.592L215.818 235.675L216.752 236.757Z" fill="#9ECFC0"/>
<path fill-rule="evenodd" clip-rule="evenodd" d="M212.507 251.147L222.115 242.796L221.181 241.714L211.128 250.453L209.368 255.953L201.427 262.855L202.361 263.937L210.748 256.647L212.507 251.147Z" fill="#9ECFC0"/>
<path fill-rule="evenodd" clip-rule="evenodd" d="M206.43 252.461L220.157 240.528L219.223 239.447L205.163 251.669L201.865 258.505L190.494 268.39L191.428 269.472L203.132 259.297L206.43 252.461Z" fill="#9ECFC0"/>
<path d="M179.002 231.912C179.323 232.284 179.895 232.314 180.28 231.98C180.666 231.645 180.717 231.072 180.396 230.7C180.075 230.328 179.502 230.297 179.117 230.632C178.732 230.967 178.68 231.54 179.002 231.912Z" fill="#9ECFC0"/>
<path d="M190.866 227.023C190.72 227.181 190.536 227.298 190.337 227.36C190.138 227.422 189.934 227.425 189.753 227.369C189.572 227.313 189.421 227.201 189.322 227.047C189.223 226.894 189.179 226.706 189.197 226.509C189.214 226.313 189.293 226.116 189.422 225.946C189.55 225.776 189.723 225.64 189.917 225.557C190.111 225.474 190.316 225.447 190.507 225.481C190.697 225.514 190.863 225.606 190.982 225.744C191.138 225.901 191.214 226.124 191.192 226.364C191.171 226.604 191.053 226.841 190.866 227.023Z" fill="#9ECFC0"/>
<path d="M202.512 264.32C202.366 264.477 202.181 264.595 201.982 264.656C201.783 264.718 201.58 264.721 201.399 264.665C201.217 264.61 201.067 264.497 200.968 264.344C200.868 264.19 200.824 264.003 200.842 263.806C200.86 263.609 200.938 263.413 201.067 263.242C201.196 263.072 201.368 262.937 201.562 262.853C201.756 262.77 201.962 262.744 202.152 262.777C202.342 262.81 202.508 262.902 202.627 263.04C202.784 263.198 202.859 263.421 202.838 263.661C202.816 263.9 202.699 264.137 202.512 264.32Z" fill="#9ECFC0"/>
<path d="M190.968 270.109C190.823 270.266 190.638 270.384 190.439 270.446C190.241 270.508 190.037 270.512 189.855 270.456C189.674 270.4 189.523 270.289 189.424 270.135C189.324 269.982 189.28 269.794 189.297 269.597C189.315 269.4 189.393 269.204 189.522 269.033C189.65 268.863 189.823 268.727 190.017 268.644C190.211 268.561 190.417 268.534 190.607 268.567C190.797 268.6 190.963 268.692 191.082 268.83C191.405 269.2 191.355 269.773 190.968 270.109Z" fill="#9ECFC0"/>
<path d="M195.148 260.814C195.002 260.972 194.817 261.089 194.619 261.151C194.42 261.212 194.216 261.216 194.035 261.16C193.854 261.104 193.703 260.992 193.604 260.839C193.504 260.685 193.461 260.498 193.478 260.301C193.496 260.105 193.574 259.908 193.702 259.738C193.831 259.568 194.003 259.432 194.197 259.348C194.391 259.265 194.596 259.238 194.786 259.271C194.977 259.304 195.143 259.395 195.262 259.533C195.584 259.906 195.532 260.48 195.148 260.814Z" fill="#9ECFC0"/>
<path d="M187.064 235.754C186.858 235.916 186.607 236.001 186.367 235.99C186.126 235.979 185.916 235.873 185.781 235.695C185.461 235.323 185.511 234.751 185.895 234.416C186.106 234.27 186.352 234.196 186.587 234.209C186.822 234.222 187.031 234.32 187.173 234.485C187.316 234.65 187.383 234.871 187.362 235.106C187.341 235.342 187.233 235.575 187.059 235.764L187.064 235.754Z" fill="#9ECFC0"/>
<path d="M169.684 251.984L192.349 232.281L199.002 239.987C201.773 243.197 203.377 245.847 203.813 247.937C204.248 250.027 203.393 252.002 201.247 253.863C200.717 254.334 200.126 254.728 199.496 255.03C199.004 255.271 198.496 255.468 197.981 255.62C197.485 255.734 196.989 255.713 196.548 255.56C196.02 255.403 195.623 255.277 195.355 255.185C194.917 254.98 194.517 254.714 194.168 254.394C193.642 253.961 193.309 253.671 193.164 253.525L192.186 252.555L190.896 253.677C191.591 254.528 192.128 255.237 192.507 255.804C192.947 256.486 193.333 257.205 193.661 257.956C194.012 258.667 194.202 259.463 194.22 260.298C194.182 261.089 193.96 261.89 193.571 262.641C193.079 263.583 192.387 264.434 191.548 265.128C190.656 265.94 189.594 266.535 188.473 266.85C187.471 267.119 186.456 267.152 185.517 266.945C184.429 266.666 183.425 266.208 182.541 265.586C181.491 264.89 180.512 264.105 179.613 263.238C178.714 262.369 177.728 261.314 176.653 260.072L169.684 251.984ZM188.024 244.742L190.924 248.101C191.371 248.618 191.708 248.997 191.935 249.238C192.217 249.53 192.519 249.803 192.838 250.057C193.104 250.309 193.438 250.485 193.814 250.57C194.131 250.598 194.462 250.558 194.784 250.454C195.208 250.3 195.608 250.064 195.957 249.76C196.306 249.457 196.597 249.093 196.809 248.694C196.958 248.389 197.044 248.066 197.061 247.747C197.03 247.362 196.905 247.005 196.696 246.703C196.491 246.35 196.264 246.012 196.017 245.689C195.815 245.431 195.489 245.043 195.037 244.525L192.137 241.166L188.024 244.742ZM178.476 253.043L181.696 256.773C182.34 257.518 182.813 258.066 183.134 258.405C183.516 258.811 183.927 259.188 184.365 259.536C184.87 259.95 185.293 260.18 185.635 260.228C186.024 260.271 186.431 260.232 186.831 260.113C187.352 259.952 187.843 259.666 188.255 259.282C188.695 258.922 189.051 258.472 189.29 257.974C189.474 257.591 189.576 257.187 189.59 256.789C189.592 256.443 189.426 255.989 189.091 255.428C188.809 254.945 188.494 254.483 188.149 254.046C187.855 253.683 187.387 253.131 186.743 252.385L183.523 248.655L178.476 253.043Z" fill="#DDEEE8"/>
</g>
<mask id="mask1" mask-type="alpha" maskUnits="userSpaceOnUse" x="133" y="189" width="34" height="33">
<path d="M159.545 216.468C152.055 222.979 141.732 223.334 136.488 217.26C131.244 211.187 133.064 200.985 140.554 194.474C148.044 187.963 158.367 187.608 163.612 193.682C168.856 199.755 167.035 209.957 159.545 216.468Z" fill="#C4C4C4"/>
</mask>
<g mask="url(#mask1)">
<path d="M159.545 216.468C152.055 222.979 141.732 223.334 136.488 217.26C131.244 211.187 133.064 200.985 140.554 194.474C148.044 187.963 158.367 187.608 163.612 193.682C168.856 199.755 167.035 209.957 159.545 216.468Z" fill="#A9D5C7"/>
<path d="M129.082 223.547C130.287 224.942 132.693 224.831 134.456 223.299C136.218 221.766 136.671 219.393 135.466 217.997C134.261 216.602 131.855 216.713 130.092 218.245C128.329 219.778 127.877 222.151 129.082 223.547Z" fill="#F2F4FA"/>
<path d="M141.576 223.336C141.777 223.569 141.854 223.893 141.789 224.238C141.724 224.583 141.523 224.921 141.231 225.176C140.285 225.999 133.505 225.589 130.655 222.288C127.805 218.987 127.997 212.011 129.063 211.084C129.357 210.829 129.719 210.676 130.07 210.661C130.42 210.645 130.73 210.767 130.932 211.001L141.576 223.336Z" fill="#F2F4FA"/>
<path d="M140.628 205.862L140.538 206.231L130.883 206.179C130.076 206.175 129.379 205.851 128.947 205.278C128.515 204.705 128.382 203.93 128.578 203.124L128.668 202.755L138.324 202.807C139.131 202.811 139.827 203.135 140.259 203.708C140.691 204.281 140.824 205.056 140.628 205.862Z" fill="#F2F4FA"/>
<path d="M140.501 204.522C136.622 204.381 132.623 204.201 128.583 204.581C128.42 204.081 128.499 203.358 128.65 202.741L137.949 202.767C138.557 202.769 139.113 202.933 139.562 203.241C140.01 203.55 140.335 203.992 140.501 204.522Z" fill="#95C4B6"/>
<path d="M152.099 213.068C152.072 212.731 151.948 212.428 151.74 212.191C151.532 211.955 151.246 211.794 150.914 211.725C146.415 210.793 144.371 207.967 143.544 203.046C143.145 200.67 132.642 205.169 130.626 206.921C123.086 213.797 138.367 230.471 145.561 224.218C145.56 224.217 152.416 217.314 152.099 213.068Z" fill="#F2F4FA"/>
<path d="M146.548 227.827L146.177 227.838L147.749 218.175C147.881 217.368 148.329 216.585 148.994 215.998C149.66 215.411 150.489 215.069 151.299 215.047L151.67 215.037L150.098 224.699C149.967 225.507 149.519 226.29 148.853 226.877C148.187 227.463 147.358 227.805 146.548 227.827Z" fill="#F2F4FA"/>
<path d="M138.194 218.691C137.854 216.824 136.787 215.588 134.993 214.984C134.525 214.442 134.671 213.546 135.32 212.982L139.76 209.122C140.409 208.558 141.314 208.54 141.782 209.082L144.983 212.789C145.451 213.331 145.305 214.227 144.656 214.791L140.215 218.652C139.566 219.216 138.662 219.233 138.194 218.691Z" fill="#F1F3FF"/>
<path fill-rule="evenodd" clip-rule="evenodd" d="M141.453 209.368C141.105 208.966 140.449 208.99 139.991 209.388L135.55 213.249C135.113 213.628 134.986 214.236 135.276 214.641C137.096 215.281 138.201 216.56 138.573 218.458C138.93 218.804 139.548 218.764 139.985 218.385L144.425 214.525C144.883 214.126 145.001 213.478 144.654 213.075L141.453 209.368ZM139.53 208.855C140.37 208.125 141.522 208.114 142.111 208.796L145.312 212.503C145.9 213.185 145.726 214.328 144.886 215.058L140.445 218.918C139.605 219.648 138.453 219.659 137.865 218.977L137.813 218.917L137.798 218.834C137.478 217.077 136.484 215.925 134.795 215.357L134.716 215.33L134.664 215.27C134.075 214.588 134.249 213.445 135.089 212.715L139.53 208.855Z" fill="#95C3B6"/>
<path d="M140.256 209.575L140.232 209.548C140.181 209.488 140.08 209.491 140.008 209.553L138.446 210.912C138.373 210.974 138.357 211.074 138.408 211.134L138.432 211.161C138.483 211.221 138.584 211.218 138.656 211.156L140.218 209.797C140.291 209.735 140.307 209.635 140.256 209.575Z" fill="#A9CDC3"/>
<path d="M138.229 211.337L138.206 211.31C138.154 211.25 138.053 211.253 137.98 211.316L137.434 211.791C137.361 211.855 137.344 211.955 137.395 212.015L137.419 212.042C137.47 212.102 137.572 212.099 137.645 212.035L138.191 211.56C138.264 211.497 138.281 211.397 138.229 211.337Z" fill="#A9CDC3"/>
<path d="M141.272 216.709L141.252 216.686C141.209 216.636 141.114 216.648 141.039 216.712L139.434 218.108C139.359 218.172 139.334 218.265 139.378 218.316L139.397 218.338C139.44 218.388 139.536 218.377 139.61 218.312L141.216 216.916C141.29 216.852 141.315 216.759 141.272 216.709Z" fill="#A9CDC3"/>
<path d="M142.335 215.784L142.316 215.762C142.272 215.711 142.178 215.722 142.105 215.786L141.559 216.261C141.486 216.324 141.462 216.416 141.505 216.466L141.525 216.489C141.568 216.539 141.662 216.528 141.735 216.465L142.281 215.99C142.354 215.927 142.379 215.834 142.335 215.784Z" fill="#A9CDC3"/>
<path d="M130.612 206.933C132.63 205.179 143.143 200.678 143.542 203.058C143.739 204.299 144.119 205.693 144.32 206.147C144.414 206.362 142.636 204.438 139.377 204.576C135.756 204.729 130.612 206.933 130.612 206.933Z" fill="#95C4B6"/>
<path d="M147.793 227.726C149.114 227.33 149.894 226.236 150.107 224.928L151.59 215.81L151.476 215.816C150.767 215.858 149.905 226.726 147.793 227.726Z" fill="#95C4B6"/>
<path d="M132.536 223.816C129.089 222.079 127.134 215.888 128.566 212.164C128.144 218.474 132.47 223.935 132.536 223.816Z" fill="#5DB097"/>
<path d="M141.153 215.031L140.16 213.881L138.742 215.114L139.735 216.264L141.153 215.031Z" fill="#FCB614"/>
<path d="M140.16 213.881L139.202 212.771L137.784 214.004L138.741 215.114L140.16 213.881Z" fill="#EF4E63"/>
<path d="M141.63 212.603L140.672 211.494L139.203 212.771L140.16 213.88L141.63 212.603Z" fill="#63CCF5"/>
<path d="M146.238 204.073L146.161 203.983C145.986 203.781 145.638 203.797 145.383 204.019L144.685 204.625C144.43 204.847 144.365 205.19 144.54 205.393L144.617 205.482C144.791 205.684 145.14 205.668 145.395 205.447L146.092 204.84C146.347 204.619 146.413 204.275 146.238 204.073Z" fill="#F2F4FA"/>
<path d="M150.693 209.334L150.616 209.244C150.441 209.042 150.093 209.058 149.838 209.28L149.14 209.886C148.885 210.108 148.82 210.452 148.995 210.654L149.072 210.743C149.246 210.945 149.595 210.93 149.85 210.708L150.547 210.102C150.802 209.88 150.868 209.536 150.693 209.334Z" fill="#F2F4FA"/>
<path d="M150.299 210.316L149.716 210.822C149.674 210.862 149.626 210.895 149.575 210.92C149.525 210.944 149.472 210.958 149.421 210.962C149.37 210.966 149.321 210.959 149.279 210.942C149.237 210.925 149.202 210.898 149.176 210.863L148.963 210.616C149.276 210.785 149.733 210.66 150.299 210.316Z" fill="#95C4B6"/>
<path d="M145.187 204.19L144.573 204.724C144.525 204.761 144.484 204.805 144.451 204.853C144.418 204.901 144.394 204.953 144.381 205.004C144.368 205.056 144.366 205.106 144.375 205.152C144.384 205.198 144.405 205.238 144.435 205.27L144.649 205.518C144.531 205.183 144.741 204.723 145.187 204.19Z" fill="#5DB097"/>
<path d="M147.318 195.288C148.242 194.485 149.514 194.441 150.161 195.19L159.952 206.529C160.598 207.278 160.374 208.536 159.45 209.339C158.527 210.141 157.254 210.185 156.608 209.436L146.817 198.097C146.17 197.348 146.395 196.091 147.318 195.288Z" fill="#95C4B6"/>
<path d="M147.66 207.393C146.99 206.624 143.675 202.595 145.506 199.088C145.656 198.799 145.887 198.547 146.141 198.326L150.557 194.487C150.811 194.266 151.092 194.073 151.399 193.966C155.22 192.613 158.803 196.776 159.239 197.281C159.687 197.799 163.242 201.93 161.372 205.516C161.222 205.805 160.992 206.057 160.738 206.278L156.322 210.117C156.067 210.338 155.786 210.531 155.479 210.639C151.858 211.922 148.438 208.287 147.66 207.393Z" fill="#F2F4FA"/>
<path d="M149.106 206.089C148.546 205.445 145.764 202.084 147.023 199.389C147.126 199.168 147.296 198.975 147.487 198.809L150.734 195.987C150.926 195.82 151.14 195.679 151.372 195.608C154.288 194.721 157.285 198.201 157.649 198.623C158.023 199.057 160.997 202.511 159.712 205.267C159.61 205.488 159.439 205.681 159.248 205.847L156.001 208.669C155.81 208.836 155.596 208.978 155.363 209.048C152.601 209.891 149.756 206.837 149.106 206.089Z" fill="#FFFFFD"/>
<path d="M161.931 200.155C162.103 199.813 162.035 199.447 161.897 199.127L157.776 194.354C157.479 194.171 157.128 194.051 156.766 194.174C155.387 194.64 153.788 198.672 155.428 200.572C157.069 202.472 161.274 201.458 161.931 200.155Z" fill="#95C4B6"/>
<path d="M152.264 200.307C152.576 200.036 153.005 200.021 153.223 200.274C153.441 200.527 153.365 200.951 153.054 201.222L151.832 202.284C151.52 202.555 151.091 202.57 150.873 202.317C150.654 202.065 150.73 201.64 151.042 201.369L152.264 200.307Z" fill="#231F20"/>
<path d="M154.37 202.747C154.682 202.476 155.111 202.461 155.33 202.714C155.548 202.967 155.472 203.391 155.16 203.662L153.938 204.724C153.627 204.995 153.197 205.01 152.979 204.757C152.761 204.505 152.837 204.08 153.148 203.809L154.37 202.747Z" fill="#231F20"/>
</g>
<path d="M135.123 249.849L181.83 303.943L173.766 310.953L127.059 256.859L135.123 249.849Z" fill="#A9D5C7"/>
<path d="M278.749 288.372C276.724 290.132 273.934 290.228 272.517 288.586C271.1 286.945 271.592 284.187 273.616 282.428C275.64 280.668 278.43 280.572 279.848 282.214C281.265 283.855 280.773 286.612 278.749 288.372Z" fill="#5DB097"/>
<path d="M99.6352 216.18C97.6109 217.94 94.8209 218.036 93.4036 216.394C91.9863 214.753 92.4783 211.996 94.5026 210.236C96.5269 208.476 99.3169 208.38 100.734 210.022C102.152 211.663 101.66 214.421 99.6352 216.18Z" fill="#5DB097"/>
<path d="M166.344 158.19C164.32 159.949 161.53 160.045 160.113 158.404C158.695 156.762 159.187 154.005 161.212 152.245C163.236 150.486 166.026 150.39 167.443 152.031C168.861 153.673 168.369 156.43 166.344 158.19Z" fill="#5DB097"/>
<path d="M209.473 343.391C207.449 345.15 204.659 345.246 203.241 343.605C201.824 341.963 202.316 339.206 204.341 337.446C206.365 335.686 209.155 335.591 210.572 337.232C211.99 338.874 211.497 341.631 209.473 343.391Z" fill="#5DB097"/>
<path d="M546.446 219.665L544.284 219.074C541.514 218.317 539.031 216.752 537.148 214.579C535.264 212.406 534.065 209.722 533.701 206.865C533.338 204.008 533.826 201.107 535.105 198.529C536.384 195.951 538.396 193.811 540.887 192.379L542.442 191.486C545.782 189.567 548.225 186.396 549.235 182.67C550.246 178.944 549.74 174.967 547.83 171.615L534.713 148.63C533.768 146.969 532.506 145.512 530.998 144.341C529.491 143.17 527.768 142.309 525.929 141.806C524.089 141.304 522.169 141.171 520.278 141.414C518.388 141.658 516.563 142.273 514.909 143.224L513.342 144.124C510.852 145.555 507.995 146.213 505.132 146.014C502.27 145.816 499.53 144.77 497.26 143.009C494.989 141.248 493.29 138.851 492.378 136.121C491.465 133.392 491.38 130.452 492.132 127.673L492.728 125.475C493.738 121.75 493.232 117.774 491.321 114.423C489.41 111.072 486.25 108.62 482.537 107.607L457.066 100.654C455.227 100.15 453.307 100.016 451.416 100.257C449.525 100.499 447.701 101.112 446.046 102.061C444.391 103.01 442.939 104.278 441.773 105.79C440.607 107.303 439.749 109.031 439.248 110.877L438.491 113.67C437.739 116.449 436.181 118.942 434.017 120.833C431.852 122.724 429.177 123.929 426.329 124.294C423.482 124.659 420.591 124.168 418.022 122.884C415.453 121.601 413.321 119.581 411.896 117.081L410.567 114.751C409.622 113.09 408.359 111.632 406.852 110.461C405.344 109.29 403.622 108.429 401.782 107.927C399.943 107.425 398.023 107.292 396.132 107.535C394.241 107.778 392.417 108.393 390.763 109.345L367.849 122.494C364.51 124.414 362.066 127.585 361.056 131.311C360.046 135.037 360.551 139.013 362.461 142.365L363.352 143.926C364.772 146.423 365.423 149.286 365.225 152.154C365.027 155.022 363.987 157.767 362.237 160.043C360.487 162.319 358.105 164.025 355.39 164.945C352.676 165.866 349.751 165.96 346.984 165.216L345.432 164.792C343.591 164.282 341.668 164.141 339.772 164.379C337.877 164.616 336.047 165.227 334.387 166.175C332.728 167.124 331.271 168.392 330.101 169.907C328.931 171.422 328.071 173.154 327.569 175.003L320.64 200.561C320.139 202.406 320.006 204.332 320.248 206.229C320.49 208.126 321.102 209.957 322.049 211.617C322.996 213.276 324.26 214.733 325.769 215.902C327.277 217.071 329 217.931 330.84 218.432L333.012 219.025C335.781 219.782 338.264 221.346 340.148 223.519C342.031 225.693 343.231 228.377 343.594 231.234C343.958 234.091 343.469 236.991 342.19 239.57C340.911 242.148 338.899 244.288 336.409 245.719L334.087 247.053C330.747 248.972 328.304 252.143 327.294 255.869C326.283 259.595 326.789 263.571 328.699 266.924L341.804 289.915C343.718 293.267 346.88 295.719 350.595 296.733C354.31 297.748 358.274 297.24 361.617 295.324L363.939 293.99C366.43 292.559 369.288 291.902 372.151 292.101C375.015 292.3 377.755 293.347 380.025 295.109C382.296 296.871 383.994 299.269 384.906 302C385.817 304.731 385.901 307.672 385.147 310.451L384.558 312.621C383.547 316.349 384.054 320.327 385.966 323.68C387.879 327.033 391.04 329.487 394.756 330.501L420.227 337.454C422.066 337.956 423.986 338.09 425.877 337.847C427.767 337.604 429.592 336.99 431.246 336.04C432.9 335.089 434.351 333.821 435.517 332.308C436.682 330.794 437.539 329.065 438.038 327.22L438.46 325.663C439.212 322.883 440.769 320.39 442.934 318.499C445.099 316.608 447.774 315.404 450.622 315.039C453.469 314.674 456.36 315.164 458.929 316.448C461.498 317.732 463.63 319.752 465.055 322.252L465.952 323.824C467.865 327.175 471.025 329.627 474.739 330.641C478.452 331.654 482.415 331.147 485.756 329.23L508.656 316.097C511.995 314.178 514.439 311.006 515.449 307.28C516.459 303.554 515.954 299.578 514.044 296.226L512.715 293.896C511.29 291.396 510.636 288.528 510.835 285.655C511.034 282.782 512.078 280.033 513.834 277.754C515.589 275.476 517.979 273.771 520.7 272.855C523.421 271.939 526.352 271.853 529.122 272.607L531.86 273.355C535.573 274.368 539.535 273.86 542.875 271.943C546.214 270.025 548.658 266.855 549.668 263.129L556.61 237.526C557.619 233.805 557.115 229.835 555.21 226.486C553.304 223.137 550.153 220.684 546.446 219.665ZM427.795 273.282C417.533 270.482 408.328 264.692 401.345 256.643C394.363 248.594 389.916 238.648 388.567 228.063C387.218 217.478 389.028 206.729 393.768 197.176C398.508 187.624 405.965 179.696 415.195 174.395C424.426 169.095 435.016 166.661 445.625 167.4C456.235 168.139 466.388 172.019 474.8 178.548C483.212 185.077 489.505 193.963 492.884 204.081C496.263 214.2 496.575 225.096 493.781 235.393C490.038 249.197 480.984 260.944 468.609 268.05C456.234 275.155 441.553 277.037 427.795 273.282Z" fill="#F5A64A"/>
<path d="M582.754 327.098L581.118 326.651C579.033 326.086 577.162 324.911 575.743 323.275C574.324 321.639 573.421 319.616 573.147 317.462C572.873 315.307 573.241 313.119 574.205 311.175C575.169 309.23 576.685 307.615 578.561 306.536L579.738 305.858C580.984 305.144 582.077 304.19 582.956 303.05C583.835 301.911 584.481 300.608 584.858 299.217C585.235 297.827 585.335 296.375 585.153 294.946C584.971 293.517 584.51 292.138 583.797 290.889L573.949 273.574C572.508 271.044 570.126 269.193 567.327 268.429C564.528 267.665 561.54 268.05 559.02 269.499L557.843 270.177C555.963 271.267 553.805 271.772 551.641 271.628C549.478 271.483 547.406 270.696 545.69 269.365C543.973 268.035 542.689 266.222 542 264.155C541.311 262.089 541.248 259.862 541.819 257.758L542.265 256.113C542.641 254.72 542.741 253.267 542.558 251.837C542.376 250.407 541.915 249.027 541.202 247.776C540.489 246.525 539.537 245.428 538.402 244.548C537.267 243.667 535.97 243.02 534.586 242.644L515.392 237.405C514.008 237.025 512.564 236.924 511.14 237.106C509.717 237.288 508.343 237.75 507.097 238.466C505.85 239.182 504.756 240.137 503.877 241.278C502.997 242.418 502.349 243.722 501.97 245.113L501.401 247.213C500.831 249.317 499.653 251.205 498.015 252.636C496.378 254.067 494.355 254.978 492.203 255.252C490.052 255.527 487.868 255.153 485.93 254.177C483.992 253.202 482.386 251.67 481.316 249.775L480.315 248.014C478.874 245.484 476.492 243.633 473.693 242.869C470.894 242.105 467.906 242.49 465.386 243.939L448.153 253.861C446.907 254.576 445.814 255.53 444.935 256.67C444.057 257.809 443.41 259.112 443.033 260.502C442.656 261.893 442.556 263.345 442.738 264.774C442.92 266.203 443.381 267.582 444.094 268.831L444.767 270.014C445.84 271.899 446.332 274.062 446.181 276.23C446.029 278.397 445.24 280.472 443.915 282.19C442.59 283.908 440.788 285.192 438.737 285.88C436.686 286.568 434.479 286.628 432.396 286.053L431.267 285.745C429.881 285.357 428.431 285.249 427.003 285.426C425.574 285.603 424.193 286.062 422.941 286.777C421.688 287.492 420.588 288.448 419.704 289.591C418.82 290.735 418.169 292.042 417.789 293.438L412.558 312.732C412.182 314.124 412.083 315.577 412.265 317.007C412.448 318.438 412.909 319.818 413.622 321.068C414.335 322.319 415.286 323.416 416.421 324.296C417.557 325.177 418.853 325.824 420.238 326.2L421.885 326.65C423.97 327.215 425.841 328.39 427.26 330.026C428.679 331.662 429.582 333.685 429.856 335.839C430.13 337.993 429.762 340.181 428.798 342.126C427.834 344.071 426.318 345.686 424.442 346.765L422.676 347.782C421.43 348.496 420.337 349.45 419.458 350.59C418.579 351.729 417.933 353.032 417.556 354.423C417.179 355.813 417.079 357.265 417.261 358.694C417.443 360.123 417.904 361.502 418.617 362.751L428.465 380.066C429.908 382.594 432.29 384.442 435.088 385.206C437.887 385.97 440.873 385.587 443.394 384.141L445.146 383.132C447.025 382.042 449.183 381.537 451.347 381.682C453.511 381.826 455.582 382.613 457.299 383.944C459.015 385.274 460.299 387.088 460.988 389.154C461.678 391.22 461.741 393.447 461.169 395.551L460.726 397.185C459.977 399.996 460.367 402.989 461.811 405.508C463.254 408.027 465.633 409.867 468.426 410.623L487.609 415.859C488.993 416.238 490.437 416.34 491.861 416.158C493.284 415.976 494.658 415.514 495.904 414.798C497.15 414.082 498.245 413.126 499.124 411.986C500.004 410.845 500.651 409.542 501.03 408.151L501.338 407.016C501.908 404.911 503.086 403.024 504.724 401.593C506.361 400.161 508.384 399.251 510.536 398.976C512.687 398.702 514.871 399.076 516.809 400.051C518.747 401.026 520.353 402.559 521.423 404.454L522.096 405.637C523.539 408.165 525.921 410.013 528.719 410.777C531.518 411.541 534.504 411.158 537.025 409.712L554.258 399.79C555.504 399.076 556.597 398.121 557.476 396.982C558.354 395.842 559.001 394.54 559.378 393.149C559.755 391.758 559.855 390.307 559.673 388.877C559.491 387.448 559.03 386.07 558.317 384.821L557.296 383.043C556.223 381.158 555.731 378.995 555.883 376.827C556.034 374.659 556.823 372.585 558.148 370.867C559.473 369.149 561.275 367.864 563.326 367.176C565.377 366.489 567.584 366.428 569.668 367.003L571.767 367.576C573.15 367.955 574.595 368.057 576.018 367.875C577.441 367.693 578.815 367.231 580.062 366.515C581.308 365.799 582.402 364.844 583.282 363.703C584.161 362.563 584.809 361.259 585.188 359.868L590.419 340.575C591.181 337.763 590.802 334.764 589.364 332.237C587.927 329.709 585.549 327.861 582.754 327.098ZM493.326 367.506C485.62 365.384 478.715 361.011 473.484 354.941C468.253 348.871 464.93 341.377 463.935 333.404C462.941 325.432 464.319 317.339 467.897 310.148C471.474 302.957 477.089 296.991 484.033 293.003C490.978 289.016 498.939 287.185 506.912 287.744C514.885 288.302 522.511 291.224 528.828 296.141C535.145 301.057 539.869 307.747 542.402 315.366C544.936 322.985 545.166 331.191 543.063 338.946C541.658 344.103 539.258 348.932 535.998 353.158C532.738 357.384 528.684 360.924 524.065 363.576C519.447 366.228 514.355 367.94 509.081 368.615C503.807 369.289 498.453 368.912 493.326 367.506Z" fill="#FFECD7"/>
<path d="M236.264 132.001L254.905 59.576C257.37 50.0008 267.28 44.4378 277.029 47.2187L341.872 65.7679C351.619 68.5562 357.514 78.5933 355.042 88.1979L336.653 159.643C335.046 165.889 330.149 170.68 323.89 172.219L304.838 176.827C298.376 178.387 293.426 183.384 291.963 189.837L281.733 234.192C279.464 244.036 269.424 249.815 259.505 246.986C249.56 244.141 243.666 233.756 246.47 224.057L258.955 180.846C260.768 174.572 258.977 167.694 254.275 162.901L241.106 149.462C236.512 144.787 234.681 138.151 236.264 132.001Z" fill="#F3748A"/>
<path d="M313.101 143.79L249.791 125.679C245.154 124.352 242.345 119.574 243.523 114.997L253.118 77.7177C254.296 73.1404 259.014 70.5015 263.652 71.8281L326.977 89.8805C331.614 91.2071 334.421 95.9916 333.243 100.569L323.643 137.868C322.421 142.467 317.71 145.101 313.101 143.79Z" fill="#F3748A"/>
<path d="M245.906 110.301L339.221 137.844L344.391 116.934C344.391 116.934 332.754 124.013 327.405 101.06C321.23 74.5282 303.167 114.217 295.246 102.766C287.325 91.3158 294.735 48.6576 270.256 92.0496C254.416 120.089 256.503 78.2765 251.218 94.2926L245.906 110.301Z" fill="#F2DADB"/>
<g clip-path="url(#clip1)">
<path d="M306.93 425.011C319.8 425.135 330.336 414.558 330.462 401.385C330.589 388.213 320.258 377.433 307.388 377.309C294.517 377.185 283.981 387.762 283.855 400.935C283.728 414.107 294.059 424.886 306.93 425.011Z" fill="#4E6AFA"/>
<path d="M285.377 409.4C289.518 422.119 304.413 428.585 316.165 422.97C303.728 422.691 292.977 419.129 285.377 409.4Z" fill="#7188FB"/>
<path d="M363.588 371.483C364.656 371.493 365.712 371.719 366.695 372.148C367.679 372.577 368.57 373.2 369.317 373.982C370.064 374.764 370.653 375.689 371.05 376.705C371.447 377.72 371.645 378.806 371.632 379.9C371.563 386.997 338.05 414.213 307.559 413.919C277.068 413.624 241.398 386.58 241.475 378.642C241.497 376.436 242.375 374.329 243.914 372.785C245.454 371.24 247.529 370.385 249.684 370.405L363.588 371.483Z" fill="#B8C3FD"/>
<path d="M358.562 288.62C356.666 287.468 354.501 286.859 352.296 286.858C350.09 286.856 347.924 287.461 346.025 288.61C320.283 304.169 295.967 302.241 266.295 287.305C251.999 280.109 226.898 341.416 226.753 356.505C227.924 414.149 386.263 411.922 386.781 358.052C386.781 358.052 382.355 303.175 358.562 288.62Z" fill="#4E6AFA"/>
<path d="M407.344 265.92C410.359 267.812 411.308 271.767 409.481 274.823L379.388 325.162C377.335 328.595 374.032 331.05 370.204 331.986C366.376 332.923 362.337 332.263 358.977 330.154C355.965 328.264 355.017 324.313 356.842 321.259L386.938 270.915C388.991 267.483 392.293 265.028 396.12 264.091C399.946 263.155 403.984 263.812 407.344 265.92Z" fill="#4E6AFA"/>
<path d="M323.798 368.387C312.428 362.828 301.004 362.717 289.526 368.056C284.516 368.007 280.492 364.023 280.539 359.148L280.859 325.865C280.905 321.002 285.005 317.084 290.015 317.132L324.287 317.463C329.297 317.512 333.321 321.497 333.274 326.372L332.954 359.666C332.925 364.53 328.808 368.436 323.798 368.387Z" fill="#F1F3FF" stroke="#2C3C8C" stroke-width="5" stroke-miterlimit="10"/>
<path d="M299.479 327.31L312.383 327.434C312.55 327.435 312.714 327.477 312.862 327.555C313.01 327.633 313.139 327.746 313.237 327.885C313.334 328.023 313.398 328.183 313.425 328.351C313.451 328.52 313.437 328.693 313.386 328.855L309.873 339.936C309.822 340.098 309.809 340.271 309.834 340.44C309.86 340.608 309.924 340.768 310.021 340.906C310.118 341.045 310.245 341.159 310.393 341.238C310.54 341.317 310.704 341.36 310.87 341.363L314.025 341.394C314.203 341.396 314.377 341.443 314.533 341.532C314.688 341.621 314.819 341.749 314.913 341.903C315.008 342.057 315.063 342.233 315.074 342.415C315.085 342.597 315.051 342.779 314.975 342.944L308.033 357.996C307.939 358.197 307.788 358.364 307.6 358.474C307.411 358.585 307.194 358.633 306.977 358.613C306.761 358.593 306.555 358.505 306.389 358.362C306.222 358.219 306.103 358.027 306.047 357.812L302.443 344.087C302.383 343.858 302.251 343.656 302.068 343.511C301.885 343.366 301.66 343.286 301.429 343.283L299.326 343.263C299.044 343.26 298.775 343.143 298.577 342.937C298.38 342.731 298.271 342.453 298.273 342.165L298.406 328.387C298.407 328.244 298.436 328.103 298.491 327.972C298.545 327.84 298.625 327.721 298.724 327.621C298.824 327.521 298.942 327.442 299.071 327.388C299.201 327.335 299.339 327.308 299.479 327.31Z" fill="#4E6AFA"/>
<path d="M301.592 325.63L314.496 325.755C314.663 325.756 314.827 325.798 314.975 325.876C315.124 325.954 315.252 326.067 315.349 326.206C315.447 326.344 315.512 326.504 315.538 326.672C315.564 326.841 315.551 327.014 315.5 327.176L311.986 338.257C311.934 338.419 311.92 338.592 311.945 338.761C311.97 338.93 312.034 339.09 312.131 339.23C312.228 339.369 312.356 339.482 312.504 339.561C312.653 339.64 312.816 339.682 312.983 339.684L316.137 339.715C316.315 339.716 316.491 339.764 316.646 339.853C316.801 339.942 316.932 340.069 317.026 340.224C317.121 340.378 317.176 340.554 317.187 340.736C317.198 340.918 317.164 341.1 317.088 341.265L310.146 356.317C310.053 356.518 309.902 356.685 309.713 356.795C309.524 356.906 309.307 356.954 309.09 356.934C308.874 356.914 308.668 356.826 308.502 356.683C308.336 356.54 308.216 356.348 308.16 356.133L304.557 342.408C304.495 342.179 304.362 341.976 304.178 341.831C303.994 341.686 303.769 341.606 303.536 341.604L301.439 341.584C301.157 341.581 300.888 341.464 300.69 341.258C300.493 341.052 300.384 340.774 300.387 340.485L300.519 326.708C300.522 326.42 300.636 326.144 300.837 325.941C301.039 325.74 301.31 325.628 301.592 325.63Z" stroke="black" stroke-miterlimit="10"/>
<path d="M226.794 356.464C226.939 341.363 252.011 280.051 266.336 287.258C273.769 291.058 282.819 294.68 286.132 295.536C287.697 295.933 269.369 296.267 255.011 310.566C239.057 326.455 226.794 356.464 226.794 356.464Z" fill="#3B50BB"/>
<path d="M285.637 325.476L284.982 325.47C284.563 325.466 284.22 325.81 284.216 326.238L284.099 338.464C284.095 338.892 284.431 339.243 284.85 339.247L285.504 339.254C285.924 339.258 286.266 338.913 286.27 338.485L286.388 326.259C286.392 325.831 286.056 325.48 285.637 325.476Z" fill="#DCE1FE"/>
<path d="M285.488 340.9L284.834 340.894C284.415 340.89 284.072 341.234 284.068 341.663L284.024 346.167C284.02 346.596 284.357 346.947 284.776 346.951L285.43 346.957C285.849 346.961 286.192 346.617 286.196 346.188L286.239 341.684C286.244 341.255 285.908 340.904 285.488 340.9Z" fill="#DCE1FE"/>
<path d="M327.674 348.188L327.019 348.182C326.601 348.178 326.257 348.522 326.253 348.951L326.136 361.176C326.132 361.605 326.468 361.956 326.887 361.96L327.542 361.966C327.961 361.97 328.304 361.626 328.308 361.197L328.425 348.972C328.429 348.543 328.093 348.192 327.674 348.188Z" fill="#DCE1FE"/>
<path d="M327.752 340.174L327.096 340.167C326.678 340.163 326.335 340.507 326.33 340.936L326.287 345.44C326.283 345.869 326.619 346.22 327.038 346.224L327.693 346.231C328.112 346.235 328.455 345.89 328.459 345.461L328.502 340.957C328.506 340.528 328.17 340.178 327.752 340.174Z" fill="#DCE1FE"/>
<path d="M281.652 291.069C283.789 292.854 287.399 290.954 287.499 288.279C287.51 287.103 287.531 284.94 287.531 284.94C286.844 288.273 285.308 290.263 281.652 291.069Z" fill="#B8C3FD"/>
<path d="M403.919 264.327C396.09 262.105 389.411 265.93 385.183 273.003L356.104 322.344L357.87 324.117C361.674 326.326 390.491 262.958 403.919 264.327Z" fill="#3B50BB"/>
<path d="M329.92 292.066C332.058 293.85 335.667 291.951 335.768 289.282C335.779 288.106 335.8 285.942 335.8 285.942C335.118 289.275 333.576 291.248 329.92 292.066Z" fill="#B8C3FD"/>
<path d="M324.157 411.644C299.113 419.777 257.645 404.78 244.767 384.613C275.865 410.231 324.467 412.377 324.157 411.644Z" fill="#7188FB"/>
<path d="M292.528 359.317L288.754 359.28L288.716 363.179L292.491 363.215L292.528 359.317Z" fill="#FCB614"/>
<path d="M288.76 359.28L284.985 359.244L284.948 363.142L288.722 363.179L288.76 359.28Z" fill="#EF4E63"/>
<path d="M288.797 355.381L285.022 355.345L284.985 359.244L288.76 359.28L288.797 355.381Z" fill="#63CCF5"/>
<path d="M284.923 279.61L282.648 279.588C281.178 279.574 279.976 280.781 279.961 282.285L279.897 289.006C279.882 290.509 281.062 291.74 282.531 291.754L284.806 291.776C286.275 291.791 287.478 290.583 287.492 289.08L287.557 282.358C287.571 280.855 286.392 279.624 284.923 279.61Z" fill="#4E6AFA"/>
<path d="M333.19 280.588L330.915 280.566C329.446 280.552 328.243 281.759 328.229 283.263L328.164 289.984C328.15 291.487 329.329 292.718 330.798 292.732L333.073 292.754C334.542 292.769 335.745 291.561 335.76 290.058L335.824 283.336C335.839 281.833 334.659 280.602 333.19 280.588Z" fill="#4E6AFA"/>
<path d="M362.925 229.43L253.521 228.372C247.886 228.317 243.274 232.857 243.22 238.511L243.17 243.675C243.116 249.329 247.64 253.957 253.275 254.011L362.679 255.069C368.314 255.123 372.926 250.584 372.98 244.93L373.03 239.766C373.084 234.112 368.56 229.484 362.925 229.43Z" fill="#3B50BB"/>
<path d="M308.215 286.011C301.085 285.967 264.619 284.898 254.721 263.517C253.899 261.758 253.644 259.797 253.663 257.853L253.988 223.977C254.007 222.031 254.298 220.08 255.155 218.334C265.757 196.583 304.163 197.004 308.828 197.049C313.613 197.095 351.729 197.513 361.865 219.365C362.687 221.125 362.941 223.086 362.923 225.03L362.597 258.905C362.579 260.852 362.288 262.802 361.431 264.549C351.395 285.169 316.506 286.067 308.215 286.011Z" fill="#4E6AFA"/>
<path d="M308.076 274.744C302.114 274.704 271.619 273.881 263.321 258.092C262.638 256.803 262.418 255.327 262.432 253.867L262.671 228.955C262.685 227.492 262.932 226.026 263.641 224.747C272.487 208.705 304.604 209.052 308.504 209.09C312.506 209.128 344.38 209.473 352.877 225.61C353.56 226.899 353.78 228.374 353.766 229.835L353.526 254.747C353.512 256.21 353.266 257.676 352.556 258.955C344.184 274.163 315.009 274.792 308.076 274.744Z" fill="#FFFFFD"/>
<path d="M336.358 196.392C335.367 194.336 333.13 193.228 330.812 192.599L286.717 192.173C284.388 192.757 282.129 193.821 281.1 195.857C277.161 203.625 290.888 226.014 308.44 226.183C325.992 226.353 340.146 204.234 336.358 196.392Z" fill="#3B50BB"/>
<path d="M265.6 327.859C268.341 325.59 268.765 321.492 266.563 318.559L231.017 271.209C229.816 269.606 228.329 268.265 226.643 267.261C224.957 266.256 223.104 265.609 221.19 265.356C219.277 265.103 217.34 265.249 215.49 265.786C213.641 266.322 211.915 267.239 210.411 268.484C207.673 270.75 207.249 274.844 209.449 277.775L245.005 325.139C247.433 328.371 250.966 330.473 254.828 330.983C258.69 331.492 262.565 330.369 265.6 327.859Z" fill="#4E6AFA"/>
<path d="M240.003 325.133C245.034 327.413 247.463 317.972 244.182 313.474C234.378 300.028 224.311 286.828 215.946 271.832C214.598 269.416 211.928 267.952 209.54 269.181C206.965 270.506 206.587 273.961 208.215 276.462L234.257 316.458C236.143 319.354 237.124 323.827 240.003 325.133Z" fill="#3B50BB"/>
<path d="M295.756 232.946L296.493 232.946C297.032 232.942 297.565 233.045 298.064 233.25C298.563 233.454 299.017 233.756 299.401 234.138C299.784 234.52 300.089 234.974 300.299 235.475C300.508 235.976 300.618 236.514 300.622 237.058L300.622 248.062C300.612 249.159 300.172 250.207 299.398 250.977C298.624 251.747 297.579 252.174 296.493 252.166L295.756 252.166C295.218 252.171 294.684 252.069 294.185 251.865C293.687 251.662 293.232 251.36 292.849 250.979C292.465 250.598 292.16 250.144 291.95 249.643C291.741 249.143 291.631 248.605 291.627 248.062L291.627 237.058C291.63 236.514 291.739 235.976 291.948 235.474C292.158 234.973 292.463 234.518 292.846 234.136C293.23 233.754 293.684 233.452 294.184 233.248C294.683 233.044 295.217 232.941 295.756 232.946Z" fill="#231F20"/>
<path d="M319.801 232.946L320.538 232.946C321.076 232.942 321.61 233.045 322.109 233.25C322.608 233.454 323.062 233.756 323.446 234.138C323.829 234.52 324.134 234.974 324.344 235.475C324.553 235.976 324.663 236.514 324.667 237.058L324.667 248.062C324.657 249.159 324.217 250.207 323.443 250.977C322.669 251.747 321.624 252.174 320.538 252.166L319.801 252.166C318.715 252.174 317.67 251.747 316.896 250.977C316.122 250.207 315.682 249.159 315.672 248.062L315.672 237.058C315.676 236.514 315.786 235.976 315.995 235.475C316.205 234.974 316.51 234.52 316.893 234.138C317.277 233.756 317.731 233.454 318.23 233.25C318.729 233.045 319.262 232.942 319.801 232.946Z" fill="#231F20"/>
</g>
<g clip-path="url(#clip2)">
<path d="M230.897 545.639C217.417 550.418 202.555 543.117 197.701 529.333C192.847 515.548 199.839 500.499 213.319 495.72C226.799 490.941 241.662 498.242 246.516 512.027C251.369 525.811 244.377 540.86 230.897 545.639Z" fill="#F2748A"/>
<path d="M247.963 521.46C248.169 536.31 234.835 548.479 220.472 546.829C233.43 542.048 243.449 534.419 247.963 521.46Z" fill="#E9B9BE"/>
<path d="M152.175 509.901C149.918 510.702 148.077 512.386 147.056 514.583C146.034 516.78 145.917 519.312 146.73 521.619C149.345 529.047 194.317 545.518 226.259 534.194C258.2 522.87 285.973 481.599 283.047 473.292C282.235 470.984 280.559 469.089 278.389 468.023C276.218 466.957 273.731 466.807 271.474 467.607L152.175 509.901Z" fill="#F2DADB"/>
<path d="M127.757 421.085C129.337 419.19 131.393 417.769 133.711 416.971C136.028 416.172 138.521 416.026 140.928 416.547C173.556 423.586 198.416 412.778 224.244 386.379C236.688 373.661 285.038 428.965 290.598 444.755C310.028 505.7 142.839 560.55 122.988 504.176C122.988 504.176 107.984 444.956 127.757 421.085Z" fill="#F2748A"/>
<path d="M290.541 444.727C284.976 428.924 236.654 373.604 224.185 386.345C217.735 393.02 209.524 400.091 206.349 402.186C204.847 403.168 224.226 396.901 244.439 406.727C266.905 417.645 290.541 444.727 290.541 444.727Z" fill="#D16179"/>
<path d="M208.003 537.828C237.236 537.342 275.437 506.598 281.742 480.773C258.251 518.9 207.935 538.71 208.003 537.828Z" fill="#E9B9BE"/>
<path d="M193.171 456.514L206.801 451.682C207.266 451.54 207.655 451.215 207.881 450.779C208.108 450.344 208.156 449.831 208.012 449.356L205.339 441.762C205.153 441.301 204.796 440.93 204.346 440.733C203.896 440.535 203.389 440.527 202.937 440.71L189.308 445.542C188.843 445.686 188.455 446.012 188.228 446.449C188.002 446.886 187.955 447.398 188.098 447.874L190.772 455.468C190.96 455.927 191.318 456.294 191.766 456.49C192.216 456.686 192.72 456.695 193.171 456.514Z" fill="#F2748A"/>
<path d="M192.878 492.28C202.833 482.337 214.8 478.094 228.779 479.553C234.02 477.694 236.821 472.057 235.025 466.956L222.76 432.126C220.968 427.037 215.255 424.404 210.014 426.262L174.113 438.99C168.865 440.85 166.065 446.487 167.861 451.589L180.13 486.431C181.913 491.495 187.63 494.141 192.878 492.28Z" fill="#F2DADB" stroke="#D16179" stroke-width="5" stroke-miterlimit="10"/>
<path d="M217.599 433.443L218.285 433.2C218.724 433.044 219.207 433.282 219.365 433.731L223.87 446.524C224.028 446.973 223.801 447.462 223.362 447.618L222.676 447.861C222.237 448.017 221.754 447.779 221.596 447.33L217.091 434.537C216.933 434.088 217.16 433.599 217.599 433.443Z" fill="#E9B9BE"/>
<path d="M223.282 449.584L223.969 449.341C224.407 449.186 224.891 449.423 225.049 449.872L226.709 454.585C226.866 455.034 226.639 455.524 226.2 455.679L225.514 455.923C225.076 456.078 224.592 455.84 224.434 455.392L222.774 450.678C222.616 450.23 222.844 449.74 223.282 449.584Z" fill="#E9B9BE"/>
<path d="M181.565 472.473L182.25 472.23C182.689 472.074 183.173 472.311 183.331 472.76L187.836 485.553C187.994 486.003 187.766 486.492 187.327 486.647L186.641 486.891C186.203 487.046 185.719 486.809 185.561 486.36L181.056 473.567C180.898 473.118 181.126 472.628 181.565 472.473Z" fill="#E9B9BE"/>
<path d="M178.61 464.085L179.296 463.842C179.735 463.686 180.219 463.924 180.377 464.373L182.037 469.087C182.195 469.535 181.967 470.025 181.528 470.181L180.843 470.424C180.404 470.579 179.92 470.342 179.762 469.893L178.102 465.179C177.944 464.73 178.172 464.241 178.61 464.085Z" fill="#E9B9BE"/>
<path d="M222.485 471.463L226.438 470.061L227.875 474.141L223.922 475.543L222.485 471.463Z" fill="#FDB714"/>
<path d="M226.432 470.063L230.386 468.662L231.822 472.742L227.869 474.144L226.432 470.063Z" fill="#F04F63"/>
<path d="M224.996 465.983L228.949 464.582L230.386 468.662L226.432 470.063L224.996 465.983Z" fill="#63CDF5"/>
<path d="M210.993 454.779L206.421 441.795C206.077 440.942 205.416 440.259 204.584 439.897C203.752 439.533 202.816 439.52 201.982 439.858L189.712 444.209C188.853 444.47 188.134 445.07 187.713 445.875C187.293 446.681 187.205 447.627 187.469 448.507L191.983 461.325C192.191 461.889 192.548 462.385 193.014 462.758C193.48 463.132 194.037 463.368 194.623 463.441L198.362 464.005C198.961 464.08 199.529 464.325 200.001 464.713C200.473 465.1 200.829 465.614 201.029 466.195L203.598 474.165C203.76 474.598 204.004 474.994 204.318 475.331C204.631 475.668 205.007 475.938 205.422 476.126C205.838 476.314 206.285 476.416 206.738 476.426C207.191 476.436 207.64 476.353 208.059 476.183C208.492 476.052 208.894 475.833 209.242 475.539C209.589 475.246 209.874 474.884 210.08 474.475C210.286 474.065 210.409 473.617 210.442 473.157C210.474 472.696 210.416 472.232 210.269 471.793L207.277 464.063C207.069 463.492 207.021 462.876 207.138 462.282C207.256 461.689 207.535 461.143 207.943 460.705L210.305 458.054C210.702 457.627 210.976 457.096 211.097 456.519C211.218 455.942 211.182 455.34 210.993 454.779Z" fill="#F2748A"/>
<path d="M208.904 450.923L191.222 457.358L189.921 453.549C189.921 453.549 192.276 454.7 192.99 450.384C193.81 445.372 197.873 452.487 199.242 450.244C200.611 448 198.569 440.182 203.936 447.888C207.408 452.886 206.4 445.138 207.651 448.038L208.904 450.923Z" fill="#F2DADB"/>
<path d="M208.146 454.826L203.571 441.836C203.225 440.985 202.564 440.305 201.732 439.943C200.901 439.58 199.967 439.564 199.133 439.899L186.857 444.252C185.998 444.515 185.28 445.116 184.861 445.922C184.442 446.728 184.356 447.674 184.622 448.554L189.136 461.372C189.345 461.934 189.702 462.429 190.167 462.801C190.633 463.173 191.189 463.409 191.774 463.482L195.515 464.052C196.113 464.127 196.682 464.372 197.154 464.759C197.626 465.147 197.982 465.661 198.181 466.242L200.745 474.214C200.908 474.647 201.153 475.043 201.467 475.38C201.781 475.716 202.157 475.986 202.573 476.174C202.989 476.361 203.437 476.464 203.889 476.473C204.343 476.483 204.792 476.4 205.211 476.23C205.645 476.099 206.047 475.88 206.394 475.587C206.742 475.293 207.026 474.931 207.233 474.522C207.439 474.113 207.562 473.664 207.594 473.204C207.627 472.743 207.568 472.279 207.422 471.84L204.429 464.11C204.221 463.541 204.173 462.924 204.289 462.331C204.406 461.739 204.683 461.193 205.089 460.755L207.45 458.097C207.847 457.671 208.122 457.142 208.245 456.565C208.367 455.989 208.333 455.388 208.146 454.826Z" stroke="#171518" stroke-miterlimit="10"/>
<path d="M188.528 453.939C189.248 453.87 190.254 453.264 190.819 450.697C191.897 445.746 195.367 452.85 196.806 450.651C198.245 448.452 196.755 440.681 201.43 448.403C204.451 453.388 203.949 445.716 204.974 448.606L205.305 449.548C205.469 450.098 205.414 450.689 205.151 451.192C204.888 451.695 204.439 452.069 203.902 452.233L190.243 457.04C190.105 457.091 189.961 457.121 189.814 457.13C189.522 457.117 189.236 457.031 188.982 456.88C188.728 456.728 188.514 456.516 188.358 456.262C188.332 456.207 188.311 456.149 188.298 456.09L187.916 454.681C187.903 454.59 187.908 454.497 187.932 454.409C187.956 454.32 187.999 454.238 188.056 454.168C188.114 454.098 188.186 454.041 188.267 454.001C188.349 453.962 188.437 453.94 188.528 453.939Z" stroke="#171518" stroke-miterlimit="10"/>
<path d="M101.786 360.59L216.716 319.845C222.524 317.785 228.958 321.014 231.086 327.056L232.829 332.008C234.957 338.05 231.973 344.617 226.164 346.677L111.234 387.422C105.425 389.481 98.9915 386.252 96.8639 380.21L95.1203 375.259C92.9927 369.217 95.9769 362.649 101.786 360.59Z" fill="#D16179"/>
<path d="M179.729 400.179C187.206 397.558 225.145 383.265 227.884 357.24C228.116 355.1 227.679 352.938 226.959 350.894L214.487 315.476C213.766 313.428 212.756 311.476 211.233 309.954C192.295 290.946 152.086 305.259 147.2 306.991C142.187 308.768 102.282 322.974 99.4629 349.579C99.2304 351.72 99.6676 353.882 100.387 355.926L112.859 391.344C113.58 393.391 114.59 395.344 116.113 396.865C134.051 414.891 171.037 403.232 179.729 400.179Z" fill="#F2748A"/>
<path d="M175.836 388.298C182.088 386.103 213.839 374.224 216.901 354.65C217.156 353.053 216.857 351.414 216.315 349.876L207.146 323.837C206.603 322.296 205.813 320.837 204.612 319.754C189.567 306.105 155.94 318.069 151.855 319.517C147.663 321.003 114.291 332.877 111.146 352.889C110.891 354.486 111.19 356.125 111.731 357.663L120.9 383.702C121.443 385.243 122.233 386.702 123.434 387.786C137.684 400.73 168.568 390.853 175.836 388.298Z" fill="#FFFFFD"/>
<path d="M118.034 316.244C118.339 313.728 120.292 311.757 122.503 310.26L168.688 293.886C171.346 293.657 174.1 293.959 175.912 295.725C182.836 302.459 176.435 330.924 158.05 337.442C139.665 343.96 116.863 325.847 118.034 316.244Z" fill="#D16179"/>
<path d="M172.296 342.44L174.59 341.626C176.401 340.984 178.407 341.991 179.07 343.875L183.309 355.913C183.973 357.797 183.042 359.845 181.231 360.487L178.937 361.3C177.126 361.942 175.12 360.936 174.456 359.052L170.217 347.014C169.554 345.13 170.484 343.082 172.296 342.44Z" fill="#231F20"/>
<path d="M148.687 350.809L150.981 349.996C152.792 349.354 154.799 350.361 155.462 352.245L159.701 364.283C160.364 366.167 159.434 368.215 157.623 368.857L155.329 369.67C153.517 370.312 151.511 369.305 150.848 367.421L146.609 355.383C145.946 353.499 146.876 351.451 148.687 350.809Z" fill="#231F20"/>
<path d="M152.93 362.844L155.247 362.022C157.076 361.374 159.089 362.354 159.743 364.212L163.923 376.083C164.577 377.941 163.625 379.972 161.796 380.621L159.479 381.442C157.65 382.091 155.637 381.11 154.983 379.252L150.803 367.382C150.149 365.524 151.101 363.492 152.93 362.844Z" fill="white"/>
<path d="M176.595 354.454L178.912 353.633C180.741 352.984 182.754 353.965 183.408 355.822L187.588 367.693C188.242 369.551 187.29 371.583 185.461 372.231L183.144 373.052C181.315 373.701 179.302 372.72 178.648 370.863L174.468 358.992C173.814 357.134 174.766 355.102 176.595 354.454Z" fill="white"/>
<path d="M201.911 385.028L204.294 384.184C205.833 383.638 207.529 384.471 208.083 386.045L210.56 393.079C211.114 394.652 210.316 396.37 208.777 396.915L206.394 397.76C204.856 398.306 203.159 397.472 202.605 395.899L200.128 388.865C199.574 387.292 200.372 385.574 201.911 385.028Z" fill="#D16179"/>
<path d="M151.539 403.488L153.922 402.643C155.461 402.098 157.157 402.931 157.711 404.505L160.188 411.538C160.742 413.112 159.944 414.829 158.405 415.375L156.022 416.22C154.483 416.765 152.787 415.932 152.233 414.359L149.756 407.325C149.202 405.751 150 404.034 151.539 403.488Z" fill="#F2748A"/>
<path d="M209.462 395.897C207.856 398.544 203.381 397.852 202.317 395.08C201.884 393.85 201.086 391.585 201.086 391.585C202.997 394.819 205.32 396.341 209.462 395.897Z" fill="#F7A9B1"/>
<path d="M159.09 414.358C157.483 417.003 153.009 416.312 151.947 413.546C151.514 412.316 150.716 410.051 150.716 410.051C152.625 413.278 154.955 414.82 159.09 414.358Z" fill="#E9B9BE"/>
<path d="M161.785 378.03L154.76 374.937L124.469 447.161C122.606 451.602 122.549 456.622 124.31 461.117C126.071 465.612 129.506 469.214 133.859 471.13L140.877 474.219L171.169 401.995C173.03 397.555 173.088 392.536 171.328 388.042C169.569 383.548 166.136 379.946 161.785 378.03Z" fill="#F2748A"/>
<path d="M167.697 382.485C173.972 387.798 174.712 395.61 171.431 403.223L148.54 456.322L147.895 456.03C143.937 454.096 176.49 392.997 167.697 382.485Z" fill="#D16179"/>
<path d="M256.246 420.257L253.453 426.838L188.909 395.114C184.94 393.163 181.821 389.672 180.238 385.409C178.655 381.146 178.739 376.46 180.47 372.382L183.26 365.807L247.81 397.534C251.779 399.485 254.898 402.976 256.481 407.239C258.064 411.502 257.981 416.188 256.249 420.266L256.246 420.257Z" fill="#F2748A"/>
<path d="M257.539 415.019C232.712 402.089 184.794 380.151 181.462 378.179C178.128 376.207 180.969 371.887 183.418 365.627L243.344 394.318C254.909 398.63 259.546 404.205 257.539 415.019Z" fill="#D16179"/>
</g>
<path d="M369.542 513.279C358.424 507.951 354.121 493.736 359.932 481.527C365.743 469.317 379.466 463.739 390.585 469.066C401.703 474.394 406.005 488.61 400.195 500.819C394.384 513.028 380.661 518.606 369.542 513.279Z" fill="#FEDF68"/>
<path d="M395.731 508.376C386.341 518.244 370.264 517.709 362.354 507.424C373.501 512.585 384.631 513.995 395.731 508.376Z" fill="#E8C143"/>
<path d="M344.16 440.034C342.277 439.132 340.088 439.072 338.074 439.867C336.06 440.662 334.387 442.248 333.422 444.275C330.319 450.796 347.325 490.029 373.968 502.795C400.611 515.561 443.662 506.089 447.147 498.768C448.11 496.743 448.288 494.442 447.641 492.372C446.993 490.302 445.574 488.631 443.693 487.727L344.16 440.034Z" fill="#FFF2C3"/>
<path d="M459.134 422.155L452.7 425.129L475.334 486.931C476.663 490.554 479.337 493.382 482.767 494.792C486.198 496.202 490.105 496.079 493.63 494.451L500.059 491.48L477.425 429.678C476.096 426.055 473.424 423.228 469.993 421.818C466.564 420.407 462.658 420.529 459.134 422.155Z" fill="#FEDF68"/>
<path d="M463.917 423.432C473.088 446.02 488.277 489.62 489.708 492.647C491.139 495.674 494.946 493.086 500.366 490.834L480.318 436.313C477.505 425.782 473.114 421.594 463.917 423.432Z" fill="#E8C143"/>
<path d="M385.831 364.981C388.005 364.734 390.171 365.103 392.1 366.05C394.029 366.997 395.651 368.486 396.794 370.362C412.317 395.746 434.439 404.418 467.071 403.426C482.806 402.941 477.238 470.171 470.589 484.14C443.726 536.726 306.316 466.599 330.023 416.786C330.028 416.775 358.517 368.155 385.831 364.981Z" fill="#FEDF68"/>
<path d="M469.511 484.585C476.221 470.484 482.433 402.853 466.865 403.487C458.767 403.877 449.334 403.414 446.08 402.795C444.557 402.507 460.158 410.567 466.008 429.933C472.569 451.503 469.511 484.585 469.511 484.585Z" fill="#E8C143"/>
<path opacity="0.8" d="M409.401 381.233C406.438 382.058 403.911 378.379 405.148 375.588C405.732 374.36 406.797 372.122 406.797 372.122C405.781 375.891 406.275 378.661 409.401 381.233Z" fill="#FFF9E1"/>
<path d="M360.316 493.481C378.722 511.934 422.135 515.959 442.652 502.741C403.582 513.121 359.724 494.03 360.316 493.481Z" fill="#E8C143"/>
<path d="M380.876 453.749C392.951 453.404 402.651 458.051 409.974 467.692C414.226 469.729 419.4 467.759 421.51 463.323L436.004 432.87C438.102 428.414 436.367 423.134 432.144 421.11L403.046 407.168C398.789 405.128 393.62 407.1 391.508 411.536L377.012 441.995C374.88 446.427 376.6 451.7 380.876 453.749Z" fill="#FFF9E1" stroke="#E8C143" stroke-width="5" stroke-miterlimit="10"/>
<path opacity="0.8" d="M432.56 431.006L433.256 431.339C433.649 431.527 433.822 431.987 433.642 432.365L428.282 443.627C428.102 444.006 427.637 444.16 427.244 443.971L426.548 443.638C426.155 443.45 425.983 442.99 426.163 442.612L431.523 431.349C431.703 430.971 432.167 430.817 432.56 431.006Z" fill="#FEECA4"/>
<path opacity="0.8" d="M425.797 445.217L426.492 445.55C426.885 445.739 427.08 446.153 426.926 446.475L425.227 450.045C425.074 450.367 424.631 450.476 424.238 450.287L423.542 449.954C423.149 449.766 422.955 449.352 423.108 449.029L424.807 445.46C424.961 445.137 425.404 445.029 425.797 445.217Z" fill="#FEECA4"/>
<path opacity="0.8" d="M386.198 433.03L386.662 433.252C386.924 433.378 386.982 433.805 386.79 434.207L381.095 446.174C380.904 446.576 380.536 446.799 380.274 446.674L379.811 446.452C379.549 446.326 379.491 445.899 379.682 445.497L385.378 433.53C385.569 433.128 385.936 432.904 386.198 433.03Z" fill="#FEECA4"/>
<path opacity="0.8" d="M389.204 426.714L389.668 426.936C389.93 427.062 390.018 427.425 389.865 427.747L388.166 431.317C388.012 431.639 387.676 431.799 387.414 431.673L386.95 431.451C386.688 431.325 386.6 430.962 386.753 430.64L388.452 427.07C388.605 426.748 388.942 426.588 389.204 426.714Z" fill="#FEECA4"/>
<path d="M410.837 458.41L415.075 460.44L413.196 464.388L408.958 462.357L410.837 458.41Z" fill="#FCB614"/>
<path d="M415.076 460.44L418.607 462.133L416.729 466.08L413.197 464.388L415.076 460.44Z" fill="#EF4E63"/>
<path d="M416.579 457.282L420.11 458.975L418.607 462.133L415.076 460.44L416.579 457.282Z" fill="#63CCF5"/>
<path d="M403.533 450.062C398.462 447.632 396.706 440.714 399.611 434.609C402.517 428.504 408.983 425.526 414.055 427.956C419.126 430.386 420.882 437.305 417.977 443.409C415.071 449.514 408.605 452.492 403.533 450.062Z" fill="#F6DD7A"/>
<path d="M401.812 447.298C396.546 444.775 394.632 437.78 397.537 431.676C400.442 425.571 407.067 422.668 412.333 425.192C417.6 427.716 419.514 434.71 416.609 440.814C413.703 446.919 407.079 449.822 401.812 447.298Z" stroke="black" stroke-miterlimit="10"/>
<path d="M402.94 444.93C398.453 442.78 396.751 436.973 399.138 431.958C401.524 426.944 407.096 424.622 411.582 426.771C416.068 428.921 417.77 434.728 415.384 439.743C412.997 444.757 407.426 447.08 402.94 444.93Z" stroke="black" stroke-miterlimit="10"/>
<path d="M414.077 427.908L415.688 429.708L417.232 428.568L415.621 426.767L414.077 427.908Z" fill="#161417"/>
<path d="M396.692 440.743L397.613 443.347L399.719 441.672L398.794 439.065L396.692 440.743Z" fill="#161417"/>
<path d="M405.376 425.736L408.135 425.812L407.524 423.857L404.764 423.781L405.376 425.736Z" fill="#161417"/>
<path d="M454.282 389.058L456.355 390.051C457.538 390.618 457.954 392.219 457.283 393.628L454.075 400.37C453.404 401.778 451.902 402.46 450.719 401.894L448.646 400.9C447.463 400.333 447.047 398.732 447.717 397.323L450.926 390.581C451.596 389.173 453.099 388.491 454.282 389.058Z" fill="#E8C143"/>
<path d="M411.056 369.315L413.359 370.418C414.673 371.048 415.232 372.625 414.606 373.939L411.612 380.232C410.986 381.547 409.413 382.101 408.098 381.472L405.795 380.368C404.481 379.738 403.922 378.162 404.548 376.847L407.543 370.555C408.168 369.24 409.741 368.685 411.056 369.315Z" fill="#FEDF68"/>
<path opacity="0.8" d="M451.075 401.203C448.636 402.278 446.98 399.017 448.235 396.235C448.82 395.006 449.885 392.768 449.885 392.768C448.719 396.445 448.841 399.043 451.075 401.203Z" fill="#FFF9E1"/>
<path d="M408.989 306.273L506.61 353.049C511.057 355.18 512.735 360.957 510.358 365.952L507.318 372.338C504.941 377.333 499.409 379.655 494.962 377.524L397.341 330.748C392.894 328.617 391.216 322.84 393.594 317.845L396.633 311.459C399.01 306.464 404.542 304.142 408.989 306.273Z" fill="#E8C143"/>
<path d="M431.215 383.822C437.399 386.814 469.414 401.319 487.812 385.314C489.33 384.002 490.457 382.25 491.338 380.398L506.638 348.251C507.521 346.396 508.169 344.421 508.232 342.408C509.078 317.331 475.684 301.387 471.631 299.445C467.473 297.453 434.331 281.63 415.512 297.979C413.994 299.292 412.867 301.044 411.985 302.896L396.686 335.043C395.803 336.898 395.154 338.873 395.091 340.886C394.276 364.653 424.023 380.347 431.215 383.822Z" fill="#FEDF68"/>
<path d="M436.521 372.791C441.784 375.333 468.981 387.756 483.461 376.602C484.646 375.695 485.515 374.406 486.17 373.03L497.281 349.683C497.938 348.304 498.389 346.822 498.347 345.324C497.863 326.516 469.457 312.947 466.009 311.295C462.471 309.6 434.279 296.133 419.465 307.526C418.28 308.433 417.411 309.722 416.756 311.098L405.645 334.445C404.989 335.824 404.537 337.306 404.579 338.804C405.026 356.629 430.401 369.837 436.521 372.791Z" fill="#FFFFFD"/>
<path d="M447.786 287.461C449.579 285.973 452.028 285.9 454.328 286.306L492.88 304.779C494.643 306.319 496.125 308.276 496.098 310.611C496.005 319.523 473.92 334.477 458.574 327.123C443.228 319.77 440.937 293.136 447.786 287.461Z" fill="#E8C143"/>
<path d="M436.603 347.36L435.938 347.041C435.451 346.812 435.013 346.488 434.651 346.088C434.289 345.687 434.009 345.219 433.827 344.708C433.645 344.198 433.564 343.656 433.591 343.113C433.617 342.57 433.749 342.037 433.979 341.545L438.705 331.616C439.185 330.63 440.033 329.874 441.062 329.515C442.091 329.155 443.217 329.221 444.194 329.697L444.859 330.016C445.347 330.244 445.784 330.568 446.147 330.967C446.51 331.367 446.79 331.835 446.972 332.345C447.155 332.855 447.235 333.396 447.209 333.939C447.183 334.481 447.052 335.014 446.822 335.506L442.096 345.435C441.859 345.925 441.529 346.363 441.125 346.725C440.721 347.087 440.25 347.366 439.74 347.545C439.23 347.723 438.69 347.799 438.152 347.767C437.613 347.736 437.087 347.597 436.603 347.36Z" fill="#231F20"/>
<path d="M457.543 357.682L456.877 357.363C456.39 357.134 455.953 356.81 455.59 356.41C455.228 356.01 454.948 355.541 454.766 355.03C454.584 354.52 454.504 353.978 454.53 353.435C454.556 352.893 454.688 352.36 454.918 351.867L459.644 341.938C460.124 340.952 460.972 340.197 462.001 339.837C463.03 339.477 464.157 339.543 465.133 340.02L465.799 340.339C466.782 340.801 467.541 341.639 467.909 342.668C468.277 343.697 468.224 344.834 467.761 345.828L463.035 355.757C462.798 356.246 462.468 356.684 462.063 357.046C461.659 357.407 461.188 357.685 460.678 357.864C460.168 358.043 459.629 358.119 459.091 358.088C458.553 358.056 458.027 357.919 457.543 357.682Z" fill="#231F20"/>
<path d="M305.399 418.098L307.246 424.285L367.62 399.096C371.332 397.547 374.438 394.538 376.254 390.732C378.07 386.926 378.447 382.633 377.302 378.8L375.458 372.618L315.083 397.808C311.372 399.357 308.266 402.364 306.451 406.169C304.635 409.974 304.256 414.265 305.399 418.098Z" fill="#FEDF68"/>
<path d="M305.19 410.696C305.007 403.741 309.351 398.698 315.759 396.228L360.464 379.008L360.636 379.573C361.614 383.127 306.797 399.148 305.19 410.696Z" fill="#FFF2C3"/>
<path d="M308.384 621.699C322.12 621.699 333.261 610.01 333.261 595.624C333.261 581.239 322.12 569.55 308.384 569.55C294.648 569.55 283.507 581.239 283.507 595.624C283.507 610.01 294.64 621.699 308.384 621.699Z" fill="#F2F4FA"/>
<path d="M368.268 562.48C369.411 562.481 370.543 562.715 371.594 563.168C372.646 563.621 373.596 564.284 374.388 565.117C376.019 566.837 376.93 569.127 376.932 571.509C376.932 579.25 341.489 609.265 308.988 609.265C276.487 609.265 238.206 580.211 238.206 571.509C238.198 569.122 239.107 566.825 240.742 565.102C241.533 564.266 242.483 563.6 243.534 563.143C244.586 562.686 245.718 562.448 246.862 562.443L368.268 562.48Z" fill="#F2F4FA"/>
<path d="M265.369 496.422L267.006 498.329L219.516 543.229C217.579 545.081 215.29 546.515 212.787 547.443C210.284 548.371 207.62 548.775 204.958 548.629C202.296 548.484 199.691 547.792 197.302 546.596C194.913 545.399 192.79 543.724 191.063 541.672L189.426 539.75L236.924 494.85C238.859 492.998 241.149 491.564 243.651 490.636C246.154 489.708 248.817 489.304 251.479 489.451C254.141 489.597 256.746 490.29 259.134 491.487C261.522 492.685 263.644 494.361 265.369 496.415L265.369 496.422Z" fill="#F2F4FA"/>
<path d="M257.214 491.611C237.461 509.162 216.897 527.124 199.283 547.529C195.67 546.27 191.991 542.984 189.263 539.796L234.866 496.453C237.811 493.645 241.459 491.703 245.416 490.836C249.344 489.987 253.428 490.255 257.214 491.611Z" fill="#B8C3FD"/>
<path d="M361.972 471.904C359.957 470.667 357.641 470.022 355.283 470.042C352.926 470.061 350.62 470.745 348.626 472.016C321.346 489.277 295.503 487.43 263.784 471.442C248.47 463.717 222.428 530.936 222.428 547.43C224.234 610.388 392.747 606.284 392.747 547.43C392.696 547.423 387.394 487.549 361.972 471.904Z" fill="#F2F4FA"/>
<path d="M424.283 447.463L426.281 448.952L389.334 503.694C387.838 505.937 385.913 507.856 383.671 509.336C381.43 510.816 378.918 511.829 376.284 512.313C373.669 512.779 370.987 512.701 368.402 512.085C365.817 511.469 363.384 510.327 361.25 508.73L359.252 507.24L396.199 452.499C397.695 450.255 399.62 448.336 401.862 446.856C404.103 445.376 406.615 444.364 409.249 443.879C411.865 443.414 414.546 443.491 417.131 444.107C419.716 444.723 422.149 445.865 424.283 447.463Z" fill="#F2F4FA"/>
<path d="M325.615 559.545C313.449 553.585 301.283 553.585 289.118 559.545C286.577 559.565 284.132 558.565 282.321 556.764C280.51 554.963 279.48 552.51 279.459 549.942L279.459 513.625C279.466 512.351 279.721 511.091 280.21 509.917C280.7 508.743 281.413 507.679 282.311 506.784C283.208 505.889 284.271 505.182 285.439 504.703C286.607 504.224 287.857 503.982 289.118 503.992L325.615 503.992C328.156 503.972 330.6 504.973 332.412 506.773C334.223 508.574 335.252 511.028 335.274 513.595L335.274 549.913C335.267 551.186 335.012 552.446 334.522 553.62C334.033 554.794 333.319 555.859 332.422 556.753C331.525 557.648 330.462 558.355 329.294 558.834C328.126 559.314 326.875 559.555 325.615 559.545Z" fill="#F1F3FF" stroke="#C7C9F4" stroke-width="5" stroke-miterlimit="10"/>
<path d="M284.443 513.133L284.178 513.133C284.038 513.132 283.898 513.159 283.768 513.212C283.638 513.266 283.52 513.345 283.42 513.444C283.32 513.544 283.24 513.662 283.186 513.793C283.131 513.924 283.103 514.064 283.102 514.206L283.102 526.982C283.102 527.124 283.129 527.265 283.184 527.396C283.238 527.527 283.318 527.646 283.418 527.746C283.518 527.846 283.637 527.925 283.767 527.978C283.898 528.031 284.037 528.057 284.178 528.055L284.443 528.055C284.585 528.057 284.725 528.031 284.855 527.978C284.986 527.925 285.106 527.846 285.206 527.747C285.307 527.647 285.387 527.528 285.442 527.397C285.498 527.266 285.526 527.125 285.527 526.982L285.527 514.206C285.523 513.919 285.407 513.645 285.204 513.444C285.001 513.243 284.728 513.131 284.443 513.133Z" fill="#DCE1FE"/>
<path d="M284.444 529.709L284.178 529.709C283.893 529.709 283.619 529.823 283.417 530.027C283.215 530.231 283.102 530.508 283.102 530.796L283.102 535.266C283.102 535.409 283.129 535.55 283.184 535.681C283.238 535.813 283.317 535.932 283.417 536.033C283.517 536.133 283.636 536.212 283.767 536.266C283.897 536.32 284.037 536.347 284.178 536.346L284.444 536.346C284.727 536.348 284.999 536.238 285.202 536.038C285.405 535.839 285.522 535.567 285.527 535.281L285.527 530.811C285.529 530.666 285.503 530.523 285.449 530.389C285.395 530.254 285.316 530.132 285.215 530.03C285.114 529.927 284.994 529.846 284.861 529.791C284.729 529.735 284.587 529.708 284.444 529.709Z" fill="#DCE1FE"/>
<path d="M329.524 537.172L329.295 537.172C329.034 537.2 328.793 537.33 328.625 537.535C328.457 537.739 328.375 538.002 328.396 538.267L328.396 551.401C328.375 551.666 328.457 551.928 328.625 552.133C328.793 552.337 329.034 552.468 329.295 552.496L329.524 552.496C329.785 552.468 330.026 552.337 330.194 552.133C330.362 551.928 330.444 551.666 330.423 551.401L330.423 538.259C330.442 537.996 330.359 537.735 330.191 537.532C330.023 537.329 329.784 537.2 329.524 537.172Z" fill="#DCE1FE"/>
<path d="M329.524 528.463L329.295 528.463C329.034 528.49 328.794 528.618 328.626 528.822C328.458 529.025 328.375 529.287 328.396 529.551L328.396 534.021C328.375 534.284 328.458 534.545 328.626 534.747C328.795 534.949 329.035 535.076 329.295 535.101L329.524 535.101C329.784 535.076 330.024 534.949 330.193 534.747C330.361 534.545 330.444 534.284 330.423 534.021L330.423 529.551C330.444 529.287 330.361 529.025 330.193 528.822C330.025 528.618 329.785 528.49 329.524 528.463Z" fill="#DCE1FE"/>
<path d="M222.428 547.528C222.428 531.027 248.514 463.755 263.843 471.488C271.784 475.578 281.479 479.422 285.018 480.316C286.685 480.741 267.175 481.292 252.024 497.078C235.176 514.608 222.428 547.528 222.428 547.528Z" fill="#B8C3FD"/>
<path d="M417.381 442.903C409.205 439.923 401.831 443.588 396.832 451.001L361.965 502.658L362.592 503.105C366.477 505.802 403.225 440.437 417.381 442.903Z" fill="#B8C3FD"/>
<path d="M285.122 604.713C289.693 618.696 305.767 625.677 318.301 619.352C304.956 619.18 293.387 615.359 285.122 604.713Z" fill="#B1B9E4"/>
<path d="M326.817 606.649C300.192 615.746 255.821 599.945 241.878 578.191C275.264 605.621 327.119 607.439 326.817 606.649Z" fill="#B1B9E4"/>
<path d="M198.966 547.259C198.966 547.259 210.844 551.617 219.19 542.968C212.989 546.309 205.974 547.797 198.966 547.259Z" fill="#B8C3FD"/>
<path d="M319.502 530.952L308.177 530.952L308.177 542.558L319.502 542.558L319.502 530.952Z" fill="#FCB614"/>
<path d="M308.177 530.952L297.25 530.952L297.25 542.558L308.177 542.558L308.177 530.952Z" fill="#EF4E63"/>
<path d="M308.177 518.935L297.25 518.935L297.25 530.952L308.177 530.952L308.177 518.935Z" fill="#63CCF5"/>
<path d="M282.725 463.018L281.84 463.018C280.866 463.039 279.941 463.449 279.265 464.159C278.589 464.868 278.219 465.818 278.235 466.802L278.235 472.501C278.221 473.484 278.592 474.433 279.268 475.14C279.943 475.848 280.868 476.257 281.84 476.278L282.718 476.278C283.69 476.257 284.615 475.848 285.29 475.14C285.966 474.433 286.337 473.484 286.323 472.501L286.323 466.802C286.339 465.819 285.97 464.87 285.296 464.161C284.622 463.452 283.698 463.041 282.725 463.018Z" fill="#F2F4FA"/>
<path d="M334.094 463.412L333.216 463.412C332.244 463.434 331.319 463.843 330.643 464.55C329.968 465.258 329.597 466.206 329.611 467.189L329.611 472.896C329.597 473.879 329.968 474.827 330.643 475.535C331.319 476.242 332.244 476.651 333.216 476.673L334.094 476.673C335.066 476.651 335.991 476.242 336.666 475.535C337.342 474.827 337.713 473.879 337.699 472.896L337.699 467.189C337.713 466.206 337.342 465.258 336.666 464.55C335.991 463.843 335.066 463.434 334.094 463.412Z" fill="#F2F4FA"/>
<path d="M337.69 469.216L337.69 473.977C337.713 474.332 337.668 474.689 337.557 475.027C337.441 475.359 337.264 475.665 337.034 475.928C336.811 476.177 336.536 476.373 336.23 476.502C335.933 476.633 335.609 476.689 335.286 476.666L332.846 476.666C335.33 475.884 336.864 473.246 337.69 469.216Z" fill="#B8C3FD"/>
<path d="M278.249 468.389L278.249 473.447C278.227 473.815 278.269 474.183 278.374 474.535C278.482 474.88 278.658 475.199 278.89 475.474C279.109 475.739 279.384 475.953 279.694 476.1C279.993 476.241 280.322 476.308 280.652 476.293L283.1 476.293C280.63 475.451 279.067 472.621 278.249 468.389Z" fill="#B1B9E4"/>
<path d="M251.846 408.843L363.682 408.843C365.412 408.826 367.128 409.154 368.732 409.809C370.336 410.464 371.797 411.433 373.03 412.659C374.263 413.886 375.244 415.346 375.917 416.956C376.591 418.567 376.943 420.295 376.953 422.044L376.953 423.027C376.939 424.773 376.584 426.498 375.909 428.105C375.234 429.712 374.252 431.169 373.019 432.392C371.787 433.615 370.328 434.581 368.725 435.234C367.123 435.887 365.409 436.215 363.682 436.198L251.846 436.198C250.118 436.215 248.403 435.887 246.8 435.234C245.198 434.58 243.738 433.614 242.505 432.39C241.273 431.165 240.291 429.708 239.616 428.1C238.942 426.492 238.588 424.766 238.574 423.02L238.574 422.044C238.585 420.295 238.937 418.567 239.61 416.956C240.283 415.346 241.265 413.886 242.498 412.659C243.731 411.433 245.191 410.464 246.795 409.809C248.399 409.154 250.116 408.826 251.846 408.843Z" fill="#B8C3FD"/>
<path d="M308.384 469.722C300.782 469.722 261.933 468.977 251.153 446.285C250.315 444.392 249.909 442.332 249.966 440.258L249.966 404.164C249.909 402.09 250.315 400.03 251.153 398.137C262.213 374.827 303.156 374.879 308.126 374.879C313.228 374.879 353.839 374.938 364.862 398.137C365.704 400.029 366.11 402.09 366.049 404.164L366.049 440.303C366.11 442.377 365.704 444.437 364.862 446.33C354.348 468.411 317.18 469.722 308.384 469.722Z" fill="#F2F4FA"/>
<path d="M308.082 457.736C301.727 457.736 269.226 457.192 260.223 440.438C259.531 439.054 259.191 437.518 259.235 435.968L259.235 409.38C259.193 407.83 259.532 406.294 260.223 404.91C269.491 387.708 303.725 387.775 307.868 387.775C312.012 387.775 346.098 387.812 355.315 404.91C356.009 406.293 356.348 407.83 356.303 409.38L356.303 435.96C356.349 437.51 356.009 439.048 355.315 440.43C346.548 456.745 315.47 457.721 308.082 457.736Z" fill="#FFFFFD"/>
<path d="M337.413 373.88C336.336 371.698 333.94 370.543 331.47 369.895L284.481 369.895C282.004 370.543 279.607 371.698 278.531 373.88C274.417 382.209 289.266 405.914 307.972 405.914C326.677 405.914 341.564 382.209 337.413 373.88Z" fill="#B8C3FD"/>
<path d="M295.111 415.048L295.849 415.048C296.387 415.044 296.921 415.147 297.42 415.352C297.919 415.556 298.373 415.858 298.756 416.24C299.139 416.622 299.445 417.076 299.654 417.577C299.864 418.078 299.974 418.616 299.978 419.16L299.978 430.163C299.968 431.261 299.528 432.309 298.753 433.079C297.979 433.848 296.935 434.276 295.849 434.268L295.111 434.268C294.573 434.273 294.04 434.171 293.541 433.967C293.042 433.763 292.588 433.462 292.204 433.081C291.821 432.7 291.516 432.246 291.306 431.745C291.096 431.245 290.986 430.707 290.982 430.163L290.982 419.16C290.985 418.616 291.094 418.078 291.304 417.576C291.513 417.075 291.818 416.62 292.202 416.238C292.585 415.856 293.04 415.554 293.539 415.35C294.038 415.145 294.573 415.043 295.111 415.048Z" fill="#231F20"/>
<path d="M319.155 415.048L319.893 415.048C320.431 415.044 320.965 415.147 321.464 415.352C321.963 415.556 322.417 415.858 322.8 416.24C323.183 416.622 323.489 417.076 323.698 417.577C323.908 418.078 324.018 418.616 324.022 419.16L324.022 430.163C324.012 431.261 323.572 432.309 322.797 433.079C322.023 433.848 320.979 434.276 319.893 434.268L319.155 434.268C318.069 434.276 317.025 433.848 316.25 433.079C315.476 432.309 315.036 431.261 315.026 430.163L315.026 419.16C315.03 418.616 315.14 418.078 315.35 417.577C315.559 417.076 315.864 416.622 316.248 416.24C316.631 415.858 317.085 415.556 317.584 415.352C318.083 415.147 318.617 415.044 319.155 415.048Z" fill="#231F20"/>
<path d="M305 666C344.764 666 377 661.747 377 656.5C377 651.253 344.764 647 305 647C265.235 647 233 651.253 233 656.5C233 661.747 265.235 666 305 666Z" fill="#C7C9F4"/>
</g>
<defs>
<clipPath id="clip0">
<rect width="706" height="733" fill="white"/>
</clipPath>
<clipPath id="clip1">
<rect width="222.943" height="232.913" fill="white" transform="matrix(0.999953 0.0096667 -0.00960149 0.999954 197.032 191.306)"/>
</clipPath>
<clipPath id="clip2">
<rect width="255.546" height="258.07" fill="white" transform="matrix(-0.942522 0.334144 0.332139 0.94323 262.279 260.706)"/>
</clipPath>
</defs>
</svg>
