<svg width="343" height="497" viewBox="0 0 343 497" fill="none" xmlns="http://www.w3.org/2000/svg">
<path d="M169.806 497.001C142.27 497.001 119.949 474.185 119.949 446.041C119.949 417.896 142.27 395.08 169.806 395.08C197.341 395.08 219.663 417.896 219.663 446.041C219.663 474.185 197.341 497.001 169.806 497.001Z" fill="#F2748A"/>
<path d="M216.258 464.094C207.137 491.182 175.141 504.688 150.113 492.451C176.702 492.111 199.774 484.711 216.258 464.094Z" fill="#E9B9BE"/>
<path d="M49.6992 381.473C45.0887 381.473 40.6682 383.344 37.409 386.676C34.1487 390.008 32.317 394.526 32.317 399.238C32.317 414.403 103.453 473.241 168.7 473.241C233.947 473.241 310.773 416.2 310.773 399.238C310.773 394.526 308.942 390.008 305.682 386.676C302.423 383.344 298.001 381.473 293.392 381.473L49.6992 381.473Z" fill="#F2DADB"/>
<path d="M62.1508 204.545C66.2318 202.123 70.8747 200.867 75.5938 200.909C80.3129 200.951 84.9332 202.29 88.9724 204.784C143.722 238.556 195.779 234.938 259.564 203.64C290.295 188.562 342.733 320.06 342.733 352.299C339.045 475.427 0.357544 467.4 0.357544 352.299C0.357544 352.299 10.9785 235.151 62.1508 204.545Z" fill="#F2748A"/>
<path d="M342.647 352.211C342.647 319.946 290.27 188.437 259.478 203.539C243.498 211.505 224.064 219.056 216.959 220.815C213.603 221.632 252.803 222.725 283.226 253.569C317.042 287.844 342.647 352.211 342.647 352.211Z" fill="#D16179"/>
<path d="M133.225 468.088C186.622 486.017 275.654 454.796 303.619 411.977C236.578 466.066 132.536 469.646 133.225 468.088Z" fill="#E9B9BE"/>
<path d="M158.289 310.948H186.13C187.065 310.99 187.978 310.65 188.669 310.004C189.36 309.36 189.773 308.461 189.817 307.505V292.001C189.775 291.044 189.364 290.142 188.673 289.493C187.982 288.846 187.067 288.505 186.13 288.546H158.289C157.352 288.508 156.439 288.85 155.748 289.498C155.057 290.145 154.645 291.045 154.601 292.001V307.505C154.648 308.46 155.063 309.357 155.752 310.001C156.443 310.646 157.354 310.986 158.289 310.948Z" fill="#F2748A"/>
<path d="M134.884 375.68C159.321 364.038 183.766 364.038 208.219 375.68C218.926 375.68 227.616 367.25 227.616 356.834V285.721C227.616 275.331 218.926 266.875 208.219 266.875H134.884C124.165 266.875 115.475 275.305 115.475 285.721L115.475 356.859C115.475 367.2 124.165 375.68 134.884 375.68Z" fill="#F2DADB" stroke="#D16179" stroke-width="5" stroke-miterlimit="10"/>
<path d="M217.401 284.791H218.803C219.699 284.791 220.425 285.534 220.425 286.45V312.571C220.425 313.486 219.699 314.229 218.803 314.229H217.401C216.505 314.229 215.779 313.486 215.779 312.571V286.45C215.779 285.534 216.505 284.791 217.401 284.791Z" fill="#E9B9BE"/>
<path d="M217.401 317.748H218.803C219.699 317.748 220.425 318.491 220.425 319.407V329.03C220.425 329.946 219.699 330.689 218.803 330.689H217.401C216.505 330.689 215.779 329.946 215.779 329.03V319.407C215.779 318.491 216.505 317.748 217.401 317.748Z" fill="#E9B9BE"/>
<path d="M127.004 332.447H128.405C129.302 332.447 130.028 333.189 130.028 334.106V360.226C130.028 361.143 129.302 361.884 128.405 361.884H127.004C126.108 361.884 125.382 361.143 125.382 360.226V334.106C125.382 333.189 126.108 332.447 127.004 332.447Z" fill="#E9B9BE"/>
<path d="M127.004 315.322H128.405C129.302 315.322 130.028 316.065 130.028 316.981V326.606C130.028 327.522 129.302 328.264 128.405 328.264H127.004C126.108 328.264 125.382 327.522 125.382 326.606V316.981C125.382 316.065 126.108 315.322 127.004 315.322Z" fill="#E9B9BE"/>
<path d="M201.962 356.947H210.039V365.278H201.962V356.947Z" fill="#FDB714"/>
<path d="M210.026 356.947H218.102V365.278H210.026V356.947Z" fill="#F04F63"/>
<path d="M210.026 348.615H218.102V356.946H210.026V348.615Z" fill="#63CDF5"/>
<path d="M191.761 319.267V292.756C191.68 290.987 190.917 289.323 189.638 288.129C188.36 286.934 186.669 286.307 184.938 286.385H159.874C158.146 286.307 156.457 286.933 155.178 288.124C153.899 289.316 153.134 290.977 153.052 292.744V318.915C153.07 320.073 153.401 321.203 154.009 322.181C154.616 323.159 155.476 323.946 156.494 324.456L162.923 327.886C163.963 328.406 164.838 329.217 165.446 330.224C166.055 331.231 166.373 332.393 166.365 333.577L165.934 349.697C165.951 350.586 166.142 351.462 166.496 352.275C166.849 353.088 167.358 353.821 167.993 354.43C168.628 355.038 169.375 355.511 170.191 355.82C171.007 356.13 171.874 356.269 172.745 356.23C173.616 356.27 174.486 356.132 175.305 355.823C176.122 355.513 176.872 355.04 177.508 354.43C178.144 353.819 178.653 353.085 179.007 352.27C179.361 351.454 179.551 350.576 179.566 349.684L179.075 333.728C179.062 332.557 179.369 331.407 179.962 330.405C180.555 329.404 181.41 328.592 182.431 328.061L188.417 324.77C189.41 324.249 190.247 323.462 190.836 322.492C191.426 321.523 191.745 320.407 191.761 319.267Z" fill="#F2748A"/>
<path d="M190.432 310.925L154.207 311.226L154.28 303.474C154.28 303.474 157.821 307.079 161.877 299.705C166.573 291.135 169.4 306.665 173.321 303.474C177.242 300.282 178.533 284.778 183.351 302.218C186.461 313.525 189.584 298.812 190.002 304.881L190.432 310.925Z" fill="#F2DADB"/>
<path d="M186.56 317.521V290.998C186.474 289.231 185.709 287.571 184.431 286.378C183.154 285.184 181.467 284.556 179.738 284.627H154.662C152.933 284.552 151.246 285.181 149.969 286.375C148.693 287.569 147.932 289.231 147.852 290.998V317.169C147.872 318.325 148.204 319.453 148.811 320.428C149.419 321.403 150.278 322.188 151.294 322.697L157.722 326.139C158.762 326.66 159.638 327.471 160.247 328.478C160.856 329.486 161.174 330.647 161.164 331.831L160.721 347.951C160.741 348.841 160.933 349.718 161.288 350.53C161.643 351.344 162.153 352.076 162.788 352.684C163.424 353.292 164.172 353.766 164.988 354.074C165.805 354.384 166.674 354.523 167.544 354.484C168.415 354.524 169.286 354.386 170.104 354.078C170.922 353.768 171.671 353.294 172.307 352.684C172.943 352.074 173.453 351.339 173.807 350.524C174.16 349.71 174.35 348.829 174.366 347.938L173.874 331.982C173.86 330.813 174.167 329.663 174.757 328.662C175.348 327.662 176.2 326.849 177.217 326.316L183.204 323.011C184.199 322.493 185.036 321.709 185.628 320.742C186.218 319.775 186.541 318.661 186.56 317.521Z" stroke="#171518" stroke-miterlimit="10"/>
<path d="M151.502 303.286C152.855 303.625 155.068 303.172 157.735 298.876C162.86 290.583 164.619 305.711 168.637 302.645C172.657 299.58 174.92 284.515 178.472 301.54C180.77 312.533 184.765 298.285 184.778 304.19V306.113C184.723 307.217 184.245 308.253 183.446 308.997C182.647 309.741 181.592 310.13 180.512 310.084L152.634 310.02C152.351 310.022 152.07 309.984 151.798 309.907C151.275 309.695 150.812 309.354 150.446 308.916C150.082 308.479 149.829 307.956 149.708 307.394C149.695 307.277 149.695 307.16 149.708 307.042L149.917 304.24C149.95 304.066 150.019 303.901 150.12 303.755C150.22 303.61 150.35 303.489 150.499 303.398C150.649 303.309 150.816 303.252 150.989 303.232C151.162 303.213 151.337 303.231 151.502 303.286Z" stroke="#171518" stroke-miterlimit="10"/>
<path d="M53.6734 78.0254L288.44 78.0254C300.306 78.0254 309.925 88.026 309.925 100.362V110.472C309.925 122.809 300.306 132.809 288.44 132.809L53.6734 132.809C41.8077 132.809 32.1887 122.809 32.1887 110.472V100.362C32.1887 88.026 41.8077 78.0254 53.6734 78.0254Z" fill="#D16179"/>
<path d="M169.901 200.044C185.156 200.096 263.192 198.566 284.808 153.09C286.597 149.355 287.186 145.149 287.186 140.975V68.6612C287.186 64.481 286.601 60.2867 284.808 56.5452C262.571 9.85543 180.398 9.96094 170.419 9.96094C160.179 9.96094 78.6275 10.0664 56.495 56.5452C54.7042 60.2803 54.1156 64.4866 54.1156 68.6597L54.1156 140.974C54.1156 145.155 54.701 149.348 56.495 153.09C77.5414 197.353 152.163 199.991 169.901 200.044Z" fill="#F2748A"/>
<path d="M170.43 175.972C183.187 176.011 248.443 174.882 266.519 141.322C268.003 138.587 268.508 135.419 268.508 132.28V79.1149C268.508 75.9685 268.007 72.812 266.519 70.0721C247.924 35.6155 179.208 35.6934 170.862 35.6934C162.3 35.6934 94.104 35.7713 75.5949 70.0721C74.1103 72.8064 73.6054 75.9737 73.6054 79.1136V132.279C73.6054 135.425 74.1071 138.581 75.5949 141.322C93.1952 173.987 155.598 175.933 170.43 175.972Z" fill="#FFFFFD"/>
<path d="M111.537 7.98793C113.699 3.61616 118.507 1.29534 123.479 0L217.822 0C222.794 1.29534 227.603 3.61616 229.765 7.98793C238.032 24.6654 208.205 72.2152 170.651 72.2152C133.096 72.2152 103.27 24.6654 111.537 7.98793Z" fill="#D16179"/>
<path d="M193.325 90.4531H198.01C201.71 90.4531 204.709 93.5714 204.709 97.4179V121.997C204.709 125.843 201.71 128.962 198.01 128.962H193.325C189.625 128.962 186.625 125.843 186.625 121.997V97.4179C186.625 93.5714 189.625 90.4531 193.325 90.4531Z" fill="#231F20"/>
<path d="M145.1 90.4531H149.786C153.486 90.4531 156.485 93.5714 156.485 97.4179V121.997C156.485 125.843 153.486 128.962 149.786 128.962H145.1C141.4 128.962 138.401 125.843 138.401 121.997V97.4179C138.401 93.5714 141.4 90.4531 145.1 90.4531Z" fill="#231F20"/>
<path d="M145.109 115.027H149.841C153.578 115.027 156.606 118.102 156.606 121.895V146.132C156.606 149.925 153.578 153 149.841 153H145.109C141.373 153 138.344 149.925 138.344 146.132V121.895C138.344 118.102 141.373 115.027 145.109 115.027Z" fill="white"/>
<path d="M193.45 115.027H198.182C201.918 115.027 204.947 118.102 204.947 121.895V146.132C204.947 149.925 201.918 153 198.182 153H193.45C189.714 153 186.685 149.925 186.685 146.132V121.895C186.685 118.102 189.714 115.027 193.45 115.027Z" fill="white"/>
<path d="M219.872 186.816H224.739C227.883 186.816 230.431 189.421 230.431 192.633V206.995C230.431 210.207 227.883 212.811 224.739 212.811H219.872C216.729 212.811 214.181 210.207 214.181 206.995V192.633C214.181 189.421 216.729 186.816 219.872 186.816Z" fill="#D16179"/>
<path d="M116.593 187.908H121.461C124.604 187.908 127.152 190.513 127.152 193.726V208.086C127.152 211.3 124.604 213.903 121.461 213.903H116.593C113.45 213.903 110.902 211.3 110.902 208.086V193.726C110.902 190.513 113.45 187.908 116.593 187.908Z" fill="#F2748A"/>
<path d="M226.633 211.404C222.024 215.174 214.341 211.04 214.181 205.323C214.181 202.811 214.181 198.188 214.181 198.188C215.583 205.286 218.828 209.545 226.633 211.404Z" fill="#F7A9B1"/>
<path d="M123.354 212.497C118.745 216.265 111.062 212.131 110.902 206.428C110.902 203.915 110.902 199.291 110.902 199.291C112.304 206.377 115.549 210.674 123.354 212.497Z" fill="#E9B9BE"/>
<path d="M151.479 148.291L140.698 138.157L39.5054 249.761C33.2831 256.623 29.9694 265.699 30.2927 274.992C30.616 284.284 34.5511 293.032 41.2302 299.31L51.9998 309.435L153.194 197.831C159.413 190.969 162.728 181.896 162.406 172.607C162.085 163.316 158.154 154.57 151.479 148.291Z" fill="#F2748A"/>
<path d="M159.366 160.182C167.363 173.864 163.713 188.521 152.886 200.227L77.3604 281.878L76.3773 280.934C70.4253 274.876 168.612 184.921 159.366 160.182Z" fill="#D16179"/>
<path d="M296.016 285.727L286.735 295.875L189.811 196.756C183.85 190.661 180.419 182.317 180.27 173.56C180.122 164.804 183.27 156.352 189.021 150.064L198.293 139.925L295.227 239.052C301.186 245.147 304.619 253.491 304.767 262.249C304.915 271.005 301.768 279.457 296.016 285.745L296.016 285.727Z" fill="#F2748A"/>
<path d="M301.714 277.051C264.896 237.605 191.907 166.948 187.116 161.223C182.324 155.499 190.245 149.487 198.695 139.7L289.174 230.341C307.419 245.61 312.274 258.713 301.714 277.051Z" fill="#D16179"/>
</svg>
