<svg width="1440" height="220" viewBox="0 0 1440 220" fill="none" xmlns="http://www.w3.org/2000/svg">
<path fill-rule="evenodd" clip-rule="evenodd" d="M-161.895 -249.961C-188.961 -188.537 -38.5984 -128.967 -12.8851 -63.1928C15.2503 8.77703 -123.004 115.991 -5.44313 150.24C167.097 200.505 328.629 71.6203 512.615 89.8997C597.932 98.3761 583.162 201.75 667.166 217.065C750.162 232.196 798.479 165.508 878.495 156.603C948.321 148.832 1025.29 172.272 1097.28 169.2C1182.94 165.545 1267.83 157.995 1341.56 136.846C1426.56 112.462 1550.67 93.104 1559.99 36.4723C1570.11 -25.0267 1371.52 -73.908 1386.25 -134.743C1407.7 -223.383 1695.4 -247.999 1650.89 -339.064C1612.27 -418.074 1354.42 -360.401 1247.29 -419.047C1143.95 -475.611 1212 -591.727 1098.81 -641.265C997.381 -685.658 865.954 -634.581 746.58 -638.187C633.41 -641.606 519.925 -666.655 408.77 -662.109C289.093 -657.215 127.765 -668.204 71.7841 -610.591C6.16119 -543.055 167.696 -438.459 120.134 -365.056C78.7706 -301.221 -132.461 -316.755 -161.895 -249.961Z" fill="url(#paint0_linear)"/>
<defs>
<linearGradient id="paint0_linear" x1="-4.00018" y1="-81" x2="1524" y2="-69" gradientUnits="userSpaceOnUse">
<stop stop-color="#64C0C1"/>
<stop offset="1" stop-color="#B8C3FD"/>
</linearGradient>
</defs>
</svg>
