<svg width="1440" height="287" viewBox="0 0 1440 287" fill="none" xmlns="http://www.w3.org/2000/svg">
<path fill-rule="evenodd" clip-rule="evenodd" d="M1088.64 65.7724C1255.97 37.418 1363.94 226.432 1500.86 155.173C1650.72 77.178 1312.84 -51.8554 1463.54 -129.338C1670.78 -235.897 2112.48 -72.4619 2211.76 -210.354C2308.8 -345.137 1790.26 -288.596 1635.74 -368.523C1584.01 -395.281 1642.05 -456.226 1649.66 -501.109C1661.37 -570.194 1700.54 -640.876 1693.2 -707.375C1682.14 -807.504 1760.69 -964.432 1595.48 -991.812C1438.61 -1017.81 1279.95 -843.861 1099.79 -805.722C962.661 -776.695 830.313 -848.167 701.68 -802.607C568.263 -755.354 530.857 -656.933 462.268 -579.926C408.453 -519.506 430.25 -445.015 339.792 -396.299C179.513 -309.982 -111.954 -316.944 -220.578 -212.181C-304.845 -130.91 -90.8917 -81.3208 -67.7796 -3.21885C-43.4684 78.9349 -194.304 210.128 -81.8978 256.454C44.1227 308.392 283.293 207.641 456.497 212.853C572.995 216.359 633.625 309.776 754.613 281.626C906.746 246.229 934.616 91.8713 1088.64 65.7724Z" fill="url(#paint0_linear)"/>
<defs>
<linearGradient id="paint0_linear" x1="1610" y1="-107" x2="-42" y2="53.0006" gradientUnits="userSpaceOnUse">
<stop stop-color="#64C0C1"/>
<stop offset="1" stop-color="#B8C3FD"/>
</linearGradient>
</defs>
</svg>
