<svg width="379" height="556" viewBox="0 0 379 556" fill="none" xmlns="http://www.w3.org/2000/svg">
<path d="M147.889 555.932C221.277 555.932 280.77 550.305 280.77 543.365C280.77 536.424 221.277 530.797 147.889 530.797C74.5014 530.797 15.0088 536.424 15.0088 543.365C15.0088 550.305 74.5014 555.932 147.889 555.932Z" fill="#ADCFBC"/>
<path d="M144.219 499.75C171.573 499.75 193.759 476.552 193.759 448.001C193.759 419.45 171.573 396.252 144.219 396.252C116.865 396.252 94.6787 419.45 94.6787 448.001C94.6787 476.552 116.85 499.75 144.219 499.75Z" fill="#F2F4FA"/>
<path d="M263.475 382.22C265.751 382.222 268.004 382.687 270.098 383.586C272.192 384.485 274.084 385.801 275.661 387.454C278.91 390.868 280.725 395.412 280.727 400.14C280.727 415.502 210.146 475.073 145.424 475.073C80.7016 475.073 4.46789 417.41 4.46789 400.14C4.45113 395.403 6.26207 390.844 9.51882 387.425C11.0936 385.766 12.9845 384.443 15.0784 383.536C17.1723 382.629 19.4263 382.156 21.7056 382.146L263.475 382.22Z" fill="#F2F4FA"/>
<path d="M58.5588 251.117L61.8184 254.902L-32.7543 344.014C-36.6107 347.689 -41.1699 350.534 -46.1541 352.377C-51.1382 354.219 -56.4428 355.021 -61.7445 354.732C-67.0461 354.442 -72.2338 353.069 -76.9912 350.695C-81.7485 348.321 -85.9759 344.996 -89.4156 340.924L-92.6753 337.109L1.91214 247.997C5.76725 244.321 10.3258 241.476 15.3095 239.633C20.2932 237.791 25.5975 236.99 30.8986 237.281C36.1998 237.571 41.3865 238.947 46.1422 241.323C50.8979 243.699 55.1227 247.027 58.5588 251.102V251.117Z" fill="#F2F4FA"/>
<path d="M42.3178 241.568C2.98224 276.402 -37.9684 312.05 -73.0459 352.547C-80.2405 350.049 -87.5673 343.528 -93 337.2L-2.18615 251.178C3.67895 245.605 10.944 241.751 18.8251 240.03C26.6465 238.345 34.7788 238.877 42.3178 241.568Z" fill="#B8C3FD"/>
<path d="M250.935 202.457C246.923 200.002 242.311 198.721 237.616 198.761C232.921 198.8 228.33 200.157 224.359 202.679C170.032 236.937 118.569 233.27 55.4029 201.541C24.9065 186.208 -26.9536 319.617 -26.9536 352.352C-23.3563 477.304 312.222 469.157 312.222 352.352C312.119 352.337 301.562 233.507 250.935 202.457Z" fill="#F2F4FA"/>
<path d="M375.021 153.947L379 156.904L305.424 265.547C302.444 270 298.61 273.808 294.147 276.746C289.683 279.684 284.681 281.693 279.435 282.654C274.227 283.578 268.886 283.424 263.739 282.201C258.592 280.979 253.746 278.713 249.497 275.542L245.518 272.585L319.094 163.942C322.073 159.489 325.908 155.681 330.371 152.743C334.834 149.805 339.836 147.796 345.083 146.835C350.291 145.911 355.632 146.065 360.779 147.288C365.926 148.51 370.772 150.776 375.021 153.947Z" fill="#F2F4FA"/>
<path d="M178.533 376.396C154.306 364.568 130.079 364.568 105.852 376.396C100.792 376.436 95.924 374.45 92.3172 370.877C88.7104 367.303 86.6603 362.433 86.6177 357.338V285.259C86.6311 282.731 87.1396 280.23 88.1141 277.901C89.0886 275.571 90.5098 273.458 92.2965 271.682C94.0832 269.906 96.2002 268.503 98.5263 267.552C100.852 266.601 103.342 266.122 105.852 266.141H178.533C183.593 266.102 188.461 268.087 192.068 271.661C195.675 275.235 197.725 280.104 197.767 285.2V357.279C197.754 359.807 197.245 362.307 196.271 364.637C195.297 366.966 193.875 369.08 192.089 370.856C190.302 372.631 188.185 374.035 185.859 374.986C183.533 375.936 181.043 376.416 178.533 376.396Z" fill="#F1F3FF" stroke="#C7C9F4" stroke-width="5" stroke-miterlimit="10"/>
<path d="M96.5429 284.281H96.0143C95.7347 284.279 95.4574 284.333 95.1984 284.439C94.9393 284.545 94.7036 284.701 94.5046 284.899C94.3055 285.096 94.1471 285.332 94.0383 285.591C93.9295 285.85 93.8725 286.129 93.8706 286.41V311.767C93.8706 312.05 93.9262 312.329 94.0342 312.589C94.1423 312.849 94.3007 313.085 94.5002 313.284C94.6996 313.482 94.9362 313.638 95.1962 313.743C95.4561 313.848 95.7342 313.9 96.0143 313.897H96.5429C96.8238 313.9 97.1026 313.848 97.3633 313.743C97.6241 313.638 97.8615 313.482 98.0622 313.284C98.2628 313.086 98.4226 312.851 98.5323 312.59C98.642 312.33 98.6994 312.05 98.7013 311.767V286.41C98.6936 285.84 98.4623 285.297 98.0579 284.898C97.6536 284.499 97.109 284.277 96.5429 284.281Z" fill="#DCE1FE"/>
<path d="M96.543 317.18H96.0143C95.4458 317.18 94.9005 317.407 94.4985 317.812C94.0964 318.217 93.8706 318.766 93.8706 319.338V328.21C93.8706 328.493 93.9262 328.772 94.0341 329.034C94.142 329.295 94.3001 329.532 94.4994 329.731C94.6986 329.93 94.9351 330.088 95.1951 330.195C95.4551 330.302 95.7335 330.356 96.0143 330.354H96.543C97.1065 330.358 97.649 330.138 98.0529 329.742C98.4569 329.347 98.6898 328.807 98.7014 328.239V319.368C98.7053 319.081 98.6523 318.796 98.5454 318.529C98.4385 318.263 98.2798 318.021 98.0788 317.817C97.8778 317.613 97.6384 317.452 97.3747 317.343C97.1109 317.233 96.8282 317.178 96.543 317.18Z" fill="#DCE1FE"/>
<path d="M186.316 331.992H185.861C185.34 332.048 184.862 332.307 184.527 332.713C184.193 333.119 184.029 333.64 184.07 334.166V360.232C184.029 360.758 184.193 361.279 184.527 361.685C184.862 362.091 185.34 362.35 185.861 362.406H186.316C186.837 362.35 187.315 362.091 187.65 361.685C187.985 361.279 188.149 360.758 188.107 360.232V334.151C188.145 333.627 187.979 333.11 187.645 332.707C187.31 332.305 186.834 332.048 186.316 331.992Z" fill="#DCE1FE"/>
<path d="M186.316 314.707H185.861C185.341 314.76 184.863 315.015 184.528 315.418C184.193 315.822 184.029 316.341 184.07 316.866V325.737C184.029 326.26 184.194 326.777 184.529 327.179C184.864 327.58 185.343 327.832 185.861 327.881H186.316C186.834 327.832 187.313 327.58 187.648 327.179C187.983 326.777 188.148 326.26 188.107 325.737V316.866C188.148 316.341 187.984 315.822 187.649 315.418C187.314 315.015 186.836 314.76 186.316 314.707Z" fill="#DCE1FE"/>
<path d="M-26.9536 352.547C-26.9536 319.797 24.9947 186.284 55.5205 201.632C71.334 209.749 90.642 217.378 97.6898 219.152C101.008 219.995 62.1571 221.089 31.9837 252.42C-1.5668 287.21 -26.9536 352.547 -26.9536 352.547Z" fill="#B8C3FD"/>
<path d="M361.277 144.899C344.993 138.985 330.31 146.259 320.355 160.971L250.92 263.493L252.168 264.38C259.906 269.733 333.086 140.005 361.277 144.899Z" fill="#B8C3FD"/>
<path d="M97.8945 466.039C106.998 493.791 139.007 507.645 163.967 495.092C137.391 494.752 114.354 487.167 97.8945 466.039Z" fill="#B1B9E4"/>
<path d="M180.926 469.883C127.906 487.936 39.5437 456.576 11.7783 413.402C78.2626 467.842 181.528 471.45 180.926 469.883Z" fill="#B1B9E4"/>
<path d="M166.359 319.646H143.806V342.682H166.359V319.646Z" fill="#FCB614"/>
<path d="M143.807 319.646H122.047V342.682H143.807V319.646Z" fill="#EF4E63"/>
<path d="M143.807 295.797H122.047V319.646H143.807V295.797Z" fill="#63CCF5"/>
<path d="M93.1221 184.82H91.3601C89.4207 184.863 87.5769 185.677 86.2315 187.084C84.8862 188.492 84.1487 190.378 84.1802 192.331V203.642C84.1526 205.593 84.8919 207.475 86.2368 208.88C87.5817 210.284 89.4233 211.096 91.3601 211.138H93.1074C95.0443 211.096 96.8858 210.284 98.2307 208.88C99.5757 207.475 100.315 205.593 100.287 203.642V192.331C100.319 190.381 99.5834 188.496 98.2412 187.089C96.899 185.683 95.059 184.867 93.1221 184.82Z" fill="#F2F4FA"/>
<path d="M195.418 185.602H193.67C191.734 185.644 189.892 186.456 188.547 187.86C187.202 189.265 186.463 191.147 186.49 193.098V204.423C186.463 206.374 187.202 208.257 188.547 209.661C189.892 211.065 191.734 211.877 193.67 211.92H195.418C197.355 211.877 199.196 211.065 200.541 209.661C201.886 208.257 202.625 206.374 202.598 204.423V193.098C202.625 191.147 201.886 189.265 200.541 187.86C199.196 186.456 197.355 185.644 195.418 185.602Z" fill="#F2F4FA"/>
<path d="M202.579 197.121V206.569C202.625 207.275 202.535 207.982 202.315 208.654C202.085 209.312 201.731 209.919 201.272 210.443C200.829 210.936 200.282 211.325 199.672 211.581C199.081 211.842 198.436 211.953 197.793 211.907H192.933C197.881 210.354 200.935 205.12 202.579 197.121Z" fill="#B8C3FD"/>
<path d="M84.2063 195.48V205.52C84.1631 206.249 84.2476 206.979 84.4559 207.678C84.671 208.363 85.0205 208.996 85.4837 209.541C85.9204 210.068 86.4668 210.492 87.0841 210.783C87.6803 211.065 88.3352 211.197 88.9929 211.168H93.8676C88.9489 209.497 85.8361 203.879 84.2063 195.48Z" fill="#B1B9E4"/>
<path d="M31.629 77.3H254.339C257.785 77.2669 261.203 77.9189 264.397 79.2187C267.592 80.5186 270.5 82.4406 272.956 84.8747C275.411 87.3087 277.365 90.2069 278.706 93.403C280.047 96.5992 280.748 100.03 280.769 103.5V105.452C280.74 108.916 280.033 112.341 278.689 115.53C277.345 118.719 275.39 121.611 272.935 124.038C270.48 126.466 267.575 128.383 264.384 129.679C261.193 130.975 257.78 131.625 254.339 131.592H31.629C28.1873 131.625 24.7729 130.975 21.5811 129.678C18.3894 128.381 15.483 126.463 13.0282 124.033C10.5734 121.604 8.61847 118.711 7.27516 115.52C5.93185 112.329 5.22657 108.903 5.19971 105.437V103.5C5.22081 100.03 5.92179 96.5992 7.26252 93.403C8.60325 90.2069 10.5574 87.3087 13.0127 84.8747C15.4681 82.4406 18.3764 80.5186 21.571 79.2187C24.7656 77.9189 28.1836 77.2669 31.629 77.3Z" fill="#B8C3FD"/>
<path d="M144.218 198.126C129.08 198.126 51.716 196.648 30.2496 151.611C28.5791 147.854 27.7712 143.765 27.8857 139.65V68.0142C27.7712 63.8988 28.5791 59.8104 30.2496 56.0528C52.274 9.78908 133.808 9.89258 143.705 9.89258C153.865 9.89258 234.739 10.0109 256.689 56.0528C258.367 59.8082 259.175 63.8982 259.053 68.0142V139.738C259.175 143.854 258.367 147.944 256.689 151.7C235.752 195.524 161.735 198.126 144.218 198.126Z" fill="#F2F4FA"/>
<path d="M143.618 174.337C130.962 174.337 66.2392 173.257 48.3114 140.005C46.9329 137.258 46.2567 134.209 46.3439 131.133V78.3641C46.2592 75.2885 46.9353 72.24 48.3114 69.4929C66.7678 35.3533 134.941 35.4863 143.192 35.4863C151.444 35.4863 219.323 35.5603 237.677 69.4929C239.059 72.2379 239.735 75.2879 239.645 78.3641V131.119C239.737 134.195 239.061 137.246 237.677 139.99C220.219 172.37 158.331 174.307 143.618 174.337Z" fill="#FFFFFD"/>
<path d="M202.026 7.91022C199.883 3.57809 195.111 1.28633 190.192 0H96.6179C91.6844 1.28633 86.9125 3.57809 84.7688 7.91022C76.5757 24.4403 106.147 71.4876 143.398 71.4876C180.648 71.4876 210.293 24.4403 202.026 7.91022Z" fill="#B8C3FD"/>
<path d="M117.787 89.6136H119.256C120.328 89.6058 121.391 89.8108 122.384 90.2167C123.378 90.6227 124.282 91.2217 125.045 91.9796C125.809 92.7374 126.417 93.6393 126.834 94.6338C127.252 95.6282 127.47 96.6956 127.478 97.7752V119.613C127.459 121.791 126.582 123.872 125.04 125.399C123.499 126.927 121.418 127.776 119.256 127.76H117.787C116.716 127.77 115.653 127.567 114.66 127.162C113.667 126.758 112.762 126.16 111.998 125.404C111.235 124.647 110.627 123.746 110.209 122.753C109.791 121.759 109.573 120.692 109.565 119.613V97.7752C109.571 96.6951 109.788 95.6267 110.205 94.6314C110.622 93.6361 111.229 92.7334 111.993 91.9752C112.757 91.2169 113.662 90.618 114.656 90.2127C115.651 89.8075 116.715 89.6039 117.787 89.6136Z" fill="#231F20"/>
<path d="M165.67 89.6135H167.138C168.21 89.6057 169.273 89.8106 170.267 90.2166C171.26 90.6225 172.164 91.2216 172.928 91.9794C173.691 92.7373 174.299 93.6392 174.717 94.6336C175.134 95.628 175.353 96.6955 175.36 97.7751V119.613C175.341 121.791 174.464 123.872 172.923 125.399C171.381 126.927 169.301 127.776 167.138 127.76H165.67C163.507 127.776 161.427 126.927 159.885 125.399C158.343 123.872 157.467 121.791 157.447 119.613V97.7751C157.455 96.6955 157.674 95.628 158.091 94.6336C158.508 93.6392 159.116 92.7373 159.88 91.9794C160.643 91.2216 161.548 90.6225 162.541 90.2166C163.534 89.8106 164.598 89.6057 165.67 89.6135Z" fill="#231F20"/>
</svg>
