<svg width="461" height="301" viewBox="0 0 461 301" fill="none" xmlns="http://www.w3.org/2000/svg">
<path d="M144.958 39.9949L154.801 28.1567L52.7323 -71.4323C46.7449 -77.2701 38.8625 -80.2927 30.8183 -79.8356C22.7741 -79.3786 15.2267 -75.4802 9.83559 -68.9966L0 -57.1682L102.068 42.4208C108.055 48.2575 115.934 51.2801 123.977 50.8241C132.019 50.3693 139.565 46.4741 144.958 39.9949Z" fill="#FEDF68"/>
<path d="M134.387 41.9796C95.3198 6.42221 24.8393 -64.5676 19.2083 -69.1427C13.5772 -73.7177 8.52795 -65.0951 0 -55.6188L90.2008 32.1631C105.546 50.1113 118.065 54.1837 134.387 41.9796Z" fill="#E8C143"/>
<path d="M342.072 83.0906C338.038 85.6094 333.446 86.9161 328.779 86.872C324.113 86.8279 319.543 85.4351 315.55 82.8389C261.418 47.7662 209.941 51.5337 146.874 84.0316C116.47 99.7154 64.6416 -36.8939 64.6416 -70.4222C68.2434 -198.354 403.162 -189.98 403.162 -70.4222C403.162 -70.3964 392.672 51.3078 342.072 83.0906Z" fill="#FEDF68"/>
<path d="M66.3428 -72.3005C66.3428 -38.458 117.284 99.5389 147.222 83.7209C162.738 75.3741 181.669 67.4466 188.627 65.6074C191.882 64.7448 153.766 63.603 124.219 31.2314C91.2207 -4.7806 66.3428 -72.3005 66.3428 -72.3005Z" fill="#E8C143"/>
<path opacity="0.8" d="M280.683 73.3983C285.723 69.0119 294.111 73.8355 294.291 80.4489C294.291 83.3957 294.291 88.7676 294.291 88.7676C292.767 80.4489 289.213 75.4985 280.683 73.3983Z" fill="#FFF9E1"/>
<path d="M268.939 -95.039C245.581 -83.056 222.223 -83.056 198.864 -95.039C188.624 -95.039 180.317 -86.3435 180.317 -75.6979V-2.60493C180.362 8.06626 188.692 16.7617 198.864 16.7617L268.939 16.7617C279.19 16.7617 287.487 8.06624 287.487 -2.58049V-75.6851C287.532 -86.3436 279.236 -95.039 268.939 -95.039Z" fill="#FFF9E1" stroke="#E8C143" stroke-width="5" stroke-miterlimit="10"/>
<path d="M185.364 100.139H180.372C177.523 100.139 175.214 97.3985 175.214 94.0175V77.8359C175.214 74.4549 177.523 71.7148 180.372 71.7148H185.364C188.214 71.7148 190.524 74.4549 190.524 77.8359V94.0175C190.524 97.3985 188.214 100.139 185.364 100.139Z" fill="#E8C143"/>
<path d="M288.56 98.2422H283.013C279.847 98.2422 277.28 95.6847 277.28 92.5291V77.4263C277.28 74.2707 279.847 71.7132 283.013 71.7132H288.56C291.725 71.7132 294.291 74.2707 294.291 77.4263V92.5291C294.291 95.6847 291.725 98.2422 288.56 98.2422Z" fill="#FEDF68"/>
<path opacity="0.8" d="M180.317 73.3977C184.097 69.0127 190.388 73.8348 190.524 80.448C190.524 83.3959 190.524 88.7676 190.524 88.7676C189.38 80.4903 186.714 75.5268 180.317 73.3977Z" fill="#FFF9E1"/>
<path d="M351.45 219.518H116.354C105.644 219.518 96.9629 209.799 96.9629 197.81V182.482C96.9629 170.494 105.644 160.775 116.354 160.775H351.45C362.16 160.775 370.841 170.494 370.841 182.482V197.81C370.841 209.799 362.16 219.518 351.45 219.518Z" fill="#E8C143"/>
<path d="M235.486 88.7694C220.566 88.7133 144.246 90.3458 123.105 138.854C121.353 142.84 120.778 147.32 120.778 151.765V228.922C120.778 233.374 121.35 237.842 123.105 241.835C144.852 291.638 225.219 291.525 234.98 291.525C244.994 291.525 324.754 291.413 346.401 241.835C348.153 237.849 348.727 233.368 348.727 228.923V151.768C348.727 147.315 348.156 142.847 346.401 138.854C325.816 91.6393 252.834 88.8255 235.486 88.7694Z" fill="#FEDF68"/>
<path d="M235.377 115.298C222.684 115.258 157.754 116.447 139.769 151.808C138.291 154.691 137.79 158.023 137.79 161.326V217.36C137.79 220.67 138.288 223.99 139.769 226.879C158.271 263.184 226.642 263.102 234.946 263.102C243.466 263.102 311.321 263.019 329.737 226.879C331.215 223.996 331.716 220.665 331.716 217.362V161.327C331.716 158.017 331.218 154.697 329.737 151.808C312.224 117.391 250.135 115.34 235.377 115.298Z" fill="#FFFFFD"/>
<path d="M292.926 292.616C290.799 297.204 286.066 299.64 281.174 301H188.331C183.438 299.64 178.706 297.204 176.579 292.616C168.443 275.111 197.796 225.203 234.752 225.203C271.71 225.203 301.062 275.111 292.926 292.616Z" fill="#E8C143"/>
<path d="M211.974 204.359H206.498C203.313 204.359 200.73 201.439 200.73 197.836V171.089C200.73 167.486 203.313 164.566 206.498 164.566H211.974C215.159 164.566 217.742 167.486 217.742 171.089V197.836C217.742 201.439 215.159 204.359 211.974 204.359Z" fill="#231F20"/>
<path d="M261.306 204.359H255.83C252.645 204.359 250.062 201.439 250.062 197.836V171.089C250.062 167.486 252.645 164.566 255.83 164.566H261.306C264.491 164.566 267.074 167.486 267.074 171.089V197.836C267.074 201.439 264.491 204.359 261.306 204.359Z" fill="#231F20"/>
<path d="M450.228 -96.0455L440.831 -106.409L345.945 -0.638939C340.11 5.86421 336.828 14.6529 336.819 23.7928C336.811 32.9317 340.077 41.6743 345.899 48.0951L355.287 58.4492L450.174 -47.3213C456.006 -53.8244 459.289 -62.6098 459.299 -71.7465C459.309 -80.8843 456.047 -89.6247 450.228 -96.0455Z" fill="#FEDF68"/>
<path d="M457.543 -81.7757C464.394 -68.3537 460.584 -54.4288 450.32 -43.6013L378.726 31.9199L377.86 30.9775C372.626 24.9457 465.172 -57.6999 457.543 -81.7757Z" fill="#FFF2C3"/>
</svg>
