<svg width="320" height="364" viewBox="0 0 320 364" fill="none" xmlns="http://www.w3.org/2000/svg">
<path d="M238.703 140.716H237.794C236.629 140.716 235.49 140.37 234.522 139.722C233.554 139.075 232.799 138.155 232.353 137.079C231.908 136.003 231.791 134.818 232.018 133.676C232.245 132.533 232.806 131.484 233.629 130.66L234.143 130.145C235.247 129.041 235.868 127.543 235.868 125.981C235.868 124.419 235.247 122.921 234.143 121.816L226.566 114.243C226.02 113.696 225.371 113.261 224.656 112.965C223.942 112.668 223.176 112.516 222.402 112.516C221.628 112.516 220.862 112.668 220.148 112.965C219.433 113.261 218.784 113.696 218.237 114.243L217.719 114.761C216.896 115.585 215.847 116.146 214.705 116.374C213.563 116.601 212.379 116.485 211.303 116.039C210.227 115.594 209.307 114.84 208.66 113.871C208.012 112.903 207.667 111.765 207.666 110.6V109.679C207.666 108.118 207.046 106.62 205.942 105.516C204.838 104.412 203.34 103.791 201.778 103.791H191.065C190.292 103.791 189.526 103.943 188.811 104.238C188.096 104.534 187.447 104.968 186.899 105.514C186.352 106.061 185.918 106.71 185.622 107.425C185.326 108.14 185.174 108.906 185.174 109.679V110.85C185.174 112.015 184.829 113.154 184.182 114.122C183.535 115.091 182.615 115.846 181.539 116.292C180.463 116.738 179.279 116.854 178.136 116.627C176.994 116.4 175.944 115.839 175.121 115.015L174.353 114.247C173.807 113.699 173.157 113.265 172.443 112.969C171.728 112.672 170.962 112.52 170.189 112.52C169.415 112.52 168.649 112.672 167.934 112.969C167.22 113.265 166.57 113.699 166.024 114.247L158.447 121.82C157.343 122.925 156.723 124.423 156.723 125.985C156.723 127.547 157.343 129.044 158.447 130.149L158.961 130.664C159.782 131.487 160.342 132.535 160.568 133.675C160.795 134.816 160.68 135.998 160.236 137.072C159.792 138.147 159.041 139.067 158.075 139.715C157.11 140.364 155.975 140.712 154.812 140.716H154.159C153.384 140.713 152.616 140.863 151.899 141.158C151.182 141.452 150.53 141.886 149.981 142.433C149.432 142.98 148.996 143.63 148.699 144.346C148.401 145.062 148.248 145.829 148.248 146.604V157.317C148.248 158.091 148.401 158.857 148.697 159.571C148.993 160.286 149.427 160.935 149.974 161.482C150.522 162.029 151.171 162.463 151.886 162.758C152.601 163.054 153.367 163.206 154.14 163.205H155.054C156.219 163.206 157.357 163.552 158.326 164.199C159.294 164.847 160.049 165.767 160.494 166.843C160.94 167.919 161.057 169.103 160.83 170.246C160.602 171.388 160.042 172.438 159.218 173.262L158.451 174.03C157.347 175.134 156.727 176.632 156.727 178.194C156.727 179.756 157.347 181.254 158.451 182.359L166.024 189.936C167.129 191.04 168.628 191.66 170.19 191.66C171.753 191.66 173.252 191.04 174.357 189.936L175.125 189.168C175.948 188.344 176.997 187.783 178.14 187.556C179.282 187.328 180.467 187.445 181.543 187.891C182.619 188.336 183.539 189.092 184.186 190.06C184.833 191.029 185.178 192.168 185.177 193.333V194.242C185.177 195.805 185.798 197.304 186.903 198.409C188.008 199.514 189.507 200.134 191.069 200.134H201.782C202.556 200.134 203.322 199.982 204.036 199.686C204.751 199.39 205.4 198.955 205.947 198.408C206.494 197.861 206.927 197.212 207.223 196.497C207.519 195.782 207.671 195.016 207.67 194.242V193.59C207.67 192.425 208.015 191.286 208.662 190.317C209.309 189.349 210.228 188.594 211.305 188.148C212.381 187.702 213.565 187.585 214.708 187.813C215.85 188.04 216.899 188.601 217.723 189.425L218.241 189.943C219.346 191.047 220.844 191.668 222.406 191.668C223.968 191.668 225.466 191.047 226.57 189.943L234.143 182.378C235.247 181.273 235.868 179.775 235.868 178.213C235.868 176.651 235.247 175.154 234.143 174.049L233.376 173.281C232.552 172.457 231.992 171.407 231.765 170.265C231.538 169.122 231.654 167.938 232.1 166.862C232.546 165.786 233.3 164.866 234.269 164.218C235.237 163.571 236.376 163.225 237.54 163.225H238.692C240.254 163.225 241.751 162.604 242.855 161.5C243.96 160.396 244.58 158.898 244.58 157.336V146.604C244.58 145.045 243.961 143.549 242.859 142.445C241.758 141.341 240.263 140.719 238.703 140.716ZM197.932 174.283C193.616 174.284 189.397 173.004 185.808 170.607C182.219 168.209 179.421 164.802 177.769 160.814C176.117 156.827 175.685 152.439 176.526 148.206C177.368 143.972 179.447 140.084 182.499 137.032C185.551 133.98 189.439 131.902 193.672 131.06C197.906 130.218 202.293 130.65 206.281 132.302C210.268 133.954 213.676 136.752 216.074 140.341C218.471 143.93 219.75 148.149 219.75 152.466C219.75 158.252 217.451 163.801 213.359 167.893C209.268 171.984 203.719 174.283 197.932 174.283Z" fill="#F2972C"/>
<path d="M264.329 178.777H263.64C262.764 178.779 261.907 178.519 261.177 178.032C260.448 177.545 259.879 176.851 259.543 176.04C259.207 175.228 259.119 174.335 259.29 173.473C259.461 172.612 259.883 171.82 260.503 171.199L260.892 170.809C261.304 170.398 261.631 169.909 261.854 169.37C262.077 168.832 262.192 168.255 262.192 167.672C262.192 167.089 262.077 166.512 261.854 165.973C261.631 165.435 261.304 164.946 260.892 164.535L255.197 158.826C254.365 157.992 253.235 157.524 252.058 157.524C250.881 157.524 249.752 157.992 248.919 158.826L248.53 159.216C247.909 159.842 247.118 160.269 246.255 160.443C245.393 160.617 244.498 160.53 243.684 160.194C242.871 159.858 242.175 159.287 241.686 158.554C241.197 157.821 240.936 156.958 240.936 156.076V155.387C240.935 154.803 240.82 154.226 240.597 153.687C240.374 153.148 240.047 152.658 239.634 152.246C239.222 151.834 238.733 151.507 238.195 151.285C237.657 151.062 237.081 150.948 236.499 150.948H228.426C227.844 150.948 227.267 151.062 226.729 151.285C226.191 151.507 225.702 151.834 225.29 152.246C224.878 152.658 224.551 153.148 224.328 153.687C224.105 154.226 223.989 154.803 223.989 155.387V156.267C223.989 157.149 223.728 158.011 223.239 158.744C222.749 159.477 222.054 160.048 221.24 160.384C220.427 160.721 219.532 160.807 218.67 160.633C217.807 160.459 217.015 160.032 216.395 159.406L215.816 158.826C214.983 157.992 213.854 157.524 212.677 157.524C211.5 157.524 210.37 157.992 209.537 158.826L203.842 164.535C203.43 164.946 203.104 165.435 202.881 165.973C202.657 166.512 202.543 167.089 202.543 167.672C202.543 168.255 202.657 168.832 202.881 169.37C203.104 169.909 203.43 170.398 203.842 170.809L204.232 171.199C204.852 171.82 205.274 172.612 205.445 173.475C205.616 174.337 205.527 175.23 205.191 176.042C204.854 176.854 204.285 177.547 203.555 178.034C202.825 178.521 201.967 178.78 201.09 178.777H200.615C200.031 178.773 199.452 178.885 198.911 179.107C198.371 179.328 197.879 179.654 197.464 180.067C197.05 180.479 196.72 180.97 196.496 181.51C196.271 182.05 196.155 182.63 196.154 183.215V191.302C196.155 191.886 196.27 192.464 196.493 193.002C196.717 193.541 197.044 194.031 197.456 194.443C197.868 194.855 198.357 195.182 198.895 195.404C199.433 195.627 200.009 195.741 200.591 195.741H201.284C202.161 195.739 203.018 195.999 203.748 196.486C204.477 196.973 205.046 197.667 205.382 198.478C205.717 199.29 205.806 200.183 205.635 201.045C205.464 201.906 205.041 202.698 204.421 203.319L203.838 203.904C203.426 204.315 203.099 204.804 202.876 205.343C202.653 205.881 202.538 206.458 202.538 207.041C202.538 207.624 202.653 208.201 202.876 208.74C203.099 209.278 203.426 209.767 203.838 210.179L209.533 215.887C210.366 216.72 211.495 217.187 212.672 217.187C213.849 217.187 214.978 216.72 215.811 215.887L216.391 215.307C217.011 214.681 217.802 214.254 218.665 214.08C219.527 213.906 220.422 213.992 221.236 214.329C222.049 214.665 222.745 215.236 223.234 215.969C223.723 216.702 223.984 217.564 223.984 218.446V219.131C223.989 220.308 224.459 221.435 225.292 222.264C226.125 223.094 227.252 223.558 228.426 223.555H236.494C237.076 223.556 237.653 223.442 238.191 223.219C238.729 222.996 239.218 222.67 239.63 222.257C240.042 221.845 240.369 221.356 240.592 220.817C240.815 220.278 240.931 219.701 240.931 219.117V218.641C240.931 217.759 241.192 216.897 241.681 216.164C242.171 215.431 242.866 214.86 243.68 214.524C244.493 214.187 245.388 214.101 246.25 214.275C247.113 214.449 247.905 214.876 248.525 215.502L248.914 215.892C249.747 216.725 250.876 217.192 252.053 217.192C253.23 217.192 254.359 216.725 255.193 215.892L260.888 210.183C261.3 209.772 261.627 209.283 261.85 208.744C262.073 208.206 262.187 207.629 262.187 207.046C262.187 206.463 262.073 205.886 261.85 205.347C261.627 204.809 261.3 204.32 260.888 203.909L260.299 203.324C259.679 202.702 259.257 201.91 259.086 201.048C258.915 200.186 259.004 199.292 259.34 198.481C259.677 197.669 260.246 196.976 260.976 196.489C261.706 196.002 262.564 195.743 263.441 195.746H264.324C264.906 195.746 265.482 195.632 266.02 195.409C266.558 195.186 267.047 194.86 267.46 194.448C267.872 194.035 268.199 193.546 268.422 193.007C268.645 192.468 268.761 191.891 268.761 191.307V183.22C268.761 182.042 268.294 180.912 267.463 180.078C266.632 179.245 265.504 178.777 264.329 178.777ZM233.599 204.075C230.356 204.068 227.187 203.097 224.494 201.285C221.801 199.474 219.704 196.903 218.469 193.897C217.233 190.891 216.913 187.586 217.55 184.398C218.188 181.211 219.753 178.284 222.049 175.988C224.345 173.692 227.269 172.13 230.45 171.498C233.632 170.867 236.929 171.195 239.924 172.44C242.92 173.686 245.48 175.794 247.281 178.498C249.082 181.201 250.043 184.379 250.043 187.63C250.041 189.792 249.614 191.933 248.786 193.929C247.958 195.926 246.746 197.739 245.219 199.266C243.692 200.793 241.88 202.004 239.886 202.829C237.892 203.654 235.756 204.078 233.599 204.075Z" fill="#FFECD7"/>
<path d="M194.18 82.7086C182.922 107.508 158.639 111.26 149.787 114.55L122.647 89.7929C120.505 79.3742 126.232 59.2539 146.723 38.2357C184 -9.93533e-06 163.5 -41.5001 163.5 -41.5001L240 -41.5C240 -41.5 288.587 31.1038 233.072 60.6162C209.758 73.0103 205.438 57.9095 194.18 82.7086Z" fill="#F2748A"/>
<path d="M114.149 104.086L128.028 78.6903C129.863 75.3328 134.12 74.1882 137.526 76.1583L160.175 89.2812C163.579 91.2538 164.847 95.5794 163.007 98.9472L149.316 123.999C148.119 126.189 145.822 127.521 143.32 127.503L135.712 127.421C133.132 127.391 130.796 128.795 129.634 131.077L121.581 146.743C119.794 150.22 115.467 151.433 112.002 149.428C108.528 147.416 107.294 142.96 109.268 139.588L118.062 124.566C119.339 122.385 119.316 119.634 118 117.389L114.317 111.096C113.031 108.906 112.971 106.242 114.149 104.086Z" fill="#C7A8F4"/>
<path d="M141.953 115.813L119.84 103.001C118.22 102.062 117.616 100.003 118.493 98.3976L125.637 85.3257C126.514 83.7207 128.539 83.1793 130.159 84.1178L152.284 96.9101C153.904 97.8486 154.507 99.9102 153.63 101.515L146.482 114.594C145.586 116.203 143.564 116.743 141.953 115.813Z" fill="#C7A8F4"/>
<path d="M119.835 96.8626L152.348 116.066L156.275 108.714C156.275 108.714 151.224 110.263 151.386 101.145C151.576 90.605 141.016 103.776 139.12 98.7272C137.223 93.6788 144.054 78.3815 130.729 92.3313C122.11 101.343 126.858 85.8573 123.351 91.3627L119.835 96.8626Z" fill="#F3748A"/>
<g clip-path="url(#clip0)">
<path d="M99.9013 250.106L32.9668 294.619C30.4308 296.306 29.2301 298.15 29.6287 299.746C30.0274 301.342 31.9928 302.559 35.0926 303.129L175.346 328.933C178.446 329.503 182.426 329.38 186.411 328.591C190.396 327.802 194.06 326.411 196.596 324.724L263.53 280.211C266.066 278.524 267.267 276.68 266.868 275.085C266.47 273.489 264.504 272.272 261.404 271.702L121.151 245.897C118.051 245.327 114.071 245.45 110.086 246.239C106.101 247.029 102.437 248.419 99.9013 250.106ZM223.156 297.138L213.594 303.497L201.906 301.346L211.468 294.987L223.156 297.138ZM161.532 318.273L44.6546 296.77L111.589 252.256L228.467 273.76L161.532 318.273Z" fill="#333333"/>
<path d="M71.2358 318.134C71.6065 315.904 74.811 315.904 75.1816 318.134L76.4274 325.626C76.5607 326.428 77.1655 327.069 77.9578 327.249L85.7578 329.018C87.8344 329.49 87.8344 332.448 85.7578 332.919L77.9578 334.689C77.1655 334.869 76.5607 335.51 76.4274 336.311L75.1816 343.804C74.811 346.034 71.6065 346.034 71.2358 343.804L69.99 336.311C69.8568 335.51 69.2519 334.869 68.4596 334.689L60.6597 332.919C58.583 332.448 58.583 329.49 60.6597 329.018L68.4596 327.249C69.2519 327.069 69.8568 326.428 69.99 325.626L71.2358 318.134Z" fill="#FFF9E2"/>
<path d="M246.867 299.221C250.071 299.221 252.668 296.61 252.668 293.388C252.668 290.166 250.071 287.554 246.867 287.554C243.663 287.554 241.066 290.166 241.066 293.388C241.066 296.61 243.663 299.221 246.867 299.221Z" fill="#FFF9E2"/>
<path d="M246.867 298.623C249.818 298.623 252.21 296.274 252.21 293.376C252.21 290.479 249.818 288.13 246.867 288.13C243.916 288.13 241.523 290.479 241.523 293.376C241.523 296.274 243.916 298.623 246.867 298.623Z" fill="#FFF9E2"/>
<path d="M244.882 295.965L244.882 290.712L246.72 290.712C247.485 290.712 248.036 290.802 248.372 290.984C248.708 291.165 248.876 291.504 248.876 292.001C248.877 292.124 248.861 292.247 248.827 292.366C248.802 292.458 248.768 292.548 248.727 292.634C248.686 292.71 248.625 292.774 248.55 292.817C248.465 292.869 248.401 292.907 248.357 292.932C248.312 292.956 248.23 292.979 248.109 292.999C247.988 293.019 247.909 293.03 247.872 293.032C247.834 293.035 247.752 293.041 247.623 293.051L247.623 293.35C247.821 293.355 247.981 293.365 248.104 293.38C248.249 293.399 248.393 293.431 248.534 293.473C248.697 293.52 248.825 293.585 248.919 293.667C249.013 293.748 249.094 293.866 249.161 294.02C249.228 294.174 249.261 294.358 249.261 294.573C249.261 294.806 249.218 295.007 249.132 295.176C249.053 295.336 248.938 295.474 248.795 295.579C248.656 295.678 248.477 295.758 248.257 295.817C248.039 295.877 247.816 295.916 247.59 295.936C247.366 295.956 247.105 295.966 246.809 295.966L244.882 295.965ZM246.068 292.709L246.869 292.709C246.992 292.709 247.084 292.708 247.143 292.705C247.217 292.701 247.29 292.692 247.362 292.679C247.448 292.664 247.51 292.641 247.547 292.608C247.59 292.568 247.624 292.52 247.647 292.467C247.706 292.316 247.706 292.148 247.647 291.997C247.624 291.944 247.59 291.896 247.547 291.856C247.51 291.823 247.448 291.8 247.362 291.785C247.29 291.772 247.217 291.763 247.143 291.759C247.084 291.756 246.993 291.755 246.869 291.755L246.068 291.755L246.068 292.709ZM246.068 294.922L246.957 294.922C247.135 294.922 247.266 294.921 247.35 294.918C247.45 294.914 247.551 294.903 247.65 294.885C247.766 294.865 247.847 294.835 247.894 294.795C247.947 294.747 247.99 294.689 248.02 294.624C248.06 294.535 248.079 294.438 248.076 294.341C248.079 294.242 248.06 294.144 248.02 294.054C247.991 293.987 247.948 293.928 247.894 293.879C247.847 293.839 247.766 293.809 247.65 293.789C247.551 293.771 247.45 293.76 247.35 293.756C247.266 293.753 247.135 293.752 246.957 293.752L246.068 293.752L246.068 294.922Z" fill="#FFF9E2"/>
</g>
<path d="M251.77 324.369C252.116 322.298 255.092 322.298 255.437 324.369C255.562 325.114 256.124 325.71 256.861 325.876L257.514 326.024C259.593 326.494 259.593 329.456 257.514 329.926L256.861 330.073C256.124 330.24 255.562 330.836 255.437 331.581C255.092 333.651 252.116 333.651 251.77 331.581C251.646 330.836 251.083 330.24 250.347 330.073L249.693 329.926C247.615 329.456 247.615 326.494 249.693 326.024L250.347 325.876C251.083 325.71 251.646 325.114 251.77 324.369Z" fill="#FFF9E2"/>
<path d="M196.753 43.2976C197.099 41.2269 200.075 41.2269 200.42 43.2976C200.545 44.0425 201.107 44.6382 201.844 44.8048L202.497 44.9525C204.576 45.4225 204.576 48.384 202.497 48.854L201.844 49.0017C201.107 49.1682 200.545 49.764 200.42 50.5089C200.075 52.5796 197.099 52.5796 196.753 50.5089C196.629 49.764 196.066 49.1682 195.33 49.0017L194.676 48.854C192.598 48.384 192.598 45.4225 194.676 44.9525L195.33 44.8048C196.066 44.6382 196.629 44.0425 196.753 43.2976Z" fill="#FFF9E2"/>
<path d="M119.368 207.64C140.518 189.962 144.579 160.523 128.438 141.888C112.297 123.252 82.0664 122.477 60.916 140.155C39.7656 157.834 35.7048 187.273 51.8459 205.908C67.987 224.544 98.2176 225.319 119.368 207.64Z" fill="#64C0C1"/>
<path d="M116.301 204.365C135.756 188.103 139.757 161.329 125.236 144.564C110.715 127.8 83.172 127.392 63.7166 143.654C44.2612 159.916 40.2609 186.69 54.7816 203.455C69.3024 220.219 96.8454 220.627 116.301 204.365Z" fill="#FEDF68"/>
<mask id="mask0" mask-type="alpha" maskUnits="userSpaceOnUse" x="45" y="131" width="89" height="85">
<path d="M115.849 203.843C135.305 187.581 139.356 160.866 124.897 144.173C110.439 127.481 82.9462 127.132 63.4908 143.394C44.0354 159.656 39.9845 186.371 54.443 203.064C68.9014 219.756 96.3939 220.106 115.849 203.843Z" fill="#C0C0C0"/>
</mask>
<g mask="url(#mask0)">
<path d="M81.6421 175.094L96.8081 193.352L100.458 202.957L107.181 211.054" stroke="#FEDF68" stroke-width="5"/>
<path d="M67.0921 177.461L77.6248 190.142L81.0712 191.803L99.8675 214.445" stroke="#FEDF68" stroke-width="5"/>
<path d="M70.3947 168.918L83.5949 184.811L85.7886 190.746L104.128 212.829" stroke="#FEDF68" stroke-width="5"/>
<path d="M61.0772 187.884L70.829 199.628L78.7237 202.215L90.4603 216.364" stroke="#FEDF68" stroke-width="5"/>
<path d="M54.5786 172.775L68.6992 189.779L78.883 194.511L95.8876 214.982" stroke="#FEDF68" stroke-width="5"/>
<path d="M90.2341 166.251L77.8265 151.926L75.2882 143.887L69.7748 137.521" stroke="#FEDF68" stroke-width="5"/>
<path d="M104.746 163.606L95.266 152.661L92.0616 151.387L75.1385 131.849" stroke="#FEDF68" stroke-width="5"/>
<path d="M101.638 172.23L90.0728 158.877L88.3082 153.636L72.2275 135.07" stroke="#FEDF68" stroke-width="5"/>
<path d="M110.527 153.044L101.047 142.099L93.1619 140.098L81.7446 126.917" stroke="#FEDF68" stroke-width="5"/>
<path d="M117.38 168.059L103.982 152.59L94.3099 148.527L78.1757 129.9" stroke="#FEDF68" stroke-width="5"/>
<path d="M61.4994 188.354C62.0844 187.865 62.1963 187.05 61.7495 186.534C61.3026 186.018 60.4661 185.997 59.8812 186.485C59.2962 186.974 59.1843 187.789 59.6312 188.305C60.078 188.821 60.9145 188.843 61.4994 188.354Z" fill="#FEDF68"/>
<path d="M55.7073 171.964C55.9115 172.155 56.0518 172.403 56.1096 172.674C56.1674 172.945 56.14 173.228 56.031 173.484C55.922 173.74 55.7366 173.958 55.4991 174.109C55.2617 174.26 54.9834 174.337 54.701 174.33C54.4186 174.322 54.1454 174.231 53.9174 174.068C53.6895 173.905 53.5174 173.677 53.4241 173.416C53.3307 173.154 53.3204 172.871 53.3944 172.603C53.4685 172.335 53.6235 172.095 53.839 171.915C54.0946 171.679 54.4345 171.552 54.7845 171.561C55.1346 171.57 55.4663 171.715 55.7073 171.964Z" fill="#FEDF68"/>
<path d="M111.958 152.086C112.163 152.277 112.303 152.524 112.361 152.795C112.418 153.066 112.391 153.348 112.282 153.605C112.174 153.861 111.989 154.079 111.751 154.23C111.514 154.381 111.236 154.458 110.954 154.451C110.672 154.444 110.399 154.353 110.171 154.191C109.942 154.028 109.77 153.801 109.676 153.54C109.582 153.279 109.571 152.996 109.645 152.728C109.718 152.46 109.872 152.22 110.087 152.039C110.342 151.802 110.683 151.674 111.034 151.683C111.384 151.691 111.717 151.836 111.958 152.086Z" fill="#FEDF68"/>
<path d="M119.111 167.943C119.315 168.134 119.455 168.382 119.513 168.653C119.571 168.925 119.543 169.207 119.434 169.463C119.325 169.719 119.14 169.937 118.902 170.088C118.665 170.239 118.387 170.316 118.104 170.309C117.822 170.301 117.549 170.21 117.321 170.047C117.093 169.884 116.921 169.657 116.827 169.395C116.734 169.134 116.724 168.85 116.798 168.582C116.872 168.314 117.027 168.075 117.242 167.894C117.498 167.659 117.838 167.531 118.188 167.541C118.538 167.55 118.87 167.695 119.111 167.943Z" fill="#FEDF68"/>
<path d="M105.928 162.852C106.133 163.043 106.273 163.29 106.331 163.562C106.389 163.833 106.361 164.115 106.252 164.372C106.143 164.628 105.958 164.846 105.72 164.997C105.483 165.148 105.205 165.225 104.922 165.217C104.64 165.21 104.367 165.118 104.139 164.955C103.911 164.792 103.739 164.565 103.645 164.303C103.552 164.042 103.542 163.758 103.616 163.491C103.69 163.223 103.845 162.983 104.06 162.803C104.316 162.567 104.656 162.44 105.006 162.449C105.356 162.458 105.687 162.603 105.928 162.852Z" fill="#FEDF68"/>
<path d="M68.1042 176.569C68.3084 176.76 68.4486 177.007 68.5065 177.278C68.5644 177.549 68.5371 177.832 68.4284 178.088C68.3196 178.344 68.1345 178.562 67.8973 178.713C67.6602 178.864 67.3822 178.941 67.0999 178.934C66.8177 178.927 66.5445 178.837 66.3164 178.674C66.0883 178.511 65.9159 178.284 65.822 178.023C65.7281 177.762 65.7172 177.479 65.7905 177.211C65.8639 176.943 66.0181 176.703 66.2329 176.522C66.4883 176.285 66.8287 176.157 67.1795 176.166C67.5303 176.175 67.8628 176.32 68.1042 176.569Z" fill="#FEDF68"/>
<path d="M89.8984 199.91L63.5037 169.437L75.707 159.236C80.7895 154.988 84.903 152.457 88.0476 151.642C91.1922 150.827 94.0094 151.869 96.4991 154.768C97.133 155.477 97.6445 156.283 98.0135 157.155C98.3087 157.835 98.5374 158.541 98.6966 159.264C98.8065 159.957 98.7156 160.666 98.4343 161.313C98.1381 162.08 97.9049 162.659 97.7347 163.049C97.3799 163.692 96.9384 164.286 96.4223 164.813C95.7165 165.602 95.2488 166.105 95.0162 166.325L93.4633 167.812L94.9659 169.547C96.304 168.479 97.4176 167.647 98.3068 167.049C99.3726 166.353 100.487 165.732 101.641 165.19C102.739 164.623 103.94 164.277 105.173 164.174C106.349 164.16 107.512 164.408 108.573 164.898C109.911 165.513 111.087 166.419 112.012 167.547C113.102 168.739 113.85 170.194 114.182 171.766C114.46 173.162 114.386 174.605 113.966 175.971C113.416 177.539 112.608 179.01 111.575 180.324C110.42 181.886 109.139 183.355 107.746 184.717C106.352 186.079 104.671 187.582 102.703 189.228L89.8984 199.91ZM81.4134 174.439L86.7321 169.994C87.5529 169.308 88.1587 168.801 88.5315 168.454C88.9982 168.023 89.44 167.567 89.8548 167.088C90.2575 166.682 90.557 166.189 90.7287 165.649C90.81 165.192 90.7936 164.723 90.6804 164.273C90.504 163.682 90.203 163.134 89.797 162.665C89.3909 162.197 88.8888 161.817 88.3228 161.551C87.8893 161.368 87.4208 161.277 86.9478 161.284C86.3772 161.362 85.8332 161.573 85.3623 161.901C84.8144 162.227 84.2854 162.582 83.7779 162.966C83.3718 163.275 82.7578 163.778 81.94 164.461L76.6183 168.909L81.4134 174.439ZM92.5334 187.278L98.4397 182.341C99.621 181.354 100.487 180.63 101.03 180.14C101.674 179.556 102.284 178.934 102.854 178.28C103.386 177.75 103.787 177.107 104.027 176.402C104.138 175.842 104.13 175.266 104.003 174.711C103.826 173.982 103.463 173.31 102.949 172.758C102.47 172.166 101.848 171.7 101.138 171.403C100.597 171.176 100.011 171.068 99.4215 171.086C98.6755 171.206 97.9668 171.494 97.35 171.925C96.5996 172.372 95.8776 172.863 95.1881 173.396C94.6278 173.865 93.7436 174.568 92.5623 175.555L86.656 180.492L92.5334 187.278Z" fill="#64C0C1"/>
</g>
<g clip-path="url(#clip1)">
<path d="M110.878 273.305C105.407 275.238 99.3751 272.285 97.4053 266.71C95.4353 261.134 98.2731 255.047 103.744 253.115C109.214 251.182 115.246 254.135 117.216 259.71C119.186 265.285 116.348 271.372 110.878 273.305Z" fill="#F2748A"/>
<path d="M117.803 263.525C117.887 269.532 112.476 274.453 106.647 273.786C111.905 271.852 115.971 268.767 117.803 263.525Z" fill="#E9B9BE"/>
<path d="M78.9291 258.85C78.0131 259.174 77.2658 259.855 76.8515 260.744C76.4369 261.633 76.3893 262.656 76.7191 263.59C77.7805 266.594 96.0318 273.256 108.995 268.676C121.958 264.096 133.229 247.403 132.042 244.043C131.712 243.11 131.032 242.343 130.151 241.912C129.27 241.481 128.261 241.42 127.345 241.744L78.9291 258.85Z" fill="#F2DADB"/>
<path d="M69.0192 222.927C69.6605 222.161 70.495 221.586 71.4355 221.263C72.376 220.94 73.3877 220.881 74.3647 221.092C87.606 223.939 97.6953 219.567 108.177 208.89C113.227 203.746 132.849 226.114 135.106 232.501C142.991 257.151 75.1402 279.336 67.084 256.535C67.084 256.535 60.9946 232.582 69.0192 222.927Z" fill="#F2748A"/>
<path d="M135.083 232.49C132.824 226.098 113.214 203.723 108.153 208.876C105.536 211.576 102.203 214.436 100.915 215.283C100.305 215.681 108.17 213.145 116.373 217.12C125.491 221.536 135.083 232.49 135.083 232.49Z" fill="#D16179"/>
<path d="M101.586 270.146C113.45 269.949 128.953 257.514 131.512 247.069C121.978 262.49 101.558 270.503 101.586 270.146Z" fill="#E9B9BE"/>
<path d="M95.5671 237.257L101.098 235.303C101.287 235.245 101.445 235.114 101.537 234.937C101.629 234.761 101.648 234.554 101.59 234.362L100.505 231.29C100.43 231.104 100.285 230.954 100.102 230.874C99.9194 230.794 99.7139 230.791 99.5305 230.865L93.9991 232.819C93.8104 232.877 93.6529 233.009 93.561 233.186C93.469 233.363 93.4501 233.57 93.5082 233.762L94.5934 236.834C94.6696 237.02 94.8148 237.168 94.9969 237.247C95.1792 237.327 95.3841 237.33 95.5671 237.257Z" fill="#F2748A"/>
<path d="M95.4478 251.723C99.4879 247.701 104.345 245.985 110.018 246.575C112.145 245.824 113.281 243.544 112.552 241.48L107.575 227.393C106.848 225.335 104.529 224.27 102.402 225.021L87.8322 230.169C85.7027 230.922 84.5661 233.202 85.2951 235.265L90.2743 249.357C90.9981 251.406 93.3182 252.476 95.4478 251.723Z" fill="#F2DADB" stroke="#D16179" stroke-width="5" stroke-miterlimit="10"/>
<path d="M105.481 227.926L105.759 227.827C105.937 227.764 106.133 227.86 106.197 228.042L108.026 233.216C108.09 233.398 107.997 233.596 107.819 233.659L107.541 233.757C107.363 233.82 107.167 233.724 107.103 233.543L105.274 228.368C105.21 228.187 105.303 227.989 105.481 227.926Z" fill="#E9B9BE"/>
<path d="M107.787 234.454L108.066 234.356C108.244 234.293 108.44 234.389 108.504 234.57L109.178 236.477C109.242 236.658 109.149 236.856 108.971 236.919L108.693 237.018C108.515 237.081 108.319 236.984 108.255 236.803L107.581 234.897C107.517 234.715 107.609 234.517 107.787 234.454Z" fill="#E9B9BE"/>
<path d="M90.8564 243.712L91.1347 243.613C91.3129 243.551 91.5091 243.646 91.5732 243.828L93.4014 249.002C93.4656 249.184 93.3733 249.382 93.195 249.445L92.9167 249.543C92.7387 249.606 92.5426 249.51 92.4784 249.329L90.6502 244.154C90.586 243.973 90.6784 243.775 90.8564 243.712Z" fill="#E9B9BE"/>
<path d="M89.6576 240.319L89.9359 240.221C90.1141 240.158 90.3104 240.254 90.3745 240.436L91.0482 242.342C91.1123 242.524 91.02 242.722 90.8418 242.785L90.5635 242.883C90.3855 242.946 90.1892 242.85 90.1251 242.668L89.4514 240.762C89.3873 240.58 89.4796 240.382 89.6576 240.319Z" fill="#E9B9BE"/>
<path d="M107.463 243.303L109.068 242.736L109.651 244.387L108.047 244.953L107.463 243.303Z" fill="#FDB714"/>
<path d="M109.066 242.737L110.67 242.17L111.253 243.821L109.649 244.387L109.066 242.737Z" fill="#F04F63"/>
<path d="M108.483 241.087L110.087 240.52L110.67 242.17L109.066 242.737L108.483 241.087Z" fill="#63CDF5"/>
<path d="M102.799 236.555L100.944 231.303C100.804 230.959 100.536 230.683 100.198 230.536C99.8606 230.389 99.4808 230.383 99.1424 230.52L94.1628 232.28C93.8139 232.386 93.5222 232.628 93.3514 232.954C93.1808 233.28 93.1451 233.662 93.2523 234.018L95.0841 239.203C95.1688 239.431 95.3137 239.632 95.5029 239.782C95.6919 239.934 95.918 240.029 96.1558 240.059L97.6732 240.287C97.9162 240.317 98.1469 240.416 98.3382 240.573C98.5297 240.73 98.6742 240.938 98.7554 241.173L99.798 244.396C99.8637 244.571 99.963 244.731 100.09 244.868C100.217 245.004 100.37 245.113 100.538 245.189C100.707 245.265 100.889 245.307 101.072 245.31C101.256 245.315 101.438 245.281 101.608 245.212C101.784 245.159 101.948 245.071 102.089 244.952C102.229 244.833 102.345 244.687 102.429 244.521C102.512 244.356 102.562 244.175 102.576 243.988C102.589 243.802 102.565 243.614 102.506 243.437L101.291 240.31C101.207 240.079 101.187 239.83 101.235 239.59C101.283 239.35 101.396 239.129 101.561 238.952L102.52 237.88C102.681 237.707 102.792 237.492 102.841 237.259C102.891 237.026 102.876 236.782 102.799 236.555Z" fill="#F2748A"/>
<path d="M101.951 234.996L94.7756 237.598L94.2475 236.058C94.2475 236.058 95.2033 236.523 95.493 234.778C95.8261 232.75 97.4748 235.628 98.0305 234.721C98.5861 233.813 97.7574 230.651 99.9353 233.768C101.345 235.79 100.935 232.656 101.443 233.829L101.951 234.996Z" fill="#F2DADB"/>
<path d="M101.644 236.574L99.7875 231.32C99.6468 230.976 99.3786 230.701 99.0412 230.554C98.7038 230.408 98.3247 230.401 97.9861 230.537L93.0041 232.297C92.6555 232.404 92.3642 232.647 92.1942 232.973C92.0242 233.299 91.9893 233.682 92.0971 234.037L93.9289 239.222C94.0139 239.449 94.1588 239.649 94.3476 239.8C94.5367 239.95 94.7621 240.046 94.9997 240.075L96.5178 240.306C96.7608 240.336 96.9915 240.435 97.183 240.592C97.3745 240.749 97.519 240.957 97.5999 241.192L98.6403 244.416C98.7064 244.591 98.806 244.751 98.9333 244.887C99.0609 245.024 99.2135 245.133 99.3822 245.209C99.5511 245.285 99.7328 245.326 99.9166 245.33C100.1 245.334 100.283 245.3 100.453 245.231C100.629 245.178 100.792 245.09 100.933 244.971C101.074 244.852 101.19 244.706 101.273 244.54C101.357 244.375 101.407 244.194 101.42 244.007C101.433 243.821 101.41 243.633 101.35 243.456L100.136 240.329C100.051 240.099 100.032 239.85 100.079 239.61C100.126 239.37 100.239 239.149 100.403 238.972L101.361 237.897C101.523 237.725 101.634 237.511 101.684 237.278C101.734 237.045 101.72 236.801 101.644 236.574Z" stroke="#171518" stroke-miterlimit="10"/>
<path d="M93.6824 236.215C93.9748 236.187 94.3828 235.943 94.612 234.904C95.0499 232.902 96.4581 235.775 97.0419 234.886C97.626 233.996 97.0211 230.853 98.9184 233.976C100.144 235.993 99.9409 232.89 100.357 234.059L100.491 234.44C100.558 234.662 100.535 234.901 100.429 235.104C100.322 235.308 100.14 235.459 99.9217 235.525L94.3785 237.47C94.3225 237.49 94.2639 237.502 94.2045 237.506C94.0857 237.501 93.9699 237.466 93.8667 237.405C93.7637 237.344 93.6768 237.258 93.6135 237.155C93.6028 237.133 93.5946 237.109 93.5889 237.085L93.4342 236.516C93.4286 236.479 93.4307 236.441 93.4406 236.405C93.4503 236.37 93.4676 236.336 93.4909 236.308C93.5145 236.28 93.5436 236.257 93.5766 236.241C93.6096 236.225 93.6457 236.216 93.6824 236.215Z" stroke="#171518" stroke-miterlimit="10"/>
<path d="M58.4795 198.459L105.122 181.979C107.48 181.146 110.091 182.452 110.954 184.896L111.662 186.899C112.525 189.342 111.314 191.999 108.957 192.832L62.3139 209.312C59.9565 210.144 57.3454 208.839 56.482 206.395L55.7744 204.392C54.9109 201.948 56.122 199.292 58.4795 198.459Z" fill="#D16179"/>
<path d="M90.1116 214.472C93.1461 213.411 108.543 207.63 109.654 197.104C109.749 196.239 109.571 195.364 109.279 194.537L104.218 180.212C103.925 179.384 103.515 178.594 102.897 177.979C95.2112 170.291 78.8928 176.08 76.9101 176.78C74.8757 177.499 58.6807 183.245 57.5366 194.006C57.4423 194.871 57.6197 195.746 57.9118 196.573L62.9733 210.898C63.2659 211.726 63.6758 212.516 64.2941 213.131C71.5736 220.422 86.5838 215.706 90.1116 214.472Z" fill="#F2748A"/>
<path d="M88.5317 209.666C91.0691 208.778 103.955 203.974 105.197 196.057C105.301 195.411 105.179 194.748 104.96 194.126L101.238 183.594C101.018 182.971 100.698 182.38 100.21 181.942C94.1041 176.422 80.4574 181.261 78.7993 181.847C77.098 182.448 63.5546 187.25 62.2781 195.344C62.1745 195.99 62.2959 196.653 62.5156 197.275L66.2368 207.807C66.457 208.43 66.7776 209.02 67.265 209.459C73.0481 214.694 85.5822 210.699 88.5317 209.666Z" fill="#FFFFFD"/>
<path d="M65.0737 180.523C65.1971 179.505 65.99 178.708 66.887 178.102L85.6309 171.48C86.7093 171.387 87.8273 171.509 88.5627 172.224C91.3725 174.947 88.7747 186.46 81.3135 189.097C73.8524 191.733 64.5985 184.407 65.0737 180.523Z" fill="#D16179"/>
<path d="M87.0948 191.118L88.0258 190.789C88.7608 190.529 89.5749 190.936 89.8442 191.698L91.5645 196.567C91.8338 197.329 91.4561 198.158 90.7211 198.417L89.7901 198.746C89.055 199.006 88.2409 198.599 87.9717 197.837L86.2513 192.968C85.9821 192.206 86.3597 191.378 87.0948 191.118Z" fill="#231F20"/>
<path d="M77.5136 194.503L78.4446 194.174C79.1796 193.914 79.9938 194.322 80.263 195.084L81.9833 199.953C82.2526 200.715 81.8749 201.543 81.1399 201.803L80.2089 202.132C79.4738 202.391 78.6597 201.984 78.3905 201.222L76.6701 196.353C76.4009 195.591 76.7785 194.763 77.5136 194.503Z" fill="#231F20"/>
<path d="M79.2356 199.371L80.1757 199.038C80.918 198.776 81.735 199.173 82.0005 199.924L83.6969 204.725C83.9624 205.477 83.5759 206.299 82.8336 206.561L81.8934 206.893C81.1511 207.155 80.3342 206.759 80.0687 206.007L78.3722 201.206C78.1068 200.455 78.4933 199.633 79.2356 199.371Z" fill="white"/>
<path d="M88.8398 195.977L89.78 195.645C90.5223 195.383 91.3392 195.779 91.6047 196.531L93.3012 201.332C93.5666 202.083 93.1801 202.905 92.4378 203.167L91.4977 203.5C90.7554 203.762 89.9384 203.365 89.6729 202.614L87.9765 197.813C87.711 197.061 88.0975 196.24 88.8398 195.977Z" fill="white"/>
<path d="M99.1139 208.344L100.081 208.002C100.705 207.781 101.394 208.118 101.619 208.755L102.624 211.6C102.849 212.236 102.525 212.931 101.9 213.151L100.933 213.493C100.309 213.714 99.6203 213.377 99.3955 212.74L98.3903 209.895C98.1655 209.259 98.4894 208.564 99.1139 208.344Z" fill="#D16179"/>
<path d="M78.6713 215.81L79.6383 215.468C80.2628 215.248 80.9513 215.585 81.1762 216.221L82.1814 219.066C82.4063 219.702 82.0822 220.397 81.4578 220.618L80.4907 220.959C79.8662 221.18 79.1778 220.843 78.9529 220.207L77.9478 217.362C77.7229 216.725 78.0468 216.03 78.6713 215.81Z" fill="#F2748A"/>
<path d="M102.178 212.74C101.526 213.81 99.7104 213.53 99.2785 212.409C99.1027 211.912 98.779 210.996 98.779 210.996C99.5544 212.303 100.497 212.919 102.178 212.74Z" fill="#F7A9B1"/>
<path d="M81.7355 220.206C81.0834 221.276 79.2676 220.997 78.8366 219.878C78.6607 219.38 78.3371 218.464 78.3371 218.464C79.1116 219.77 80.0571 220.393 81.7355 220.206Z" fill="#E9B9BE"/>
<path d="M82.8292 205.513L79.978 204.262L67.6849 233.474C66.929 235.27 66.9059 237.301 67.6205 239.119C68.3351 240.937 69.7292 242.394 71.4957 243.169L74.344 244.418L86.6375 215.206C87.3928 213.41 87.4164 211.38 86.7022 209.563C85.9881 207.745 84.595 206.288 82.8292 205.513Z" fill="#F2748A"/>
<path d="M85.2286 207.315C87.775 209.464 88.0758 212.624 86.744 215.703L77.4538 237.179L77.1924 237.061C75.5859 236.279 88.7971 211.567 85.2286 207.315Z" fill="#D16179"/>
<path d="M121.165 222.592L120.031 225.254L93.8371 212.423C92.2262 211.634 90.9605 210.222 90.3181 208.497C89.6758 206.773 89.7095 204.878 90.4121 203.229L91.5446 200.569L117.741 213.402C119.352 214.191 120.618 215.603 121.26 217.327C121.903 219.051 121.869 220.947 121.166 222.596L121.165 222.592Z" fill="#F2748A"/>
<path d="M121.69 220.474C111.614 215.244 92.1672 206.371 90.8147 205.573C89.462 204.775 90.615 203.028 91.6088 200.496L115.929 212.101C120.623 213.845 122.504 216.1 121.69 220.474Z" fill="#D16179"/>
</g>
<path d="M197.309 271.405C192.548 269.877 190.044 264.414 191.716 259.204C193.389 253.993 198.604 251.008 203.366 252.536C208.127 254.065 210.63 259.527 208.958 264.738C207.285 269.948 202.07 272.933 197.309 271.405Z" fill="#FEDF68"/>
<path d="M207.574 268.01C204.334 272.478 197.84 273.141 194.099 269.451C198.863 270.911 203.415 270.868 207.574 268.01Z" fill="#E8C143"/>
<path d="M183.116 243.435C182.31 243.176 181.426 243.271 180.659 243.7C179.893 244.129 179.306 244.856 179.029 245.721C178.135 248.504 187.109 263.299 198.518 266.962C209.927 270.624 226.724 264.477 227.727 261.353C228.005 260.489 227.951 259.557 227.578 258.763C227.205 257.968 226.543 257.376 225.738 257.116L183.116 243.435Z" fill="#FFF2C3"/>
<path d="M228.38 229.993L225.954 231.536L238.419 255.07C239.151 256.45 240.38 257.437 241.836 257.815C243.292 258.193 244.857 257.93 246.186 257.085L248.61 255.543L236.145 232.01C235.414 230.63 234.185 229.643 232.729 229.265C231.273 228.887 229.709 229.149 228.38 229.993Z" fill="#FEDF68"/>
<path d="M230.373 230.244C235.29 238.796 243.771 255.442 244.511 256.576C245.251 257.711 246.641 256.466 248.698 255.268L237.67 234.511C235.966 230.444 233.972 229.005 230.373 230.244Z" fill="#E8C143"/>
<path d="M195.791 211.079C196.652 210.862 197.543 210.892 198.37 211.166C199.198 211.44 199.931 211.948 200.492 212.638C208.116 221.964 217.484 224.232 230.553 222.053C236.854 221 238.273 248.249 236.359 254.211C228.417 276.753 169.342 256.148 176.166 234.889C176.168 234.884 184.979 213.843 195.791 211.079Z" fill="#FEDF68"/>
<path d="M235.949 254.448C237.881 248.43 236.7 220.985 230.473 222.089C227.238 222.687 223.419 223.017 222.077 222.946C221.449 222.914 228.161 225.293 231.568 232.735C235.38 241.022 235.949 254.448 235.949 254.448Z" fill="#E8C143"/>
<path opacity="0.8" d="M206.154 216.307C205.007 216.799 203.791 215.463 204.136 214.276C204.304 213.752 204.611 212.797 204.611 212.797C204.407 214.363 204.757 215.446 206.154 216.307Z" fill="#FFF9E1"/>
<path d="M192.521 263.974C200.927 270.365 218.605 269.608 226.136 263.191C210.989 269.483 192.313 264.226 192.521 263.974Z" fill="#E8C143"/>
<path d="M198.628 246.927C203.465 246.13 207.618 247.463 211.088 250.927C212.909 251.511 214.882 250.439 215.49 248.546L219.662 235.55C220.263 233.65 219.278 231.628 217.469 231.048L205.009 227.048C203.186 226.463 201.215 227.535 200.607 229.428L196.434 242.427C195.818 244.32 196.797 246.34 198.628 246.927Z" fill="#FFF9E1" stroke="#E8C143" stroke-width="5" stroke-miterlimit="10"/>
<path opacity="0.8" d="M218.175 234.991L218.473 235.086C218.641 235.14 218.736 235.315 218.684 235.476L217.141 240.283C217.089 240.444 216.911 240.531 216.742 240.477L216.445 240.382C216.276 240.328 216.182 240.153 216.234 239.992L217.777 235.185C217.828 235.024 218.007 234.937 218.175 234.991Z" fill="#FEECA4"/>
<path opacity="0.8" d="M216.228 241.056L216.526 241.151C216.695 241.205 216.795 241.361 216.751 241.498L216.262 243.022C216.218 243.159 216.046 243.227 215.877 243.173L215.579 243.077C215.411 243.023 215.31 242.868 215.355 242.73L215.844 241.207C215.888 241.069 216.06 241.002 216.228 241.056Z" fill="#FEECA4"/>
<path opacity="0.8" d="M199.641 238.333L199.84 238.397C199.952 238.433 199.998 238.601 199.943 238.772L198.304 243.879C198.249 244.051 198.113 244.161 198.001 244.125L197.802 244.061C197.69 244.025 197.644 243.857 197.699 243.685L199.338 238.578C199.393 238.407 199.529 238.297 199.641 238.333Z" fill="#FEECA4"/>
<path opacity="0.8" d="M200.506 235.637L200.705 235.701C200.817 235.737 200.872 235.878 200.828 236.015L200.339 237.539C200.295 237.676 200.168 237.759 200.056 237.723L199.857 237.659C199.745 237.623 199.69 237.482 199.734 237.345L200.223 235.821C200.267 235.684 200.394 235.601 200.506 235.637Z" fill="#FEECA4"/>
<path d="M210.93 247.16L212.745 247.742L212.204 249.427L210.389 248.844L210.93 247.16Z" fill="#FCB614"/>
<path d="M212.745 247.742L214.257 248.228L213.716 249.913L212.204 249.427L212.745 247.742Z" fill="#EF4E63"/>
<path d="M213.177 246.395L214.69 246.88L214.257 248.228L212.745 247.742L213.177 246.395Z" fill="#63CCF5"/>
<path d="M207.539 244.213C205.367 243.516 204.285 240.839 205.121 238.234C205.957 235.628 208.395 234.081 210.567 234.779C212.739 235.476 213.821 238.153 212.985 240.758C212.149 243.363 209.71 244.91 207.539 244.213Z" fill="#F6DD7A"/>
<path d="M206.696 243.199C204.441 242.475 203.291 239.776 204.127 237.171C204.963 234.566 207.469 233.041 209.725 233.765C211.98 234.489 213.13 237.187 212.294 239.793C211.458 242.398 208.951 243.923 206.696 243.199Z" stroke="black" stroke-miterlimit="10"/>
<path d="M207.021 242.188C205.1 241.572 204.099 239.337 204.786 237.197C205.473 235.057 207.587 233.822 209.509 234.439C211.43 235.055 212.43 237.29 211.743 239.43C211.056 241.57 208.942 242.805 207.021 242.188Z" stroke="black" stroke-miterlimit="10"/>
<path d="M210.574 234.758L211.32 235.392L211.879 234.85L211.133 234.217L210.574 234.758Z" fill="#161417"/>
<path d="M204.28 240.851L204.793 241.845L205.549 241.058L205.035 240.064L204.28 240.851Z" fill="#161417"/>
<path d="M206.956 234.363L208.07 234.242L207.718 233.492L206.604 233.613L206.956 234.363Z" fill="#161417"/>
<path d="M224.628 216.993L225.516 217.278C226.023 217.44 226.277 218.059 226.084 218.66L225.16 221.538C224.967 222.139 224.4 222.494 223.894 222.332L223.006 222.047C222.499 221.884 222.245 221.265 222.438 220.664L223.362 217.787C223.555 217.185 224.122 216.83 224.628 216.993Z" fill="#E8C143"/>
<path d="M206.171 211.44L207.157 211.756C207.72 211.937 208.03 212.538 207.85 213.099L206.988 215.785C206.808 216.346 206.206 216.654 205.643 216.473L204.657 216.157C204.094 215.976 203.783 215.375 203.964 214.814L204.826 212.128C205.006 211.567 205.608 211.259 206.171 211.44Z" fill="#FEDF68"/>
<path opacity="0.8" d="M224 222.035C223.077 222.599 222.234 221.383 222.587 220.199C222.755 219.675 223.062 218.72 223.062 218.72C222.793 220.257 222.984 221.292 224 222.035Z" fill="#FFF9E1"/>
<path d="M201.91 186.286L243.713 199.705C245.618 200.316 246.606 202.539 245.922 204.671L245.047 207.397C244.363 209.528 242.265 210.761 240.36 210.15L198.558 196.731C196.653 196.12 195.664 193.896 196.349 191.764L197.224 189.039C197.908 186.907 200.006 185.675 201.91 186.286Z" fill="#E8C143"/>
<path d="M215.067 216.153C217.717 217.015 231.381 221.081 237.908 213.662C238.447 213.053 238.805 212.29 239.059 211.499L243.463 197.78C243.717 196.988 243.87 196.161 243.786 195.351C242.762 185.254 228.465 180.687 226.73 180.13C224.949 179.558 210.761 175.026 204.082 182.606C203.543 183.215 203.185 183.979 202.931 184.769L198.527 198.488C198.273 199.28 198.12 200.107 198.204 200.917C199.169 210.487 211.986 215.153 215.067 216.153Z" fill="#FEDF68"/>
<path d="M216.601 211.443C218.856 212.174 230.469 215.669 235.685 210.408C236.113 209.979 236.392 209.416 236.58 208.828L239.779 198.865C239.967 198.276 240.068 197.657 239.97 197.059C238.752 189.548 226.59 185.66 225.114 185.186C223.599 184.7 211.529 180.841 206.191 186.216C205.764 186.645 205.485 187.208 205.296 187.796L202.098 197.759C201.909 198.348 201.808 198.967 201.907 199.565C203.056 206.684 213.979 210.593 216.601 211.443Z" fill="#FFFFFD"/>
<path d="M216.489 176.629C217.129 175.934 218.11 175.771 219.057 175.809L235.566 181.108C236.358 181.629 237.06 182.332 237.177 183.269C237.624 186.846 229.556 194.045 222.985 191.936C216.414 189.826 214.043 179.277 216.489 176.629Z" fill="#E8C143"/>
<path d="M225.846 196.942L226.819 197.255C227.386 197.437 227.678 198.103 227.473 198.744L225.946 203.5C225.74 204.14 225.115 204.512 224.548 204.331L223.574 204.018C223.008 203.836 222.716 203.169 222.921 202.529L224.448 197.773C224.654 197.132 225.279 196.76 225.846 196.942Z" fill="#231F20"/>
<path d="M217.074 194.126L218.048 194.439C218.614 194.621 218.906 195.288 218.701 195.928L217.174 200.684C216.968 201.325 216.343 201.697 215.776 201.515L214.803 201.202C214.236 201.02 213.944 200.354 214.149 199.713L215.676 194.957C215.882 194.317 216.507 193.945 217.074 194.126Z" fill="#231F20"/>
<path d="M166.335 236.759L167.414 239.138L190.323 225.747C191.732 224.923 192.817 223.548 193.34 221.923C193.864 220.299 193.782 218.558 193.113 217.084L192.035 214.707L169.126 228.098C167.717 228.922 166.632 230.296 166.109 231.92C165.586 233.545 165.667 235.285 166.335 236.759Z" fill="#FEDF68"/>
<path d="M165.849 233.804C165.397 231.026 166.869 228.768 169.312 227.428L186.353 218.086L186.453 218.303C187.039 219.674 165.867 229.087 165.849 233.804Z" fill="#FFF2C3"/>
<path d="M155.049 222.014C160.624 222.014 165.145 217.286 165.145 211.467C165.145 205.649 160.624 200.921 155.049 200.921C149.474 200.921 144.953 205.649 144.953 211.467C144.953 217.286 149.471 222.014 155.049 222.014Z" fill="#F2F4FA"/>
<path d="M179.353 198.062C179.816 198.062 180.276 198.157 180.702 198.34C181.129 198.523 181.515 198.792 181.836 199.128C182.498 199.824 182.868 200.75 182.868 201.714C182.868 204.844 168.485 216.985 155.295 216.985C142.105 216.985 126.569 205.233 126.569 201.714C126.565 200.748 126.934 199.819 127.598 199.122C127.919 198.784 128.304 198.515 128.731 198.33C129.158 198.145 129.617 198.049 130.082 198.047L179.353 198.062Z" fill="#F2F4FA"/>
<path d="M137.592 171.344L138.256 172.115L118.983 190.275C118.197 191.024 117.268 191.604 116.252 191.98C115.237 192.355 114.156 192.519 113.075 192.46C111.995 192.401 110.937 192.121 109.968 191.637C108.998 191.153 108.137 190.476 107.436 189.646L106.772 188.868L126.048 170.708C126.834 169.959 127.763 169.379 128.778 169.003C129.794 168.628 130.875 168.465 131.955 168.524C133.036 168.583 134.093 168.863 135.062 169.348C136.031 169.832 136.892 170.51 137.592 171.341V171.344Z" fill="#F2F4FA"/>
<path d="M134.282 169.398C126.266 176.497 117.92 183.761 110.772 192.015C109.306 191.505 107.812 190.176 106.705 188.887L125.213 171.356C126.408 170.22 127.888 169.435 129.495 169.084C131.089 168.741 132.746 168.849 134.282 169.398Z" fill="#B8C3FD"/>
<path d="M176.797 161.427C175.979 160.927 175.039 160.666 174.082 160.674C173.126 160.682 172.19 160.958 171.381 161.472C160.309 168.454 149.821 167.707 136.949 161.24C130.734 158.116 120.165 185.303 120.165 191.975C120.898 217.439 189.287 215.779 189.287 191.975C189.266 191.972 187.114 167.755 176.797 161.427Z" fill="#F2F4FA"/>
<path d="M202.085 151.541L202.896 152.144L187.902 174.285C187.294 175.192 186.513 175.968 185.603 176.567C184.694 177.166 183.674 177.575 182.605 177.771C181.544 177.959 180.455 177.928 179.407 177.679C178.358 177.43 177.37 176.968 176.504 176.322L175.693 175.719L190.687 153.578C191.295 152.671 192.076 151.895 192.986 151.296C193.895 150.697 194.915 150.288 195.984 150.092C197.045 149.904 198.134 149.935 199.183 150.184C200.232 150.433 201.219 150.895 202.085 151.541Z" fill="#F2F4FA"/>
<path d="M162.042 196.875C157.105 194.464 152.168 194.464 147.23 196.875C146.199 196.883 145.207 196.478 144.472 195.75C143.737 195.022 143.319 194.029 143.31 192.991V178.301C143.313 177.786 143.417 177.277 143.615 176.802C143.814 176.327 144.104 175.896 144.468 175.535C144.832 175.173 145.263 174.887 145.737 174.693C146.211 174.499 146.719 174.401 147.23 174.405H162.042C163.073 174.397 164.065 174.802 164.8 175.53C165.536 176.259 165.953 177.251 165.962 178.289V192.979C165.959 193.494 165.856 194.003 165.657 194.478C165.458 194.953 165.169 195.384 164.805 195.746C164.441 196.107 164.009 196.393 163.535 196.587C163.061 196.781 162.554 196.879 162.042 196.875Z" fill="#F1F3FF" stroke="#C7C9F4" stroke-width="5" stroke-miterlimit="10"/>
<path d="M145.333 178.103H145.225C145.168 178.102 145.112 178.113 145.059 178.135C145.006 178.156 144.958 178.188 144.918 178.228C144.877 178.269 144.845 178.317 144.823 178.37C144.8 178.422 144.789 178.479 144.788 178.537V183.704C144.788 183.762 144.8 183.819 144.822 183.872C144.844 183.925 144.876 183.973 144.917 184.013C144.957 184.053 145.005 184.085 145.058 184.107C145.111 184.128 145.168 184.139 145.225 184.138H145.333C145.39 184.139 145.447 184.128 145.5 184.107C145.553 184.085 145.602 184.054 145.643 184.013C145.683 183.973 145.716 183.925 145.738 183.872C145.761 183.819 145.772 183.762 145.773 183.704V178.537C145.771 178.42 145.724 178.31 145.642 178.228C145.559 178.147 145.448 178.102 145.333 178.103Z" fill="#DCE1FE"/>
<path d="M145.333 184.807H145.225C145.109 184.807 144.998 184.853 144.916 184.936C144.834 185.018 144.788 185.13 144.788 185.247V187.055C144.788 187.112 144.8 187.169 144.822 187.223C144.844 187.276 144.876 187.324 144.916 187.365C144.957 187.405 145.005 187.437 145.058 187.459C145.111 187.481 145.168 187.492 145.225 187.492H145.333C145.448 187.492 145.558 187.448 145.641 187.367C145.723 187.286 145.77 187.176 145.773 187.061V185.253C145.774 185.194 145.763 185.136 145.741 185.082C145.719 185.028 145.687 184.978 145.646 184.937C145.605 184.895 145.556 184.862 145.502 184.84C145.449 184.818 145.391 184.806 145.333 184.807Z" fill="#DCE1FE"/>
<path d="M163.628 187.825H163.535C163.429 187.837 163.332 187.89 163.263 187.972C163.195 188.055 163.162 188.161 163.17 188.268V193.581C163.162 193.688 163.195 193.794 163.263 193.877C163.332 193.959 163.429 194.012 163.535 194.024H163.628C163.734 194.012 163.832 193.959 163.9 193.877C163.968 193.794 164.001 193.688 163.993 193.581V188.265C164.001 188.159 163.967 188.053 163.899 187.971C163.831 187.889 163.734 187.837 163.628 187.825Z" fill="#DCE1FE"/>
<path d="M163.628 184.303H163.535C163.429 184.314 163.332 184.366 163.264 184.448C163.195 184.53 163.162 184.636 163.17 184.743V186.551C163.162 186.657 163.195 186.763 163.264 186.845C163.332 186.926 163.43 186.978 163.535 186.988H163.628C163.734 186.978 163.831 186.926 163.899 186.845C163.968 186.763 164.001 186.657 163.993 186.551V184.743C164.001 184.636 163.968 184.53 163.9 184.448C163.831 184.366 163.734 184.314 163.628 184.303Z" fill="#DCE1FE"/>
<path d="M120.165 192.014C120.165 185.34 130.752 158.131 136.973 161.259C140.195 162.913 144.13 164.468 145.566 164.829C146.243 165.001 138.325 165.224 132.176 171.609C125.339 178.699 120.165 192.014 120.165 192.014Z" fill="#B8C3FD"/>
<path d="M199.284 149.697C195.966 148.492 192.973 149.974 190.945 152.972L176.794 173.866L177.048 174.047C178.625 175.137 193.539 148.7 199.284 149.697Z" fill="#B8C3FD"/>
<path d="M145.608 215.143C147.464 220.799 153.987 223.623 159.074 221.064C153.658 220.995 148.963 219.449 145.608 215.143Z" fill="#B1B9E4"/>
<path d="M162.53 215.927C151.724 219.606 133.717 213.215 128.058 204.416C141.608 215.511 162.652 216.246 162.53 215.927Z" fill="#B1B9E4"/>
<path d="M110.643 191.906C110.643 191.906 115.464 193.668 118.851 190.17C116.334 191.521 113.487 192.123 110.643 191.906Z" fill="#B8C3FD"/>
<path d="M159.561 185.31H154.965V190.004H159.561V185.31Z" fill="#FCB614"/>
<path d="M154.965 185.31H150.53V190.004H154.965V185.31Z" fill="#EF4E63"/>
<path d="M154.965 180.449H150.53V185.31H154.965V180.449Z" fill="#63CCF5"/>
<path d="M144.636 157.833H144.277C143.881 157.842 143.506 158.007 143.231 158.294C142.957 158.581 142.807 158.965 142.813 159.364V161.669C142.808 162.066 142.958 162.45 143.233 162.736C143.507 163.022 143.882 163.188 144.277 163.196H144.633C145.027 163.188 145.403 163.022 145.677 162.736C145.951 162.45 146.102 162.066 146.096 161.669V159.364C146.102 158.966 145.953 158.582 145.679 158.295C145.405 158.009 145.03 157.842 144.636 157.833Z" fill="#F2F4FA"/>
<path d="M165.483 157.992H165.127C164.732 158.001 164.357 158.166 164.083 158.453C163.809 158.739 163.658 159.122 163.664 159.52V161.828C163.658 162.226 163.809 162.609 164.083 162.895C164.357 163.182 164.732 163.347 165.127 163.356H165.483C165.878 163.347 166.253 163.182 166.527 162.895C166.801 162.609 166.952 162.226 166.946 161.828V159.52C166.952 159.122 166.801 158.739 166.527 158.453C166.253 158.166 165.878 158.001 165.483 157.992Z" fill="#F2F4FA"/>
<path d="M166.943 160.34V162.265C166.952 162.409 166.934 162.553 166.889 162.69C166.842 162.824 166.77 162.948 166.676 163.055C166.586 163.155 166.474 163.234 166.35 163.287C166.23 163.34 166.098 163.362 165.967 163.353H164.977C165.985 163.037 166.607 161.97 166.943 160.34Z" fill="#B8C3FD"/>
<path d="M142.819 160.005V162.051C142.81 162.2 142.827 162.349 142.87 162.491C142.914 162.631 142.985 162.76 143.079 162.871C143.168 162.978 143.28 163.065 143.405 163.124C143.527 163.181 143.66 163.208 143.794 163.202H144.788C143.785 162.862 143.151 161.717 142.819 160.005Z" fill="#B1B9E4"/>
<path d="M132.104 135.921H177.491C178.193 135.914 178.889 136.047 179.54 136.312C180.192 136.577 180.784 136.968 181.285 137.464C181.785 137.961 182.183 138.551 182.456 139.202C182.73 139.854 182.873 140.553 182.877 141.26V141.658C182.871 142.364 182.727 143.062 182.453 143.712C182.179 144.362 181.781 144.951 181.28 145.446C180.78 145.941 180.188 146.331 179.538 146.595C178.887 146.859 178.192 146.992 177.491 146.985H132.104C131.402 146.992 130.707 146.859 130.056 146.595C129.406 146.331 128.813 145.94 128.313 145.445C127.813 144.95 127.414 144.36 127.141 143.71C126.867 143.059 126.723 142.361 126.718 141.655V141.26C126.722 140.553 126.865 139.854 127.138 139.202C127.411 138.551 127.81 137.961 128.31 137.464C128.81 136.968 129.403 136.577 130.054 136.312C130.705 136.047 131.402 135.914 132.104 135.921Z" fill="#B8C3FD"/>
<path d="M155.049 160.544C151.964 160.544 136.198 160.243 131.823 151.065C131.482 150.299 131.318 149.466 131.341 148.627V134.028C131.318 133.19 131.482 132.357 131.823 131.591C136.311 122.163 152.927 122.184 154.944 122.184C157.015 122.184 173.496 122.208 177.97 131.591C178.312 132.356 178.476 133.19 178.452 134.028V148.645C178.476 149.484 178.312 150.318 177.97 151.083C173.703 160.014 158.619 160.544 155.049 160.544Z" fill="#F2F4FA"/>
<path d="M154.927 155.697C152.347 155.697 139.157 155.477 135.504 148.7C135.223 148.14 135.085 147.519 135.103 146.892V136.138C135.085 135.511 135.223 134.89 135.504 134.33C139.265 127.373 153.158 127.4 154.84 127.4C156.521 127.4 170.355 127.415 174.095 134.33C174.377 134.889 174.515 135.511 174.496 136.138V146.889C174.515 147.516 174.377 148.138 174.095 148.697C170.537 155.296 157.925 155.691 154.927 155.697Z" fill="#FFFFFD"/>
<path d="M166.83 121.78C166.393 120.897 165.42 120.43 164.418 120.168H145.348C144.343 120.43 143.37 120.897 142.933 121.78C141.264 125.149 147.29 134.736 154.881 134.736C162.473 134.736 168.514 125.149 166.83 121.78Z" fill="#B8C3FD"/>
<path d="M149.662 138.431H149.962C150.18 138.429 150.397 138.471 150.599 138.553C150.802 138.636 150.986 138.758 151.142 138.913C151.297 139.067 151.421 139.251 151.506 139.454C151.591 139.656 151.636 139.874 151.637 140.094V144.544C151.633 144.988 151.455 145.412 151.14 145.723C150.826 146.035 150.402 146.208 149.962 146.205H149.662C149.444 146.207 149.227 146.165 149.025 146.083C148.823 146 148.638 145.879 148.483 145.724C148.327 145.57 148.203 145.387 148.118 145.184C148.033 144.982 147.988 144.764 147.987 144.544V140.094C147.988 139.874 148.032 139.656 148.117 139.453C148.202 139.25 148.326 139.066 148.482 138.912C148.637 138.757 148.822 138.635 149.024 138.553C149.227 138.47 149.444 138.429 149.662 138.431Z" fill="#231F20"/>
<path d="M159.421 138.431H159.72C159.938 138.429 160.155 138.471 160.357 138.553C160.56 138.636 160.744 138.758 160.9 138.913C161.055 139.067 161.179 139.251 161.264 139.454C161.349 139.656 161.394 139.874 161.396 140.094V144.544C161.392 144.988 161.213 145.412 160.899 145.723C160.585 146.035 160.161 146.208 159.72 146.205H159.421C158.98 146.208 158.556 146.035 158.242 145.723C157.928 145.412 157.749 144.988 157.745 144.544V140.094C157.747 139.874 157.791 139.656 157.876 139.454C157.961 139.251 158.085 139.067 158.241 138.913C158.396 138.758 158.581 138.636 158.783 138.553C158.986 138.471 159.202 138.429 159.421 138.431Z" fill="#231F20"/>
<g clip-path="url(#clip2)">
<path d="M154.084 301.38C159.308 301.431 163.583 297.153 163.635 291.825C163.686 286.497 159.493 282.137 154.27 282.087C149.047 282.036 144.771 286.315 144.72 291.642C144.669 296.97 148.861 301.33 154.084 301.38Z" fill="#4E6AFA"/>
<path d="M145.338 295.066C147.018 300.211 153.063 302.826 157.833 300.555C152.785 300.442 148.422 299.002 145.338 295.066Z" fill="#7188FB"/>
<path d="M177.078 279.73C177.512 279.735 177.94 279.826 178.339 279.999C178.738 280.173 179.1 280.425 179.403 280.741C179.707 281.057 179.946 281.432 180.107 281.842C180.268 282.253 180.348 282.692 180.343 283.135C180.315 286.005 166.714 297.013 154.34 296.894C141.965 296.775 127.489 285.836 127.52 282.626C127.529 281.733 127.886 280.882 128.51 280.257C129.135 279.632 129.977 279.286 130.852 279.295L177.078 279.73Z" fill="#B8C3FD"/>
<path d="M175.039 246.215C174.269 245.749 173.391 245.503 172.496 245.502C171.6 245.502 170.721 245.747 169.951 246.211C159.504 252.504 149.636 251.724 137.594 245.683C131.792 242.773 121.605 267.569 121.546 273.672C122.021 296.987 186.281 296.086 186.491 274.298C186.491 274.298 184.695 252.102 175.039 246.215Z" fill="#4E6AFA"/>
<path d="M194.836 237.034C196.059 237.798 196.444 239.401 195.702 240.637L183.491 260.995C182.658 262.384 181.317 263.377 179.763 263.755C178.21 264.134 176.571 263.867 175.207 263.014C173.986 262.25 173.601 260.649 174.342 259.414L186.555 239.054C187.388 237.666 188.728 236.673 190.281 236.294C191.834 235.915 193.473 236.181 194.836 237.034Z" fill="#4E6AFA"/>
<path d="M160.93 278.478C156.316 276.23 151.68 276.185 147.022 278.344C144.988 278.325 143.355 276.713 143.374 274.741L143.504 261.279C143.523 259.312 145.187 257.728 147.22 257.747L161.129 257.881C163.162 257.901 164.795 259.513 164.776 261.484L164.646 274.951C164.634 276.918 162.963 278.498 160.93 278.478Z" fill="#F1F3FF" stroke="#2C3C8C" stroke-width="5" stroke-miterlimit="10"/>
<path d="M151.061 261.864L156.298 261.914C156.365 261.915 156.432 261.931 156.492 261.963C156.552 261.995 156.604 262.04 156.644 262.096C156.684 262.152 156.71 262.217 156.72 262.285C156.731 262.353 156.726 262.423 156.705 262.489L155.279 266.971C155.258 267.036 155.253 267.106 155.263 267.174C155.274 267.242 155.3 267.307 155.339 267.363C155.379 267.419 155.43 267.465 155.49 267.497C155.55 267.529 155.616 267.547 155.684 267.548L156.964 267.56C157.036 267.561 157.107 267.58 157.17 267.616C157.233 267.652 157.286 267.704 157.324 267.766C157.363 267.829 157.385 267.9 157.39 267.973C157.394 268.047 157.38 268.12 157.35 268.187L154.532 274.275C154.494 274.357 154.433 274.424 154.356 274.469C154.28 274.513 154.191 274.533 154.104 274.525C154.016 274.517 153.933 274.481 153.865 274.424C153.797 274.366 153.749 274.288 153.726 274.201L152.264 268.65C152.239 268.557 152.186 268.475 152.111 268.417C152.037 268.358 151.946 268.326 151.852 268.325L150.999 268.316C150.884 268.315 150.775 268.268 150.695 268.184C150.615 268.101 150.57 267.989 150.571 267.872L150.625 262.3C150.626 262.242 150.637 262.185 150.66 262.132C150.682 262.078 150.714 262.03 150.754 261.99C150.795 261.949 150.843 261.917 150.895 261.896C150.948 261.874 151.004 261.863 151.061 261.864Z" fill="#4E6AFA"/>
<path d="M151.918 261.185L157.155 261.235C157.223 261.235 157.29 261.252 157.35 261.284C157.41 261.316 157.462 261.361 157.501 261.417C157.541 261.473 157.567 261.538 157.578 261.606C157.588 261.674 157.583 261.744 157.562 261.81L156.136 266.292C156.115 266.357 156.11 266.427 156.12 266.496C156.13 266.564 156.156 266.629 156.195 266.685C156.235 266.741 156.287 266.787 156.347 266.819C156.407 266.851 156.473 266.868 156.541 266.869L157.821 266.881C157.894 266.882 157.965 266.901 158.028 266.937C158.091 266.973 158.144 267.025 158.182 267.087C158.22 267.149 158.243 267.221 158.247 267.294C158.252 267.368 158.238 267.441 158.207 267.508L155.39 273.596C155.352 273.678 155.291 273.745 155.214 273.79C155.137 273.834 155.049 273.854 154.961 273.846C154.873 273.838 154.79 273.802 154.723 273.744C154.655 273.686 154.607 273.609 154.584 273.522L153.121 267.97C153.096 267.878 153.042 267.796 152.968 267.737C152.893 267.678 152.802 267.646 152.707 267.645L151.856 267.637C151.742 267.636 151.632 267.589 151.552 267.505C151.472 267.422 151.428 267.31 151.429 267.193L151.483 261.62C151.484 261.504 151.53 261.392 151.612 261.31C151.694 261.229 151.804 261.183 151.918 261.185Z" stroke="black" stroke-miterlimit="10"/>
<path d="M121.562 273.656C121.621 267.548 131.796 242.749 137.61 245.664C140.627 247.201 144.299 248.666 145.644 249.012C146.279 249.173 138.841 249.308 133.014 255.092C126.539 261.518 121.562 273.656 121.562 273.656Z" fill="#3B50BB"/>
<path d="M145.443 261.122L145.177 261.12C145.007 261.118 144.868 261.257 144.866 261.431L144.819 266.375C144.817 266.549 144.954 266.691 145.124 266.692L145.389 266.695C145.559 266.696 145.699 266.557 145.7 266.384L145.748 261.439C145.749 261.266 145.613 261.124 145.443 261.122Z" fill="#DCE1FE"/>
<path d="M145.383 267.361L145.117 267.358C144.947 267.357 144.808 267.496 144.806 267.669L144.789 269.491C144.787 269.664 144.924 269.806 145.094 269.808L145.359 269.81C145.529 269.812 145.668 269.673 145.67 269.5L145.688 267.678C145.689 267.504 145.553 267.362 145.383 267.361Z" fill="#DCE1FE"/>
<path d="M162.504 270.309L162.238 270.306C162.068 270.304 161.929 270.444 161.927 270.617L161.879 275.562C161.878 275.735 162.014 275.877 162.184 275.879L162.45 275.881C162.62 275.883 162.759 275.743 162.761 275.57L162.808 270.625C162.81 270.452 162.674 270.31 162.504 270.309Z" fill="#DCE1FE"/>
<path d="M162.535 267.067L162.269 267.064C162.099 267.063 161.96 267.202 161.958 267.375L161.941 269.197C161.939 269.37 162.075 269.512 162.245 269.514L162.511 269.517C162.681 269.518 162.82 269.379 162.822 269.205L162.84 267.384C162.841 267.21 162.705 267.068 162.535 267.067Z" fill="#DCE1FE"/>
<path d="M143.826 247.206C144.694 247.928 146.158 247.159 146.199 246.077C146.204 245.602 146.212 244.727 146.212 244.727C145.933 246.075 145.31 246.88 143.826 247.206Z" fill="#B8C3FD"/>
<path d="M193.446 236.39C190.269 235.491 187.558 237.038 185.842 239.899L174.041 259.855L174.758 260.573C176.301 261.466 187.997 235.836 193.446 236.39Z" fill="#3B50BB"/>
<path d="M163.415 247.609C164.282 248.331 165.747 247.562 165.788 246.483C165.793 246.007 165.801 245.132 165.801 245.132C165.524 246.48 164.899 247.278 163.415 247.609Z" fill="#B8C3FD"/>
<path d="M161.076 295.974C150.912 299.264 134.083 293.198 128.857 285.041C141.477 295.403 161.202 296.271 161.076 295.974Z" fill="#7188FB"/>
<path d="M148.24 274.81L146.708 274.795L146.693 276.372L148.225 276.386L148.24 274.81Z" fill="#FCB614"/>
<path d="M146.711 274.795L145.179 274.78L145.163 276.357L146.695 276.372L146.711 274.795Z" fill="#EF4E63"/>
<path d="M146.726 273.218L145.194 273.203L145.179 274.78L146.711 274.795L146.726 273.218Z" fill="#63CCF5"/>
<path d="M145.153 242.571L144.23 242.562C143.634 242.556 143.145 243.045 143.139 243.653L143.113 246.371C143.107 246.979 143.586 247.477 144.182 247.483L145.106 247.492C145.702 247.498 146.19 247.009 146.196 246.401L146.222 243.682C146.228 243.074 145.749 242.577 145.153 242.571Z" fill="#4E6AFA"/>
<path d="M164.742 242.966L163.819 242.958C163.222 242.952 162.734 243.44 162.729 244.048L162.702 246.767C162.697 247.375 163.175 247.873 163.771 247.879L164.695 247.887C165.291 247.893 165.779 247.405 165.785 246.797L165.811 244.078C165.817 243.47 165.338 242.972 164.742 242.966Z" fill="#4E6AFA"/>
<path d="M176.81 222.275L132.409 221.847C130.123 221.825 128.251 223.661 128.229 225.948L128.209 228.037C128.187 230.323 130.023 232.195 132.31 232.217L176.71 232.645C178.997 232.667 180.868 230.831 180.89 228.544L180.91 226.455C180.932 224.169 179.096 222.297 176.81 222.275Z" fill="#3B50BB"/>
<path d="M154.606 245.16C151.713 245.142 136.914 244.71 132.896 236.062C132.563 235.35 132.459 234.557 132.467 233.771L132.599 220.069C132.607 219.282 132.725 218.493 133.072 217.787C137.375 208.989 152.962 209.16 154.855 209.178C156.797 209.197 172.266 209.366 176.379 218.204C176.713 218.916 176.816 219.709 176.808 220.495L176.676 234.197C176.669 234.984 176.551 235.773 176.203 236.479C172.13 244.82 157.971 245.183 154.606 245.16Z" fill="#4E6AFA"/>
<path d="M154.55 240.603C152.13 240.587 139.754 240.254 136.387 233.868C136.109 233.346 136.02 232.749 136.026 232.159L136.123 222.083C136.129 221.491 136.229 220.898 136.517 220.381C140.107 213.892 153.141 214.033 154.724 214.048C156.348 214.064 169.283 214.203 172.732 220.73C173.009 221.251 173.098 221.848 173.092 222.439L172.995 232.515C172.99 233.106 172.889 233.7 172.602 234.217C169.204 240.368 157.363 240.622 154.55 240.603Z" fill="#FFFFFD"/>
<path d="M166.027 208.912C165.625 208.081 164.717 207.632 163.777 207.378L145.881 207.206C144.936 207.442 144.019 207.872 143.602 208.696C142.003 211.838 147.574 220.893 154.697 220.962C161.82 221.03 167.565 212.084 166.027 208.912Z" fill="#3B50BB"/>
<path d="M150.343 224.373L149.495 224.364C148.782 224.358 148.198 224.93 148.191 225.643L148.146 230.35C148.139 231.063 148.712 231.647 149.425 231.654L150.273 231.662C150.986 231.669 151.569 231.096 151.576 230.383L151.622 225.676C151.629 224.963 151.056 224.379 150.343 224.373Z" fill="#231F20"/>
<path d="M159.49 224.461L158.642 224.453C157.929 224.446 157.345 225.018 157.339 225.731L157.293 230.438C157.286 231.151 157.859 231.735 158.572 231.742L159.42 231.75C160.133 231.757 160.717 231.184 160.723 230.471L160.769 225.764C160.776 225.051 160.203 224.468 159.49 224.461Z" fill="#231F20"/>
<path d="M137.311 262.086C138.423 261.169 138.595 259.51 137.703 258.325L123.276 239.173C122.789 238.525 122.185 237.982 121.501 237.576C120.817 237.17 120.065 236.908 119.288 236.806C118.512 236.704 117.726 236.762 116.975 236.979C116.224 237.197 115.524 237.567 114.914 238.071C113.803 238.987 113.631 240.644 114.523 241.828L128.953 260.986C129.939 262.293 131.372 263.143 132.94 263.349C134.507 263.556 136.079 263.101 137.311 262.086Z" fill="#4E6AFA"/>
<path d="M126.923 260.983C128.961 261.904 129.947 258.083 128.616 256.264C124.638 250.826 120.552 245.487 117.158 239.421C116.612 238.446 115.532 237.855 114.565 238.35C113.517 238.886 113.364 240.289 114.026 241.304L124.591 257.475C125.356 258.646 125.755 260.455 126.923 260.983Z" fill="#3B50BB"/>
</g>
<path d="M89.173 40.8661C89.5436 38.6368 92.7481 38.6368 93.1188 40.8661L94.3646 48.3589C94.4978 49.1603 95.1027 49.8015 95.895 49.9813L103.695 51.7509C105.772 52.2221 105.772 55.1806 103.695 55.6518L95.895 57.4214C95.1027 57.6012 94.4978 58.2424 94.3646 59.0438L93.1188 66.5367C92.7481 68.766 89.5436 68.766 89.173 66.5367L87.9271 59.0438C87.7939 58.2424 87.1891 57.6012 86.3967 57.4214L78.5968 55.6518C76.5202 55.1806 76.5202 52.2221 78.5968 51.7509L86.3967 49.9813C87.1891 49.8015 87.7939 49.1603 87.9271 48.3589L89.173 40.8661Z" fill="#FFF9E2"/>
<path d="M249.759 31.0739C250.13 28.8446 253.334 28.8446 253.705 31.0739L254.951 38.5667C255.084 39.3682 255.689 40.0094 256.481 40.1891L264.281 41.9588C266.358 42.4299 266.358 45.3885 264.281 45.8596L256.481 47.6293C255.689 47.809 255.084 48.4502 254.951 49.2517L253.705 56.7445C253.334 58.9738 250.13 58.9738 249.759 56.7445L248.513 49.2517C248.38 48.4502 247.775 47.809 246.983 47.6293L239.183 45.8596C237.106 45.3885 237.106 42.4299 239.183 41.9588L246.983 40.1891C247.775 40.0094 248.38 39.3682 248.513 38.5667L249.759 31.0739Z" fill="#FFF9E2"/>
<path d="M103.776 110.901C104.116 108.86 107.049 108.86 107.389 110.901C107.511 111.635 108.065 112.222 108.791 112.386L109.325 112.507C111.402 112.978 111.402 115.938 109.325 116.408L108.791 116.529C108.065 116.694 107.511 117.281 107.389 118.015C107.049 120.056 104.116 120.056 103.776 118.015C103.654 117.281 103.1 116.694 102.374 116.529L101.84 116.408C99.7627 115.938 99.7627 112.978 101.84 112.507L102.374 112.386C103.1 112.222 103.654 111.635 103.776 110.901Z" fill="#FFF9E2"/>
<path d="M139.079 30.8749C142.283 30.8749 144.88 28.2631 144.88 25.0414C144.88 21.8196 142.283 19.2078 139.079 19.2078C135.875 19.2078 133.278 21.8196 133.278 25.0414C133.278 28.2631 135.875 30.8749 139.079 30.8749Z" fill="#FFF9E2"/>
<path d="M139.079 30.2764C142.03 30.2764 144.422 27.9274 144.422 25.0297C144.422 22.132 142.03 19.7829 139.079 19.7829C136.128 19.7829 133.735 22.132 133.735 25.0297C133.735 27.9274 136.128 30.2764 139.079 30.2764Z" fill="#FFF9E2"/>
<path d="M137.094 27.6181V22.3649H138.932C139.698 22.3649 140.248 22.4556 140.584 22.6369C140.92 22.8183 141.088 23.1573 141.088 23.6541C141.089 23.7775 141.073 23.9005 141.04 24.0193C141.014 24.1114 140.981 24.2011 140.94 24.2874C140.898 24.3638 140.837 24.4271 140.762 24.4701C140.678 24.5221 140.613 24.5604 140.569 24.5851C140.525 24.6098 140.442 24.6321 140.321 24.6521C140.2 24.6721 140.121 24.6832 140.084 24.6857C140.047 24.6882 139.964 24.6944 139.836 24.7043V25.0035C140.033 25.0085 140.193 25.0184 140.316 25.0332C140.462 25.0528 140.605 25.084 140.746 25.1264C140.909 25.1738 141.037 25.2384 141.131 25.3201C141.225 25.4019 141.306 25.5198 141.374 25.6738C141.44 25.8272 141.474 26.0113 141.474 26.2261C141.474 26.4596 141.43 26.6608 141.344 26.8297C141.265 26.9891 141.15 27.1271 141.007 27.232C140.868 27.3314 140.689 27.4109 140.47 27.4706C140.251 27.53 140.028 27.5699 139.803 27.5898C139.578 27.6096 139.317 27.6195 139.021 27.6195L137.094 27.6181ZM138.28 24.3621H139.081C139.204 24.3621 139.296 24.3609 139.356 24.3585C139.429 24.3543 139.502 24.3456 139.574 24.3325C139.661 24.3175 139.722 24.294 139.759 24.2616C139.802 24.2217 139.836 24.1735 139.859 24.1201C139.919 23.9692 139.919 23.8014 139.859 23.6506C139.836 23.5971 139.802 23.549 139.759 23.5091C139.722 23.4769 139.661 23.4532 139.574 23.4382C139.502 23.425 139.429 23.4163 139.356 23.4122C139.296 23.4096 139.205 23.4084 139.081 23.4085H138.28V24.3621ZM138.28 26.5752H139.169C139.347 26.5752 139.478 26.5741 139.562 26.5715C139.663 26.5673 139.763 26.556 139.862 26.5379C139.978 26.5181 140.059 26.4884 140.107 26.4486C140.16 26.4006 140.202 26.3423 140.232 26.2772C140.272 26.1884 140.292 26.0914 140.288 25.9939C140.291 25.8954 140.272 25.7974 140.232 25.7072C140.203 25.6406 140.16 25.581 140.107 25.5321C140.059 25.4923 139.978 25.4625 139.862 25.4426C139.763 25.4246 139.663 25.4135 139.562 25.4092C139.478 25.4067 139.347 25.4053 139.169 25.4053H138.28V26.5752Z" fill="#FFF9E2"/>
<path d="M240.13 112.09C243.334 112.09 245.931 109.478 245.931 106.256C245.931 103.035 243.334 100.423 240.13 100.423C236.926 100.423 234.329 103.035 234.329 106.256C234.329 109.478 236.926 112.09 240.13 112.09Z" fill="#FFF9E2"/>
<path d="M240.13 111.491C243.081 111.491 245.473 109.142 245.473 106.245C245.473 103.347 243.081 100.998 240.13 100.998C237.179 100.998 234.787 103.347 234.787 106.245C234.787 109.142 237.179 111.491 240.13 111.491Z" fill="#FFF9E2"/>
<path d="M238.145 108.833V103.58H239.983C240.749 103.58 241.3 103.671 241.635 103.852C241.971 104.033 242.139 104.372 242.139 104.869C242.14 104.993 242.124 105.116 242.091 105.234C242.065 105.326 242.032 105.416 241.991 105.502C241.95 105.579 241.888 105.642 241.813 105.685C241.729 105.737 241.665 105.775 241.62 105.8C241.576 105.825 241.493 105.847 241.372 105.867C241.251 105.887 241.172 105.898 241.135 105.901C241.098 105.903 241.015 105.909 240.887 105.919V106.219C241.084 106.224 241.244 106.234 241.367 106.248C241.513 106.268 241.656 106.299 241.797 106.341C241.96 106.389 242.089 106.453 242.182 106.535C242.276 106.617 242.357 106.735 242.425 106.889C242.491 107.042 242.525 107.226 242.525 107.441C242.525 107.675 242.481 107.876 242.395 108.045C242.316 108.204 242.201 108.342 242.058 108.447C241.919 108.546 241.74 108.626 241.521 108.686C241.302 108.745 241.079 108.785 240.854 108.805C240.629 108.825 240.368 108.835 240.072 108.835L238.145 108.833ZM239.331 105.577H240.132C240.255 105.577 240.347 105.576 240.407 105.574C240.48 105.569 240.553 105.561 240.625 105.548C240.712 105.533 240.773 105.509 240.811 105.477C240.853 105.437 240.887 105.389 240.911 105.335C240.97 105.184 240.97 105.016 240.911 104.866C240.887 104.812 240.853 104.764 240.811 104.724C240.773 104.692 240.712 104.668 240.625 104.653C240.553 104.64 240.48 104.631 240.407 104.627C240.347 104.625 240.256 104.623 240.132 104.624H239.331V105.577ZM239.331 107.79H240.22C240.398 107.79 240.529 107.789 240.613 107.787C240.714 107.782 240.814 107.771 240.913 107.753C241.029 107.733 241.111 107.703 241.158 107.664C241.211 107.616 241.254 107.557 241.284 107.492C241.324 107.403 241.343 107.306 241.339 107.209C241.342 107.11 241.323 107.012 241.284 106.922C241.254 106.856 241.211 106.796 241.158 106.747C241.111 106.707 241.029 106.678 240.913 106.658C240.814 106.64 240.714 106.629 240.613 106.624C240.529 106.622 240.398 106.62 240.22 106.62H239.331V107.79Z" fill="#FFF9E2"/>
<path d="M57.4896 108.722C60.6934 108.722 63.2906 106.11 63.2906 102.888C63.2906 99.6663 60.6934 97.0545 57.4896 97.0545C54.2857 97.0545 51.6885 99.6663 51.6885 102.888C51.6885 106.11 54.2857 108.722 57.4896 108.722Z" fill="#FFF9E2"/>
<path d="M57.4895 108.123C60.4406 108.123 62.8329 105.774 62.8329 102.876C62.8329 99.9787 60.4406 97.6297 57.4895 97.6297C54.5384 97.6297 52.1461 99.9787 52.1461 102.876C52.1461 105.774 54.5384 108.123 57.4895 108.123Z" fill="#FFF9E2"/>
<path d="M55.505 105.465V100.212H57.3426C58.1083 100.212 58.6591 100.302 58.995 100.484C59.331 100.665 59.4988 101.004 59.4985 101.501C59.5 101.624 59.4837 101.747 59.4502 101.866C59.4246 101.958 59.3911 102.048 59.3502 102.134C59.3091 102.211 59.2475 102.274 59.1724 102.317C59.0883 102.369 59.0241 102.407 58.9797 102.432C58.9353 102.457 58.8526 102.479 58.7316 102.499C58.6104 102.519 58.5314 102.53 58.4943 102.532C58.4573 102.535 58.3747 102.541 58.2463 102.551V102.85C58.4437 102.855 58.6039 102.865 58.7268 102.88C58.8723 102.9 59.016 102.931 59.1566 102.973C59.3197 103.021 59.4481 103.085 59.542 103.167C59.6358 103.249 59.7166 103.367 59.7843 103.521C59.851 103.674 59.8843 103.858 59.8843 104.073C59.8843 104.306 59.8411 104.508 59.7546 104.676C59.676 104.836 59.5604 104.974 59.4175 105.079C59.2789 105.178 59.0998 105.258 58.8802 105.317C58.6618 105.377 58.4387 105.417 58.2133 105.437C57.9886 105.456 57.728 105.466 57.4316 105.466L55.505 105.465ZM56.6906 102.209H57.4916C57.6148 102.209 57.7064 102.208 57.7662 102.205C57.8395 102.201 57.9125 102.192 57.9847 102.179C58.0712 102.164 58.133 102.141 58.1701 102.108C58.2126 102.068 58.2466 102.02 58.2701 101.967C58.3293 101.816 58.3293 101.648 58.2701 101.497C58.2466 101.444 58.2126 101.396 58.1701 101.356C58.133 101.324 58.0712 101.3 57.9847 101.285C57.9125 101.272 57.8395 101.263 57.7662 101.259C57.707 101.256 57.6154 101.255 57.4916 101.255H56.6906V102.209ZM56.6906 104.422H57.5799C57.7577 104.422 57.8884 104.421 57.9726 104.418C58.0732 104.414 58.1735 104.403 58.2726 104.385C58.3885 104.365 58.4701 104.335 58.5172 104.295C58.5702 104.247 58.6131 104.189 58.6431 104.124C58.6831 104.035 58.7021 103.938 58.6987 103.841C58.7018 103.742 58.6828 103.644 58.6431 103.554C58.6137 103.487 58.5708 103.428 58.5172 103.379C58.4701 103.339 58.3885 103.309 58.2726 103.289C58.1734 103.271 58.0732 103.26 57.9726 103.256C57.8884 103.253 57.7577 103.252 57.5799 103.252H56.6906V104.422Z" fill="#FFF9E2"/>
<path d="M189.792 93.3453C191.445 93.3453 192.786 91.9973 192.786 90.3345C192.786 88.6716 191.445 87.3236 189.792 87.3236C188.138 87.3236 186.798 88.6716 186.798 90.3345C186.798 91.9973 188.138 93.3453 189.792 93.3453Z" fill="#FFF9E2"/>
<path d="M189.792 93.0365C191.315 93.0365 192.549 91.824 192.549 90.3285C192.549 88.8329 191.315 87.6205 189.792 87.6205C188.268 87.6205 187.034 88.8329 187.034 90.3285C187.034 91.824 188.268 93.0365 189.792 93.0365Z" fill="#FFF9E2"/>
<path d="M188.767 91.6644V88.9531H189.716C190.111 88.9531 190.395 88.9999 190.569 89.0935C190.742 89.1871 190.829 89.3621 190.829 89.6185C190.829 89.6822 190.821 89.7456 190.804 89.8069C190.79 89.8545 190.773 89.9008 190.752 89.9453C190.731 89.9848 190.699 90.0175 190.66 90.0396C190.617 90.0665 190.584 90.0863 190.561 90.099C190.538 90.1118 190.495 90.1233 190.433 90.1336C190.37 90.1439 190.329 90.1496 190.31 90.1509C190.291 90.1522 190.249 90.1554 190.182 90.1605V90.3149C190.284 90.3175 190.367 90.3227 190.43 90.3303C190.505 90.3404 190.58 90.3565 190.652 90.3784C190.736 90.4028 190.803 90.4362 190.851 90.4784C190.899 90.5206 190.941 90.5814 190.976 90.6609C191.01 90.7401 191.028 90.8351 191.028 90.946C191.028 91.0665 191.005 91.1703 190.961 91.2575C190.92 91.3398 190.861 91.411 190.787 91.4651C190.715 91.5164 190.623 91.5575 190.509 91.5883C190.397 91.6189 190.282 91.6395 190.165 91.6498C190.049 91.66 189.915 91.6651 189.762 91.6651L188.767 91.6644ZM189.379 89.9839H189.793C189.856 89.9839 189.904 89.9833 189.934 89.982C189.972 89.9798 190.01 89.9754 190.047 89.9686C190.092 89.9609 190.124 89.9488 190.143 89.932C190.165 89.9114 190.182 89.8866 190.195 89.859C190.225 89.7811 190.225 89.6945 190.195 89.6167C190.182 89.5891 190.165 89.5642 190.143 89.5436C190.124 89.527 190.092 89.5148 190.047 89.507C190.01 89.5002 189.972 89.4957 189.934 89.4936C189.904 89.4923 189.857 89.4916 189.793 89.4917H189.379V89.9839ZM189.379 91.1261H189.838C189.93 91.1261 189.998 91.1255 190.041 91.1242C190.093 91.122 190.145 91.1162 190.196 91.1069C190.256 91.0967 190.298 91.0813 190.322 91.0608C190.349 91.036 190.372 91.0059 190.387 90.9723C190.408 90.9265 190.418 90.8764 190.416 90.8261C190.417 90.7753 190.408 90.7247 190.387 90.6781C190.372 90.6438 190.35 90.613 190.322 90.5877C190.298 90.5672 190.256 90.5518 190.196 90.5415C190.145 90.5323 190.093 90.5265 190.041 90.5243C189.998 90.523 189.93 90.5223 189.838 90.5223H189.379V91.1261Z" fill="#FFF9E2"/>
<defs>
<clipPath id="clip0">
<rect width="206.703" height="213.911" fill="white" transform="matrix(0.832678 -0.553757 0.983493 0.180946 -43 325.294)"/>
</clipPath>
<clipPath id="clip1">
<rect width="103.671" height="104.419" fill="white" transform="matrix(-0.942877 0.333141 0.333141 0.942877 123.613 158.059)"/>
</clipPath>
<clipPath id="clip2">
<rect width="90.4785" height="94.2053" fill="white" transform="translate(109.484 206.855) rotate(0.551998)"/>
</clipPath>
</defs>
</svg>
