<svg width="549" height="514" viewBox="0 0 549 514" fill="none" xmlns="http://www.w3.org/2000/svg">
  <path
    d="M359.234 347.763C385.777 413.702 340.008 459.088 271.348 437.047C240.464 481.883 188.431 481.486 157.941 435.804C86.6408 460.932 38.5336 414.079 67.0903 345.99C7.94298 317.254 6.05068 261.168 61.4134 230.69C47.5499 174.849 88.4117 138.41 148.632 154.836C179.495 86.5634 249.774 86.2067 281.022 153.817C338.237 140.254 376.71 175.216 364.668 228.571C425.313 259.11 423.492 318.966 359.234 347.763Z"
    fill="#C7A8F4"/>
  <path
    d="M238.673 98.0274H236.274C233.203 98.0286 230.201 97.1125 227.647 95.395C225.093 93.6775 223.103 91.2357 221.927 88.3787C220.752 85.5217 220.444 82.3778 221.044 79.3448C221.643 76.3118 223.123 73.526 225.295 71.3399L226.651 69.9643C229.561 67.0312 231.196 63.0545 231.196 58.9082C231.196 54.7618 229.561 50.7851 226.651 47.8521L206.686 27.7473C203.773 24.8164 199.824 23.1701 195.706 23.1701C191.588 23.1701 187.639 24.8164 184.727 27.7473L183.361 29.1229C181.188 31.3087 178.421 32.7971 175.409 33.4C172.397 34.0028 169.275 33.6931 166.438 32.5099C163.601 31.3267 161.175 29.3232 159.468 26.7524C157.761 24.1817 156.85 21.1592 156.848 18.0668V15.6314C156.848 11.4857 155.213 7.50979 152.301 4.57833C149.39 1.64687 145.442 0 141.325 0H113.082C108.965 0 105.017 1.64687 102.106 4.57833C99.1944 7.50979 97.559 11.4857 97.559 15.6314V18.6884C97.5573 21.7808 96.6455 24.8033 94.9385 27.374C93.2316 29.9447 90.8063 31.9483 87.969 33.1315C85.1317 34.3147 82.0098 34.6244 78.9978 34.0216C75.9858 33.4187 73.2187 31.9303 71.0464 29.7445L69.0226 27.7065C66.1099 24.7757 62.1607 23.1294 58.0431 23.1294C53.9255 23.1294 49.9764 24.7757 47.0637 27.7065L27.0882 47.8113C24.1777 50.7443 22.5428 54.721 22.5428 58.8674C22.5428 63.0138 24.1777 66.9905 27.0882 69.9235L28.4442 71.289C30.6192 73.4739 32.1014 76.2597 32.7032 79.2935C33.305 82.3272 32.9992 85.4726 31.8247 88.3313C30.6501 91.19 28.6596 93.6334 26.1051 95.3522C23.5506 97.071 20.5471 97.9879 17.4748 97.9867H15.7445C13.7008 97.984 11.6768 98.3876 9.78846 99.1745C7.90015 99.9614 6.18473 101.116 4.74061 102.572C3.29649 104.028 2.15211 105.757 1.37312 107.66C0.594138 109.562 0.195894 111.601 0.201225 113.659V142.089C0.201225 146.237 1.83775 150.216 4.75077 153.149C7.6638 156.082 11.6147 157.73 15.7343 157.73H18.1529C21.2239 157.729 24.2263 158.645 26.7801 160.363C29.334 162.08 31.3245 164.522 32.4999 167.379C33.6753 170.236 33.9827 173.38 33.3833 176.413C32.7838 179.446 31.3044 182.232 29.1323 184.418L27.1084 186.456C24.1979 189.389 22.563 193.366 22.563 197.512C22.563 201.658 24.1979 205.635 27.1084 208.568L47.0536 228.703C49.9663 231.634 53.9154 233.281 58.033 233.281C62.1506 233.281 66.0998 231.634 69.0125 228.703L71.0363 226.665C73.2086 224.48 75.9756 222.991 78.9877 222.388C81.9997 221.786 85.1216 222.095 87.9589 223.279C90.7962 224.462 93.2216 226.465 94.9285 229.036C96.6354 231.607 97.5473 234.629 97.5489 237.722V240.137C97.5476 242.19 97.9481 244.224 98.7276 246.122C99.5071 248.019 100.65 249.744 102.092 251.196C103.533 252.649 105.245 253.801 107.129 254.587C109.013 255.374 111.033 255.778 113.072 255.778H141.315C143.356 255.78 145.377 255.376 147.263 254.589C149.149 253.803 150.862 252.65 152.305 251.196C153.748 249.742 154.892 248.016 155.671 246.117C156.451 244.217 156.851 242.182 156.848 240.126V238.394C156.85 235.302 157.761 232.279 159.468 229.708C161.175 227.138 163.601 225.134 166.438 223.951C169.275 222.768 172.397 222.458 175.409 223.061C178.421 223.664 181.188 225.152 183.361 227.338L184.727 228.714C187.639 231.644 191.588 233.291 195.706 233.291C199.824 233.291 203.773 231.644 206.686 228.714L226.671 208.599C229.582 205.666 231.217 201.689 231.217 197.543C231.217 193.396 229.582 189.419 226.671 186.486L224.647 184.448C222.475 182.262 220.996 179.477 220.396 176.444C219.797 173.411 220.104 170.267 221.28 167.41C222.455 164.553 224.446 162.111 226.999 160.393C229.553 158.676 232.556 157.76 235.627 157.761H238.713C240.752 157.756 242.769 157.346 244.65 156.556C246.532 155.765 248.24 154.609 249.678 153.154C251.115 151.699 252.254 149.972 253.029 148.074C253.805 146.175 254.201 144.142 254.196 142.089V113.659C254.196 109.513 252.56 105.537 249.649 102.606C246.738 99.6743 242.79 98.0274 238.673 98.0274ZM131.185 187.149C119.807 187.149 108.685 183.751 99.2245 177.386C89.764 171.02 82.3905 161.973 78.0363 151.388C73.6821 140.802 72.5429 129.155 74.7626 117.917C76.9823 106.68 82.4614 96.3579 90.5068 88.2562C98.5523 80.1546 108.803 74.6373 119.962 72.4021C131.122 70.1668 142.689 71.314 153.201 75.6986C163.712 80.0832 172.697 87.5082 179.018 97.0347C185.34 106.561 188.714 117.761 188.714 129.219C188.714 144.583 182.653 159.318 171.864 170.182C161.075 181.046 146.443 187.149 131.185 187.149Z"
    fill="#4E6AFA"/>
  <path
    d="M354.58 435.691L221.613 228.183C225.195 215.14 229.314 201.985 235.446 188.931C248.894 160.348 272.068 132.041 296 138.848C319.628 145.807 344.33 187.759 373.342 205.082C402.445 222.191 436.081 214.793 467.451 223.567C498.821 232.34 528.045 257.398 537.406 287.764C546.685 318.395 535.787 354.538 506.481 369.385C477.328 384.548 429.696 378.638 402.627 386.708C377.288 394.412 369.739 414.007 354.58 435.691Z"
    fill="#64C0C1"/>
  <path d="M353.668 487.528C404.247 487.528 445.248 483.65 445.248 478.866C445.248 474.082 404.247 470.205 353.668 470.205C303.09 470.205 262.089 474.082 262.089 478.866C262.089 483.65 303.09 487.528 353.668 487.528Z" fill="#ADCFBC"/>
  <path d="M351.14 448.806C369.992 448.806 385.282 432.818 385.282 413.141C385.282 393.465 369.992 377.477 351.14 377.477C332.287 377.477 316.997 393.465 316.997 413.141C316.997 432.818 332.277 448.806 351.14 448.806Z" fill="#F2F4FA"/>
  <path
    d="M433.329 367.807C434.898 367.808 436.45 368.128 437.894 368.748C439.337 369.368 440.641 370.275 441.728 371.414C443.967 373.767 445.217 376.899 445.219 380.157C445.219 390.744 396.575 431.8 351.97 431.8C307.364 431.8 254.824 392.059 254.824 380.157C254.813 376.892 256.061 373.75 258.305 371.394C259.391 370.25 260.694 369.338 262.137 368.713C263.58 368.088 265.133 367.763 266.704 367.756L433.329 367.807Z"
    fill="#F2F4FA"/>
  <path
    d="M292.104 277.452L294.35 280.06L229.172 341.475C226.514 344.008 223.372 345.969 219.937 347.239C216.502 348.509 212.846 349.061 209.192 348.862C205.538 348.662 201.963 347.716 198.684 346.08C195.406 344.444 192.492 342.152 190.122 339.345L187.875 336.716L253.064 275.302C255.72 272.768 258.862 270.807 262.297 269.537C265.732 268.267 269.387 267.716 273.041 267.916C276.694 268.116 280.269 269.064 283.546 270.702C286.824 272.34 289.736 274.633 292.104 277.441V277.452Z"
    fill="#F2F4FA"/>
  <path d="M280.91 270.87C253.801 294.877 225.578 319.445 201.403 347.355C196.445 345.633 191.395 341.139 187.651 336.778L250.239 277.493C254.281 273.652 259.288 270.995 264.719 269.81C270.11 268.648 275.715 269.015 280.91 270.87Z" fill="#B8C3FD"/>
  <path
    d="M424.687 243.917C421.922 242.224 418.743 241.342 415.507 241.369C412.272 241.396 409.108 242.331 406.371 244.069C368.929 267.679 333.461 265.152 289.928 243.285C268.91 232.718 233.169 324.662 233.169 347.222C235.648 433.338 466.925 427.723 466.925 347.222C466.854 347.212 459.578 265.315 424.687 243.917Z"
    fill="#F2F4FA"/>
  <path
    d="M510.205 210.484L512.948 212.522L462.24 287.397C460.186 290.466 457.544 293.091 454.468 295.115C451.392 297.14 447.944 298.525 444.329 299.187C440.739 299.824 437.059 299.718 433.511 298.875C429.964 298.032 426.624 296.471 423.695 294.286L420.953 292.248L471.661 217.372C473.714 214.303 476.357 211.679 479.433 209.654C482.509 207.629 485.957 206.245 489.572 205.582C493.162 204.945 496.842 205.052 500.39 205.894C503.937 206.737 507.277 208.298 510.205 210.484Z"
    fill="#F2F4FA"/>
  <path
    d="M374.788 363.792C358.091 355.64 341.395 355.64 324.698 363.792C321.21 363.819 317.855 362.45 315.369 359.987C312.884 357.524 311.471 354.168 311.441 350.657V300.981C311.451 299.238 311.801 297.515 312.473 295.91C313.144 294.304 314.124 292.848 315.355 291.624C316.587 290.4 318.046 289.433 319.649 288.777C321.252 288.122 322.968 287.792 324.698 287.805H374.788C378.275 287.778 381.631 289.146 384.116 291.609C386.602 294.072 388.015 297.428 388.044 300.94V350.616C388.035 352.358 387.685 354.081 387.013 355.687C386.342 357.293 385.362 358.749 384.131 359.973C382.899 361.197 381.44 362.164 379.837 362.819C378.234 363.475 376.518 363.805 374.788 363.792Z"
    fill="#F1F3FF"
    stroke="#C7C9F4"
    stroke-width="5"
    stroke-miterlimit="10"/>
  <path
    d="M318.281 300.308H317.916C317.724 300.307 317.533 300.344 317.354 300.417C317.176 300.49 317.013 300.597 316.876 300.734C316.739 300.87 316.629 301.032 316.555 301.211C316.48 301.39 316.44 301.581 316.439 301.775V319.251C316.439 319.446 316.477 319.638 316.552 319.818C316.626 319.997 316.735 320.16 316.873 320.296C317.01 320.433 317.173 320.54 317.353 320.613C317.532 320.685 317.723 320.721 317.916 320.719H318.281C318.474 320.721 318.666 320.685 318.846 320.613C319.026 320.541 319.189 320.433 319.328 320.297C319.466 320.16 319.576 319.998 319.652 319.818C319.727 319.639 319.767 319.446 319.768 319.251V301.775C319.763 301.383 319.604 301.008 319.325 300.733C319.046 300.458 318.671 300.305 318.281 300.308Z"
    fill="#DCE1FE"/>
  <path
    d="M318.281 322.981H317.916C317.525 322.981 317.149 323.137 316.872 323.416C316.595 323.695 316.439 324.074 316.439 324.468V330.582C316.439 330.777 316.477 330.97 316.552 331.15C316.626 331.33 316.735 331.493 316.872 331.631C317.01 331.768 317.173 331.877 317.352 331.95C317.531 332.024 317.723 332.061 317.916 332.06H318.281C318.669 332.063 319.043 331.911 319.321 331.638C319.6 331.366 319.76 330.994 319.768 330.603V324.489C319.771 324.291 319.734 324.094 319.661 323.911C319.587 323.727 319.478 323.56 319.339 323.42C319.201 323.279 319.036 323.168 318.854 323.093C318.672 323.017 318.477 322.979 318.281 322.981Z"
    fill="#DCE1FE"/>
  <path
    d="M380.152 333.19H379.838C379.479 333.229 379.15 333.407 378.919 333.687C378.689 333.967 378.576 334.326 378.604 334.688V352.653C378.576 353.016 378.689 353.375 378.919 353.655C379.15 353.934 379.479 354.112 379.838 354.151H380.152C380.511 354.112 380.841 353.934 381.071 353.655C381.302 353.375 381.415 353.016 381.387 352.653V334.678C381.412 334.317 381.298 333.961 381.068 333.683C380.837 333.406 380.509 333.229 380.152 333.19Z"
    fill="#DCE1FE"/>
  <path
    d="M380.152 321.279H379.838C379.48 321.315 379.151 321.491 378.92 321.769C378.689 322.047 378.576 322.405 378.604 322.767V328.88C378.576 329.241 378.689 329.598 378.92 329.874C379.151 330.15 379.481 330.324 379.838 330.358H380.152C380.509 330.324 380.839 330.15 381.07 329.874C381.301 329.598 381.415 329.241 381.387 328.88V322.767C381.415 322.405 381.302 322.047 381.071 321.769C380.84 321.491 380.51 321.315 380.152 321.279Z"
    fill="#DCE1FE"/>
  <path d="M233.169 347.355C233.169 324.784 268.971 232.769 290.009 243.346C300.908 248.94 314.214 254.198 319.072 255.421C321.359 256.002 294.583 256.756 273.788 278.349C250.665 302.326 233.169 347.355 233.169 347.355Z" fill="#B8C3FD"/>
  <path d="M500.732 204.247C489.51 200.171 479.39 205.185 472.529 215.324L424.675 285.981L425.535 286.592C430.868 290.281 481.303 200.874 500.732 204.247Z" fill="#B8C3FD"/>
  <path d="M319.213 425.573C325.487 444.7 347.547 454.248 364.75 445.596C346.434 445.362 330.557 440.135 319.213 425.573Z" fill="#B1B9E4"/>
  <path d="M376.437 428.223C339.896 440.664 278.998 419.052 259.862 389.297C305.683 426.816 376.852 429.303 376.437 428.223Z" fill="#B1B9E4"/>
  <path d="M200.969 346.988C200.969 346.988 217.271 352.949 228.726 341.119C220.214 345.688 210.587 347.724 200.969 346.988Z" fill="#B8C3FD"/>
  <path d="M366.398 324.682H350.854V340.558H366.398V324.682Z" fill="#FCB614"/>
  <path d="M350.855 324.682H335.858V340.558H350.855V324.682Z" fill="#EF4E63"/>
  <path d="M350.855 308.246H335.858V324.682H350.855V308.246Z" fill="#63CCF5"/>
  <path
    d="M315.924 231.76H314.71C313.373 231.79 312.102 232.351 311.175 233.321C310.248 234.291 309.74 235.591 309.761 236.937V244.732C309.742 246.076 310.252 247.374 311.179 248.342C312.106 249.309 313.375 249.869 314.71 249.898H315.914C317.249 249.869 318.518 249.309 319.445 248.342C320.372 247.374 320.881 246.076 320.862 244.732V236.937C320.884 235.592 320.377 234.294 319.452 233.324C318.527 232.354 317.259 231.792 315.924 231.76Z"
    fill="#F2F4FA"/>
  <path
    d="M386.426 232.3H385.221C383.886 232.33 382.617 232.889 381.69 233.857C380.763 234.825 380.254 236.122 380.273 237.467V245.272C380.254 246.616 380.763 247.914 381.69 248.882C382.617 249.849 383.886 250.409 385.221 250.438H386.426C387.76 250.409 389.03 249.849 389.957 248.882C390.883 247.914 391.393 246.616 391.374 245.272V237.467C391.393 236.122 390.883 234.825 389.957 233.857C389.03 232.889 387.76 232.33 386.426 232.3Z"
    fill="#F2F4FA"/>
  <path
    d="M391.361 240.238V246.75C391.393 247.236 391.331 247.724 391.179 248.186C391.02 248.64 390.776 249.059 390.461 249.419C390.155 249.76 389.778 250.027 389.358 250.204C388.95 250.383 388.506 250.46 388.062 250.428H384.713C388.123 249.358 390.228 245.751 391.361 240.238Z"
    fill="#B8C3FD"/>
  <path
    d="M309.78 239.107V246.026C309.75 246.528 309.808 247.032 309.952 247.514C310.1 247.985 310.341 248.422 310.66 248.798C310.961 249.161 311.338 249.453 311.763 249.654C312.174 249.847 312.626 249.938 313.079 249.918H316.439C313.049 248.767 310.903 244.895 309.78 239.107Z"
    fill="#B1B9E4"/>
  <path
    d="M273.544 157.659H427.033C429.408 157.636 431.763 158.085 433.965 158.981C436.167 159.877 438.171 161.201 439.863 162.879C441.556 164.556 442.902 166.554 443.826 168.757C444.75 170.959 445.234 173.324 445.248 175.715V177.06C445.228 179.448 444.741 181.808 443.815 184.006C442.888 186.204 441.541 188.197 439.849 189.87C438.157 191.543 436.155 192.864 433.956 193.758C431.757 194.651 429.404 195.099 427.033 195.076H273.544C271.172 195.099 268.819 194.651 266.619 193.757C264.419 192.863 262.416 191.541 260.724 189.867C259.033 188.192 257.685 186.198 256.759 183.999C255.834 181.8 255.348 179.439 255.329 177.05V175.715C255.344 173.324 255.827 170.959 256.751 168.757C257.675 166.554 259.022 164.556 260.714 162.879C262.406 161.201 264.41 159.877 266.612 158.981C268.814 158.085 271.169 157.636 273.544 157.659Z"
    fill="#B8C3FD"/>
  <path
    d="M351.139 240.931C340.706 240.931 287.387 239.912 272.593 208.873C271.441 206.284 270.884 203.466 270.963 200.63V151.259C270.884 148.423 271.441 145.605 272.593 143.016C287.772 111.131 343.964 111.203 350.784 111.203C357.787 111.203 413.524 111.284 428.652 143.016C429.808 145.604 430.365 148.423 430.282 151.259V200.691C430.365 203.528 429.808 206.346 428.652 208.935C414.222 239.138 363.211 240.931 351.139 240.931Z"
    fill="#F2F4FA"/>
  <path
    d="M350.725 224.535C342.002 224.535 297.396 223.791 285.041 200.874C284.091 198.981 283.625 196.88 283.685 194.76V158.392C283.626 156.273 284.092 154.171 285.041 152.278C297.761 128.75 344.745 128.841 350.432 128.841C356.119 128.841 402.9 128.892 415.549 152.278C416.502 154.17 416.968 156.272 416.905 158.392V194.75C416.969 196.87 416.503 198.973 415.549 200.864C403.518 223.18 360.865 224.515 350.725 224.535Z"
    fill="#FFFFFD"/>
  <path d="M390.979 109.837C389.502 106.852 386.213 105.272 382.823 104.386H318.333C314.933 105.272 311.644 106.852 310.167 109.837C304.52 121.23 324.901 153.654 350.573 153.654C376.246 153.654 396.677 121.23 390.979 109.837Z" fill="#B8C3FD"/>
  <path
    d="M332.924 166.147H333.936C334.674 166.141 335.407 166.283 336.092 166.562C336.776 166.842 337.4 167.255 337.926 167.777C338.452 168.3 338.871 168.921 339.159 169.607C339.446 170.292 339.597 171.028 339.602 171.772V186.822C339.589 188.323 338.985 189.757 337.922 190.81C336.86 191.863 335.426 192.448 333.936 192.437H332.924C332.185 192.444 331.453 192.304 330.768 192.025C330.084 191.746 329.46 191.334 328.934 190.813C328.408 190.291 327.989 189.67 327.701 188.986C327.413 188.301 327.262 187.566 327.257 186.822V171.772C327.261 171.027 327.411 170.291 327.698 169.605C327.985 168.919 328.404 168.297 328.93 167.774C329.457 167.252 330.081 166.839 330.766 166.56C331.451 166.28 332.184 166.14 332.924 166.147Z"
    fill="#231F20"/>
  <path
    d="M365.924 166.147H366.936C367.674 166.141 368.407 166.283 369.092 166.562C369.776 166.842 370.4 167.255 370.926 167.777C371.452 168.3 371.871 168.921 372.159 169.606C372.446 170.292 372.597 171.027 372.602 171.771V186.822C372.589 188.323 371.985 189.757 370.922 190.81C369.86 191.862 368.426 192.448 366.936 192.437H365.924C364.433 192.448 362.999 191.862 361.937 190.81C360.874 189.757 360.27 188.323 360.257 186.822V171.771C360.262 171.027 360.413 170.292 360.701 169.606C360.988 168.921 361.407 168.3 361.933 167.777C362.46 167.255 363.083 166.842 363.767 166.562C364.452 166.283 365.185 166.141 365.924 166.147Z"
    fill="#231F20"/>
  <path d="M482.691 173.677C488.279 173.677 492.81 169.115 492.81 163.487C492.81 157.86 488.279 153.297 482.691 153.297C477.102 153.297 472.571 157.86 472.571 163.487C472.571 169.115 477.102 173.677 482.691 173.677Z" fill="#BDDED3"/>
  <path d="M457.896 94.1957C476.059 94.1957 490.783 79.3685 490.783 61.0783C490.783 42.7881 476.059 27.9609 457.896 27.9609C439.732 27.9609 425.008 42.7881 425.008 61.0783C425.008 79.3685 439.732 94.1957 457.896 94.1957Z" fill="#E9DCFB"/>
  <path d="M291.435 97.2525C297.023 97.2525 301.554 92.6903 301.554 87.0625C301.554 81.4348 297.023 76.8726 291.435 76.8726C285.846 76.8726 281.315 81.4348 281.315 87.0625C281.315 92.6903 285.846 97.2525 291.435 97.2525Z" fill="#B8C3FD"/>
  <path d="M538.347 213.418C543.936 213.418 548.466 208.856 548.466 203.228C548.466 197.6 543.936 193.038 538.347 193.038C532.758 193.038 528.228 197.6 528.228 203.228C528.228 208.856 532.758 213.418 538.347 213.418Z" fill="#B8C3FD"/>
  <path d="M145.211 470.205C163.374 470.205 178.099 455.378 178.099 437.088C178.099 418.798 163.374 403.971 145.211 403.971C127.048 403.971 112.323 418.798 112.323 437.088C112.323 455.378 127.048 470.205 145.211 470.205Z" fill="#FAC7D0"/>
  <path d="M517.703 126.029C524.477 126.029 529.968 120.5 529.968 113.679C529.968 106.858 524.477 101.329 517.703 101.329C510.93 101.329 505.439 106.858 505.439 113.679C505.439 120.5 510.93 126.029 517.703 126.029Z" fill="#FAC7D0"/>
  <path d="M63.7492 513.003C69.3379 513.003 73.8685 508.441 73.8685 502.813C73.8685 497.185 69.3379 492.623 63.7492 492.623C58.1604 492.623 53.6299 497.185 53.6299 502.813C53.6299 508.441 58.1604 513.003 63.7492 513.003Z" fill="#B8C3FD"/>
  <path d="M149.259 348.945C167.422 348.945 182.147 334.117 182.147 315.827C182.147 297.537 167.422 282.71 149.259 282.71C131.095 282.71 116.371 297.537 116.371 315.827C116.371 334.117 131.095 348.945 149.259 348.945Z" fill="#FFDE4B"/>
  <path d="M95.1193 388.686C100.708 388.686 105.239 384.123 105.239 378.496C105.239 372.868 100.708 368.306 95.1193 368.306C89.5306 368.306 85 372.868 85 378.496C85 384.123 89.5306 388.686 95.1193 388.686Z" fill="#BDDED3"/>
  <path d="M10.1193 384.609C15.708 384.609 20.2386 380.047 20.2386 374.419C20.2386 368.792 15.708 364.229 10.1193 364.229C4.53056 364.229 0 368.792 0 374.419C0 380.047 4.53056 384.609 10.1193 384.609Z" fill="#E9DCFB"/>
</svg>