<svg width="624" height="355" viewBox="0 0 624 355" fill="none" xmlns="http://www.w3.org/2000/svg">
<g clip-path="url(#clip0)">
<rect x="200" width="219" height="219" rx="20" fill="#FEDF68"/>
<g clip-path="url(#clip1)">
<path d="M365.657 143.461L365.657 143.461C369.632 148.101 376.013 159.172 381.514 169.229C384.258 174.246 386.774 178.993 388.65 182.532L388.686 182.602C389.607 184.34 390.373 185.784 390.931 186.819C391.214 187.343 391.446 187.766 391.619 188.07C391.705 188.221 391.779 188.347 391.838 188.443C391.885 188.518 391.954 188.627 392.025 188.698C392.094 188.767 392.311 188.946 392.611 189.189C392.927 189.445 393.37 189.799 393.922 190.239C395.027 191.119 396.573 192.343 398.43 193.81C399.728 194.836 401.179 195.981 402.736 197.211C405.636 199.5 408.907 202.084 412.264 204.74C422.123 212.541 432.697 220.956 436.728 224.399C436.623 224.467 436.507 224.547 436.381 224.637C435.79 225.061 434.985 225.732 434.106 226.73C432.406 228.662 430.439 231.806 429.193 236.734C429.184 236.731 429.175 236.728 429.166 236.725C428.815 236.613 428.298 236.445 427.634 236.227C426.307 235.79 424.394 235.148 422.053 234.331C417.371 232.696 410.98 230.358 404.143 227.546C397.305 224.734 390.028 221.45 383.57 217.925C377.103 214.394 371.496 210.64 367.967 206.897C357.883 196.192 347.806 182.945 342.033 169.251C336.31 155.674 334.845 141.728 341.696 129.373C341.775 129.389 341.868 129.409 341.972 129.432C342.38 129.523 342.977 129.665 343.727 129.873C345.226 130.289 347.332 130.967 349.751 132.009C354.593 134.096 360.67 137.637 365.657 143.461Z" fill="#DBDAFF" stroke="#F9F9F9"/>
<path d="M322.652 223.336L322.706 223.23L323.15 223.456C322.857 223.307 322.758 223.256 322.724 223.239C322.706 223.23 322.706 223.23 322.706 223.23L322.707 223.228L322.711 223.221L322.724 223.194L322.779 223.087C322.827 222.993 322.898 222.852 322.991 222.668C323.178 222.299 323.451 221.757 323.801 221.06C324.5 219.668 325.503 217.66 326.715 215.202C329.141 210.286 332.405 203.567 335.765 196.359C339.124 189.15 342.576 181.455 345.377 174.583C348.183 167.7 350.319 161.68 351.066 157.807L351.066 157.807C353.009 147.754 351.896 141.001 349.736 136.583C347.577 132.167 344.353 130.043 341.988 129.27C339.513 128.462 329.899 125.811 320.881 123.357C316.378 122.131 312.029 120.956 308.807 120.087C307.195 119.653 305.866 119.295 304.939 119.046L303.866 118.758L303.587 118.683C300.444 119.142 292.344 120.66 283.918 122.74C279.66 123.791 275.327 124.984 271.513 126.253C267.691 127.526 264.422 128.866 262.275 130.204L262.01 129.779L262.277 130.202C262.258 130.214 262.178 130.285 262.069 130.512C261.967 130.727 261.863 131.029 261.763 131.424C261.561 132.214 261.388 133.312 261.241 134.687C260.949 137.432 260.773 141.215 260.687 145.691C260.516 154.641 260.706 166.316 261.035 177.91C261.365 189.503 261.834 201.009 262.221 209.617C262.415 213.921 262.588 217.5 262.712 220.003C262.775 221.255 262.825 222.238 262.859 222.907C262.877 223.242 262.89 223.498 262.899 223.671L262.909 223.867L262.912 223.917L262.913 223.929L262.913 223.932C262.913 223.933 262.913 223.933 262.414 223.96L262.913 223.933L262.918 224.025L262.89 224.113C262.08 226.627 260.359 230.997 258.846 234.723C258.089 236.59 257.382 238.3 256.864 239.544C256.605 240.165 256.393 240.671 256.246 241.02C256.239 241.038 256.232 241.055 256.225 241.072M322.652 223.336L255.751 240.909L255.778 240.919C255.809 240.931 255.857 240.948 255.922 240.97C255.999 240.997 256.1 241.031 256.225 241.072M322.652 223.336L322.652 223.455C322.647 224.623 323.365 225.922 324.308 227.149C325.268 228.4 326.541 229.676 327.799 230.814C329.06 231.955 330.319 232.969 331.262 233.699C331.697 234.035 332.065 234.311 332.335 234.512M322.652 223.336L332.335 234.512M256.225 241.072C256.162 241.222 256.112 241.341 256.077 241.424L256.032 241.529L256.03 241.535C259 242.516 275.879 247.41 304.843 242.749M256.225 241.072C256.309 241.1 256.405 241.131 256.511 241.164C257.036 241.33 257.825 241.562 258.874 241.826C260.973 242.353 264.109 243.004 268.246 243.496C276.48 244.475 288.679 244.822 304.541 242.291M304.541 242.291L304.421 242.481L304.843 242.749M304.541 242.291C304.615 242.279 304.69 242.267 304.764 242.255L304.843 242.749M304.541 242.291L310.753 232.495L311.203 231.784L311.612 232.519L311.175 232.762M304.843 242.749L310.871 233.241C310.836 233.179 310.807 233.127 310.785 233.089L310.75 233.027L310.741 233.011L310.739 233.007L310.739 233.006L310.738 233.006C310.738 233.005 310.738 233.005 311.175 232.762M311.175 232.762L311.612 232.519L311.612 232.519L311.613 232.52L311.615 232.524L311.623 232.539L311.656 232.598C311.686 232.651 311.73 232.728 311.786 232.826C311.898 233.023 312.061 233.306 312.261 233.646C312.663 234.328 313.215 235.241 313.82 236.169C314.426 237.098 315.079 238.033 315.68 238.762C315.981 239.127 316.261 239.431 316.51 239.656C316.77 239.889 316.953 239.997 317.059 240.029C317.185 240.067 317.456 240.091 317.898 240.066C318.322 240.042 318.856 239.976 319.473 239.868C320.708 239.651 322.249 239.272 323.877 238.748C326.927 237.767 330.205 236.304 332.335 234.512M311.175 232.762L311.597 233.03L311.455 233.255C312.396 234.892 315.471 240.074 316.915 240.508C318.584 241.009 328.206 238.715 332.75 234.816L332.723 234.796C332.649 234.743 332.541 234.664 332.403 234.562C332.381 234.546 332.359 234.529 332.335 234.512M323.152 223.457C323.152 223.457 348.527 173.611 351.557 157.902C355.471 137.649 347.123 130.422 342.143 128.795C337.163 127.168 303.618 118.174 303.618 118.174L323.152 223.457ZM323.152 223.457C323.138 226.928 330.839 232.786 332.719 234.174M323.152 223.457L332.719 234.174M332.335 234.512C332.468 234.4 332.596 234.288 332.719 234.174M332.335 234.512L332.719 234.174M332.759 234.808C332.887 234.698 333.01 234.587 333.129 234.475H332.629C332.651 234.612 332.726 234.758 332.759 234.808Z" fill="#DBDAFF" stroke="#F9F9F9"/>
<path d="M311.512 155.419C312.545 155.419 313.384 154.579 313.384 153.544C313.384 152.508 312.545 151.668 311.512 151.668C310.478 151.668 309.64 152.508 309.64 153.544C309.64 154.579 310.478 155.419 311.512 155.419Z" stroke="#F9F9F9" stroke-miterlimit="10"/>
<path d="M311.512 172.788C312.545 172.788 313.384 171.948 313.384 170.913C313.384 169.877 312.545 169.037 311.512 169.037C310.478 169.037 309.64 169.877 309.64 170.913C309.64 171.948 310.478 172.788 311.512 172.788Z" stroke="#F9F9F9" stroke-miterlimit="10"/>
<path d="M311.201 188.14C312.235 188.14 313.073 187.3 313.073 186.264C313.073 185.228 312.235 184.389 311.201 184.389C310.167 184.389 309.329 185.228 309.329 186.264C309.329 187.3 310.167 188.14 311.201 188.14Z" stroke="#F9F9F9" stroke-miterlimit="10"/>
<path d="M310.167 201.351C311.201 201.351 312.039 200.511 312.039 199.475C312.039 198.439 311.201 197.6 310.167 197.6C309.133 197.6 308.295 198.439 308.295 199.475C308.295 200.511 309.133 201.351 310.167 201.351Z" stroke="#F9F9F9" stroke-miterlimit="10"/>
<path d="M309.133 216.894C310.167 216.894 311.005 216.054 311.005 215.018C311.005 213.982 310.167 213.143 309.133 213.143C308.099 213.143 307.261 213.982 307.261 215.018C307.261 216.054 308.099 216.894 309.133 216.894Z" stroke="#F9F9F9" stroke-miterlimit="10"/>
<path d="M303.012 116.403C303.035 116.438 303.061 116.476 303.088 116.517C303.266 116.786 303.524 117.176 303.839 117.66C304.47 118.629 305.331 119.973 306.254 121.478C307.974 124.281 309.887 127.606 310.932 130.086C310.901 130.094 310.87 130.102 310.837 130.11C310.382 130.225 309.742 130.432 308.97 130.799C307.507 131.495 305.583 132.763 303.579 135.064C303.536 135.026 303.49 134.985 303.441 134.942C303.11 134.648 302.634 134.224 302.057 133.7C300.902 132.653 299.344 131.211 297.729 129.632C296.113 128.052 294.446 126.34 293.069 124.751C291.877 123.375 290.933 122.125 290.418 121.15C290.718 121.031 291.141 120.862 291.654 120.659C292.708 120.24 294.142 119.675 295.659 119.088C298.47 117.999 301.528 116.849 303.012 116.403Z" fill="white" stroke="#F9F9F9"/>
<path d="M306.912 123.072C311.367 130.466 315.843 140.877 316.564 148.475C317.035 153.425 315.574 208.3 315.574 208.3C315.359 213.857 315.773 229.659 304.585 242.217" stroke="#F9F9F9" stroke-miterlimit="10" stroke-linecap="round"/>
<path d="M316.563 148.477L326.639 132.91" stroke="#F9F9F9" stroke-miterlimit="10"/>
<path d="M315.585 197.266C315.596 197.271 315.607 197.276 315.617 197.28L315.063 207.801L314.356 207.805C313.59 207.809 312.472 207.814 311.062 207.821C308.242 207.834 304.256 207.852 299.591 207.871C290.262 207.908 278.218 207.948 267.36 207.96C259.254 207.969 251.047 207.743 244.614 206.677C241.396 206.144 238.653 205.405 236.598 204.399C234.539 203.391 233.241 202.15 232.777 200.647C229.433 189.801 232.176 173.423 238.628 158.859C241.849 151.59 245.979 144.805 250.7 139.421C255.425 134.033 260.716 130.076 266.253 128.41C270.196 127.223 273.066 127.208 275.105 127.993C277.119 128.768 278.406 130.357 279.124 132.593C279.847 134.845 279.981 137.728 279.677 141.003C279.373 144.272 278.636 147.893 277.647 151.604C275.669 159.024 272.694 166.752 270.208 172.633C268.966 175.571 267.848 178.045 267.04 179.783C266.637 180.653 266.31 181.338 266.085 181.805C265.973 182.039 265.885 182.219 265.826 182.339C265.813 182.367 265.801 182.391 265.79 182.413C265.778 182.438 265.767 182.458 265.759 182.475L265.743 182.507L265.742 182.51L265.743 182.507C265.747 182.501 265.934 182.311 266.184 182.244L266.175 183.244C275.916 183.413 288.339 186.944 298.364 190.455C303.368 192.207 307.761 193.949 310.902 195.253C312.472 195.905 313.73 196.447 314.594 196.826C315.026 197.016 315.359 197.165 315.585 197.266Z" fill="#DBDAFF" stroke="#F9F9F9"/>
<path d="M315.538 208.299L315.688 197.007C315.688 197.007 285.897 183.511 266.194 182.467C266.194 182.467 272.4 168.118 276.451 154.422" stroke="#F9F9F9" stroke-miterlimit="10"/>
<path d="M349.36 208.609C349.294 208.527 349.217 208.431 349.13 208.324C348.831 207.955 348.42 207.453 347.97 206.922C347.052 205.84 346.024 204.698 345.441 204.258L345.44 204.257C344.85 203.81 343.469 202.882 342.006 202.044C341.275 201.626 340.532 201.236 339.864 200.942C339.183 200.642 338.624 200.461 338.245 200.427L338.223 200.425L338.202 200.421C337.807 200.35 337.068 200.186 336.096 199.97C335.662 199.874 335.181 199.767 334.663 199.654C332.976 199.284 330.876 198.838 328.655 198.428C324.402 197.644 319.786 197.009 316.793 197.271L316.752 206.753C316.769 206.771 316.788 206.79 316.808 206.81C316.934 206.938 317.119 207.12 317.354 207.336C317.825 207.77 318.49 208.335 319.27 208.865C320.864 209.949 322.797 210.793 324.519 210.319C326.473 209.782 328.386 209.315 330.078 209.1C331.753 208.888 333.293 208.911 334.451 209.431L349.36 208.609ZM349.36 208.609C349.269 208.697 349.157 208.79 349.025 208.868C348.848 208.973 348.644 209.047 348.414 209.053C348.187 209.06 347.903 209.003 347.559 208.795L347.557 208.794C347.131 208.54 346.539 208.089 345.861 207.572C345.763 207.497 345.663 207.421 345.562 207.344C344.782 206.75 343.922 206.109 343.178 205.694L342.524 206.417C343.736 208.153 344.866 209.945 345.911 211.787M349.36 208.609L345.911 211.787M345.911 211.787C344.35 212.497 342.677 212.93 340.966 213.064L340.961 213.065C340.696 213.088 340.332 212.996 339.846 212.76C339.37 212.528 338.839 212.188 338.256 211.792C338.058 211.658 337.853 211.516 337.644 211.372C336.649 210.685 335.544 209.921 334.451 209.431L345.911 211.787Z" fill="#B6732B" stroke="#F9F9F9"/>
<path d="M344.576 212.172C344.576 212.172 339.25 205.219 337.853 204.789C335.395 204.03 332.188 203.02 332.188 203.02" stroke="#F9F9F9" stroke-miterlimit="10" stroke-linecap="round"/>
<path d="M342.205 212.957C342.205 212.957 337.43 207.175 336.036 206.74C333.577 205.978 330.371 204.971 330.371 204.971" stroke="#F9F9F9" stroke-miterlimit="10" stroke-linecap="round"/>
<path d="M309.33 194.488L304.233 209.083" stroke="#F9F9F9" stroke-miterlimit="10"/>
<path d="M260.638 209.237C282.357 209.213 315.537 208.299 315.537 208.299" stroke="#F9F9F9" stroke-miterlimit="10"/>
<path d="M305.485 118.488C305.484 118.487 305.483 118.486 305.482 118.484C309.826 117.179 312.427 115.277 314.059 113.502C314.916 112.571 315.497 111.685 315.921 110.957C316.087 110.672 316.231 110.409 316.354 110.183L326.575 130.814L317.09 145.564C315.761 138.005 312.878 131.259 310.272 126.328C308.894 123.721 307.592 121.617 306.633 120.163C306.153 119.436 305.759 118.872 305.485 118.488Z" fill="#A85F2B" stroke="#F9F9F9"/>
<path d="M355.217 99.4029L355.216 99.406C354.912 100.391 354.037 100.884 353.084 101.184C352.722 101.298 352.38 101.375 352.072 101.444C351.978 101.465 351.887 101.486 351.799 101.506C351.627 101.547 351.445 101.594 351.3 101.654C351.229 101.684 351.133 101.731 351.047 101.807C350.956 101.887 350.84 102.033 350.834 102.246C350.828 102.472 350.939 102.649 351.006 102.741C351.081 102.845 351.177 102.947 351.264 103.035C351.306 103.078 351.348 103.12 351.391 103.163C351.539 103.311 351.691 103.463 351.841 103.646C352.206 104.095 352.493 104.663 352.317 105.481C352.139 106.305 351.734 106.735 351.259 106.966C350.86 107.161 350.377 107.232 349.866 107.222C349.865 107.216 349.864 107.21 349.863 107.204L349.862 107.2C349.59 105.586 348.456 104.096 346.912 102.846C345.359 101.589 343.336 100.527 341.17 99.7805C339.004 99.0335 336.673 98.5937 334.497 98.5968C332.326 98.6 330.268 99.0446 328.689 100.11L328.689 100.11L328.685 100.113C325.255 102.474 322.645 105.833 321.198 109.72C321.068 109.476 320.914 109.216 320.735 108.963C320.404 108.494 319.966 108.016 319.412 107.719C318.842 107.413 318.164 107.311 317.417 107.58C317.354 107.602 317.29 107.625 317.228 107.65C317.477 106.313 317.77 104.507 318.02 102.767C318.351 100.467 318.617 98.2111 318.594 97.3148L318.594 97.3144C318.585 97.0013 318.5 96.6604 318.389 96.3213C318.276 95.9773 318.123 95.6016 317.958 95.2129C317.894 95.0628 317.829 94.9103 317.762 94.7556C317.479 94.0967 317.179 93.3981 316.939 92.6741C316.343 90.874 316.199 89.1521 317.505 87.8361C318.886 86.4442 320.346 86.3011 321.475 86.494C322.048 86.5919 322.537 86.7779 322.884 86.9404C323.057 87.0213 323.193 87.0955 323.283 87.1483C323.328 87.1747 323.362 87.1956 323.384 87.2092L323.407 87.2239L323.41 87.2265L323.411 87.2267L323.411 87.2267L323.411 87.2269L323.96 87.6009L324.167 86.969L324.167 86.9689L324.167 86.9686L324.167 86.9683L324.167 86.9679L324.17 86.9605C324.172 86.9532 324.176 86.9413 324.182 86.9252C324.194 86.8929 324.212 86.8437 324.237 86.78C324.288 86.6524 324.366 86.4674 324.476 86.2449C324.695 85.7985 325.034 85.2081 325.514 84.6282C326.471 83.4727 327.963 82.3811 330.192 82.499C332.24 82.6219 333.489 83.3516 334.222 84.0206C334.592 84.3583 334.837 84.6864 334.987 84.9255C335.063 85.045 335.114 85.1418 335.145 85.2059C335.161 85.2379 335.172 85.2616 335.178 85.2758L335.184 85.2894L335.184 85.2898C335.184 85.2901 335.184 85.29 335.184 85.2902C335.184 85.2906 335.185 85.2912 335.184 85.291L335.595 86.3562L336.098 85.3297L336.098 85.3295L336.099 85.3291L336.099 85.3288L336.099 85.3285L336.099 85.3275L336.107 85.3135C336.114 85.3 336.125 85.2785 336.141 85.2502C336.173 85.1937 336.223 85.1106 336.289 85.0112C336.423 84.811 336.622 84.5511 336.882 84.3067C337.399 83.8203 338.119 83.4271 339.061 83.613C339.498 83.7148 339.911 83.9047 340.273 84.1711C340.637 84.4389 340.942 84.7785 341.17 85.1691L341.435 85.6215L341.874 85.3365L341.874 85.3364L341.874 85.3362L341.874 85.3361L341.878 85.3338L341.897 85.3216C341.916 85.3103 341.944 85.2931 341.982 85.2713C342.057 85.2275 342.169 85.1652 342.311 85.0944C342.595 84.9523 342.992 84.7793 343.446 84.6522C344.369 84.3939 345.428 84.3493 346.294 84.9918L346.3 84.9963L346.306 85.0006C346.805 85.3481 347.179 85.8482 347.37 86.4262C347.562 87.0043 347.561 87.629 347.369 88.2068L347.045 89.1815L348.011 88.8358L348.011 88.8357L348.012 88.8356L348.012 88.8356L348.012 88.8355L348.017 88.8337L348.044 88.8247C348.07 88.8164 348.109 88.804 348.161 88.7889C348.266 88.7587 348.42 88.718 348.612 88.6784C348.999 88.5988 349.531 88.5253 350.121 88.5461C351.295 88.5874 352.659 88.9953 353.601 90.4498L353.601 90.4506C354.17 91.3247 354.04 92.4198 353.692 93.3938C353.522 93.8692 353.31 94.2853 353.139 94.5836C353.054 94.7322 352.981 94.8499 352.929 94.9295C352.903 94.9692 352.883 94.9992 352.869 95.0187L352.855 95.0399L352.852 95.0442L352.852 95.0443L352.851 95.0446L352.851 95.0447L352.851 95.0448L352.522 95.5037L353.018 95.7742L353.018 95.7743L353.018 95.7744L353.018 95.7745L353.018 95.7746L353.022 95.777L353.044 95.7893C353.064 95.8007 353.094 95.8185 353.133 95.8425C353.212 95.8905 353.325 95.9629 353.46 96.0575C353.731 96.2477 354.08 96.5225 354.403 96.8641C355.063 97.5619 355.523 98.431 355.217 99.4029Z" fill="#424D76" stroke="#F9F9F9"/>
<path d="M319.653 116.134L319.653 116.134L319.65 116.131L319.638 116.118C319.627 116.106 319.611 116.088 319.59 116.064C319.547 116.016 319.484 115.945 319.405 115.854C319.247 115.671 319.026 115.407 318.775 115.085C318.269 114.438 317.65 113.568 317.174 112.657C316.69 111.731 316.39 110.832 316.438 110.106C316.461 109.755 316.564 109.455 316.76 109.202C316.957 108.948 317.273 108.71 317.776 108.527L317.776 108.527C318.236 108.361 318.62 108.421 318.964 108.605C319.327 108.8 319.657 109.14 319.944 109.545C320.226 109.946 320.444 110.377 320.592 110.714C320.666 110.882 320.721 111.023 320.757 111.121C320.775 111.17 320.789 111.208 320.797 111.233L320.807 111.26L320.809 111.266L320.809 111.267L320.809 111.267L320.809 111.267L320.809 111.267L321.301 112.801L321.764 111.258C323.023 107.062 325.673 103.422 329.277 100.94C330.635 100.025 332.473 99.6024 334.525 99.5996C336.573 99.5969 338.792 100.013 340.871 100.73C342.95 101.447 344.864 102.458 346.309 103.628C347.763 104.806 348.688 106.099 348.902 107.371C348.988 107.89 348.902 108.701 348.632 109.776C348.365 110.835 347.934 112.095 347.38 113.482C346.273 116.255 344.692 119.498 343.01 122.598C341.328 125.697 339.553 128.64 338.06 130.813C337.313 131.901 336.644 132.785 336.099 133.396C335.826 133.703 335.594 133.929 335.408 134.077C335.247 134.204 335.163 134.238 335.143 134.246C335.137 134.249 335.136 134.249 335.141 134.249C334.114 134.318 332.006 133.966 329.455 132.88C326.92 131.801 323.99 130.015 321.312 127.264L321.312 127.264C319.17 125.067 318.769 122.442 318.914 120.329C318.987 119.273 319.196 118.354 319.388 117.699C319.483 117.372 319.574 117.113 319.64 116.937C319.673 116.849 319.699 116.782 319.718 116.738C319.727 116.716 319.733 116.7 319.738 116.69L319.742 116.679L319.743 116.677L319.743 116.677L319.743 116.677L319.743 116.677L319.877 116.376L319.653 116.134L319.653 116.134L319.653 116.134Z" fill="#B6732B" stroke="#F9F9F9"/>
<path d="M340.632 126.353C340.622 126.408 340.614 126.45 340.608 126.478C340.598 126.501 340.584 126.532 340.567 126.571C340.526 126.664 340.467 126.802 340.389 126.986C340.234 127.354 340.007 127.906 339.72 128.643C339.153 130.1 338.349 132.284 337.391 135.218C337.302 135.246 337.151 135.273 336.927 135.286C336.466 135.311 335.799 135.27 334.976 135.146C333.336 134.899 331.149 134.331 328.894 133.383C324.36 131.476 319.7 128.098 318.486 122.85L318.486 122.85C317.965 120.603 318.433 117.661 319.379 114.684C320.319 111.723 321.706 108.802 322.94 106.631L322.94 106.63C322.967 106.583 322.993 106.537 323.02 106.49C322.594 107.543 322.161 108.721 321.805 109.942C321.289 111.712 320.917 113.617 320.94 115.427C320.962 117.239 321.382 118.991 322.485 120.412C323.559 121.796 324.629 122.407 325.788 122.485C326.896 122.559 328.001 122.132 329.095 121.685C329.182 121.65 329.27 121.614 329.357 121.578C331.52 120.69 333.974 119.683 337.469 120.922L337.469 120.922C339.567 121.663 340.326 123.053 340.586 124.255C340.719 124.868 340.722 125.44 340.69 125.86C340.675 126.069 340.651 126.238 340.632 126.353ZM337.444 135.198C337.449 135.194 337.453 135.192 337.453 135.193C337.453 135.193 337.451 135.195 337.444 135.198Z" fill="#424D76" stroke="#F9F9F9"/>
</g>
<g clip-path="url(#clip2)">
<rect width="219" height="219" transform="translate(200)" fill="#FEDF68"/>
<path d="M382.221 229.886L247.095 217.798C242.674 211.826 238.386 205.581 234.83 198.493C227.049 182.961 222.704 163.277 233.81 155.13C244.879 147.168 271.454 150.564 288.843 143.754C306.17 136.831 314.439 119.647 328.933 108.918C343.427 98.1888 364.234 93.8998 380.565 100.077C396.982 106.379 408.904 123.353 405.334 141.164C401.952 159.015 383.152 177.811 377.413 192.356C372.105 206.021 378.009 215.94 382.221 229.886Z" fill="#FFF2BE"/>
<path d="M275.069 126.348L277.809 142.034C278.167 144.113 279.022 145.846 279.87 146.304C283.575 148.259 293.378 152.102 298.876 141.824C299.361 140.92 299.483 139.206 299.155 137.412L296.464 121.788C295.936 118.756 294.469 116.739 293.432 117.617C287.928 122.345 282.362 124.424 276.676 121.466C275.33 120.779 274.523 123.18 275.069 126.348Z" fill="#ECE8DF"/>
<path d="M218.039 206.047C218.039 206.047 211.176 214.258 212.504 216.145C213.832 218.033 217.481 210.261 218.9 210.681C220.319 211.102 211.625 222.191 213.716 223.558C215.808 224.926 221.185 213.713 222.307 213.942C223.429 214.171 219.076 225.08 221.543 225.142C224.011 225.204 224.611 214.951 225.363 214.425C226.114 213.899 226.89 219.994 228.394 218.961C229.897 217.927 228.654 205.898 228.654 205.898L220.167 201.338C220.167 201.338 215.153 202.625 215.317 203.733C215.481 204.84 218.742 204.97 218.742 204.97L218.039 206.047Z" fill="#F2F0E9"/>
<path d="M280.379 146.018C276.619 145.624 272.82 146.085 269.256 147.369C265.692 148.653 262.451 150.728 259.767 153.444C250.673 162.725 208.236 194.902 216.723 203.565C225.21 212.228 230.06 215.94 234.91 210.371C239.76 204.802 250.673 188.714 250.673 188.714C250.673 188.714 225.817 231.41 240.367 233.885C254.917 236.36 337.366 241.31 350.098 231.41C362.829 221.509 330.091 168.294 330.091 168.294C330.091 168.294 305.235 137.355 300.385 137.355C295.535 137.355 297.96 149.731 280.379 146.018Z" fill="#70B9A2"/>
<path d="M315.278 164.052L276.133 174.4C273.491 175.098 271.904 177.85 272.588 180.546L284.399 227.089C285.083 229.786 287.779 231.405 290.42 230.707L329.566 220.359C332.207 219.661 333.794 216.909 333.11 214.213L321.3 167.67C320.616 164.973 317.92 163.354 315.278 164.052Z" fill="#DEDBD5"/>
<path d="M313.718 167.148L274.573 177.495C271.932 178.194 270.345 180.946 271.029 183.642L282.839 230.185C283.523 232.881 286.219 234.501 288.861 233.803L328.006 223.455C330.648 222.757 332.235 220.005 331.551 217.309L319.74 170.765C319.056 168.069 316.36 166.449 313.718 167.148Z" fill="#F9F7F2"/>
<path d="M292.498 209.746C292.498 209.746 277.342 207.271 276.129 210.984C274.917 214.696 287.042 212.84 287.648 215.315C288.254 217.79 268.248 215.315 268.248 219.646C268.248 223.978 285.829 221.503 286.436 223.359C287.042 225.215 270.673 228.928 272.492 232.641C274.311 236.353 287.042 227.691 288.254 228.309C289.467 228.928 282.798 235.735 285.223 236.972C287.648 238.21 300.985 225.215 300.985 225.215L299.773 208.508C299.773 208.508 294.317 202.321 293.104 203.558C291.892 204.796 294.317 209.746 294.317 209.746H292.498Z" fill="#F2F0E9"/>
<path d="M330.122 168.195C330.122 168.195 367.103 192.427 353.765 205.421C340.428 218.415 306.478 240.073 301.628 228.316C296.778 216.559 288.897 203.565 294.959 199.852C301.022 196.139 324.665 189.333 324.665 181.289C324.665 173.245 330.122 168.195 330.122 168.195Z" fill="#8DC7B5"/>
<path d="M259.672 109.521C259.543 114.699 261.511 119.738 265.2 123.669C268.889 127.601 274.037 130.148 279.656 130.822C285.275 131.495 290.968 130.247 295.642 127.318C300.315 124.388 303.639 119.983 304.974 114.95C305.221 115.025 305.48 115.062 305.74 115.062C307.73 115.062 309.333 112.945 309.333 110.323C309.333 107.702 307.73 105.566 305.74 105.566C305.604 105.552 305.467 105.552 305.332 105.566C304.72 102.434 303.357 99.4648 301.34 96.8715C299.235 94.1377 296.442 91.9053 293.197 90.3617C289.952 88.8181 286.349 88.0082 282.691 88C279.632 88.028 276.609 88.6073 273.796 89.7047C270.982 90.8022 268.433 92.3961 266.295 94.3953C264.157 96.3945 262.471 98.7596 261.334 101.355C260.198 103.951 259.633 106.726 259.672 109.521Z" fill="#F9F7F2"/>
<path d="M304.997 106.623C303.727 106.992 302.618 107.748 301.842 108.777C301.842 108.777 299.445 94.7431 294.334 93.5715C289.224 92.3998 275.321 91.7898 271.5 96.6659C266.092 103.558 261.938 100.593 258.5 100.833C255.062 101.072 252 89.4992 260.5 89.4992C269.666 80.3473 281.112 72.5938 293.73 80.3474C306.349 88.1009 304.546 92.4085 304.546 92.4085C304.546 92.4085 318.967 94.993 314.461 105.331C311.814 111.471 307.425 116.783 301.788 120.666L304.546 114.808C309.693 115.764 308.602 105.762 304.997 106.623Z" fill="#151316"/>
</g>
<path d="M305.96 36V29.98H311.84V36H315.2V21.76H311.84V27.26H305.96V21.76H302.6V36H305.96ZM327.661 30.02C327.661 32.12 326.461 33.62 324.661 33.62C322.741 33.58 321.641 31.86 321.641 30.02V21.76H318.261V30.1C318.261 33.88 320.881 36.5 324.661 36.5C328.421 36.5 331.041 33.88 331.041 30.1V21.76H327.661V30.02ZM345.784 31.56C345.784 28.28 342.924 27.68 340.164 27.36C338.364 27.12 336.944 26.92 336.944 25.58C336.944 24.54 337.984 23.8 339.564 23.8C341.284 23.8 342.544 24.8 342.524 26.2H345.444C345.444 23.34 342.944 21.26 339.484 21.26C336.044 21.26 333.664 23.18 333.664 25.96C333.664 29.28 336.384 29.88 339.204 30.24C340.964 30.46 342.504 30.66 342.504 32C342.504 33.14 341.484 33.96 339.844 33.96C337.924 33.96 336.544 32.86 336.544 31.32H333.524C333.524 34.32 336.124 36.5 339.744 36.5C343.364 36.5 345.784 34.48 345.784 31.56ZM351.03 36H354.39V24.56H358.67V21.76H346.75V24.56H351.03V36ZM369.948 36V33.12H363.988V21.76H360.628V36H369.948ZM375.528 29.9H381.488V27.5H375.528V24.46H382.288V21.76H372.288V36H382.488V33.3H375.528V29.9ZM391.402 24.3C392.982 24.3 394.182 25.12 394.182 26.56C394.182 27.88 392.982 28.76 391.402 28.76H388.402V24.3H391.402ZM388.402 31.12H391.302L394.102 36H397.862L394.422 30.68C396.282 30.08 397.542 28.48 397.542 26.56C397.542 23.72 395.242 21.76 391.942 21.76H385.042V36H388.402V31.12Z" fill="white"/>
<path opacity="0.85" d="M308.686 52V49.424H305.018V41.976H301.98V52H308.686ZM308.017 41.962L310.999 52H315.647L318.629 41.976H315.479L313.323 49.774L311.153 41.976L308.017 41.962ZM326.432 52V49.424H322.764V41.976H319.726V52H326.432ZM334.213 47.744L336.047 44.286V47.744H334.213ZM336.047 49.914V52H339.085V49.914H340.205V47.744H339.085V41.976H334.969L331.399 48.346V49.914H336.047ZM345.34 44.006C346.068 43.992 346.572 44.608 346.572 45.49C346.572 46.33 346.068 46.904 345.34 46.904C344.626 46.904 344.136 46.33 344.136 45.49C344.136 44.608 344.626 44.006 345.34 44.006ZM348.742 47.758C349.19 47.114 349.61 46.162 349.61 45.364C349.61 43.138 347.916 41.626 345.438 41.626C342.848 41.626 341.098 43.194 341.098 45.476C341.098 47.408 342.33 48.752 344.122 48.752C344.402 48.752 344.668 48.71 344.92 48.668L342.512 52H345.788L348.742 47.758Z" fill="white"/>
</g>
<g clip-path="url(#clip3)">
<rect y="70" width="219" height="219" rx="20" fill="#F3748A"/>
<g clip-path="url(#clip4)">
<path d="M22.688 255.572H115.241C115.745 255.572 116.244 255.671 116.71 255.864C117.176 256.058 117.599 256.341 117.955 256.698C118.312 257.055 118.594 257.479 118.787 257.946C118.98 258.412 119.079 258.913 119.079 259.418V260.436C119.079 261.456 118.674 262.435 117.954 263.156C117.235 263.877 116.259 264.282 115.241 264.282H22.876" fill="white"/>
<path d="M22.688 255.572H115.241C115.745 255.572 116.244 255.671 116.71 255.864C117.176 256.058 117.599 256.341 117.955 256.698C118.312 257.055 118.594 257.479 118.787 257.946C118.98 258.412 119.079 258.913 119.079 259.418V260.436C119.079 261.456 118.674 262.435 117.954 263.156C117.235 263.877 116.259 264.282 115.241 264.282H22.876" stroke="#3F4D79" stroke-width="6" stroke-miterlimit="10" stroke-linecap="round"/>
<path d="M93.1885 307.003V264.426H101.545V306.808" fill="white"/>
<path d="M93.1885 267.099V264.426H101.545V273.718L93.1885 267.099Z" fill="#F0E1D4"/>
<path d="M93.1885 303.754V264.426H101.545V306.397" stroke="#3F4D79" stroke-width="6" stroke-miterlimit="10" stroke-linecap="round"/>
<path d="M101.885 251.747V254.104L67.9071 245.826L33.9297 254.104V251.747L64.3501 241.863V212.686H71.9071V242.008L101.885 251.747Z" fill="white" stroke="#D8BAA3" stroke-width="6" stroke-miterlimit="10"/>
<path d="M120.828 232.508H24.0408C22.8998 232.508 21.964 231.537 21.8798 230.302C21.8718 230.174 21.8573 230.046 21.8366 229.919L10.6339 169.053C10.529 168.542 10.5872 168.012 10.8003 167.536C10.9651 167.157 11.2346 166.834 11.5769 166.603C11.9192 166.373 12.3201 166.246 12.7323 166.236H109.519C110.66 166.236 111.596 167.209 111.68 168.444C111.688 168.572 111.702 168.699 111.723 168.825L122.922 229.693C123.026 230.204 122.968 230.734 122.755 231.21C122.59 231.588 122.322 231.91 121.98 232.14C121.639 232.37 121.239 232.498 120.828 232.508Z" fill="white" stroke="#D8BAA3" stroke-width="6" stroke-miterlimit="10"/>
<path d="M118.137 229.582H25.8064C24.7043 229.582 23.8118 228.599 23.8118 227.381L13.439 170.998C13.439 169.783 14.3315 168.797 15.4336 168.797H107.762C108.862 168.797 109.757 169.783 109.757 170.998L120.13 227.381C120.13 228.599 119.237 229.582 118.137 229.582Z" fill="white" stroke="#D8BAA3" stroke-width="6" stroke-miterlimit="10"/>
<path d="M184.547 275.867C184.547 275.867 198.047 309.765 190.829 322.691C178.801 344.216 109.863 326.541 109.863 326.541C109.863 326.541 124.914 345.081 107.408 398.038C107.408 398.038 106.777 400.192 93.2513 398.472C93.2513 398.472 76.6721 322.1 76.6699 305.824C76.6699 292.5 100.441 288.353 139.311 291.152C139.311 291.152 144.445 286.529 148.314 276.853C148.314 276.84 159.637 280.389 184.547 275.867Z" fill="#722D54"/>
<path d="M194.298 228.726C190.507 244.252 185.221 271.377 185.072 275.056C184.923 278.735 159.216 281.086 147.773 277.704C147.773 277.704 144.612 259.474 143.821 249.599C137.824 258.049 131.706 264.613 127.549 264.613C112.292 264.613 87.125 256.036 85.2168 253.978L86.3254 248.193C92.6333 248.34 123.587 244.605 123.587 244.605C123.587 244.605 135.888 213.229 143.931 206.748L143.966 206.718C149.247 201.83 162.959 200.264 166.032 199.506C169.211 198.721 185.422 196.516 185.422 196.516C190.922 200.077 197.671 214.899 194.298 228.726Z" fill="#F3E7DD"/>
<path d="M147.832 204.934C147.831 205.297 147.72 205.651 147.513 205.949C147.306 206.247 147.013 206.474 146.674 206.6C146.334 206.727 145.964 206.746 145.614 206.656C145.263 206.565 144.948 206.37 144.711 206.095C145.646 205.393 146.651 204.79 147.711 204.297C147.791 204.5 147.832 204.716 147.832 204.934Z" fill="white"/>
<path d="M153.39 206.714C154.37 206.714 155.164 205.917 155.164 204.935C155.164 203.953 154.37 203.156 153.39 203.156C152.41 203.156 151.616 203.953 151.616 204.935C151.616 205.917 152.41 206.714 153.39 206.714Z" fill="white"/>
<path d="M160.724 206.714C161.704 206.714 162.499 205.917 162.499 204.935C162.499 203.953 161.704 203.156 160.724 203.156C159.745 203.156 158.95 203.953 158.95 204.935C158.95 205.917 159.745 206.714 160.724 206.714Z" fill="white"/>
<path d="M168.057 206.714C169.037 206.714 169.831 205.917 169.831 204.935C169.831 203.953 169.037 203.156 168.057 203.156C167.077 203.156 166.283 203.953 166.283 204.935C166.283 205.917 167.077 206.714 168.057 206.714Z" fill="white"/>
<path d="M175.391 206.714C176.371 206.714 177.165 205.917 177.165 204.935C177.165 203.953 176.371 203.156 175.391 203.156C174.411 203.156 173.617 203.953 173.617 204.935C173.617 205.917 174.411 206.714 175.391 206.714Z" fill="white"/>
<path d="M182.723 206.714C183.703 206.714 184.498 205.917 184.498 204.935C184.498 203.953 183.703 203.156 182.723 203.156C181.744 203.156 180.949 203.953 180.949 204.935C180.949 205.917 181.744 206.714 182.723 206.714Z" fill="white"/>
<path d="M191.808 205.219C191.753 205.554 191.604 205.867 191.378 206.119C191.152 206.372 190.858 206.555 190.532 206.645C190.205 206.736 189.86 206.731 189.536 206.632C189.213 206.532 188.924 206.341 188.705 206.083C188.486 205.824 188.345 205.507 188.299 205.171C188.254 204.835 188.305 204.492 188.447 204.184C188.59 203.876 188.817 203.615 189.102 203.432C189.388 203.25 189.719 203.152 190.058 203.153C190.36 203.148 190.658 203.223 190.922 203.369C191.222 203.978 191.521 204.578 191.808 205.219Z" fill="white"/>
<path d="M144.165 209.914C144.169 210.351 144.012 210.773 143.726 211.101C143.439 211.429 143.042 211.64 142.61 211.693C142.179 211.747 141.742 211.639 141.385 211.391C141.027 211.143 140.773 210.772 140.67 210.348C141.232 209.583 141.832 208.848 142.471 208.146C142.925 208.167 143.355 208.361 143.671 208.69C143.986 209.02 144.163 209.458 144.165 209.914Z" fill="white"/>
<path d="M149.723 211.696C150.703 211.696 151.497 210.9 151.497 209.917C151.497 208.935 150.703 208.139 149.723 208.139C148.743 208.139 147.949 208.935 147.949 209.917C147.949 210.9 148.743 211.696 149.723 211.696Z" fill="white"/>
<path d="M157.057 211.696C158.037 211.696 158.832 210.9 158.832 209.917C158.832 208.935 158.037 208.139 157.057 208.139C156.078 208.139 155.283 208.935 155.283 209.917C155.283 210.9 156.078 211.696 157.057 211.696Z" fill="white"/>
<path d="M164.389 211.696C165.369 211.696 166.164 210.9 166.164 209.917C166.164 208.935 165.369 208.139 164.389 208.139C163.41 208.139 162.615 208.935 162.615 209.917C162.615 210.9 163.41 211.696 164.389 211.696Z" fill="white"/>
<path d="M171.724 211.696C172.704 211.696 173.498 210.9 173.498 209.917C173.498 208.935 172.704 208.139 171.724 208.139C170.744 208.139 169.95 208.935 169.95 209.917C169.95 210.9 170.744 211.696 171.724 211.696Z" fill="white"/>
<path d="M179.056 211.696C180.036 211.696 180.831 210.9 180.831 209.917C180.831 208.935 180.036 208.139 179.056 208.139C178.077 208.139 177.282 208.935 177.282 209.917C177.282 210.9 178.077 211.696 179.056 211.696Z" fill="white"/>
<path d="M186.39 211.696C187.37 211.696 188.165 210.9 188.165 209.917C188.165 208.935 187.37 208.139 186.39 208.139C185.411 208.139 184.616 208.935 184.616 209.917C184.616 210.9 185.411 211.696 186.39 211.696Z" fill="white"/>
<path d="M194.027 211.665C193.928 211.685 193.826 211.694 193.725 211.693C193.317 211.693 192.922 211.552 192.606 211.293C192.29 211.035 192.073 210.676 191.99 210.275C191.907 209.875 191.965 209.459 192.152 209.096C192.34 208.733 192.646 208.446 193.02 208.283C193.407 209.366 193.736 210.497 194.027 211.665Z" fill="white"/>
<path d="M166.166 199.716C166.165 200.149 166.007 200.567 165.72 200.892C165.433 201.217 165.038 201.425 164.609 201.479C164.18 201.532 163.746 201.426 163.39 201.181C163.033 200.936 162.777 200.569 162.671 200.149C164.171 199.878 165.358 199.672 166.032 199.499L166.146 199.471C166.161 199.551 166.167 199.633 166.166 199.716Z" fill="white"/>
<path d="M173.498 199.717C173.501 199.996 173.438 200.272 173.314 200.522C173.191 200.772 173.01 200.99 172.788 201.157C172.565 201.324 172.306 201.437 172.032 201.485C171.758 201.533 171.476 201.517 171.21 201.436C170.944 201.355 170.7 201.212 170.499 201.02C170.297 200.827 170.144 200.59 170.051 200.326C169.958 200.063 169.929 199.782 169.964 199.505C170 199.229 170.1 198.964 170.256 198.733C171.065 198.601 171.938 198.467 172.85 198.326C173.055 198.495 173.219 198.707 173.331 198.948C173.444 199.189 173.501 199.451 173.498 199.717Z" fill="white"/>
<path d="M179.056 201.495C180.036 201.495 180.831 200.699 180.831 199.716C180.831 198.734 180.036 197.938 179.056 197.938C178.077 197.938 177.282 198.734 177.282 199.716C177.282 200.699 178.077 201.495 179.056 201.495Z" fill="white"/>
<path d="M186.39 201.495C187.37 201.495 188.165 200.699 188.165 199.716C188.165 198.734 187.37 197.938 186.39 197.938C185.411 197.938 184.616 198.734 184.616 199.716C184.616 200.699 185.411 201.495 186.39 201.495Z" fill="white"/>
<path d="M146.055 217.149C147.035 217.149 147.83 216.353 147.83 215.371C147.83 214.388 147.035 213.592 146.055 213.592C145.076 213.592 144.281 214.388 144.281 215.371C144.281 216.353 145.076 217.149 146.055 217.149Z" fill="white"/>
<path d="M140.498 215.371C140.502 215.795 140.355 216.208 140.083 216.533C139.81 216.858 139.43 217.075 139.012 217.144C138.594 217.212 138.165 217.129 137.803 216.907C137.441 216.686 137.171 216.342 137.04 215.938C137.51 215.132 137.977 214.358 138.443 213.616C138.534 213.599 138.626 213.591 138.719 213.592C138.952 213.592 139.183 213.637 139.399 213.727C139.615 213.816 139.811 213.947 139.976 214.112C140.141 214.277 140.272 214.473 140.362 214.689C140.451 214.905 140.497 215.137 140.498 215.371Z" fill="white"/>
<path d="M153.39 217.149C154.37 217.149 155.164 216.353 155.164 215.371C155.164 214.388 154.37 213.592 153.39 213.592C152.41 213.592 151.616 214.388 151.616 215.371C151.616 216.353 152.41 217.149 153.39 217.149Z" fill="white"/>
<path d="M160.724 217.149C161.704 217.149 162.499 216.353 162.499 215.371C162.499 214.388 161.704 213.592 160.724 213.592C159.745 213.592 158.95 214.388 158.95 215.371C158.95 216.353 159.745 217.149 160.724 217.149Z" fill="white"/>
<path d="M168.057 217.149C169.037 217.149 169.831 216.353 169.831 215.371C169.831 214.388 169.037 213.592 168.057 213.592C167.077 213.592 166.283 214.388 166.283 215.371C166.283 216.353 167.077 217.149 168.057 217.149Z" fill="white"/>
<path d="M175.391 217.149C176.371 217.149 177.165 216.353 177.165 215.371C177.165 214.388 176.371 213.592 175.391 213.592C174.411 213.592 173.617 214.388 173.617 215.371C173.617 216.353 174.411 217.149 175.391 217.149Z" fill="white"/>
<path d="M182.723 217.149C183.703 217.149 184.498 216.353 184.498 215.371C184.498 214.388 183.703 213.592 182.723 213.592C181.744 213.592 180.949 214.388 180.949 215.371C180.949 216.353 181.744 217.149 182.723 217.149Z" fill="white"/>
<path d="M190.058 217.149C191.038 217.149 191.832 216.353 191.832 215.371C191.832 214.388 191.038 213.592 190.058 213.592C189.078 213.592 188.284 214.388 188.284 215.371C188.284 216.353 189.078 217.149 190.058 217.149Z" fill="white"/>
<path d="M142.39 222.13C143.37 222.13 144.165 221.333 144.165 220.351C144.165 219.369 143.37 218.572 142.39 218.572C141.411 218.572 140.616 219.369 140.616 220.351C140.616 221.333 141.411 222.13 142.39 222.13Z" fill="white"/>
<path d="M136.83 220.351C136.83 220.691 136.733 221.025 136.55 221.311C136.366 221.598 136.104 221.826 135.796 221.968C135.487 222.11 135.144 222.16 134.807 222.112C134.471 222.064 134.155 221.921 133.898 221.698C134.432 220.658 134.978 219.634 135.521 218.635C135.897 218.737 136.229 218.96 136.466 219.27C136.702 219.58 136.831 219.96 136.83 220.351Z" fill="white"/>
<path d="M149.723 222.13C150.703 222.13 151.497 221.333 151.497 220.351C151.497 219.369 150.703 218.572 149.723 218.572C148.743 218.572 147.949 219.369 147.949 220.351C147.949 221.333 148.743 222.13 149.723 222.13Z" fill="white"/>
<path d="M157.057 222.13C158.037 222.13 158.832 221.333 158.832 220.351C158.832 219.369 158.037 218.572 157.057 218.572C156.078 218.572 155.283 219.369 155.283 220.351C155.283 221.333 156.078 222.13 157.057 222.13Z" fill="white"/>
<path d="M164.389 222.13C165.369 222.13 166.164 221.333 166.164 220.351C166.164 219.369 165.369 218.572 164.389 218.572C163.41 218.572 162.615 219.369 162.615 220.351C162.615 221.333 163.41 222.13 164.389 222.13Z" fill="white"/>
<path d="M171.724 222.13C172.704 222.13 173.498 221.333 173.498 220.351C173.498 219.369 172.704 218.572 171.724 218.572C170.744 218.572 169.95 219.369 169.95 220.351C169.95 221.333 170.744 222.13 171.724 222.13Z" fill="white"/>
<path d="M179.056 222.13C180.036 222.13 180.831 221.333 180.831 220.351C180.831 219.369 180.036 218.572 179.056 218.572C178.077 218.572 177.282 219.369 177.282 220.351C177.282 221.333 178.077 222.13 179.056 222.13Z" fill="white"/>
<path d="M186.39 222.13C187.37 222.13 188.165 221.333 188.165 220.351C188.165 219.369 187.37 218.572 186.39 218.572C185.411 218.572 184.616 219.369 184.616 220.351C184.616 221.333 185.411 222.13 186.39 222.13Z" fill="white"/>
<path d="M195.201 221.337C194.991 221.652 194.687 221.891 194.331 222.021C193.976 222.15 193.589 222.163 193.226 222.056C192.864 221.949 192.544 221.729 192.315 221.428C192.086 221.127 191.958 220.76 191.951 220.381C191.945 220.003 192.059 219.631 192.277 219.322C192.495 219.013 192.806 218.781 193.165 218.661C193.523 218.542 193.911 218.54 194.27 218.656C194.63 218.773 194.943 219.001 195.164 219.309C195.195 219.983 195.207 220.659 195.201 221.337Z" fill="white"/>
<path d="M146.055 227.349C147.035 227.349 147.83 226.552 147.83 225.57C147.83 224.587 147.035 223.791 146.055 223.791C145.076 223.791 144.281 224.587 144.281 225.57C144.281 226.552 145.076 227.349 146.055 227.349Z" fill="white"/>
<path d="M153.39 227.349C154.37 227.349 155.164 226.552 155.164 225.57C155.164 224.587 154.37 223.791 153.39 223.791C152.41 223.791 151.616 224.587 151.616 225.57C151.616 226.552 152.41 227.349 153.39 227.349Z" fill="white"/>
<path d="M160.724 227.349C161.704 227.349 162.499 226.552 162.499 225.57C162.499 224.587 161.704 223.791 160.724 223.791C159.745 223.791 158.95 224.587 158.95 225.57C158.95 226.552 159.745 227.349 160.724 227.349Z" fill="white"/>
<path d="M168.057 227.349C169.037 227.349 169.831 226.552 169.831 225.57C169.831 224.587 169.037 223.791 168.057 223.791C167.077 223.791 166.283 224.587 166.283 225.57C166.283 226.552 167.077 227.349 168.057 227.349Z" fill="white"/>
<path d="M175.391 227.349C176.371 227.349 177.165 226.552 177.165 225.57C177.165 224.587 176.371 223.791 175.391 223.791C174.411 223.791 173.617 224.587 173.617 225.57C173.617 226.552 174.411 227.349 175.391 227.349Z" fill="white"/>
<path d="M182.723 227.349C183.703 227.349 184.498 226.552 184.498 225.57C184.498 224.587 183.703 223.791 182.723 223.791C181.744 223.791 180.949 224.587 180.949 225.57C180.949 226.552 181.744 227.349 182.723 227.349Z" fill="white"/>
<path d="M190.058 227.349C191.038 227.349 191.832 226.552 191.832 225.57C191.832 224.587 191.038 223.791 190.058 223.791C189.078 223.791 188.284 224.587 188.284 225.57C188.284 226.552 189.078 227.349 190.058 227.349Z" fill="white"/>
<path d="M142.39 232.327C143.37 232.327 144.165 231.531 144.165 230.548C144.165 229.566 143.37 228.77 142.39 228.77C141.411 228.77 140.616 229.566 140.616 230.548C140.616 231.531 141.411 232.327 142.39 232.327Z" fill="white"/>
<path d="M149.723 232.327C150.703 232.327 151.497 231.531 151.497 230.548C151.497 229.566 150.703 228.77 149.723 228.77C148.743 228.77 147.949 229.566 147.949 230.548C147.949 231.531 148.743 232.327 149.723 232.327Z" fill="white"/>
<path d="M157.057 232.327C158.037 232.327 158.832 231.531 158.832 230.548C158.832 229.566 158.037 228.77 157.057 228.77C156.078 228.77 155.283 229.566 155.283 230.548C155.283 231.531 156.078 232.327 157.057 232.327Z" fill="white"/>
<path d="M164.389 232.327C165.369 232.327 166.164 231.531 166.164 230.548C166.164 229.566 165.369 228.77 164.389 228.77C163.41 228.77 162.615 229.566 162.615 230.548C162.615 231.531 163.41 232.327 164.389 232.327Z" fill="white"/>
<path d="M171.724 232.327C172.704 232.327 173.498 231.531 173.498 230.548C173.498 229.566 172.704 228.77 171.724 228.77C170.744 228.77 169.95 229.566 169.95 230.548C169.95 231.531 170.744 232.327 171.724 232.327Z" fill="white"/>
<path d="M179.056 232.327C180.036 232.327 180.831 231.531 180.831 230.548C180.831 229.566 180.036 228.77 179.056 228.77C178.077 228.77 177.282 229.566 177.282 230.548C177.282 231.531 178.077 232.327 179.056 232.327Z" fill="white"/>
<path d="M186.39 232.327C187.37 232.327 188.165 231.531 188.165 230.548C188.165 229.566 187.37 228.77 186.39 228.77C185.411 228.77 184.616 229.566 184.616 230.548C184.616 231.531 185.411 232.327 186.39 232.327Z" fill="white"/>
<path d="M194.272 228.854C194.004 229.95 193.729 231.103 193.448 232.303C193.009 232.231 192.614 231.995 192.34 231.644C192.066 231.293 191.934 230.851 191.969 230.407C192.004 229.963 192.205 229.548 192.531 229.244C192.857 228.941 193.284 228.772 193.729 228.77C193.913 228.77 194.096 228.798 194.272 228.854Z" fill="white"/>
<path d="M146.055 237.782C147.035 237.782 147.83 236.986 147.83 236.003C147.83 235.021 147.035 234.225 146.055 234.225C145.076 234.225 144.281 235.021 144.281 236.003C144.281 236.986 145.076 237.782 146.055 237.782Z" fill="white"/>
<path d="M138.723 237.782C139.703 237.782 140.498 236.986 140.498 236.003C140.498 235.021 139.703 234.225 138.723 234.225C137.744 234.225 136.949 235.021 136.949 236.003C136.949 236.986 137.744 237.782 138.723 237.782Z" fill="white"/>
<path d="M153.39 237.782C154.37 237.782 155.164 236.986 155.164 236.003C155.164 235.021 154.37 234.225 153.39 234.225C152.41 234.225 151.616 235.021 151.616 236.003C151.616 236.986 152.41 237.782 153.39 237.782Z" fill="white"/>
<path d="M160.724 237.782C161.704 237.782 162.499 236.986 162.499 236.003C162.499 235.021 161.704 234.225 160.724 234.225C159.745 234.225 158.95 235.021 158.95 236.003C158.95 236.986 159.745 237.782 160.724 237.782Z" fill="white"/>
<path d="M168.057 237.782C169.037 237.782 169.831 236.986 169.831 236.003C169.831 235.021 169.037 234.225 168.057 234.225C167.077 234.225 166.283 235.021 166.283 236.003C166.283 236.986 167.077 237.782 168.057 237.782Z" fill="white"/>
<path d="M175.391 237.782C176.371 237.782 177.165 236.986 177.165 236.003C177.165 235.021 176.371 234.225 175.391 234.225C174.411 234.225 173.617 235.021 173.617 236.003C173.617 236.986 174.411 237.782 175.391 237.782Z" fill="white"/>
<path d="M182.723 237.782C183.703 237.782 184.498 236.986 184.498 236.003C184.498 235.021 183.703 234.225 182.723 234.225C181.744 234.225 180.949 235.021 180.949 236.003C180.949 236.986 181.744 237.782 182.723 237.782Z" fill="white"/>
<path d="M190.058 237.782C191.038 237.782 191.832 236.986 191.832 236.003C191.832 235.021 191.038 234.225 190.058 234.225C189.078 234.225 188.284 235.021 188.284 236.003C188.284 236.986 189.078 237.782 190.058 237.782Z" fill="white"/>
<path d="M142.39 242.765C143.37 242.765 144.165 241.968 144.165 240.986C144.165 240.003 143.37 239.207 142.39 239.207C141.411 239.207 140.616 240.003 140.616 240.986C140.616 241.968 141.411 242.765 142.39 242.765Z" fill="white"/>
<path d="M138.723 227.349C139.703 227.349 140.498 226.552 140.498 225.57C140.498 224.587 139.703 223.791 138.723 223.791C137.744 223.791 136.949 224.587 136.949 225.57C136.949 226.552 137.744 227.349 138.723 227.349Z" fill="white"/>
<path d="M135.056 232.327C136.036 232.327 136.83 231.531 136.83 230.548C136.83 229.566 136.036 228.77 135.056 228.77C134.076 228.77 133.282 229.566 133.282 230.548C133.282 231.531 134.076 232.327 135.056 232.327Z" fill="white"/>
<path d="M131.389 237.782C132.369 237.782 133.163 236.986 133.163 236.003C133.163 235.021 132.369 234.225 131.389 234.225C130.409 234.225 129.615 235.021 129.615 236.003C129.615 236.986 130.409 237.782 131.389 237.782Z" fill="white"/>
<path d="M135.056 242.765C136.036 242.765 136.83 241.968 136.83 240.986C136.83 240.003 136.036 239.207 135.056 239.207C134.076 239.207 133.282 240.003 133.282 240.986C133.282 241.968 134.076 242.765 135.056 242.765Z" fill="white"/>
<path d="M133.165 225.568C133.165 226.039 132.978 226.492 132.645 226.825C132.313 227.159 131.861 227.346 131.391 227.346C131.298 227.347 131.205 227.339 131.114 227.322C131.596 226.311 132.093 225.288 132.597 224.268C132.776 224.433 132.919 224.634 133.017 224.858C133.115 225.081 133.165 225.323 133.165 225.568Z" fill="white"/>
<path d="M127.724 242.765C128.704 242.765 129.498 241.968 129.498 240.986C129.498 240.003 128.704 239.207 127.724 239.207C126.744 239.207 125.95 240.003 125.95 240.986C125.95 241.968 126.744 242.765 127.724 242.765Z" fill="white"/>
<path d="M149.723 242.765C150.703 242.765 151.497 241.968 151.497 240.986C151.497 240.003 150.703 239.207 149.723 239.207C148.743 239.207 147.949 240.003 147.949 240.986C147.949 241.968 148.743 242.765 149.723 242.765Z" fill="white"/>
<path d="M157.057 242.765C158.037 242.765 158.832 241.968 158.832 240.986C158.832 240.003 158.037 239.207 157.057 239.207C156.078 239.207 155.283 240.003 155.283 240.986C155.283 241.968 156.078 242.765 157.057 242.765Z" fill="white"/>
<path d="M164.389 242.765C165.369 242.765 166.164 241.968 166.164 240.986C166.164 240.003 165.369 239.207 164.389 239.207C163.41 239.207 162.615 240.003 162.615 240.986C162.615 241.968 163.41 242.765 164.389 242.765Z" fill="white"/>
<path d="M171.724 242.765C172.704 242.765 173.498 241.968 173.498 240.986C173.498 240.003 172.704 239.207 171.724 239.207C170.744 239.207 169.95 240.003 169.95 240.986C169.95 241.968 170.744 242.765 171.724 242.765Z" fill="white"/>
<path d="M179.056 242.765C180.036 242.765 180.831 241.968 180.831 240.986C180.831 240.003 180.036 239.207 179.056 239.207C178.077 239.207 177.282 240.003 177.282 240.986C177.282 241.968 178.077 242.765 179.056 242.765Z" fill="white"/>
<path d="M186.39 242.765C187.37 242.765 188.165 241.968 188.165 240.986C188.165 240.003 187.37 239.207 186.39 239.207C185.411 239.207 184.616 240.003 184.616 240.986C184.616 241.968 185.411 242.765 186.39 242.765Z" fill="white"/>
<path d="M146.055 247.981C147.035 247.981 147.83 247.185 147.83 246.203C147.83 245.22 147.035 244.424 146.055 244.424C145.076 244.424 144.281 245.22 144.281 246.203C144.281 247.185 145.076 247.981 146.055 247.981Z" fill="white"/>
<path d="M153.39 247.981C154.37 247.981 155.164 247.185 155.164 246.203C155.164 245.22 154.37 244.424 153.39 244.424C152.41 244.424 151.616 245.22 151.616 246.203C151.616 247.185 152.41 247.981 153.39 247.981Z" fill="white"/>
<path d="M160.724 247.981C161.704 247.981 162.499 247.185 162.499 246.203C162.499 245.22 161.704 244.424 160.724 244.424C159.745 244.424 158.95 245.22 158.95 246.203C158.95 247.185 159.745 247.981 160.724 247.981Z" fill="white"/>
<path d="M168.057 247.981C169.037 247.981 169.831 247.185 169.831 246.203C169.831 245.22 169.037 244.424 168.057 244.424C167.077 244.424 166.283 245.22 166.283 246.203C166.283 247.185 167.077 247.981 168.057 247.981Z" fill="white"/>
<path d="M175.391 247.981C176.371 247.981 177.165 247.185 177.165 246.203C177.165 245.22 176.371 244.424 175.391 244.424C174.411 244.424 173.617 245.22 173.617 246.203C173.617 247.185 174.411 247.981 175.391 247.981Z" fill="white"/>
<path d="M182.723 247.981C183.703 247.981 184.498 247.185 184.498 246.203C184.498 245.22 183.703 244.424 182.723 244.424C181.744 244.424 180.949 245.22 180.949 246.203C180.949 247.185 181.744 247.981 182.723 247.981Z" fill="white"/>
<path d="M190.73 244.556C190.49 245.695 190.25 246.836 190.013 247.979C189.752 247.973 189.497 247.909 189.264 247.793C189.031 247.676 188.826 247.51 188.664 247.305C188.503 247.1 188.388 246.863 188.328 246.609C188.268 246.354 188.265 246.09 188.319 245.835C188.372 245.579 188.481 245.339 188.638 245.13C188.795 244.922 188.995 244.75 189.225 244.628C189.455 244.506 189.71 244.436 189.97 244.424C190.23 244.411 190.489 244.456 190.73 244.556Z" fill="white"/>
<path d="M142.39 249.405C142.844 249.403 143.281 249.578 143.609 249.892C142.913 250.867 142.218 251.814 141.522 252.732C141.18 252.54 140.911 252.239 140.757 251.878C140.604 251.516 140.574 251.114 140.673 250.733C140.772 250.353 140.993 250.016 141.303 249.775C141.613 249.534 141.994 249.403 142.386 249.402L142.39 249.405Z" fill="white"/>
<path d="M149.723 252.962C150.703 252.962 151.497 252.165 151.497 251.183C151.497 250.201 150.703 249.404 149.723 249.404C148.743 249.404 147.949 250.201 147.949 251.183C147.949 252.165 148.743 252.962 149.723 252.962Z" fill="white"/>
<path d="M157.057 252.962C158.037 252.962 158.832 252.165 158.832 251.183C158.832 250.201 158.037 249.404 157.057 249.404C156.078 249.404 155.283 250.201 155.283 251.183C155.283 252.165 156.078 252.962 157.057 252.962Z" fill="white"/>
<path d="M164.389 252.962C165.369 252.962 166.164 252.165 166.164 251.183C166.164 250.201 165.369 249.404 164.389 249.404C163.41 249.404 162.615 250.201 162.615 251.183C162.615 252.165 163.41 252.962 164.389 252.962Z" fill="white"/>
<path d="M171.724 252.962C172.704 252.962 173.498 252.165 173.498 251.183C173.498 250.201 172.704 249.404 171.724 249.404C170.744 249.404 169.95 250.201 169.95 251.183C169.95 252.165 170.744 252.962 171.724 252.962Z" fill="white"/>
<path d="M179.056 252.962C180.036 252.962 180.831 252.165 180.831 251.183C180.831 250.201 180.036 249.404 179.056 249.404C178.077 249.404 177.282 250.201 177.282 251.183C177.282 252.165 178.077 252.962 179.056 252.962Z" fill="white"/>
<path d="M186.39 252.962C187.37 252.962 188.165 252.165 188.165 251.183C188.165 250.201 187.37 249.404 186.39 249.404C185.411 249.404 184.616 250.201 184.616 251.183C184.616 252.165 185.411 252.962 186.39 252.962Z" fill="white"/>
<path d="M146.529 258.417C147.508 258.417 148.303 257.621 148.303 256.638C148.303 255.656 147.508 254.859 146.529 254.859C145.549 254.859 144.754 255.656 144.754 256.638C144.754 257.621 145.549 258.417 146.529 258.417Z" fill="white"/>
<path d="M139.651 255.124C138.886 256.068 138.125 256.963 137.377 257.797C137.155 257.538 137.012 257.221 136.966 256.883C136.919 256.545 136.97 256.2 137.113 255.891C137.256 255.581 137.485 255.319 137.772 255.136C138.06 254.953 138.394 254.857 138.734 254.859C139.058 254.86 139.376 254.951 139.651 255.124Z" fill="white"/>
<path d="M153.39 258.417C154.37 258.417 155.164 257.621 155.164 256.638C155.164 255.656 154.37 254.859 153.39 254.859C152.41 254.859 151.616 255.656 151.616 256.638C151.616 257.621 152.41 258.417 153.39 258.417Z" fill="white"/>
<path d="M160.724 258.417C161.704 258.417 162.499 257.621 162.499 256.638C162.499 255.656 161.704 254.859 160.724 254.859C159.745 254.859 158.95 255.656 158.95 256.638C158.95 257.621 159.745 258.417 160.724 258.417Z" fill="white"/>
<path d="M168.057 258.417C169.037 258.417 169.831 257.621 169.831 256.638C169.831 255.656 169.037 254.859 168.057 254.859C167.077 254.859 166.283 255.656 166.283 256.638C166.283 257.621 167.077 258.417 168.057 258.417Z" fill="white"/>
<path d="M175.391 258.417C176.371 258.417 177.165 257.621 177.165 256.638C177.165 255.656 176.371 254.859 175.391 254.859C174.411 254.859 173.617 255.656 173.617 256.638C173.617 257.621 174.411 258.417 175.391 258.417Z" fill="white"/>
<path d="M182.723 258.417C183.703 258.417 184.498 257.621 184.498 256.638C184.498 255.656 183.703 254.859 182.723 254.859C181.744 254.859 180.949 255.656 180.949 256.638C180.949 257.621 181.744 258.417 182.723 258.417Z" fill="white"/>
<path d="M138.723 247.981C139.703 247.981 140.498 247.185 140.498 246.203C140.498 245.22 139.703 244.424 138.723 244.424C137.744 244.424 136.949 245.22 136.949 246.203C136.949 247.185 137.744 247.981 138.723 247.981Z" fill="white"/>
<path d="M135.056 252.962C136.036 252.962 136.83 252.165 136.83 251.183C136.83 250.201 136.036 249.404 135.056 249.404C134.076 249.404 133.282 250.201 133.282 251.183C133.282 252.165 134.076 252.962 135.056 252.962Z" fill="white"/>
<path d="M131.389 258.417C132.369 258.417 133.163 257.621 133.163 256.638C133.163 255.656 132.369 254.859 131.389 254.859C130.409 254.859 129.615 255.656 129.615 256.638C129.615 257.621 130.409 258.417 131.389 258.417Z" fill="white"/>
<path d="M127.724 263.399C128.704 263.399 129.498 262.603 129.498 261.621C129.498 260.638 128.704 259.842 127.724 259.842C126.744 259.842 125.95 260.638 125.95 261.621C125.95 262.603 126.744 263.399 127.724 263.399Z" fill="white"/>
<path d="M131.389 247.981C132.369 247.981 133.163 247.185 133.163 246.203C133.163 245.22 132.369 244.424 131.389 244.424C130.409 244.424 129.615 245.22 129.615 246.203C129.615 247.185 130.409 247.981 131.389 247.981Z" fill="white"/>
<path d="M127.724 252.962C128.704 252.962 129.498 252.165 129.498 251.183C129.498 250.201 128.704 249.404 127.724 249.404C126.744 249.404 125.95 250.201 125.95 251.183C125.95 252.165 126.744 252.962 127.724 252.962Z" fill="white"/>
<path d="M124.056 258.417C125.036 258.417 125.831 257.621 125.831 256.638C125.831 255.656 125.036 254.859 124.056 254.859C123.077 254.859 122.282 255.656 122.282 256.638C122.282 257.621 123.077 258.417 124.056 258.417Z" fill="white"/>
<path d="M120.389 263.399C121.369 263.399 122.164 262.603 122.164 261.621C122.164 260.638 121.369 259.842 120.389 259.842C119.41 259.842 118.615 260.638 118.615 261.621C118.615 262.603 119.41 263.399 120.389 263.399Z" fill="white"/>
<path d="M124.056 247.981C125.036 247.981 125.831 247.185 125.831 246.203C125.831 245.22 125.036 244.424 124.056 244.424C123.077 244.424 122.282 245.22 122.282 246.203C122.282 247.185 123.077 247.981 124.056 247.981Z" fill="white"/>
<path d="M120.389 252.962C121.369 252.962 122.164 252.165 122.164 251.183C122.164 250.201 121.369 249.404 120.389 249.404C119.41 249.404 118.615 250.201 118.615 251.183C118.615 252.165 119.41 252.962 120.389 252.962Z" fill="white"/>
<path d="M116.722 258.417C117.702 258.417 118.496 257.621 118.496 256.638C118.496 255.656 117.702 254.859 116.722 254.859C115.742 254.859 114.948 255.656 114.948 256.638C114.948 257.621 115.742 258.417 116.722 258.417Z" fill="white"/>
<path d="M114.831 261.609C114.832 261.904 114.759 262.194 114.619 262.453C114.48 262.713 114.278 262.933 114.032 263.095C113.217 262.941 112.398 262.774 111.583 262.601C111.427 262.37 111.327 262.106 111.291 261.83C111.255 261.554 111.285 261.273 111.377 261.01C111.47 260.747 111.622 260.51 111.823 260.317C112.024 260.124 112.267 259.981 112.532 259.9C112.798 259.818 113.079 259.801 113.353 259.848C113.627 259.896 113.886 260.007 114.109 260.174C114.332 260.34 114.513 260.556 114.638 260.806C114.762 261.055 114.826 261.33 114.825 261.609H114.831Z" fill="white"/>
<path d="M118.499 246.202C118.499 246.674 118.312 247.126 117.979 247.46C117.646 247.794 117.195 247.981 116.724 247.981C116.254 247.981 115.803 247.794 115.47 247.46C115.137 247.126 114.95 246.674 114.95 246.202C114.95 245.997 114.985 245.793 115.056 245.6L118.205 245.24C118.394 245.525 118.496 245.86 118.499 246.202Z" fill="white"/>
<path d="M113.055 252.962C114.035 252.962 114.829 252.165 114.829 251.183C114.829 250.201 114.035 249.404 113.055 249.404C112.075 249.404 111.281 250.201 111.281 251.183C111.281 252.165 112.075 252.962 113.055 252.962Z" fill="white"/>
<path d="M109.39 258.417C110.37 258.417 111.164 257.621 111.164 256.638C111.164 255.656 110.37 254.859 109.39 254.859C108.41 254.859 107.616 255.656 107.616 256.638C107.616 257.621 108.41 258.417 109.39 258.417Z" fill="white"/>
<path d="M107.497 261.609C107.498 261.63 107.498 261.651 107.497 261.672C106.364 261.399 105.241 261.113 104.139 260.819C104.317 260.46 104.61 260.173 104.972 260.002C105.333 259.832 105.741 259.79 106.13 259.881C106.519 259.973 106.865 260.193 107.113 260.507C107.361 260.82 107.497 261.209 107.497 261.609Z" fill="white"/>
<path d="M111.164 246.202C111.16 246.653 110.986 247.085 110.677 247.412C110.368 247.738 109.947 247.935 109.498 247.963C109.05 247.99 108.608 247.846 108.261 247.56C107.915 247.273 107.689 246.865 107.631 246.419L111.155 246.033C111.162 246.089 111.165 246.146 111.164 246.202Z" fill="white"/>
<path d="M105.722 252.962C106.702 252.962 107.497 252.165 107.497 251.183C107.497 250.201 106.702 249.404 105.722 249.404C104.743 249.404 103.948 250.201 103.948 251.183C103.948 252.165 104.743 252.962 105.722 252.962Z" fill="white"/>
<path d="M102.055 258.417C103.035 258.417 103.83 257.621 103.83 256.638C103.83 255.656 103.035 254.859 102.055 254.859C101.076 254.859 100.281 255.656 100.281 256.638C100.281 257.621 101.076 258.417 102.055 258.417Z" fill="white"/>
<path d="M103.713 246.838C103.596 247.146 103.396 247.415 103.135 247.615C102.874 247.815 102.563 247.939 102.236 247.972C101.909 248.006 101.58 247.947 101.284 247.803C100.988 247.66 100.738 247.436 100.562 247.159C101.599 247.055 102.645 246.948 103.713 246.838Z" fill="white"/>
<path d="M98.3884 252.962C99.3683 252.962 100.163 252.165 100.163 251.183C100.163 250.201 99.3683 249.404 98.3884 249.404C97.4086 249.404 96.6143 250.201 96.6143 251.183C96.6143 252.165 97.4086 252.962 98.3884 252.962Z" fill="white"/>
<path d="M96.4971 256.638C96.4971 256.98 96.3987 257.315 96.2135 257.602C96.0283 257.889 95.7643 258.116 95.4533 258.256C94.6538 257.994 93.8866 257.734 93.1583 257.481C93.0313 257.242 92.96 256.978 92.95 256.708C92.9399 256.438 92.9914 256.169 93.1004 255.922C93.2095 255.675 93.3733 255.456 93.5794 255.282C93.7854 255.108 94.0284 254.983 94.2897 254.917C94.5511 254.851 94.824 254.846 95.0878 254.901C95.3516 254.957 95.5992 255.072 95.812 255.238C96.0248 255.404 96.1971 255.616 96.3158 255.859C96.4345 256.101 96.4965 256.368 96.4971 256.638Z" fill="white"/>
<path d="M91.0559 252.962C92.0358 252.962 92.8301 252.165 92.8301 251.183C92.8301 250.201 92.0358 249.404 91.0559 249.404C90.0761 249.404 89.2817 250.201 89.2817 251.183C89.2817 252.165 90.0761 252.962 91.0559 252.962Z" fill="white"/>
<path d="M149.723 263.399C150.703 263.399 151.497 262.603 151.497 261.621C151.497 260.638 150.703 259.842 149.723 259.842C148.743 259.842 147.949 260.638 147.949 261.621C147.949 262.603 148.743 263.399 149.723 263.399Z" fill="white"/>
<path d="M157.057 263.399C158.037 263.399 158.832 262.603 158.832 261.621C158.832 260.638 158.037 259.842 157.057 259.842C156.078 259.842 155.283 260.638 155.283 261.621C155.283 262.603 156.078 263.399 157.057 263.399Z" fill="white"/>
<path d="M164.389 263.399C165.369 263.399 166.164 262.603 166.164 261.621C166.164 260.638 165.369 259.842 164.389 259.842C163.41 259.842 162.615 260.638 162.615 261.621C162.615 262.603 163.41 263.399 164.389 263.399Z" fill="white"/>
<path d="M171.724 263.399C172.704 263.399 173.498 262.603 173.498 261.621C173.498 260.638 172.704 259.842 171.724 259.842C170.744 259.842 169.95 260.638 169.95 261.621C169.95 262.603 170.744 263.399 171.724 263.399Z" fill="white"/>
<path d="M179.056 263.399C180.036 263.399 180.831 262.603 180.831 261.621C180.831 260.638 180.036 259.842 179.056 259.842C178.077 259.842 177.282 260.638 177.282 261.621C177.282 262.603 178.077 263.399 179.056 263.399Z" fill="white"/>
<path d="M187.551 260.274C187.352 261.314 187.16 262.323 186.978 263.294C186.79 263.363 186.591 263.398 186.391 263.398C186.103 263.399 185.82 263.33 185.565 263.197C185.311 263.064 185.092 262.872 184.928 262.635C184.763 262.399 184.659 262.127 184.623 261.841C184.586 261.555 184.62 261.265 184.72 260.995C184.82 260.726 184.984 260.484 185.198 260.292C185.412 260.099 185.669 259.962 185.947 259.891C186.225 259.82 186.517 259.818 186.796 259.884C187.075 259.951 187.334 260.085 187.551 260.274Z" fill="white"/>
<path d="M147.832 266.837C147.832 267.269 147.675 267.686 147.391 268.011C147.107 268.335 146.714 268.544 146.287 268.599C146.112 267.477 145.932 266.298 145.753 265.087C145.853 265.068 145.955 265.058 146.058 265.059C146.528 265.059 146.979 265.247 147.312 265.58C147.644 265.914 147.831 266.366 147.832 266.837Z" fill="white"/>
<path d="M153.39 268.616C154.37 268.616 155.164 267.82 155.164 266.837C155.164 265.855 154.37 265.059 153.39 265.059C152.41 265.059 151.616 265.855 151.616 266.837C151.616 267.82 152.41 268.616 153.39 268.616Z" fill="white"/>
<path d="M160.724 268.616C161.704 268.616 162.499 267.82 162.499 266.837C162.499 265.855 161.704 265.059 160.724 265.059C159.745 265.059 158.95 265.855 158.95 266.837C158.95 267.82 159.745 268.616 160.724 268.616Z" fill="white"/>
<path d="M168.057 268.616C169.037 268.616 169.831 267.82 169.831 266.837C169.831 265.855 169.037 265.059 168.057 265.059C167.077 265.059 166.283 265.855 166.283 266.837C166.283 267.82 167.077 268.616 168.057 268.616Z" fill="white"/>
<path d="M175.391 268.616C176.371 268.616 177.165 267.82 177.165 266.837C177.165 265.855 176.371 265.059 175.391 265.059C174.411 265.059 173.617 265.855 173.617 266.837C173.617 267.82 174.411 268.616 175.391 268.616Z" fill="white"/>
<path d="M182.723 268.616C183.703 268.616 184.498 267.82 184.498 266.837C184.498 265.855 183.703 265.059 182.723 265.059C181.744 265.059 180.949 265.855 180.949 266.837C180.949 267.82 181.744 268.616 182.723 268.616Z" fill="white"/>
<path d="M149.723 273.597C150.703 273.597 151.497 272.8 151.497 271.818C151.497 270.835 150.703 270.039 149.723 270.039C148.743 270.039 147.949 270.835 147.949 271.818C147.949 272.8 148.743 273.597 149.723 273.597Z" fill="white"/>
<path d="M157.057 273.597C158.037 273.597 158.832 272.8 158.832 271.818C158.832 270.835 158.037 270.039 157.057 270.039C156.078 270.039 155.283 270.835 155.283 271.818C155.283 272.8 156.078 273.597 157.057 273.597Z" fill="white"/>
<path d="M164.389 273.597C165.369 273.597 166.164 272.8 166.164 271.818C166.164 270.835 165.369 270.039 164.389 270.039C163.41 270.039 162.615 270.835 162.615 271.818C162.615 272.8 163.41 273.597 164.389 273.597Z" fill="white"/>
<path d="M171.724 273.597C172.704 273.597 173.498 272.8 173.498 271.818C173.498 270.835 172.704 270.039 171.724 270.039C170.744 270.039 169.95 270.835 169.95 271.818C169.95 272.8 170.744 273.597 171.724 273.597Z" fill="white"/>
<path d="M179.056 273.597C180.036 273.597 180.831 272.8 180.831 271.818C180.831 270.835 180.036 270.039 179.056 270.039C178.077 270.039 177.282 270.835 177.282 271.818C177.282 272.8 178.077 273.597 179.056 273.597Z" fill="white"/>
<path d="M185.751 270.158C185.552 271.352 185.39 272.379 185.277 273.191C185.038 272.995 184.853 272.739 184.743 272.449C184.632 272.159 184.599 271.845 184.647 271.539C184.695 271.232 184.822 270.943 185.015 270.701C185.209 270.459 185.463 270.272 185.751 270.158Z" fill="white"/>
<path d="M155.158 277.272C155.158 277.615 155.059 277.95 154.873 278.238C154.687 278.526 154.422 278.754 154.109 278.894C153.481 278.827 152.869 278.745 152.273 278.658C152.039 278.47 151.857 278.225 151.744 277.947C151.63 277.669 151.589 277.366 151.623 277.068C151.658 276.769 151.767 276.484 151.941 276.24C152.116 275.995 152.349 275.799 152.619 275.669C152.889 275.539 153.188 275.48 153.487 275.497C153.787 275.514 154.077 275.607 154.33 275.767C154.584 275.927 154.793 276.149 154.938 276.412C155.083 276.675 155.159 276.971 155.16 277.272H155.158Z" fill="white"/>
<path d="M160.724 279.052C161.704 279.052 162.499 278.255 162.499 277.273C162.499 276.291 161.704 275.494 160.724 275.494C159.745 275.494 158.95 276.291 158.95 277.273C158.95 278.255 159.745 279.052 160.724 279.052Z" fill="white"/>
<path d="M168.057 279.052C169.037 279.052 169.831 278.255 169.831 277.273C169.831 276.291 169.037 275.494 168.057 275.494C167.077 275.494 166.283 276.291 166.283 277.273C166.283 278.255 167.077 279.052 168.057 279.052Z" fill="white"/>
<path d="M177.165 277.27C177.165 277.642 177.05 278.004 176.835 278.306C176.022 278.436 175.171 278.557 174.287 278.663C174.052 278.476 173.869 278.232 173.754 277.954C173.639 277.676 173.597 277.373 173.63 277.074C173.664 276.775 173.772 276.49 173.946 276.244C174.119 275.999 174.352 275.801 174.623 275.671C174.893 275.54 175.192 275.48 175.491 275.497C175.791 275.513 176.081 275.606 176.336 275.766C176.59 275.926 176.8 276.147 176.945 276.411C177.091 276.674 177.167 276.969 177.167 277.27H177.165Z" fill="white"/>
<path d="M184.15 276.214C183.436 276.663 182.341 277.081 180.96 277.454C180.957 277.393 180.957 277.332 180.96 277.272C180.959 276.897 181.077 276.532 181.295 276.229C181.514 275.925 181.822 275.699 182.177 275.582C182.532 275.464 182.914 275.462 183.27 275.576C183.626 275.69 183.937 275.913 184.158 276.214H184.15Z" fill="white"/>
<path d="M144.05 250.531C150.371 242.11 154.142 233.877 157.811 226.605" stroke="#D8BAA3" stroke-width="4" stroke-miterlimit="10"/>
<path d="M73.1778 247.563C75.2783 247.11 82.6667 247.149 86.4485 248.178L85.7332 254.461C85.7332 254.461 82.1762 256.208 79.8272 255.239C77.4782 254.271 75.7062 252.364 74.0336 252.886C72.3609 253.408 70.3037 254.73 69.2988 254.49C68.1014 254.221 66.9593 253.747 65.9233 253.088C66.3231 252.351 70.5889 248.367 73.1778 247.563Z" fill="#FFCFC9"/>
<path d="M163.099 185.386C163.685 187.738 166.032 197.937 166.032 199.505C166.032 201.074 182.176 199.258 185.306 196.513C185.306 196.513 178.941 189.402 177.377 178.717L163.099 185.386Z" fill="#FFCFC9"/>
<path d="M175.395 179.811C175.395 179.811 170.47 190.111 160.238 189.29C159.896 189.263 159.566 189.152 159.277 188.966C158.989 188.78 158.751 188.525 158.585 188.224C157.18 185.667 153.454 178.474 153.591 174.204C153.759 168.959 155.985 159.233 155.985 159.233C155.985 159.233 168.445 156.646 175.363 168.229C179.237 174.728 175.395 179.811 175.395 179.811Z" fill="#FFCFC9"/>
<path d="M166.401 170.508H148.303" stroke="#D8BAA3" stroke-width="4" stroke-miterlimit="10"/>
<path d="M150.22 177.36C151.2 177.36 151.994 175.153 151.994 172.429C151.994 169.706 151.2 167.498 150.22 167.498C149.24 167.498 148.446 169.706 148.446 172.429C148.446 175.153 149.24 177.36 150.22 177.36Z" stroke="#D8BAA3" stroke-width="4" stroke-miterlimit="10"/>
<path d="M199.01 189.783C199.01 189.783 184.651 193.945 165.314 195.213C165.314 195.213 158.582 188.224 166.338 179.598C170.773 174.667 165.338 168.417 165.338 168.417C159.125 166.467 151.743 166.25 151.743 166.25C149.277 162.617 149.21 157.458 156.065 152.364C163.166 147.095 177.081 141.833 185.292 150.176C189.997 154.943 186.805 164.497 192.826 167.396C211.775 176.498 199.01 189.783 199.01 189.783Z" fill="#3F4D90"/>
<path d="M158.207 152.357C165.314 147.088 179.222 141.825 187.434 150.168C192.139 154.935 189.418 166.149 195.43 169.048" stroke="#3F4D90" stroke-width="3" stroke-miterlimit="10"/>
<path d="M150.09 166.243C147.624 162.61 148.657 156.383 156.316 152.594" stroke="#3F4D90" stroke-width="3" stroke-miterlimit="10"/>
<path d="M162.072 195.183C162.072 195.183 156.285 187.764 164.592 179.67C169.346 175.042 165.273 167.498 165.273 167.498" stroke="#3F4D90" stroke-width="3" stroke-miterlimit="10"/>
<path d="M224.122 241.489C222.975 245.822 207.612 273.771 206.089 313.235C205.88 318.721 203.561 323.912 199.617 327.72C195.674 331.528 190.412 333.657 184.937 333.66H115.627C113.27 333.66 111.666 334.609 110.657 336.149C110.568 336.277 110.442 336.374 110.295 336.425C110.148 336.476 109.988 336.478 109.84 336.432C109.691 336.386 109.561 336.293 109.469 336.168C109.376 336.043 109.326 335.891 109.326 335.735V332.141C109.326 327.374 113.192 322.634 117.955 322.647L139.115 322.664C148.589 322.692 154.197 316.048 154.555 306.556C155.878 271.501 167.124 249.313 172.219 242.128C173.125 240.854 174.321 239.816 175.708 239.1C177.095 238.384 178.633 238.011 180.193 238.012H222.365C224.146 238.014 224.58 239.758 224.122 241.489Z" fill="white" stroke="#D8BAA3" stroke-width="6" stroke-miterlimit="10" stroke-linecap="round"/>
<path d="M223.529 241.229H182.301C180.82 241.226 179.36 241.579 178.042 242.257C176.725 242.936 175.588 243.92 174.727 245.128C169.869 251.979 159.511 279.852 158.243 311.404C158.086 315.236 156.456 318.858 153.695 321.513C150.935 324.168 147.257 325.649 143.431 325.647H117.214C115.121 325.647 113.114 326.481 111.634 327.965C110.154 329.448 109.322 331.461 109.322 333.559" stroke="#D8BAA3" stroke-width="6" stroke-miterlimit="10" stroke-linecap="round"/>
</g>
<g clip-path="url(#clip5)">
<rect width="219" height="219" transform="translate(1 70)" fill="white"/>
<rect x="1" y="70" width="657" height="657" fill="#F3748A"/>
<path d="M167.92 247.889C178.475 274.122 160.265 292.205 132.909 283.407C120.622 301.247 99.9134 301.084 87.7464 282.92C59.3432 292.935 40.2063 274.284 51.5676 247.2C28.0393 235.766 27.2738 213.466 49.3114 201.343C43.8322 179.124 60.1087 164.609 84.0801 171.137C96.368 143.971 124.328 143.85 136.777 170.731C159.54 165.339 174.89 179.246 170.095 200.492C194.228 212.615 193.503 236.455 167.92 247.889Z" fill="#F3BAC4"/>
<path d="M64.1406 156.282C64.1406 156.282 60.6381 167.309 58.3228 163.552C57.0449 161.476 56.1417 158.57 53.9605 159.342C44.0368 162.792 56.1298 118.634 70.3213 127.963C73.4057 129.989 79.0459 126.049 84.5008 135.619C89.9557 145.189 95.9392 165.728 92.133 162.406C90.9773 161.397 87.956 160.837 85.1714 162.498C83.1992 163.668 80.7302 161.435 79.4088 160.11C74.1827 154.871 64.1446 158.308 64.1406 156.282Z" fill="#151316"/>
<path d="M64.146 157.267V166.447C64.146 167.662 64.5245 168.733 65.058 169.079C67.4246 170.568 73.8449 173.748 78.9474 168.474C79.4034 167.994 79.677 167.033 79.677 166V156.873C79.677 155.096 78.8882 153.799 78.0628 154.197C73.626 156.321 69.4674 156.931 65.8332 154.678C65.0033 154.135 64.146 155.413 64.146 157.267Z" fill="#E06177"/>
<path d="M84.278 145.718C84.2817 149.053 83.1311 152.275 81.0418 154.78C78.9524 157.285 76.0677 158.902 72.928 159.327C69.7884 159.753 66.6092 158.957 63.9861 157.091C61.363 155.224 59.476 152.414 58.6787 149.186C58.5389 149.235 58.3926 149.259 58.2455 149.258C57.1237 149.258 56.2163 147.904 56.2163 146.227C56.2163 144.551 57.1283 143.201 58.2455 143.201C58.3227 143.192 58.4008 143.192 58.478 143.201C59.0594 139.832 60.8173 136.814 63.4054 134.743C65.9935 132.671 69.2243 131.696 72.4611 132.008C75.698 132.321 78.7064 133.9 80.8936 136.433C83.0807 138.966 84.2882 142.27 84.278 145.694V145.718Z" fill="#FDBFC9"/>
<path d="M46.0752 253.748C46.0752 253.748 50.3296 355.933 51.5471 363.998C52.8056 372.409 54.9077 378.164 78.8655 375.527C102.823 372.89 77.6207 299.355 85.1628 281.643C85.1628 281.643 84.7387 361.783 111.638 357.354C135.595 357.354 129.713 340.974 129.713 340.974C129.713 340.974 114.319 252.711 111.218 243.564L46.0752 253.748Z" fill="#255757"/>
<path d="M62.6504 161.172C62.1692 161.181 61.7101 161.386 61.3698 161.745C61.0295 162.103 60.8347 162.587 60.8265 163.094C60.7854 166 60.2018 171.313 56.5721 172.269C51.5288 173.595 43.9639 173.595 41.0228 185.109C38.0816 196.624 30.9362 224.98 32.6143 231.157C34.2923 237.335 25.0494 253.735 46.066 256.391C66.996 259.038 105.021 260.806 121.938 247.264C121.999 247.216 122.045 247.151 122.072 247.076C122.098 247.001 122.104 246.92 122.089 246.841C119.417 232.205 102.75 172.269 93.977 171.39C85.7692 170.564 80.0967 163.987 80.7077 161.302C80.7208 161.239 80.7201 161.173 80.7057 161.11C80.6913 161.047 80.6635 160.989 80.6244 160.939C80.5853 160.889 80.536 160.849 80.4801 160.822C80.4242 160.795 80.3633 160.782 80.3019 160.783C74.2645 164.122 68.3959 163.872 62.6504 161.172Z" fill="#64C0C1"/>
<path d="M122.149 151.032C122.149 151.032 133.918 123.137 136.444 124.021C138.97 124.904 130.972 137.745 131.82 138.191C132.669 138.638 135.601 129.775 137.292 130.664C138.984 131.553 133.508 139.517 134.351 139.959C135.195 140.401 138.131 132.879 139.823 134.195C141.925 135.079 136.038 142.164 137.302 142.606C138.565 143.048 140.662 136.409 141.925 136.842C143.603 137.726 140.243 145.7 140.243 145.7L133.941 156.748L122.149 151.032Z" fill="#FDBFC9"/>
<path d="M95.6694 200.178C95.6694 200.178 110.38 223.644 119.627 202.834C128.875 182.024 133.398 162.18 134.338 157.228C134.958 153.952 122.204 145.901 118.378 154.571C114.88 162.478 107.033 187.337 107.033 187.337C107.033 187.337 103.668 193.102 101.985 182.466L95.6694 200.178Z" fill="#64C0C1"/>
<path d="M34.8078 233.511C34.8078 233.511 -5.77537 227.084 9.39546 209.805C24.5663 192.526 40.7129 179.993 44.8123 177.044C47.5254 175.093 59.7278 183.433 53.3986 190.624C47.6258 197.171 28.2553 214.873 28.2553 214.873C28.2553 214.873 24.3702 220.397 48.3189 220.243L34.8078 233.511Z" fill="#64C0C1"/>
<path d="M74.9292 133.69L84.332 145.999C84.332 145.999 84.6902 134.155 74.4814 131.213C64.2726 128.271 57.8474 137.996 58.3623 141.232C58.6578 143.133 61.0488 142.948 63.9592 141.85C69.0143 139.925 75.5918 135.163 74.9292 133.69Z" fill="#151316"/>
</g>
<path d="M106.96 108V101.98H112.84V108H116.2V93.76H112.84V99.26H106.96V93.76H103.6V108H106.96ZM119.421 93.76V108H122.781V93.76H119.421ZM131.542 96.3C133.382 96.3 134.662 97.34 134.662 98.84C134.662 100.32 133.382 101.38 131.542 101.38H129.262V96.3H131.542ZM132.142 103.92C135.622 103.92 138.022 101.84 138.022 98.84C138.022 95.86 135.622 93.76 132.182 93.76H126.022V108H129.262V103.92H132.142ZM152.057 103.56C152.057 100.28 149.197 99.68 146.437 99.36C144.637 99.12 143.217 98.92 143.217 97.58C143.217 96.54 144.257 95.8 145.837 95.8C147.557 95.8 148.817 96.8 148.797 98.2H151.717C151.717 95.34 149.217 93.26 145.757 93.26C142.317 93.26 139.937 95.18 139.937 97.96C139.937 101.28 142.657 101.88 145.477 102.24C147.237 102.46 148.777 102.66 148.777 104C148.777 105.14 147.757 105.96 146.117 105.96C144.197 105.96 142.817 104.86 142.817 103.32H139.797C139.797 106.32 142.397 108.5 146.017 108.5C149.637 108.5 152.057 106.48 152.057 103.56ZM157.303 108H160.663V96.56H164.943V93.76H153.023V96.56H157.303V108ZM170.141 101.9H176.101V99.5H170.141V96.46H176.901V93.76H166.901V108H177.101V105.3H170.141V101.9ZM186.015 96.3C187.595 96.3 188.795 97.12 188.795 98.56C188.795 99.88 187.595 100.76 186.015 100.76H183.015V96.3H186.015ZM183.015 103.12H185.915L188.715 108H192.475L189.035 102.68C190.895 102.08 192.155 100.48 192.155 98.56C192.155 95.72 189.855 93.76 186.555 93.76H179.655V108H183.015V103.12Z" fill="white"/>
<path opacity="0.85" d="M109.686 124V121.424H106.018V113.976H102.98V124H109.686ZM109.017 113.962L111.999 124H116.647L119.629 113.976H116.479L114.323 121.774L112.153 113.976L109.017 113.962ZM127.432 124V121.424H123.764V113.976H120.726V124H127.432ZM135.423 117.686C135.535 116.706 136.137 115.992 136.851 115.992C137.523 115.992 138.013 116.482 138.013 117.168C138.013 117.868 137.481 118.4 136.893 118.904L132.777 122.334V124H140.491V121.83H136.879L139.091 120.01C140.099 119.17 140.743 118.204 140.743 116.944C140.729 115.026 139.049 113.626 136.893 113.626C134.723 113.626 133.001 115.124 132.791 117.182L135.423 117.686ZM146.834 124.35C149.592 124.35 151.566 122.096 151.566 118.988C151.566 115.88 149.592 113.626 146.834 113.626C144.062 113.626 142.102 115.88 142.102 118.988C142.102 122.096 144.062 124.35 146.834 124.35ZM146.834 116.202C147.828 116.202 148.528 117.364 148.528 118.988C148.528 120.598 147.828 121.774 146.834 121.774C145.826 121.774 145.14 120.598 145.14 118.988C145.14 117.364 145.826 116.202 146.834 116.202Z" fill="white"/>
</g>
<rect x="405" y="136" width="219" height="219" rx="20" fill="#F5A64A"/>
<g clip-path="url(#clip6)">
<rect width="219" height="219" transform="translate(405 136)" fill="white"/>
<rect x="405" y="136" width="657" height="657" fill="#F5A64A"/>
<rect x="405" y="136" width="657" height="657" fill="#F5A64A"/>
<path d="M585.459 385.521L436.255 373.233C431.419 366.646 426.734 359.756 422.863 351.924C414.394 334.763 409.756 312.968 422.095 303.841C434.391 294.919 463.726 298.465 482.995 290.768C502.198 282.948 511.477 263.821 527.581 251.802C543.684 239.783 566.71 234.854 584.703 241.57C602.791 248.423 615.823 267.149 611.731 286.932C607.847 306.759 586.918 327.76 580.457 343.938C574.479 359.138 580.92 370.089 585.459 385.521Z" fill="#D1D9FF"/>
<path d="M509.126 258.083V271.31C509.126 273.053 509.584 274.6 510.268 275.101C513.166 277.243 521.026 281.82 527.281 274.227C527.832 273.559 528.177 272.174 528.177 270.661V257.484C528.177 254.93 527.192 253.064 526.208 253.629C520.795 256.688 515.676 257.558 511.222 254.316C510.174 253.555 509.126 255.416 509.126 258.083Z" fill="#3B50BB"/>
<path d="M539.79 248.28C539.568 248.298 539.344 248.283 539.126 248.236C538.742 250.056 538.057 251.799 537.098 253.393L537.054 253.467C533.924 258.633 528.028 262.342 521.02 262.887H520.966C519.961 262.955 518.953 262.955 517.949 262.887C510.597 262.356 504.46 258.319 501.453 252.764L501.398 252.661C500.655 251.272 500.117 249.783 499.799 248.241C499.579 248.288 499.354 248.302 499.13 248.285C497.417 248.157 496.177 246.321 496.344 244.15C496.512 241.979 498.042 240.343 499.76 240.461C499.878 240.471 499.994 240.491 500.109 240.52C502.407 232.588 510.661 226.999 520.1 227.397C528.998 227.53 536.616 232.962 538.801 240.535C538.915 240.505 539.032 240.487 539.15 240.481C540.863 240.353 542.389 242.003 542.561 244.164C542.733 246.325 541.503 248.152 539.79 248.28Z" fill="#78A7FC"/>
<path d="M509.126 270.578C509.126 270.578 509.126 272.685 509.618 273.107C510.11 273.53 521.695 279.315 527.827 273.107C529.259 267.94 550.957 268.756 559.324 273.107C567.69 277.459 600.663 317.236 598.203 336.882C595.742 356.527 554.894 367.823 554.894 352.598C554.894 337.373 474.676 352.598 474.676 352.598C474.676 352.598 485.011 361.93 449.577 362.912C414.143 363.894 438.258 295.626 449.577 282.856C460.896 270.087 509.126 270.578 509.126 270.578Z" fill="#3175ED"/>
<path d="M550.78 322.639H478.79C476.518 322.639 474.676 324.477 474.676 326.745V363.226C474.676 365.494 476.518 367.332 478.79 367.332H550.78C553.052 367.332 554.894 365.494 554.894 363.226V326.745C554.894 324.477 553.052 322.639 550.78 322.639Z" fill="#F9F7F2"/>
<path d="M514.539 341.793H510.602V345.722H514.539V341.793Z" fill="#63CCF5"/>
<path d="M514.539 345.723H510.602V349.652H514.539V345.723Z" fill="#EF4E63"/>
<path d="M518.476 345.723H514.539V349.652H518.476V345.723Z" fill="#FCB614"/>
<path d="M503.22 238.163C503.22 238.163 501.744 245.039 509.618 241.11C517.492 237.181 522.906 233.251 526.351 236.689C529.796 240.127 535.209 247.003 538.654 244.057C542.099 241.11 548.497 228.831 539.146 221.955C529.796 215.079 514.047 225.884 514.047 225.884C514.047 225.884 500.4 214.657 494.362 226.867C487.747 240.235 503.092 256.826 503.712 255.844L499.775 247.986C499.775 247.986 497.315 248.968 496.822 245.53C496.33 242.092 499.283 243.565 499.775 243.074C500.267 242.583 503.22 238.163 503.22 238.163Z" fill="#151316"/>
<path d="M495.837 255.844C498.827 255.844 501.251 251.116 501.251 245.284C501.251 239.452 498.827 234.725 495.837 234.725C492.848 234.725 490.424 239.452 490.424 245.284C490.424 251.116 492.848 255.844 495.837 255.844Z" fill="#FFE0BC"/>
<path d="M543.083 255.844C546.073 255.844 548.497 251.116 548.497 245.284C548.497 239.452 546.073 234.725 543.083 234.725C540.094 234.725 537.67 239.452 537.67 245.284C537.67 251.116 540.094 255.844 543.083 255.844Z" fill="#FFE0BC"/>
<path d="M497.589 241.242L493.652 241.06C493.98 237.695 495.237 234.487 497.284 231.793C502.85 224.337 512.383 222.613 519.416 222.446C526.448 222.279 536.075 223.703 541.729 231.247C543.821 233.997 545.119 237.264 545.484 240.697L541.547 240.918C541.508 240.324 540.356 226.365 520.385 226.365H519.45C498.613 226.817 497.624 240.653 497.589 241.242Z" fill="#FFE0BC"/>
</g>
<path d="M474.96 176V169.98H480.84V176H484.2V161.76H480.84V167.26H474.96V161.76H471.6V176H474.96ZM493.381 164.64L495.621 171.24H491.141L493.381 164.64ZM490.481 173.64H496.281L497.061 176H500.581L495.821 161.76H490.941L486.161 176H489.701L490.481 173.64ZM508.972 173.62C506.452 173.62 504.652 171.66 504.652 168.88C504.652 166.1 506.432 164.14 508.972 164.14C510.812 164.14 512.412 165.4 512.812 167.16L515.972 166.8C515.452 163.58 512.492 161.26 508.892 161.26C504.492 161.26 501.292 164.46 501.292 168.88C501.292 173.3 504.492 176.5 508.892 176.5C512.532 176.5 515.492 174.24 515.972 171.1L512.832 170.68C512.392 172.38 510.772 173.62 508.972 173.62ZM518.554 176H521.914V169.62L526.754 176H530.834L524.894 168.48L530.714 161.76H526.654L521.914 167.44V161.76H518.554V176ZM535.934 169.9H541.894V167.5H535.934V164.46H542.694V161.76H532.694V176H542.894V173.3H535.934V169.9ZM551.808 164.3C553.388 164.3 554.588 165.12 554.588 166.56C554.588 167.88 553.388 168.76 551.808 168.76H548.808V164.3H551.808ZM548.808 171.12H551.708L554.508 176H558.268L554.828 170.68C556.688 170.08 557.948 168.48 557.948 166.56C557.948 163.72 555.648 161.76 552.348 161.76H545.448V176H548.808V171.12Z" fill="white"/>
<path opacity="0.85" d="M500.747 192V189.424H497.079V181.976H494.041V192H500.747ZM500.077 181.962L503.059 192H507.707L510.689 181.976H507.539L505.383 189.774L503.213 181.976L500.077 181.962ZM518.493 192V189.424H514.825V181.976H511.787V192H518.493ZM526.049 192H528.989V181.976H526.427L523.655 184.048V186.876L526.049 185.126V192ZM535.529 192.35C538.287 192.35 540.261 190.096 540.261 186.988C540.261 183.88 538.287 181.626 535.529 181.626C532.757 181.626 530.797 183.88 530.797 186.988C530.797 190.096 532.757 192.35 535.529 192.35ZM535.529 184.202C536.523 184.202 537.223 185.364 537.223 186.988C537.223 188.598 536.523 189.774 535.529 189.774C534.521 189.774 533.835 188.598 533.835 186.988C533.835 185.364 534.521 184.202 535.529 184.202Z" fill="white"/>
<defs>
<clipPath id="clip0">
<rect x="200" width="219" height="219" rx="20" fill="white"/>
</clipPath>
<clipPath id="clip1">
<rect width="266" height="320" fill="white" transform="translate(229 82)"/>
</clipPath>
<clipPath id="clip2">
<rect width="219" height="219" fill="white" transform="translate(200)"/>
</clipPath>
<clipPath id="clip3">
<rect y="70" width="219" height="219" rx="20" fill="white"/>
</clipPath>
<clipPath id="clip4">
<rect width="215" height="289" fill="white" transform="translate(-10 141)"/>
</clipPath>
<clipPath id="clip5">
<rect width="219" height="219" fill="white" transform="translate(1 70)"/>
</clipPath>
<clipPath id="clip6">
<rect width="219" height="219" fill="white" transform="translate(405 136)"/>
</clipPath>
</defs>
</svg>
