<svg width="250" height="236" viewBox="0 0 250 236" fill="none" xmlns="http://www.w3.org/2000/svg">
<path d="M23.1321 213.354C23.1321 213.354 18.5188 240.028 63.8113 234.155L66 205L23.1321 213.354Z" fill="white" stroke="#D55466" stroke-miterlimit="10"/>
<path d="M180.345 189.767V166.663C180.345 166.663 187.029 210.729 221.863 208.181C264.183 205.084 264.959 117.417 177.872 62.6002C172.617 59.2975 166.704 57.182 160.547 56.4016L129.78 53.8925L60.6999 64.4853C53.2924 65.7703 46.2825 68.7512 40.2182 73.1949C34.1539 77.6386 29.1996 83.4248 25.7427 90.101C11.8387 117.016 -7.63976 163.097 3.10833 193.524C11.1274 216.246 37.9329 223.155 65.2591 213.571L180.345 189.767Z" fill="#C7A8F4"/>
<path d="M180.345 166.65V143.185" stroke="#423C52" stroke-miterlimit="10" stroke-linecap="round"/>
<path d="M71.5965 139.835L35.2134 154.916" stroke="#423C52" stroke-miterlimit="10" stroke-linecap="round"/>
<path d="M65.2046 213.872C74.3683 210.884 107.463 187.012 117.7 158.324" stroke="#423C52" stroke-miterlimit="10" stroke-linecap="round"/>
<path d="M120.238 136.728C121.06 93.5608 94.2186 60.0522 84.9579 60.2042L55.7433 60.1783C54.7449 60.1775 53.7561 60.3734 52.8334 60.7549C51.9108 61.1364 51.0724 61.696 50.3661 62.4017C49.6598 63.1073 49.0995 63.9453 48.7172 64.8676C48.335 65.79 48.1382 66.7786 48.1382 67.777C55.7336 65.8143 86.0249 56.6183 98.2798 142.341L120.238 136.728Z" fill="white" stroke="#D55466" stroke-miterlimit="10"/>
<path d="M129.78 54.245C129.78 54.245 170.587 61.4686 180.345 142.351C180.345 142.351 194.388 96.1477 168.382 59.9521C167.201 58.3043 165.649 56.9577 163.852 56.0213C162.054 55.0848 160.061 54.5848 158.034 54.5619L129.78 54.245Z" fill="white" stroke="#D55466" stroke-miterlimit="10"/>
<path d="M209.326 153.001C222.802 150.823 232.655 142.431 231.334 134.256C230.013 126.082 218.018 121.22 204.542 123.398C191.066 125.576 181.213 133.968 182.534 142.143C183.855 150.317 195.85 155.179 209.326 153.001Z" fill="#423C52"/>
<path d="M225.33 146.38L224.147 147.272C220.286 150.014 215.141 152.122 209.318 153.057C201.111 154.382 193.455 153.099 188.423 150.046L185.552 142.7L180.352 143.185C179.099 143.301 177.841 143.033 176.743 142.417C175.646 141.8 174.762 140.865 174.209 139.735L161.492 113.731C161.01 112.727 160.772 111.623 160.799 110.509C160.826 109.396 161.116 108.304 161.645 107.324C162.175 106.344 162.929 105.503 163.846 104.871C164.763 104.238 165.816 103.832 166.921 103.685L189.788 100.645C192.784 100.245 195.831 100.768 198.523 102.143C201.215 103.519 203.424 105.682 204.856 108.344L225.33 146.38Z" fill="#A0505A"/>
<path d="M165.941 120.777C165.457 119.772 165.219 118.668 165.245 117.553C165.271 116.439 165.561 115.346 166.091 114.365C166.62 113.385 167.375 112.543 168.293 111.91C169.21 111.277 170.265 110.871 171.37 110.724L184.019 109.043" stroke="#423C52" stroke-miterlimit="10" stroke-linecap="round"/>
<path d="M170.222 129.688C169.74 128.684 169.502 127.58 169.529 126.466C169.556 125.353 169.846 124.261 170.375 123.281C170.905 122.301 171.659 121.461 172.576 120.828C173.493 120.196 174.546 119.789 175.651 119.642L188.3 117.961" stroke="#423C52" stroke-miterlimit="10" stroke-linecap="round"/>
<path d="M174.584 138.328C174.102 137.324 173.864 136.22 173.891 135.106C173.918 133.993 174.208 132.901 174.738 131.921C175.267 130.941 176.021 130.101 176.938 129.468C177.855 128.835 178.909 128.429 180.013 128.282L192.659 126.6" stroke="#423C52" stroke-miterlimit="10" stroke-linecap="round"/>
<path d="M118.189 158.275C120.131 152.794 110.855 144.506 97.4692 139.764C84.0839 135.021 71.6587 135.619 69.7168 141.1C67.7749 146.581 77.0516 154.868 90.437 159.611C103.822 164.354 116.248 163.755 118.189 158.275Z" fill="#423C52"/>
<path d="M118.322 157.849C115.605 159.757 108.851 159.847 101.433 158.496C92.8677 156.914 85.8801 153.054 85.4307 149.7L85.4468 148.924L85.9222 126.478C85.985 123.456 86.9671 120.524 88.7376 118.075C90.5082 115.625 92.9831 113.772 95.8327 112.764L117.578 105.059C118.627 104.688 119.75 104.57 120.854 104.716C121.957 104.861 123.011 105.266 123.928 105.897C124.846 106.527 125.601 107.366 126.132 108.344C126.663 109.323 126.955 110.413 126.984 111.526L127.498 140.469C127.521 141.727 127.16 142.963 126.463 144.011C125.767 145.06 124.768 145.871 123.599 146.338L118.748 148.278L118.322 157.849Z" fill="#A0505A"/>
<path d="M127.181 120.124C127.153 119.011 126.861 117.92 126.33 116.941C125.799 115.963 125.044 115.123 124.127 114.493C123.209 113.862 122.155 113.457 121.051 113.312C119.947 113.167 118.825 113.285 117.775 113.657L105.747 117.915" stroke="#423C52" stroke-miterlimit="10" stroke-linecap="round"/>
<path d="M127.265 129.688C127.237 128.575 126.945 127.485 126.415 126.506C125.884 125.527 125.128 124.688 124.211 124.057C123.293 123.426 122.239 123.022 121.135 122.876C120.031 122.731 118.909 122.849 117.859 123.221L105.834 127.48" stroke="#423C52" stroke-miterlimit="10" stroke-linecap="round"/>
<path d="M127.469 138.894C127.441 137.781 127.149 136.69 126.618 135.712C126.087 134.733 125.332 133.894 124.414 133.263C123.497 132.632 122.443 132.227 121.339 132.082C120.235 131.937 119.112 132.055 118.063 132.427L106.034 136.686" stroke="#423C52" stroke-miterlimit="10" stroke-linecap="round"/>
<path d="M100.815 36.5999V57.5172C100.815 57.5172 114.719 76.792 132.826 71.667C146.407 67.8256 129.784 52.4795 129.784 52.4795V36.5999H100.815Z" fill="#A0505A"/>
<path d="M129.78 36.5999V52.4795L105.956 63.15C105.956 63.15 100.815 58.5681 100.815 57.5237V36.5999H129.78Z" fill="#423C52"/>
<path d="M98.7068 24.8558L106.406 24.5745C107.095 23.0378 108.175 21.7088 109.539 20.7201C111.178 19.5247 113.156 18.8826 115.185 18.8868H128.468C128.973 18.886 129.477 18.9315 129.975 19.0226C130.265 19.0714 130.552 19.1383 130.835 19.223C131.114 19.2657 131.396 19.2873 131.679 19.2877C135.452 19.2877 138.511 15.5045 138.511 10.8354C138.511 6.16624 135.452 2.37984 131.679 2.37984C130.796 2.39736 129.928 2.60485 129.133 2.98819C128.337 3.37152 127.634 3.92169 127.071 4.60124C125.778 1.84631 123.404 0 120.691 0C117.684 0 115.094 2.26344 113.927 5.53572C113.287 4.88431 112.525 4.36561 111.684 4.00938C110.844 3.65314 109.941 3.46638 109.028 3.45982C105.853 3.45982 103.14 5.6974 102.079 8.85327C102.079 8.85327 96.023 6.31176 93.3489 9.99469C90.6748 13.6776 98.7068 24.8558 98.7068 24.8558Z" fill="#423C52"/>
<path d="M137.017 24.7296V39.2803C137.016 41.5011 136.134 43.6308 134.563 45.2012C132.993 46.7715 130.863 47.6541 128.642 47.655H116.811C113.866 47.6547 111.039 46.4987 108.937 44.4356C106.835 42.3725 105.627 39.567 105.572 36.6224H100.055C98.4559 36.6224 96.9221 35.987 95.7912 34.8561C94.6602 33.7252 94.0249 32.1913 94.0249 30.5919C94.0249 28.9925 94.6602 27.4587 95.7912 26.3278C96.9221 25.1968 98.4559 24.5615 100.055 24.5615H105.876C106.332 22.9308 107.31 21.4941 108.659 20.4707C110.008 19.4473 111.655 18.8933 113.348 18.8932H131.174C132.723 18.8932 134.208 19.5079 135.304 20.6023C136.399 21.6966 137.016 23.1811 137.017 24.7296Z" fill="#A0505A"/>
<path d="M104.104 32.1052C104.103 30.9309 103.636 29.805 102.805 28.9749C101.974 28.1449 100.848 27.6786 99.6738 27.6786" stroke="#423C52" stroke-miterlimit="10" stroke-linecap="round"/>
<path d="M136.916 26.1589C136.916 26.1589 132.27 25.0304 129.774 28.4611C127.979 30.9283 128.713 38.32 128.713 38.32" stroke="#423C52" stroke-miterlimit="10" stroke-linecap="round"/>
<path d="M121.448 26.2462C121.448 26.2462 116.892 25.6836 113.335 26.8703" stroke="#423C52" stroke-miterlimit="10" stroke-linecap="round"/>
<path d="M133.179 34.0777C133.679 34.0777 134.084 33.3003 134.084 32.3414C134.084 31.3824 133.679 30.605 133.179 30.605C132.679 30.605 132.273 31.3824 132.273 32.3414C132.273 33.3003 132.679 34.0777 133.179 34.0777Z" fill="#423C52"/>
<path d="M118.228 34.0777C118.728 34.0777 119.133 33.3003 119.133 32.3414C119.133 31.3824 118.728 30.605 118.228 30.605C117.728 30.605 117.322 31.3824 117.322 32.3414C117.322 33.3003 117.728 34.0777 118.228 34.0777Z" fill="#423C52"/>
</svg>
